<?xml version="1.0" encoding="UTF-8"?>
<svg id="Layer_1" xmlns="http://www.w3.org/2000/svg" version="1.1" viewBox="0 0 242.36 40.96">
  <!-- Generator: Adobe Illustrator 29.1.0, SVG Export Plug-In . SVG Version: 2.1.0 Build 142)  -->
  <defs>
    <style>
      .st0 {
        fill: #fff;
      }
    </style>
  </defs>
  <path class="st0" d="M79.64,15.36c-1.31-1.46-3.24-2.21-5.74-2.21s-5.4,1.29-5.66,1.4l-1.5,16.99c1.32.89,3.44,1.29,5.69,1.29,5.26,0,8.47-3.53,9.03-9.94.3-3.3-.31-5.84-1.82-7.53ZM77.21,22.77c-.42,4.82-1.8,6.88-4.61,6.88-.59,0-1.07-.09-1.33-.15l1.15-13.12c.39-.11.82-.16,1.38-.16,1.1,0,1.9.3,2.46.93.88.98,1.19,2.83.95,5.62Z"/>
  <path class="st0" d="M60.11,21.86c1.06-.54,2.84-1.77,3.04-3.94.11-1.2-.24-2.26-1-3.08-1.03-1.1-2.78-1.71-4.92-1.71-2.8,0-4.64.74-5.3,1.06l-.34.16.95,2.84.45-.21c.7-.33,2.02-.76,3.53-.76.9,0,1.58.21,1.96.62.29.31.48.83.43,1.37-.15,1.61-1.92,2.72-4.58,2.94l-.36.03-.24,2.59h.49c1.26-.04,2.94.12,3.81,1.02.45.47.67,1.13.6,1.94-.17,1.82-1.59,2.89-3.74,2.89-1.91,0-3.07-.51-3.48-.73l-.39-.21-1.51,2.94.36.2c1.32.73,3.04,1.07,5.42,1.07,4.3,0,7.45-2.56,7.85-6.11.25-2.27-.84-3.98-3.03-4.92Z"/>
  <path class="st0" d="M91.96,32.68c-4.41,0-7.31-3.56-6.76-9.73.56-6.2,4.25-9.62,8.55-9.62,2.37,0,3.7.69,4.37,1.28l-1.15,2.39c-.5-.42-1.25-.8-2.51-.8-2.98,0-4.47,2.6-4.84,6.68-.37,4.12.86,6.75,3.55,6.75,1.19,0,2.04-.35,2.69-.83l.77,2.6c-.85.7-2.33,1.28-4.67,1.28h0Z"/>
  <path class="st0" d="M107.27,32.68c-5.41,0-7.65-4.15-7.15-9.66.5-5.57,3.49-9.69,8.91-9.69s7.66,4.12,7.15,9.69c-.5,5.51-3.49,9.66-8.91,9.66h0ZM108.79,16c-3.08,0-4,3.43-4.32,6.99-.32,3.53.06,6.82,3.08,6.82s3.99-3.29,4.31-6.82c.31-3.57.05-6.99-3.07-6.99h0Z"/>
  <path class="st0" d="M130.25,32.34l1.2-13.23c.14-1.52-.43-3.11-3.2-3.11-1.43,0-2.2.21-3.06.52l-1.43,15.82h-4.38l1.6-17.66c1.9-.83,4.43-1.35,7.69-1.35,5.77,0,7.43,2.7,7.16,5.71l-1.2,13.3h-4.38Z"/>
  <path class="st0" d="M150.15,32.34l1.2-13.23c.14-1.52-.43-3.11-3.2-3.11-1.43,0-2.2.21-3.06.52l-1.43,15.82h-4.38l1.6-17.66c1.9-.83,4.43-1.35,7.69-1.35,5.77,0,7.43,2.7,7.15,5.71l-1.2,13.3h-4.37Z"/>
  <path class="st0" d="M163.29,24.55c.05,3.46,1.61,5.19,4.8,5.19,2.22,0,3.88-.52,4.97-1.04l.8,2.67c-1.43.73-3.57,1.31-6.5,1.31-5.49,0-8.65-3.43-8.08-9.73.55-6.09,4.06-9.62,9.12-9.62s7.62,3.29,6.88,9.55l-11.99,1.67h0ZM168.02,15.93c-2.55,0-4.48,2.01-4.78,6.47l8.1-1.18c.34-3.77-.92-5.29-3.32-5.29h0Z"/>
  <polygon class="st0" points="197.42 32.34 199.11 13.68 203.48 13.68 201.79 32.34 197.42 32.34"/>
  <path class="st0" d="M213.82,32.68c-5.42,0-7.65-4.15-7.16-9.66.51-5.57,3.49-9.69,8.91-9.69s7.66,4.12,7.16,9.69c-.5,5.51-3.49,9.66-8.91,9.66h0ZM215.33,16c-3.08,0-4,3.43-4.33,6.99-.32,3.53.06,6.82,3.08,6.82s3.99-3.29,4.31-6.82c.33-3.57.07-6.99-3.06-6.99h0Z"/>
  <path class="st0" d="M236.75,32.34l1.2-13.23c.13-1.52-.43-3.11-3.2-3.11-1.43,0-2.2.21-3.06.52l-1.43,15.82h-4.38l1.6-17.66c1.9-.83,4.42-1.35,7.69-1.35,5.78,0,7.43,2.7,7.16,5.71l-1.21,13.3h-4.37Z"/>
  <polygon class="st0" points="195.08 13.68 190.96 13.68 186.32 20.79 185.96 24.75 189.16 32.34 193.97 32.34 188.8 22.4 195.08 13.68"/>
  <polygon class="st0" points="185.42 20.64 182.14 13.68 178.01 13.68 182.71 22.4 175.75 32.34 180.55 32.34 185.03 24.91 185.42 20.64"/>
  <path class="st0" d="M40.66,15.42c-.36-.48-.91-.63-1.54-.43-1.39.44-8.82,5.77-8.82,5.77l-1.9,6.52-3.98,13.68s9-6.3,12.53-11.74c1.23-1.88,2.28-4.15,3.01-6.32,1.13-3.3,1.52-6.37.7-7.48Z"/>
  <path class="st0" d="M20.42,0l-8.9,5.46c-.37.22-.38.54-.24.81.13.26.46.36.82.19s.69-.32.69-.32c1.38-.74,4.6-2.46,8.18-1.97,2.41.33,4.9,1.26,7.6,2.83,2.49,1.45,3.87,2.92,3.99,4.26,0,.06,0,.12,0,.18,0,.72-.38,1.41-1.13,2.04-1.85,1.56-4.39,2.78-5.25,3.19-1.56-.79-11.23-5.72-11.54-5.87-.41-.19-.72-.05-.87.15-.02.02-.02.05-.04.07-.13.24-.1.55.1.79.1.11.24.21,1.05.73,1.06.68,2.84,1.82,4.3,3,2.15,1.74,3.52,3.97,3.74,6.11.17,1.62.14,3.96-.86,6.36-.14.35-.31.7-.5,1.05-2.31,4.31-5.87,5.27-10.56,2.84-3.83-1.98-7.35-4.18-8.32-4.8.05-.17.33-1.2.72-2.62,1.07-3.89,2.95-10.71,2.95-10.71.02-.06.03-.13.03-.2,0-.29-.17-.54-.44-.63-.31-.09-.61.07-.71.39l-3.47,10.33-1.77,5.34,21.69,11.95,3.86-13.27,2.51-8.65h0l13.09-8.59L20.42,0Z"/>
</svg>