<?xml version="1.0" encoding="UTF-8"?>
<svg id="Layer_1" xmlns="http://www.w3.org/2000/svg" version="1.1" viewBox="0 0 185.94 43.93">
  <!-- Generator: Adobe Illustrator 29.1.0, SVG Export Plug-In . SVG Version: 2.1.0 Build 142)  -->
  <defs>
    <style>
      .st0 {
        fill: none;
      }

      .st1 {
        fill: #fff;
      }
    </style>
  </defs>
  <path class="st1" d="M17.49,21.13c.98-3.64,2.65-7.01,4.11-10.46,2.44-5.76.88-4.69,7.13-4.79,3.2-.05,6.39-.03,9.59,0,.77,0,1.59-.24,2.29.29.21.55-.12.95-.29,1.38-.79,2.03-.8,2.05-2.92,2.06-3.04.02-6.08.07-9.11-.02-1.5-.04-2.42.45-2.87,1.9-.48,1.58-1.38,3.03-1.66,4.58.52.79,1.22.65,1.82.76,6.33,1.15,10.99,6.56,11.11,12.9.13,6.85-4.11,12.42-10.59,13.81-5.52,1.19-10.03-.59-13.74-4.74-1.25-1.4-1.78-2.79-.64-4.49.26-.39.39-.85.6-1.31.96.29.86,1.16,1.16,1.74,2.06,3.87,5.25,6.04,9.64,5.99,4.26-.04,7.46-2.1,9.39-5.95,1.88-3.74,1.25-8.33-1.49-11.42-2.95-3.33-7.39-4.49-11.55-3.02-.67.24-1.35.48-2.02.73l.03.03v.03Z"/>
  <path class="st1" d="M124.48,5.18c1.38-.02,2.72.18,4.01.67,1.17.44,2.06,1.2,2.55,2.39.85,2.1.43,2.81-1.85,3.09-.56.07-1.11.11-1.67.16-1,.09-1.78.05-2.28-1.17-.48-1.18-1.97-1.5-3.05-.94-.43.22-.85.53-.85,1.07s.43.83.91.97c.85.24,1.7.45,2.55.67.46.12.93.25,1.38.4,2.02.68,4.02,1.52,4.51,3.85.55,2.59-.61,4.72-2.47,6.42-2.73,2.5-9,3.13-12.28,1.35-1.1-.6-1.82-1.51-2.25-2.7-.86-2.39-.45-3.08,2.07-3.4.48-.06.95-.11,1.43-.18,1.14-.17,1.85-.02,2.27,1.38.56,1.91,2.76,2.34,4.29,1.1,1-.81.99-1.9-.13-2.53-.68-.39-1.48-.59-2.25-.8-1.24-.34-2.48-.66-3.6-1.29-2.41-1.34-3.15-3.62-1.98-6.12,1.2-2.57,3.42-3.7,6.06-4.16.86-.15,1.75-.14,2.63-.21v-.02Z"/>
  <path class="st1" d="M66.32,24.41c-1.65.49-3.4.23-5.13.2-.8-.01-1.1-.64-1.06-1.33.07-1.49-.8-1.7-1.99-1.62-.72.05-1.44.06-2.16,0-1.56-.13-2.86.09-3.32,1.9-.14.55-.51,1.06-1.16,1.06-1.72,0-3.47.3-5.14-.21-.13-.91.4-1.47.74-2.08,2.73-4.98,5.51-9.92,8.19-14.92.68-1.26,1.44-1.92,2.96-1.86,5.66.2,4.44-.84,5.57,4.44.89,4.14,1.68,8.3,2.51,12.45.12.62.34,1.24-.01,1.98h0ZM58.29,11.99c-.78,1.6-1.56,3.2-2.49,5.12,1.32-.01,2.29.27,3.26-.24.34-1.67-.24-3.19-.77-4.88Z"/>
  <path class="st1" d="M17.65,3.59H.01C0,2.49.58,1.8.89,1.02,1.15.36,1.66.04,2.38.04c6.78.06,13.56-.2,20.34.14.07,0,.14.08.21.12.32.48.08.92-.1,1.35-4.07,9.8-8.14,19.61-12.22,29.41-.9,2.17-.93,2.17-3.25,2.12-.54,0-1.11.26-1.81-.26,3.96-9.59,7.94-19.23,12.12-29.33h-.02Z"/>
  <path class="st1" d="M148.73,19.49c.82,2.13,1.58,2.46,3.42,1.63,1.91-.86,3.6-.86,6.04.06-.62,1.19-1.54,2.06-2.66,2.62-3,1.5-6.16,1.74-9.29.55-2.19-.83-3.03-2.75-3.12-4.98-.16-4.39,3.13-8.32,7.5-8.85,1.9-.23,3.84-.29,5.67.49,2.58,1.1,3.99,4.71,2.93,7.29-.37.89-1.04.88-1.75.88-2.08.01-4.16,0-6.24.02-.79,0-1.6-.16-2.5.28h0ZM149.37,16.22c1.58-.03,2.9.19,4.19-.18.37-1.09.02-1.75-1.02-2.01-1.27-.32-2.07.21-3.17,2.19Z"/>
  <path class="st1" d="M175.45,20.85c-.79,1.6-1.82,2.46-3.02,3.05-2.77,1.35-5.69,1.54-8.62.65-2.24-.68-3.67-2.9-3.64-5.36.06-4.75,3.68-8.52,8.43-8.72,1.27-.05,2.55-.11,3.81.24,3.28.92,5.08,4.37,3.97,7.57-.31.89-1.01.91-1.73.92-2.07,0-4.15-.01-6.22.01-.78,0-1.6-.17-2.34.25.21,1.9,1.18,2.66,2.75,1.78,2.11-1.18,4.14-.64,6.63-.39h-.02ZM170.82,16.05c-.23-1.69-.39-1.92-1.41-2.05-1.28-.17-1.93.3-2.85,2.22,1.49-.04,2.87.19,4.26-.16h0Z"/>
  <path class="st1" d="M97.14,10.5c.56,0,1.12-.06,1.67,0,3.69.43,5.76,3.17,5.23,6.87-.84,5.91-7.57,9.5-12.93,6.9-2.06-1-3.11-2.66-3.19-4.94-.16-4.97,3.88-8.87,9.21-8.84h.01ZM98.5,16.84c.04-.94-.15-1.8-1.08-2.21-1-.45-1.9-.08-2.62.64-.95.96-1.21,2.23-1.28,3.52-.04.93.26,1.79,1.21,2.14,1.01.37,1.91.02,2.59-.76.81-.94,1.11-2.1,1.18-3.32h0Z"/>
  <path class="st1" d="M141.3,21.05c.1,3.68-.15,3.94-3.64,3.99-.4,0-.8.01-1.2-.03-2.42-.25-3.46-1.37-3.29-3.79.11-1.5.51-2.99.72-4.49.09-.66.36-1.28-.53-1.85-1.25-.8-1.04-3.57.34-4.1,1.01-.38,1.35-.95,1.56-1.84.11-.5.44-.83.9-1.05,1.58-.73,3.16-1.46,4.8-2.22.65,1.2-.03,2.17-.09,3.15s-.03,1.77,1.25,1.8c.94.02,1.18.56,1.09,1.44-.19,1.89-.51,2.29-2.56,2.88-.23.07-.47.13-.65.27-.41.32-1.16,4.57-.94,5.1.44,1.07,1.48.13,2.22.71l.02.03Z"/>
  <path class="st1" d="M76.53,5.85c-1.02,5.9-2,11.56-2.98,17.23-.19,1.11-.76,1.6-1.95,1.61-4.94.02-3.98-.02-3.32-3.79.8-4.56,1.64-9.12,2.39-13.69.19-1.17.65-1.72,1.85-1.64,1.25.09,2.54-.17,4.01.29h0Z"/>
  <path class="st1" d="M185.94,5.91c-.68,3.96-1.34,7.88-2.02,11.79-.3,1.73-.62,3.46-.9,5.2-.19,1.17-.7,1.8-2.04,1.79-4.55-.03-3.98.08-3.3-3.62.83-4.56,1.67-9.11,2.38-13.69.22-1.43.81-1.96,2.18-1.82,1.17.12,2.38-.21,3.7.35Z"/>
  <path class="st1" d="M83.6,11.72c1.8-1.38,3.51-1.82,5.37-.5-.06,1.17-.85,1.92-1.34,2.81-.37.68-.88,1.06-1.75.92-1.58-.25-2.3.76-2.8,2.05-.7,1.8-.91,3.71-1.26,5.59-.37,2.02-.38,2.05-2.46,2.05-1.02,0-2.07.18-3.02-.18-.48-.42-.36-.92-.28-1.38.61-3.53,1.28-7.06,1.84-10.6.22-1.36.83-1.88,2.22-1.89,2.26,0,2.34-.06,3.46,1.12h.02Z"/>
  <path class="st1" d="M27.31,31.25h3.36c1.06,0,1.39.52,1.19,1.54-.66,3.33-4.9,6.71-8.27,6.61-.87-.03-1.36-.33-1.36-1.25,0-1.84.01-3.68-.01-5.52-.02-1.06.55-1.4,1.5-1.39,1.2,0,2.4,0,3.6,0h0Z"/>
  <path class="st1" d="M27.21,30.24c-1.12,0-2.24-.03-3.35,0-1.24.05-1.71-.54-1.68-1.74.05-1.92.07-3.83.02-5.75-.03-1.25.47-1.71,1.71-1.64,3.8.2,7.68,3.82,8.18,7.61.14,1.1-.3,1.47-1.28,1.48h-3.59v.03h-.01Z"/>
  <path class="st1" d="M113.87,38.46c-.3-.12-.38-.18-.44-.16-1.25.27-2.5.32-3.13-1.01-.58-1.23-.38-2.52.38-3.65.73-1.07,1.82-1.84,3.06-1.35,1.21.48,2.37-.48,3.66.27.06,2.23-.38,4.5-1.1,6.65-.67,2.01-4.25,2.86-5.99,1.61-.49-.35-.81-.81-.61-1.43.23-.74.88-.57,1.41-.51.47.06.91.27,1.37.38.29.07.3.05,1.39-.79h0ZM114.39,35.3c0-.54-.24-.96-.64-.93-.73.06-1.07.64-1.08,1.34,0,.45.32.72.78.67.67-.08.91-.55.94-1.08Z"/>
  <path class="st1" d="M52.34,35.89c-1.14,2.78-3.94,3.89-6.41,2.62-.66-.34-1.25-.81-1.44-1.52-.57-2.03-.33-3.97,1.15-5.57,1.42-1.54,3.2-1.99,5.22-1.48.3.08.63.19.87.38.68.53,1.61,1.16,1.01,2.1-.47.73-1.4.85-2.34.38-1.97-.98-3.11-.26-3.19,1.91-.02.63-.11,1.33.61,1.66.65.3,1.3.17,1.72-.39.95-1.26,1.84-.76,2.8-.1h0Z"/>
  <path class="st1" d="M129.29,36.61c1.06-.53,1.89-.8,2.8-.05.82.67,1.5.44,1.89-.5.33-.8-.2-1.54-1.04-1.35-.94.21-1.83.59-2.7-.07-.05-.21-.14-.37-.11-.51.77-3.98,1.82-4.75,5.83-4.24.55.07,1.2.04,1.22.83.02.85-.4,1.31-1.3,1.38-.83.06-1.72-.19-2.6.32.25.16.37.28.51.3,2.08.31,2.84.82,3.05,2.09.2,1.18-.73,2.81-2.03,3.56-2.04,1.18-4.22.56-5.53-1.76h0Z"/>
  <path class="st1" d="M72.17,38.77c.47-2.68.9-5.02,1.27-7.37.17-1.05.66-1.57,1.75-1.5,1.31.08.94,1,.92,1.76,0,.15.05.31.08.48.52.39,1.07-.04,1.6.02.77.09,1.37.39,1.77,1.07,1.03,1.72-.31,5.16-2.32,5.49-1.57.26-3.22.05-5.08.05h.01ZM75.49,35.67c0,.49.08,1.05.7.98.65-.07.8-.67.84-1.25.03-.5-.06-1.04-.69-.97-.65.07-.81.65-.85,1.24Z"/>
  <path class="st1" d="M150.97,30.35c-.72.9-1.27,1.68-1.91,2.38-1.27,1.36-2.32,2.78-2.49,4.76-.11,1.2-.89,1.56-2.04,1.34-1.06-.2-.99-1-.77-1.66.57-1.69,0-3.09-.82-4.52-.41-.73-.96-1.46-.95-2.37,1.69-.45,3.05.26,4.06,2.11,1.32-1.18,2.23-3.39,4.92-2.02v-.02Z"/>
  <path class="st1" d="M160.04,34.57c-.77-.08-1.6.14-2.38-.61.27-1.13,1.2-1.57,2.21-1.71,1.24-.16,2.56-.4,3.69.44.54.4.71,1.05.67,1.71-.03.47-.11.95-.23,1.41-.24.91.17,2.03-.56,2.73s-1.65.04-2.49,0c-.69-.02-1.39.26-2.1.31-.95.06-1.8-.24-2.05-1.25-.26-1.08.36-1.78,1.27-2.31.62-.36,1.47-.08,1.94-.77.46.03.95.19,1.29-.5-.65-.25-1.03-.07-1.26.53v.02ZM159.64,37.09c.88.16,1.27-.14,1.48-.87-.79-.19-1.21.06-1.48.87Z"/>
  <path class="st1" d="M86.32,33.86c1.31-1.61,3.95-2.26,5.53-1.41.53.29.86.72.95,1.3.24,1.54-.33,2.99-.56,4.48-.09.56-.73.73-1.15.57-1.2-.46-2.34,0-3.5.07-1.03.06-2.01-.18-2.2-1.36-.17-1.07.46-1.82,1.43-2.24,1-.44,2.21-.24,3.33-1.11-1.33-.57-2.63,1.25-3.83-.3ZM89.77,36.22c-.79-.15-1.33-.05-1.57.85.88.25,1.3-.06,1.57-.85Z"/>
  <path class="st1" d="M152.15,36.63c1.17.65,2.52-.41,3.62.57-1.25,1.65-3.8,2.27-5.41,1.32-1.18-.7-1.59-2.07-1.06-3.58.68-1.94,2.57-3.03,4.78-2.76,1.51.19,2.43,1.05,2.56,2.4.1,1.05-.23,1.71-1.46,1.6-1.02-.09-2.04-.02-3.03.45h0ZM153.57,34.44c-.16-.42-1.07-.44-.98.09.08.49.97.41.98-.09Z"/>
  <path class="st1" d="M109.57,34.23c-.24,1.26-.43,2.44-.68,3.6-.23,1.04-1.03,1.1-1.87.95-.89-.16-.8-.86-.71-1.5.08-.55.24-1.09.31-1.64.05-.39.08-.83-.42-.97-.47-.13-.79.16-.9.56-.21.76-.35,1.55-.51,2.32-.14.67-.42,1.17-1.2,1.28-1.13.16-1.62-.27-1.44-1.43.21-1.34.48-2.66.72-3.99.11-.61.46-1.22,1.04-1.09,1.33.3,2.6-.07,3.89-.1,1.15-.03,1.81.89,1.77,2.01Z"/>
  <path class="st1" d="M55.72,36.6c1.37.99,2.75-.52,3.78.56-.9,1.67-3.5,2.35-5.19,1.36-1.44-.85-1.73-2.7-.7-4.43s3.66-2.47,5.49-1.58c.87.43,1.31,1.14,1.43,2.06.14,1.03-.13,1.72-1.39,1.62-1.07-.09-2.14-.04-3.43.42h0ZM56.23,34.58c.53.43.94.43,1.3,0,.12-.14.04-.31-.14-.39-.4-.19-.75-.12-1.17.38h0Z"/>
  <path class="st1" d="M67.23,36.61c1.59.72,2.93-.37,4.03.53-1.1,1.71-3.91,2.38-5.48,1.28-.85-.59-1.22-1.45-1.14-2.48.2-2.81,3.49-4.7,6.04-3.49.77.36,1.26.94,1.44,1.78.25,1.2-.16,1.8-1.39,1.89-1.01.08-2.04,0-3.5.48h0ZM68.7,34.88c.31-.02.68.02.65-.41,0-.14-.28-.33-.46-.38-.3-.08-.67,0-.75.31-.12.43.3.42.56.48Z"/>
  <path class="st1" d="M122.84,38.53c.34-2.36,1.76-4.15,3.29-6.18-.96-.05-1.72-.09-2.47-.14-.47-.03-1.02-.04-1.08-.67-.06-.66.04-1.39.82-1.51,1.89-.3,3.8-.22,5.7-.05.59.05.72.53.63,1.06-.1.59-.5.97-.9,1.36-1.45,1.41-2.46,3.1-3.2,4.97-.62,1.56-.65,1.54-2.8,1.15h0Z"/>
  <path class="st1" d="M172.5,36.49c-.8-.69-2.12-1-1.8-2.49.23-1.05,1.42-1.77,3.07-1.84,1.2-.05,2.42-.06,3.04,1.48-1.06.98-2.21.24-3.5.07.4.98,1.14.7,1.64.88.85.31,1.74.66,1.76,1.7.02.92-.51,1.67-1.35,2.11-1.35.71-2.78.64-4.19.24-.53-.15-1.05-.5-1.05-1.16,0-.77.67-.78,1.2-.89.39-.08.79-.09,1.19-.13.33.7.73,1.09,1.51.44-.48-.6-1.02-.43-1.53-.41h.01Z"/>
  <path class="st1" d="M20.46,21.82c-.67,2.71-1.62,5.19-2.64,7.63-.35.84-3.06,1.1-3.65.46-.24-.26-.21-.57-.2-.89.06-3.09,3.01-6.5,6.5-7.2h-.01Z"/>
  <path class="st1" d="M97.29,30.29c.26.77-.07,1.65.81,2.3.62.46.11,1.23-.64,1.66-1.02.59-1.08,1.6-.5,2.45.39.57.84,1.01.38,1.65-.56.77-1.45.55-2.22.48-.81-.08-1.29-.62-1.34-1.44-.03-.55.06-1.11.11-1.67.03-.39.28-.94.11-1.15-1.26-1.54.22-2.3.91-3.21.53-.69,1.35-1.06,2.38-1.08h0Z"/>
  <path class="st1" d="M60.76,38.41c.44-2.46.88-4.94,1.33-7.43.19-1.06.98-1.15,1.81-1.04,1.12.14.8.99.69,1.66-.31,1.88-.61,3.76-.99,5.62-.35,1.73-.57,1.8-2.84,1.19Z"/>
  <path class="st1" d="M20.86,38.73c-1.38.22-2.08-.38-2.84-.79-.98-.53-1.35-1.27-.89-2.38.46-1.11.82-2.25,1.25-3.37.31-.82.98-1.02,1.76-.84.71.16.71.77.72,1.34v6.04Z"/>
  <path class="st1" d="M85.84,32.44c.11.87-.22,1.56-.65,1.64-1.89.34-1.98,1.84-2.3,3.22-.07.31-.1.64-.23.93-.35.74-1.03.63-1.67.58-.74-.07-.9-.54-.79-1.19.24-1.42.46-2.84.7-4.26.13-.73.63-1.27,1.32-1.07,1.17.33,2.35-.25,3.61.16h.01Z"/>
  <path class="st1" d="M170.59,32.59c-.19.46-.22.77-.39.88-1.74,1.09-2.84,2.54-3.02,4.68-.07.77-.93.73-1.57.66-.69-.08-.94-.55-.84-1.18.23-1.49.48-2.97.77-4.44.1-.49.48-.97.98-.88,1.28.25,2.62-.34,4.07.29h0Z"/>
  <path class="st1" d="M98.3,38.45c.04-1.73.56-3.4.84-5.1.17-1.02.94-1.19,1.81-1.05,1.06.17.85.91.71,1.64-.21,1.09-.34,2.19-.58,3.28-.38,1.72-.59,1.8-2.77,1.24h0Z"/>
  <path class="st1" d="M178.2,33.17c.07-.57.1-1.37.27-2.14.25-1.13,1.15-1.22,2.07-1.03.89.19.76.93.62,1.54-.25,1.08-.59,2.15-.89,3.22-.21.74-.54,1.42-1.46,1.19-.88-.22-.56-1-.6-1.6-.02-.32,0-.64,0-1.18h0Z"/>
  <path class="st1" d="M15.74,35c-.81-.21-.93-.71-1.1-1.12-.29-.71-.82-1.41-.38-2.22.27-.5,1.04-.46,2.69.07-.19,1.14-.6,2.21-1.21,3.28h0Z"/>
  <path class="st1" d="M178.43,38.84c-.59-.03-1.08-.18-1.09-.91-.02-.94.62-1.53,1.66-1.49.58.02,1.1.11,1.08.89-.02.98-.64,1.57-1.65,1.52h0Z"/>
  <path class="st1" d="M100.71,31.71c-.51-.05-1.16-.02-1.07-.86.09-.82.73-.96,1.41-.94.57.02,1.19.09,1.12.88-.08.84-.74.92-1.46.91h0Z"/>
  <path class="st1" d="M20.65,26.81c.37.95.25,1.84.12,2.71-.06.43-.4.66-.85.56-.49-.11-.59-.52-.44-.9.31-.76.26-1.7,1.17-2.37Z"/>
  <polygon class="st1" points="17.46 21.1 17.35 21.23 17.49 21.13 17.46 21.1"/>
  <path class="st0" d="M58.29,11.99c.52,1.69,1.11,3.21.77,4.88-.97.5-1.94.23-3.26.24.93-1.92,1.71-3.52,2.49-5.12Z"/>
  <path class="st0" d="M149.37,16.22c1.11-1.98,1.91-2.5,3.17-2.19,1.04.26,1.38.92,1.02,2.01-1.29.37-2.62.14-4.19.18Z"/>
  <path class="st0" d="M170.82,16.05c-1.39.36-2.77.12-4.26.16.92-1.92,1.57-2.39,2.85-2.22,1.02.14,1.18.37,1.41,2.05h0Z"/>
  <path class="st0" d="M98.5,16.84c-.07,1.22-.37,2.38-1.18,3.32-.67.78-1.58,1.14-2.59.76-.95-.35-1.26-1.21-1.21-2.14.06-1.29.32-2.56,1.28-3.52.72-.72,1.62-1.09,2.62-.64.93.42,1.13,1.27,1.08,2.21h0Z"/>
  <path class="st0" d="M114.39,35.3c-.03.53-.27,1-.94,1.08-.47.05-.79-.22-.78-.67.01-.69.35-1.28,1.08-1.34.4-.03.65.39.64.93Z"/>
  <path class="st0" d="M75.49,35.67c.04-.58.2-1.17.85-1.24.62-.07.72.47.69.97-.03.57-.18,1.18-.84,1.25-.62.07-.7-.49-.7-.98Z"/>
  <path class="st0" d="M159.64,37.09c.26-.82.69-1.07,1.48-.87-.2.74-.6,1.03-1.48.87Z"/>
  <path class="st1" d="M160.04,34.57c.24-.6.62-.79,1.26-.53-.34.69-.84.53-1.29.5l.03.03Z"/>
  <path class="st0" d="M89.77,36.22c-.28.79-.7,1.1-1.57.85.25-.89.78-.99,1.57-.85Z"/>
  <path class="st0" d="M153.57,34.44c-.02.5-.9.59-.98.1-.08-.54.82-.51.98-.1Z"/>
  <path class="st0" d="M56.23,34.58c.42-.5.77-.57,1.17-.38.18.08.26.25.14.39-.36.42-.77.42-1.3,0h0Z"/>
  <path class="st0" d="M68.7,34.88c-.27-.06-.68-.05-.56-.48.08-.3.46-.39.75-.31.18.05.45.24.46.38.03.42-.34.39-.65.41Z"/>
  <path class="st1" d="M172.5,36.49c.51-.02,1.05-.19,1.53.41-.78.66-1.18.26-1.51-.44l-.02.02h0Z"/>
</svg>