<?xml version="1.0" encoding="UTF-8"?>
<svg id="Layer_1" xmlns="http://www.w3.org/2000/svg" version="1.1" viewBox="0 0 396 78.46">
  <!-- Generator: Adobe Illustrator 29.1.0, SVG Export Plug-In . SVG Version: 2.1.0 Build 142)  -->
  <defs>
    <style>
      .st0 {
        fill: none;
      }

      .st1 {
        fill: #fff;
      }
    </style>
  </defs>
  <path class="st1" d="M77,44.36c-.75,20.59-21.03,35.48-41,34v-34h41Z"/>
  <path class="st1" d="M281,12.36l-11.99,1.01c.98-6.38-9.01-7.17-9.99-2.47-.86,4.12,16.65,3.78,19.46,10.49,3.75,8.96-4.35,18.71-13.07,19.89-10.66,1.45-24.8.52-22.42-13.92l11.96.05c-.9,12.13,17.82,4.23,10.44-.95-6.27-4.4-21.02-1.47-18.17-15.37,2.8-13.64,34.87-16.35,33.78,1.26Z"/>
  <path class="st1" d="M135.87,1.49l8.13,39.86-12.95-.05-1.15-6.84-13.74.06-3.82,6.68-11.33.16L121.49,2.35l14.38-.85ZM127.99,13.37c-2.34-.51-1.61.3-2.24,1.28-.71,1.11-5.2,10.3-4.75,10.7h8s-1.01-11.99-1.01-11.99Z"/>
  <path class="st1" d="M78,38.36h-42V.36c21.79-1.25,41.54,15.96,42,38ZM42,23.36h-2.99s.14,11.37.14,11.37c.89,2.72,8.37,2.63,7.86-1.35h-5s0-10.01,0-10.01ZM59,36.36c.68-2.1-2.68-4.3-2.66-5.48.02-1,3.26-3.71,1.23-6.58l-9.57-.93v13c3.68.95,2.57-5.01,3.51-5.01,3.33.82,3.07,6,7.49,5ZM62.7,23.54c-5.7,1.73-4.9,14.19,3.56,12.67,8.73-1.57,6.53-15.73-3.56-12.67Z"/>
  <path class="st1" d="M340,29.36h-23c.94,11.2,7.8,3.28,11.54,3.03,2.31-.16,6.7,1.49,9.45,1.47-3.64,4.19-6.73,6.85-12.49,7.51-11.93,1.37-21.68-1.02-19.26-15.27,3.43-20.16,39.06-21.12,33.76,3.27ZM329,24.36c1.45-7.43-9.21-8.37-9.99-1.48-.35,3.09,8.25.81,9.99,1.48Z"/>
  <path class="st1" d="M376,29.36h-23c2.69,11.23,7.7,3.36,11.53,3.01,2.16-.2,6.78,1.55,9.46,1.48-2.12,3.74-7.16,7-11.47,7.53-10.48,1.28-21.52-.13-20.44-13.39,1.77-21.59,39.27-24.05,33.91,1.37ZM365,24.36c1.74-8.31-7.72-7.98-10.02-1.51-.56,3.06,8.03.89,10.02,1.51Z"/>
  <path class="st1" d="M204.76,11.63c26.29-3.8,21.6,27.16,3.65,29.65-27.97,3.88-22.89-26.87-3.65-29.65ZM203.28,20.66c-3.78,3.12-4.51,14.43,2.17,13.75,9.06-.93,7.92-22.07-2.17-13.75Z"/>
  <path class="st1" d="M302,1.37l-2,10.99h6s-1,8-1,8l-6.98.02-1.75,11.54,5.75,1.45-.9,7.42c-.74,1.04-14.46,1.58-15.45-1.64-2.32-5.43,1.37-13.04,1.34-18.77h-4.01s1.04-7.97,1.04-7.97c6.35,1.03,3.69-3.9,6.96-6.53.67-.53,10.57-4.91,10.99-4.5Z"/>
  <path class="st1" d="M0,38.36C.69,21.92,11.84,7.23,27.49,2.35l-11.49,36.01H0Z"/>
  <polygon class="st1" points="111 51.36 112.5 63.37 117.98 51.84 127 51.37 123.11 73.78 118 74.36 119.5 58.35 112.84 74.19 108.11 74.24 106.5 59.35 103.11 73.78 98 74.36 101 51.36 111 51.36"/>
  <polygon class="st1" points="396 1.37 389.11 40.78 378 41.36 384.89 1.94 396 1.37"/>
  <path class="st1" d="M165,1.37l-7.48,39.01c-1.53,2.02-7.9.58-10.52.98l6.01-39.99h11.99Z"/>
  <path class="st1" d="M191,12.37c.5.7-2.45,6.39-3.42,7.07-2.1,1.48-4.54.46-6.59,1.41-4.18,1.94-4.78,16.12-6.1,20.4l-10.9.11,4.44-28.06,10.01-1.01,1.04,3.07c3.28-4.47,6.35-4.88,11.5-2.98Z"/>
  <path class="st1" d="M29,44.36v33c-3.7-1.31-15.75-6.39-15.95-10.45l7.43-21.56,8.52-.98Z"/>
  <path class="st1" d="M237,61.38c1.73,4.27,4.5,2.02,8,1.99-2.36,4.63,2.93,8.13-2.02,10.57-1.86.92-2.66-1.4-4.29-1.38-3.19.02-13.13,5.08-16.19-1.19-3.29-6.73,5.11-8.35,6.05-9.95.39-.66-.83-3.67-.57-5.5.92-6.31,14.31-7.03,14.8-.89-.31,2.92-2.81,5.9-5.78,6.35Z"/>
  <path class="st1" d="M267.01,65.37l-1.06,8.94-6.95.05,4.14-22.86c7.48.41,20.34-3.61,17.64,8.15-1.47,6.41-8.54,6-13.78,5.72ZM273.99,56.38l-4.98-1.02-.53,5.01c2.49,3.17,6.87-1.96,5.52-3.99Z"/>
  <path class="st1" d="M179,74.37c-2.92-.19-5.62,1.27-6.48-2.01-2.8,2.84-11.02,3.43-11.53-1.53-.68-6.63,8.58-5.95,13-7.48.08-1.78.5-2.12-1.49-1.99-3.02.19-6.19,1.72-9.51,1-.13-5.82,12.82-6.28,15.59-4.09,3.63,2.87-.57,11.98.41,16.1Z"/>
  <path class="st1" d="M309,74.37c-2.92-.19-5.62,1.27-6.48-2.01-2.8,2.84-11.02,3.43-11.53-1.53-.68-6.63,8.58-5.95,13-7.48.08-1.78.5-2.12-1.49-1.99-3.02.19-6.19,1.72-9.51,1-.13-5.82,12.82-6.28,15.59-4.09,3.63,2.87-.57,11.98.41,16.1Z"/>
  <path class="st1" d="M330,61.35c-2.04-.49-4.75,1.29-6.39,1.07-.39-.05-1.27-4.61-4.59-.56.03,1.92,8.64.94,9.85,5.21,2.15,7.59-15.36,10.85-17.86,2.79,2.71-2.48,10.24,2.43,11.99.5,2.63-2.9-10.05-2.71-9.27-6.3l-.33-2.72c1.54-5.51,14.62-5.89,16.6.02Z"/>
  <path class="st1" d="M210,61.35c-4.25,2.33-8.02-2.59-10.98.51.06,1.93,8.64.93,9.85,5.21,2.15,7.59-15.36,10.85-17.86,2.79,2.71-2.48,10.24,2.43,11.99.5,2.63-2.9-10.05-2.71-9.27-6.3l-.33-2.72c1.54-5.51,14.62-5.89,16.6.02Z"/>
  <path class="st1" d="M373.99,63.36c-7.15.12-13.63-6.1-12.88,5.88,4.6,2.5,6.62-3.1,11.88-.87,4.39,3.94-23.3,13.49-17.54-5.06,2.37-7.62,18.13-8.98,18.54.05Z"/>
  <path class="st1" d="M391.73,58.63c.26.22,1.38,2.61,1.28,2.72-4.49,2.76-7.82-2.83-10.98.51l9.82,3.65c3.35,10.1-16.57,12.63-16.84,3.85,2.54-1.34,9.37,2.81,10.99.99,2.39-2.69-8.15-3.17-8.52-4.97-3.74-7.95,10.01-10.26,14.25-6.75Z"/>
  <path class="st1" d="M158,57.36l3.07.55-.06,4.46-3.89.1c-.7,2.94-2.8,8.77,1.88,6.9v5c-10.78,1.53-10.94-3.29-7.98-12l-3.02-.02c.36-5.69,2.6-4.17,3.72-5.22.62-.58.28-2.35,1.28-3.25,1.15-1.03,4.29-.89,5.51-2.51l-.51,5.99Z"/>
  <path class="st1" d="M341,57.36l3.07.55-.06,4.46-3.96.04-.99,5.57.94,1.9,1.99-.51v5s-8.55-.94-8.55-.94c-1.93-3.2.7-8.12.58-10.49-.02-.33-3.08-.35-2.09-5.04.21-.97,2.21-.17,2.85-.75.49-.45-.09-2.02.85-2.86,1.05-.94,4.68-1.29,5.88-2.92l-.51,5.99Z"/>
  <polygon class="st1" points="192 51.37 188.11 73.78 182 74.36 185.89 51.94 192 51.37"/>
  <path class="st1" d="M291,51.36l-3.46,22.04c-1.17,1.67-4.72.81-6.54.95l4.04-22.94,5.96-.05Z"/>
  <path class="st1" d="M13,44.37c.4.36-2.7,8.86-3.25,10.24-.49,1.25-1.64,6.51-3.23,5.75-2.22-1.06-6.79-14.71-5.52-15.99h12Z"/>
  <polygon class="st1" points="353 57.36 350.52 73.38 345 74.36 347.01 57.37 353 57.36"/>
  <polygon class="st1" points="29 38.36 23 38.35 29 23.36 29 38.36"/>
  <polygon class="st1" points="355 51.37 353.86 55.22 348 55.35 348 51.37 355 51.37"/>
  <path class="st0" d="M127.99,13.37l1.01,11.99h-8c-.45-.41,4.04-9.6,4.75-10.71.63-.98-.1-1.79,2.24-1.28Z"/>
  <path class="st0" d="M59,36.36c-4.42,1-4.15-4.18-7.49-5-.94,0,.16,5.95-3.5,5.01v-13s9.56.93,9.56.93c2.03,2.88-1.21,5.59-1.23,6.58-.02,1.19,3.34,3.39,2.66,5.48Z"/>
  <path class="st0" d="M62.7,23.54c10.08-3.06,12.28,11.09,3.56,12.67-8.45,1.52-9.26-10.93-3.56-12.67ZM68,26.36l-4.85.14c-1.31,2.28-1.15,4.44-.05,6.76l4.46-.84.44-6.06Z"/>
  <path class="st0" d="M42,23.36v10.01s5,0,5,0c.51,3.99-6.96,4.07-7.86,1.35l-.14-11.37h2.99Z"/>
  <path class="st0" d="M329,24.36c-1.75-.67-10.34,1.61-9.99-1.48.78-6.89,11.44-5.95,9.99,1.48Z"/>
  <path class="st0" d="M365,24.36c-1.99-.63-10.58,1.55-10.02-1.51,2.3-6.47,11.76-6.8,10.02,1.51Z"/>
  <path class="st0" d="M203.28,20.66c10.09-8.32,11.23,12.83,2.17,13.75-6.68.68-5.95-10.63-2.17-13.75Z"/>
  <path class="st0" d="M273.99,56.38c1.36,2.03-3.02,7.15-5.52,3.99l.53-5.01,4.98,1.02Z"/>
  <path class="st1" d="M68.45,26.78l-1.26,5.95-4.54.22c-.77-2.45-.63-4.61.98-6.69l4.83.52Z"/>
  <path class="st1" d="M144.74,58.62c1.79,1.7,2.79,6.39,1.1,8.6l-12.85.15,1.68,3.06,10.32-1.07c-.6,5.46-12.79,6.57-15.98,3.48-7.96-9.39,8.83-20.77,15.73-14.23Z"/>
  <path class="st0" d="M139.78,64.75c-1.05-.4-6.21.97-6-.89.47-4.14,6.87-3.57,6,.89Z"/>
</svg>