<?xml version="1.0" encoding="UTF-8"?>
<svg id="Layer_1" data-name="Layer 1" xmlns="http://www.w3.org/2000/svg" xmlns:xlink="http://www.w3.org/1999/xlink" viewBox="0 0 314.37 57.55">
  <defs>
    <style>
      .cls-1 {
        fill: none;
      }

      .cls-2 {
        clip-path: url(#clippath);
      }

      .cls-3 {
        fill: #fff;
      }
    </style>
    <clipPath id="clippath">
      <rect class="cls-1" width="314.37" height="57.55"/>
    </clipPath>
  </defs>
  <g class="cls-2">
    <path class="cls-3" d="M96.02,7.76l15.15,40.38h-8.38l-3.21-8.69h-16.7l-3.21,8.69h-8.22L86.55,7.76h9.46Zm-10.5,24.71h11.43l-5.74-15.51-5.69,15.51Zm63.7,15.72h-7.19l-18.92-27.87v27.87h-7.96V7.81h8.38l17.73,26.47V7.76h7.96V48.19Zm7.08-40.43h13.91c12.72,0,20.48,7.91,20.48,20.22s-7.76,20.22-20.48,20.22h-13.91V7.76Zm13.91,33.35c7.81,0,12.31-5.17,12.31-13.08s-4.5-13.13-12.36-13.13h-5.74v26.21h5.79Zm24.97-9.05V7.81h8.32V31.75c0,6.83,3.31,9.72,8.38,9.72s8.38-2.95,8.38-9.72V7.81h8.27v24.25c0,11.17-6.72,16.7-16.7,16.7-9.98,0-16.65-5.58-16.65-16.7h0Zm48.03,16.13h-8.27V7.81h16.55c9.31,0,15.1,4.39,15.1,12.72,0,6.1-3.31,10.24-9,11.89l10.08,15.82h-9.46l-9.31-15.05h-5.64v14.99h-.05Zm7.86-21.92c4.86,0,7.29-2.12,7.29-5.69s-2.48-5.74-7.29-5.74h-7.81v11.43h7.81Zm29.26,21.92h-8.27V7.81h8.32l-.05,40.38Zm7.03-40.43h8.32V41h18.56v7.19h-26.83l-.05-40.43ZM61.37,36.71c-.83-.41-1.6-.83-2.33-1.29-2.59-1.5-4.96-3.31-7.14-5.33-.72-.67-1.5-1.4-2.17-2.17-6.26-6.83-9.98-15.56-10.55-24.82l-.1-2.43v-.21C39.09,.21,38.93,0,38.68,0h-15.93C22.49,0,22.34,.21,22.34,.47v.21l-.1,2.43c-.57,9.1-4.19,17.79-10.34,24.56-.67,.78-1.45,1.5-2.17,2.22-2.17,2.07-4.55,3.88-7.14,5.43-.78,.47-1.55,.88-2.33,1.29-.21,.1-.31,.36-.21,.57,.36,.83,.72,1.6,1.09,2.33,1.4,2.69,3.15,5.17,5.22,7.39,.62,.67,1.29,1.29,1.91,1.91,12.72,11.63,32.21,11.69,44.98,.1,.67-.62,1.34-1.29,1.91-1.91,2.07-2.22,3.83-4.71,5.27-7.39,.41-.78,.78-1.55,1.09-2.33,.16-.26,.05-.52-.16-.57ZM13.39,47.52c0,.36-.36,.57-.67,.36-.52-.36-.98-.78-1.45-1.19-.72-.62-1.34-1.24-1.91-1.81-1.86-1.91-3.46-4.08-4.76-6.46-.1-.21-.05-.41,.16-.57,2.28-1.4,4.45-3,6.46-4.81,.72-.62,1.45-1.34,2.12-2.02,5.43-5.53,9.26-12.41,11.06-19.91,0-.57,.83-.57,.83,0,.78,3.88,1.91,7.7,3.52,11.32,.05,.1,.05,.26,0,.36-2.69,5.64-6.36,10.75-10.91,15.1-.67,.62-1.34,1.24-1.91,1.91-1.24,1.45-2.07,3.21-2.43,5.12-.1,.62-.16,1.24-.16,1.86l.05,.72h0Zm26.94-8.01c.21,.21,.16,.52-.1,.67-2.79,1.65-6.05,2.53-9.31,2.59h-.1c-3.36,0-6.67-.93-9.57-2.69-.21-.16-.26-.47-.1-.62,.83-.83,1.65-1.71,2.43-2.59,2.59-2.95,4.86-6.15,6.77-9.62,.16-.26,.57-.26,.72,0,2.48,4.45,5.58,8.58,9.26,12.25h0Zm-22.28,3.15c.1-.21,.41-.26,.57-.1,3.62,2.43,7.86,3.72,12.2,3.72l.98-.05c.88-.05,1.76-.16,2.59-.26,3.1-.52,6.05-1.71,8.69-3.41,.16-.1,.36-.1,.52,.05,1.81,1.55,3.77,3,5.79,4.29,.26,.16,.26,.52,0,.67-5.22,4.14-11.63,6.41-18.25,6.46h-.26c-1.34,0-2.74-.1-4.08-.26-2.95-.41-5.79-1.24-8.48-2.48-.05-.05-.1-.1-.16-.16-1.81-2.53-1.86-5.95-.1-8.48h0Zm27.61-2.79l-2.02-1.81c-4.65-4.45-8.48-9.72-11.22-15.56-.52-1.09-.98-2.17-1.4-3.26-1.86-4.86-3-10.03-3.31-15.2-.05-.26,.16-.47,.41-.47h7.19c.21,0,.41,.16,.47,.41l.21,2.33c1.24,9.46,5.53,18.25,12.25,25.03,.67,.67,1.4,1.34,2.12,2.02,2.02,1.81,4.19,3.36,6.46,4.76,.21,.1,.26,.36,.16,.57-1.19,2.12-2.64,4.14-4.29,5.95-.16,.16-.36,.21-.52,.1-2.28-1.55-4.45-3.1-6.51-4.86h0Z"/>
  </g>
</svg>