<?xml version="1.0" encoding="UTF-8"?>
<svg id="Layer_2" xmlns="http://www.w3.org/2000/svg" version="1.1" viewBox="0 0 827.26 271">
  <!-- Generator: Adobe Illustrator 29.1.0, SVG Export Plug-In . SVG Version: 2.1.0 Build 142)  -->
  <defs>
    <style>
      .st0 {
        fill: #fff;
      }
    </style>
  </defs>
  <path class="st0" d="M80.82,85.58c-20.6,36.45-41.2,72.9-61.81,109.35h33.29c4.75-7.92,9.51-15.85,14.26-23.77h47.54c-3.17-7.92-6.34-15.85-9.51-23.77h-26.09c5.02-10.07,10.04-20.14,15.06-30.21,10.02,18,20.04,35.99,30.05,53.99h57.05v-42.79c14.26,14.26,28.53,28.53,42.79,42.79h33.28v-85.59h-28.53v49.53c-15.85-16.51-31.7-33.02-47.54-49.54h-26.48v76.1c-14.94-25.37-29.89-50.73-44.83-76.1h-28.53,0Z"/>
  <path class="st0" d="M385.1,85.58v85.58h28.53v-61.81h14.26c9.55.17,15.76,2.92,19.02,4.75,2.93,1.65,4.29,3,4.75,4.75,1.11,4.18-3.66,8.51-4.75,9.51-6.68,6.09-16.21,5.14-19.02,4.75h-6.75v20.4h16.32c2.32-.11,5.62-.44,9.45-1.38,4.12-1.02,12-3.06,19.02-9.51,2.77-2.55,7.55-6.94,9.51-14.26,3.17-11.84-3.55-21.95-4.75-23.77-5.49-8.26-13.04-11.64-19.02-14.26-10.16-4.45-19.63-5.02-25.97-4.75h-40.6Z"/>
  <path class="st0" d="M366.13,109.35c-7.47-11.95-18.67-16.79-23.82-19.02-2.98-1.29-11.66-4.74-23.42-4.75-11.29-.02-19.8,3.13-23.62,4.75-6.23,2.65-17.57,7.48-24.28,19.02-7.81,13.43-6.22,30.56.66,42.79,13.19,23.44,42.9,23.74,47.24,23.77,15.84.12,43.52-6.01,51.96-28.53,7-18.67-3.8-36.55-4.72-38.03h0ZM345.82,140.38c-4.48,13.04-19.19,16.58-27.6,16.51-2.3-.02-18.08-.19-25.09-13.76-3.65-7.08-4.5-17-.35-24.77,3.56-6.68,9.59-9.47,12.89-11.01,2.03-.94,6.55-2.76,12.54-2.75,6.25.01,10.85,2.01,12.44,2.75,2.73,1.29,8.68,4.09,12.65,11.01.49.86,6.22,11.21,2.51,22.02h0Z"/>
  <path class="st0" d="M484.94,85.58v85.58h90.33v-23.77h-61.81v-61.81h-28.53,0Z"/>
  <path class="st0" d="M556.26,85.58c-9.51,17.43-19.02,34.87-28.53,52.3h28.53s1.03-1.72,14.26-23.77c11.09,19.02,22.19,38.03,33.28,57.05h33.28c-17.43-28.53-34.87-57.05-52.3-85.58h-28.53,0Z"/>
  <path class="st0" d="M618.07,85.58v23.77h28.53v61.81h28.53v-61.81h33.28v-23.77h-90.34Z"/>
  <path class="st0" d="M717.91,85.58v23.77h90.33v-23.77h-90.33Z"/>
  <path class="st0" d="M717.91,116.48v23.77h90.33v-23.77s-90.33,0-90.33,0Z"/>
  <path class="st0" d="M717.91,147.38v23.77h90.33v-23.77h-90.33Z"/>
  <path class="st0" d="M0,0v271h827.26V0H0ZM817.75,180.67h-109.35l.04-31.93h-23.81v31.93h-85.58c-4.75-6.34-9.51-12.68-14.26-19.02v19.02h-109.35v-28.53c-13.37,7.61-20.11,9.49-23.77,9.51h-28.53v19.02h-47.54v-19.02c-2.11,2.34-5.39,5.67-9.89,9.05-19.34,14.54-40.81,14.75-47.16,14.72-5.61-.02-21.19-.68-38.03-9.51-6.19-3.25-10.95-6.76-14.26-9.51.01,4.76.02,9.52.04,14.28-15.71-.12-31.41-.24-47.12-.35-9.67-10.03-19.34-20.05-29.01-30.08,0,2.21.02,4.43.03,6.64v23.82c-40.36-.02-80.71-.03-121.07-.05-4.02,7.92-8.03,15.85-12.05,23.77H9.51V9.51h808.24v171.16Z"/>
</svg>