<?xml version="1.0" encoding="UTF-8"?>
<svg id="Layer_1" xmlns="http://www.w3.org/2000/svg" version="1.1" viewBox="0 0 519.1 161">
  <!-- Generator: Adobe Illustrator 29.1.0, SVG Export Plug-In . SVG Version: 2.1.0 Build 142)  -->
  <defs>
    <style>
      .st0 {
        fill: #fff;
      }
    </style>
  </defs>
  <polygon class="st0" points="67.3 5.8 18.7 125 51.4 125 99.9 5.8 67.3 5.8"/>
  <polygon class="st0" points="91.1 49.7 122.2 125 157.2 125 107.8 9.6 91.1 49.7"/>
  <path class="st0" d="M215.5,39.8c-5.9,0-11.1,1.2-15.8,3.5-4.7,2.4-8.5,5.8-11.4,10.3v-11.8h-24.8v82.8h25.5v-46.5c0-5.6,1.6-10.1,4.8-13.5,3.2-3.4,7.4-5.1,12.7-5.1s7.6,1.3,9.7,3.9c2.1,2.6,3.1,6.7,3.1,12.3v48.6h25.5v-49.8c0-11.7-2.4-20.4-7.3-26.2-4.8-5.8-12.2-8.7-22.1-8.7h0c0,.1,0,.2,0,.2Z"/>
  <path class="st0" d="M305.9,75.8l-14-3.2c-3.4-.9-5.7-1.8-7.1-2.9s-2-2.4-2-4.2,1.1-4.4,3.4-5.7,5.3-2,9.3-2c8.6,0,17.2,3,26,9.1l6.8-16.9c-4.5-3.3-9.6-5.8-15.2-7.6-5.6-1.8-11.4-2.7-17.4-2.7s-13.2,1.1-18.6,3.4c-5.5,2.2-9.7,5.3-12.6,9.3-3,3.9-4.5,8.5-4.5,13.7s1.9,11.7,5.6,15.4c3.7,3.8,9.6,6.5,17.7,8.3l13.5,3c4.2.9,7,1.9,8.5,3,1.5,1.1,2.3,2.7,2.3,4.7s-1.1,4-3.3,5.3c-2.2,1.3-5.3,1.9-9.2,1.9s-11-.8-16.4-2.5c-5.4-1.7-10.4-4.1-14.9-7.1l-6.8,17.5c4.6,3.3,10.1,5.8,16.4,7.5,6.4,1.7,13.4,2.6,21,2.6,11.1,0,19.9-2.3,26.2-6.8,6.4-4.6,9.5-10.8,9.5-18.8s-1.9-11.9-5.8-15.8c-3.9-3.9-10.1-6.8-18.5-8.7h0q0,.1,0,.1Z"/>
  <path class="st0" d="M494.7,84.8c-3.9-3.9-10-6.8-18.5-8.7l-14-3.2c-3.4-.9-5.7-1.8-7.1-2.9s-2-2.4-2-4.2,1.1-4.4,3.4-5.7c2.2-1.4,5.3-2,9.3-2,8.6,0,17.2,3,26,9.1l6.8-16.9c-4.5-3.3-9.6-5.8-15.2-7.6-5.6-1.8-11.4-2.7-17.4-2.7s-13.2,1.1-18.6,3.4c-5.5,2.2-9.7,5.3-12.7,9.3-3,3.9-4.5,8.5-4.5,13.7s1.9,11.7,5.6,15.4c3.7,3.8,9.6,6.5,17.6,8.3l13.5,3c4.2.9,7,1.9,8.5,3,1.5,1.1,2.3,2.7,2.3,4.7s-1.1,4-3.3,5.3c-2.2,1.3-5.3,1.9-9.2,1.9s-11-.8-16.4-2.5c-5.4-1.7-10.4-4.1-14.9-7.1l-6.8,17.5c4.6,3.3,10.1,5.8,16.4,7.5,6.4,1.7,13.4,2.6,21,2.6,11.1,0,19.9-2.3,26.2-6.8,6.4-4.6,9.5-10.8,9.5-18.8,0-6.6-2-11.9-5.8-15.8h0c0,.1,0,.1,0,.1Z"/>
  <polygon class="st0" points="355.2 155.2 379.9 155.2 426 42.3 401.3 42.3 381.5 90.8 361.6 42.3 336.9 42.3 368.7 121 355.2 155.2"/>
</svg>