<?xml version="1.0" encoding="UTF-8"?>
<svg id="Layer_1" xmlns="http://www.w3.org/2000/svg" version="1.1" viewBox="0 0 114.06 102.82">
  <!-- Generator: Adobe Illustrator 29.1.0, SVG Export Plug-In . SVG Version: 2.1.0 Build 142)  -->
  <defs>
    <style>
      .st0, .st1 {
        fill: none;
        stroke: #fff;
        stroke-miterlimit: 10;
      }

      .st1 {
        stroke-width: .5px;
      }

      .st2 {
        fill: #fff;
      }
    </style>
  </defs>
  <g>
    <path class="st2" d="M9.63,35.11v-17.6h2.9c1.3,0,2.3.1,3.1.3.8.2,1.4.5,2,.9.5.5,1,1,1.3,1.7s.5,1.4.5,2c0,1.3-.5,2.3-1.6,3.2.2,0,.4.1.6.2.5.2.8.4.9.5s.5.4.9.9c.6.8.9,1.7.9,2.8,0,1.4-.5,2.5-1.6,3.5-.6.6-1.4,1-2.2,1.2-.9.2-2,.3-3.3.3l-4.4.1h0ZM12.83,24.41h1c1.1-.1,1.6-.1,2-.5s.6-1,.5-1.5c0-.2-.1-.6-.5-1s-1-.5-2-.5h-1v3.5h0ZM12.83,32.11h1.5c1.1,0,1.9-.2,2.5-.7.5-.5.8-1.1.8-1.8s-.3-1.3-.8-1.8-1.4-.7-2.8-.7h-1.2v5h0Z"/>
    <path class="st2" d="M26.93,17.51v17.6h-3.2v-17.6h3.2Z"/>
    <path class="st2" d="M47.23,20.81c-.8.7-1.7,1.4-2.5,2-.2-.2-2.3-2.8-5.5-2.5-2.9.3-5.6,2.9-5.5,6.1.1,2.6,2,4.9,4.5,5.6,2.2.5,4.5-.2,6.1-2,1,.7,2,1.3,3,2-.7.7-1.8,1.8-3.5,2.5-2.1.9-3.9,1-4.5,1-.7,0-1.9,0-3.4-.7-1.1-.4-2-1.1-2.9-2-1.7-1.8-2.6-3.9-2.6-6.4,0-2.2.7-4.2,2.2-6,.5-.5,1.4-1.6,2.9-2.4,1.8-.8,3.3-.8,4.2-.7,3.8.2,6.6,2.7,7.5,3.5h0Z"/>
    <path class="st2" d="M53.13,27.11c-1.7-3-3.3-6-5-8.9h4l3,6c1.2-2,2.3-4,3.5-6h3.5c-1.7,3-3.3,6-5,8.9v7.9h-4v-7.9Z"/>
    <path class="st2" d="M87.03,17.81v14.1h5.1v3h-8.1v-17.1h3Z"/>
    <path class="st2" d="M104.23,20.81h-6.6v3.4c2.2,0,4.3.1,6.5.1v3h-6.1v4.5h6.1v3h-9.6v-17h9.6v3s.1,0,.1,0Z"/>
    <path class="st2" d="M80.83,21.11c-.8.6-1.6,1.3-2.4,2-.2-.2-2.2-2.8-5.4-2.4-2.8.3-5.5,2.8-5.4,5.9.1,2.5,1.9,4.8,4.4,5.4,2.1.5,4.4-.2,5.9-2,1,.7,2,1.3,2.9,2-.6.7-1.8,1.7-3.4,2.4-2,.9-3.8.9-4.3.9-.7,0-1.9,0-3.3-.6-1-.4-2-1.1-2.8-1.9-1.7-1.7-2.5-3.8-2.5-6.2,0-2.2.7-4.1,2.1-5.8.8-1,1.8-1.8,2.8-2.3,1.6-.9,3.2-.9,3.8-.9,4.1,0,6.9,2.9,7.6,3.5h0Z"/>
  </g>
  <g>
    <path class="st2" d="M20.33,41.21h-7.5v5.2h7.2v3h-7.2v10.2h-3.2v-21.4h10.7v3h0Z"/>
    <path class="st2" d="M33.33,50.41c1.8,3,3.7,6.1,5.5,9.1h-4.5c-1.7-2.9-3.4-5.7-5-8.6h-1v8.6h-3.5c0-7.1.1-14.2.1-21.3h3.8c1.1-.1,4.2-.2,6.7,1.6.5.4,1.4,1.2,2,2.5.2.4.6,1.3.5,2.5-.1,1.8-1.1,3-1.5,3.5-1.2,1.3-2.5,1.9-3.1,2.1h0ZM29.23,46.91c2,0,3,0,3.5-.5.8-.6.9-1.7.9-1.9s.1-1-.4-1.7c-.8-1.3-2.8-1.5-4-1.5h-1v5.5c.2.1.6.1,1,.1h0Z"/>
    <path class="st2" d="M55.03,54.91h-8.6c-.7,1.5-1.3,3-2,4.5h-4c2.9-7.1,5.7-14.1,8.6-21.2h4c2.7,7.1,5.4,14.1,8.1,21.2h-3.5c-.9-1.4-1.8-3-2.6-4.5h0ZM53.93,51.31l-3.2-7.3-3.3,7.3h6.5Z"/>
    <path class="st2" d="M63.03,59.51c1.2-7.1,2.4-14.1,3.5-21.2h4c1.8,5.2,3.7,10.4,5.6,15.6,1.7-5.2,3.4-10.4,5.1-15.7h4.5c1.2,7.1,2.4,14.1,3.5,21.2h-4c-.8-4.7-1.7-9.4-2.5-14.1-1.5,4.7-3,9.4-4.5,14.1h-4c-1.5-4.7-3-9.4-4.5-14.1-.9,4.7-1.8,9.5-2.7,14.2h-4Z"/>
    <path class="st2" d="M104.23,41.21h-8.6v5.2h8.3v3h-8.3v7.2h8.6v3h-11.8v-21.4h11.8v3h0Z"/>
  </g>
  <path class="st2" d="M44.73,65.81h-9.1v5.6h8.8v3.3h-8.8v7.8h9.1v3.3h-12.4v-23.3h12.5v3.3s-.1,0-.1,0Z"/>
  <path class="st2" d="M53.63,76.41h-1v9.3h-3.7c0-7.7.1-15.4.1-23.2h3.9c1.2-.1,4.4-.2,7,1.8.5.4,1.5,1.2,2.1,2.7.2.4.6,1.4.5,2.7-.1,2-1.2,3.3-1.6,3.8-2.4,3.3-6.7,2.9-7.3,2.9h0ZM53.63,72.01c2.1,0,3.1-.1,3.7-.6.8-.7.9-1.8.9-2s.1-1.1-.4-1.8c-.9-1.4-2.9-1.6-4.2-1.7h-1v6c.3.1.6.1,1,.1h0Z"/>
  <path class="st2" d="M17.13,85.41c-3.2.6-5.9.3-7.6,0v-22.9h7.1c3,0,6.7,1.1,9.1,4.2,3.3,4.1,3,11.2-.5,15.1-2.3,2.5-5.5,3.1-8.1,3.6h0ZM15.73,81.71c1.9-.2,4.8-.4,6.4-2.6.7-.9,1.4-2.4,1.5-4v-.2c0-.3.1-3-.7-4.8-1.5-3.4-6.7-3.9-7.4-4-.9-.1-1.6,0-2,0v15.6c.6.1,1.3.1,2.2,0h0Z"/>
  <path class="st2" d="M104.43,67.01h-4.5v18.7h-4v-18.7h-4v-4.5h12.6v4.5s-.1,0-.1,0Z"/>
  <path class="st2" d="M74.43,62.51c-4.9,0-8.8,5.2-8.8,11.6s4,11.6,8.8,11.6,8.8-5.2,8.8-11.6-3.9-11.6-8.8-11.6ZM74.43,83.21c-3.5,0-6.3-4.1-6.3-9.1s2.8-9.1,6.3-9.1,6.3,4.1,6.3,9.1-2.8,9.1-6.3,9.1Z"/>
  <line class="st1" x1="78.73" y1="63.01" x2="88.33" y2="63.01"/>
  <line class="st1" x1="78.73" y1="85.21" x2="88.33" y2="85.21"/>
  <path class="st2" d="M86.03,63.31l1,1h-2s1-1,1-1Z"/>
  <path class="st2" d="M85.93,84.71l-1-1h2l-1,1Z"/>
  <line class="st0" x1="85.93" y1="84.21" x2="86.03" y2="64.11"/>
  <path class="st2" d="M12.48.1l88.57-.1c6.55.21,12.31,4.21,13.01,10.25v82.28c-.54,4.89-4.66,8.73-9.89,9.87-30.21.84-60.57.11-90.84.37C5.37,102.28.54,97.93,0,90.79L.02,11.7C.56,5.24,5.17.61,12.48.1ZM10.85,1.81C6.33,2.73,2.72,6.14,1.94,10.26v81.98c.43,4.35,4.95,8.4,9.79,8.8h90.93c4.95-.41,9.47-4.63,9.8-9.09V10.82c-.42-4.56-4.53-8.32-9.49-9.08l-92.11.07h-.01Z"/>
</svg>