<?xml version="1.0" encoding="UTF-8"?>
<svg id="Layer_1" xmlns="http://www.w3.org/2000/svg" version="1.1" viewBox="0 0 499 41.51">
  <!-- Generator: Adobe Illustrator 29.1.0, SVG Export Plug-In . SVG Version: 2.1.0 Build 142)  -->
  <defs>
    <style>
      .st0 {
        fill: none;
      }

      .st1 {
        fill: #fff;
      }
    </style>
  </defs>
  <path class="st0" d="M51.36,34.94c10.13,10.42,34.82,8.62,40.12-6.66C99.23,5.93,74.78-6.09,56.32,3.12c-11.62,5.8-13.91,22.61-4.96,31.82ZM192,36.8v-17c-1.39-2.27-2.15-.5-2.5-.5h-16.5l1.64,4.86,11.36.14-.11,9.91c-12.49,4.53-33.68,2.22-31.83-15.29s25.74-15.01,36.93-9.61c1.94-7.01-7.41-8.36-12.62-8.87-17.63-1.75-35.16,7.09-29.33,27.33,4.57,15.85,31.05,16.22,42.95,9.05ZM30.5,1.3C21.86-.23,9.12,2.43,0,1.3v39h31.5c.38,0,4.87-2.78,5.52-3.48,4.59-4.87,3.59-14.46-3.02-16.54,6.47-5.33,5.28-17.43-3.5-18.98ZM131.5,1.3c-8.29-1.65-21.62,1.22-30.5,0v39h6V6.3h23.5c.95,0,3.4,4.13,3.49,5.57.53,8.36-10.85,6.75-16.36,6.64-2.87.94-.72,4.69.37,6.29,3.29,4.84,10.64,8.79,13.43,14.57l8.57.92-14.99-15.5,9.72-3.26c7.47-4.59,5.19-18.55-3.23-20.23ZM211,1.3h-6v39c2.47.11,4.27.36,6.56-.95,5.05-2.87,18.13-20.7,23.52-26.24,1.19-1.23,2.07-3.21,3.92-2.81v30l6.56-.95L278.99,1.79l-7.55.45-24.41,27.59-3.03,1.47V1.3l-6.57.93-26.43,29.07V1.3ZM303,1.3l-6.56.94-33.44,38.05c2.03-.09,4.34.38,6.3-.19,2.92-.86,7.6-8.8,8.2-8.8h20.5v9.01s5,0,5,0V1.3ZM346.5,1.3c-8.29-1.65-21.62,1.22-30.5,0v39h6V6.3h23.5c2.44,0,4.93,7.24,1.55,10.56-4.21,4.14-18.37-1.62-15.48,5.53,1.13,2.79,15.31,17.36,17.94,17.89,1.7.34,3.72-.1,5.48.01l-14.99-15.5,10.34-3.64c6.92-4.69,4.2-18.25-3.85-19.85ZM397,31.3l-25.45-29.05-6.55-.95v39h6V10.3l25,29.5,6,.5V1.3h-5v30ZM449,1.3h-34v39h34l-1.5-5h-27.5v-12h27v-5h-27V6.3h28l1-5ZM489.5,1.3c-8.35-1.49-20.68,1.1-29.5,0v39l5.75-1.46c-1.11-7.63-1.06-16.29-.78-24.1.09-2.64-.22-6.73,1.53-8.44h22c3.18,0,5.95,10.89,0,11.99-1.71.31-12.79.33-13.43,1.07-.38.44-.15,3.35.15,4.23.36,1.07,14.78,15.73,15.81,16.2,2.48,1.12,5.4.34,7.98.51l-15.99-16.49c5.16-.65,9.75-.06,13-4.99,4.21-6.37,1.09-16.15-6.51-17.51Z"/>
  <path class="st1" d="M211,1.3v30l26.43-29.07,6.57-.93v30l3.03-1.47,24.41-27.59,7.55-.45-33.44,37.56-6.56.95V10.3c-1.85-.4-2.73,1.58-3.92,2.81-5.39,5.55-18.47,23.37-23.52,26.24-2.29,1.3-4.09,1.05-6.56.95V1.3h6Z"/>
  <path class="st1" d="M30.5,1.3c8.78,1.55,9.97,13.65,3.5,18.98,6.62,2.08,7.61,11.67,3.02,16.54-.65.69-5.14,3.48-5.52,3.48H0V1.3C9.12,2.43,21.86-.23,30.5,1.3ZM6,17.3h23.5c3.62,0,3.62-11,0-11H6v11ZM6,35.3h24.5c4.16,0,5.52-13-2-13H6v13Z"/>
  <path class="st1" d="M192,36.8c-11.9,7.17-38.39,6.8-42.95-9.05-5.83-20.24,11.7-29.08,29.33-27.33,5.2.52,14.56,1.86,12.62,8.87-11.19-5.4-35.15-7.32-36.93,9.61s19.34,19.82,31.83,15.29l.11-9.91-11.36-.14-1.64-4.86h16.5c.35,0,1.11-1.77,2.5.5v17Z"/>
  <path class="st1" d="M51.36,34.94c-8.95-9.21-6.66-26.02,4.96-31.82,18.45-9.21,42.91,2.81,35.16,25.16-5.3,15.28-29.99,17.08-40.12,6.66ZM81.63,8.71c-13.38-9.16-34.17-.59-28.95,17.41,4.37,15.07,35.5,13.98,34.37-6.29-.19-3.31-2.68-9.25-5.42-11.12Z"/>
  <path class="st1" d="M131.5,1.3c8.41,1.67,10.7,15.63,3.23,20.23l-9.72,3.26,14.99,15.5-8.57-.92c-2.79-5.77-10.14-9.73-13.43-14.57-1.09-1.6-3.24-5.35-.37-6.29,5.51.11,16.89,1.72,16.36-6.64-.09-1.44-2.54-5.57-3.49-5.57h-23.5v34h-6V1.3c8.88,1.22,22.21-1.65,30.5,0Z"/>
  <path class="st1" d="M346.5,1.3c8.04,1.6,10.77,15.15,3.85,19.85l-10.34,3.64,14.99,15.5c-1.76-.11-3.78.33-5.48-.01-2.63-.52-16.81-15.09-17.94-17.89-2.89-7.15,11.27-1.4,15.48-5.53,3.37-3.32.88-10.56-1.55-10.56h-23.5v34h-6V1.3c8.88,1.22,22.21-1.65,30.5,0Z"/>
  <polygon class="st1" points="397 31.3 397 1.3 402 1.3 402 40.3 396 39.79 371 10.3 371 40.3 365 40.3 365 1.3 371.55 2.25 397 31.3"/>
  <path class="st1" d="M489.5,1.3c7.6,1.35,10.72,11.13,6.51,17.51-3.26,4.93-7.84,4.34-13,4.99l15.99,16.49c-2.58-.17-5.5.62-7.98-.51-1.03-.47-15.44-15.12-15.81-16.2-.3-.88-.53-3.78-.15-4.23.64-.74,11.73-.76,13.43-1.07,5.95-1.09,3.19-11.99,0-11.99h-22c-1.75,1.71-1.44,5.8-1.53,8.44-.28,7.81-.33,16.47.78,24.1l-5.75,1.46V1.3c8.82,1.1,21.15-1.49,29.5,0Z"/>
  <polygon class="st1" points="449 1.3 448 6.3 420 6.3 420 18.3 447 18.3 447 23.3 420 23.3 420 35.3 447.5 35.3 449 40.3 415 40.3 415 1.3 449 1.3"/>
  <path class="st1" d="M303,1.3v39h-5.01s0-9,0-9h-20.5c-.6,0-5.28,7.94-8.2,8.8-1.96.58-4.26.1-6.3.19L296.44,2.24l6.56-.94ZM298,10.3c-1.68-.36-2.02.53-2.98,1.52-4.07,4.18-8.57,9.73-12.02,14.48h15V10.3Z"/>
  <path class="st0" d="M6,35.3v-13h22.5c7.52,0,6.16,13,2,13H6Z"/>
  <path class="st0" d="M6,17.3V6.3h23.5c3.62,0,3.62,11,0,11H6Z"/>
  <path class="st0" d="M81.63,8.71c2.74,1.87,5.23,7.81,5.42,11.12,1.13,20.28-30,21.37-34.37,6.29-5.22-18.01,15.58-26.57,28.95-17.41Z"/>
  <path class="st0" d="M298,10.3v16h-15c3.45-4.76,7.95-10.3,12.02-14.48.96-.98,1.3-1.88,2.98-1.52Z"/>
</svg>