<?xml version="1.0" encoding="UTF-8"?>
<svg id="Layer_1" xmlns="http://www.w3.org/2000/svg" version="1.1" viewBox="0 0 340.64 88.8">
  <!-- Generator: Adobe Illustrator 29.1.0, SVG Export Plug-In . SVG Version: 2.1.0 Build 142)  -->
  <defs>
    <style>
      .st0 {
        fill: #fff;
      }
    </style>
  </defs>
  <g>
    <rect class="st0" y="22.76" width="81.06" height="20.78"/>
    <rect class="st0" y="45.52" width="81.06" height="20.78"/>
    <polygon class="st0" points="81.06 20.78 0 20.78 0 0 79.57 0 81.06 1.48 81.06 20.78"/>
    <path class="st0" d="M80.07,68.27l-1.27,2.22-38.93,18.31c-2.09.06-34.06-16.02-37.6-18.31-.98-.63-1.76.11-1.27-2.22h79.08Z"/>
  </g>
  <g>
    <polygon class="st0" points="332.68 52.73 332.68 21.28 340.64 21.28 340.64 69.44 304.79 36.02 304.79 67.47 297.81 67.47 297.81 18.33 332.68 52.73"/>
    <path class="st0" d="M192.97,20.54c40.15-6.35,39.29,54.35,0,47.68-26.92-4.57-25.96-43.57,0-47.68ZM192.96,27.4c-17.3,3.54-16.75,31.67,1.85,34.08,28.78,3.74,27.38-40.06-1.85-34.08Z"/>
    <path class="st0" d="M114.04,21.28c10.04,1.64,13.8,14.56,6.47,21.6,8.46,1.96,10.48,13.38,5.43,19.63-1.09,1.35-6.59,4.96-7.92,4.96h-18.43V21.28c4.45.5,10.2-.69,14.44,0ZM107.57,40.94c13.46,1.82,13.07-14.53,0-13.76v13.76ZM107.57,60.59c18.44,2.84,18.69-15.93,0-13.76v13.76Z"/>
    <path class="st0" d="M153.89,21.28c14.57,2.39,14.35,23.48.5,27.02l13.93,19.16c-2.25-.42-7.08.74-8.75-.21-2.8-1.6-9.41-16.58-14.15-18.46v18.67h-7.97V21.28c5.05.57,11.63-.79,16.43,0ZM145.42,41.92c16.2,2.84,16.72-16.67,0-13.76v13.76Z"/>
    <polygon class="st0" points="287.85 21.28 287.85 28.16 268.93 28.16 268.93 38.97 287.85 38.97 287.85 45.85 268.93 45.85 268.93 60.59 287.85 60.59 287.85 67.47 261.96 67.47 261.96 21.28 287.85 21.28"/>
    <polygon class="st0" points="254.98 21.28 254.99 28.17 244.03 28.16 244.03 67.47 237.06 67.47 237.06 28.16 226.04 27.73 225.1 21.28 254.98 21.28"/>
  </g>
</svg>