<?xml version="1.0" encoding="UTF-8"?>
<svg id="Layer_1" xmlns="http://www.w3.org/2000/svg" version="1.1" viewBox="0 0 426.99 69.08">
  <!-- Generator: Adobe Illustrator 29.1.0, SVG Export Plug-In . SVG Version: 2.1.0 Build 142)  -->
  <defs>
    <style>
      .st0 {
        fill: #fff;
      }
    </style>
  </defs>
  <polygon class="st0" points="112.69 38.48 117.62 22.85 94.56 38.47 112.69 38.47 112.69 38.48"/>
  <path class="st0" d="M398.72,57.48c-.98-.96-2.55-.96-3.53,0-.47.45-.73,1.08-.73,1.73h.02c-.01.66.25,1.29.73,1.74.49.48,1.14.73,1.82.71.63,0,1.23-.25,1.69-.68.97-.93,1-2.47.07-3.44-.02-.02-.04-.04-.07-.07h0ZM397.73,60.91l-.86-1.45h-.51v1.45h-.58v-3.42h1.29c.88,0,1.31.34,1.31,1.01,0,.56-.31.88-.93.94l.95,1.48h-.67Z"/>
  <path class="st0" d="M397.81,58.43c.01-.14-.05-.28-.17-.37-.18-.11-.39-.15-.6-.13h-.67v1.02h.72c.48,0,.71-.17.71-.52h.01Z"/>
  <path class="st0" d="M100.19.08l-18.85,12.76h0l-13.1,8.83h-27.06l-7.83,24.34h33.25L115.18,12.98h21.28l-13.63,42.52h-15.28l2.31-7.27h-29.78l-10.78,7.33H27.03c-6.83,0-11.17-3.74-9.71-8.34l8.34-26.34c2.5-6.03,5.95-8.06,15-8.06h40.67L85.37.08h-40.5S16.08-2.14,9.85,16.9L1,44.16s-8.48,24.92,24.05,24.92h60.96l21.55-13.53-4.38,13.53h302.07L426.99.08H100.19ZM184.91,26.29c-1.67,5.64-7.55,10.49-13.1,12.42l.46.78,8.93,16.08h-16.08l-12.68-22.63h9.28c4-.21,7.3-.7,9.19-4.42,1.77-3.47-.18-6.38-5.76-6.38h-9.28l-3.44,10.8-6.7,22.63h-16.14l13.63-42.52h35.02c5.76-.04,8.86,6.01,6.68,13.25h-.02,0ZM220.81,55.58l-35.5-.02,13.58-42.51h15.2l-10.38,33.18,20.1-.02-3,9.38h0ZM226.93,55.58l13.41-42.54h15.36l-13.57,42.5-15.21.04h0ZM308.44,42.54c-2.19,7.19-11.31,12.99-17.75,13.06h-41.95l3.02-9.49h35.64c4.69,0,6.29-1.1,7.46-2.98s.82-3.85-3.14-3.89h-24.58c-5.1-.48-8.13-6.09-6.04-12.98,1.92-6.31,9.55-11.63,15.68-12.86.94-.22,1.9-.33,2.87-.33l2.24-.04h34.68l-3.17,9.33h-32.56v.02c-3.91.04-5.31.99-6.47,2.87-1.16,1.88-.49,3.86,2.26,3.86h24.87c5.75-.03,9.13,6.24,6.94,13.43h0ZM346.52,55.56h-35.61l13.72-42.54h15.47l-10.65,33.34h20.08l-3.01,9.2ZM403.93,21.98h-25.08l-2.23,7.03,25.11-.04-2.97,9.37h-25.03l-2.57,8.31,25-.02-2.83,8.95h-39.55l13.32-42.53,39.61-.02-2.78,8.96h0Z"/>
  <polygon class="st0" points="81.34 12.84 81.32 12.84 81.32 12.85 81.34 12.84"/>
</svg>