<?xml version="1.0" encoding="UTF-8"?>
<svg id="Layer_1" xmlns="http://www.w3.org/2000/svg" version="1.1" viewBox="0 0 568.94 192.37">
  <!-- Generator: Adobe Illustrator 29.1.0, SVG Export Plug-In . SVG Version: 2.1.0 Build 142)  -->
  <defs>
    <style>
      .st0 {
        fill: #fff;
      }
    </style>
  </defs>
  <g>
    <path class="st0" d="M340.16,156.7c.1.45.19.79.26,1.15.71,3.64,2.97,5.75,6.54,6.46,2.69.53,5.42.58,8.07-.25,2.88-.9,4.21-3.11,3.71-5.99-.32-1.87-1.56-3-3.23-3.53-2.01-.63-4.11-.98-6.16-1.49-4.26-1.04-8.6-1.84-12.74-3.23-4.55-1.52-8.13-4.42-9.79-9.19-3.45-9.92,1.18-19.57,11.19-22.66,7.88-2.43,15.88-2.38,23.66.52,6.88,2.57,10.65,7.73,11.61,14.99.02.15,0,.31,0,.55-5,.51-9.95,1.02-14.96,1.53-.15-.49-.27-.9-.4-1.31-.94-2.97-2.89-4.83-6.01-5.33-2.39-.38-4.78-.4-7.12.34-2.28.73-3.44,2.12-3.54,4.17-.1,1.94.9,3.59,3.17,4.28,2.97.9,6.06,1.39,9.07,2.16,3.44.87,6.96,1.56,10.24,2.86,7.38,2.93,10.71,8.04,10.64,15.57-.07,8.09-3.77,13.68-11.03,16.61-4.49,1.82-9.21,2.24-14,2.19-4.39-.04-8.7-.58-12.77-2.3-6.61-2.79-10.25-7.9-11.44-14.87-.18-1.05-.25-2.11-.39-3.24,5.22.01,10.29.01,15.42.01Z"/>
    <path class="st0" d="M527.06,177.36h14.12c1.5,4.18,6.53,5.82,10.23,3.26.72-.49,1.36-1.29,1.7-2.09,1.25-2.97,1.18-6.12,1.15-9.47-.32.25-.48.35-.6.48-3.9,3.97-8.78,4.95-14.03,4.25-7.57-1.01-12.16-5.59-13.75-13.74-1.15-5.86-.97-11.72,1.26-17.35,3.81-9.63,12.46-12.2,20.69-10.22,2.68.65,4.84,2.21,6.78,4.59v-3.86h14.33v36.83c0,3.21-.27,6.38-1.18,9.48-1.71,5.86-5.42,9.81-11.31,11.5-6.29,1.8-12.65,1.83-18.92-.08-6.39-1.94-10.43-7.31-10.47-13.58ZM539.93,152.73c.26,1.58.36,3.03.74,4.4.91,3.26,3.25,4.97,6.51,4.94,3.29-.03,5.84-1.96,6.66-5.16.69-2.68.64-5.39.03-8.08-.77-3.39-2.92-5.17-6.31-5.33-3.23-.16-5.71,1.47-6.73,4.66-.48,1.5-.62,3.11-.9,4.57Z"/>
    <path class="st0" d="M52.59,136.78c-5.23.6-10.26,1.18-15.39,1.77-.25-.82-.49-1.61-.74-2.4-1.14-3.66-3.43-6.01-7.39-6.35-4.22-.37-7.75.83-10,4.7-1.39,2.4-1.99,5.05-2.23,7.77-.39,4.48-.42,8.96.85,13.32,1.12,3.86,3.19,6.95,7.41,7.85,5.77,1.22,10.89-.78,12.29-7.75.07-.35.16-.7.26-1.1h15.78c-.11,3.03-.7,5.9-1.83,8.65-2.55,6.19-7.1,10.29-13.4,12.33-6.97,2.25-14.04,2.22-20.99-.04-7.23-2.35-12.18-7.32-14.69-14.43-3.42-9.69-3.44-19.53.41-29.08,3.82-9.48,11.29-14.37,21.36-15.43,4.17-.44,8.31-.27,12.37.84,8.45,2.31,13.18,8.14,15.31,16.37.21.91.38,1.85.62,2.98Z"/>
    <path class="st0" d="M392.74,171.95v19.36h-14.58v-58.12h14.08v4.22c.15.11.29.21.44.32.15-.3.26-.65.47-.91,5.62-6.93,19.01-6.72,24.4,1.13,2.31,3.36,3.48,7.07,3.89,11.06.6,5.78.38,11.51-1.8,17-2.26,5.69-6.18,9.58-12.39,10.65-5.48.96-10.42-.09-14.51-4.71ZM392.52,154.05c.28,2.27.37,4.28.8,6.22.69,3.17,2.75,4.86,5.74,5.02,3.43.18,5.83-1.26,6.87-4.41,1.39-4.21,1.39-8.5.04-12.73-.97-3.01-3.15-4.48-6.22-4.47-3.02,0-5.32,1.53-6.2,4.51-.58,1.97-.73,4.06-1.03,5.86Z"/>
    <path class="st0" d="M104.14,133.2h14.11v4.92c.53-.58.81-.88,1.08-1.19,5.05-5.82,13.3-5.96,18.17-3.9,4.37,1.86,6.35,5.52,7.09,9.98.23,1.37.31,2.78.31,4.18.03,9.12,0,18.24,0,27.35,0,.31-.03.63-.06,1.03h-14.6v-1.46c0-8,0-16,0-23.99,0-.95-.05-1.93-.24-2.86-.43-2.12-1.68-3.15-3.82-3.32-4.34-.33-7.46,2.45-7.49,6.8-.05,6.88,0,13.76-.02,20.63v4.17h-14.56c.03-14.07.03-28.16.03-42.34Z"/>
    <path class="st0" d="M521.68,175.62h-14.65v-1.41c0-8.08.01-16.16-.01-24.24,0-.87-.06-1.76-.22-2.62-.42-2.2-1.74-3.3-3.98-3.43-4.34-.24-7.31,2.47-7.34,6.83-.05,7.76-.02,15.52-.02,23.28v1.52h-14.58v-42.32h14.12v4.52c.12.06.24.13.36.19.17-.26.31-.54.5-.77,4.79-5.7,12.39-6.29,17.75-4.4,4.93,1.74,7.06,5.72,7.8,10.61.2,1.34.26,2.71.27,4.06.02,9,.01,18,.01,27-.01.36-.01.72-.01,1.18Z"/>
    <path class="st0" d="M208.72,133.15h14.57v42.44h-14.06v-4.48c-.09-.04-.18-.09-.27-.13-.24.26-.5.51-.73.79-4.87,5.89-13.22,6.2-18.19,3.96-4-1.8-5.92-5.21-6.72-9.33-.28-1.44-.43-2.94-.44-4.41-.04-9.28-.02-18.56-.02-27.84,0-.27.03-.55.04-.91h14.6v24.84c0,.76.04,1.52.08,2.28.23,3.88,2.5,5.09,6.21,4.35,3.06-.62,4.89-3.16,4.9-6.67.04-7.76.02-15.52.02-23.28,0-.48,0-.96,0-1.61Z"/>
    <path class="st0" d="M98.99,157.87h-27.99c.14,2.11.37,4.12,1.53,5.8.6.88,1.51,1.71,2.47,2.14,2.37,1.05,4.84.92,7.2-.19,1.25-.59,2.03-1.63,2.57-2.89.13-.3.5-.71.76-.71,4.31-.04,8.63-.03,13.09-.03-.12.66-.18,1.2-.31,1.72-1.6,6.49-5.64,10.64-12.08,12.33-4.99,1.31-10.05,1.32-15.08.11-7.01-1.69-11.49-6.08-13.3-13.03-1.47-5.64-1.4-11.34.23-16.95,2.43-8.39,9.17-13.76,17.91-14.16,2.89-.13,5.88-.03,8.69.57,7.53,1.61,12.58,7.28,13.84,15.07.22,1.38.39,2.77.45,4.17.08,1.94.02,3.9.02,6.05ZM71.03,149.4h14.35c.06-4.35-2.05-6.9-5.82-7.14-5.12-.33-7.93,1.99-8.53,7.14Z"/>
    <path class="st0" d="M261.76,133.19h15.83c2.66,7.79,5.32,15.57,8.06,23.59.24-.66.42-1.08.56-1.53,2.19-6.97,4.39-13.94,6.53-20.92.28-.92.67-1.23,1.65-1.21,4.6.06,9.2.03,13.94.03-.27.71-.5,1.34-.75,1.96-5.59,14.02-11.15,28.05-16.8,42.05-1.03,2.55-2.29,5.01-3.62,7.42-2.31,4.19-5.81,6.57-10.71,6.79-3.8.17-7.48-.35-11.25-1.5.72-3.51,1.43-6.97,2.16-10.55,1.26.18,2.47.36,3.68.52,3.4.44,5.55-.9,6.94-4.01.97-2.18.95-4.05-.08-6.31-5.28-11.55-10.35-23.19-15.5-34.8-.21-.49-.4-.96-.64-1.53Z"/>
    <path class="st0" d="M179.12,133.12v11.41h-9.25v14.87c.06,3.99,1.45,5.36,5.41,5.22,1.15-.04,2.3-.2,3.55-.31.61,3.48,1.22,6.93,1.86,10.61-1.57.35-3.1.76-4.65,1.02-3.53.59-7.08.7-10.61-.04-5.73-1.19-8.83-4.43-9.73-10.25-.28-1.81-.42-3.66-.45-5.49-.06-4.72-.02-9.44-.02-14.16v-1.43h-6.71v-11.38h6.67v-11.17h14.63v11.09c3.16,0,6.18,0,9.3,0Z"/>
    <path class="st0" d="M244.49,175.62h-14.54v-42.38h14.18v5c2.11-2.59,4.35-4.39,7.25-5.19,2.86-.79,5.73-.81,8.67-.21,0,.32.03.56,0,.79-.5,3.88-1,7.75-1.49,11.51-2.55,0-5.03-.22-7.46.05-3.83.42-5.97,2.78-6.42,6.61-.11.95-.17,1.91-.18,2.87-.02,6.52-.01,13.03-.01,19.55,0,.41,0,.85,0,1.4Z"/>
    <path class="st0" d="M440.04,175.62h-14.55v-42.39h14.08v4.69c4.3-5.17,9.79-6.18,16.09-5.11-.54,4.19-1.07,8.29-1.58,12.28-2.45,0-4.81-.22-7.11.05-4.55.52-6.84,3.18-6.89,7.85-.08,7.04-.03,14.07-.04,21.11v1.52Z"/>
    <path class="st0" d="M473.81,175.6h-14.49v-42.39h14.49v42.39Z"/>
    <path class="st0" d="M459.25,128.35v-10.47h14.61v10.47h-14.61Z"/>
    <path class="st0" d="M85.38,149.4h-14.35"/>
  </g>
  <g>
    <path class="st0" d="M235.5.41c21.59,21.53,43.3,43.19,64.98,64.82-10.79,10.73-21.61,21.49-32.42,32.24-10.63-10.66-21.43-21.5-32.23-32.34-11.07,11.05-21.89,21.86-32.63,32.59-10.96-10.96-21.78-21.78-32.51-32.51C192.29,43.63,213.99,21.92,235.5.41"/>
    <path class="st0" d="M365.66,0l32.6,32.61-65.21,65.21-65.21-65.21L300.61,0M300.61,0l32.6,32.61L365.66,0"/>
  </g>
</svg>