<?xml version="1.0" encoding="UTF-8"?>
<svg id="Layer_1" xmlns="http://www.w3.org/2000/svg" version="1.1" viewBox="0 0 516 155">
  <!-- Generator: Adobe Illustrator 29.1.0, SVG Export Plug-In . SVG Version: 2.1.0 Build 142)  -->
  <defs>
    <style>
      .st0 {
        fill: none;
      }

      .st1 {
        fill: #fff;
      }
    </style>
  </defs>
  <path class="st0" d="M516,0v155H0V0h516ZM115,74c.8-24.96-7.89-50.26-32.74-59.76-13.29-5.08-56.07-6.02-70.81-4.29-1.46.17-2.57.12-3.45,1.55v119.5h57.5c10.17,0,28.22-10.37,35.01-17.99,5.46-6.12,14.56-23.78,14.3-31.75-.04-1.22-.37-1.55-1.31-2.26h-38.5l8,6.99c-.94.85-11.39-2.89-9.99.5,6.32,6.55,13.14,13.05,18.99,20.01.94,1.12,2.43,1.63,1.99,3.5l-24.5-19.99c-3.62-1.53.82,9.2.5,9.99-2.63-1.35-3.87-4.6-5.7-6.73-.62-.72.03-1.89-2.29-1.27-1.35,9.07-.32,18.42-1.02,27.48-.1,1.35-.49,6.05-1.98,6.51l-2.02-33.99c-4.19-.12-3.87,5.5-6.98,6.99l.98-8.99-3.32,1.17-28.67,25.82c-.7-.75,6.04-8.33,7.02-9.47,5.94-6.92,12.96-13.25,18.48-20.52.76-1,1.95-1.26,1.49-3l-9.99,1.98,6.99-5.01-1.67-2.81-31.34-1.67,32.44-3.45.57-2.03-6.99-5.01,9.99,1.99c.71-.86-2.27-4.54-3.02-5.47-1.73-2.17-23.13-23.35-21.97-24.52l28.51,23.98c3.32,1.37-.09-8.04.5-8.99,1.76-.1,5.38,8.98,6.98,6.99l2.02-43.99,1.98,10.51,1.02,33.48c1.91,2.16,6.24-7.82,7.99-7.99-.19,2.9-1.71,5.72-1.89,8.61-.09,1.5-.83,2.78,1.38,2.38l26.51-22.99-22.99,27.5,9.99-1.5c-1.43,3.69-7.69,3.93-8,7.99h40ZM356,16h-19v19h19v-19ZM452,19h-14.5c-1.45,4.18-6.84,16.61-6.54,20.5.27,3.58,7.03,3.21,9.55,1.52l11.49-22.01ZM183,74c6.85-47.95-68.93-46.25-64,0h64ZM255,74v-20.5c0-.63-3.98-7.05-4.96-8.04-9.29-9.38-37.22-9.2-43.54,4.55l-1.5-9.01h-18v31.5l1.5,1.5h17.5c.86-11.24,4.84-20.08,17.5-20.08s14.43,9.06,13.5,20.08h18ZM329,74c7.6-29.9-17.09-43.2-42.33-30.83l-6.66,6.83v-8.99h-19.01v30.5c0,.33,1.32,1.52,1,2.5h18c1.49-10.71,4.12-19.53,16.47-20.05,14.26-.61,15.55,7.86,14.53,20.05h18ZM361.5,74h62c3.75-6.53-.24-19.39-4.99-25.01-18.02-21.3-62.79-7.82-58.35,23.35l1.34,1.66ZM458.5,74h23.5c.63-2.36-.62-1.69-1.28-2.29-3.41-3.05-16.4-11.46-15.55-16.07,1.26-6.8,19.79-2.64,24.82-1.65-.57-6.43,2.42-12.89-5.6-13.87-9.1-1.11-21.67-2.08-30.07,1.7s-10.76,13.18-6.88,21.23c1.13,2.35,8.85,10.47,11.06,10.94ZM356,41h-19v33h18c-.32-.98,1-2.17,1-2.5v-30.5ZM138,79h-19c3.96,28.56,34.89,30.64,57.84,24.83l1.16-12.83c-14.31,2.88-37.51,8.4-40-12ZM205,79h-18v26h18c-.87-8.82,1.94-17.36,0-26ZM255,79h-18v26h18v-26ZM280,79h-19v26h19v-26ZM330,105v-24.5l-1.5-1.5h-17.5v26h19ZM356,79h-19v26h19v-26ZM379,79h-18c2.54,28.28,35.01,31.02,57.03,24.53l1.97-12.52c-15.34,2.84-36.52,8.51-41-12.01ZM487.5,79h-21.5c16.87,18.84-10.42,16.48-21.99,11,.14,12.41-.58,13.99,11.61,15.88s36.74.76,36.42-16.34c-.05-2.42-2.12-9.86-4.53-10.55ZM115,116.5v26.5c1.9.68,4-.64,4-2.5v-18.5l8.66,21.04,4.22-.17,6.13-18.87c1.06-.4,1.99,3.29,1.99,3.49v15.5c1.16.4,4-.44,4-1.5v-25c0-1.43-4.83-2.51-6.5-.5-2.78,3.34-5.08,16.57-8,21.01-1.24.02-6.27-18.94-8-21.01-1.48-1.77-5.94-1.35-6.5.5ZM224.99,118c6.94,1.06,8.07-3.82.48-3.06-6.74.68-2.24,6.7-7.51,8.58,3.89,5.79.84,12.87,3.04,19.48l3.04-.45,1.06-16.44,4.88-1.13c1.09-3.69-4.28-1.25-5-1.98v-5.01ZM400,115h-4v28h4v-28ZM276.93,118.05l-2.88-.02c.73,3.22-3.1,5.14-3.09,5.48.05,1.68,2.53,3.27,2.98,6.05.6,3.7-1.51,11.25,1.72,13.28,5.5,3.45,12.19-2.53,2.38-2.87l-.1-13.39c.2-1.13,5.92.16,5.06-3.55-3.71-.55-5.68-.84-6.06-4.96ZM166,142.5v-17c0-3.42-15.94-5.85-15.99.49.57.54,8.17-2.47,11.02-.51,6.1,4.18-10.74,5.86-12.52,9.51-3.6,7.38,5.7,10.74,11.5,7.99.81-3.91-4.75-.86-7.04-2.43-5.69-3.91,6.42-7.96,9.04-8.55.36,2.31-1.08,11.43,1.52,11.99l2.48-1.49ZM190,143v-17.5c0-1.46-4.83-3.44-6.51-3.56-5.38-.39-5.41,2.11-8.05,3.02-1.61.55-2.01-4.66-5.44-.46v16c0,.34.97,1.15.95,1.88l3.04.62c1.96-5.87-1.65-19.25,8.3-17.81,6.21.9,4.48,13.09,4.72,17.81h3ZM249,142.5v-17c0-4.02-13.1-4.07-15.99-2.47v2.97s11.01-.52,11.01-.52c5.61,3.85-7.89,5.94-9.94,7.1-9.84,5.53.98,14.26,8.92,10.41.76-3.65-5.02-1.17-7.42-2.89-4.47-3.18,6.56-8.36,9.41-8.1.35,2.31-1.08,11.43,1.52,11.99l2.48-1.49ZM269,123.01c-23.23-8.29-20.69,29.34-.02,18.49l-9.99-1.99c-3.41-5.23-3.79-13,3.57-14.45,2.37-.47,7.27,1.42,6.44-2.04ZM310,123v19.5c5.45,4.7,3.66-5.21,4.11-8.89,1.22-9.79,7.41-7.07,7.88-9.13.85-3.69-6.42-2.8-7.5.51l-1.13-2h-3.36ZM333,124.5v18.5h4c-.2-5.04-.74-16.67,5.75-17.84,9.84-1.78,4.75,12.05,7.27,17.84l2.92-.04c3.69-11.24-.4-28.32-14.5-18-1.14-.55-4.41-4.07-5.44-.46ZM378,123c-6.88-.27-15.84-2.57-19.39,5.11-4.5,9.75,3.77,19.51,13.71,13.92.92-.52.11-2.41,1.66-2.02,1.48,11.7-5.46,9.64-13.99,9v2.97c4.28,1.89,18.01,1.78,18.01-4.48v-24.5ZM425,143v-15.5c0-6.17-12.19-7.51-15.51-2.5l-1.13-2h-3.36v20.01h4c-.76-7.78-.21-22.59,10.99-16.24l1.02,16.25h4ZM444.99,124.99c3.1-2.67-10.82-6.21-14.87,1.63-5.09,9.87,4.98,22.23,14.86,14.86.42-2.26-.99-1.38-2.48-1.48-5.1-.34-9.24.55-9.58-6.52-.39-8.28,5.07-9.17,12.06-8.49ZM199,123h-4v15.5c0,5.51,12.11,6.95,15.52,2.49l1.12,2.01h3.36v-20h-4c.78,9.24.48,22.99-12,14.5v-14.5ZM290,123h-4v16.5c0,4.51,11.7,5.94,14.52,1.73l2.48,2.28,2-1.02v-19.5l-3.09.59c-3.42,4.64,4.1,22.29-11.91,14.91v-15.5ZM329,123h-4v21l4-1v-20Z"/>
  <path class="st1" d="M115,74h-40c.31-4.06,6.57-4.3,8-7.99l-9.99,1.5,22.99-27.5-26.51,22.99c-2.22.4-1.48-.88-1.38-2.38.18-2.9,1.69-5.71,1.89-8.61-1.75.17-6.07,10.15-7.99,7.99l-1.02-33.48-1.98-10.51-2.02,43.99c-1.61,1.99-5.23-7.09-6.98-6.99-.58.95,2.83,10.36-.5,8.99l-28.51-23.98c-1.16,1.17,20.24,22.34,21.97,24.52.75.94,3.73,4.62,3.02,5.47l-9.99-1.99,6.99,5.01-.57,2.03-32.44,3.45,31.34,1.67,1.67,2.81-6.99,5.01,9.99-1.98c.46,1.74-.73,2-1.49,3-5.51,7.27-12.54,13.6-18.48,20.52-.98,1.14-7.71,8.72-7.02,9.47l28.67-25.82,3.32-1.17-.98,8.99c3.11-1.5,2.79-7.11,6.98-6.99l2.02,33.99c1.49-.46,1.87-5.16,1.98-6.51.7-9.06-.33-18.41,1.02-27.48,2.32-.63,1.67.55,2.29,1.27,1.83,2.13,3.06,5.38,5.7,6.73.31-.79-4.13-11.52-.5-9.99l24.5,19.99c.44-1.88-1.04-2.38-1.99-3.5-5.85-6.96-12.67-13.46-18.99-20.01-1.4-3.39,9.05.35,9.99-.5l-8-6.99h38.5c.94.71,1.27,1.04,1.31,2.26.26,7.97-8.84,25.63-14.3,31.75-6.79,7.62-24.84,17.99-35.01,17.99H8V11.5c.88-1.43,1.99-1.38,3.45-1.55,14.75-1.73,57.52-.79,70.81,4.29,24.85,9.5,33.54,34.81,32.74,59.76Z"/>
  <path class="st1" d="M329,74h-18c1.01-12.19-.27-20.66-14.53-20.05-12.34.53-14.98,9.34-16.47,20.05h-18c.32-.98-1-2.17-1-2.5v-30.5h19v8.99s6.67-6.83,6.67-6.83c25.24-12.37,49.93.93,42.33,30.83Z"/>
  <path class="st1" d="M255,74h-18c.93-11.02-.39-20.09-13.5-20.08s-16.64,8.84-17.5,20.08h-17.5l-1.5-1.5v-31.5h18l1.5,9.01c6.32-13.75,34.24-13.93,43.54-4.55.98.99,4.96,7.41,4.96,8.04v20.5Z"/>
  <path class="st1" d="M361.5,74l-1.34-1.66c-4.44-31.17,40.32-44.66,58.35-23.35,4.75,5.61,8.74,18.48,4.99,25.01h-62ZM378,63h26.5c.15,0,2.44-1.03,2.58-1.64-4.12-15.68-25.85-13.26-29.08,1.64Z"/>
  <path class="st1" d="M183,74h-64c-4.93-46.25,70.85-47.95,64,0ZM165,63c.04-17.43-25.35-15.7-28,0h28Z"/>
  <path class="st1" d="M458.5,74c-2.2-.48-9.92-8.59-11.06-10.94-3.88-8.05-1.5-17.45,6.88-21.23s20.97-2.82,30.07-1.7c8.02.98,5.02,7.45,5.6,13.87-5.04-.99-23.57-5.15-24.82,1.65-.85,4.61,12.13,13.02,15.55,16.07.67.59,1.91-.08,1.28,2.29h-23.5Z"/>
  <path class="st1" d="M138,79c2.49,20.39,25.69,14.88,40,12l-1.16,12.83c-22.95,5.82-53.88,3.73-57.84-24.83h19Z"/>
  <path class="st1" d="M379,79c4.47,20.52,25.66,14.84,41,12.01l-1.97,12.52c-22.02,6.49-54.49,3.75-57.03-24.53h18Z"/>
  <path class="st1" d="M487.5,79c2.41.69,4.49,8.13,4.53,10.55.33,17.09-24.41,18.2-36.42,16.34s-11.47-3.47-11.61-15.88c11.57,5.47,38.87,7.84,21.99-11h21.5Z"/>
  <path class="st1" d="M356,41v30.5c0,.33-1.32,1.52-1,2.5h-18v-33h19Z"/>
  <rect class="st1" x="261" y="79" width="19" height="26"/>
  <rect class="st1" x="337" y="79" width="19" height="26"/>
  <polygon class="st1" points="330 105 311 105 311 79 328.5 79 330 80.5 330 105"/>
  <path class="st1" d="M205,79c1.94,8.64-.87,17.18,0,26h-18v-26h18Z"/>
  <rect class="st1" x="237" y="79" width="18" height="26"/>
  <path class="st1" d="M115,116.5c.57-1.85,5.03-2.27,6.5-.5,1.73,2.07,6.75,21.03,8,21.01,2.91-4.44,5.21-17.67,8-21.01,1.67-2.01,6.5-.93,6.5.5v25c0,1.06-2.84,1.9-4,1.5v-15.5c0-.2-.93-3.9-1.99-3.49l-6.13,18.87-4.22.17-8.66-21.04v18.5c0,1.86-2.1,3.18-4,2.5v-26.5Z"/>
  <rect class="st1" x="337" y="16" width="19" height="19"/>
  <path class="st1" d="M378,123v24.5c0,6.26-13.72,6.37-18,4.48v-2.97c8.53.64,15.46,2.7,13.99-9-1.55-.39-.74,1.5-1.66,2.02-9.95,5.59-18.21-4.17-13.71-13.92,3.54-7.67,12.51-5.38,19.39-5.11ZM368.75,125.21c-12.43,1.91-6.66,21.49,2.78,13.81,2.65-2.15,3.61-10.81,2.03-13.08-1.02-1.47-3.29-.97-4.81-.73Z"/>
  <path class="st1" d="M452,19l-11.49,22.01c-2.53,1.69-9.28,2.06-9.55-1.52-.3-3.89,5.09-16.32,6.54-20.5h14.5Z"/>
  <path class="st1" d="M333,124.5c1.03-3.61,4.3-.09,5.44.46,14.1-10.31,18.19,6.76,14.5,18l-2.92.04c-2.53-5.79,2.57-19.62-7.27-17.84-6.49,1.17-5.94,12.8-5.75,17.85h-4v-18.5Z"/>
  <path class="st1" d="M249,142.5l-2.48,1.49c-2.61-.56-1.17-9.68-1.52-11.99-2.85-.26-13.88,4.92-9.41,8.1,2.41,1.71,8.18-.77,7.42,2.89-7.94,3.85-18.76-4.88-8.92-10.41,2.05-1.16,15.56-3.24,9.94-7.1l-11.01.52v-2.97c2.9-1.6,15.99-1.55,15.99,2.47v17Z"/>
  <path class="st1" d="M425,143h-4s-1.02-16.24-1.02-16.24c-11.2-6.35-11.75,8.46-10.99,16.25h-4v-20h3.36s1.13,2,1.13,2c3.31-5.01,15.51-3.67,15.51,2.5v15.5Z"/>
  <path class="st1" d="M166,142.5l-2.48,1.49c-2.61-.56-1.17-9.68-1.52-11.99-2.62.59-14.73,4.64-9.04,8.55,2.29,1.57,7.85-1.47,7.04,2.43-5.8,2.75-15.1-.62-11.5-7.99,1.78-3.65,18.62-5.33,12.52-9.51-2.85-1.95-10.44,1.06-11.02.51.05-6.34,15.99-3.92,15.99-.49v17Z"/>
  <path class="st1" d="M199,123v14.5c12.48,8.49,12.78-5.26,12-14.5h4v20h-3.36s-1.12-2.01-1.12-2.01c-3.41,4.46-15.52,3.02-15.52-2.49v-15.5h4Z"/>
  <path class="st1" d="M190,143h-3c-.24-4.72,1.49-16.91-4.72-17.81-9.95-1.44-6.34,11.94-8.3,17.81l-3.04-.62c.02-.72-.95-1.54-.95-1.88v-16c3.43-4.2,3.83,1.01,5.44.46,2.64-.9,2.66-3.41,8.05-3.02,1.69.12,6.51,2.1,6.51,3.56v17.5Z"/>
  <path class="st1" d="M290,123v15.5c16.01,7.38,8.49-10.28,11.91-14.91l3.09-.59v19.5l-2,1.02-2.48-2.28c-2.82,4.21-14.52,2.78-14.52-1.73v-16.5h4Z"/>
  <path class="st1" d="M224.99,118v5.01c.72.73,6.09-1.71,5,1.98l-4.88,1.13-1.06,16.44-3.04.45c-2.21-6.61.84-13.69-3.04-19.48,5.27-1.88.77-7.91,7.51-8.58,7.59-.76,6.46,4.13-.48,3.06Z"/>
  <path class="st1" d="M276.93,118.05c.38,4.12,2.35,4.41,6.06,4.96.86,3.72-4.85,2.42-5.06,3.55l.1,13.39c9.82.34,3.12,6.33-2.38,2.87-3.23-2.03-1.12-9.58-1.72-13.28-.45-2.78-2.93-4.37-2.98-6.05,0-.34,3.82-2.26,3.09-5.48l2.88.02Z"/>
  <path class="st1" d="M269,123.01c.83,3.47-4.07,1.57-6.44,2.04-7.36,1.45-6.98,9.22-3.57,14.45l9.99,1.99c-20.67,10.85-23.22-26.77.02-18.49Z"/>
  <path class="st1" d="M444.99,124.99c-6.98-.68-12.45.21-12.06,8.49.33,7.06,4.48,6.17,9.58,6.52,1.49.1,2.9-.78,2.48,1.48-9.88,7.38-19.96-4.99-14.86-14.86,4.05-7.84,17.96-4.3,14.87-1.63Z"/>
  <path class="st1" d="M310,123h3.36s1.13,2,1.13,2c1.08-3.31,8.35-4.2,7.5-.51-.47,2.05-6.67-.66-7.88,9.13-.46,3.68,1.34,13.59-4.11,8.89v-19.5Z"/>
  <rect class="st1" x="396" y="115" width="4" height="28"/>
  <polygon class="st1" points="329 123 329 143 325 144 325 123 329 123"/>
  <path class="st0" d="M378,63c3.23-14.9,24.96-17.32,29.08-1.64-.14.61-2.42,1.64-2.58,1.64h-26.5Z"/>
  <path class="st0" d="M165,63h-28c2.65-15.7,28.04-17.43,28,0Z"/>
  <path class="st0" d="M368.75,125.21c1.53-.23,3.8-.73,4.81.73,1.58,2.27.62,10.93-2.03,13.08-9.45,7.68-15.21-11.91-2.78-13.81Z"/>
</svg>