<?xml version="1.0" encoding="UTF-8"?>
<svg id="Layer_1" xmlns="http://www.w3.org/2000/svg" version="1.1" viewBox="0 0 5034.86 709.9">
  <!-- Generator: Adobe Illustrator 29.1.0, SVG Export Plug-In . SVG Version: 2.1.0 Build 142)  -->
  <defs>
    <style>
      .st0 {
        fill: #fff;
      }
    </style>
  </defs>
  <g>
    <path class="st0" d="M26.3,692.8c116.1,11,242.1,17.1,373.7,17.1s257.6-6,373.7-17.1l-373.7-215.7L26.3,692.8Z"/>
    <path class="st0" d="M0,647.2c48.5-106.1,106.3-218.2,172.1-332.1C237.9,201.1,306.1,95.1,373.7,0v431.5L0,647.2Z"/>
    <path class="st0" d="M800,647.2c-48.5-106.1-106.3-218.2-172.1-332.1C562.1,201.1,493.9,95.1,426.3,0v431.5l373.7,215.7Z"/>
  </g>
  <g>
    <path class="st0" d="M986.26,54.3c52.4-8.7,119.3-13.6,190.1-13.6,122.2,0,206.6,25.2,266.7,75.6,63,51.4,101.8,129,101.8,240.5s-39.8,203.6-101.8,259.9c-65,59.2-168.7,89.2-295.8,89.2-69.8,0-122.2-3.9-161-8.7V54.3ZM1105.56,608c16.5,2.9,41.7,2.9,65.9,2.9,155.2,1,247.3-84.4,247.3-250.2,1-144.5-82.4-226.9-231.8-226.9-37.8,0-65,2.9-81.5,6.8v467.4h.1Z"/>
    <path class="st0" d="M2014.16,409.2h-246.3v192h275.4v98h-394.7V45.6h380.1v98h-260.9v168.7h246.3v96.9h.1Z"/>
    <path class="st0" d="M2261.46,699.2l-160-653.6h127l62.1,296.8c16.5,79.5,32,162.9,42.7,227.9h1.9c10.7-68.9,29.1-146.4,47.5-228.9l70.8-295.8h125.1l65,300.6c16.5,77.6,30,150.3,39.8,221.1h1.9c11.6-71.8,27.2-146.4,44.6-226l67.9-295.8h121.2l-175.5,653.6h-128l-67.9-307.4c-16.5-74.7-28.1-136.7-35.9-207.5h-1.9c-11.6,69.8-24.2,132.9-43.6,207.5l-75.6,307.4h-129.1v.1Z"/>
    <path class="st0" d="M3364.06,409.2h-246.3v192h275.4v98h-394.7V45.6h380.1v98h-260.9v168.7h246.3v96.9h.1,0Z"/>
    <path class="st0" d="M3491.06,596.4c37.8,23.3,93.1,42.7,151.3,42.7,86.3,0,136.7-45.6,136.7-111.5,0-61.1-34.9-96-123.2-130-106.6-37.8-172.6-93.1-172.6-185.2,0-101.8,84.4-177.5,211.4-177.5,66.9,0,115.4,15.5,144.5,32l-23.3,68.9c-21.3-11.6-65-31-124.1-31-89.2,0-123.2,53.3-123.2,98,0,61.1,39.8,91.1,130,126.1,110.6,42.7,166.8,96,166.8,192,0,100.8-74.7,188.1-228.9,188.1-63,0-131.9-18.4-166.8-41.7l21.4-70.9h0Z"/>
    <path class="st0" d="M4408.47,460.6c0,173.6-120.3,249.2-233.7,249.2-127,0-225-93.1-225-241.5,0-157.1,102.8-249.2,232.8-249.2,134.7.1,225.9,98,225.9,241.5h0ZM4036.06,465.5c0,102.8,59.2,180.4,142.6,180.4s142.6-76.6,142.6-182.3c0-79.5-39.8-180.4-140.6-180.4s-144.6,93.1-144.6,182.3h0Z"/>
    <path class="st0" d="M4524.76,699.2v-404.4h-66v-65h66v-22.3c0-65.9,14.6-126.1,54.3-163.9,32-31,74.7-43.6,114.4-43.6,30.1,0,56.2,6.8,72.7,13.6l-11.6,65.9c-12.6-5.8-30.1-10.7-54.3-10.7-72.7,0-91.1,64-91.1,135.8v25.2h113.4v65h-113.4v404.4h-84.4Z"/>
    <path class="st0" d="M4912.66,95v134.8h122.2v65h-122.2v253.1c0,58.2,16.5,91.2,64,91.2,22.3,0,38.8-2.9,49.5-5.8l3.9,64c-16.5,6.8-42.7,11.6-75.6,11.6-39.8,0-71.8-12.6-92.1-35.9-24.3-25.2-33-66.9-33-122.2v-256h-72.7v-65h72.7v-112.5l83.3-22.3h0Z"/>
  </g>
</svg>