<?xml version="1.0" encoding="UTF-8"?>
<svg id="Layer_0_xA0_Image" xmlns="http://www.w3.org/2000/svg" version="1.1" viewBox="0 0 246.01 53.3">
  <!-- Generator: Adobe Illustrator 29.1.0, SVG Export Plug-In . SVG Version: 2.1.0 Build 142)  -->
  <defs>
    <style>
      .st0 {
        fill: none;
      }

      .st1 {
        fill: #fff;
      }
    </style>
  </defs>
  <polygon class="st1" points="98.43 11.24 106.94 30.84 115.21 11.24 133.07 11.24 133.07 41.6 123.24 41.6 123.24 17.69 112.34 41.62 100.98 41.57 90.87 18.89 90.87 41.6 81.04 41.6 81.04 11.24 98.43 11.24"/>
  <path class="st1" d="M147.46,19.37l-11.99,4.3,9.21-9.55-2.73-11.96,9.47,6.15L160.17.01l-4.55,11.36c-.06.49.02.3.35.35,1.38.19,2.83.16,4.2.48l-2.86,3.46c.37.18,1.23,2.03,1.67,1.41l3.03-5.84,15.43.13,12.26,23.27h.65c1.77-2.96-.15-6.39-1.16-9.28.5-.11.55.26.77.54,1.73,2.17,5.81,9.14,5.72,11.77-.19,5.87-10.14,1.39-12.89.16-11.68-5.22-21.9-14.09-30.77-23.11-.46-.47-.99-1.73-1.74-1.53-.28.07-2.63,2.47-2.57,2.72,5.34,5.09,10.78,10.05,16.85,14.29,5.39,3.77,11.77,7.49,17.92,9.87,3.41,1.32,7.35,2.78,11.03,2.04-2.04,1.65-5.4.81-7.77.22-7.78-1.94-15.21-6.76-22.06-10.74l-5.53,10.04h-11.87l8.33-16.38-3.89-3.23-2.88,3.12c-.06-.26-.36-.96-.36-1.07v-4.66l-.02-.03ZM170,20.08c-.57-.13-.39.1-.53.31-.39.56-2.21,3.88-2.08,4.31l7.41,5.18s-4.8-9.8-4.8-9.8Z"/>
  <path class="st1" d="M0,41.84V11.48h28.89c2.86,0,6.82,1.87,8.99,3.7,10.25,8.64,5.2,23.9-7.34,26.4-10.15.57-20.37.12-30.55.26h.01ZM9.83,33.23h20.98c3.5-3.68,3.62-9.51,0-13.15H9.83v13.15Z"/>
  <path class="st1" d="M239.17,11.24c6.04.85,6.95,9.37,6.01,14.12-.45,2.24-1.19,3.4-3.01,4.76,4.19,2.19,3.58,7.42,3.84,11.48h-10.31v-7.17h-19.18v7.17h-10.07V11.6l.36-.36h32.37,0ZM235.7,19.84h-19.18v6.22h19.18v-6.22h0Z"/>
  <rect class="st1" x="55.63" y="11.24" width="10.07" height="30.36"/>
  <path class="st1" d="M.24,46.86c2.31-.57,2.3,2.72,2.88,4.3.54.1.38-.03.53-.31.35-.64,1.1-3.76,1.42-3.96h1.24l.4.32v5.86h-1.44v-3.59l-1.22,3.2c-.32.55-1.13.58-1.37-.02l-1.24-3.42v3.83H.24v-6.22H.24Z"/>
  <path class="st1" d="M125.88,49.97c-.04,3.3-4.51,4.62-6.2,1.76-2.15-3.64,3.25-6.93,5.72-3.31.1.5-.25.38-.61.37-1.32-.06-1.69-1.31-3.32-.46-2.79,1.45.78,5.71,2.73,2.84h-2.4v-1.2s4.08,0,4.08,0Z"/>
  <path class="st1" d="M108.62,47.22c.13-.43,1.07-.48,1.44-.24l2.39,3.95v-3.71l1.2-.36v6.22l-1.4-.04-2.2-3.79v3.83h-1.44v-5.86h.01Z"/>
  <path class="st1" d="M23.26,46.86l1.32.24,2.28,3.82v-3.71c0-.47,1.44-.47,1.44,0v5.86c-2.4.52-2.38-2.65-3.84-3.83v3.83h-1.2v-6.22h0Z"/>
  <path class="st1" d="M242.17,50.92v-4.06l1.2.36v5.86l-1.56-.24-2.27-3.83v4.06h-1.2v-6.22c2.25-.33,2.3,2.99,3.84,4.06h0Z"/>
  <path class="st1" d="M185.26,52.27c-2.51,2.75-7.29-.54-5.06-3.97,2.55-3.91,8.16.57,5.06,3.97ZM182.16,48.1c-2.08.61-1.49,4.51,1.09,3.97s1.96-4.87-1.09-3.97Z"/>
  <path class="st1" d="M228.68,46.91c4.6-.93,5.59,5.77,1.32,6.35-3.98.54-5.08-5.59-1.32-6.35ZM228.91,48.11c-2.41.55-1.37,4.48,1.09,3.97s1.86-4.65-1.09-3.97Z"/>
  <path class="st1" d="M151.47,46.91c4.6-.93,5.59,5.77,1.32,6.35-3.98.54-5.08-5.59-1.32-6.35ZM151.71,48.11c-2.41.55-1.37,4.48,1.09,3.97s1.89-4.65-1.09-3.97Z"/>
  <path class="st1" d="M92.07,47.22c2.67-1.53,6.32,1.51,2.91,3.5l-.04.32,1.45,2.04c-2.13.53-1.83-1.08-3.11-2.15v2.15h-1.2v-5.86h-.01ZM94.92,48.32l-1.65-.27v1.68l1.45-.11.19-1.3h.01Z"/>
  <path class="st1" d="M191.58,47.22l.4-.32c2.87-.77,5.5,2.03,2.51,3.82l-.04.32,1.45,2.04c-1.94.48-2-.91-3-2.15l-.12,2.16h-1.2v-5.86h0ZM192.78,49.73l1.58-.22c.43-1.19-.55-1.61-1.58-1.45v1.68h0Z"/>
  <path class="st1" d="M161.13,46.86c1.57-.15,4.09,0,4.1,2.03,0,1.81-1.46,1.79-1.47,1.92l1.44,2.27c-1.77.43-1.79-1.04-2.87-1.91v1.91h-1.2v-6.22h0ZM162.33,49.73c1.04.09,2.06.08,1.57-1.2l-1.56-.47v1.68h-.01Z"/>
  <path class="st1" d="M57.55,53.07l-1.4-.04-.56-1.35h-2.33c-.12,1.14-.5,1.58-1.7,1.39l2.43-6.18c.16-.1.59-.08.78,0,.47.18,2.22,5.36,2.79,6.19h0Z"/>
  <path class="st1" d="M15.32,46.89l2.43,6.18c-1.31.2-1.44-.28-1.71-1.4h-2.34c-.26,1.32-.55,1.58-1.95,1.4.64-.83,2.26-5.99,2.79-6.19.19-.07.62-.09.78,0h0Z"/>
  <path class="st1" d="M206.68,53.07l-1.41-.03-.5-1.29h-2.17l-.5,1.29-1.41.03c.41-.88,2.23-6.03,2.78-6.2s.65.19.87.53c.96,1.46,1.5,4.05,2.34,5.67h0Z"/>
  <path class="st1" d="M85.12,46.86h1.2v4.9c0,.2-.72,1.02-.98,1.18-1.6.97-3.34-.47-3.34-2.13v-3.59c0-.47,1.44-.47,1.44,0v4.3c0,.69,1.68.69,1.68,0v-4.66Z"/>
  <path class="st1" d="M68.58,48.77c-1.26.35-1.85-.78-2.99-.73-2.73.11-2.26,4.35.21,4.08.78-.09,1.61-1.17,2.78-.72-1.18,2.47-4.7,2.54-5.85-.03-1.72-3.85,4.08-6.56,5.85-2.61h0Z"/>
  <path class="st1" d="M144.1,48.77c-1.36.32-1.91-.86-3.24-.74-1.91.18-2.22,3.17-.53,3.9,1.51.65,2.02-.89,3.53-.54-1.45,3.5-6.57,1.63-5.89-1.92.58-3.07,4.91-3.62,6.13-.71h0Z"/>
  <path class="st1" d="M38.12,46.86v5.14c0,.33-1.44,1.33-2.01,1.3-.66-.02-2.06-.93-2.06-1.54v-4.9l1.2.36v4.3c0,.69,1.68.69,1.68,0v-4.3l1.2-.36h-.01Z"/>
  <path class="st1" d="M170.72,46.86c4.07-.88,5.8,3.7,1.21,4.07v2.14h-1.21v-6.22h0ZM171.92,49.73c1.93,0,1.89-1.78,0-1.67v1.67Z"/>
  <path class="st1" d="M44.12,46.86l2.89.11.23,1.09h-1.92v1.44c.24.24,3.09-.68,1.53,1.16l-1.53.03v2.39h-1.2s0-6.22,0-6.22Z"/>
  <polygon class="st1" points="211.96 48.05 210.76 48.05 210.87 47.08 214.36 46.86 214.36 48.06 213.16 48.05 213.16 53.08 211.96 53.08 211.96 48.05"/>
  <path class="st1" d="M74.57,48.05h-1.2l.11-.97c.24-.36,4.27-.75,3.49.97h-1.2v5.02h-1.2s0-5.02,0-5.02Z"/>
  <rect class="st1" x="101.66" y="46.86" width="1.2" height="6.22"/>
  <polygon class="st1" points="220.83 53.08 219.63 53.08 219.63 46.86 220.44 46.89 220.83 47.22 220.83 53.08"/>
  <path class="st0" d="M170,20.08l4.8,9.8-7.41-5.18c-.13-.44,1.7-3.76,2.08-4.31.14-.21-.04-.44.53-.31Z"/>
  <path class="st0" d="M9.83,33.23v-13.15h20.98c3.62,3.64,3.5,9.47,0,13.15H9.83Z"/>
  <rect class="st0" x="216.51" y="19.84" width="19.18" height="6.22"/>
  <path class="st0" d="M182.16,48.1c3.05-.9,3.63,3.45,1.09,3.97s-3.17-3.36-1.09-3.97Z"/>
  <path class="st0" d="M228.91,48.11c2.95-.67,3.51,3.47,1.09,3.97s-3.5-3.42-1.09-3.97Z"/>
  <path class="st0" d="M151.71,48.11c2.98-.68,3.54,3.47,1.09,3.97s-3.5-3.42-1.09-3.97Z"/>
  <polygon class="st0" points="94.92 48.32 94.73 49.62 93.27 49.73 93.27 48.05 94.92 48.32"/>
  <path class="st0" d="M192.78,49.73v-1.68c1.03-.16,2,.26,1.58,1.45l-1.58.22h0Z"/>
  <path class="st0" d="M162.33,49.73v-1.68l1.57.47c.5,1.29-.53,1.29-1.57,1.2h0Z"/>
  <path class="st0" d="M171.92,49.73v-1.67c1.89-.11,1.93,1.67,0,1.67Z"/>
</svg>