<?xml version="1.0" encoding="UTF-8"?>
<svg id="Layer_1" xmlns="http://www.w3.org/2000/svg" version="1.1" viewBox="0 0 2728.51 520.91">
  <!-- Generator: Adobe Illustrator 29.1.0, SVG Export Plug-In . SVG Version: 2.1.0 Build 142)  -->
  <defs>
    <style>
      .st0 {
        fill: #fff;
      }
    </style>
  </defs>
  <path class="st0" d="M129.13,130.83c1.49-1.95,2.79-4.09,4.51-5.81,33.29-33.37,66.63-66.69,99.95-100.01,7.53-7.53,15.13-14.99,22.57-22.62,3.13-3.21,5.71-3.17,8.86,0,15.69,15.82,31.45,31.57,47.25,47.29,16.38,16.3,32.92,32.44,49.24,48.79,33.18,33.23,66.24,66.58,99.38,99.84,18.78,18.86,37.64,37.64,56.45,56.47,5.16,5.17,5.18,6.81.07,11.92-81.19,81.2-162.39,162.4-243.59,243.59-2.35,2.35-4.72,4.67-7.04,7.05-4.6,4.69-6.6,4.76-11.21.18-9.54-9.49-18.97-19.09-28.57-28.52-10.89-10.71-22.05-21.15-32.84-31.96-12.79-12.81-25.26-25.94-37.96-38.84-10.11-10.27-20.37-20.4-30.56-30.59-14.54-14.54-29.08-29.08-43.62-43.63l-30.54-30.54c-16.07-16.07-32.14-32.13-48.2-48.21-4.35-4.36-4.37-5.54-.06-9.85,40.53-40.55,81.06-81.1,121.63-121.6,1.26-1.25,2.93-2.09,4.41-3.11-5.9,6.09-11.73,12.26-17.71,18.26-36,36.1-72,72.2-108.11,108.18-2.78,2.77-2.35,4.34.16,6.84,16.52,16.44,32.88,33.05,49.36,49.54,31.19,31.19,62.42,62.34,93.64,93.5,36.64,36.58,73.34,73.12,109.86,109.82,3.3,3.32,5.07,3.19,8.3-.04,41.53-41.65,83.24-83.12,124.83-124.71s85.2-85.4,127.9-128c2.96-2.96,3.04-4.75-.02-7.59-5.61-5.2-10.85-10.8-16.26-16.21-38.75-38.76-77.49-77.52-116.25-116.28-26.38-26.38-52.76-52.74-79.15-79.11-13.9-13.89-27.88-27.72-41.68-41.71-2.66-2.7-4.36-2.61-6.84.14-3.12,3.45-6.77,6.41-10.07,9.7-33.46,33.45-66.89,66.93-100.34,100.38-5.86,5.86-11.83,11.63-17.75,17.45Z"/>
  <path class="st0" d="M1985.95,72.78c1.04-6.66,1.68-13.42,3.2-19.97,2.17-9.36,4.39-18.78,7.66-27.78,5-13.77,20.48-25.76,36.49-24.43,8.48.71,17.37-.48,24.33,5.32,5.96,4.96,11.89,10.42,16.24,16.76,12.03,17.52,23.6,35.4,34.55,53.62,3.35,5.57,6.43,11.31,9.91,16.87,10.35,16.53,17.02,34.5,18.76,54.12.22,2.43.6,5.17,1.87,7.14,4.4,6.8,4.7,14.44,5.03,22.04.52,11.96,1.08,23.94.94,35.9-.11,9.61-1.22,19.2-1.95,28.79-.09,1.14-.3,2.39-.85,3.36-8.12,14.31-11.05,31.2-23.48,43.5-11.7,11.58-22.47,24.06-36.43,33.13-10.45,6.79-20.53,14.22-31.34,20.38-8.78,4.99-18.16,5.04-27.53-.09-6.61-3.62-13.83-6.12-21.4-9.39-.44,2.39-.83,3.62-.86,4.86-.38,18.47-1.04,36.93-.92,55.4.09,13.1,1.22,26.2,1.99,39.3.09,1.62.4,3.53,1.33,4.74,7.24,9.35,6.91,20.92,9.63,31.6,1.5,5.9,3.31,11.79,5.65,17.41,2.63,6.34.98,12.18-1.25,17.89-1.74,4.46-4.3,8.64-6.81,12.75-2.23,3.64-7.35,3.89-10.86.76-3.73-3.31-7.21-6.92-11.15-9.94-3.5-2.67-7.69-4.45-11.23-7.08-5.81-4.31-10.21-9.72-12.89-16.68-1.04-2.69-3.92-4.75-6.2-6.86-9.13-8.43-18.94-16.23-27.33-25.33-6.24-6.76-5.9-11.99-.08-19.27,6.07-7.6,8.59-16.25,10.73-25.41,2.11-9.01,5.36-17.74,7.67-26.71,1.11-4.3,1.5-8.84,1.67-13.3.51-13.46,1.62-26.98.85-40.38-.76-13.03.11-9.9-10.48-15.16-13.84-6.87-28.5-7.09-43.2-7.81-4.93-.24-10.06.09-14.85,1.23-3.72.89-7.37,3-10.44,5.36-3.67,2.82-6.6,6.58-10.03,9.74-3.69,3.41-8.44,5.02-12.91,2.93-4.38-2.05-6.73-5.86-7.06-11.56-.65-11.13,5.68-18.48,12.14-25.83,5.16-5.87,10.82-11.35,16.64-16.57,2-1.79,5.16-3.15,7.81-3.19,17.49-.28,35-.14,52.49-.15,1.12,0,2.24-.11,4.3-.21-7.54-3.91-14.31-7.28-20.96-10.88-21.94-11.86-42.29-25.94-59.03-44.61-13.19-14.7-21.45-31.91-24.18-51.63-.89-6.41-1.65-12.86-3.07-19.15-.85-3.77-3.05-7.2-4.27-10.91-1.13-3.43-2.44-7.01-2.48-10.54-.1-8.46.12-16.97.97-25.38.39-3.92,2.49-7.68,3.89-11.48.79-2.16,1.72-4.27,2.63-6.39,2.07-4.8,3.36-10.18,6.39-14.27,9-12.16,18.33-24.59,32.78-30.51,8.28-3.39,17.62-5.26,26.58-5.69,15.55-.74,31.28-1.75,46.63,2.67,14.67,4.22,26.92,11.65,33.66,25.93,2.39,5.06,3.48,10.73,5.4,16.03.7,1.92,2.1,3.58,3.19,5.36.48-.11,1-.23,1.52-.35ZM1999.48,332.39c.64-.45,1.29-.89,1.93-1.34,7.79,3.37,15.85,6.23,23.29,10.25,8.23,4.45,16.53,4.43,24.13.41,9.99-5.3,19.07-12.27,28.73-18.2,14.88-9.13,26.54-21.85,38.91-33.84,12.9-12.51,16.77-29.83,24.93-44.86.54-.99.89-2.17,1-3.29.74-7.72,1.93-15.44,1.96-23.17.05-15.11-.46-30.23-.97-45.33-.12-3.57-.87-7.2-1.91-10.63-1.36-4.5-4.47-8.75-4.78-13.25-1.14-16.25-6.79-30.99-13.14-45.69-4.17-9.66-11.06-17.55-16.03-26.76-10.04-18.6-22.22-36.11-34.26-53.55-4.43-6.42-10.6-11.82-16.64-16.89-7.45-6.25-16.84-4.83-25.75-4.87-14.5-.06-24.52,7.69-31.09,19.5-9.66,17.35-11.17,36.9-13.92,56.49-3.34-6.57-5.92-13.53-9.13-20.19-2.66-5.54-5.25-11.46-9.28-15.94-11.42-12.66-26.99-16.77-43.22-17.66-11.89-.65-23.92-.04-35.81.96-11.77.99-23.03,4.08-31.6,13.25-4.16,4.45-8.74,8.51-12.86,12.99-6.47,7.03-12.61,14.19-14.25,24.27-.62,3.81-4.4,7.15-4.82,10.92-1.23,10.82-1.61,21.74-2.01,32.63-.09,2.34.48,5.25,1.86,7.02,6.04,7.69,5.07,17.08,7.08,25.77,2.47,10.67,4.58,21.61,8.67,31.68,8.49,20.88,24.49,35.98,42.29,48.9,19.24,13.96,38.87,27.55,62.07,33.41-21.44,0-43.38-.08-65.31.12-2.33.02-5.16,1.18-6.89,2.77-6.13,5.63-12.27,11.34-17.69,17.64-5.97,6.93-11.94,13.86-11.5,24.33.25,5.79,2.97,9.39,7.12,11.44,4.02,1.99,8.46.02,11.81-3.1,3.41-3.18,6.35-6.92,10.01-9.76,3.04-2.36,6.65-4.53,10.33-5.41,4.76-1.14,9.86-1.37,14.79-1.17,15.27.6,30.5.9,44.85,7.92,8.63,4.22,10.27,4.53,10.25,14.15-.03,14.28-.32,28.57-1.06,42.83-.33,6.34-1.69,12.68-3.19,18.88-1.5,6.18-4.08,12.1-5.6,18.28-2.35,9.58-4.2,19.06-10.86,27.15-6.6,8.02-6.15,14.06,1.3,21.39,8.36,8.21,17.64,15.47,26.38,23.3,2.27,2.04,4.85,4.33,5.88,7.04,3.9,10.18,11.92,16.24,20.49,21.87,2.69,1.77,5.68,3.13,8.21,5.1,2.48,1.93,4.44,4.51,6.81,6.58,3.05,2.66,7.29,2.01,9.33-1.47,2.33-3.97,4.8-7.94,6.49-12.2,2.17-5.47,4.01-11.05,1.46-17.21-2.36-5.7-4.13-11.67-5.76-17.63-2.88-10.49-2.11-22.07-9.62-31.19-.96-1.16-1.24-3.08-1.37-4.68-.76-10.05-1.84-20.11-1.97-30.17-.27-23.26-.07-46.53-.07-69.79Z"/>
  <path class="st0" d="M761.45,339.02c3.05,4.35,5.46,9.41,9.28,12.92,9.6,8.81,9.66,15.15,5.78,26.42-1.84,5.33-4.08,10.58-6.71,15.57-7.37,13.93-12.2,28.29-9.81,44.39.7,4.73.36,10.04-4.96,11.89-5.3,1.85-10.53.38-14.64-3.88-3.59-3.72-7.43-7.2-10.78-11.12-7.37-8.61-7.38-19.08-6.1-29.39,2.53-20.4,5.9-40.71,8.38-61.11.6-4.96-.29-10.32-1.53-15.24-2.24-8.85-10.02-11.5-17.64-13.57-7.52-2.04-15.23-3.36-22.85-5.08-2.92-.66-6.08-1-8.61-2.42-5.32-3-8.84-.06-12.44,2.98-3.3,2.79-6.61,5.59-9.65,8.64-4.73,4.75-10.64,5.76-16.62,4.5-6.77-1.42-10.15-8-6.15-16.42,3.88-8.17,9.06-15.96,14.87-22.92,8.16-9.77,16.83-19.3,26.41-27.64,7.09-6.17,16.09-5.59,24.14-.35,8.35,5.43,17.8,6.81,28.31,8.5v-9.75c0-7.83-.2-15.67.08-23.49.15-4.28-1.13-5.92-5.63-5.8-10.32.28-20.66.21-30.99.03-4.47-.08-8.93-.73-13.38-1.23-1.13-.13-2.41-.42-3.3-1.08-9.94-7.27-22.4-10.36-31.21-19.61-8.62-9.06-17.37-17.89-23.11-29.2-1.27-2.51-2.62-5.19-4.61-7.09-6.31-6.04-6.56-13.84-6.81-21.63-.46-14.63-.98-29.26-.95-43.9.03-12.3.37-24.76,6.91-35.79,8.73-14.74,19.99-27.37,33.57-37.8,2.39-1.84,5.82-2.28,8.64-3.63,6.26-3.01,12.6-5.9,18.6-9.37,14.21-8.23,29.49-13.1,45.75-14.43,11.58-.95,23.29-1.51,34.88-.95,20.36.98,40.05,5.68,59.2,12.75,21.43,7.9,40.99,19.01,58.64,33.44,7.84,6.41,15.32,13.26,23.11,19.72,2.53,2.1,5.85,3.3,8.26,5.51,2.55,2.34,4.48,5.36,6.62,8.13,1.44,1.86,2.85,3.76,4.14,5.73,1.58,2.42,3.22,4.83,4.47,7.43,1.34,2.81,1.56,6.43,3.48,8.65,10.98,12.7,14.81,28.34,17.18,44.07,2.82,18.66,4.75,37.59,5.09,56.44.3,16.31-.51,32.9-9.01,47.95-2.35,4.16-1.88,9.84-3.86,14.31-3.26,7.35-6.55,15-11.45,21.26-13.11,16.77-29.62,29.38-49.5,37.56-4.57,1.88-8.21,5.93-12.49,8.65-3.04,1.94-6.25,4.17-9.67,4.83-20.19,3.92-40.58,4.28-61.05,2.49-9.57-.84-19.15-1.5-28.73-2.24-.53.45-1.04.91-1.55,1.37ZM761.4,336.56c12.26,1.26,23.54,3.3,34.84,3.37,16.88.11,33.8-.85,50.65-2,5.77-.4,11.78-1.81,15.99-6.78,1.23-1.46,2.62-2.96,4.26-3.86,4.31-2.37,8.77-4.48,13.22-6.58,17.5-8.27,32.22-20.13,44.02-35.34,4.46-5.76,8.95-12.37,10.53-19.25,1.94-8.44,4.19-16.48,8.05-24.19,1.3-2.6,2.03-5.59,2.47-8.49,2.23-14.86,4.13-29.71,2.13-44.84-2.01-15.17-2.7-30.55-5.29-45.61-2.45-14.23-6.11-28.29-16.15-39.73-2.1-2.4-2.29-6.39-3.72-9.49-1.13-2.46-2.75-4.7-4.27-6.96-1.45-2.16-3.01-4.25-4.56-6.34-1.79-2.4-3.25-5.21-5.5-7.05-7.27-5.91-14.87-11.42-22.29-17.16-8.98-6.96-17.31-14.99-26.99-20.75-13.36-7.95-27.39-15-41.74-21-20.01-8.36-41.19-12.63-62.94-13.04-9.77-.18-19.58.22-29.33.99-16.44,1.3-31.87,6.07-46.19,14.42-5.94,3.46-12.18,6.4-18.35,9.45-3.48,1.72-7.72,2.44-10.51,4.89-6.82,5.99-12.98,12.72-19.42,19.14-14.29,14.25-20.11,31.7-19.6,51.58.36,14.11.88,28.22.93,42.33.03,9.82,1.86,18.49,8.63,26.37,6.82,7.92,11.66,17.53,18.39,25.55,5.05,6.02,11.74,10.64,17.64,15.96,5.89,5.31,14.73,5.2,20.31,11.18,1,1.07,2.96,1.53,4.54,1.71,4.59.53,9.21,1.01,13.83,1.07,10.5.15,21,.07,31.5.03,2.36-.01,4.3.07,4.27,3.31-.09,11.33.04,22.67-.17,33.99-.02.98-2.1,2.91-2.83,2.74-9.36-2.2-19.15-3.01-27.37-9-2.34-1.71-5.74-2.23-8.74-2.72-7.78-1.28-13.87,2.45-18.95,7.67-6.93,7.12-13.89,14.3-19.95,22.13-5.91,7.64-11.09,15.92-15.89,24.33-3.54,6.2.22,14.79,6.09,15.52,5.99.75,11.44-.32,15.94-4.88,3.02-3.06,6.15-6.11,9.67-8.53,2.84-1.95,6.66-4.62,9.49-4.08,11.89,2.27,23.64,5.37,35.31,8.66,7.48,2.12,15.5,4.63,17.47,13.49,1.34,5.99,1.66,12.4,1.27,18.54-.52,8.01-2.24,15.94-3.36,23.92-1.62,11.56-3.48,23.1-4.64,34.7-.95,9.53-1.59,19.35,5.31,27.38,4.21,4.9,8.64,9.64,13.36,14.04,3.34,3.11,8.03,4.07,12.1,2.31,4.21-1.82,4.77-6.18,4.7-10.65-.1-7.34-1.08-15.08.83-21.95,3.01-10.84,8.2-21.07,12.28-31.63,2.12-5.49,4.55-11.01,5.57-16.73,1.31-7.37-3.65-12.33-8.82-16.69-4.75-4.01-6.8-9.23-8.02-15.45Z"/>
  <path class="st0" d="M1393.16,296.66c-5.85,6.54-11.47,13.33-17.63,19.57-7.58,7.69-15.44,15.12-23.52,22.29-3.88,3.44-8.88,3.31-12.29-.02-17.51-17.13-34.67-34.67-45.15-57.25-9.59-20.67-13.03-42.37-2.86-63.58,6.41-13.38,14.94-25.93,23.78-37.92,13.81-18.75,29.1-36.28,48.67-49.5,8.82-5.96,17.47-6.21,26.54-.59,9.86,6.11,19.29,13.41,31.23,14.99,8.48,1.12,15.33,5.02,21.68,10.36,3.96,3.33,4.75,7.5,2.29,11.6-9.78,16.28-10.84,34.26-10.85,52.49-.01,16.66.58,33.35-.21,49.97-.52,10.97,2.57,20.47,7.16,30.03,6.98,14.54,14.41,28.95,19.97,44.04,7.71,20.94,1.05,39.51-12.89,55.84-14.18,16.61-31.24,29.74-50.36,40.16-12.81,6.98-26.29,13.02-41.2,11.35-10.12-1.14-20.31-3.76-29.87-7.33-17.12-6.38-33.92-13.67-50.59-21.17-11.88-5.34-14.01-11.57-9.09-23.8,4.5-11.21,10.91-21.29,19.42-29.91,4.79-4.86,10.42-5.76,15.99-3,4.99,2.47,8.43,8.05,7.47,13.87-.43,2.6-3.06,4.77-4.34,7.31-.83,1.63-1.91,3.92-1.37,5.34,4.64,12.3,16.11,20.1,29.41,19.97,11.8-.11,23.59-.59,35.39-1.03,1.4-.05,3.04-.5,4.12-1.34,13.34-10.42,27.1-20.51,35.74-35.6,3.05-5.32,6.12-10.83,7.8-16.65,1.2-4.18,1.19-9.36-.15-13.5-5.23-16.17-13.5-30.96-21.75-45.72-.85-.42-1.69-.85-2.54-1.27ZM1393.71,295.24c.99.3,1.98.61,2.96.91,7.02,15.2,14.24,30.31,20.92,45.65,1.57,3.6,2.56,8.29,1.69,11.98-3.69,15.71-12.93,28.39-24.15,39.57-5.12,5.1-11.04,9.42-16.79,13.85-2.26,1.74-4.97,3.85-7.59,4.01-12.09.74-24.21,1-36.33,1.14-13.82.16-25.28-7.83-30.31-20.67-.96-2.45-.81-4.01,1.62-5.88,2.12-1.63,4.09-4.46,4.55-7.04.89-5.01-3.2-11.22-7.65-13.17-5.18-2.27-10.11-1.39-14.47,2.99-9.45,9.48-16.15,20.79-20.98,33.18-2.65,6.81-.38,13.3,5.91,17.1,4.34,2.62,8.98,4.83,13.68,6.73,17.51,7.06,34.99,14.25,52.71,20.76,14.57,5.35,29.18,5,43.84-.96,12.61-5.12,24.22-11.75,35.16-19.72,14.63-10.66,28.31-22.33,37.78-38.01,8.09-13.41,11.35-28.13,5.57-43.04-6.04-15.61-13.51-30.69-20.75-45.81-4.33-9.06-7.19-18.01-6.82-28.4.72-20.14-.06-40.33.34-60.49.16-8.02,1.12-16.17,3-23.95,1.64-6.77,4.99-13.14,7.77-19.6,1.68-3.9,1.71-7.2-1.74-10.24-6.43-5.67-13.41-9.71-22.2-10.87-10.19-1.35-18.83-6.77-27.1-12.53-12.08-8.42-20.85-9.07-32.38.01-6.09,4.79-12.54,9.35-17.75,15-10.75,11.65-21.46,23.46-30.91,36.15-8.1,10.89-15.58,22.58-21.28,34.86-9.77,21.03-6.15,42.22,3.39,62.51,10.46,22.24,27.4,39.54,44.61,56.51,3.08,3.04,6.97,3.83,10.71.67,4.66-3.95,9.58-7.67,13.81-12.03,9.91-10.23,19.48-20.77,29.18-31.17Z"/>
  <path class="st0" d="M1707.54,187.39c2.68-3.83,6.32-7.32,7.86-11.57,4.09-11.28,12.1-19.73,19.26-28.81,2.87-3.64,6.19-6.94,9.31-10.39,8.68-9.6,15.02-10.77,28.86-2.97,8.19,4.62,15.42,10.96,22.98,16.65,3.84,2.89,7.62,5.91,11.16,9.16,5.1,4.67,5.69,9.19,1.12,14.28-7.63,8.5-9.44,18.58-10.26,29.45-.41,5.39-3.26,10.56-4.66,15.92-1.28,4.92-3.18,10.03-2.9,14.94.68,12.06,2.22,24.09,3.95,36.05.58,4.01,2.49,7.93,4.3,11.64,2.79,5.75,5.29,6.44,9.85,2.16,4.54-4.27,9.58-5.44,15.52-5.2,3.94.16,8.26.76,9.19,4.48.96,3.84,1.13,9.47-1.02,12.22-10.01,12.8-20.83,24.97-31.62,37.15-4.39,4.95-10.07,5.95-15.82,2.72-9.6-5.39-18.95-11.23-22.76-22.58-.28-.84-1.15-1.63-1.94-2.14-5.1-3.22-6.47-8.36-6.69-13.78-.54-13.29-1.05-26.59-1.02-39.89.04-18.8.67-37.59.85-56.39.04-4.46-.47-8.96-1.17-13.37-.28-1.76-1.72-3.33-2.63-4.99-1.69.94-3.84,1.49-5,2.88-4.7,5.59-9.33,11.26-13.55,17.22-14.26,20.14-21.31,43.22-25.43,67.09-2.78,16.14-3.43,32.63-5.42,48.92-.25,2.05-2.49,4.41-4.44,5.55-2.35,1.37-5.58,1.16-8.06,2.39-2.96,1.47-5.98,3.32-8.15,5.75-4.01,4.5-12.63,6.98-17.63,3.62-2.13-1.43-4.26-4.74-4.23-7.17.17-13.61.89-27.21,1.64-40.8.48-8.61,1.53-17.19,2.01-25.8,1.14-20.56,2.24-41.12,2.99-61.7.16-4.38-1.01-8.88-2.01-13.23-.98-4.29-3.73-5.71-8.28-4.72-4.5.98-9.19,1.39-13.81,1.5-8.08.19-11.46-4.96-7.44-12.02,3.85-6.76,8.42-13.18,13.2-19.33,4.89-6.28,10.29-12.18,15.72-18.02,4.46-4.8,12.29-6.28,18.3-3.47,3.89,1.82,7.48,4.29,11.2,6.47,3.43,2.02,6.66,5.19,10.33,5.84,9.12,1.62,11.81,7.75,12.67,15.52.71,6.44-.42,12.46-4.27,18.02-1.94,2.8-2.72,6.4-4.03,9.64.68.41,1.32.76,1.97,1.11ZM1704.48,192.08c-.36-.11-.72-.22-1.08-.33,1.84-5.2,2.95-10.84,5.71-15.49,3.21-5.4,5.06-10.87,4.22-16.88-.86-6.13-1.84-12.42-9.35-14.83-4.46-1.43-8.67-3.78-12.83-6.02-3.89-2.1-7.43-4.87-11.36-6.88-5.83-2.99-13.21-1.74-17.69,3.04-5.43,5.79-10.88,11.61-15.73,17.87-4.92,6.36-9.5,13.05-13.52,20.01-3.39,5.87-.25,10.76,6.4,10.51,4.9-.18,9.82-.9,14.66-1.74,4.46-.78,7.69.31,8.71,4.95.95,4.32,2.08,8.76,1.98,13.12-.35,14.73-1.13,29.45-1.91,44.17-.54,10.4-1.4,20.78-2,31.17-1.03,17.67-2.02,35.33-2.94,53-.19,3.66,1.51,6.33,4.99,7.77,5.32,2.2,12.78.78,15.55-4.08,2.4-4.21,6.07-5.1,9.93-6.26,2.51-.76,5.24-1.01,7.55-2.15,1.52-.75,3.14-2.49,3.55-4.08.81-3.16.82-6.52,1.16-9.8,1.33-12.94,1.99-26,4.11-38.81,4.5-27.2,12.71-53.08,30.33-75.06,3.3-4.12,6.44-8.43,10.18-12.12,3.56-3.52,6.15-2.58,7.22,2.28.77,3.52,1.36,7.18,1.33,10.76-.19,20.11-.8,40.22-.85,60.33-.04,13.44.42,26.89,1.07,40.32.16,3.28,1.13,7.16,3.15,9.56,2.91,3.46,5.41,6.99,7.74,10.88,4.78,7.98,12.27,13.28,20.39,17.53,5.39,2.82,10.2,2.03,14.4-2.41,3.62-3.83,6.77-8.09,10.22-12.09,6.91-8.01,13.85-16,20.85-23.93,5.04-5.71,4.27-14.04-2.08-16.13-5.9-1.94-12.29-2.19-17.33,2.39-8.46,7.69-10.44,5.89-14.8-3.47-.41-.89-.69-1.84-1-2.77-4.91-14.42-5.57-29.43-5.75-44.42-.05-4.44.85-9.47,3.05-13.22,3.05-5.21,4.67-10.44,4.77-16.29.19-10.83,2.64-20.64,9.97-29.26,4.54-5.34,4.81-8.58-.51-12.72-11.82-9.2-23.53-18.59-35.89-27.02-8.93-6.08-16.98-6.03-22.62.14-9.89,10.81-19.11,22.27-28.05,33.89-3.93,5.11-6.31,11.37-9.71,16.92-1.72,2.77-4.11,5.11-6.19,7.65Z"/>
  <path class="st0" d="M2232.69,282.49c3.81-2.07,7.21-4.34,10.93-5.84,5.67-2.29,10.85-.14,15.48,3.09,4.4,3.07,5.68,9.19,2.52,14.36-3.01,4.92-6.89,9.31-10.49,13.85-8.14,10.25-16.58,20.27-24.43,30.74-6.33,8.43-15.21,8.97-19.79-.3-5.18-10.48-13.35-16.44-23.67-20.81-12.36-5.25-12.33-6.08-10.4-19.69,1.14-8.03,1.93-16.16,2.18-24.27.86-28.08,1.43-56.17,2.09-84.26.04-1.8.01-3.6.01-6.3-1.87.93-3.16,1.25-4.02,2.05-4.7,4.36-10.46,4.2-16.04,3.35-4.1-.62-5.66-4.16-5.93-8.18-.72-10.7,4.01-19.32,10.46-27.22,3.99-4.88,8.45-9.38,12.28-14.38,3.79-4.95,4.47-10.54,3.76-16.95-1.01-9.09-2.36-18.71,5.16-26.4.96-.99,1.48-2.68,1.66-4.11.94-7.44,5.35-12.81,10.56-17.56,12.64-11.52,25.37-22.94,38.25-34.19,2.42-2.11,5.91-2.95,8.54-4.87,3.16-2.3,5.63-5.62,8.92-7.64,7.06-4.31,14.15-8.86,21.81-11.78,5.95-2.27,13.45-4.14,18.57,1.72,3.3,3.77,6.9,5.5,11.35,7.15,11.7,4.33,15.55,11.41,11.49,23.05-2.82,8.08-8.55,15.23-13.53,22.42-2.52,3.64-6.13,6.57-9.46,9.58-6.02,5.44-15.5,5.28-19.25-.85-1.85-3.03-2.15-7.2-2.48-10.92-.34-3.82-1.46-4.74-5.35-3.83-17.61,4.14-27.01,15.64-29.48,32.96-2.18,15.25-3.87,30.59-5.25,45.93-1.6,17.83-2.87,35.7-3.86,53.58-1.56,28.05-3.42,56.17,6.1,83.43.41,1.21.99,2.35,1.31,3.09ZM2177.71,180.65c0,1.82.02,2.65,0,3.48-.67,30.06-1.16,60.12-2.11,90.18-.28,8.86-1.68,17.7-2.86,26.51-1.19,8.85-.6,10.91,7.87,14.6,11.59,5.05,22.32,10.82,27.32,23.41,2.93,7.37,13.32,6.57,17.77.25,7.77-11.02,16.71-21.22,25.08-31.82,3.66-4.64,7.51-9.21,10.57-14.24,2.73-4.48,1.35-10.08-2.81-12.78-4.45-2.89-9.34-5.54-14.82-2.84-3.8,1.88-7.3,4.39-11.21,6.78.18.25-.35-.2-.53-.76-4.43-13.82-8.31-27.87-8.34-42.42-.04-16.56,1.02-33.13,1.87-49.68.81-15.68,1.7-31.37,3.03-47.01,1.33-15.59,3-31.15,5-46.67,2.21-17.1,10.41-29.51,28.13-34.2,7.32-1.94,7.66-2.05,8.04,5.67.25,5.18,1.57,10.25,6.5,12.45,4.34,1.93,9.4,1.17,13.11-2.06,9.93-8.65,18.88-18.33,23.71-30.77,4.42-11.37.78-20.59-12.28-24.4-3.7-1.08-7.26-2.08-9.52-6.14-1.12-2.01-4.74-3.25-7.41-3.65-8.67-1.3-15.88,3.03-23.34,6.63-8.91,4.29-14.8,12.56-23.7,16.95-4.6,2.27-8.33,6.43-12.25,9.96-10.83,9.75-21.85,19.33-32.17,29.6-3.26,3.24-4.6,8.43-6.72,12.77-.94,1.92-1.12,4.45-2.51,5.85-7.35,7.39-5.91,16.64-4.91,25.3.73,6.33.35,11.98-3.28,16.95-3.79,5.19-8.37,9.79-12.5,14.74-6.47,7.77-11.26,16.26-10.72,26.85.25,4.96,3.35,7.52,8.09,8.14,7.21.92,12.15-3.1,17.9-7.63Z"/>
  <path class="st0" d="M2671.66,238.26c.51-6.78.73-13.6,1.59-20.34,1.38-10.82,9.44-16.88,17.59-22.37,1.74-1.17,6.44-.41,8.11,1.19,8.51,8.18,16.85,16.59,24.5,25.57,7.11,8.34,6.62,20.82-.76,29.97-6.77,8.39-14.07,16.36-21.27,24.4-9.98,11.13-21.17,21.38-29.76,33.49-5.79,8.17-11.47,16.18-18.75,22.98-4.73,4.42-9.8,9.58-16.94,7.33-4.7-1.48-8.75-5.05-13.06-7.73-4.91-3.05-9.85-6.04-14.65-9.25-3.3-2.21-6.71-4.41-9.5-7.19-9.36-9.32-20.22-17.43-25.47-30.23-.37-.9-.96-1.81-1.68-2.44-10.18-8.97-13.58-20.62-14.71-33.75-1.52-17.58-.26-34.84,7.35-50.62,5.41-11.22,12.88-21.71,20.83-31.38,10.96-13.33,23.13-25.67,34.96-38.27,14.02-14.91,18.51-13.36,35.18-2.79,6.9,4.37,12.79,9.58,16.34,17.55,2.79,6.27,8.28,10.58,15.24,12.71,3.75,1.15,6.95,3.43,7.21,7.95.35,5.87.63,11.56-5.55,15.33-5.45,3.32-10.83,6.93-15.62,11.12-5.13,4.5-10.1,8.58-16.56,11.49-6.8,3.06-12.39,8.77-18.58,13.22-8.09,5.82-16.14,11.71-24.44,17.23-4.19,2.79-4.96,5.62-2.53,9.99,8.05,14.49,19.27,25.72,33.81,33.64,4.15,2.26,8.02,1.77,12.28-.46,11.16-5.85,15.84-15.02,15.32-27.31-.15-3.66-.02-7.33-.02-11-.15,0-.31-.02-.46-.03ZM2671.91,238.61c.36.03.72.07,1.08.1-.29,5.96-.83,11.91-.83,17.87,0,10.55-7.23,15.63-14.86,20.6-4.52,2.94-9.02,2.81-13.57.3-14.69-8.12-26.03-19.56-33.99-34.36-2.29-4.26-1.46-7.29,2.65-10.06,7.92-5.33,15.6-11,23.33-16.6,6.26-4.54,11.86-10.61,18.8-13.43,8.39-3.41,14.21-9.21,20.6-14.9,3.7-3.3,8.3-5.63,12.63-8.18,5.61-3.3,6.18-8.38,5.8-14.15-.3-4.63-3.33-7.03-6.91-8.1-6.57-1.97-11.24-5.99-14.88-11.47-2.16-3.25-3.36-7.52-6.2-9.87-6.55-5.42-13.66-10.24-20.89-14.74-5.28-3.29-10.9-3.52-15.92,1.18-1.56,1.46-3.49,2.54-4.93,4.1-14.35,15.6-29.08,30.9-42.75,47.08-6.59,7.8-11.7,17.02-16.48,26.13-4.94,9.41-6.85,19.89-6.85,30.56,0,8.85.09,17.72.62,26.55.92,15.64,13.71,24.96,20.81,37.28,4.19,7.27,11.34,12.93,17.54,18.92,3.76,3.62,8.13,6.66,12.44,9.65,4.43,3.07,9.15,5.72,13.68,8.64,4.26,2.74,8.1,6.58,12.73,8.17,6.85,2.35,11.95-2.57,16.39-6.95,6.77-6.68,13.28-13.33,18.09-22.05,4.85-8.78,12.83-15.88,19.67-23.5,10.73-11.96,21.91-23.52,32.42-35.66,7.32-8.46,7.85-20.49.92-28.72-7.79-9.25-16.5-17.74-25.13-26.25-1.28-1.26-5.08-1.88-6.34-.94-7.07,5.28-15.12,10.16-16.91,19.77-1.4,7.58-1.87,15.34-2.76,23.03Z"/>
  <path class="st0" d="M2459.09,186.98c-12.42,2.14-16.4.19-19.02-6.63-2.41-6.29-2.03-13.48,1.94-19.68,4.39-6.86,9.24-13.45,13.17-20.55,2.09-3.77,3.31-8.31,3.81-12.63,1.13-9.74,4.73-17.21,14.07-21.85,3.91-1.94,6.83-6.05,9.87-9.48,2.63-2.97,4.48-6.67,7.25-9.47,2.35-2.37,5.32-5.01,8.4-5.62,8.51-1.69,13.49,2.53,13.35,11.4-.21,13.27-.99,26.54-1.83,39.79-.38,6.04-.28,6.87,6.12,7.77,8.2,1.16,16.46,1.9,24.7,2.75,5.33.55,9.54-1.31,13.31-5.28,5.94-6.25,17.42-7.76,25.09-3.91,8.03,4.03,9.18,12.16,5.09,20.3-8.82,17.57-22.97,27.87-43.6,27.95-8.93.03-17.88,1.1-26.77,2.14-1.47.17-3.56,2.43-3.85,4.01-1.05,5.69-1.7,11.48-2.05,17.26-.84,13.75-1.31,27.53-2.16,41.28-.41,6.61-1.39,13.19-2.03,19.79-.1,1.07-.08,2.43.49,3.23,3.65,5.22,19.29,10.4,25.08,7.8,3.53-1.59,6.23-4.98,9.69-6.83,3.25-1.74,6.96-3.22,10.57-3.54,4.93-.44,8.58,3.67,9.26,8.61.97,6.98-1.44,12.97-5.79,17.98-11.43,13.17-22.99,26.23-34.88,38.98-5.93,6.36-13.23,5.84-20.29-.58-5.04-4.58-9.77-9.54-15.05-13.82-3.28-2.66-7.35-4.32-11.03-6.49-2.11-1.25-4.83-2.18-6.05-4.05-2.26-3.47-5.05-4.35-8.79-3.92-1.31.15-2.67-.02-4,.03-5.56.24-11.75-.14-13.42-6.1-1.7-6.04-2.45-13.24,4.06-17.78,8.88-6.19,8.93-16.05,10.02-24.96,2.35-19.25,3.61-38.63,5.21-57.96.29-3.25.06-6.56.06-9.94ZM2460.11,184.42c-.49,6.47-.91,12.32-1.39,18.17-1.32,16.44-2.51,32.9-4.06,49.32-1.07,11.4-1.72,22.88-12.39,30.78-4.71,3.48-3.17,9.81-1.98,14.49.62,2.47,4.88,4.61,7.92,5.71,2.66.96,5.93.36,8.92.22,3.87-.18,7.33-.26,9.5,4.12.88,1.77,3.56,2.72,5.54,3.84,3.54,1.99,7.57,3.34,10.67,5.84,5.41,4.36,10.27,9.39,15.37,14.14,6.98,6.5,13.84,7.54,21-.18,7.34-7.92,15.3-15.29,22.24-23.53,5.9-7.01,11.11-14.69,15.91-22.51,3.14-5.11,1.39-12.23-2.56-15.44-3.91-3.18-9.77-2.64-14.97,1.46-2.07,1.63-3.85,3.79-6.14,4.96-2.97,1.52-6.73,3.82-9.43,3.1-6.71-1.8-13.07-5-19.42-7.95-1.01-.47-1.87-2.64-1.77-3.94,1.36-17.75,2.93-35.49,4.4-53.23.72-8.71,1.5-17.43,1.93-26.16.18-3.67,2.09-4.27,5.1-4.52,11.01-.89,21.98-2.34,33-2.85,18.5-.85,29.06-12.78,36.51-27.31,4.59-8.94,2.46-17.05-8.76-19.98-7.5-1.96-15-.91-20.58,5.19-3.71,4.05-7.92,5.72-13.22,5.23-8.05-.74-16.15-1.08-24.14-2.27-8.41-1.25-8.29-1.72-7.85-8.77.81-12.88,1.44-25.77,1.98-38.66.2-4.86-1.29-9.37-5.66-11.95-3.71-2.19-10.38.03-14.19,4.42-2.8,3.22-5.03,6.96-7.88,10.13-3.24,3.61-6.36,7.88-10.48,10.04-8.94,4.67-12.4,11.94-13.65,21.34-.61,4.59-1.95,9.36-4.16,13.39-3.86,7.04-8.62,13.59-13.03,20.33-3.64,5.56-3.8,12.05-2.2,17.76,1.85,6.61,9.37,11.31,19.92,5.27Z"/>
  <path class="st0" d="M1041.39,154.41c2.62-3.09,4.57-5.54,6.67-7.84,4.37-4.79,8.73-9.58,13.25-14.24,4.74-4.89,12.07-6.77,17.71-3.27,11.85,7.33,23.42,15.15,34.72,23.31,4.93,3.57,4.56,7.86.64,12.41-9.87,11.44-19.39,23.18-29.55,34.35-7.59,8.34-16.11,5.9-19.31-4.93-1.2-4.07-2.51-8.1-3.99-12.88-6.17,5.09-8.95,11.38-10.13,17.65-3.01,15.94-5.18,32.05-7.23,48.15-.92,7.22-1.11,14.59-.97,21.88.12,6.03,1.43,11.92,7.68,15.25,2.46-1.93,4.79-3.73,7.09-5.56,4.62-3.67,10.19-3.71,15.24-2.43,2.39.61,4.96,4.29,5.64,7.03,1.68,6.85-1.75,12.53-5.86,17.81-8.86,11.4-17.64,22.88-26.48,34.3-5.11,6.6-13.33,7.11-19.68,1.33-6.64-6.03-13.02-12.39-20.06-17.91-5.05-3.97-10.9-6.98-16.56-10.11-6.72-3.72-8.29-7.38-4.02-13.64,7.85-11.54,9.25-24.88,10.65-37.98,1.84-17.14,2.6-34.42,3.12-51.67.19-6.18-1.23-12.54-2.74-18.62-1.72-6.91-7.17-8.04-12.18-3.01-5.35,5.36-9.78,6.45-13.7,3.41-7.24-5.61-8.08-11.32-4.37-18.68,1.53-3.05,3.95-5.78,6.41-8.21,12.19-12.05,24.52-23.97,36.83-35.9,4.25-4.12,8.26-3.77,11.63,1.22,5.03,7.44,9.82,15.04,14.78,22.52,1.24,1.93,2.76,3.66,4.77,6.26ZM1040.7,155.73c-6.6-10.03-13.03-19.54-19.17-29.23-2.76-4.36-6.87-5.68-11.24-1.24-11.77,11.96-24.06,23.42-36,35.22-2.55,2.52-4.73,5.5-6.73,8.5-4,6.02-2.23,12.63,4.51,17.9,3.61,2.82,7.13,1.74,12.46-3.84,4.76-4.97,11.48-3.65,13.14,2.99,1.5,6.02,3.1,12.32,2.85,18.42-.8,18.96-2.29,37.9-3.83,56.82-.99,12.18-3.13,24.08-10.08,34.64-3.6,5.48-2.37,8.76,3.43,11.9,4.62,2.51,9.59,4.64,13.66,7.87,8.14,6.47,15.85,13.5,23.59,20.45,6.54,5.88,13.89,5.13,19.16-1.86,7.53-9.99,15.43-19.71,22.92-29.74,3.22-4.31,6.8-8.75,8.45-13.72,2.59-7.8.14-14.76-8.73-14.61-7.75.13-12.89,3.92-17.44,9.32-4.84-1.98-7.83-5.61-8.07-10.51-.41-8.7-.61-17.46.01-26.13.87-12.14,2.28-24.26,3.99-36.31,1.43-10.11,3.89-20.04,9.98-28.58.99-1.39,2.63-2.32,4.47-3.89,1.7,5.52,3.01,9.9,4.39,14.26,3.2,10.06,10.61,12.19,17.61,4.48,9.98-10.99,19.35-22.54,29.03-33.81,4.94-5.75,5.24-8.69-.77-13.05-10.5-7.62-21.31-14.85-32.38-21.62-6.94-4.24-12.75-3.03-18.27,2.74-6.87,7.17-13.5,14.56-20.94,22.63Z"/>
  <path class="st0" d="M2403.92,279.63c5.22-9.13,11.43-13.5,20.42-12.8,4.81.38,9.37,1.53,11.56,6.43,2.31,5.18,1.2,10.3-1.92,14.66-6.43,9-12.87,18.05-20.01,26.48-7.51,8.87-15.73,17.14-23.86,25.46-3.08,3.15-6.56,2.54-9.68-.48-10.41-10.07-18.82-21.47-23.61-35.29-.38-1.09-.87-2.14-1.39-3.17-.12-.23-.55-.31-.81-.45-5.03,5.71-9.52,12-15.2,16.95-7.21,6.28-15.24,11.66-23.21,16.99-2.33,1.55-5.63,2.09-8.54,2.24-9.23.48-10.04-.47-12.95-9.27-1.02-3.07-2.74-6.28-5.03-8.5-15.65-15.16-23.64-34.36-29.22-54.79-5.01-18.3-5.11-36.83-.38-55.18,3.63-14.1,12.33-25.48,22.34-35.48,14.69-14.68,30.13-28.6,45.49-42.59,4.1-3.74,8.63-7.2,14.9-7.1,3.94.06,6.58,1.31,9.52,4.12,2.46,2.35,6.74,3.26,10.37,3.86,11.6,1.93,23.35,3.03,34.91,5.17,15.19,2.82,19.49,11.06,12.72,26.88-6.18,14.46-11.53,28.94-11.43,45.03.1,14.79-.78,29.59-.74,44.38.01,6.09,1.07,12.22,2.09,18.26.42,2.37,2,4.57,3.66,8.19ZM2404.06,280.59c-1.8-3.28-3.91-5.6-4.36-8.21-1.14-6.64-1.96-13.4-2.14-20.13-.33-11.99-.42-24,.02-35.98.32-8.53.77-17.25,2.81-25.48,2.44-9.81,6.53-19.22,10.11-28.73,3.59-9.56,3.31-17.99-5.1-21.95-2.5-1.18-5.19-2.22-7.9-2.64-11.69-1.83-23.45-3.2-35.1-5.2-3.81-.65-8.05-1.92-10.91-4.33-3.9-3.28-10.12-5.51-14.27-2.32-10.83,8.33-21.74,16.65-31.79,25.88-10.14,9.31-19.62,19.41-28.79,29.7-10.87,12.19-18.01,26.47-18.8,43-.67,14.02-.66,28.04,3.75,41.78,6.09,18.99,13.31,37.18,27.91,51.56,2.62,2.58,4.85,6.07,5.96,9.56,2.64,8.3,3.36,9.36,11.91,8.95,2.87-.14,6.16-.69,8.44-2.25,8.26-5.65,16.61-11.31,24.06-17.94,5.81-5.18,10.33-11.81,15.46-17.83.12.3.3.72.44,1.15.37,1.08.71,2.18,1.09,3.26,5.1,14.44,13.62,26.59,24.77,37,2.5,2.33,5.2,2.66,7.46.36,8.23-8.42,16.62-16.74,24.22-25.71,7.19-8.48,13.85-17.49,19.95-26.78,2.09-3.19,2.93-8.11,2.34-11.93-.96-6.24-8.94-9.26-16.5-7.74-6.97,1.38-10.79,6.35-15.04,12.95Z"/>
  <path class="st0" d="M1207.67,299.71c-3.98,5.05-7.31,9.99-11.37,14.24-6.53,6.82-13.14,13.69-20.47,19.6-8.4,6.77-16.15,5.47-24.5-2.23-12.64-11.65-21.13-26.13-27.84-41.61-4.41-10.18-7.84-20.85-10.89-31.53-5.83-20.42-1.6-39.85,7.23-58.56,8.48-17.99,20.19-33.67,35.12-46.77,4.3-3.77,9.46-6.84,14.71-9.16,7.93-3.5,14.67-8.35,20.7-14.43,6.76-6.82,16.86-8.2,23.9-2.03,12.61,11.05,27.34,18.32,42.26,25.27,8.51,3.97,11.49,8.23,5.91,18.16-13.33,23.74-15.26,49.61-14.15,75.92.4,9.56,2.54,19.06,4.08,28.56.85,5.26,3.61,7.04,8.88,5.56,2.99-.84,5.74-2.54,8.56-3.93,1.04-.51,1.95-1.27,2.93-1.9,6.04-3.92,12.37-4.32,15.66-1.02,3.77,3.79,4.02,12.41-.03,17.62-3.46,4.45-7.15,8.85-11.4,12.52-7.9,6.84-16.21,13.2-24.49,19.59-2.08,1.6-4.78,2.37-6.98,3.84-2.32,1.56-4.85,3.16-6.47,5.35-3.43,4.64-11.93,5.7-16.46,1.73-7.78-6.83-11.28-15.87-13.39-25.63-.62-2.85-.96-5.77-1.5-9.16ZM1208.53,298.21c.81,12.93,3.73,26.06,14.84,35.93,3.83,3.41,12.4,3.04,14.46-1.38,1.77-3.81,4.58-5.07,7.9-6.44,2.27-.93,4.55-2.04,6.48-3.52,7.96-6.12,16.18-12,23.54-18.8,5.27-4.86,9.83-10.71,13.75-16.74,2.33-3.59,1.74-8.26-.96-12.16-2.32-3.36-5.8-3.12-8.99-2.54-2.32.42-4.4,2.08-6.61,3.12-4.28,2.02-8.43,4.48-12.9,5.86-3.6,1.11-7.11.23-7.84-4.63-1.51-10.07-4.1-20.07-4.53-30.18-1.17-27.29,1.05-54.08,15.13-78.58,3.95-6.87,2.43-10.18-4.71-13.85-15.36-7.89-31.19-14.85-44.39-26.56-6.89-6.12-16.09-4.7-22.72,2-5.97,6.04-12.63,10.92-20.46,14.43-5.18,2.32-10.44,5.13-14.65,8.86-17.05,15.1-30.08,33.21-38.63,54.42-6.78,16.83-9.12,34.03-3.6,51.67,3.13,10.01,6.09,20.15,10.26,29.74,6.93,15.96,15.48,31.1,28.9,42.68,7.3,6.3,13.1,8.6,22.6,1.58,2.91-2.15,5.94-4.3,8.36-6.95,8.53-9.36,16.81-18.94,24.77-27.96Z"/>
  <path class="st0" d="M1458.77,241.21c-1.81-24.76,8.78-44.97,24.45-62.45,14.71-16.42,30.88-31.56,46.73-46.93,5.4-5.24,11.82-9.49,20.1-7.94,1.99.37,4.11,1.19,5.7,2.42,6.66,5.15,13.06,10.65,19.71,15.82,13.11,10.17,26.76,19.7,39.37,30.44,9.78,8.34,14.18,19.95,14.19,32.89,0,11.08.43,22.24-.71,33.22-1.42,13.75-9.22,25.02-18.08,34.96-17.91,20.1-36.47,39.63-55.06,59.12-3.62,3.79-7.38,7.95-13.73,8.13-6.15.17-9.69-3.39-12.68-7.55-3.59-4.99-7.39-8.66-13.68-10.64-4.96-1.56-9.3-5.69-13.41-9.25-12.43-10.76-24.45-22-36.98-32.64-5.31-4.51-3.43-10.5-4.3-15.75-1.3-7.84-1.15-15.9-1.62-23.85ZM1459.07,240.92c.88,10.04,2.23,20.06,2.44,30.11.1,5.03,2.22,8.04,5.67,10.82,1.28,1.03,2.64,1.97,3.86,3.07,10.46,9.41,20.8,18.97,31.41,28.21,3.94,3.43,8.14,7.28,12.91,8.86,6.4,2.13,10.53,5.82,14.18,11.15,3.26,4.75,7.88,8.89,14.21,6.76,3.71-1.25,7.18-4.03,10.06-6.83,20.93-20.36,41.63-40.98,59.33-64.31,6.56-8.65,12.36-17.82,14.39-28.87,2.35-12.81,2.43-25.65.84-38.5-1-8.07-3.73-15.59-8.68-22.24-7.32-9.85-17.01-16.99-26.85-23.99-11.14-7.92-22.48-15.56-33.3-23.89-4.22-3.25-6.97-8.66-13.56-6.86-2.8.76-6.01,1.15-8.22,2.79-7.4,5.51-14.95,10.98-21.49,17.43-11.34,11.18-22.49,22.63-32.77,34.77-14.89,17.61-25.8,37.13-24.43,61.52Z"/>
  <path class="st0" d="M761.4,336.56c1.22,6.22,3.27,11.44,8.01,15.45,5.17,4.36,10.13,9.32,8.82,16.69-1.02,5.73-3.45,11.25-5.57,16.73-4.08,10.56-9.27,20.78-12.28,31.63-1.91,6.87-.94,14.61-.83,21.95.06,4.46-.49,8.83-4.7,10.65-4.07,1.76-8.76.8-12.1-2.31-4.72-4.39-9.15-9.14-13.36-14.04-6.9-8.03-6.26-17.85-5.31-27.38,1.16-11.61,3.02-23.14,4.64-34.7,1.12-7.98,2.84-15.91,3.36-23.92.4-6.14.07-12.55-1.27-18.54-1.97-8.86-9.99-11.37-17.47-13.49-11.66-3.3-23.42-6.4-35.31-8.66-2.83-.54-6.65,2.13-9.49,4.08-3.52,2.42-6.65,5.47-9.67,8.53-4.5,4.56-9.95,5.62-15.94,4.88-5.87-.73-9.62-9.32-6.09-15.52,4.79-8.4,9.97-16.69,15.89-24.33,6.06-7.83,13.03-15.01,19.95-22.13,5.07-5.22,11.17-8.95,18.95-7.67,3.01.49,6.4,1.01,8.74,2.72,8.22,5.99,18.01,6.8,27.37,9,.73.17,2.82-1.76,2.83-2.74.2-11.33.08-22.66.17-33.99.03-3.24-1.92-3.31-4.27-3.31-10.5.04-21,.12-31.5-.03-4.62-.07-9.24-.55-13.83-1.07-1.58-.18-3.54-.64-4.54-1.71-5.58-5.98-14.42-5.87-20.31-11.18-5.9-5.32-12.59-9.94-17.64-15.96-6.73-8.02-11.57-17.62-18.39-25.55-6.78-7.88-8.6-16.55-8.63-26.37-.05-14.11-.57-28.22-.93-42.33-.51-19.88,5.31-37.33,19.6-51.58,6.44-6.42,12.6-13.15,19.42-19.14,2.78-2.44,7.03-3.17,10.51-4.89,6.17-3.05,12.42-5.99,18.35-9.45,14.33-8.35,29.76-13.12,46.19-14.42,9.74-.77,19.56-1.17,29.33-.99,21.76.41,42.93,4.68,62.94,13.04,14.35,5.99,28.38,13.05,41.74,21,9.68,5.76,18.01,13.8,26.99,20.75,7.41,5.74,15.02,11.24,22.29,17.16,2.25,1.83,3.72,4.65,5.5,7.05,1.56,2.09,3.12,4.18,4.56,6.34,1.51,2.27,3.13,4.51,4.27,6.96,1.43,3.09,1.61,7.09,3.72,9.49,10.04,11.44,13.7,25.51,16.15,39.73,2.59,15.06,3.29,30.43,5.29,45.61,2,15.12.1,29.97-2.13,44.84-.43,2.9-1.17,5.89-2.47,8.49-3.86,7.71-6.11,15.76-8.05,24.19-1.58,6.89-6.07,13.5-10.53,19.25-11.79,15.21-26.52,27.07-44.02,35.34-4.45,2.1-8.91,4.21-13.22,6.58-1.64.9-3.03,2.4-4.26,3.86-4.21,4.97-10.22,6.39-15.99,6.78-16.86,1.16-33.77,2.12-50.65,2-11.29-.07-22.57-2.11-34.83-3.37ZM757.37,330.6c1.55.18,2.99.34,4.42.51,10.06,1.15,20.1,3.07,30.17,3.27,16.26.33,32.56-.11,48.8-1.01,5.58-.31,11.4-2.22,16.44-4.74,5.63-2.82,10.06-8.22,15.79-10.65,17.22-7.31,31.64-18.18,43.97-32,6.78-7.61,12.58-15.74,13.96-26.42.63-4.84,2.01-9.89,4.35-14.12,5.49-9.95,6.96-20.77,7.49-31.66,1.18-23.99-.66-47.83-5.96-71.29-2.92-12.92-6.11-25.81-15.29-36.26-2.03-2.31-2.65-5.93-3.68-9.03-.93-2.81-1.24-5.58-4.97-6.71-1.66-.5-3.53-3.41-3.65-5.33-.25-4.28-1.88-6.77-5.93-8.05-1.52-.48-2.93-1.59-4.18-2.65-9.54-8.04-18.67-16.6-28.6-24.12-41.02-31.08-86.95-46.91-138.82-43.43-19.67,1.32-38.07,6.6-54.82,17.41-4.8,3.1-10.41,4.97-15.65,7.37-2.67,1.22-6.04,1.74-7.94,3.69-9.36,9.61-18.58,19.39-27.36,29.53-6.91,7.98-9.23,18.03-9.49,28.27-.41,16.29-.45,32.61.05,48.89.28,8.99.52,18.34,8.2,25.22,1.9,1.7,3.04,4.35,4.25,6.71,6.05,11.8,15.25,20.92,25.08,29.46,5.4,4.69,11.12,8.96,18.58,9.92,1.07.14,2.63.67,3,1.47,2.78,5.92,8.44,5.38,13.29,5.6,14.13.66,28.28.77,42.42,1.12,1.58.04,3.16.17,4.51.25v51c-4.38-.7-8.38-1-12.18-2.03-7.78-2.11-16.41-3.14-22.94-7.34-8.68-5.58-14.54-5.64-22.44.94-15.13,12.62-26.15,28.67-35.95,45.54-1.15,1.99-1.35,5.71-.23,7.58,1.92,3.23,5.52,2.16,8.51.76,1.34-.63,2.62-1.47,3.75-2.42,4.59-3.84,8.99-7.91,13.69-11.62,3.58-2.82,7.4-4.72,12.41-2.94,6.06,2.15,12.36,3.64,18.57,5.38,8.58,2.4,17.42,4.12,25.67,7.34,8.28,3.23,12.62,10.53,12.48,19.31-.18,11.07-1.27,22.15-2.4,33.18-1.67,16.31-4.27,32.54-5.43,48.88-.97,13.7,8.83,21.51,18.7,28.58,3.11,2.23,5.79.78,6.45-3.13.3-1.77.43-3.68.13-5.44-1.54-8.85-1.31-17.6,2.03-25.97,4.3-10.76,9.09-21.32,13.51-32.04,4.74-11.49,4.47-12.75-4.53-21.2-7.38-6.94-10.12-15.27-8.23-25.58Z"/>
  <path class="st0" d="M289.3,148.33c2.39,13.65,3.03,26.81-5.31,38.52-2.96,4.16-5.55,8.31-5.03,13.71.36,3.72,2.4,4.84,5.39,2.95,2.63-1.66,4.84-4.01,7.16-6.14,3.72-3.43,5.32-3.21,6.32,1.6,1.04,5,1.94,10.17,1.82,15.24-.2,9.13-.87,18.29-1.99,27.35-.6,4.87-2.32,9.66-3.94,14.34-5.56,16.03-11.7,31.87-16.77,48.04-1.73,5.52-1.49,11.85-1.22,17.76.48,10.27,6.53,17.8,14.38,23.51,6.4,4.66,13.33,8.86,20.57,12.04,19.88,8.72,40.85,11.63,62.49,10.27,5.91-.37,11.86-.06,17.79-.06.21.49.42.99.64,1.48-3.69,3.65-7.02,7.81-11.15,10.87-15.12,11.22-26.95,25.73-39.39,39.53-10.18,11.3-12.51,13.41-26.14,7.2-9.1-4.15-18.05-9.72-25.32-16.52-10.38-9.7-21.98-14.88-35.8-16.8-15.97-2.22-34.51,8.62-39.51,23.91-.57,1.73-1.31,3.44-2.25,4.98-4.89,8.03-8.41,9.04-17.13,5.82-10.82-4.01-17.91-12.44-25.21-20.66-.64-.72-1.15-1.7-1.36-2.65-2.97-13.43-5.95-26.86-8.76-40.32-.75-3.57-.54-7.37-1.59-10.82-.48-1.6-2.87-3.55-4.47-3.62-1.62-.07-3.89,1.62-4.88,3.18-1.67,2.63-2.26,5.92-3.81,8.64-3.17,5.54-7.77,7-13.59,4.4-5.83-2.6-10.77-6.29-13.46-11.83,4.79-3.05,9.15-5.42,13.04-8.4,3.88-2.98,4.74-6.72,2.06-11.43-1.94-3.41-2.92-7.41-4.04-11.23-2.67-9.13-8.75-15.27-17.13-19.08-11.3-5.13-21.38,2.4-20.27,15.17,3.44.99,6.19.43,7.22-3.52,1.14-4.37,4.12-4.73,7.75-3.85,6.92,1.68,11.47,5.83,13.13,12.88.23.97.32,1.97.44,2.96,1.76,15.22-4.06,20.29-18.95,16.48-3.6-.92-8.52-7.82-8.46-11.64.04-2.32.17-4.76-.46-6.95-.52-1.8-1.93-3.43-3.24-4.87-1.08-1.19-3.28-1.73-3.79-3.02-2.95-7.51-3.85-15.71-.33-22.79,3.16-6.35,8.96-11.21,17.14-11.08,1.67.03,3.34.02,5-.06,24.42-1.25,39.36,12.77,50.73,31.98,5.67,9.58,10.35,19.73,15.7,29.5,2.56,4.68,4.25,4.29,7.48.15,5.72-7.34,11.58-14.62,17.99-21.34,5.15-5.4,15.82-4.07,20.51,1.66,2.36,2.88,4.71,7.14,9.04,5.57,4.2-1.52,2.85-6.16,3.04-9.74.22-4.15.03-8.43,1.05-12.39,3.3-12.86,3.24-26.49,9.13-38.77,1.17-2.44,1.47-5.55,1.37-8.32-.49-14.34,5.26-26.7,12.37-38.46,4.77-7.89,6.03-16.37,3.24-24.44-1.71-4.95-6.84-9.08-11.22-12.6-2.69-2.16-9.3,1.47-10.02,5.07-.26,1.28,1.02,3.36,2.2,4.34,7.45,6.23,8.18,19.86.92,26.02-1.35,1.15-4.06,1.15-6.09.98-14.37-1.19-27.68,1.38-39.92,9.51-6.75,4.49-14.08,8.12-21.23,12.01-1.43.78-3.27,1.53-4.75,1.28-2.1-.35-4.05-1.64-6.07-2.53,1.15-1.57,1.97-3.74,3.51-4.62,9.57-5.41,19.3-10.52,28.97-15.75,6.35-3.43,10.98-7.92,10.88-15.92-.06-4.49-1.77-7.75-4.72-11.07-7.98-8.98-17.92-11.8-29.56-11.52-11.64.28-23.31-.23-34.95-.69-7.29-.28-12.14-4.6-16.06-10.48-3.02-4.54-2.31-8.38,1-12.2.33-.38.76-.68,1.03-1.09,4.86-7.36,10.42-8.37,18.81-4.66,6.56,2.89,14.54,3.57,21.86,3.45,9.6-.15,12.28-3.95,13.15-11.19.89-7.41,2.89-9.83,11.01-10.2,13.25-.59,26.6-.39,39.85.38,11.9.7,23.32,3.78,33.12,11.18,1.59,1.2,3.28,2.28,4.91,3.43,3.41,2.41,4.27,4.92,1.46,8.72-1.9,2.57-3.08,5.89-3.82,9.06-1.06,4.48,1.33,6.97,5.38,5.03,4.13-1.97,7.95-5.3,10.86-8.88,2.89-3.54,4.44-8.16,6.67-12.26,1.1-1.94,2.39-3.79,3.58-5.69ZM213.24,147.19c-4.2,1.05-9.68,1.81-14.59,3.9-2.42,1.03-3.92,4.45-5.49,7-.32.52.87,2.87,1.5,2.93,5.88.54,8.98,4.13,11.46,9.04.79,1.56,4.01,3.53,4.88,3.06,1.7-.93,2.62-3.41,3.66-5.35.35-.65.05-1.63.11-2.46.44-5.99,2.09-7.76,7.96-8.68,1.64-.26,3.37-.39,4.84-1.07,1.35-.62,2.39-1.9,3.57-2.88-1.11-1.09-2.06-2.87-3.35-3.16-4.34-.99-8.79-1.46-14.55-2.33Z"/>
  <path class="st0" d="M259.58,16.25c55.08,55.2,109.96,110.19,165.62,165.97-3.41-.38-6.54-.19-9.27-1.15-6.81-2.4-13.52-2.64-20.63-1.47-11.98,1.97-24.12,2.96-36.1,4.95-7.82,1.3-15.6,3.24-23.15,5.66-5.92,1.9-6.91,4.88-4.39,10.47,7.5,16.58,9.5,33.81,4.27,51.17-2.94,9.76-7.68,19.07-12.43,28.15-4.07,7.77-8.84,15.28-14.14,22.27-5.39,7.11-11.75,13.52-17.88,20.04-.7.74-2.9.8-4.01.3-3.38-1.52-4.47-4.62-3.43-7.95,2.98-9.5,6.24-18.91,9.47-28.32.42-1.23,1.62-2.22,1.96-3.46,5.09-18.33,14.27-35.61,14.36-55.24.04-9.83-.23-19.67.06-29.5.18-6.1-1.16-11.64-4.63-16.51-3.97-5.57-4.53-11.45-3.44-18.03,2.25-13.53-.77-26.12-8.04-37.71-.67-1.06-1.6-1.96-2.92-3.57-1.09,1.74-1.81,2.92-2.56,4.09-2.42,3.77-4.54,7.79-7.41,11.19-1.74,2.06-5.59,4.97-6.84,4.32-3.72-1.94-8.57-4.94-9.48-8.44-2.33-8.99-2.03-18.07,1.96-27.27,3.17-7.31,3.7-15.78,5.09-23.79.14-.78-2.04-2.87-2.95-2.76-2.39.28-5.21.85-6.93,2.36-10.48,9.22-21.56,17.97-30.78,28.35-10.52,11.84-21.68,19.76-38.35,17.5-5.38-.73-11-.1-16.46.38-8.66.77-11.53,3.77-10.48,12.24.71,5.69-1.58,7.14-6.36,7.04-3.82-.08-7.77.28-11.42-.58-2.53-.59-5.67-2.43-6.72-4.59-1.56-3.21-1.29-6.96,1.85-10.06,13.77-13.57,27.36-27.32,41.04-40.98,24.18-24.14,48.37-48.27,72.56-72.39,1.06-1.04,2.19-1.98,2.96-2.68Z"/>
  <path class="st0" d="M209.69,239.13c-9.77,16.58-18.95,31.6-27.5,46.96-3.28,5.9-5.02,12.65-7.72,18.9-.82,1.91-2.28,4.5-3.87,4.85-1.68.37-4.28-1.14-5.75-2.58-4.52-4.41-8.87-9.03-12.97-13.85-7.1-8.34-16.46-13.56-25.83-18.54-16.46-8.75-42.4-1.9-52.51,13.57-3.55,5.43-2.9,11.43-.57,17.25.89,2.23,1.9,4.41,2.86,6.61-.34.47-.68.94-1.02,1.41-2.73-1.02-6.18-1.3-8.09-3.17-16.57-16.18-32.86-32.63-49.23-49.02-.45-.45-.76-1.03-1.56-2.13,7.57-7.5,15.12-14.97,22.66-22.44,1.54-1.52,3.06-3.06,4.59-4.6,5.97-5.98,10.57-5.94,15.54.99,4.56,6.36,9.82,11.47,16.78,15.25,10.62,5.77,21.12,6,31.4.13,11.53-6.58,22.65-13.88,34-20.8,2.55-1.55,5.46-2.56,7.84-4.31,1.94-1.42,3.36-3.57,5.01-5.4-1.97-1.56-3.86-4.33-5.94-4.48-10.06-.75-20.18-1.11-30.27-1.01-9.76.09-19.54,1.5-29.27,1.14-4.13-.15-8.41-2.93-12.12-5.31-3.55-2.27-2.78-6.06-.31-8.67,7.34-7.73,14.87-15.29,22.59-22.64,3.92-3.74,8.77-3.31,12.29.88,2.23,2.65,4.04,5.71,5.73,8.75,3.29,5.91,7.98,9.31,14.94,8.92,8.29-.46,16.58-1.08,24.87-1.49,2.78-.14,5.59.13,8.39.24,3.3.14,6.65.05,9.9.55,5.21.79,10.59,1.35,15.47,3.17,5.21,1.95,5.35,13.34.35,16.2-6.2,3.55-12.75,6.47-19.04,9.86-6.7,3.61-13.47,7.15-19.83,11.29-3.95,2.57-2.95,6.86-1.14,10.38,3.63,7.06,12.07,10.82,19.88,9.22,7.89-1.61,15.38-3.7,21.2-10.1,2.66-2.93,6.63-4.93,10.36-6.53,1.88-.78,4.56.26,7.89.55Z"/>
  <path class="st0" d="M351.54,196.45c2.12-1.13,2.78-1.71,3.53-1.85,20.49-3.82,40.97-7.55,61.86-2.72,5.67,1.31,11.49,1.94,17.19,3.11,1.91.39,3.82,1.27,5.45,2.35,3.05,2.02,2.94,4.19.39,6.96-1.88,2.03-3.51,4.7-4.2,7.35-3.47,13.31-4.44,26.9-3.8,40.64.62,13.38,2.07,26.55,8.04,38.82.83,1.7,1.12,3.65,1.66,5.49-.46.31-.93.63-1.39.94-1.48-1.72-3.2-3.28-4.39-5.18-7.83-12.55-15.47-25.23-23.37-37.73-1.94-3.07-4.53-5.76-7.04-8.42-7.65-8.1-15.13-16.4-23.22-24.05-6.25-5.9-13.36-10.89-20.02-16.37-3.41-2.8-6.65-5.79-10.69-9.34Z"/>
  <path class="st0" d="M505.46,261.26c-13.78,13.81-27.23,27.4-40.84,40.82-3.24,3.2-9.16,2.23-10.48-1.51-4.16-11.87-10.95-22.94-11.57-35.89-.41-8.74-.46-17.51-.28-26.26.16-7.63.63-15.27,1.46-22.85.3-2.7,1.7-5.49,3.26-7.79,1.63-2.43,3.75-1.85,5.8.22,16.99,17.12,34.06,34.17,51.1,51.25.46.46.8,1.03,1.55,2.01Z"/>
  <path class="st0" d="M373.35,334.4c-1.96-8.89-4.28-17.73-5.8-26.69-2.5-14.73-3.81-29.69-6.86-44.3-2.81-13.47-7.33-26.57-10.88-39.89-1.11-4.17-1.52-8.53-2.25-12.8.67-.38,1.35-.77,2.02-1.15,4.92,4.26,9.9,8.44,14.73,12.8,4.54,4.1,9.17,8.16,13.31,12.65,5.6,6.09,10.84,12.51,16.08,18.91,5.34,6.53,10.49,13.23,15.71,19.86.82,1.04,1.76,2.03,2.37,3.18,2.62,4.91,1.56,7.39-3.97,7.58-11.55.4-20.05,5.47-25.48,15.54-1.54,2.85-2.73,6.04-3.34,9.22-1.6,8.3-2.8,16.67-4.15,25.01-.5.03-.99.05-1.49.08Z"/>
  <path class="st0" d="M384.99,342.57c.79-8.54,1.27-18.03,2.65-27.38,1.41-9.59,10.19-17.69,19.89-19.39.8-.14,1.78-.3,2.45.02,7.76,3.64,15.51,7.3,23.19,11.1,8.05,3.99,9.48,8.81,5.35,17.76-4.2,9.1-10.66,14.87-18.34,19.82-5.26,3.4-11.32,5.56-17.02,8.28-.45.21-.89.61-1.34.64-4.22.23-8.57,1.13-12.63.4-6.12-1.11-3.27-6.6-4.2-11.25Z"/>
  <path class="st0" d="M263.79,499.12c-5.3-1.45-9.74-1.67-11.63-7.51-2.04-6.29-1.8-11.77,2.96-16.59,10.95-11.11,21.98-22.15,32.94-33.27,7.9-8.01,16.13-8.95,25.6-2.78,3.47,2.26,4.2,5.97,1.78,11.07-.9,1.9-2.35,3.63-3.85,5.14-13,13.1-25.98,26.22-39.21,39.08-2.28,2.22-5.7,3.27-8.59,4.86Z"/>
  <path class="st0" d="M345.97,257.3c2.39,7.63,5.12,14.76,6.76,22.14,1.25,5.61.96,11.54,1.61,17.3.79,7.1,1.99,14.16,2.71,21.27.49,4.83-.81,5.82-5.72,5.44-4.96-.39-9.93-.92-14.9-.99-10.77-.16-19.46,4.6-27.27,11.67-1.71,1.54-4.76,2.64-6.97,2.34-3.26-.44-3.89-4.77-1.4-8.09,6.49-8.64,13.42-16.96,19.53-25.85,8.18-11.91,16.44-23.84,21.17-37.73.69-2.03,1.86-3.9,2.91-5.78.38-.69,1.06-1.19,1.57-1.72Z"/>
  <path class="st0" d="M239.68,478.83c-3.82-2.83-8-4.58-10-7.73-2.57-4.05-3-9.01.97-13.38,11.03-12.12,23.11-23.02,36.67-32.24,1.51-1.03,3.07-2.05,4.35-3.32,4.5-4.47,13.94-3.6,16.75,2.16.8,1.65-.42,5.31-1.93,6.89-10.58,11.05-21.54,21.73-32.21,32.69-2.17,2.23-3.36,5.42-5.53,7.66-2.43,2.51-5.47,4.44-9.07,7.27Z"/>
  <path class="st0" d="M270.23,409.47c-3.46,3.45-6.07,6.88-9.43,9.26-14.55,10.34-27.97,21.9-39.65,35.42-2.01,2.33-4.04,3.64-6.67,1.23-3.28-3.01-6.89-5.84-9.4-9.42-1.94-2.76-.52-5.91,2.86-7.27,9.38-3.77,14.31-11.39,18.11-20.18,2.42-5.59,6.63-9.39,12.65-11.02,12.08-3.28,22.2-2.91,31.53,1.98Z"/>
  <path class="st0" d="M224.41,296.07c-.01.5,0,1-.01,1.5-.21,12.32-3.14,14.68-15.17,12.63-6.06-1.03-12.23-1.43-18.25-2.6-6.97-1.35-8.25-4.31-5.18-10.66.5-1.04,1.19-2,1.71-3.04,4.55-9.05,10.81-14.49,21.7-10.54,1.05.38,2.31.23,3.47.3,10.94.59,11.77,1.47,11.73,12.41Z"/>
  <path class="st0" d="M128.63,219.26c.97,2.27.61,4.16-1.94,6.34-7.38,6.3-16.03,10.05-24.91,13.41-14.03,5.31-30.36-.26-36.32-12.42-.93-1.9-1.11-4.17-1.64-6.27.43-.32.87-.64,1.3-.95,3.15,1.7,6.47,3.14,9.41,5.14,6.66,4.54,13.7,5.56,21.42,3.43,10.65-2.94,21.37-5.69,32.68-8.68Z"/>
  <path class="st0" d="M356.95,354.56c-.5,0-1.02.09-1.5-.01-11.02-2.32-22.06-4.56-33.03-7.08-1.8-.41-3.46-1.93-4.91-3.23-2.46-2.22-2.58-4.78.29-6.66,5.48-3.59,11.18-6.68,18.18-5.06,8.42,1.95,17.16,3.1,23.5,9.93.79.85,1.93,1.63,2.24,2.64.78,2.6,1.85,5.43,1.41,7.91-.19,1.06-3.88,1.49-5.98,2.2-.06-.21-.13-.42-.2-.64Z"/>
  <path class="st0" d="M218.13,277.5c-3.14-.27-6.8-.37-10.39-.94-5.72-.91-8.11-7.65-4.63-12.26,4.07-5.39,9.28-7.76,16.02-6.91,6.4.81,11.07,5.41,10.89,10.92-.21,6.59-3.3,9.08-11.89,9.19Z"/>
  <path class="st0" d="M258.47,106.16c-1.37,6.15-2.7,12.3-4.11,18.43-.81,3.52-3.34,4.95-6.69,4.58-3.12-.34-6.26-.95-9.27-1.83-4.53-1.32-5.77-4.28-2.85-8.36,4.54-6.33,9.57-12.33,14.71-18.2,1.24-1.42,3.7-1.77,5.61-2.61.64,1.95,1.32,3.89,1.88,5.86.18.62.03,1.32.03,1.99.22.05.45.1.69.14Z"/>
  <path class="st0" d="M235.26,243.46c-1.22,2.24-2.13,6.12-3.71,6.41-4.22.78-8.74.1-13.11-.25-.39-.03-.91-1.96-.88-2.99.15-5.47,3.67-9.82,9.22-11.64,5.18-1.69,6.98-.48,7.37,4.97.07.99.01,1.98.01,2.97.36.17.73.35,1.1.53Z"/>
  <path class="st0" d="M151.21,396.11c-2.87-3.17-6.26-6.02-8.43-9.62-1.32-2.18-2-6.77-.74-8.02,2.03-2,5.87-2.34,9.03-2.88.6-.1,2.25,2.06,2.31,3.23.25,5.48.11,10.97.11,16.46-.76.27-1.52.55-2.28.83Z"/>
  <path class="st0" d="M187.84,320.79c-2.98,2.74-4.84,5.69-7.35,6.45-3.62,1.08-3.56-2.45-3.38-4.87.24-3.28.55-7.24,4.89-7.15,1.62.03,3.18,2.92,5.84,5.57Z"/>
  <path class="st0" d="M1958.52,265.78c-3.52-1.87-6.88-4.89-10.58-5.39-12.09-1.63-22.17-7.68-32.4-13.41-16.57-9.29-32.24-19.9-46.19-32.91-18.3-17.05-29.49-37.72-32.4-62.73-.67-5.76-1.47-11.55-2.86-17.16-.92-3.68-3.37-6.97-4.49-10.63-1.05-3.43-1.74-7.13-1.73-10.71.01-7.12.27-14.28,1.11-21.35.37-3.07,2.42-5.93,3.72-8.89.53-1.21,1.44-2.37,1.56-3.61,1-10.42,7.36-17.96,13.84-25.27,8.61-9.71,17.31-19.54,30.94-22.36,21.91-4.53,43.83-5.96,65.42,1.43,14.87,5.09,25.41,14.4,28.96,30.66,1.05,4.8,4.76,8.96,6.64,13.66,1.5,3.76,2.24,7.87,2.99,11.88.67,3.57.71,7.27,1.45,10.82.24,1.14,1.84,2.75,2.83,2.76.99,0,2.57-1.58,2.86-2.73.65-2.53.86-5.23.87-7.86.08-21.23,3.01-41.98,10.07-62.09,4.73-13.46,14.26-21.67,28.08-23.87,13.93-2.22,26.29,1.82,34.71,13.75,12.34,17.48,25.24,34.71,35.87,53.22,6.18,10.76,13.2,21.15,18.53,32.37,6.53,13.75,12.31,27.75,13.22,43.43.33,5.64,4.94,11.01,5.37,16.67,1.34,17.56,1.76,35.19,2.21,52.8.15,6.13-.32,12.33-1.18,18.4-.47,3.28-2.31,6.38-3.66,9.51-1.24,2.89-3.25,5.59-3.86,8.58-2.68,13.14-11.06,22.77-19.2,32.67-12.87,15.66-29.21,27.09-46.03,37.86-7.9,5.06-16.1,9.84-24.68,13.56-3.15,1.37-8.11.07-11.71-1.37-10.7-4.27-21.12-9.22-32.82-14.42-.31,15.41-.75,29.16-.83,42.9-.1,16.66.04,33.33.21,49.99.05,4.81.06,9.73,1.04,14.4.95,4.56,3.41,8.78,4.69,13.3,2.21,7.78,3.87,15.71,6.05,23.51,2.03,7.27,4.58,14.4,6.54,21.69.61,2.27.75,5.13-.08,7.26-2.25,5.79-5.13,11.33-7.77,16.98-.63.33-1.26.65-1.88.98-1.68-2.26-3.01-4.92-5.1-6.69-3.23-2.74-6.9-4.99-10.53-7.22-7.93-4.86-14.73-10.62-18.31-19.64-1.05-2.63-3.19-5.09-5.4-6.96-6.58-5.57-13.54-10.69-20.13-16.24-2.63-2.21-4.86-4.96-6.98-7.7-6.34-8.16-6.72-8.55-.3-16.59,6.55-8.21,8.18-17.92,10.66-27.53,1.51-5.88,4.01-11.5,5.59-17.36,1.2-4.45,2.21-9.08,2.37-13.67.63-18.46,1.04-36.93,1.22-55.4.07-7.24-2.12-9.78-8.82-12.11-7.31-2.55-14.51-6.58-21.99-7.2-15.5-1.28-31.16-1.08-46.73-.77-5.87.11-10.08,4.55-13.83,8.99-2.12,2.52-4.43,5.05-7.14,6.83-1.81,1.18-5.13,2.1-6.62,1.21-1.88-1.13-3.74-4.34-3.53-6.44.38-3.8,1.41-8.2,3.76-11.01,7.75-9.3,16.13-18.1,24.52-26.85,1.1-1.15,3.66-1.26,5.54-1.26,19.33-.04,38.66.09,57.99.05,4.15-.01,8.31-.36,12.44-.85,1.87-.22,3.65-1.16,5.47-1.78.12-.68.27-1.39.42-2.09ZM2071.82,233.59c-2.1.74-3.16,1.11-4.21,1.48-5.39,1.93-11.31,2.98-13.46,9.66-.34,1.04-2.83,1.28-4.18,2.12-2.97,1.85-6.69,3.25-8.59,5.91-3.22,4.51-7.11,6.38-12.38,7.16-3.4.5-6.55,2.59-9.84,3.92-3.3,1.35-6.56,2.84-9.96,3.89-2.18.67-4.77.18-6.83,1.03-2.25.92-5.53,2.58-5.79,4.3-.34,2.22,1.23,5.9,3.13,7.04,3.7,2.23,8.23,3.04,12.36,4.62,3.03,1.16,6.02,2.44,8.89,3.95,2.22,1.17,4.09,3.66,6.35,4.01,10.8,1.66,21.66,3.17,32.55,3.9,4.07.27,8.75-.87,12.37-2.82,15.44-8.33,25.35-21.76,27.49-38.78,2.24-17.89,1.77-36.15,1.86-54.26.03-5.85-.39-12.62-3.28-17.33-3.82-6.25-4.93-12.4-5.24-19.25-.34-7.23-2.27-13.73-7.09-19.69-3.03-3.74-3.91-9.2-5.85-13.85-.85-2.03-1.74-4.1-2.96-5.92-1.88-2.79-4.32-5.22-6.04-8.1-2.36-3.95-3.54-8.83-6.51-12.18-14.57-16.41-29.56-32.44-44.42-48.59-.12-.13-.58.05-1.03.11-.37,5.29-.27,10.67-1.22,15.87-1.15,6.26-3.09,12.38-4.9,18.49-.68,2.29-2.61,4.34-2.83,6.6-.86,9.26-1.24,18.56-1.88,27.84-.82,11.93-.47,24.12-2.86,35.74-4.69,22.85-7.3,45.88-9.05,69.05-.34,4.43.1,8.96.6,13.4.15,1.34,1.48,3.14,2.71,3.64,3.83,1.56,10.36-1.76,13.5-6.51,2.67-4.03,2.82-7.91-.44-11.86-6.61-8-4.95-13.13,4.67-17.46,5.67-2.56,11.31-5.63,16.16-9.48,8.11-6.44,15.31-6.46,21.1,2.32,6.18,9.4,11.2,19.55,17.1,30.03ZM1955.3,248.51c.69-8.65,1.47-15.52,1.75-22.41,1.19-28.72,1.05-57.41-1.82-86.07-1.47-14.67-4.52-28.74-11.59-41.75-6-11.03-12.89-21.55-23.23-28.92-7.66-5.46-17.7-6.02-25.77-11.58-3.34-2.29-10.11-.78-14.91.5-9.02,2.41-18.06,5.51-19.93,16.81-.16.96-1.3,2.16-2.26,2.52-4.72,1.81-5.63,5.97-6.08,10.08-2.28,20.41-2.09,40.82.97,61.14,3.39,22.52,16.01,39.95,32.58,54.26,12.52,10.81,26.4,20.15,40.25,29.28,8.99,5.92,19.01,10.29,30.04,16.14Z"/>
  <path class="st0" d="M757.37,330.6c-1.89,10.32.85,18.64,8.24,25.58,9,8.45,9.27,9.71,4.53,21.2-4.42,10.72-9.21,21.28-13.51,32.04-3.34,8.37-3.58,17.12-2.03,25.97.31,1.76.18,3.66-.13,5.44-.67,3.91-3.35,5.36-6.45,3.13-9.87-7.07-19.67-14.88-18.7-28.58,1.16-16.34,3.76-32.57,5.43-48.88,1.13-11.03,2.22-22.11,2.4-33.18.15-8.78-4.19-16.07-12.48-19.31-8.26-3.22-17.1-4.93-25.67-7.34-6.21-1.74-12.5-3.23-18.57-5.38-5.01-1.78-8.83.12-12.41,2.94-4.7,3.7-9.1,7.77-13.69,11.62-1.13.95-2.42,1.79-3.75,2.42-2.98,1.4-6.58,2.47-8.51-.76-1.12-1.87-.92-5.59.23-7.58,9.8-16.87,20.82-32.92,35.95-45.54,7.89-6.59,13.76-6.53,22.44-.94,6.53,4.2,15.16,5.22,22.94,7.34,3.8,1.03,7.79,1.33,12.18,2.03v-51c-1.35-.08-2.93-.21-4.51-.25-14.14-.34-28.29-.46-42.42-1.12-4.85-.23-10.51.32-13.29-5.6-.37-.8-1.93-1.33-3-1.47-7.47-.97-13.18-5.23-18.58-9.92-9.83-8.54-19.04-17.66-25.08-29.46-1.21-2.36-2.35-5.01-4.25-6.71-7.68-6.89-7.92-16.23-8.2-25.22-.51-16.28-.47-32.6-.05-48.89.26-10.24,2.58-20.29,9.49-28.27,8.78-10.14,18-19.91,27.36-29.53,1.9-1.95,5.27-2.47,7.94-3.69,5.25-2.41,10.85-4.27,15.65-7.37,16.75-10.81,35.15-16.09,54.82-17.41,51.87-3.49,97.8,12.35,138.82,43.43,9.93,7.52,19.06,16.09,28.6,24.12,1.26,1.06,2.66,2.16,4.18,2.65,4.05,1.28,5.68,3.77,5.93,8.05.11,1.91,1.98,4.82,3.65,5.33,3.73,1.13,4.04,3.9,4.97,6.71,1.03,3.1,1.65,6.72,3.68,9.03,9.18,10.45,12.37,23.34,15.29,36.26,5.3,23.46,7.14,47.3,5.96,71.29-.53,10.89-2,21.71-7.49,31.66-2.34,4.24-3.73,9.29-4.35,14.12-1.38,10.67-7.18,18.81-13.96,26.42-12.32,13.82-26.74,24.69-43.97,32-5.73,2.43-10.15,7.83-15.79,10.65-5.04,2.52-10.86,4.44-16.44,4.74-16.24.9-32.54,1.34-48.8,1.01-10.07-.2-20.12-2.12-30.17-3.27-1.44-.17-2.87-.34-4.43-.51ZM783.26,180.01c-7.19,5.87-13.73,11.82-20.9,16.88-7.09,5-11.3,10.69-9.63,19.82.59,3.22.09,6.65.1,9.98.06,16.16.01,32.33.34,48.49.05,2.22,1.54,5.84,3.17,6.37,21.37,7.03,42.72,14.18,64.41,20.08,10.71,2.91,22.04,6.24,33.31,3.22,26.47-7.08,47.03-21.18,55.22-49.05.93-3.17,2.59-6.12,3.47-9.3,1.67-6,4.29-12.1,4.25-18.15-.07-11.23-1.02-22.57-2.94-33.64-2.81-16.19-6.69-32.32-16.97-45.71-20.15-26.25-43.19-49.75-69.07-70.4-12.4-9.89-25.83-18.05-41.09-22.85-10.38-3.27-20.75-6.56-31.16-9.76-2.2-.68-4.51-1.3-6.79-1.37-14.42-.45-28.85-1.24-43.25-.94-14.91.32-29.27,4.02-42.34,11.38-15.14,8.52-26.68,20.45-30.93,37.84-3.49,14.28-4.26,28.92-3.37,43.58.34,5.59,1.25,11.09,5.75,15.43,2.2,2.12,3.59,5.17,5.01,7.97,13.58,26.88,37.15,38.62,65.43,42.83,7.18,1.07,14.41-.37,19.82-5.95,1.41-1.45,2.72-4.34,2.19-5.95-.49-1.51-3.4-2.84-5.39-3.11-4.34-.59-7.08-2.91-8.49-6.69-1.02-2.73-1.36-5.35,2.95-6.35,2.57-.6,4.84-2.77,7.09-4.45,12.42-9.29,15.85-22.59,16.88-37.18,1.06-15.07,2.62-30.1,4.1-45.13.43-4.35,1.32-8.66,1.98-12.86,9.42.09,12.65,2.79,13.57,11.05.48,4.28.93,8.62.82,12.91-.49,18.63-1.29,37.26-1.7,55.89-.05,2.09,1.14,4.79,2.68,6.22,6.81,6.34,13.94,12.33,21.48,18.9Z"/>
  <path class="st0" d="M1441.3,161.18c-2.83,6.56-6.95,12.82-8.15,19.61-2.26,12.7-3.54,25.67-3.93,38.57-.63,20.98-.27,41.98-.19,62.98.01,2.22.61,4.61,1.55,6.63,7.8,16.85,15.71,33.65,23.66,50.44,8.97,18.95,5.25,36.58-7.11,52.17-18.78,23.69-43.04,40.33-71.36,50.82-8.89,3.29-18.24,3.29-27.44.82-24.28-6.54-47.06-16.94-69.69-27.61-8.22-3.88-8.72-5.81-5.37-14.06,4.34-10.69,10.32-20.43,18.43-28.72,3.83-3.91,7.94-3.78,11.65.09,3.45,3.6,3.2,6.01-1.15,8.61-3.69,2.21-4.64,5.4-3.87,9.36,2.22,11.36,16.76,26.71,31.42,26.2,13.95-.49,27.93-.17,41.89-.34,1.74-.02,3.89-.35,5.14-1.39,12.72-10.65,26.49-20.25,35.87-34.39,5.44-8.2,10.58-16.6,11.81-26.56.49-3.97.76-8.63-.81-12.09-7.38-16.28-15.2-32.37-23.35-48.28-3.04-5.94-4.33-6.05-9.28-1.36-11.73,11.11-22.87,22.84-34.65,33.88-12.81,12-9.39,10.44-20.08-.23-14.39-14.36-27.58-29.72-36.42-48.35-7.12-15-10.52-30.82-6.27-46.88,2.58-9.73,7.63-19.1,13.01-27.74,15.3-24.55,33.43-46.82,56.38-64.78,12.19-9.54,15.37-9.5,28.37-1.35,5.61,3.52,11.34,6.92,17.31,9.75,3.5,1.66,7.54,2.27,11.4,3.03,8.25,1.6,15.16,5.58,21.23,11.17ZM1320.73,223.76c.11.01.23.03.34.04,0,.33-.04.67.01,1,1.28,8.4-.78,17.9,8.41,23.67,1.44.91,1.7,3.79,2.37,5.8.46,1.39.41,2.99,1.03,4.27,5.97,12.28,15.11,21.83,26.61,28.86,2.51,1.53,7.43,1.41,10.1-.04,9.12-4.97,16.37-12.22,18.73-22.75,1.87-8.35,3.05-16.91,3.89-25.43,1.35-13.7,1.15-27.62,3.53-41.11,1.84-10.42-1.68-17.09-9.46-22.51-3.63-2.53-7.75-4.42-11.77-6.33-7.87-3.73-15.42-3.2-22.33,2.36-8.58,6.9-18.44,12.7-20.76,24.91-.27,1.43-1.66,3.07-2.99,3.79-3.57,1.94-5.25,4.83-5.72,8.72-.61,4.93-1.32,9.83-1.99,14.75Z"/>
  <path class="st0" d="M1699.43,205.1c4.51-4.94,9.57-9.48,13.4-14.9,5.31-7.5,9.14-16.07,14.61-23.44,7.11-9.58,15.22-18.42,22.89-27.58,4.19-5,9.49-5.76,14.7-2.5,8.56,5.36,16.78,11.26,25.03,17.11,3.93,2.79,7.36,6.3,11.41,8.87,4.21,2.67,3.8,5.19.88,8.28-5.35,5.63-7.95,12.59-9.18,20.04-.81,4.89-.65,9.94-1.34,14.87-.38,2.73-1.52,5.36-2.47,7.99-1.38,3.82-3.94,7.53-4.16,11.39-.98,17.8-.47,35.58,4.83,52.81,1.15,3.73,3.23,7.3,5.45,10.54,3.65,5.32,9.04,6,14.29,2.23,1.89-1.36,3.45-3.33,5.51-4.24,2.77-1.23,5.94-2.53,8.82-2.3,4.6.37,6.04,4.23,3.03,7.8-5.35,6.35-11.28,12.21-16.65,18.55-4.18,4.93-7.76,10.37-11.81,15.42-4.53,5.65-7.66,6.36-13.72,2.47-7.54-4.84-15.16-9.8-17.81-19.26-.17-.61-.54-1.41-1.05-1.66-8.26-4.07-7.51-12.19-7.6-19.08-.29-24.14.4-48.3.32-72.45-.04-10.94-.59-21.93-1.7-32.82-.74-7.26-7.08-9.72-13.28-5.84-1.67,1.05-3.3,2.3-4.62,3.76-17.28,19.25-28.95,41.43-35.45,66.51-4.56,17.59-7.07,35.4-7.95,53.49-.04.83-.24,1.67-.17,2.49.95,10.5-2.78,16.89-14.19,18.15-2.71.3-4.88,4.35-7.58,6.28-2.01,1.44-4.48,3.09-6.73,3.06-1.5-.02-3.98-2.66-4.25-4.4-.71-4.55-.85-9.29-.5-13.89,1.77-23,4.17-45.96,5.57-68.98,1.05-17.25.98-34.56,1.21-51.85.04-2.75-.71-5.61-1.59-8.25-2.15-6.44-5.76-8.46-12.58-7.42-4.25.65-8.49,1.46-12.76,1.92-1.51.16-3.11-.51-4.66-.8.36-1.52.28-3.39,1.15-4.51,9.43-12,18.88-23.98,28.71-35.65,1.25-1.49,4.97-2.11,7.02-1.47,4.03,1.26,7.7,3.69,11.51,5.64,5.55,2.84,11.13,5.64,16.64,8.57,1.25.66,2.58,1.55,3.33,2.7,3.34,5.08,2.34,14.66-1.18,19.75-1.91,2.77-3.03,6.21-3.93,9.5-1.26,4.61-2.16,9.35-2.87,14.08-.39,2.59-.07,5.28-.07,7.93.52.36,1.03.72,1.54,1.09Z"/>
  <path class="st0" d="M2177.38,308.06c5.08-45.8,6.32-91.43,4.31-137.97-3.09,2.64-5.66,5.12-8.53,7.2-3.06,2.21-6.22,4.47-9.66,5.92-3.99,1.68-6.35-.2-6.61-4.58-.4-6.69,2.54-12.37,6.28-17.46,4.31-5.87,9.19-11.35,14-16.84,5.14-5.86,7.08-12.47,6.13-20.23-.58-4.77-.74-9.7-.15-14.45.4-3.21,2.35-6.25,3.74-9.3.82-1.79,2.57-3.4,2.75-5.2,1.04-10.63,8.49-17.07,15.44-23.59,9.22-8.63,18.84-16.86,28.63-24.84,3.62-2.95,8.22-4.69,12.37-7.01.98-.55,2.24-.95,2.8-1.8,7.27-11.04,19.08-14.85,30.58-18.93,3.14-1.11,6.28-.08,8.39,3.55,1.27,2.19,4.02,3.74,6.4,5.02,2.14,1.15,4.73,1.45,7.06,2.3,7.43,2.72,10.45,7.99,7.45,15.26-4.87,11.8-12.05,22.2-22.45,29.89-1.99,1.47-5.86,2.73-7.48,1.76-2.01-1.2-2.71-4.76-3.69-7.41-.44-1.19-.12-2.64-.25-3.97-.7-7.12-4.08-9.5-11.17-7.87-21.7,4.98-32.58,16.72-35.46,40.43-2.68,22.07-4.53,44.27-6.11,66.45-1.56,21.89-2.54,43.83-3.4,65.76-.75,19.1,2.19,37.74,8.66,55.74.88,2.45,3.1,4.43,4.7,6.63,1.97-1.65,4.22-3.06,5.84-5,5.02-5.99,9.7-7.27,15.62-4.22,4.04,2.09,4.75,5.1,2.48,8.59-2.33,3.61-5.21,6.86-7.89,10.24-8.66,10.9-17.5,21.67-25.95,32.74-4.2,5.5-7.62,6.18-10.23.46-5.34-11.71-14.64-18.51-26.09-23.16-2.88-1.16-5.62-2.7-8.51-4.11Z"/>
  <path class="st0" d="M2692.93,198.72c8.87,9.28,16.98,17.2,24.41,25.71,7.31,8.37,7.58,14.64.8,23.7-5.86,7.83-12.57,15.03-19.13,22.31-10.47,11.62-21.35,22.88-31.59,34.69-4.82,5.56-8.23,12.35-12.93,18.04-3.24,3.92-7.59,6.91-11.45,10.31-2.92,2.57-5.84,2.69-8.92.15-2.04-1.69-4.19-3.26-6.41-4.7-5.52-3.59-11.13-7.03-16.64-10.62-2.36-1.54-4.82-3.06-6.79-5.03-7.29-7.3-16.04-13.81-21.15-22.44-6.24-10.54-16.82-18.4-19.13-31.44-4.79-27-1.39-52.22,15.34-74.67,14.73-19.77,30.75-38.43,49.08-55.01,7-6.33,8.91-6.55,17.04-1.75,3.43,2.02,6.77,4.2,10.05,6.45,4.11,2.81,7.31,6.14,9.68,10.87,4.07,8.11,10.23,14.53,19.4,17.56,1.9.63,4.03,3.64,4.17,5.68.14,2.03-1.62,4.79-3.37,6.23-3.66,3.01-8.25,4.91-11.75,8.07-6.51,5.88-12.47,12.01-21.15,15.26-5.54,2.07-10.02,6.94-14.99,10.54-9.67,7.02-19.4,13.95-28.99,21.08-6.25,4.64-7.26,8.57-3.5,15.45,9.48,17.35,22.3,31.37,41.24,38.54,2.79,1.06,6.89,1.05,9.51-.24,15.9-7.85,21.81-14.42,21.44-30.61-.24-10.26.03-20.59,1.12-30.78.47-4.41,3.17-8.8,5.63-12.71,2.39-3.74,5.75-6.86,8.98-10.64ZM2622.86,162.62c-10.91,5.54-31.53,39.97-30.06,51.25,17.22-6.94,30.4-19.25,45.36-29-5.42-7.89-10.38-15.1-15.3-22.25Z"/>
  <path class="st0" d="M2503.89,144.5c12.57,1.38,24.26,2.86,35.98,3.89,6.75.59,13.11-.15,18.01-6.14,4.22-5.16,10.41-5.64,16.52-4.28,5.46,1.21,7.99,6.04,5.64,10.99-7.35,15.53-18.26,26.16-36.71,26.94-10.6.45-21.15,2.16-31.75,2.69-5.1.26-7.04,2.38-7.32,7.09-.67,11.28-1.34,22.56-2.23,33.83-1.17,14.89-1.96,29.85-4.1,44.61-.84,5.79.15,9.4,4.87,11.87,5.24,2.75,10.57,5.7,16.22,7.19,7.31,1.94,14.51.89,20.23-5.09,1.58-1.65,3.48-3.33,5.56-4.1,2.16-.8,5.96-1.54,6.83-.49,1.48,1.8,2.45,5.68,1.47,7.53-3.42,6.39-7.21,12.75-11.89,18.24-8.39,9.85-17.29,19.28-26.43,28.45-5.05,5.07-6.88,4.79-12.2.18-6.4-5.56-12.53-11.43-18.96-16.95-2.1-1.8-4.65-3.33-7.26-4.22-3.52-1.2-6.73-1.9-7.91-6.38-.35-1.32-4.15-2.2-6.45-2.41-3.94-.36-7.97.28-11.91-.07-5.5-.49-7.61-4.57-5.24-9.61.62-1.32,1.4-2.88,2.55-3.6,9.1-5.64,10.56-15.13,11.34-24.25,2.18-25.29,3.67-50.64,5.22-75.99.19-3.15-.88-6.37-1.61-11.1-2.39,2.31-3.91,3.3-4.77,4.69-2.01,3.23-5.08,5.47-8.21,3.47-2.5-1.6-4.8-5.29-5-8.2-.23-3.31,1.46-7.1,3.23-10.14,3.75-6.44,8.61-12.26,12.03-18.85,2.51-4.84,3.93-10.4,4.99-15.8,1.52-7.72,3.26-14.31,11.98-17.68,4.34-1.68,7.44-6.84,10.82-10.67,3.4-3.85,6.16-8.3,9.75-11.94,4.07-4.14,7.99-2.92,8.69,2.74.73,5.89.9,11.92.6,17.85-.56,11.75-1.65,23.47-2.58,35.71Z"/>
  <path class="st0" d="M1015.45,127.55c6.1,9.13,11.71,17.54,17.34,25.95.65.96,1.34,1.9,2.05,2.81,6.04,7.71,6.54,7.72,13.09.14,5.32-6.16,10.33-12.64,16.02-18.44,5.9-6.02,8.02-6.35,15.16-1.93,11.12,6.88,21.85,14.38,33.11,21.86-12.62,13.89-22.72,29.03-37.23,41.96-1.59-3.41-2.83-5.64-3.68-8-1.33-3.73-2.18-7.65-3.63-11.33-2.45-6.23-7.06-7.22-11.99-2.65-6.09,5.65-9.23,13.21-10.55,20.96-2.97,17.47-5.36,35.06-7.09,52.69-.83,8.46.06,17.14.74,25.68.5,6.32,5.18,10.29,10.15,13.34,1.37.84,4.56-.24,6.36-1.35,3.06-1.89,5.48-4.83,8.54-6.72,2.7-1.67,5.95-2.54,8.7.31,2.77,2.87.95,5.71-.57,8.15-2.82,4.49-5.89,8.84-9.11,13.06-6.45,8.46-13.12,16.74-19.59,25.18-5.29,6.92-7.09,7.34-13.5,1.74-5.63-4.91-10.59-10.66-16.54-15.11-7.27-5.44-15.26-9.91-23.2-14.96,0,.19-.13-.2.02-.39,10.49-13.67,11.46-30.2,12.92-46.22,1.66-18.18,1.86-36.5,2.17-54.77.09-5.36-1.48-10.77-2.54-16.11-1.02-5.13-4.23-8.44-9.57-8.52-5.35-.08-10.68.6-13.7,6.11-.38.7-.86,1.35-1.25,1.97-8.02-2.21-9.94-6.36-5.05-12.41,5.1-6.31,10.93-12.06,16.67-17.83,8.35-8.37,16.89-16.53,25.75-25.17Z"/>
  <path class="st0" d="M2386.8,337.35c-16.67-15.36-25.5-33.07-29.71-53.71-4.89,7.43-8.98,14.63-14.03,21.08-7.64,9.76-16.86,17.93-27.97,23.67-2.48,1.28-5.24,2.08-7.95,2.81-3.8,1.03-5.69-.94-7.04-4.4-1.59-4.07-2.94-8.75-5.87-11.68-16.19-16.22-24.21-36.47-29.47-58.06-4.55-18.69-4.12-37.34,4.48-54.89,3.54-7.22,7.94-14.48,13.56-20.12,16.19-16.24,33.18-31.7,49.94-47.37,1.91-1.79,4.26-3.19,6.6-4.43,3.09-1.63,5.95-2.8,7.92,2.06.69,1.7,3.93,2.93,6.18,3.32,11.1,1.91,22.3,3.28,33.4,5.22,5.49.96,11.01,2.31,16.21,4.28,4.17,1.57,5.96,5.28,4.25,9.77-2.81,7.41-6.58,14.56-8.56,22.17-2.57,9.88-5.02,20.08-5.3,30.2-.56,20.93.17,41.9.82,62.84.12,3.74,1.69,7.93,3.88,10.99,4.08,5.71,9.55,4.88,12.95-1.31,3.22-5.86,7.88-8.12,14.42-7.02,4.92.83,6.65,3.85,4.91,8.65-.39,1.08-.81,2.22-1.51,3.09-13.98,17.6-28.01,35.16-42.11,52.84ZM2298.47,225.28c-1.19,20.12,6.64,36.78,18.82,51.88,7.85,9.73,14.31,9.55,21.32-.72,6.72-9.86,9.08-21.29,10.35-32.8,1.54-13.86,1.97-27.84,3.23-41.74.48-5.23.81-11.01,3.25-15.39,3.04-5.46,3.71-10.8,3.73-16.66.02-4.11-2.05-6.54-5.77-6.83-12.73-1-25.47-1.45-35.42,8.81-6.77,6.98-14.89,13.08-16.16,23.79-1.14,9.88-2.23,19.77-3.35,29.66Z"/>
  <path class="st0" d="M1259.97,161.44c-1.05,2.34-1.72,4.6-2.96,6.48-8.08,12.27-11.45,26.2-12.84,40.39-1.37,13.98-1.54,28.15-1.08,42.19.32,9.87,2.38,19.72,4.06,29.51,1.02,5.93,8.74,9.03,16.61,6.4,4.49-1.5,8.47-4.44,12.82-6.41,2.36-1.07,5.04-1.44,7.57-2.13-.25,3.29.76,7.71-.98,9.68-6.91,7.81-14.39,15.2-22.24,22.08-6.69,5.86-13.72,11.55-22.86,13.61-1.26.28-2.56,2-3.15,3.36-2.46,5.6-6.52,6.38-10.47,1.42-5.91-7.43-9.21-16.03-10.21-25.5-.3-2.8-.35-5.67-1.02-8.38-.4-1.6-1.59-3.95-2.78-4.18-1.56-.31-4.08.63-5.11,1.91-4.24,5.3-7.56,11.41-12.17,16.32-7.14,7.61-14.99,14.57-22.69,21.65-3.79,3.48-7.73,2.53-11.63-.26-9.17-6.56-15.11-15.76-20.72-25.21-10.24-17.27-17.83-35.63-21.39-55.44-2.23-12.39-.2-24.46,4.44-36.11,9.26-23.24,22.3-43.77,42.69-58.9,3.02-2.24,6.84-3.36,9.98-5.46,6.29-4.21,12.82-8.23,18.43-13.25,8.01-7.15,12.33-8.23,20.28-1.38,11.88,10.24,25.72,16.93,39.65,23.61,2.53,1.19,4.99,2.55,7.77,4ZM1209.46,198.09c0-2-.01-4,0-6q.05-15.52-14.32-21.45c-13.12-5.41-25.88-1.87-33.64,10-3.13,4.79-5.74,10.16-7.38,15.63-4.65,15.47-5.14,31.36-3.1,47.33,2.41,18.83,11.92,33.15,27.94,43.19,5.8,3.63,11.32,2.27,14.62-3.83,1.88-3.47,3.53-7.16,4.67-10.94,7.23-24.1,11.71-48.64,11.21-73.93Z"/>
  <path class="st0" d="M1623.89,218.39c2.27,21.18-6.72,38.44-20.08,53.47-17.09,19.23-35.13,37.62-52.77,56.36-.68.73-1.46,1.36-2.22,2.01-7.9,6.82-10.19,6.59-16.27-2.16-3.38-4.86-7.33-8.01-13.18-10.37-6.84-2.77-12.73-8.26-18.51-13.18-10.26-8.73-20.21-17.83-30.07-27.01-1.89-1.76-3.67-4.52-3.93-6.98-1.83-17.26-5-34.54.37-51.81,4.48-14.39,12-27.2,22.1-38,14.52-15.52,30.16-30,45.37-44.88,1.29-1.26,2.9-2.23,4.43-3.22,7.73-5,8.19-4.43,15.12,1.17,9.28,7.5,19.32,14.06,28.9,21.2,8.25,6.14,16.54,12.26,24.4,18.87,11.72,9.85,16.32,23.01,16.34,38.02,0,2.18,0,4.34,0,6.51ZM1590.38,241.04c-.03-12.04-2.67-23.33-7.51-31.53-11.11-18.8-27.68-31.01-47.66-38.86-2.91-1.14-7.2-1.94-9.61-.62-11.59,6.33-22.55,13.57-24.84,28.29-.37,2.4-1.17,4.98-2.56,6.91-3.39,4.71-2.51,9.82-2.02,14.89.27,2.76,1.09,5.47,1.74,8.19,6.54,27.3,20.47,48.5,48.48,57.63,4.86,1.58,10.58,3.23,15.24,2.11,7.58-1.83,13.89-6.91,18.71-13.36,7.47-9.99,10.1-21.42,10.03-33.65Z"/>
  <path class="st0" d="M2622.86,162.62c4.92,7.15,9.88,14.37,15.3,22.25-14.96,9.75-28.14,22.05-45.36,29-1.47-11.28,19.16-45.72,30.06-51.25ZM2630.81,183.74c-3.3-4.91-6.28-9.34-10.11-15.04-7.64,12.23-14.72,23.57-21.8,34.9.51.41,1.02.82,1.53,1.23,9.93-6.9,19.87-13.8,30.38-21.09Z"/>
  <path class="st0" d="M2001.97,274.05c3.95-.63,7.97-1,11.83-1.99,2.63-.67,5.02-2.24,7.54-3.35,3.53-1.55,7-4.03,10.65-4.33,5.97-.49,10.02-3.46,13.1-7.86,1.74-2.48,3.29-3.92,6.36-4.67,2.66-.65,5.91-2.49,7.11-4.76,2.34-4.41,6.17-5.6,10.22-6.93,7.36-2.42,8.7-5.56,5.26-12.59-3.26-6.66-6.25-13.49-10.02-19.86-4.02-6.78-8.51-13.23-16.95-15.64-6.02-1.71-10.5.79-15.2,3.68-5.96,3.67-11.94,7.31-18.09,10.65-9.56,5.2-13.89,12.95-6.56,23.5,4.01,5.77,2.15,10.01-6.08,11.44.5-10.22.59-20.29,1.6-30.26,1.15-11.27,3.06-22.47,4.76-33.68,1.23-8.12,3.2-16.16,3.89-24.31,1.11-13.19,1.33-26.44,2.15-39.66.34-5.4,1.27-10.77,1.93-16.16.02-.17-.05-.39.04-.49,7.05-8.6,6.42-19.33,8.05-30.34,6.84,6.83,13.49,12.81,19.35,19.48,6.63,7.54,12.71,15.58,18.7,23.65,2.1,2.83,2.87,6.61,4.8,9.6,4.98,7.71,10.07,15.25,12.35,24.4.66,2.63,3.52,4.67,5.18,7.11,3.89,5.71,4.37,12.39,4.68,18.95.28,5.93,1.81,11.02,4.92,16.23,2.29,3.84,2.63,9.06,3.07,13.73.69,7.24,1.49,14.61.88,21.81-1.37,16.27.99,33.29-8.38,48.19-6.54,10.4-13.79,20.17-27.07,21.99-5.11.7-10.45.01-15.66-.41-3.92-.31-7.92-.77-11.64-1.92-3.8-1.17-7.27-3.37-10.97-4.93-4.13-1.75-8.32-3.37-12.52-4.92-3.12-1.15-6.31-2.1-9.46-3.14.05-.73.12-1.47.18-2.21ZM2003.81,274.46c-.11.55-.22,1.1-.33,1.65,2.8.9,5.63,1.73,8.4,2.71,3.99,1.41,8,2.8,11.9,4.44,4.02,1.69,7.78,4.05,11.89,5.41,3.42,1.13,7.16,1.36,10.78,1.78,10.33,1.2,20.63,1.94,29.25-5.66,12.77-11.25,19.67-25.52,20.3-42.42.53-14.08.39-28.21-.05-42.29-.15-4.82-1.94-9.62-3.26-14.35-1.35-4.86-3.24-9.57-4.53-14.45-1.77-6.66-2.9-13.51-4.94-20.08-.78-2.51-4.27-4.23-4.9-6.72-2.38-9.4-7.72-17.14-12.71-25.16-3.22-5.18-5.7-10.87-9.22-15.82-4.22-5.94-8.97-11.54-13.9-16.91-5.57-6.06-11.59-11.7-18.54-18.65-.44,3.77-.5,5.87-.94,7.88-1.19,5.47-1.39,11.58-4.1,16.18-3.61,6.12-4.9,12.56-4.68,19,.96,28.13-3.91,55.56-8.77,83.04-1.12,6.35-1.47,12.85-2.17,19.17,3.81-2.64,7.21-5.2,10.81-7.45,5.57-3.5,11.69-6.26,16.82-10.3,7.74-6.1,17.63-5.98,24.88.66,9.98,9.14,13.95,21.75,19.65,33.3,2.8,5.66.45,9.22-5.85,11.21-4.36,1.37-8.18,2.99-10.79,7.29-1.29,2.13-4.51,3.06-6.81,4.6-2.08,1.4-4.49,2.56-6.08,4.4-3.71,4.3-7.59,7.5-13.71,8.07-3.54.33-6.91,2.7-10.33,4.21-2.55,1.13-4.95,2.71-7.6,3.45-3.38.95-6.97,1.24-10.47,1.81ZM2002.64,223.22v17.26c7.14-3.29,7.57-4.82,3.78-10.49-1.36-2.03-2.4-4.27-3.78-6.77Z"/>
  <path class="st0" d="M1951.33,240.41c-5.95-2.99-11.53-5.26-16.54-8.42-12.64-7.99-25.54-15.7-37.38-24.78-19.06-14.62-34.18-32.5-39.37-56.87-1.4-6.57-1.82-13.35-2.54-20.04-.48-4.43-1.12-8.9-.94-13.32.39-9.73,1.06-19.45,2.1-29.13.22-2.02,2.47-3.84,3.8-5.74,1.66-2.36,3.37-4.67,4.98-7.06,1.57-2.3,2.51-5.62,4.67-6.81,4.68-2.59,9.81-4.73,15.01-5.87,4.53-.99,9.35-1.1,13.17,3.42,1.83,2.16,5.37,3.82,8.24,3.99,10.31.62,16.13,7.52,21.78,14.62,11.16,14.03,18.33,29.97,21.18,47.67,1.23,7.63,1.93,15.4,2.14,23.13.57,20.42.9,40.85,1,61.28.04,7.57-.8,15.13-1.3,23.93ZM1950.6,239.63c.59-8.27,1.56-14.87,1.44-21.46-.44-24.41-1.03-48.82-1.96-73.22-.87-22.79-8.76-43.1-23.04-60.9-5.6-6.98-11.69-13-21.42-13.9-2.78-.26-6.05-1.8-7.91-3.83-3.62-3.95-7.94-4.4-12.3-3.3-5.09,1.29-10.12,3.26-14.73,5.75-2.1,1.14-3.14,4.24-4.64,6.47-1.63,2.42-3.27,4.83-4.83,7.29-1.43,2.24-3.83,4.47-3.96,6.81-.71,12.53-.99,25.09-1.16,37.65-.37,26.5,9.46,48.82,28,67.52,13.82,13.94,30.23,24.33,46.92,34.32,6.05,3.62,12.36,6.83,19.59,10.8Z"/>
  <path class="st0" d="M720.79,193.5c-5.76,4.81-12.88,4.83-19.53,3.58-17.36-3.25-32.95-10.99-45.49-23.3-5.81-5.7-9.19-13.91-13.59-21.03-2.38-3.84-5.44-7.52-6.71-11.73-3.01-9.95-1.19-20.26-.64-30.4.24-4.41,1.04-8.82,2.03-13.14,4.65-20.35,17.88-33.24,36.5-41.22,20.34-8.72,41.87-8.6,63.41-8.05,10.36.26,19.7,4.39,29.27,7.85,10.15,3.66,21.06,5.47,30.78,9.97,10.19,4.71,20.14,10.7,28.78,17.83,14.16,11.7,27.68,24.29,40.54,37.42,11.74,11.99,23.79,24.03,31.61,39.19,7.39,14.31,10.7,29.93,12.95,45.77.81,5.7,1.97,11.46,1.78,17.15-.19,5.83-1.4,11.73-2.96,17.39-1.56,5.66-4.47,10.93-6.17,16.56-4.99,16.57-17.15,26.71-31.26,34.87-8.88,5.13-18.52,9.45-29.08,8.02-11.03-1.5-22.1-3.56-32.78-6.65-16.07-4.64-31.82-10.42-47.73-15.62-2.64-.86-4.07-1.88-4.09-5.12-.15-19.94-.47-39.88-1-59.81-.1-3.84,1.47-6.24,4.18-8.42,8.34-6.72,16.71-13.42,24.95-20.26,2.97-2.47,2.93-5.47.08-8.09-6.33-5.82-12.66-11.65-19.19-17.24-2.25-1.92-3.04-3.87-2.98-6.79.45-21.77.88-43.54,1-65.32.06-11.96-6.59-16.64-17.62-17.53-4.45-.36-6.41,2.19-7.01,6.01-.85,5.36-1.54,10.75-2.02,16.16-1.11,12.32-1.6,24.72-3.19,36.98-1.44,11.08-.79,23.07-9.85,31.79-3.4,3.27-6.9,6.73-10.99,8.95-8.19,4.45-9.73,13.74-2.47,19.69,2.24,1.85,5.24,2.84,8.49,4.54ZM718.84,193.67c-2.45-1.38-4.91-2.37-6.88-3.97-7.44-6-6.21-16.83,2.15-20.84,8.89-4.26,15.63-11.34,17.6-20.59,2.91-13.73,3.8-27.9,5.38-41.91,1.19-10.55,1.98-21.14,3.22-31.68.43-3.65,2.59-5.84,6.75-5.92,11.8-.25,19.05,6.35,18.95,18.11-.17,21.47-.72,42.93-.81,64.4-.01,2.43,1.32,5.48,3.06,7.19,5.91,5.82,12.4,11.05,18.44,16.74,3.45,3.25,3.3,7.25.03,9.94-8.21,6.74-16.64,13.23-24.6,20.26-2.07,1.83-3.89,5.23-3.89,7.92-.01,19.47.54,38.93.76,58.4.04,3.17,1.16,4.77,4.18,5.77,13.26,4.37,26.3,9.52,39.73,13.29,13.08,3.67,26.44,6.56,39.85,8.75,10.28,1.68,19.66-2.81,28.4-7.74,14.52-8.19,26.77-18.58,31.74-35.48,1.49-5.08,4.03-9.86,5.41-14.96,1.58-5.86,3.49-11.97,3.29-17.91-.32-9.56-1.77-19.16-3.61-28.58-3.15-16.04-7.43-31.74-17.9-44.94-18.04-22.74-37.8-43.9-60.51-61.96-10.83-8.61-22.86-16.04-35.22-22.3-8.73-4.42-18.96-5.84-28.43-8.86-5.52-1.76-10.71-4.82-16.32-5.92-16.6-3.26-33.44-3.06-50.14-.9-13.62,1.77-26.68,5.83-38.21,13.64-13.12,8.88-21.78,20.9-24.14,36.81-1.29,8.68-2.94,17.48-2.69,26.18.24,8.14.09,16.49,6.76,23.71,6.19,6.71,8.95,16.69,15.37,23.06,12.22,12.13,27.54,19.7,44.63,22.94,6.01,1.14,12.2,1.36,17.65-2.65Z"/>
  <path class="st0" d="M1326.47,222.07c-.69-7.23.65-15.26,8.35-21,.81-.61,1.32-1.86,1.61-2.91,3.64-13.49,14.7-19.59,25.63-25.82,5.89,1.78,11.78,3.53,17.65,5.37.75.23,1.33.95,2.02,1.41,9.06,5.93,10.64,9.81,8.9,20.24-.92,5.5-1.37,11.09-1.91,16.65-1.38,14.09-2.29,28.24-4.16,42.26-1.4,10.54-7.49,18.56-16.64,23.93-1.61.94-4.78,1.09-6.23.12-11.93-8.03-22.33-17.39-25.33-32.48-.27-1.37-1.14-2.74-2.04-3.86q-7.83-9.77-7.85-23.91ZM1326.05,223.91c1.29,5.42,1.13,11.96,4.23,15.99,3.98,5.16,6.29,10.56,8.67,16.38,3.57,8.72,10.03,15.48,17.32,21.48,7.71,6.35,9.8,6.18,17.28-.62,9.91-9,11.25-21.08,12.52-33.18,1.17-11.21,2.01-22.46,2.92-33.7.47-5.79.97-11.59,1.1-17.39.2-9.57-20.08-23.64-28.53-19.11-7.03,3.78-13.49,9.09-19.16,14.76-3.42,3.42-3.88,9.87-7.38,13.13-6.73,6.26-8.57,13.51-8.97,22.26Z"/>
  <path class="st0" d="M2630.81,183.74c-10.51,7.29-20.45,14.19-30.39,21.09-.51-.41-1.02-.82-1.53-1.23,7.08-11.33,14.16-22.67,21.8-34.9,3.84,5.69,6.82,10.13,10.12,15.04ZM2621.83,171.74c-.65-.07-1.31-.14-1.96-.2-6.09,9.59-12.19,19.19-18.28,28.78.6.54,1.21,1.08,1.81,1.62,8.14-5.77,16.32-11.51,24.37-17.4.61-.45.92-2.29.51-2.98-1.98-3.37-4.27-6.56-6.45-9.82Z"/>
  <path class="st0" d="M2344.55,166.18c3.19,1.28,8.3,1.83,9.12,4,1.17,3.09-.54,7.45-1.52,11.13-1.21,4.54-3.67,8.84-4.26,13.42-.96,7.53-.58,15.21-1.24,22.79-1.39,15.87-1.85,31.94-7.95,46.99-1.65,4.07-3.87,7.98-6.33,11.64-2.21,3.29-5.23,3.86-8.18.53-11.4-12.86-20.32-26.88-19.67-44.95.38-10.56,1.28-21.09,1.84-31.64.62-11.86,9.02-18.68,16.77-25.81,5.88-5.4,13.28-6.93,21.42-8.1ZM2304.41,224.21c.22.02.43.04.65.07,0,2.5.05,4.99-.01,7.49-.37,17.47,8.15,31.11,19.03,43.62,3.13,3.6,5.85,3.33,8.47-.66,2.26-3.44,4.25-7.16,5.72-11,6.03-15.73,6.62-32.37,7.86-48.9.63-8.42.83-16.91,2.17-25.22.79-4.93,3.46-9.56,5.21-14.35,1.5-4.12-.24-6.35-4.35-7.06-7.3-1.25-14.63-.59-20.68,3.46-10.59,7.09-20.21,15.35-21.73,29.33-.83,7.74-1.56,15.48-2.34,23.22Z"/>
  <path class="st0" d="M1204.81,196.78c-.46,26.47-4.62,52.32-13.16,77.43-.42,1.24-1.07,2.4-1.65,3.58-3.24,6.52-4.19,6.68-10.33,2.72-13.97-9.02-21.22-22.04-23.24-38.3-2-16.06-1.79-31.92,4-47.31,3.64-9.68,8.3-18.47,19.58-20.97,1.84-.41,3.82-.2,5.73-.23.3,0,.6.28.92.36q18.05,4.43,18.15,22.72ZM1204.12,197.05v-7q0-9.06-8.72-12.43c-2.02-.78-4.03-1.56-6.05-2.35-7.26-2.86-13.83-.82-18.63,4.47-4.02,4.43-7.14,9.97-9.57,15.5-5.4,12.33-5.68,25.56-5.06,38.75.88,18.49,7.08,34.38,22.98,45.36,6.21,4.29,7.49,4.07,10.75-2.8.5-1.05.94-2.13,1.32-3.23,8.54-24.7,12.45-50.2,12.98-76.27Z"/>
  <path class="st0" d="M1585.87,240.49c-1.47,13.04-3.38,25.47-13.38,34.63-7.27,6.66-14.58,10.17-25.36,5.62-19.21-8.12-33.35-20.25-39.58-40.51-2.5-8.13-4.63-16.38-6.9-24.59-.17-.63-.32-1.4-.11-1.97,5.42-14.3,8.64-29.99,24.41-37.67,3.08-1.5,5.71-1.69,8.8-.37,16.06,6.88,30.11,16.43,40.61,30.64,5.89,7.97,9.14,17.03,10.37,26.84.32,2.61.8,5.2,1.14,7.38ZM1585.19,240.75c-1.12-10.12-2.85-19.9-8.08-28.68-10.31-17.32-25.93-28.23-44.13-35.74-2.17-.9-5.55-.28-7.85.77-15.62,7.13-18.48,22.73-23.79,36.66-.26.68.07,1.65.3,2.43,3.13,10.3,5.62,20.86,9.69,30.78,2.72,6.62,6.82,13.19,11.86,18.21,7.94,7.92,18.29,12.56,28.81,16.49,4.78,1.79,8.8.6,13.15-1.96,15.09-8.88,18.4-23.49,20.04-38.96Z"/>
  <path class="st0" d="M2002.64,223.22c1.38,2.5,2.42,4.74,3.78,6.77,3.79,5.67,3.36,7.2-3.78,10.49v-17.26Z"/>
</svg>