<?xml version="1.0" encoding="UTF-8"?>
<svg id="Layer_2" data-name="Layer 2" xmlns="http://www.w3.org/2000/svg" viewBox="0 0 728.98 541.14">
  <defs>
    <style>
      .cls-1 {
        fill: #fff;
      }
    </style>
  </defs>
  <g id="Layer_1-2" data-name="Layer 1">
    <g>
      <path class="cls-1" d="M363.66,539.93c3.4-.04,6.8-.08,10.2-.12-3.38,1.81-6.78,1.69-10.2,.12Z"/>
      <path class="cls-1" d="M727.33,8.41C723.87,.76,716.13,0,708.42,0,478.24,.05,248.06,.04,17.89,.05c-2.46,0-4.94,0-7.37,.32C2.63,1.37-.89,6.28,.19,14.06c.73,5.23,3.23,9.74,5.99,13.9,25.2,38.04,50.54,75.98,75.96,113.87,20.71,30.87,41.56,61.64,62.41,92.41,26.53,39.15,52.98,78.35,79.75,117.33,21.77,31.69,43.79,63.22,66.04,94.58,14.86,20.95,29.69,41.93,45.61,62.11,8.7,11.03,16.38,22.95,27.71,31.67,3.41,.7,6.81,.93,10.2-.12,4.01-1.99,8.22-3.65,10.88-7.61,8.46-12.62,16.94-25.24,25.44-37.84,22.87-33.92,45.74-67.85,68.65-101.75,22.49-33.28,45.05-66.51,67.55-99.79,15.66-23.16,31.26-46.37,46.9-69.55,22.89-33.92,45.8-67.83,68.69-101.74,20.59-30.5,41.03-61.11,61.87-91.44,4.8-6.99,6.85-14.28,3.5-21.68Zm-4.33,10.66c-3.75,9.59-10.67,17.17-16.2,25.59-16.29,24.78-33.19,49.15-49.77,73.73-22.14,32.83-44.16,65.75-66.33,98.57-30.98,45.89-62.07,91.7-93.06,137.58-22.79,33.74-45.44,67.58-68.28,101.29-16.42,24.25-32.95,48.42-49.63,72.49-5.89,8.5-11.95,9.03-18.7,1.58-13.01-14.36-24.66-29.86-36.03-45.52-17.52-24.12-34.69-48.49-51.86-72.86-15.88-22.53-31.71-45.1-47.31-67.83-22.42-32.65-44.7-65.4-66.87-98.22-24.69-36.56-49.21-73.23-73.76-109.88C60.53,98.79,35.93,61.95,11.28,25.14c-2.11-3.15-3.57-6.58-5.05-10.05-2.08-4.87-.36-7.36,4.39-8.77,3.62-1.07,7.19-1.71,10.99-1.71,113.84,.05,227.69,.04,341.53,.04,114.03,0,228.07,0,342.1-.03,4.99,0,9.75,.69,13.95,3.43,3.98,2.6,5.73,6.08,3.8,11.01Z"/>
      <path class="cls-1" d="M287.04,136.89c6.35-9.25,13.77-15.41,22.52-19.85,2.73-1.39,6.86-1.92,9.05,.47,2.16,2.36,1.07,5.91-.24,9.04-3.05,7.23-7.23,11.96-16.12,10.48-4.56-.76-9.34-.13-15.21-.13Z"/>
      <path class="cls-1" d="M553.53,127.09c-.58,9.42-4.05,17.81-9.88,25.14-3.21,4.03-13.68,5.51-18.56,3.14-4.68-2.27-6.63-7.69-5.84-14.57,1.01-8.75,3.16-16.99,9.44-23.52,5.48-5.69,12.26-4.04,18.47-2.15,5.39,1.65,6.94,6.45,6.35,11.95Z"/>
      <g>
        <path class="cls-1" d="M695.51,18.77c-3.43-1.6-7.22-1.89-11.06-1.88-106.27,.04-212.55,.03-318.82,.03-106.27,0-212.55,0-318.82,.01-2.63,0-5.2,.06-7.85,.74-9.49,2.46-12.19,9.75-6.25,17.75,2.01,2.72,4.5,5.1,6.38,7.9,21.07,31.53,42.04,63.12,63.08,94.68,32.18,48.27,64,96.77,96.97,144.51,19.5,28.24,38.52,56.81,57.87,85.15,14.39,21.07,28.63,42.26,43.54,62.97,18.76,26.04,37.01,52.47,57.63,77.12,5.59,6.68,9.15,7.52,16.08,2.42,1.21-.89,2.26-2.01,3.33-3.09,11.91-12.01,19.91-26.84,29.33-40.65,32.96-48.36,65.9-96.74,98.79-145.15,15.5-22.81,30.84-45.72,46.3-68.56,31.26-46.19,62.52-92.38,93.85-138.52,17.29-25.46,34.69-50.85,52.12-76.22,5.67-8.26,4.92-15.77-2.44-19.21ZM229.31,228.46h-5.38v21.19h5.38v5.82h-19.23v-5.82h5.38v-21.19h-5.38v-5.82h19.23v5.82Zm36.75,27.01h-8.16l-13.93-22.53v22.53h-7.76v-32.83h10.12l11.97,18.81v-18.81h7.76v32.83Zm37.3-8.17c-1.4,2.42-3.16,4.27-5.29,5.57-1.6,.97-3.36,1.65-5.27,2.03-1.91,.38-4.17,.57-6.79,.57h-11.58v-32.83h11.91c2.68,0,4.98,.22,6.92,.67,1.94,.45,3.57,1.08,4.9,1.91,2.26,1.38,4.04,3.24,5.35,5.59,1.3,2.34,1.95,5.1,1.95,8.28s-.7,5.79-2.09,8.21Zm11.78,5.61c-2.46-2.16-3.69-5.26-3.69-9.3v-20.97h8.51v20.48c0,2.28,.48,3.98,1.43,5.09,.95,1.12,2.5,1.68,4.65,1.68s3.66-.54,4.64-1.61c.98-1.07,1.47-2.79,1.47-5.16v-20.48h8.51v20.95c0,4.06-1.23,7.16-3.7,9.33-2.47,2.16-6.11,3.24-10.91,3.24s-8.44-1.08-10.9-3.24Zm27.83,30.51h-3.32v13.09h3.32v3.6h-11.88v-3.6h3.32v-13.09h-3.32v-3.6h11.88v3.6Zm-11.04-143.84c-2.77,5.94-5.49,11.9-8.74,18.97h12.54c-1.2,5.01-4.57,8.28-6.31,12.37-.75,1.75-2.45,1.52-3.94,1.52-8.14,.02-16.29-.08-24.43,.05-3.31,.05-3.69-1.04-2.83-4.08,1.18-4.14,1.42-8.55,2.53-12.72,.71-2.68,0-3.47-2.53-3.46-6.44,.04-12.88,.16-19.31-.06-2.73-.09-3.11,1.86-3.68,3.45-1.63,4.56-1.75,11.05-5.38,13.13-3.89,2.23-9.91,.58-14.97,.92-4.24,.29-4.31-1.21-2.7-4.5,8.84-18.14,18.12-36.17,32.23-50.73,13.18-13.6,30.05-19.64,49.11-17.89,8.32,.76,11.67,6.09,9.5,14.22-2.66,9.97-6.71,19.45-11.08,28.79Zm12.14,29.12c8.94-21.56,18.09-43.02,32.01-61.97,3.85-5.25,7.9-10.52,14.73-12.46,5.39-1.53,8.08,.51,6.83,6.21-1.72,7.9-4.94,15.37-8.68,22.51-5.74,10.95-11.91,21.67-18.32,33.26,11.12,0,21.34,.1,31.55-.05,3.33-.05,3.76,.81,2.45,3.8-5.06,11.55-4.99,11.59-17.71,11.59-13.26,0-26.51,.04-39.77-.06-1.46-.01-4.91,1.54-3.11-2.81Zm21.61,131.41h-5.04l-8.61-13.92v13.92h-4.79v-20.28h6.25l7.4,11.62v-11.62h4.79v20.28Zm-6.11-44.04c-2.72,0-5.09-.24-7.11-.72-2.02-.48-3.91-1.08-5.68-1.82v-7.87h.93c1.75,1.4,3.71,2.47,5.87,3.22,2.17,.75,4.25,1.12,6.25,1.12,.51,0,1.19-.04,2.03-.13,.84-.09,1.52-.23,2.05-.44,.65-.26,1.18-.6,1.6-.99,.42-.4,.63-.99,.63-1.76,0-.72-.3-1.34-.91-1.86s-1.5-.92-2.68-1.2c-1.23-.29-2.54-.57-3.91-.83-1.37-.26-2.66-.58-3.87-.98-2.76-.9-4.75-2.11-5.96-3.65-1.21-1.53-1.82-3.44-1.82-5.72,0-3.06,1.37-5.55,4.11-7.48s6.26-2.9,10.57-2.9c2.16,0,4.3,.21,6.41,.63,2.11,.42,3.94,.94,5.48,1.58v7.56h-.91c-1.32-1.06-2.94-1.94-4.86-2.66-1.92-.71-3.88-1.07-5.88-1.07-.71,0-1.41,.05-2.1,.14s-1.37,.28-2.02,.54c-.57,.22-1.07,.55-1.48,1s-.62,.96-.62,1.53c0,.87,.33,1.53,.99,1.99,.66,.46,1.91,.89,3.75,1.27,1.21,.25,2.36,.49,3.47,.73,1.11,.24,2.3,.56,3.58,.97,2.51,.82,4.37,1.94,5.57,3.36,1.2,1.42,1.8,3.26,1.8,5.52,0,3.23-1.37,5.86-4.11,7.88s-6.46,3.03-11.17,3.03Zm27.63,29.97h-.6c-.26-.22-.58-.47-.96-.77-.39-.3-.83-.59-1.31-.88-.5-.29-1.04-.53-1.62-.73-.58-.2-1.2-.3-1.87-.3-.73,0-1.43,.12-2.1,.35s-1.27,.61-1.84,1.15c-.53,.52-.97,1.2-1.3,2.05-.33,.85-.5,1.88-.5,3.1s.18,2.33,.54,3.18,.81,1.52,1.35,2.01c.55,.5,1.17,.85,1.85,1.07,.68,.21,1.35,.32,2.02,.32s1.26-.09,1.89-.28c.62-.19,1.2-.45,1.72-.77,.44-.26,.86-.54,1.24-.84,.38-.3,.69-.56,.94-.77h.54v4.85c-.51,.23-.99,.44-1.46,.64-.46,.2-.95,.37-1.46,.52-.66,.19-1.29,.34-1.87,.43-.58,.1-1.38,.15-2.4,.15-1.51,0-2.9-.22-4.18-.67-1.28-.44-2.37-1.11-3.29-1.99s-1.63-1.98-2.13-3.3c-.5-1.32-.76-2.84-.76-4.56,0-1.61,.24-3.07,.72-4.37,.48-1.31,1.18-2.43,2.1-3.37,.88-.9,1.97-1.59,3.28-2.08,1.3-.49,2.73-.74,4.27-.74,.85,0,1.62,.05,2.31,.14,.69,.09,1.32,.22,1.9,.37,.61,.17,1.16,.36,1.65,.58,.5,.21,.93,.41,1.3,.59v4.92Zm8.84,14.07h-5.09v-5.35h5.09v5.35Zm10.29-71.12h-10.25v26.48h-8.47v-26.48h-10.25v-6.35h28.97v6.35Zm26.37,26.48l-8.93-12.04h-3.92v12.04h-8.42v-32.83h14.2c1.94,0,3.61,.11,5,.33,1.4,.22,2.7,.7,3.92,1.43,1.23,.74,2.22,1.69,2.94,2.86,.73,1.17,1.09,2.63,1.09,4.4,0,2.42-.56,4.4-1.69,5.93-1.13,1.53-2.73,2.8-4.82,3.81l10.96,14.07h-10.34Zm31.79-27.01h-5.38v21.19h5.38v5.82h-19.23v-5.82h5.38v-21.19h-5.38v-5.82h19.23v5.82Zm30.65,.53h-15.32v5.67h14.22v6.35h-14.22v8.11h15.32v6.35h-23.75v-32.83h23.75v6.35Zm1.7-111.45c-4.27,.12-8.51,.14-12.84,.75-12,1.69-17.7,9.47-21.14,19.83-1.35,4.08-2.32,8.33-3.03,12.58-2.99,17.81-16.28,21.79-28.43,22.68-5.62,.41-11.25-.1-16.87-.84-3-.39-2.88-1.87-2.21-3.78,1.13-3.18,2.51-6.28,3.76-9.42,.9-2.27,2.85-2.25,4.73-2.05,4.19,.44,8.19-.81,12.23-1.42,9.31-1.39,14.7-7.49,17.77-16.03,2.34-6.52,5.16-12.9,7.01-19.55,3.65-13.11,13.09-18.33,25.48-19.96,6.89-.9,13.79-1.7,21.18-.8-1.41,5.33-2.88,10.14-3.9,15.04-.49,2.38-1.52,2.9-3.75,2.96Zm27.56,135.49c-2.74,2.02-6.46,3.03-11.17,3.03-2.72,0-5.09-.24-7.11-.72-2.02-.48-3.91-1.08-5.68-1.82v-7.87h.93c1.75,1.4,3.71,2.47,5.87,3.22,2.17,.75,4.25,1.12,6.25,1.12,.51,0,1.19-.04,2.03-.13,.84-.09,1.52-.23,2.05-.44,.65-.26,1.18-.6,1.6-.99,.42-.4,.63-.99,.63-1.76,0-.72-.3-1.34-.91-1.86s-1.5-.92-2.68-1.2c-1.23-.29-2.54-.57-3.91-.83-1.37-.26-2.66-.58-3.87-.98-2.76-.9-4.75-2.11-5.96-3.65-1.21-1.53-1.82-3.44-1.82-5.72,0-3.06,1.37-5.55,4.11-7.48,2.74-1.93,6.26-2.9,10.57-2.9,2.16,0,4.3,.21,6.41,.63,2.11,.42,3.94,.94,5.48,1.58v7.56h-.91c-1.32-1.06-2.94-1.94-4.86-2.66-1.92-.71-3.88-1.07-5.88-1.07-.71,0-1.41,.05-2.1,.14s-1.37,.28-2.02,.54c-.57,.22-1.07,.55-1.48,1s-.62,.96-.62,1.53c0,.87,.33,1.53,.99,1.99,.66,.46,1.91,.89,3.75,1.27,1.21,.25,2.36,.49,3.47,.73,1.11,.24,2.3,.56,3.58,.97,2.51,.82,4.37,1.94,5.57,3.36,1.2,1.42,1.8,3.26,1.8,5.52,0,3.23-1.37,5.86-4.11,7.88Zm45.84-121.79c-3.29,10.45-8.12,20.3-14.62,29.1-5.89,7.96-14.59,10.88-24.23,11.21-2.27,.08-4.54,.01-7.32,.01-3.79-.23-8.13,.55-12.36-1.06-7.49-2.86-12.39-9.77-11.07-17.72,2.64-15.86,8.52-30.58,17.25-44.11,.49-.76,1.07-1.54,1.8-2.05,11.05-7.83,30.35-8.65,42.76-1.41,8.26,4.82,11.15,15.39,7.79,26.03Zm26.23-77.17c-4.86,12.64-13.53,16.06-27.3,15.96-104.34-.73-208.69-.36-313.04-.51-4.63,0-6.98,1.35-8.9,5.56-5.46,11.99-11.3,23.81-17.23,35.58-1.9,3.76-1.85,5.25,2.95,5.06,7.18-.29,14.39,.08,21.58-.13,4.16-.12,4.59,1.02,3.33,4.92-4.92,15.2-4.75,15.25-20.65,15.26-1.14,0-2.27,0-3.41,0-15.15,0-15.03,.04-20.82,13.98-3.89,9.37-8.23,18.55-12.21,27.89-1.08,2.53-2.65,3.25-5.23,3.18-5.68-.15-11.37-.26-17.04,.02-4.28,.21-4.94-1.03-2.98-4.7,6.91-12.94,13.48-26.08,20.65-38.86,2.26-4.03,1.15-4.42-2.49-4.37-5.3,.08-10.61-.06-15.91,.05-2.98,.06-4.59-.5-2.57-3.74,.1-.16,.11-.36,.18-.54q6.07-13.92,21.31-13.92,12.71,0,16.91-11.62c3.26-8.98,6.46-17.99,9.91-26.9,1.53-3.96,1.69-5.81-3.68-5.64-12.3,.39-24.62-.02-36.92,.2-4.09,.07-4.33-1.15-2.78-4.43,2.09-4.4,2.66-10.82,6.03-12.94,3.71-2.34,9.86-.92,14.95-.92,129.53-.02,259.07-.02,388.6-.02h7.03c-.23,1.23-.24,1.42-.31,1.59Z"/>
        <path class="cls-1" d="M427.6,229.19c-.57-.24-1.24-.38-2.01-.43-.76-.05-1.65-.08-2.67-.08h-3.07v8.84h2.6c1.35,0,2.48-.07,3.39-.2s1.67-.43,2.29-.9c.59-.45,1.02-.96,1.29-1.51,.27-.55,.41-1.29,.41-2.22,0-.82-.17-1.53-.51-2.12-.34-.59-.92-1.05-1.74-1.39Z"/>
        <path class="cls-1" d="M291.79,229.87c-.87-.43-1.75-.72-2.66-.87s-2.27-.23-4.09-.23h-2.14v20.55h2.14c2.02,0,3.49-.09,4.43-.28,.94-.18,1.86-.52,2.76-1,1.54-.88,2.67-2.06,3.39-3.54s1.08-3.3,1.08-5.48-.39-4.01-1.18-5.54c-.79-1.54-2.03-2.74-3.74-3.6Z"/>
      </g>
    </g>
  </g>
</svg>