<?xml version="1.0" encoding="UTF-8"?>
<svg id="Layer_1" xmlns="http://www.w3.org/2000/svg" version="1.1" viewBox="0 0 209.7 38.1">
  <!-- Generator: Adobe Illustrator 29.1.0, SVG Export Plug-In . SVG Version: 2.1.0 Build 142)  -->
  <defs>
    <style>
      .st0 {
        fill: none;
      }

      .st1 {
        fill: #fff;
      }
    </style>
  </defs>
  <path class="st1" d="M.2,25.7c1.3-1.8,2.6-3.6,3.8-5.5.2-.4.4-1.2.2-1.5-1.7-2.6-.9-4.6,1-6.8,1.7-2,3.2-4.4,4.8-6.7.3-.4.8-.8,1.2-1.1,2.8-1.3,5.7-2.6,8.5-3.9.8-.4,1.2-.2,1.6.5.7,1.3,1.6,2.6,2.3,3.9.2.4.2,1.1,0,1.6-.4.8-.9,1.5-1.4,2.2-.8.9-.7,1.8.1,2.7.1-.1.3-.2.4-.4.8-1.7,2.3-2.5,3.9-3.2,2.3-1,4.6-2,6.9-3.1.6-.3,1-.3,1.4.3,1,1.5,2.2,2.9,3.2,4.5.2.4.3,1.1.1,1.5-1.8,3.3-3.7,6.5-5.5,9.8-.5.9-1.1,1.4-2.1,1.9-2.9,1.3-5.8,2.8-8.7,4.2-1.4.7-1.5.6-2.3-.8-.3-.5-.5-1-1-1.9-.7,1.1-1.4,2-1.9,2.9-.8,1.7-2.1,2.7-3.8,3.4-2.9,1.3-5.7,2.7-8.5,4.1-.5.2-1.1.4-1.8.7-.9-2.6-1.7-5.2-2.6-7.7.2-.6.2-1.1.2-1.6H.2Z"/>
  <path class="st1" d="M131.8,38.1c-1.9-.6-3.9-.9-5.5-1.8-3.6-1.9-5.8-5-6.2-9.2-1-8.9,7-14.6,14.4-13.4,1.6.3,3.2.9,4.8,1.4.9.3,1.2,1,.8,2-.6,1.3-1,2.6-1.6,4-.5-.3-.8-.5-1.2-.8-2.3-1.7-4.7-2.2-7.3-1-2.6,1.1-4,3.3-4.2,6.1-.2,2.6,1.5,5.9,5,6.9,2.9.9,5.7-.1,7.1-2.6.1-.2.2-.5.4-1h-3.2c-1.2,0-1.3-.2-.9-1.4.8-2.3,2.4-3.4,4.9-3.4h4.2c.7,0,1.1.2,1.2,1,.6,6-3.3,11.5-9.1,12.7-.7.1-1.3.2-2,.4l-1.6.1h0Z"/>
  <path class="st1" d="M159.6,37.2c.7-1.8,1.2-3.2,1.8-4.7,2.2-5.8,4.4-11.5,6.6-17.2.3-.7.7-1,1.4-1,1.1,0,2.2.1,3.2,0,1.1-.1,1.6.4,1.9,1.3,1.9,4.9,3.9,9.8,5.7,14.7.5,1.2,1.1,1.8,2.4,1.7,1.4-.1,2.8,0,4.2-.1.6,0,1.5-.4,1.5-.7.1-.6-.2-1.4-.7-1.8-1.8-1.6-3.7-3-5.6-4.5-2.6-2-3.3-4.8-2.1-7.5.9-2,2.6-3,4.8-3.1,2.5-.1,5,0,7.6,0,1.2,0,1.4.2.9,1.4-.9,2.4-2.6,3.7-5.2,3.7h-.6c-.5.2-.9.4-1.4.6.2.5.4,1,.7,1.4,2,1.7,4.1,3.2,6,4.9,2.2,2,2.3,4.6,1.3,7-.9,2.5-3,3.8-5.7,3.9-3.5.1-7,0-10.6,0-.9,0-1.4-.3-1.6-1.1,0-.2-.1-.4-.2-.6-.3-1.3-1-1.8-2.4-1.7-1.9.1-3.9.1-5.9,0-.9,0-1.4.3-1.7,1.2q-.8,2.2-3.2,2.2c-.7,0-1.8,0-3.1,0h0ZM173.9,29.3c-.9-2.5-1.8-4.8-2.6-7.1h-.4c-.8,2.1-1.6,4.3-2.3,6.4-.1.2.3.7.4.7h4.9Z"/>
  <path class="st1" d="M80.4,25c.8,1.4,2,2.8,2.5,4.3,1.2,3.9-1.7,7.7-5.9,7.8-3.1.1-6.2,0-9.2,0-.9,0-1.2-.4-1.2-1.2V15.4c0-.6.1-1.2.9-1.2,3.2,0,6.4,0,9.6.2,2.2.1,3.9,1.2,4.7,3.4.9,2.5.6,4.8-1.3,6.7-.1.1-.2.2-.2.3s-.1.1-.1.2c0,0,.1,0,.2,0h0ZM72.4,30.2h0v1.6c0,.3.2.7.4.8,1.2.8,3.9-.1,4.4-1.4.4-1,.2-2-.6-2.7-.7-.7-3.1-1.2-3.7-.6-.4.4-.4,1.3-.5,2-.1,0,0,.2,0,.3h0ZM72.4,21q0,2.5,1.3,2.5c2.1,0,3.2-.8,3.2-2.3,0-1.6-1.1-2.5-3.6-2.4-1.7.2-.6,1.6-.9,2.2h0Z"/>
  <path class="st1" d="M102.3,37.1h-6.1c-.3,0-.7-.6-1-1-1.5-2.5-3-5.1-4.8-7.7,0,.4-.1.7-.1,1.1v6.4c0,.8-.3,1.2-1.2,1.2h-3.3c-.8,0-1.2-.3-1.2-1.2V15.3c0-.8.4-1.2,1.2-1.1,3,.1,6,0,9,.3,3.1.3,5.7,1.7,6.6,4.9,1,3.6.3,6.5-2.8,8.6-.7.5-.8.8-.4,1.5,1.3,2.1,2.5,4.2,3.7,6.3,0,.4.2.7.4,1.3ZM90.4,22.3v1.8c0,.7.4,1.1,1.1,1.1.8,0,1.7,0,2.5-.2,1.4-.4,2.3-1.7,2.1-3.2-.2-1.4-1.3-2.3-2.9-2.3-3.2,0-2.8-.2-2.8,2.8Z"/>
  <path class="st1" d="M119.5,14.5c-.6,1.5-1,2.9-1.7,4.2-.2.3-.9.5-1.3.5-2,.1-4,0-6,0-.9,0-1.3.3-1.3,1.3,0,3.2-.2,2.7,2.7,2.8h3.8c.8,0,1.1.3,1.1,1.1v2.4c0,.8-.4,1.1-1.2,1.1h-5.3c-.9,0-1.2.3-1.2,1.2,0,3.6-.3,3.1,3,3.1h4.8c1,0,1.3.4,1.3,1.3-.1,4.4.6,3.6-3.6,3.7h-9.6c-1.1,0-1.5-.3-1.5-1.4V15.7c0-.8.2-1.4,1.2-1.4h13.7c.4,0,.7.1,1.1.2h0Z"/>
  <path class="st1" d="M41.4,25.7v-9.9c0-1.1.3-1.6,1.5-1.6,4.3.1,8.7,0,13.1,0,1.3,0,1.4.2.9,1.4-.1.2-.2.4-.2.5-1.4,3.7-.6,3-4.5,3h-3.8c-.7,0-1.1.3-1.1,1.1q-.2,2.7,2.5,2.7h3.8c.7,0,1,.3,1,1v.1c0,4.1.5,3.4-3.3,3.4h-1.9c-1.5,0-2.2.7-2.2,2.2v6c0,1-.3,1.5-1.4,1.4-.9-.1-1.8,0-2.8,0-1.6,0-1.6-.1-1.7-1.6.1-3.1.1-6.4.1-9.7h0Z"/>
  <path class="st1" d="M193.6,19.2c.7-1.6,1.2-3,1.8-4.4.1-.3.7-.5,1.1-.5h12.1c.7,0,1.1.3,1.1,1.1-.1,4.8.6,3.9-3.6,3.9-3.2.1-2.9-.4-2.9,2.9v13.5c0,1.5-.1,1.6-1.6,1.6h-2.2q-1.8,0-1.8-1.8v-13.7c0-2.6.2-2.4-2.4-2.4-.3-.1-.8-.1-1.6-.2h0Z"/>
  <path class="st1" d="M146,25.7v-10c0-1.1.4-1.5,1.5-1.5.9.1,1.9.1,2.9,0,1.1-.1,1.5.4,1.5,1.4v14.7c0,1.2.6,1.8,1.8,1.8h5c.8,0,1.1.3.8,1.1-.3.6-.5,1.3-.7,1.9-.5,1.4-1.6,2-3.1,2h-8.3c-1,0-1.3-.4-1.3-1.3-.1-3.3-.2-6.7-.1-10.1h0Z"/>
  <path class="st1" d="M64.2,25.7v9.6c0,1.2-.6,1.8-1.9,1.8h-2.6c-1.1.1-1.3-.5-1.3-1.4V15.7c0-1.1.3-1.6,1.5-1.5,1,.1,2,.1,3,0s1.3.4,1.3,1.3v10.2h0Z"/>
  <path class="st0" d="M173.9,29.3h-4.8c-.1,0-.5-.5-.4-.7.7-2.1,1.5-4.3,2.3-6.4h.4c.8,2.2,1.6,4.5,2.5,7.1Z"/>
  <path class="st0" d="M72.4,30.2v-.4c.2-.7.1-1.6.5-2,.6-.6,3,0,3.7.6.8.8,1,1.7.6,2.7-.5,1.3-3.2,2.1-4.4,1.4-.2-.1-.4-.5-.4-.8-.1-.5,0-1,0-1.5h0Z"/>
  <path class="st0" d="M72.4,21c.4-.6-.8-2.1,1-2.2,2.4-.1,3.6.7,3.6,2.4,0,1.6-1.1,2.3-3.2,2.3-1.4.1-1.4,0-1.4-2.5h0Z"/>
  <path class="st0" d="M90.4,22.3c0-3-.4-2.8,2.8-2.8,1.6,0,2.7.9,2.8,2.3.2,1.4-.7,2.8-2.1,3.2-.8.2-1.7.2-2.5.2-.7,0-1.1-.4-1.1-1.1.1-.6.1-1.2.1-1.8Z"/>
</svg>