<?xml version="1.0" encoding="UTF-8"?>
<svg id="Layer_1" xmlns="http://www.w3.org/2000/svg" version="1.1" viewBox="0 0 233.39 71.71">
  <!-- Generator: Adobe Illustrator 29.1.0, SVG Export Plug-In . SVG Version: 2.1.0 Build 142)  -->
  <defs>
    <style>
      .st0 {
        fill: #fff;
      }
    </style>
  </defs>
  <path class="st0" d="M233.39,0c-1.48,4.16-2.95,8.33-4.33,12.22-4.4.94-203.67.14-209.58-.77C20.16,7.4,21.55,3.63,23.41,0,93.4,0,163.39,0,233.39,0Z"/>
  <path class="st0" d="M214.15,60.14c-1.34,4.05-2.62,7.89-3.84,11.57H0c1.47-4.18,2.76-7.82,4.08-11.57h210.07,0Z"/>
  <path class="st0" d="M91.32,17.21h26.69c.87.52,2.27,1.37,3.99,2.41.21-.67.43-1.34.64-2.01,3.58-.83,46.28-1.15,55.48-.4.89,3.27-1.03,5.85-2.09,8.84h-52.3v3.71h7.4c.58,8.32-3.31,18.06-5.14,26.1-7.1.08-14.2.12-21.3.12-4.01-4.67-5.52-10.62-8.98-15.87-1.37,5.27-2.68,10.29-4.04,15.54h-11.17c2.41-8.57,4.74-16.9,7.2-25.66,8.16.08,16.23-.71,24.5-1.37-1.28-5.04-18.24-2.6-22.48-2.6-.79-3.36.87-5.9,1.59-8.81h.01ZM118.14,37.55c-3.27,1.05-6.42,2.06-9.83,3.16,2.15,3.82,4.2,7.46,6.56,11.66,1.19-5.41,2.22-10.09,3.26-14.82h.01Z"/>
  <path class="st0" d="M78.18,55.76h-35.61c.48-5.39,3.41-9.99,3.78-15.36-6.95-1.49-15.38-.42-22.5-.42-1.64,5.37-3.22,10.51-4.84,15.83-4.24,0-8.32.44-12.79-.35,2.54-8.57,4.99-16.86,7.48-25.27h49.94c-1.39,5.33-2.69,10.31-4.06,15.56h7.88c1.52-5.11,3.04-10.24,4.62-15.54h13.59c-2.78,8.71-4.5,17.33-7.48,25.56h0Z"/>
  <path class="st0" d="M169.71,55.7c3.64-12.98,7.22-25.78,10.82-38.62h14.52c1.46,4.05-2.88,13.02-4.04,17.27,6.3-5.77,12.73-11.42,18.91-17.3h17.69c-6.36,7.29-14.1,12.26-19.69,19.21,2.22,6.4,4.42,12.74,6.8,19.61-5.61.27-10.68.27-15.83,0-2.71-6.56-5.35-12.95-8.26-20-2.04,6.85-3.95,13.22-5.93,19.84h-14.99Z"/>
  <path class="st0" d="M150.36,29.67c-1.07,3.47-5.39,3.79-6.74,7.32.96,2.89,2.04,6.15,3.27,9.87h23.62c-.91,3.35-1.66,6.13-2.49,9.15h-33.1c-5.12-10.29-3.9-15.13-1.36-26.35h16.8Z"/>
  <path class="st0" d="M67.53,17.67c-.81,2.65-1.61,5.26-2.47,8.07H15.64c-.5-3.33.99-5.85,2.11-8.38,7.94-.68,45.72-.48,49.78.32h0Z"/>
  <path class="st0" d="M75.68,17.29h13.77c-.98,2.96-1.85,5.56-2.79,8.39h-13.05c-.26-3.17,1.74-5.57,2.07-8.39Z"/>
  <path class="st0" d="M118.14,37.55c-1.04,4.73-2.07,9.41-3.26,14.82-2.36-4.2-4.41-7.84-6.56-11.66,3.41-1.1,6.55-2.11,9.83-3.16h-.01Z"/>
</svg>