<?xml version="1.0" encoding="UTF-8"?>
<svg id="Layer_1" xmlns="http://www.w3.org/2000/svg" version="1.1" viewBox="0 0 717.31 154.81">
  <!-- Generator: Adobe Illustrator 29.1.0, SVG Export Plug-In . SVG Version: 2.1.0 Build 142)  -->
  <defs>
    <style>
      .st0 {
        fill: none;
      }

      .st1 {
        fill: #fff;
      }
    </style>
  </defs>
  <path class="st1" d="M549.91,55.91V3.11c0-1.4.8-2.1,2.2-2.2h40.5c4.1,0,4.2.1,4.2,4.2v28.4c0,4.8.1,4.6,4.6,5,3.6.3,6.2-.9,8.8-3.5,10.8-10.9,21.8-21.5,32.6-32.3,1.8-1.8,3.5-2.8,6.1-2.7,17.3.3,34.6.4,52,.6.7,0,1.4.5,2.1.7-.4.5-.6,1.2-1.1,1.6-12,11.5-24,23-36,34.6-5,4.8-10.1,9.6-15.1,14.5-2.1,2-2.1,2.2,0,4.2,8.7,8.4,17.5,16.9,26.2,25.3,8.7,8.4,17.5,16.9,26.2,25.3.7.7,1.5,1.4,2.1,2.1.3.4.5.8.7,1.3-.4.2-.8.5-1.2.6-1,.1-2,0-3,0-15.5-.1-31-.4-46.5-.4-3.2,0-5.6-1-7.9-3.3-11.9-11.8-24.2-23.3-35.9-35.3-3.6-3.6-7.3-3.2-11.4-2.9-.6,0-1.4,1-1.5,1.6-.3,1.1-.1,2.3-.1,3.5v32.9c0,3.5-.1,3.6-3.6,3.6-13.7.1-27.3.2-41,.3-3.8,0-3.9-.1-3.9-3.9-.1-17.1-.1-34-.1-51h0Z"/>
  <path class="st1" d="M272.41,42.21c0,11.6-.1,23.3,0,34.9.2,12.7-5.5,21.5-16.8,27-7.9,3.8-16.3,6.1-25,6.3-17.3.4-34.6.5-52,.2-10.4-.2-20.4-3.2-29.7-8-5.4-2.8-10.1-6.5-13.4-11.6-2.7-4.1-4.2-8.6-4.2-13.6.1-23.9,0-47.8,0-71.8v-2.5c0-1.4.7-2.1,2.1-2.2h40.5q5.2,0,5.2,5.1v62.8c0,2.1,0,4.3.4,6.4.6,3.2,1.9,4.3,5,4.3,11.5.1,23,0,34.5.1,2.8,0,4.6-1.3,5.2-3.8.6-2.4,1-4.9,1-7.4.1-20.4,0-40.9,0-61.3,0-1.2.1-2.3,0-3.5-.1-2.2.9-2.9,3-2.8,13.5.1,27,0,40.5,0,3.4,0,3.5.2,3.5,3.9v27.4c.2,3.4.2,6.8.2,10.1h0Z"/>
  <path class="st1" d="M475.21,110.71h-57.5c-1.4,0-2.2-.7-2.2-2.1V4.41c.1-3.3.1-3.4,3.4-3.4,6.7-.1,13.3,0,20,0h91.5c5.5,0,5.2-.5,5.2,5.1,0,6.3-.1,12.6,0,18.9,0,2.1-.7,3-2.9,3-5-.1-10,0-15,0h-50c-3.1.1-3.3.3-3.4,3.5-.1,2.5-.1,5,0,7.5.1,3.7.1,3.8,4.1,3.8h56c1,0,2-.1,3,0,.9.1,1.8.4,2.7.6-.4.9-.8,1.8-1.3,2.6-4.1,5.7-8.3,11.2-12.3,17-1.8,2.6-3.8,3.6-7,3.6-13.2-.2-26.3-.1-39.5-.1h-3.5c-1.4,0-2.1.8-2.1,2.2v.5c-.6,7.1,2.6,10.6,9.7,10.6h59.5c1.5,0,2.1.8,2,2.2v25.4c0,3.3-.1,3.4-3.3,3.4-8,.1-16,0-24,0-11.1-.1-22.1-.1-33.1-.1h0Z"/>
  <path class="st1" d="M59.91.91h56c1.6,0,2.6.6,2.6,2.3v22.4c0,1.4-.7,2.1-2.1,2.1h-62.5c-3.2.1-3.4.3-3.5,3.4-.1,2.8,0,5.6,0,8.5-.1,2.2,1,2.9,3,2.9,6.8-.1,13.7,0,20.5,0h37.5c2.9,0,3,.2,1.6,2.6-4.1,7.4-8.4,14.7-12.4,22.2-1.3,2.4-2.9,3.1-5.6,3.1-13,.1-26,.4-39,.6-1.2,0-2.3,0-3.5.1-1.4.1-2.1.9-2.1,2.2v32.9c0,4.2,0,4.3-4,4.3H6.41c-5,0-4.7,0-4.7-4.6V5.71C1.71.21,1.51.71,7.01.71c17.6.2,35.3.2,52.9.2h0Z"/>
  <path class="st1" d="M367.41,69.51v36.4q0,4.7-4.6,4.7h-39c-5.4,0-4.9,0-4.9-4.8V34.01c0-6.9.5-6.2-6.2-6.2h-28.5c-4.1,0-4.2-.1-4.2-4.2-.1-6.5-.1-13,0-19.4,0-2.9.3-3.1,3.1-3.3,1-.1,2,0,3,0h117c1.8,0,3.5.4,5.3.7-.7,1.6-1.3,3.3-2.2,4.8-3.6,6-7.5,11.8-10.9,17.9-1.6,2.9-3.6,3.8-6.8,3.6-5-.2-10-.1-15-.1-6.4,0-6.1-.6-6.1,5.8,0,12,0,24,0,35.9h0Z"/>
  <path class="st1" d="M358.61,125.41H2.11c-1.4,0-2.2-.6-2.1-2.1,0-1.5.3-2.7,2.1-2.7,1.2,0,2.3-.1,3.5-.1h706.4c1,0,2,.1,3,0,1.7-.1,2.3.8,2.3,2.4s-.6,2.5-2.3,2.4h-4.5c-117.3.1-234.6.1-351.9.1h0Z"/>
  <path class="st1" d="M333.91,142.71c0-.7-.1-1.3,0-2,.4-2.3-1.3-5.9,1.3-6.8,3.5-1.1,7.6-1.4,11.1.7,2.8,1.7,3,5.6.1,8-1.9,1.5-1.7,2.3-.3,3.8,1.1,1.2,1.9,2.7,2.8,4.1.2.3.1,1.1-.1,1.2-.3.2-1.1.3-1.4.1-1.3-1.5-2.5-3.1-3.7-4.7s-2.5-3.1-4.8-3.1c-1.6,0-2.6.5-2.5,2.3,0,1.3.1,2.7-.1,4-.1.5-.7,1-1,1.5-.5-.6-1.3-1.1-1.3-1.7-.2-2.4-.1-4.9-.1-7.4h0ZM341.01,136.01h-1.5c-2.7.1-3,.5-3.1,2.8s1.2,2.8,3.1,2.7h1.5c3.4-.1,4.9-1.1,4.7-3.1-.1-1.7-1.3-2.3-4.7-2.4h0Z"/>
  <path class="st1" d="M173.01,142.81c0-2.1.1-4.3,0-6.4-.1-2.2,1-3,3-2.9h3.5c5.8.2,8.8,3.4,8.8,9.1,0,6.2-3,9.5-8.9,9.5-7.1.1-6.4.4-6.4-5.9,0-1.1,0-2.3,0-3.4h0ZM175.51,142.81h0c.1,1.7,0,3.3.1,5,0,.5.5,1.3,1,1.5,3.8,1.9,8.5-.6,9.1-4.8.2-1.5.2-3-.1-4.4-.7-3.2-3.1-4.4-7.5-4-1.6.2-2.5,1.7-2.5,4.8-.1.6-.1,1.2-.1,1.9h0Z"/>
  <path class="st1" d="M669.21,142.61v6c0,1.2.5,3-1.3,3.2-.8.1-1.9-1.1-2.5-1.9-2-2.8-3.9-5.8-5.8-8.7-.5-.8-1.2-1.4-1.8-2.2-.3,1-.8,2.1-.8,3.1-.1,2.8.1,5.6,0,8.5,0,.4-.8.8-1.2,1.2-.3-.4-.9-.7-.9-1.1-.1-5.1-.1-10.3,0-15.4,0-.5.7-1.5,1-1.5.7,0,1.7.3,2.1.9,2.4,3.4,4.6,6.9,6.9,10.4.3.5.9.9,1.4,1.4.2-.6.6-1.1.6-1.7.1-2.5,0-5,0-7.5,0-.7-.1-1.4.1-2,.2-.6.7-1,1.1-1.5.4.5,1.1.9,1.1,1.4,0,2.4,0,4.9,0,7.4h0Z"/>
  <path class="st1" d="M324.51,142.71c0,5.4-3.7,9.4-8.8,9.4-4.8,0-8.6-3.9-8.7-9-.2-5.3,3.6-9.5,8.6-9.6s8.8,3.8,8.9,9.2h0ZM315.71,149.51c3.9,0,6.2-2.5,6.2-6.7s-2.3-6.8-6.2-6.7c-3.8,0-6.2,2.6-6.2,6.8s2.4,6.6,6.2,6.6h0Z"/>
  <path class="st1" d="M29.31,142.91v-6.9c0-1.6.7-2.5,2.4-2.5h3c3.5-.2,6.8.6,8.5,4,1.9,3.8,1.7,7.7-.5,11.4-1.4,2.3-3.8,3.2-6.3,3.3-8.4.2-6.9.3-7-6.2-.1-1.1-.1-2.1-.1-3.1h0ZM35.51,136.01c-3.7,0-3.8.1-3.9,3.7,0,2.5-.1,5,0,7.5,0,.7.3,1.7.9,2.1,1.3,1,6.4.1,7.6-1.1,1.7-1.6,2.3-6.4,1.2-9-1.1-2.7-3.4-3.3-5.8-3.2h0Z"/>
  <path class="st1" d="M235.61,143.01c0-2.3.1-4.6,0-7-.1-1.9.9-2.7,2.7-2.6,2.8.1,5.6,0,8.5.1.6,0,1.2.8,1.7,1.3-.6.4-1.2,1.1-1.9,1.1-2.1.2-4.3.1-6.5.1-1.6,0-2.4.7-2.4,2.4,0,1.6.6,2.5,2.3,2.6,1,0,2-.1,3,.1,1.5.2,4.3-.8,4.2,1-.1,2.2-2.9,1-4.5,1.2-.8.1-1.7.1-2.5,0-2.4-.1-2.6,1.4-2.6,3.3,0,1.7.3,3,2.4,2.9,2.5,0,5,0,7.5.1.5,0,1,.7,1.4,1.1-.4.4-.8,1.2-1.3,1.2-3.5.1-7,.2-10.4,0-.6,0-1.5-1.3-1.6-2-.1-2.2.1-4.5,0-6.9.1.1,0,.1,0,0h0Z"/>
  <path class="st1" d="M149.61,142.71v-5.5q.1-3.7,3.5-3.8h6.5c1.1,0,2.7-.4,2.6,1.3,0,.4-1.8,1-2.8,1.2-1.6.2-3.3.1-5,.1-1.5,0-2.6.5-2.6,2.2-.1,1.9.7,2.8,2.6,2.8,2,0,4,0,6,.2.4,0,.7.5,1.1.8-.4.4-.8,1.2-1.2,1.2-2,.2-4,.1-6,.1-2.4,0-2.5,1.6-2.5,3.4s.6,2.8,2.5,2.8c2.3,0,4.7,0,7,.1.5,0,1,.7,1.4,1.1-.4.4-.8,1.2-1.3,1.2-3.3.1-6.6.2-10,0-.6,0-1.7-1.2-1.7-1.8-.2-2.4,0-4.9-.1-7.4h0Z"/>
  <path class="st1" d="M557.51,143.71c-.3,5-4.3,8.7-9.2,8.4-5-.3-8.6-4.7-8.2-9.9.5-5.4,4-8.9,8.9-8.7,5.2.2,8.9,4.5,8.5,10.2h0ZM555.11,142.91c0-4.1-2.5-6.7-6.2-6.8-3.8,0-6.2,2.5-6.3,6.7,0,4.1,2.4,6.8,6.2,6.8,3.8-.1,6.3-2.7,6.3-6.7h0Z"/>
  <path class="st1" d="M510.21,142.71c0,5.3-3.9,9.5-8.8,9.4-4.9,0-8.6-3.9-8.7-9-.1-5.4,3.5-9.5,8.5-9.7,5-.1,9,4.1,9,9.3ZM501.61,149.51c3.8-.1,6.2-2.8,6.1-6.9s-2.6-6.7-6.4-6.6c-3.9.1-6,2.5-6,6.9s2.3,6.7,6.3,6.6h0Z"/>
  <path class="st1" d="M394.61,142.71v-1.5q0-7.8,8-7.7c1.6,0,4.5-1,4.5,1.3-.1,2-3,1-4.7,1.2-1,.1-2,0-3,0-1.5,0-2.6.3-2.7,2.1-.1,1.8.5,2.9,2.5,2.9,1,0,2-.1,3,.1,1.4.3,3.4-1.1,4.2,1.2-1.3.3-2.6.8-4,1-1.1.2-2.3.1-3.5,0-2.2,0-2.2,1.5-2.2,3.1,0,1.5-.1,3.1,2.2,3.1,2.5,0,5,0,7.5.2.5,0,.9.7,1.4,1.1-.5.4-.9,1.1-1.4,1.1-3.3.1-6.7.2-10,0-.6,0-1.6-1.2-1.7-1.9-.2-2.3-.1-4.8-.1-7.3h0Z"/>
  <path class="st1" d="M579.71,142.51c1.2.6,2.8,1,3.4,2,1,1.9.1,4.7-1.4,5.8-3.5,2.5-8.8,2.4-12.1-.3-3.1-2.5-4-7.4-2.2-11.4,2.1-4.7,8.3-6.7,12.6-3.9.9.6,1.7,1.6,2.2,2.5.2.4-.1,1.2-.2,1.8-.5-.1-1-.1-1.3-.4-.5-.4-.8-1-1.4-1.4-2.4-1.8-5-1.6-7.5-.3-2.3,1.2-3.5,4.5-2.9,7.4.6,2.8,2.4,4.8,5.4,5,1.9.1,3.9-.4,5.8-1,.5-.1.8-1.3.8-2,0-.4-.9-.8-1.4-1.1-.1-.1-.3,0-.5-.1-1.1-.3-3,.8-2.9-1.4-.1-.3,2-.7,3.6-1.2h0Z"/>
  <path class="st1" d="M443.11,142.91c0-2.6,0-5.3.1-7.9,0-.4.8-.8,1.3-1,.1,0,.7.6.8,1,.2.6.1,1.3.1,2,.2,2.7,1.6,4.1,4.2,4.2h2.5c1.8.1,2.9-.6,2.7-2.6,0-.3-.1-.7,0-1,.3-1.3-.8-3.2,1.4-3.5.2,0,1,2.2,1,3.3.1,4.3.1,8.6,0,12.9,0,.5-.9,1.1-1.4,1.6-.3-.5-.9-1-1-1.5-.2-.8,0-1.6,0-2.5q-.1-4.4-4.4-4.4c-4.2,0-5.3-.7-5,4.8,0,.7.2,1.4-.1,2-.3.6-.9,1.1-1.3,1.7-.4-.5-.9-1-1-1.5-.2-1.3-.1-2.6-.1-4v-3.5q.1-.1.2-.1h0Z"/>
  <path class="st1" d="M290.11,152.11c-2.5-.4-5-1.2-6.1-4.1-.2-.7,0-1.5.1-2.3.6.4,1.5.5,1.8,1.1,1.5,2.5,3.8,3,6.5,2.6,1.6-.2,3.1-1.1,3-2.8-.1-.9-1.5-2-2.6-2.5-1.5-.7-3.2-.8-4.8-1.4-2.5-.9-4-2.8-3.8-4.6.1-2,1.7-3.6,4.3-4.3,3.1-.9,6.4.1,8.1,2.4.4.6.3,1.5.4,2.2-.7-.2-1.6-.2-2-.6-1.8-2.1-4.1-2.2-6.4-1.5-.8.2-1.7,1.3-1.7,2s.9,1.8,1.6,2.1c1.3.6,2.9.8,4.3,1.2,3.8,1.1,5.5,3,5,5.7-.7,3-3.9,5.1-7.7,4.8h0Z"/>
  <path class="st1" d="M113.81,142.41c0,2.6.1,5.3,0,8,0,.5-.5,1.3-1,1.5-.5.1-1.3-.2-1.7-.6-.7-.7-1.2-1.6-1.7-2.4-1.8-2.8-3.6-5.6-5.5-8.3-.4-.6-1.2-1.1-1.8-1.6-.1.8-.4,1.5-.4,2.3-.1,3.1,0,6.3-.1,9.5,0,.4-.5.8-.7,1.1-.4-.4-1.2-.8-1.2-1.2-.1-5.1-.1-10.3-.1-15.4,0-.5.6-1.3,1-1.4.5-.1,1.3.2,1.7.6.8.8,1.4,1.8,2.1,2.8,1.8,2.8,3.6,5.6,5.4,8.3.3.5,1,.7,1.4,1,.1-.5.3-1,.3-1.4,0-2.8,0-5.6.1-8.5,0-1-.6-2.6,1.2-2.7.3,0,.8,1.9.9,2.9.3,1.8.2,3.6.1,5.5h0Z"/>
  <path class="st1" d="M482.81,142.41v8c0,.5-.5,1.3-.9,1.5-.5.1-1.3-.2-1.7-.6-.7-.7-1.2-1.6-1.7-2.4-1.7-2.6-3.4-5.3-5.2-7.9-.5-.8-1.3-1.4-2-2-.1.9-.4,1.9-.4,2.8-.1,3,0,6-.1,8.9,0,.4-.8.8-1.2,1.2-.2-.4-.7-.8-.7-1.1-.1-5.1-.1-10.3,0-15.4,0-.5.5-1.3,1-1.5.5-.1,1.3.2,1.7.6.7.7,1.2,1.6,1.7,2.4,1.9,2.9,3.8,5.8,5.8,8.7.3.5,1,.7,1.5,1.1.1-.5.3-1,.3-1.4,0-2.5-.1-5,.1-7.5.1-1.3-.9-3,1.2-3.8.3,1.3.8,2.7.9,4-.2,1.3-.3,2.8-.3,4.4h0Z"/>
  <path class="st1" d="M273.51,143.11v7c0,.6-.5,1.6-.7,1.6-.7,0-1.8-.2-2.1-.7-2-2.7-3.8-5.5-5.6-8.2-.7-1.1-1.5-2.2-2.2-3.3-.2-.2-.5-.3-.8-.5-.1.3-.4.6-.4.9-.1,2.3-.1,4.6-.1,7,0,1.3,0,2.7-.2,4,0,.3-.7.6-1,.9-.3-.4-.8-.7-.8-1.1-.1-5.1-.1-10.3,0-15.4,0-.5.6-1.3,1-1.4.5-.1,1.4.2,1.7.7,2.4,3.4,4.6,6.9,6.9,10.4.3.5.9.9,1.4,1.3.3-.7.9-1.3.9-2,.1-3,0-6,.1-9,0-.4.4-.8.7-1.2.4.4,1.2.8,1.2,1.2,0,2.5-.1,5.2,0,7.8-.1,0,0,0,0,0h0Z"/>
  <path class="st1" d="M219.01,133.51c.9.4,2.6.9,4.1,1.8,1,.6,2.1,1.8,1,3.2-.1.1-1.5-.7-2.2-1.3-1.9-1.6-4-1.5-6.1-.8-.8.2-1.5,1.3-1.7,2.1-.1.5.8,1.4,1.4,1.8.8.5,1.9.7,2.8.9.8.2,1.6.4,2.4.6,3.1,1,4.8,2.9,4.7,5.1-.1,2.3-2.5,4.5-5.5,5-3.8.7-7.5-1.2-8.4-4.5-.1-.5.2-1.2.3-1.8.5.2,1.3.4,1.5.8,1.2,2.4,3.2,3.2,5.8,3,.8-.1,1.8-.2,2.3-.7.7-.6,1.5-1.6,1.4-2.3-.1-.8-1-1.6-1.8-2.1s-1.9-.6-2.8-.9c-.6-.2-1.3-.2-1.9-.4-3.2-1-4.8-2.8-4.6-5,.3-2.5,3.1-4.5,7.3-4.5h0Z"/>
  <path class="st1" d="M417.41,143.41c0-7.5,5.6-11.7,11.3-9.2,1,.4,2,1.2,2.7,2,.5.6.5,1.7.7,2.6-.8-.4-1.7-.6-2.3-1.1-2.6-2-5.6-2.2-7.8-.5-2.2,1.7-3,5.7-1.7,8.7,1.1,2.6,3.6,4.2,6.4,3.5,1.5-.4,2.7-1.7,4-2.5.6-.4,1.3-.6,1.9-.9,0,.8.1,1.6-.2,2.2-1.6,3-4.3,4.1-7.5,3.8-3.4-.3-5.9-2.1-7-5.5-.3-1.2-.4-2.6-.5-3.1h0Z"/>
  <path class="st1" d="M75.41,152.41c-.4-.9-.8-1.3-.8-1.6.4-1.4.9-2.8,1.4-4.2,1.3-3.6,2.6-7.2,4.1-10.7.4-.9,1.5-1.5,2.2-2.3.8.8,1.8,1.5,2.2,2.4,1.9,4.6,3.7,9.2,5.5,13.9.2.6-.2,1.4-.4,2-.6-.4-1.3-.8-1.9-1.3-.2-.2-.3-.6-.4-.9-.6-2.4-2.1-3.4-4.7-3.3-2.8,0-4.9.4-5.5,3.6-.1.7-1,1.4-1.7,2.4h0ZM82.01,144.11c2.5,0,3-.5,2.2-2.9-.5-1.5-1.3-2.9-2-4.3-.7,1.5-1.4,2.9-1.9,4.5-.8,2.2-.5,2.7,1.7,2.7h0Z"/>
  <path class="st1" d="M132.51,133.51c2.8,0,5.6,1.8,6.3,4.1.1.4-.2.9-.5,1.3-.1.1-.7.1-.9-.1-.5-.4-.9-1-1.4-1.4-2-1.8-4.3-1.6-6.6-.7-2.1.9-2.8,2.7-3,4.8-.6,5.4,2.2,8.8,6.8,7.9,1.4-.3,2.7-1.7,4-2.6.6-.4,1.3-.5,1.9-.8-.1.8.1,1.7-.2,2.3-2,3.5-6.1,4.8-10,3.2-3.8-1.5-5.9-6.2-4.9-10.9,1-4.3,4.3-7.1,8.5-7.1h0Z"/>
  <path class="st1" d="M19.91,150.91c-.3.3-.6.7-.9.9-.2.1-.7-.1-.9-.3-.4-.5-.7-1.1-1-1.6-.7-1.1-1.2-2.9-2.1-3.1-1.8-.5-3.9-.3-5.9-.1-.6.1-1.2,1-1.6,1.7-.6,1-.9,2.1-1.5,3.1-.2.3-.9.5-1.3.4-.3-.1-.7-.8-.6-1.1,1.9-5.3,3.8-10.6,6-15.8.8-2,2.7-2,3.7.1,2,4.5,3.8,9.2,5.6,13.8.1.6.3,1.2.5,2h0ZM11.91,144.11c2.4.1,2.8-.5,2-2.9-.5-1.4-1.3-2.8-2-4.2-.7,1.5-1.5,2.9-2,4.4-.7,2.1-.2,2.7,2,2.7h0Z"/>
  <path class="st1" d="M687.91,152.11c-4.2,0-7.1-2.1-8.3-5.7-2-6.2.9-11.8,6.5-12.8,3.2-.6,6.6,1,7.9,3.8.2.4.1,1-.2,1.3-.2.2-.9.1-1.3,0-.3-.1-.5-.4-.7-.6-3.1-2.4-6.2-2.7-8.4-.7-2.3,2.1-2.5,7.6-.5,10.1,1.8,2.2,5.7,2.6,8.1.8.6-.5,1-1.3,1.6-1.8.4-.3,1-.3,1.6-.5,0,.6.3,1.3.1,1.8-1.3,3-3.8,4-6.4,4.3h0Z"/>
  <path class="st1" d="M53.81,132.81c1,1.3,1.6,1.9,1.8,2.6,1.3,3.6,2.5,7.2,3.8,10.8.2.7.9,1.2,1.3,1.8.3-.5.8-1,1-1.6,1.2-3.3,2.4-6.5,3.7-9.8.3-.9.8-1.8,1.3-2.6.2-.2.9-.2,1.3-.2.2,0,.4.6.4.8-.2.8-.5,1.6-.8,2.3-1.7,4.3-3.3,8.7-5.2,13-.4.9-1.5,1.7-2.4,2-.5.1-1.6-1.1-1.9-1.9-1.8-4.8-3.5-9.7-5.1-14.6,0-.5.4-1.2.8-2.6h0Z"/>
  <path class="st1" d="M378.71,133.51c1.8,0,3.6-.1,5.5.1.4,0,.9.7,1.2,1.2.1.1-.5.9-.9,1-1.5.5-3.8.3-4.4,1.3-.8,1.4-.4,3.5-.5,5.3,0,2.6,0,5.3-.1,7.9,0,.5-.6,1-1,1.4-.4-.5-1-.9-1.1-1.4-.1-2.6-.1-5.3-.1-7.9,0-1.2-.1-2.3,0-3.5.1-2.1-.7-3.1-2.9-3-.6,0-1.4,0-2-.2-.4-.1-1-.8-.9-1,.2-.5.7-1.3,1.1-1.3,2.1.1,4.1.2,6.1.1h0Z"/>
  <path class="st1" d="M592.31,133.01c1.2.9,2,1.2,2.4,1.8,1.3,1.7,2.5,3.5,3.6,5.3,1,1.5,1.7,1.2,2.6-.1,1.4-2,2.8-4,4.3-6,.2-.3.9-.2,1.4-.3,0,.5.3,1.2,0,1.6-1.1,1.8-2.3,3.6-3.7,5.3-2,2.4-2.9,5.1-2.5,8.2.1.8-.1,1.6-.3,2.4,0,.2-.5.4-.8.5-.2,0-.7-.2-.7-.4-.2-.8-.4-1.6-.3-2.4.4-3.4-.8-6.1-2.8-8.7-1.2-1.6-2.3-3.2-3.3-4.9-.1-.5.1-1.1.1-2.3h0Z"/>
  <path class="st1" d="M519.61,142.61c0-2.5-.1-5,0-7.5,0-.5.7-.9,1.1-1.3.3.5,1,1,1,1.5.1,3.5,0,7,.1,10.4q.1,3.7,4,3.8c1.3,0,2.7,0,4,.2.3,0,.8.7.8,1,0,.4-.5,1-.8,1.1-3,.1-6,.2-8.9,0-.5,0-1.2-1.5-1.2-2.3-.2-2.2-.1-4.5-.1-6.9h0Z"/>
  <path class="st1" d="M643.81,143.11c0,2.5.1,4.9,0,7.4,0,.4-.7.8-1.1,1.3-.3-.3-.9-.6-.9-1,0-5.4,0-10.9.1-16.3,0-.3.7-.8,1-.7.3,0,.8.6.9.9-.1,2.9-.1,5.7,0,8.4q-.1,0,0,0h0Z"/>
  <path class="st1" d="M616.61,152.31c-.1.5-.2,1.2-.4,1.8-.1.3-.4.5-.7.7-.2-.3-.6-.7-.6-.8,1.4-1.4-2.5-2.8,0-4.1.3-.1,1.1.5,1.4.9.3.3.2.9.3,1.5h0Z"/>
  <path class="st0" d="M341.01,136.01c3.4,0,4.6.7,4.8,2.4.2,2-1.3,3-4.7,3.1h-1.5c-1.9.1-3.2-.4-3.1-2.7.1-2.2.4-2.6,3.1-2.8.4,0,.9.1,1.4,0h0Z"/>
  <path class="st0" d="M175.51,142.81v-2c0-3,.9-4.6,2.5-4.8,4.4-.4,6.8.8,7.5,4,.3,1.4.3,3,.1,4.4-.6,4.2-5.2,6.7-9.1,4.8-.5-.2-.9-1-1-1.5v-4.9h0Z"/>
  <path class="st0" d="M315.71,149.51c-3.8,0-6.2-2.6-6.2-6.7s2.3-6.7,6.2-6.8c3.9,0,6.1,2.5,6.2,6.7,0,4.3-2.3,6.8-6.2,6.8h0Z"/>
  <path class="st0" d="M35.51,136.01c2.3-.2,4.7.4,5.8,3.2,1.1,2.6.4,7.3-1.2,9-1.2,1.2-6.2,2-7.6,1.1-.5-.4-.8-1.4-.9-2.1-.1-2.5-.1-5,0-7.5.1-3.6.2-3.7,3.9-3.7h0Z"/>
  <path class="st0" d="M555.11,142.91c0,4.1-2.5,6.7-6.3,6.7s-6.2-2.6-6.2-6.8,2.5-6.8,6.3-6.7c3.7,0,6.2,2.7,6.2,6.8h0Z"/>
  <path class="st0" d="M501.61,149.51c-3.9.1-6.3-2.4-6.3-6.6s2.1-6.8,6-6.9c3.8-.1,6.3,2.5,6.4,6.6,0,4.2-2.3,6.9-6.1,6.9h0Z"/>
  <path class="st0" d="M82.01,144.11c-2.2,0-2.6-.5-1.8-2.7.6-1.5,1.3-3,1.9-4.5.7,1.4,1.5,2.8,2,4.3.9,2.4.4,3-2.1,2.9h0Z"/>
  <path class="st0" d="M11.91,144.11c-2.2-.1-2.7-.6-2-2.7.5-1.5,1.3-2.9,2-4.4.7,1.4,1.5,2.7,2,4.2.8,2.5.4,3-2,2.9h0Z"/>
</svg>