<?xml version="1.0" encoding="UTF-8"?>
<svg id="Layer_1" xmlns="http://www.w3.org/2000/svg" version="1.1" viewBox="0 0 104.31 61.9">
  <!-- Generator: Adobe Illustrator 29.1.0, SVG Export Plug-In . SVG Version: 2.1.0 Build 142)  -->
  <defs>
    <style>
      .st0 {
        fill: #fff;
      }
    </style>
  </defs>
  <path class="st0" d="M87.4,50.4c-9.4,5.4-21.8,8.4-35.1,8.4-11.1,0-21.6-2.1-30.2-5.9,7.2-3.6,14.6-10.4,19.3-16l2.2-2.7,4.2-.4s-7.5,7.2-4.9,10.9c.3.5.6.7.9.9,1,.6,2.9,1.1,6.7-2.8,0,0,.6,5.7,5.6,2.5,1.5-1,4.3-3.9,4.3-3.9,0,0-.3,3.3,2.5,4,2.7.7,4.3-1.1,6.6-3.5,0,0,.3,2.9,3.3,3.7,2.9.8,5.6-.9,8.8-3.5,3.2-2.7,6.6-7.3,6.6-7.3,0,0,.1,5.3-2.1,6.5-2.3,1.2-3.5,2.1-2.9,3.2.7,1.1,3,1.4,6.2-2l7.9-.1c-2.6,2.9-5.8,5.6-9.9,8M7,48.7c-.3-.7-1.6-4.6,3.6-8,6.3-4.1,28.8-6.1,28.8-6.1-5.6,6.7-14.8,14.2-22,16.8-7.3,2.5-10-1.7-10.4-2.7M26.8,23.8c-.2-.1,1.4-5.1,12.3-8.7,10.1-3.3,15.9-2.9,15.9-2.9-.1,2.8-13.2,7.6-13.2,7.6-9.4,3.4-12.8,4-15,4M54.1,35.2s-5.1,6.1-6.7,7.1c-1.3.7-1.5-.1-1.6-.6,0-.1.1-.6.2-.8,1.4-3.1,5.8-6.8,7.5-7,1.8-.1.6,1.3.6,1.3M73.2,36.7c1.1-2.7,3.8-3.9,3.8-3.9.9-.4,1.2,0,1.2,0,.9,1.4-2.3,4.7-4,5.3-1.7.6-1-1.4-1-1.4M3,30.9c0-7.3,5-14.2,14.1-19.5C26.5,6,39,3,52.2,3s25.8,3,35.2,8.4c9.1,5.3,14.1,12.2,14.1,19.5,0,3.1-.9,6.1-2.6,8.9h-8.6l1.7-8.7-3.7.1s-4.1,6.1-9.6,9.9c0,0-6.4,5.1-6.8-1.3,0,0,2.2,2.5,5.9-.8,3.4-3,4.2-6.1,1.9-8.2-2.8-2.5-7.3,2.4-7.5,2.6,0,0-2.9,2.7-3.5,5.9,0,0-2.8,3.3-4,2.2-1.2-1.1.9-4.7.9-4.7l4.2-6.7h4.3l1.4-2.5h-4.2l2-3.4h-3.4l-2.2,3.3h-3.7l-1.6,2.5h3.5s-5.6,9.6-9.4,12c0,0-2.7,2.1-2-.8,0,0,3.3-5.8,6.5-9.9h-3.7l-1.3,1.6s.3-1.8-3.5-1.6l-6.5.1,5.5-7.1h-4s-3.3,2.9-13.8,3.2c0,0-2.5,0-4.2-1.1,0,0,13.2-1.7,25.1-8.7,0,0,6.8-3.8,4.6-7.7,0,0-1.4-2.9-10.3-1.3-9,1.6-24.8,6.2-25.9,15.3,0,0-4.4.2-7-.6l-1.3,2.6s1.4,1,9.3.8c0,0,2,3.3,8.3,3.2,6.4,0,10-.7,12.2-1.5l-2.2,3-3.2.2c-2.4.2-23.2,1.9-30,6.3-1.2.8-2.1,1.6-2.9,2.4-2.2-3-3.2-6.2-3.2-9.5M88.9,8.8C79.1,3.1,66.1,0,52.2,0S25.4,3.1,15.6,8.8C5.5,14.7,0,22.5,0,30.9c0,4.3,1.4,8.4,4.2,12.2-1.1,2.5-.9,5-.2,6.9.8,2,3.7,5.4,9.1,5.4h0c1.6,0,3.3-.3,5.1-.9,9.4,4.8,21.3,7.4,33.9,7.4,13.8,0,26.8-3.1,36.6-8.8,10.1-5.8,15.6-13.7,15.6-22.1.2-8.5-5.4-16.3-15.4-22.2"/>
</svg>