<?xml version="1.0" encoding="UTF-8"?>
<svg id="Layer_1" xmlns="http://www.w3.org/2000/svg" version="1.1" viewBox="0 0 482.57 84.92">
  <!-- Generator: Adobe Illustrator 29.1.0, SVG Export Plug-In . SVG Version: 2.1.0 Build 142)  -->
  <defs>
    <style>
      .st0 {
        fill: #fff;
      }
    </style>
  </defs>
  <g>
    <path class="st0" d="M155.53,0c1.28.39,1.52,2.11,1.47,3.37-.23,5.27-4.21,13.01-5.1,18.5-2.08,1.35-42.23-.74-49.39.11-2.82.33-4.69,1.29-6.52,3.48l-8.82,33.82,1.27,1.81,29.45.77c2.47-4.69,1.66-11.28,5.64-14.86h20.5c.07,1.09.63,1.98.49,3.11-.71,5.57-6.04,24.2-8.19,29.69-.55,1.4-.85,2.87-2.29,3.71l-60.54.51c-9.42-2.36-13.41-7.74-12.36-17.42.99-9.21,10.91-44.41,14.6-53.39,1.95-4.74,5.35-8.81,10.04-10.96.84-.39,6.39-2.26,6.74-2.26h63Z"/>
    <path class="st0" d="M246.03,1l-5.1,20.9c-15.71,1.19-32.9-1.22-48.44.06-2.15.18-5.4.45-6.95,2.05-3.61,3.76-6.49,26.6-9.47,32.64-.83,1.48,1.38,5.35,2.46,5.35h50.5l-5.66,22.05-61.87-.02c-7.17-.78-12.85-8.1-12.27-15.24,5.88-17.05,8.46-36.78,14.51-53.57,1.73-4.8,8.39-14.22,13.78-14.22h68.5Z"/>
  </g>
  <g>
    <path class="st0" d="M249.59,22.92l5.75-20.99c2.26-.26,4.43-.88,6.72-1.05,12.86-.92,35.33-1.13,48.02.06,10.99,1.03,19.8,7.4,18.44,19.39-1,8.78-10.65,43.31-14.14,51.88-2.13,5.24-9.49,12.71-15.29,12.71h-65c-1.07,0-1.47-2.03-1.33-3.24.29-2.44,4.96-18.11,6.47-18.62l49.91-.09c3.35-.07,4.67-2.49,5.75-5.25,1.79-4.56,7.28-24.03,7.62-28.44.14-1.79-.34-6.36-2.43-6.36h-50.5Z"/>
    <path class="st0" d="M421.59,1.92l-5.13,20.87-54.23.27-5.64,16.86h19.5c.62,0,1.4,1.49,1.46,2.41.29,4.15-5.22,14.37-5.06,19.49l-21.77.23-6.13,22.87h-21.5c-.72,0-1.94-2.17-1.32-3.22,7.55-21.06,10.34-47.28,18.34-67.76,1.52-3.9,8.82-12.02,12.98-12.02h68.5Z"/>
  </g>
</svg>