<?xml version="1.0" encoding="UTF-8"?>
<svg id="Layer_1" xmlns="http://www.w3.org/2000/svg" version="1.1" viewBox="0 0 261.12 144.86">
  <!-- Generator: Adobe Illustrator 29.1.0, SVG Export Plug-In . SVG Version: 2.1.0 Build 142)  -->
  <defs>
    <style>
      .st0 {
        fill: none;
      }

      .st1 {
        fill: #9a9a9a;
      }

      .st2 {
        fill: #0b0d0e;
      }

      .st3 {
        fill: #fff;
      }
    </style>
  </defs>
  <g id="_7U8mib">
    <g>
      <path class="st3" d="M9.29,124.64c.02-2.1.25-5.37,1.42-8.68,3.03-8.63,9.54-9.6,10.26-9.69,3.27.02,6.54.04,9.82.05-3.51-2.06-10.21-6.92-15.63-17.84-2.44-4.91-3.98-9.76-4.98-13.7-2.27-.14-4.05-.95-5.2-1.62-1.9-1.11-3.51-2.05-4.39-4.62C0,66.81-.03,65.05.02,63.96c0-.66.01-1.32.02-1.98.05-1.27.26-3.45,1.15-5.55,0,0,.44-1.03,1.07-1.93,1.46-2.08,5.48-3.5,10.71-3.32,1.64-3.52,4.19-8.3,7.84-12.94,3.35-4.25,6.25-6.62,9.44-9.2,6.04-4.88,11.01-7.58,13.03-8.64,16.84-8.89,30.98-12.87,30.98-12.87C99.16.5,120.7-.03,129.98,0c5.49.02,22.67.28,45.1,4.86,41.95,8.57,55.79,22.55,62.93,31.42,4.5,5.59,7.81,10.94,9.84,14.48.82-.02,1.99,0,3.38.28,2.83.55,5.19,1.02,6.94,3.29,3.27,4.25,3.87,14.2,1.52,17.79-.59.91-1.39,1.27-2.97,1.98-2.45,1.1-4.55,1.31-5.95,1.32-1.88,5.65-5.71,15.22-12.65,23.02-3.98,4.46-7.82,7.03-10.77,8.55,4.01.02,8.02.04,12.03.07,1.2.09,3.62.56,5.99,3.16,5.12,5.61,5.11,15.78,5.09,16.45-.02,1.69-.13,7-2.61,11.71-3.28,6.23-8.04,6.38-8.77,6.38-99.65.06-119.36.07-119.42.07t0,0c-.11.04-26.9.05-95.93,0-5.71.3-10.83-3.66-13.12-10.53-1.21-3.61-1.38-7.22-1.32-9.67h0ZM18.62,51.41c11.61,0,23.21,0,34.82,0,.63,0,1.25-.16,1.88-.24,1.69.55,3.28.59,4.85-1.06,2.65-2.78,5.55-4.85,8.52-6.61,10.48-6.23,21.28-10.11,32.36-12.32,9.37-1.87,18.76-2.79,28.18-2.98,7.57-.16,15.14.46,22.69,1.64,8.61,1.34,17.15,3.33,25.54,6.72,7.64,3.08,15.24,6.44,22.1,12.97,1.84,1.76,3.63,2.36,5.66,1.71.38.06.77.18,1.16.18,11.8,0,23.6,0,35.4-.02.19.03.39.13.58.08.64-.18,1.54.63,1.86-.56.3-1.12-.5-1.95-.94-2.73-3.84-6.85-8.54-11.77-13.61-15.89-11.2-9.09-23.11-14.75-35.32-18.84-10.74-3.6-21.62-5.92-32.54-7.71-9-1.48-18.01-2.35-27.05-2.59-12.16-.32-24.28.65-36.39,2.63-7.2,1.18-14.36,2.68-21.51,4.47-10.33,2.59-20.5,6.3-30.43,11.64-8.57,4.61-16.84,10.16-24.2,18.77-2.5,2.93-4.78,6.27-6.76,10.73h3.14,0ZM15.08,74.73c-.27-.05-.68-.1-1.16-.08-.92.04-1.06.27-1.1.35-.18.41-.07,1.09.19,1.93.53,1.67,1.05,3.36,1.69,4.94,3.55,8.84,8.78,14.52,14.31,19.56,3.37,3.07,7,5.29,10.53,7.93-3.31.17-6.6.1-9.88.19-3.2.08-6.43-.53-9.61.39-3.68,1.06-6.35,4.47-7.6,10.15-1.26,5.75-.64,11.12,2,15.71,2.22,3.87,4.99,5.37,8.24,5.37,68.12-.03,136.25-.02,204.38,0,4.04,0,8.08.14,12.11-.09,5.28-.31,10.17-8.35,9.21-17.77-.81-8.03-4.9-13.68-10.27-13.75-4.33-.05-8.66-.01-12.99-.01h-3.97c.39-.72.81-1.08,1.25-1.36,5.59-3.54,10.89-7.93,15.72-13.74,3.58-4.31,6.77-9.21,8.76-15.8,1.23-4.06,1.19-4.09-1.56-3.9-.14-.02-.29-.06-.43-.06-25.96,0-51.92,0-77.88.02-.04,0-.36,0-.79-.01-1.54-.02-4.24-.06-6.79-.03-1.64.01-3.87.06-6.59.19.29.34.6.53.92.62,3.01.84,6.03,1.68,9.05,2.46.95.24,1.74.87,1.96,2.38.24,1.63-.5,2.55-1.3,3.3-2.21,2.09-4.62,3.29-7.08,4.23-10.42,3.95-20.98,5.21-31.68,4.43-8.67-.64-17.23-2.34-25.57-6.29-4.59-2.17-9.02-4.99-12.75-10.03-.64-.87-1.23-1.3-2.07-1.29-5.64.05-11.29.02-16.93.03-.46,0-.92.06-1.59.11,1,2.59,2.2,4.38,3.51,5.98,4.36,5.35,9.34,8.67,14.51,11.26,12.99,6.52,26.37,9.05,39.9,9.83,9.38.54,18.75-.03,28.09-1.69,6.96-1.24,13.84-3.08,20.62-5.95,3.95-1.67,7.82-3.75,11.58-6.32.81-.56,3.12.91,3.22,2.16.14,1.71-.87,2.04-1.57,2.6-3.23,2.62-6.61,4.59-10.11,5.99-13.69,5.47-27.63,7.7-41.68,8.38-7.97.39-15.94-.23-23.89-1.39-8.32-1.22-16.61-2.91-24.74-6.07-8.28-3.22-16.47-6.85-24-13.52-2.87-2.54-5.69-5.25-7.81-9.31-.15-.29-.73-1.37-1.7-1.95-.65-.39-1.24-.4-1.59-.38-11.7.11-23.39.21-35.09.32h0ZM188.17,51.48c.02-.15.06-.31.08-.46-.24-.24-.46-.51-.71-.72-4.69-4.08-9.7-6.86-14.83-9.04-13.24-5.64-26.77-7.65-40.39-7.88-9.77-.17-19.52.77-29.2,3.11-8.72,2.1-17.29,5.09-25.46,10.56-1.64,1.1-3.31,2.21-4.96,4.28.51.09.69.16.87.16h20.87c.64,0,1.25-.27,1.85-.6,9.14-4.98,18.59-7.15,28.18-7.75,5.15-.32,10.3-.25,15.45.31,6.76.73,13.42,2.24,19.96,5.08,3.71,1.61,7.29,3.52,11.31,3.11,5.64-.59,11.32-.15,16.99-.15h0ZM63.64,72.31h14.02c2.81,0,2.83,0,2.79-4.57,0-.85.29-1.84-.38-2.53-1.05-1.07-1.1-3.16-.09-4.2.44-.45.42-.98.42-1.58.01-1.26-.04-2.52.02-3.77.07-1.48-.33-1.85-1.19-1.85-10.46.04-20.93.04-31.38,0-.95,0-1.28.45-1.26,2.01.05,4.79.07,9.58,0,14.36-.03,1.87.43,2.18,1.46,2.17,5.2-.07,10.42-.03,15.62-.04h-.01ZM25.11,72.28c3.83-.4,8.94.77,14.02-.75,3.73-1.11,5.19-2.51,4.84-8.29-.05-.86-.04-1.72-.04-2.59-.01-2.59-.82-4.23-2.27-5.2-1.8-1.19-3.71-1.32-5.58-1.47-8.4-.68-16.82-.44-25.22.05-2.14.12-4.26.6-6.27,1.9-2.26,1.45-2.84,3.31-2.77,8.79.04,2.97.81,4.55,2.91,5.68,2.51,1.36,5.14,1.7,7.75,1.83,3.79.18,7.59.05,12.64.05h0ZM147.69,53.84c-5.16,0-10.32.05-15.47-.04-1.13-.02-1.56.51-1.52,2.39.11,4.39.2,8.79.12,13.17-.04,2.31.29,3.05,1.82,3.03,9.78-.13,19.56-.04,29.34-.08,3.02-.01,2.55.8,2.59-4.24.01-1.22.2-2.4-.85-3.28-.59-.5-.69-2.78.15-3.61.62-.61.63-1.21.63-2.04.01-1.02-.06-2.05.01-3.06.12-1.74-.25-2.29-1.36-2.27-5.16.09-10.32.04-15.47.04h0ZM119.07,72.33c3.05,0,5.14-.01,7.23,0,.64,0,1.12-.05,1.11-1.46-.04-5.18-.02-10.36,0-15.54,0-1.12-.27-1.5-.95-1.49-2.87.04-5.74.04-8.61,0-.77,0-1.02.47-1,1.67.04,2.04-.06,4.09.02,6.12.08,2.03-.28,2.42-1.49,1.77-5.16-2.79-10.34-5.45-15.53-8.12-1.06-.55-2.14-1.3-3.23-1.34-4.08-.16-8.17-.04-12.26-.1-.85,0-1.08.53-1.07,1.81.02,5.02.02,10.05,0,15.07,0,1.22.26,1.66,1.02,1.64,2.82-.05,5.64-.07,8.46,0,.87.02,1.08-.56,1.06-1.82-.04-2.12.06-4.25-.02-6.36-.07-1.76.37-1.75,1.19-1.31,2.48,1.34,4.96,2.75,7.49,3.89,5.76,2.62,11.28,7.27,16.61,5.57h0ZM185.43,72.25c3.79,0,7.58.12,11.36-.05,2.03-.09,4.06-.54,5.99-1.73,1.25-.77,2.17-2.23,2-4.39-.22-2.8-.74-5.55-1.21-8.28-.17-1.01-.79-1.5-1.36-2-1.73-1.51-3.65-1.62-5.52-1.82-7.83-.82-15.66-.66-23.48.03-1.83.16-3.67.48-5.38,1.83-.83.66-1.59,1.54-1.7,3-.2,2.48-.29,5.02-.24,7.52.05,2.15.9,3.63,2.17,4.25,1.06.53,2.16.98,3.25,1.21,4.68.97,9.42.19,14.12.42h0ZM238.29,53.47c-3.23-.19-7.31.45-11.39.56-1.65.05-3.28.54-4.84,1.54-1.95,1.25-2.44,2.57-2.13,5.96.05.58-.04,1.05-.12,1.58-.64,4.24.33,6.79,2.92,7.91,1.84.8,3.71,1.2,5.61,1.24,7.14.15,14.29.39,21.43,0,2.24-.12,4.45-.59,6.59-1.72,1.38-.73,2.37-2.15,2.19-4.62-.19-2.74-1.01-5.28-1.17-8.07-.04-.73-.51-1.3-.96-1.68-1.13-.94-2.3-1.65-3.59-1.83-4.55-.64-9.11-.85-14.54-.88h0ZM21.25,143.48c-.02.07-.04.14-.07.21h218v-.21H21.25ZM206.88,63.07c0,2.51.04,5.01-.01,7.52-.02,1.33.27,1.77,1.09,1.75,2.81-.06,5.63-.04,8.45.01.73.01,1.05-.36,1.05-1.6-.02-5.09-.03-10.18,0-15.27,0-1.22-.28-1.66-1.02-1.65-2.81.04-5.63.04-8.45,0-.81-.02-1.13.38-1.11,1.74.05,2.5.01,5.01.01,7.52h0Z"/>
      <path class="st0" d="M241.79,51.39c-11.8,0-23.6.02-35.4.02-.38,0-.77-.12-1.16-.18-.69-1.23-1.59-2.04-2.45-2.9-7.49-7.5-15.77-11.7-24.23-15.11-11.4-4.6-23.01-6.91-34.73-7.93-17.58-1.53-35.08-.4-52.43,4.69-9.77,2.86-19.37,6.79-28.4,13.67-2.71,2.07-5.43,4.15-7.66,7.51-.63.08-1.25.24-1.88.24H18.62c-.04-.85.39-1.2.68-1.69,2.89-4.84,6.25-8.68,9.87-11.95,10.23-9.25,21.31-14.79,32.64-19.08,18.52-7.03,37.35-10.26,56.34-11.26,19.38-1.02,38.69.24,57.91,4.58,13.5,3.05,26.82,7.39,39.72,14.7,7.73,4.38,15.2,9.66,21.74,17.82,1.59,1.98,3.26,3.91,4.26,6.88h.01Z"/>
      <path class="st0" d="M188.17,51.49c-5.66,0-11.35-.44-16.99.15-4.02.42-7.6-1.49-11.31-3.11-6.54-2.84-13.2-4.35-19.96-5.08-5.16-.55-10.3-.63-15.45-.31-9.59.6-19.04,2.77-28.18,7.75-.6.33-1.2.6-1.85.6h-20.87c-.19,0-.37-.06-.87-.16,1.65-2.07,3.32-3.18,4.96-4.28,8.17-5.47,16.74-8.46,25.46-10.56,9.68-2.34,19.43-3.28,29.2-3.11,13.63.23,27.16,2.24,40.39,7.88,5.13,2.18,10.14,4.96,14.83,9.04.25.21.48.48.71.72-.02.15-.06.31-.08.46h0Z"/>
      <path class="st3" d="M55.33,51.17c2.23-3.37,4.95-5.45,7.66-7.51,9.03-6.89,18.63-10.81,28.4-13.67,17.35-5.08,34.85-6.22,52.43-4.69,11.72,1.02,23.33,3.33,34.73,7.93,8.46,3.41,16.74,7.61,24.23,15.11.86.86,1.76,1.67,2.45,2.9-2.03.65-3.82.05-5.66-1.71-6.85-6.54-14.45-9.89-22.1-12.97-8.4-3.39-16.93-5.38-25.54-6.72-7.55-1.17-15.12-1.79-22.69-1.64-9.42.2-18.81,1.11-28.18,2.98-11.08,2.21-21.89,6.09-32.36,12.32-2.96,1.76-5.87,3.83-8.52,6.61-1.57,1.65-3.16,1.61-4.85,1.06Z"/>
      <path class="st0" d="M63.64,72.32c-5.2,0-10.42-.04-15.62.04-1.03.01-1.49-.29-1.46-2.17.07-4.79.06-9.58,0-14.36-.02-1.55.31-2.01,1.26-2.01,10.46.05,20.93.05,31.38,0,.87,0,1.26.37,1.19,1.85-.06,1.25,0,2.51-.02,3.77,0,.6.02,1.13-.42,1.58-1.01,1.03-.95,3.12.09,4.2.68.69.38,1.69.38,2.53.04,4.56.02,4.56-2.79,4.57h-14.02.01Z"/>
      <path class="st0" d="M25.11,72.29c-5.06,0-8.85.13-12.64-.05-2.61-.12-5.24-.47-7.75-1.83-2.09-1.13-2.86-2.71-2.91-5.68-.07-5.48.51-7.34,2.77-8.79,2.01-1.3,4.13-1.78,6.27-1.9,8.41-.49,16.82-.73,25.22-.05,1.87.15,3.79.28,5.58,1.47,1.46.97,2.26,2.61,2.27,5.2,0,.86,0,1.73.04,2.59.35,5.78-1.12,7.18-4.84,8.29-5.08,1.52-10.19.34-14.02.75h0Z"/>
      <path class="st0" d="M147.7,53.85c5.16,0,10.32.05,15.47-.04,1.12-.02,1.49.54,1.36,2.27-.07,1.01,0,2.04-.01,3.06,0,.83-.01,1.43-.63,2.04-.85.83-.74,3.11-.15,3.61,1.05.88.86,2.06.85,3.28-.04,5.04.42,4.23-2.59,4.24-9.78.04-19.56-.05-29.34.08-1.54.02-1.87-.72-1.82-3.03.07-4.39-.02-8.78-.12-13.17-.04-1.88.38-2.41,1.52-2.39,5.16.08,10.32.04,15.47.04h0Z"/>
      <path class="st0" d="M119.07,72.33c-5.34,1.7-10.85-2.95-16.61-5.57-2.52-1.15-5-2.55-7.49-3.89-.82-.44-1.26-.45-1.19,1.31.09,2.11-.01,4.24.02,6.36.02,1.26-.19,1.84-1.06,1.82-2.82-.07-5.64-.06-8.46,0-.76.01-1.02-.42-1.02-1.64.03-5.02.04-10.05,0-15.07,0-1.28.22-1.82,1.07-1.81,4.09.06,8.17-.07,12.26.1,1.08.04,2.17.79,3.23,1.34,5.18,2.67,10.37,5.34,15.53,8.12,1.21.65,1.57.26,1.49-1.77-.08-2.03.01-4.08-.02-6.12-.02-1.2.24-1.68,1-1.67,2.87.05,5.74.05,8.61,0,.68,0,.96.37.95,1.49-.02,5.18-.03,10.36,0,15.54.01,1.41-.46,1.47-1.11,1.46-2.09-.02-4.18,0-7.23,0h0Z"/>
      <path class="st0" d="M185.43,72.26c-4.7-.23-9.42.54-14.12-.42-1.1-.23-2.19-.68-3.25-1.21-1.27-.63-2.13-2.1-2.17-4.25-.06-2.5.04-5.04.24-7.52.12-1.46.87-2.34,1.7-3,1.7-1.34,3.55-1.67,5.38-1.83,7.83-.69,15.66-.85,23.48-.03,1.87.2,3.79.3,5.52,1.82.57.5,1.19.99,1.36,2,.47,2.73.99,5.48,1.21,8.28.17,2.16-.75,3.62-2,4.39-1.93,1.19-3.97,1.64-5.99,1.73-3.79.17-7.57.05-11.36.05h0Z"/>
      <path class="st0" d="M238.29,53.48c5.43.03,9.99.24,14.54.88,1.29.18,2.45.89,3.59,1.83.45.38.92.95.96,1.68.16,2.79.99,5.33,1.17,8.07.17,2.47-.81,3.89-2.19,4.62-2.14,1.12-4.35,1.59-6.59,1.72-7.14.39-14.29.15-21.43,0-1.91-.04-3.77-.44-5.61-1.24-2.6-1.12-3.56-3.67-2.92-7.91.08-.53.18-1,.12-1.58-.3-3.39.19-4.71,2.13-5.96,1.56-1,3.18-1.49,4.84-1.54,4.08-.12,8.16-.76,11.39-.56h0Z"/>
      <path class="st3" d="M21.25,143.48h217.93v.21H21.18c.02-.07.04-.14.07-.21Z"/>
      <path class="st0" d="M206.88,63.07c0-2.51.04-5.01-.01-7.52-.02-1.36.3-1.76,1.11-1.74,2.81.06,5.63.05,8.45,0,.74,0,1.03.42,1.02,1.65-.02,5.09-.02,10.18,0,15.27,0,1.25-.31,1.62-1.05,1.6-2.81-.05-5.63-.07-8.45-.01-.82.02-1.12-.42-1.09-1.75.05-2.5.01-5.01.01-7.52h0Z"/>
      <path class="st3" d="M34.82,133.38c.46-1.25.77-2.12,1.1-2.97.54-1.37.24-2.12-.68-2.17-2.19-.11-4.37-.11-6.56-.15-.63,0-.86.85-1,1.5-.86,3.92-2.68,4.32-4.98,3.53,1.85-4.85,3.68-9.63,5.49-14.42.24-.64.55-.78.97-.77,3.79.05,7.58,0,11.38.18.95.04,2.26-.16,2.6,1.83.33,1.94-.55,3.38-1.35,4.66-.31.49-.66,1-1.05,1.26-.59.38-.84.73-.57,1.87.21.92-.25,1.77-.54,2.59-.32.89-.81,1.68-.89,2.82.72.25.99-.59,1.34-1,3.79-4.39,7.55-8.83,11.33-13.25,1.63-1.9,3.48-.66,5.22-.87.37-.04.34.65.38,1.09.42,4.34.84,8.68,1.25,13.02.03.3.07.85.01.89-1.01.71-2.09.17-3.13.35-.61.1-.78-.51-.78-1.28,0-1.53-.55-1.71-1.34-1.66-1.56.09-3.12.12-4.67,0-1.79-.13-3.49-.03-4.82,2.3-.32.55-.75.65-1.21.64-2.41-.02-4.82,0-7.5,0h0ZM34.82,120.9v-.07c-.97,0-1.94-.02-2.91,0-.72.02-2.26,2.53-2.27,3.67,0,.75.33.63.59.63,2.18-.04,4.36-.03,6.54-.17.77-.05,1.52-.39,2.03-1.54.74-1.68.61-2.36-.64-2.5-1.11-.13-2.22-.03-3.34-.03h0ZM48.2,127.24c.06.17.11.35.16.52h2.73c2.11.01,2.94-1.66,2.51-5.03-.01-.08-.01-.15-.02-.23-.07-.91-.29-1.31-.84-.65-1.51,1.8-3.02,3.6-4.53,5.39h0Z"/>
      <path class="st3" d="M118.37,127.72h-5.29c.25-2.21.94-2.93,2.23-2.84,2.51.16,5.03.05,7.57.05-1.35,6.03-4.05,8.44-7.72,8.45-2.34,0-4.67.02-7,.02-.34,0-.68-.02-1.02-.08-3.14-.58-3.46-2.06-2.03-6.58,2.06-6.46,5.29-9.05,9.62-8.88,2.67.11,5.35-.23,8.02.26.92.17,1.85.46,1.69,2.43-.14,1.68-.63,2.96-1.93,2.67-.58-.13-1.16,0-1.75-.04-.2-.01-.58.08-.46-.53.43-2.1-.58-1.8-1.22-1.83-1.8-.08-3.6,0-5.4-.04-1.76-.05-3.11.91-3.93,3.58-.41,1.33-.94,2.56-1.42,3.83-.54,1.43-.14,2,.74,2.14,2.43.39,4.86.38,7.28-.05.85-.15,1.38-.94,2.01-2.54v-.02Z"/>
      <path class="st3" d="M90.99,121.62c-1.22,3.21-2.44,6.05-3.4,9.09-.68,2.13-1.52,3.03-2.96,2.67-.46-.12-.94-.02-1.68-.02,1.96-5.14,3.8-9.98,5.64-14.82.14-.37.32-.6.58-.6,1.6,0,3.2,0,4.81.04.48.01.58.74.77,1.26,1.28,3.42,2.55,6.83,3.94,10.56,1.07-2.78,2.24-5.21,2.99-7.94,1-3.66,2.55-4.78,4.9-3.69.16.38-.09.75-.23,1.12-1.6,4.21-3.23,8.38-4.8,12.62-.4,1.08-.87,1.32-1.61,1.51-3.2.8-5.48-.71-6.73-5.85-.48-2-1.38-3.75-2.21-5.95h0Z"/>
      <path class="st3" d="M133.89,127.83c-.99,2.32-.15,2.7.87,2.72,1.7.04,3.41.03,5.11-.05.53-.02,1.08-.19,1.56-.51.56-.36,1.06-1.14.94-2.14-.12-.95-.79-.69-1.25-.72-2.09-.14-4.18-.16-6.27-.35-1-.09-2.28-.09-2.65-1.83-.41-1.91.57-3.34,1.39-4.58.58-.87,1.29-1.46,2.06-1.7,3.76-1.19,7.55-1.14,11.32-.4,1.54.3,1.88,2.16.94,4.06-.62,1.25-1.45.6-2.17.62-.51.01-1.64.93-1.3-1.44.07-.51-.45-.73-.8-.75-1.95-.08-3.89-.27-5.83.09-.33.06-.67.26-.96.52-.38.34-.8.82-.74,1.61.07,1,.64.76,1.05.8,2.38.22,4.77.27,7.14.64,2.33.36,2.68,2.03,1.25,5.11-1.08,2.33-2.61,3.25-4.28,3.57-3.25.61-6.51.69-9.75.09-2.03-.37-2.5-2.12-1.43-4.61.22-.51.45-.76.83-.76.92.01,1.83,0,2.97,0h0Z"/>
      <path class="st3" d="M219.43,132.12c.4-4.89.75-4.53,4.32-4.1-.97,2.34.07,2.52,1.07,2.54,1.8.04,3.59-.02,5.39-.11.57-.03,1.19-.1,1.61-.9.27-.52.69-1.04.5-1.81-.17-.71-.66-.54-1.03-.57-2.14-.14-4.28-.17-6.41-.4-1.03-.11-2.38.05-2.73-1.91-.34-1.91.63-3.34,1.47-4.54,1.02-1.47,2.31-2,3.63-2.18,2.86-.4,5.73-.4,8.59-.16.58.05,1.15.3,1.7.56.57.27.95.93.81,1.93-.15,1.03-.26,2.32-1.08,2.49-.81.17-1.65.03-2.47.02-.25,0-.56-.06-.46-.59.33-1.93-.59-1.65-1.19-1.68-1.6-.07-3.21-.05-4.81.04-.51.03-1.05.32-1.53.64-.41.27-.79.86-.71,1.62.09.95.66.74,1.07.77,2.23.19,4.47.29,6.7.54.89.1,2.04-.05,2.4,1.6.36,1.63-.41,2.95-1.04,4.15-1.16,2.2-2.78,2.92-4.43,3.09-3.48.36-6.98.88-10.45-.41-.09-.03-.21.19-.32.29v.02c.22-.68-.05-.61-.32-.53l.04.06c.08-.48.04-.75-.32-.52l.04.03-.02.02Z"/>
      <path class="st3" d="M173.49,133.33c-1.79.03-3.6.32-5.37-.4-1.61-.65-2.14-1.89-1.48-4.25,1.49-5.34,3.54-9.82,7.54-10.48,3.39-.56,6.8-.6,10.18-.01,2.26.39,2.79,2.06,1.71,5.23-.71,2.08-1.41,4.22-2.43,5.98-1.64,2.83-3.82,3.63-6.08,3.9-1.35.16-2.72.03-4.08.03ZM174.43,130.36v-.03c1.16,0,2.32-.02,3.48,0,1.35.03,2.29-1.04,2.99-2.8.52-1.32,1.05-2.64,1.54-3.98.57-1.54.38-2.6-.82-2.69-2.32-.17-4.65-.34-6.97.1-.86.16-1.62.7-2.11,1.84-.72,1.66-1.41,3.37-2.06,5.11-.58,1.57-.15,2.36.89,2.42,1.02.05,2.04,0,3.05,0v.02Z"/>
      <path class="st3" d="M200.41,123.56c.27-2.62.27-2.67-1.35-2.81-1.85-.16-3.69-.11-5.53.19-1.16.19-2,1.04-2.57,2.67-.52,1.5-1.12,2.95-1.59,4.48-.38,1.23-.19,2.12.79,2.25,2.29.3,4.57.28,6.84-.14.37-.07.76-.37,1.04-.76,1.68-2.34,1.67-2.36,4.24-1.91-.61,2.76-1.82,4.46-3.51,5.06-3.98,1.42-8.02,1.28-12.03.33-1.81-.43-2.13-2.05-1.39-4.71,2.08-7.41,5.6-10.77,10.61-10.35,1.84.15,3.69.02,5.54.03.73,0,1.46.11,2.14.58.62.42,1.21,1.03.94,2.26-.28,1.2-.29,2.93-1.54,2.84-.87-.06-1.73-.01-2.61-.01h0Z"/>
      <path class="st3" d="M76.76,127.38c-.87,3.11-2.15,4.77-4,5.37-3.62,1.17-7.26,1-10.89.39-2.48-.42-2.7-1.8-1.73-5.52,1.91-7.38,5.44-9.97,10.1-9.75,1.85.09,3.7,0,5.55.02.78,0,1.54.1,2.29.6.66.45,1.15,1.12.89,2.3-.25,1.16-.3,2.77-1.44,2.78-.92.01-1.84,0-2.91,0,.81-2.21.19-2.72-.98-2.82-1.85-.15-3.69-.07-5.54.15-1.28.15-2.19,1.05-2.8,2.89-.48,1.45-1.05,2.82-1.52,4.28-.41,1.26-.22,2.11.75,2.26,2.29.35,4.57.27,6.85-.12.32-.05.8-.25.91-.62.99-3.19,2.74-2.12,4.49-2.21h0Z"/>
      <path class="st3" d="M216.25,129.22c.46.52.92,1.04,1.38,1.56.02.69.27.9.66.8.4.05.57,1.41,1.15.54l-.04-.03c-.2.68.04.63.32.52l-.04-.06c-.12.53-.01.71.32.53v-.02c-2.83.5-5.66,1.24-7.99-2.56-.71-1.15-1.63-1.96-2.47-2.89-.99-1.09-1.88-1.19-2.52.78-.07.21-.16.39-.22.61-.95,3.55-2.4,5.59-5.03,4.04-.12-.74.37-1.32.63-2.01,1.28-3.42,2.67-6.74,3.85-10.25.74-2.19,1.6-3.37,3.19-2.88.42.13.87.02,1.4.02-.32,1.85-1.04,3.15-1.57,4.59-.47,1.28-.12,1.55.56,1.43.47-.08.94-.36,1.39-.65,1.95-1.23,3.93-2.3,5.81-3.78,2.25-1.78,4.57-1.75,7.02-1.14-3.49,2.22-6.98,4.43-10.48,6.65-.25-.04-.51-.03-.54.47-.02.49.22.6.48.57.69.79,1.38,1.58,2.08,2.37.05.65.27.92.67.78h0Z"/>
      <path class="st3" d="M159.37,133.07c.6-1.59,1.13-3.08,1.71-4.53.43-1.07.49-1.64-.5-1.62-2.53.06-5.06.06-7.58.01-.61-.01-1.02.3-1.28,1.17-.11.35-.28.66-.37,1.02-.91,3.77-2.53,5.28-5.11,3.89.8-2.11,1.64-4.35,2.49-6.58.58-1.54,1.33-2.97,1.73-4.62.93-3.79,2.6-4.67,5.02-3.59-.54,1.41-1.07,2.86-1.64,4.28-.37.92-.51,1.55.43,1.53,2.63-.03,5.25-.03,7.88,0,.51,0,.82-.3,1.03-1.02.11-.35.29-.65.37-1.01.89-3.77,2.55-4.98,5.06-3.79-.99,2.62-2,5.26-2.99,7.9-.4,1.07-.9,2.08-1.2,3.23-.94,3.73-2.59,4.87-5.07,3.71v.02Z"/>
      <path class="st3" d="M85.89,117.94c-1.98,5.17-3.8,9.95-5.65,14.72-.23.59-3.1,1.08-3.44.64-.32-.42-.1-.85.04-1.22,1.68-4.41,3.36-8.81,5.04-13.23.26-.69.57-.95,1.07-.92.87.05,1.75.01,2.94,0Z"/>
      <path class="st1" d="M213.5,126.06c-.26.03-.51-.07-.48-.57s.29-.51.54-.47c-.02.35-.04.69-.06,1.04Z"/>
      <path class="st1" d="M216.25,129.22c-.4.14-.62-.13-.67-.78.35-.03.57.24.67.78Z"/>
      <path class="st1" d="M218.29,131.58c-.39.1-.64-.11-.66-.8.36-.03.57.25.66.8Z"/>
      <path class="st3" d="M79.24,67.68v2.13c-.14.07-.28.21-.42.21-10.04.02-20.09,0-30.13.06-.84,0-.98-.56-.97-1.71.04-3.41.08-6.84-.01-10.25-.05-1.8.3-2.25,1.41-2.24,9.55.07,19.09.09,28.64,0,1.32,0,1.56.75,1.31,2.5-7.17.02-14.34.03-21.5.05-.54,0-1.08.1-1.62.15-.95.35-.46,1.54-.45,2.31.01.9.6.6.95.61,1.14.04,2.28,0,3.41.02,6.04.04,12.08.09,18.12.13.02.68.04,1.37.06,2.05-.48.61-1.05.34-1.59.35-6.56.02-13.12.02-19.67,0-.81,0-1.4-.03-1.38,1.82.02,1.84.68,1.57,1.36,1.57,6.95,0,13.91,0,20.86.02.54,0,1.1-.19,1.61.22h0Z"/>
      <path class="st3" d="M42.48,63.34c-.18,4.39-.43,4.78-3.22,5.63-2.16.65-4.32.96-6.51.95-6.31-.05-12.62.02-18.93-.07-2.76-.04-5.53-.35-8.22-1.55-1.37-.61-2.32-1.7-2.27-4.4.07-3.86.42-4.85,2.27-5.93,1.99-1.15,4.08-1.15,6.14-1.51.82-.14,1.64-.22,2.45-.33,6.79-.28,13.57-.41,20.36.06,1.49.24,2.98.44,4.47.74,1.11.23,2.17.73,3.1,1.78.45,1.49.39,2.31-.87,2.22-1.79-.13-3.59-.02-5.39-.04-.37,0-.82.26-1.03-.49-.38-1.34-1.13-1.35-1.85-1.42-1.5-.13-3.01-.21-4.5-.3-.54-.03-1.36-.06-2.37-.1-6.89-.21-6.3-.18-9.35.12-1.26.12-2.53.16-3.77.41-.21.04-.74.04-1.26.56-.04.04-.28.28-.47.62-.57,1.01-.66,2.89-.24,4.34.33,1.15,1.01,2.05,1.94,2.38.24.08.46.22.71.25,6.07.72,12.15.44,18.22.2.43-.02.86-.26,1.28-.39.19-.06.38-.09.57-.18.51-.24,1.22-.37,1.13-1.45-.1-1.12-.81-.51-1.21-.51-3.5-.05-7-.03-10.5-.02-.59,0-1.16.15-1.13-1.36.03-1.48.63-1.1,1.12-1.11,6.08,0,12.16,0,18.23,0,.46,0,1.02-.26,1.13.91h0Z"/>
      <path class="st3" d="M168.61,68.53c-.69-.85-1.33-1.76-1.17-3.38,2.12-.04,4.24-.09,6.36-.1.27,0,.75.08.79.29.42,2.16,1.57,1.71,2.52,1.94,1.63.4,3.27.27,4.91.24h.63c3.98-.14,7.97.35,11.94-.46.5-.1,1.21-.08,1.17-1.27,0-.08-.02-.33-.11-.54-.17-.38-.5-.45-.69-.47-7.75-.79-13.64-.22-13.64-.22,0,0-6.39.63-10.35-1.14-.15-.07-.68-.31-1.54-.72-.18-.09-.36-.18-.54-.27-.74-.39-1.31-1.11-1.27-2.49,0-.07.02-.48.15-.91.15-.52.46-1,1.17-1.48.9-.61,1.62-.69,1.62-.69,11.54-1.27,17.36-1.59,28.9-.06.87.12,1.7.66,2.44,1.45.38.42.58,1.11.47,1.84-.13.87-.63.55-.98.56-1.8.03-3.59.02-5.39,0-.29,0-.73.05-.82-.2-.86-2.26-2.3-1.71-3.52-1.78-3.01-.16-6.02-.05-9.03-.05-.5,0-.99.03-1.49.04-1.67.13-3.33.24-5,.42-.41.04-.99.17-.97,1,0,0,0,.21.08.42.2.58,1.13.75,1.29.77.2.03.51.06.88.02,7.57.44,15.14.07,22.7,1.03.07.02.17.05.29.09.58.2,1.17.41,1.79.9.43.34.65.52.84.96.18.41.27.91.28,1.5.01,1.12-.32,1.98-.95,2.41-.48.33-1,.59-1.51.78-2.86,1.08-5.78.9-8.69,1.06-5.68.32-11.36.17-17.04-.13-1.78-.09-3.58.01-5.34-.57-.15-.06-.33-.16-.55-.3-.32-.22-.55-.44-.63-.54l-.02.05Z"/>
      <path class="st0" d="M34.82,120.9c1.12,0,2.23-.1,3.34.03,1.25.15,1.38.82.64,2.5-.51,1.15-1.26,1.5-2.03,1.54-2.17.13-4.36.13-6.54.17-.27,0-.61.12-.59-.63.01-1.14,1.54-3.66,2.27-3.67.97-.02,1.94,0,2.91,0v.07h0Z"/>
      <path class="st0" d="M48.2,127.24c1.51-1.8,3.02-3.59,4.53-5.39.55-.66.77-.25.84.65,0,.08.01.16.02.23.44,3.37-.4,5.05-2.51,5.03h-2.73c-.06-.17-.11-.35-.16-.52h0Z"/>
      <path class="st2" d="M219.72,132.62c-.29.11-.53.16-.32-.52.36-.23.41.04.32.52Z"/>
      <path class="st2" d="M220.01,133.08c-.33.19-.44,0-.32-.53.27-.08.53-.16.32.53Z"/>
      <path class="st0" d="M174.43,130.36c-1.02,0-2.04.04-3.05,0-1.03-.05-1.47-.84-.89-2.42.64-1.74,1.33-3.45,2.06-5.11.5-1.14,1.26-1.68,2.11-1.84,2.32-.45,4.65-.28,6.97-.1,1.2.09,1.39,1.15.82,2.69-.5,1.34-1.02,2.66-1.54,3.98-.69,1.76-1.64,2.83-2.99,2.8-1.16-.03-2.32,0-3.48,0v.03-.02Z"/>
      <path class="st3" d="M147.63,70.04c-4.72,0-9.44-.03-14.16.03-.86.01-1.2-.25-1.16-1.78.07-3.45.06-6.91,0-10.36-.02-1.38.15-1.89,1.1-1.88,9.49.06,18.98.04,28.47.05.57,0,1.16-.23,1.16,1.32s-.64,1.26-1.18,1.26c-6.91,0-13.82,0-20.73.03-.49,0-1.19-.55-1.3,1.08-.11,1.74.4,1.86,1.26,1.86,6.52-.04,13.04-.03,19.56,0,.45,0,1.13-.58,1.3.78.17,1.36-.22,1.74-1.04,1.73-3.5-.06-7.01-.02-10.51-.02-3.16,0-6.33.01-9.49-.01-.73,0-1.27-.05-1.26,1.66.01,1.7.56,1.69,1.3,1.69,6.96,0,13.92-.01,20.88.02.54,0,1.3-.56,1.27,1.29-.02,1.83-.79,1.23-1.31,1.24-4.72.04-9.44.02-14.16.02v-.02Z"/>
      <path class="st3" d="M118.27,66.41c.01-2.82.07-5.64.02-8.46-.02-1.37.14-1.96,1.1-1.89,1.8.13,3.6.09,5.4,0,.8-.04,1.13.32,1.1,1.7-.05,3.53-.05,7.06,0,10.59.02,1.36-.28,1.73-1.09,1.71-3.5-.06-7.01.17-10.5-.1-2.16-.17-4.19-1.75-6.25-2.78-5.14-2.58-10.26-5.34-15.38-8.01-.13-.07-.28,0-.45,0,0,3.11-.02,6.16.01,9.21.01,1.09-.06,1.74-.91,1.7-1.9-.1-3.79-.08-5.69-.02-.72.02-.9-.43-.89-1.51.03-3.69.04-7.37,0-11.06-.01-1.22.3-1.41.95-1.41,3.5.03,7-.04,10.5.02,1.38.02,2.61,1.11,3.89,1.75,5.97,2.97,11.91,6.07,17.86,9.12.42.28.46,0,.32-.57h0Z"/>
      <path class="st3" d="M208.4,63.07c0-1.8.04-3.6-.01-5.4-.04-1.26.26-1.61,1.01-1.59,1.89.07,3.79.06,5.68,0,.71-.02.91.38.9,1.49-.03,3.68-.04,7.36,0,11.04.01,1.15-.24,1.48-.92,1.46-1.94-.05-3.88-.04-5.82,0-.61.01-.87-.33-.84-1.36.04-1.88.01-3.76.01-5.64h0Z"/>
      <path class="st3" d="M118.27,66.41c.14.56.1.84-.32.57.11-.19.22-.38.32-.57Z"/>
      <path class="st3" d="M222.32,68.61c-.69-.85-1.33-1.76-1.17-3.38,2.12-.04,4.24-.09,6.36-.1.27,0,.75.08.79.29.42,2.16,1.57,1.71,2.52,1.94,1.63.4,3.27.27,4.91.24h.63c3.98-.14,7.97.35,11.94-.46.5-.1,1.21-.08,1.17-1.27,0-.08-.02-.33-.11-.54-.17-.38-.5-.45-.69-.47-7.75-.79-13.64-.22-13.64-.22,0,0-6.39.63-10.35-1.14-.15-.07-.68-.31-1.54-.72-.18-.09-.36-.18-.54-.27-.74-.39-1.31-1.11-1.27-2.49,0-.07.02-.48.15-.91.15-.52.46-1,1.17-1.48.9-.61,1.62-.69,1.62-.69,11.54-1.27,17.36-1.59,28.9-.06.87.12,1.7.66,2.44,1.45.38.42.58,1.11.47,1.84-.13.87-.63.55-.98.56-1.8.03-3.59.02-5.39,0-.29,0-.73.05-.82-.2-.86-2.26-2.3-1.71-3.52-1.78-3.01-.16-6.02-.05-9.03-.05-.5,0-.99.03-1.49.04-1.67.13-3.33.24-5,.42-.41.04-.99.17-.97,1,0,0,0,.21.08.42.2.58,1.13.75,1.29.77.2.03.51.06.88.02,7.57.44,15.14.07,22.7,1.03.07.02.17.05.29.09.58.2,1.17.41,1.79.9.43.34.65.52.84.96.18.41.27.91.28,1.5.01,1.12-.32,1.98-.95,2.41-.48.33-1,.59-1.51.78-2.86,1.08-5.78.9-8.69,1.06-5.68.32-11.36.17-17.04-.13-1.78-.09-3.58.01-5.34-.57-.15-.06-.33-.16-.55-.3-.32-.22-.55-.44-.63-.54l-.02.05Z"/>
    </g>
  </g>
</svg>