<?xml version="1.0" encoding="UTF-8"?>
<svg id="Layer_2" xmlns="http://www.w3.org/2000/svg" version="1.1" viewBox="0 0 825.7 176.9">
  <!-- Generator: Adobe Illustrator 29.1.0, SVG Export Plug-In . SVG Version: 2.1.0 Build 142)  -->
  <defs>
    <style>
      .st0 {
        fill: #fff;
      }
    </style>
  </defs>
  <g id="Layer_1-2">
    <g>
      <path class="st0" d="M170.7,49.7c-2.7-1.9-5.2-3.7-7.6-5.6-22.9-17.8-53.9-11.4-69.3,3.9-8.4,8.3-13,18.6-14.4,30.2-1.5,12.6-.4,24.9,5.2,36.5,7.1,14.7,18.7,23.6,34.8,26.6,9.3,1.8,18.3.5,27.2-2.3,1.7-.5,2.4-1.3,2.4-3.2-.1-10.1,0-20.2,0-30.3v-2.8h-2.8c-8.6,0-17.1,0-25.7,0-2.3,0-3.2-.5-3.1-3,.2-5.9.1-11.9,0-17.8,0-2.1.5-2.9,2.7-2.9,21.5,0,43,0,64.5,0,1.9,0,2.5.6,2.5,2.5,0,20.9,0,41.8-.1,62.7,0,1.3-.9,2.9-1.9,3.9-4.8,4.9-10.6,8.3-16.9,10.9-17.6,7.4-35.9,9.7-54.8,7.1-16.2-2.2-31.1-7.5-43.9-18.1-9.7-8.1-16.7-18.2-20.7-30.2-6.1-18.1-6.2-36.5-1.2-54.8,5.7-20.5,18.5-35.4,37.8-44.1,19.3-8.7,39.6-11.9,60.6-8,12.6,2.4,24.3,7.3,34.8,14.7,1,.7,1.8,1.3,1,2.7-3.5,6.6-6.8,13.3-10.2,20-.1.3-.4.5-.9,1Z"/>
      <path class="st0" d="M711.3,59c3.8-3.1,7.1-6.3,10.9-8.8,5.6-3.7,12.3-4.1,18.8-4.3,7.6-.3,15.1.5,22,4.2,7.3,3.9,11.9,9.9,14.9,17.4,2.4,6.2,3.6,12.7,3.7,19.3.1,24.3,0,48.6.1,73,0,1.9-.7,2.3-2.5,2.3-9.5,0-18.9,0-28.3,0-2.3,0-3-.7-3-3,0-19.9,0-39.7,0-59.6,0-7.3.2-14.6-2.1-21.8-2.4-7.3-6.9-10.9-14.2-11.1-7.8-.3-13.5,3.3-16.3,10-2.5,6-2.9,12.3-2.9,18.7,0,21.2.1,42.3.2,63.5,0,3.3,0,3.3-3.2,3.3-9.4,0-18.7,0-28.1,0-2,0-2.7-.5-2.7-2.6.1-36.2.2-72.4.2-108.6,0-1.9.5-2.6,2.5-2.6,9.2,0,18.4,0,27.6,0,1.8,0,2.5.6,2.4,2.4-.1,2.8,0,5.6,0,8.3h0Z"/>
      <path class="st0" d="M615,164.3c-16.6-.2-31.2-5.3-42.6-17.8-6.8-7.5-11.1-16.4-13.1-26.3-3.2-15.6-1.4-30.6,6-44.8,7.7-14.8,19.8-24.4,36.1-28.3,16.5-3.9,32-1.3,45.9,8.8,9.5,6.9,15.7,16.1,19.4,27.2,4.5,13.7,5.2,27.7,1.4,41.6-4.9,17.9-15.8,30.5-33.7,36.6-6.3,2.2-12.8,3.1-19.5,3h0ZM636.9,104.6c0-10.1-2-19.5-8.5-27.6-5.6-7-14-8.7-21.9-4.7-5.2,2.7-8.4,7.1-10.7,12.2-4.1,9-4,18.5-3.4,28,.4,5.9,1.3,11.6,3.8,17.1,2.2,5,5.5,9.1,10.9,10.9,10.1,3.4,19.4-.5,24.3-9.9,4.3-8.1,5.3-17,5.5-26h0Z"/>
      <path class="st0" d="M365.1,81.7c0-3.6,0-7.1,0-10.7,0-3.9-.4-7.8-.3-11.7,0-.9.7-2.3,1.5-2.6,16.7-7.6,34.1-11.4,52.5-8.1,10.6,1.9,20,6,26.2,15.3,4,6,5.9,12.7,6.7,19.7.4,3.9.5,7.8.6,11.7.5,21.3.9,42.6,1.5,63.9,0,2.2-.5,2.8-2.7,2.8-7.8-.1-15.6-.1-23.5,0-2,0-3-.6-3.2-2.7-.1-1.4-.5-2.8-.8-4.3-10.8,10.7-24.4,10.2-37.8,9.3-8.8-.6-16.8-3.9-23.4-9.8-8.2-7.3-10.9-16.6-9.8-27.3,1.6-15.9,11.6-24.6,25.3-30.6,10.7-4.7,21.9-5.9,33.4-6,2.9,0,5.7-.2,8.6-.2,1.2,0,1.9-.4,1.8-1.7-.5-3.7-.8-7.4-1.7-11-1.1-4.1-4.2-6.5-8.3-7.5-8.4-1.9-16.7-1.6-24.8,1-6.5,2.1-12.4,5.2-18,9.2-.8.6-1.7,1.1-2.6,1.7-.3-.1-.7-.2-1-.3h0ZM413,110.8v.2c-2.6,0-5.2-.2-7.8,0-4.5.4-8.9,1.3-12.6,4.2-5.3,4.1-7.5,13.5-5,20.1,1.8,4.7,5.1,7.5,10.2,7.6,3.4,0,6.8.2,10.2-.2,7-.8,12.8-5.6,13.9-12.5.9-6,.7-12.1.8-18.2,0-.4-1.1-1.3-1.8-1.3-2.7-.1-5.4,0-8.1,0h0Z"/>
      <path class="st0" d="M337.8,132.4v4.2c0,5.7-.1,11.4,0,17.1,0,1.5-.5,2.4-1.9,3-20.7,9.4-41.9,10.8-63.1,2.8-15.5-5.9-24.6-17.9-28.5-33.9-3.3-13.6-3.1-27.1.8-40.5,4.7-15.9,14.2-27.7,30.3-33.3,9.3-3.2,19-3.6,28.7-2.1,6.4,1,12.6,2.6,18.3,5.8,10,5.4,16.6,13.7,20.8,24,4.5,10.9,5.7,22.5,6,34.2,0,2.4-1.4,2.1-2.9,2.1h-64.5c-.7,0-1.5-.2-2.2,0-.5.2-1.4.8-1.3,1.2.6,7.8,2.2,15.2,9.3,20,4,2.7,8.7,3.5,13.4,4.3,12.5,2,23.7-1.7,34.4-7.5.6-.3,1.3-.7,2.5-1.3h0ZM318.6,95.7c-.9-3.9-1.5-7.4-2.6-10.7-4.4-13.1-15.9-16.8-27.6-13.9-3.8.9-6.9,3.3-8.3,7-1.4,3.8-2.2,7.8-3.1,11.7-.4,1.9-.5,3.9-.8,6h42.4,0Z"/>
      <path class="st0" d="M465.1,133.2c4.7,2,8.8,3.8,12.9,5.5,9.3,3.9,18.9,6.7,29.2,5.7,3.7-.4,7.1-1.5,10.1-3.9,4-3.2,4.3-7.8.7-11.4-3.9-3.8-9-5.5-13.8-7.6-8.1-3.5-16.4-6.7-24.2-10.9-8.4-4.5-14.5-11.2-16.7-20.9-3-13.2,2.2-26.3,13.4-33.9,7.6-5.2,16.1-7.6,25.1-8.8,16.6-2.4,31.4,2.8,45.5,10.6,5.9,3.3,5.9,3.3,4.6,10-.8,3.8-1.6,7.6-2.4,11.5-.1.6-.4,1.2-.7,1.9-3.7-2.3-7.1-4.6-10.7-6.6-7.5-4.2-15.3-7.9-24.2-7.4-3.4.2-7,1-10,2.5-5.8,2.9-6,9.9-.5,13.4,3.7,2.4,7.9,4.2,12,5.8,7.8,3.2,15.5,6.2,22.6,10.8,16.6,10.6,20.3,29.5,14.3,44.9-2.7,6.9-7.9,11.8-14.6,14.7-14.5,6.2-29.7,6.9-45,3.8-8.8-1.8-17.1-5.1-25.2-9.1-1.7-.8-2.4-1.8-2.3-3.8.1-5.4,0-10.9,0-17h0Z"/>
      <path class="st0" d="M231.1,85.6v73c0,2.1-1.1,3.2-3.3,3.2-8.6,0-17.3,0-25.9,0-2.3,0-3.1-.5-3.1-3,0-48.9,0-97.8,0-146.7,0-2.2.8-2.7,2.8-2.7,8.9,0,17.8.1,26.6,0,2.3,0,2.9.7,2.9,2.9,0,24.4,0,48.8,0,73.2h0Z"/>
    </g>
  </g>
</svg>