<?xml version="1.0" encoding="UTF-8"?>
<svg id="Layer_1" xmlns="http://www.w3.org/2000/svg" version="1.1" viewBox="0 0 378.89 150.09">
  <!-- Generator: Adobe Illustrator 29.1.0, SVG Export Plug-In . SVG Version: 2.1.0 Build 142)  -->
  <defs>
    <style>
      .st0 {
        fill: none;
      }

      .st1 {
        fill: #fff;
      }
    </style>
  </defs>
  <path class="st0" d="M116.59,3.55C87.71-4.63,53.84.25,39.45,29.53c-5.83,11.86-6.77,31.13-2.57,43.61,10.62,31.58,48.41,35.46,76.58,28.16,2.39-.62,5.08-1.03,6.88-2.87v-50.62h-42.75v16.12l1.12,1.12h21.38v21c-21.8,3.6-42.87-2.37-44.99-27.39-2.86-33.88,22.11-45.16,51.89-39.89,3.24.57,6.54,1.58,9.6,2.78,0,0,0-18,0-18ZM158.21,2.05c-8.34-.38-16.78.28-25.12,0v100.5h19.5V34.3l24.82,68.17,13.46-.27,25.46-68.65-.74,69h20.25V1.3c-.55-.2-.9.75-1.12.75h-25.5l-24.38,69c-1.17-.11-1.14-1.14-1.44-1.92-2.84-7.27-4.89-15.71-7.53-23.22-5.22-14.84-10.84-29.67-16.5-44.29-.52-.33-1,.44-1.14.43h-.02ZM269.21,2.05c-6.36-.21-12.77.16-19.12,0v100.5h20.25l-.74-69c5.27,6.5,9.55,14.21,14.38,21.24,11.06,16.09,22.86,31.71,33.99,47.76h20.62V2.05h-20.25l.74,69L270.73,1.95c-.91-.79-1.29.11-1.51.1h-.01ZM97.84,122.8l-.09-4.04-1.03-1.04c-.3-.03-.57.58-.75.58h-18.38v29.62c0,.23-.95.58-.75,1.12h21.75v-4.5h-15.75v-9h12.75v-4.5h-12.75v-8.25h15,0ZM131.59,149.04l-13.07-31.24-4.84.59-12.09,30.65,6.68-.07,2.24-6.96c2.71-.56,11.21-1.39,12.76.73,1,1.37,1.21,5.25,2.28,5.97l6.03.34h.01ZM136.09,118.67v30.38h6v-12c6.14-1.88,8.82,9.71,12,11.62,1.62.98,4.83.12,6.75.37l-8.24-12.32c.2-.92,5.42-2.7,6.35-4.94,2.3-5.51-.93-12.22-6.91-13.31-3.26-.59-10.79-.62-14.42-.61-.88,0-.97.05-1.53.82h0ZM172.09,149.05v-31.5l-5.25.75v30.75h5.25ZM202.09,140.8c-3.08-2.59-14.58-22.63-16.84-22.94-1.14-.16-3.4.89-4.92.44l-.75,30.74h6v-21.74l15.15,21.59,6.6.16v-31.5l-5.25.75v22.5h0ZM240.34,147.92v-15.38h-12.75v4.5h6.75l-.33,7.55c-8.28,2.93-15.69-3.61-14.51-12.23,1.26-9.16,11.13-12.2,19-9,4.56-6.31-5.45-6.23-9.77-5.81-9.19.89-15.31,8.38-15.09,17.49.36,14.72,15.54,17.49,26.71,12.87h0ZM261.34,137.42c-.77-6.1.57-13.61,0-19.88l-5.25.75c.66,14.73-5.23,35.16,17.45,31.32,3.91-.66,8.81-5.26,8.81-9.2v-22.88l-5.25.75c-.76,6.51,3.25,26.65-7.13,27.05-5.35.21-7.98-2.93-8.61-7.92h-.02ZM308.48,118.4c-7.98-2.13-19.83-1.6-19.46,9.27s15.8,6.13,16.41,12.86-12.68,4.65-16.34,3.26c-1.07,8.68,14.79,6.81,19.01,3.64,3.56-2.67,4.23-9.69,1.26-13.04-3.41-3.85-14.1-2.48-14.35-7.47-.37-7.27,10.18-4.54,14.32-3.38l-.85-5.14h0ZM344.59,149.04l-13.07-31.24-4.84.59-12.09,30.65,6.68-.07,2.24-6.96c2.71-.56,11.21-1.39,12.76.73,1,1.37,1.21,5.25,2.28,5.97l6.03.34h.01ZM62.96,118.3c-4.39-.78-10.74.57-15.38,0v31.5c5.93-.05,19.62.61,22.66-5.46,2.25-4.49,1.14-9.43-3.91-11.05,6.28-4.57,3.95-13.68-3.37-14.99Z"/>
  <path class="st1" d="M158.21,2.05c.14,0,.62-.76,1.14-.43,5.66,14.62,11.28,29.45,16.5,44.29,2.64,7.51,4.69,15.94,7.53,23.22.31.79.28,1.81,1.44,1.92L209.21,2.05h25.5c.23,0,.58-.95,1.12-.75v101.25h-20.25l.74-69-25.46,68.65-13.46.27-24.82-68.17v68.25h-19.5V2.05c8.34.28,16.79-.38,25.12,0h0Z"/>
  <path class="st1" d="M269.21,2.05c.22,0,.61-.89,1.51-.1l48.35,69.1-.74-69h20.25v100.5h-20.62c-11.12-16.05-22.93-31.67-33.99-47.76-4.83-7.02-9.11-14.74-14.38-21.24l.74,69h-20.25V2.05c6.36.16,12.76-.21,19.12,0h0Z"/>
  <path class="st1" d="M116.59,3.55v18c-3.06-1.2-6.36-2.21-9.6-2.78-29.79-5.26-54.76,6.01-51.89,39.89,2.12,25.02,23.18,30.99,44.99,27.39v-21h-21.38l-1.12-1.12v-16.12h42.75v50.62c-1.8,1.84-4.49,2.25-6.88,2.87-28.17,7.3-65.96,3.43-76.58-28.16-4.2-12.48-3.26-31.75,2.57-43.61C53.84.25,87.71-4.63,116.59,3.55Z"/>
  <path class="st1" d="M62.96,118.3c7.32,1.3,9.65,10.42,3.37,14.99,5.05,1.62,6.16,6.56,3.91,11.05-3.04,6.07-16.73,5.41-22.66,5.46v-31.5c4.64.57,10.99-.78,15.38,0h0ZM52.84,131.05c15.18,2.22,15.31-10.63,0-8.26v8.26ZM52.84,144.55c16.9,2.27,16.69-11.24,0-9.01v9.01Z"/>
  <path class="st1" d="M202.09,140.8v-22.5l5.25-.75v31.5l-6.6-.16-15.15-21.59v21.75h-6l.75-30.75c1.51.45,3.77-.6,4.92-.44,2.25.32,13.76,20.35,16.84,22.94h0Z"/>
  <path class="st1" d="M136.09,118.67c.56-.77.65-.81,1.53-.82,3.63,0,11.16.02,14.42.61,5.98,1.09,9.21,7.8,6.91,13.31-.93,2.23-6.15,4.01-6.35,4.94l8.24,12.32c-1.92-.25-5.12.6-6.75-.37-3.18-1.91-5.86-13.5-12-11.62v12h-6v-30.38h0ZM152.39,123.75c-1.85-1.51-7.84-.75-10.3-.95v9.76c3.85.25,11.68.18,11.81-5.01.02-.78-1-3.38-1.51-3.8Z"/>
  <path class="st1" d="M240.34,147.92c-11.17,4.61-26.36,1.85-26.71-12.87-.22-9.11,5.9-16.61,15.09-17.49,4.32-.42,14.33-.5,9.77,5.81-7.87-3.2-17.74-.16-19,9-1.18,8.62,6.23,15.16,14.51,12.23l.33-7.55h-6.76v-4.5h12.75v15.38h.02Z"/>
  <path class="st1" d="M131.59,149.04l-6.03-.34c-1.07-.71-1.28-4.6-2.28-5.97-1.55-2.12-10.05-1.29-12.76-.73l-2.24,6.96-6.68.07,12.09-30.65,4.84-.59,13.07,31.24h-.01ZM117.33,126.55c-1.26-1.23-1.26.38-1.56,1.05-.42.92-3.01,7.87-2.93,8.3.36,1.82,5.96,1.01,7.5,1.14.38-.39-2.62-10.11-3.01-10.49Z"/>
  <path class="st1" d="M344.59,149.04l-6.03-.34c-1.07-.71-1.28-4.6-2.28-5.97-1.55-2.12-10.05-1.29-12.76-.73l-2.24,6.96-6.68.07,12.09-30.65,4.84-.59,13.07,31.24h-.01ZM330.33,126.55c-1.26-1.23-1.26.38-1.56,1.05-.42.92-3.01,7.87-2.93,8.3.36,1.82,5.96,1.01,7.5,1.14.38-.39-2.62-10.11-3.01-10.49Z"/>
  <path class="st1" d="M261.34,137.42c.63,4.99,3.26,8.13,8.61,7.92,10.38-.4,6.37-20.54,7.13-27.05l5.25-.75v22.88c0,3.94-4.89,8.53-8.81,9.2-22.68,3.84-16.79-16.59-17.45-31.32l5.25-.75c.57,6.26-.77,13.78,0,19.88h.02Z"/>
  <path class="st1" d="M97.84,122.8h-15v8.25h12.75v4.5h-12.75v9h15.75v4.5h-21.75c-.2-.55.75-.9.75-1.12v-29.62h18.38c.18,0,.45-.61.75-.58l1.03,1.04.09,4.04h0Z"/>
  <path class="st1" d="M308.48,118.4l.85,5.14c-4.14-1.16-14.69-3.89-14.32,3.38.26,4.99,10.94,3.63,14.35,7.47,2.97,3.35,2.3,10.37-1.26,13.04-4.22,3.17-20.09,5.04-19.01-3.64,3.66,1.39,16.93,3.31,16.34-3.26s-16.05-2.36-16.41-12.86,11.48-11.41,19.46-9.27Z"/>
  <polygon class="st1" points="172.09 149.05 166.84 149.05 166.84 118.3 172.09 117.55 172.09 149.05"/>
  <path class="st0" d="M52.84,144.55v-9.01c16.69-2.23,16.9,11.28,0,9.01Z"/>
  <path class="st0" d="M52.84,131.05v-8.26c15.31-2.37,15.18,10.48,0,8.26Z"/>
  <path class="st0" d="M152.39,123.75c.51.42,1.53,3.01,1.51,3.8-.13,5.19-7.96,5.26-11.81,5.01v-9.76c2.46.2,8.46-.56,10.3.95Z"/>
  <path class="st0" d="M117.33,126.55c.39.38,3.4,10.1,3.01,10.49-1.54-.14-7.15.68-7.5-1.14-.08-.43,2.51-7.38,2.93-8.3.3-.67.3-2.28,1.56-1.05Z"/>
  <path class="st0" d="M330.33,126.55c.39.38,3.4,10.1,3.01,10.49-1.54-.14-7.15.68-7.5-1.14-.08-.43,2.51-7.38,2.93-8.3.3-.67.3-2.28,1.56-1.05Z"/>
</svg>