<?xml version="1.0" encoding="UTF-8"?>
<svg id="Layer_1" xmlns="http://www.w3.org/2000/svg" version="1.1" viewBox="0 0 359.23 110.31">
  <!-- Generator: Adobe Illustrator 29.1.0, SVG Export Plug-In . SVG Version: 2.1.0 Build 142)  -->
  <defs>
    <style>
      .st0 {
        fill: none;
      }

      .st1 {
        fill: #fff;
      }
    </style>
  </defs>
  <path class="st0" d="M72.99,28.5h-28v1.99h28v-1.99ZM166.99,28.5h-25v1.99h23.5c.17,0,1.58-1.34,1.5-1.99ZM194.99,28.5h-23.5c-.17,0-1.58,1.34-1.5,1.99h25v-1.99ZM235.99,28.5h-24.5c-.17,0-1.58,1.34-1.5,1.99h24.5c.17,0,1.58-1.34,1.5-1.99ZM263.99,28.5h-23.5c-.17,0-1.58,1.34-1.5,1.99h25v-1.99ZM296.99,28.5h-25.5c-.17,0-1.58,1.34-1.5,1.99h27v-1.99ZM354.99,28.5h-28v1.99h26.5c.17,0,1.58-1.34,1.5-1.99ZM70.99,32.47h-28v1.99h26.5c.17,0,1.58-1.34,1.5-1.99ZM164.99,32.47h-25v1.99h23.5c.17,0,1.58-1.34,1.5-1.99ZM193.99,32.47h-24v1.99h24v-1.99ZM231.99,32.47h-25v1.99h23.5c.17,0,1.58-1.34,1.5-1.99ZM261.99,32.47h-25v1.99h25v-1.99ZM294.99,32.47h-27v1.99h27v-1.99ZM351.99,32.47h-26.5c-.17,0-1.58,1.34-1.5,1.99h28v-1.99ZM68.99,35.46h-26.5c-10.54,16.68-28.86,41.34,4.12,44.61,24.47,2.43,59.4,2.38,72.79-21.83l12.59-22.78h-44.5l-8.5,14.91h18c-6.45,12.96-18.49,13.14-31.55,11.97-15.63-1.39,1.6-19.54,3.55-26.88ZM162.99,35.46h-23.5l-24.5,44.73h25.5l22.5-44.73ZM192.49,35.46h-22.5l-6.05,41.3c-.32,1.05.75,3.43,1.55,3.43h20c2.83,0,29.72-31.27,35.01-34.78l7.49-9.95h-22.5l-13.99,13.93c-.42-2.37,3.72-13.26.99-13.93ZM259.99,35.46h-23.5l-26.5,43.74h27l23-43.74ZM292.99,35.46h-25.5l-24.5,43.74h27l10.16-19.72c16.49-1.12,34.53,2.4,50.12-4.36,7.39-3.21,16.65-11.92,18.72-19.66h-26.5c-.44,0-4.3,4.97-7,4.97h-24.5l2-4.97ZM23.99,87.15l-11.57.91L0,110c2.45,2.45,7.56-10.4,8.15-10.77,1.98-1.25,8.62,1.49,10.84-1.66l-8.99-.5,3.15-6.79c2.24-1.42,10.91,2.32,10.84-3.14ZM29.99,99.08c4.76.63,11.53-3.36,11.05-8.44-.36-3.91-9.55-4.52-12.06-3.01-1.22.73-10.89,19.28-11.98,22.37,2.27,2.37,6.77-11.42,9.49-10.94,1.3-.02,1.11,11.65,5.5,10.94l-2-10.92ZM50.99,87.15c-2.02-.35-2.85,1.28-3.83,2.64-3.73,5.19-8.23,14.19-10.16,20.21,2.38.3,3.69-3.86,4.8-5.66s9.87-16.49,9.19-17.19ZM66.99,106.04c-27.95,9.89-15.06-19.02,1.42-16.89,2.74.35,4.75,3.43,7.06,2.97,3.2-.64-.64-4.01-2.43-4.53-20.34-5.81-39.11,26.14-11.79,22.18,1.41-.2,6.64-1.32,5.73-3.74ZM87.15,90.28c1.6-.98,7.56,1.41,7.36-2.15-1.08-1.51-12.53-1.94-14.5.51l4.99,1.97-10.99,19.38c1.77.35,2.5-.86,3.44-2.04,1.99-2.52,8.85-17.15,9.71-17.68ZM99.99,87.15c-.99-.89-2.34-.13-3.25,1.26-1.4,2.12-12.59,20.71-11.74,21.59l3.83-2.64c.54-2.59,12.02-19.44,11.16-20.21ZM111.73,87.39c-12.14,2.09-24.57,22.67-7.24,22.7,17.65.03,31.54-26.89,7.24-22.7ZM140.01,103.05l-5.02-15.9-13,22.35,1.99.5,9.52-16.89c2.43,4.31,2.94,10.42,5.26,14.63.63,1.14-.04,1.68,2.21,1.26.63-3.63,12.55-19.94,11.01-21.86-1.43-1.78-2.22,1.35-2.58,1.87-2.76,3.88-4.65,8.85-7.17,12.75-.63.97.1,1.77-2.23,1.28ZM179.78,88.38c-1.64-1.53-9.97-1.87-11.8-.75-1.09.66-12.83,21.43-11.98,22.37,4.27-.28,5.1-8.71,8-10.43s8.14.92,13.04-2.94c2.01-1.58,5.05-6.1,2.74-8.25ZM197.65,95.74c7.51-7.75-4.63-11.09-9.65-8.1-2.04,1.22-11.22,18.8-12,22.36,4.99-2.05,4.52-9.32,9.48-10.94.97-.02.87,11.74,5.5,10.94l-2-10.93c2.81.31,6.74-1.35,8.66-3.33ZM213.72,87.37c-12.35,2.52-24.21,24.08-5.24,22.66,17.88-1.34,28.53-27.41,5.24-22.66ZM246.64,103.69c10-9.99,3.42-19.04-9.94-16.56l-12.7,22.87c7.98-.07,16.69-.37,22.64-6.31ZM262.99,87.15c-2.12-.46-2.27,1.07-3.17,2.31-2.59,3.56-12.72,18.37-6.12,20.35,6.07,1.82,11.3-2.4,14.73-6.83,1.19-1.54,8.15-13.07,8.55-14.37s-.24-1.99-1.47-1.46c-4.89,2.07-9.8,25.81-21.48,19.81-1.35-3.73,10.29-18.42,8.96-19.82ZM289.73,87.38c-6.14,1.06-14.62,8.2-15.54,14.43-1.82,12.32,19.5,7.99,19.79,4.72.21-2.45-2.7-.45-3.27-.31-2.31.58-4.67,1.83-7.13,1.73-15.01-.65-1.5-21.64,12.71-18.61,1.41.3,6.03,4.78,6.71,1.28.83-4.27-10.87-3.64-13.26-3.22ZM320.99,87.15c-4.71.63-11.03-1.58-14.99,1.49.7,1.47,5.8-.98,4.97,1.95-.72,2.55-10.97,17.41-9.97,18.41,1.77.35,2.5-.86,3.44-2.04,2.83-3.57,6.96-14.75,9.99-16.91,2.87-2.04,7.23.78,6.57-2.91ZM331.03,92.09c7.76-2.85-2.99-8.08-8.05-2.49-6.13,6.77,8.98,15.42-5.41,18.36l-1.56-3.22-3.01-.69c-.53,11.06,14.64,5.05,14.08-3.49-.26-4.03-7.85-10.18,2.31-11.37l1.64,2.91Z"/>
  <path class="st1" d="M344.99.67c16.21,2.24,17.11,13.84,10.02,26.36l-27.01.47c-.69-.64,3.09-6.32-1.71-7.75-5.6-1.66-16.55.86-22.83-.27l-5.96,8.02h-24l-1.07-2.03,13.57-24.81h59Z"/>
  <path class="st1" d="M127.99.67c15.9,2,18.39,13.7,9.01,25.35l-26.01.5c3.02-10.57-12.45-8.6-19.53-7.99-10.19.87-16.93,8.98-17.96,8.98h-26.5c4.6-10.68,16.31-19.58,27.22-23.14,4.52-1.48,13.14-3.31,17.78-3.7,8.57-.73,27.74-1.04,36,0Z"/>
  <path class="st1" d="M278.99.67c-3.27,9.26-8.96,18.75-14.5,26.84h-22l.49-4.97c-1.53.23-4.87,4.97-5.49,4.97h-23.5c.47-2.39,2.91-5.12,4.49-6.97,5.69-6.68,12.94-12.98,18.51-19.87h42Z"/>
  <path class="st1" d="M198.99.67c.87,8.15-2.89,16.87-3.19,25.16l-1.31,1.68h-22c-2.49,0-.87-5.5-.51-6.96l-3.99,6.96h-24L157.99.67h41Z"/>
  <path class="st1" d="M68.99,35.46c-1.94,7.34-19.17,25.49-3.55,26.88,13.06,1.17,25.09.98,31.55-11.97h-18l8.5-14.91h44.5l-12.59,22.78c-13.39,24.21-48.32,24.26-72.79,21.83-32.98-3.27-14.66-27.93-4.12-44.61h26.5Z"/>
  <path class="st1" d="M292.99,35.46l-2,4.97h24.5c2.7,0,6.56-4.97,7-4.97h26.5c-2.08,7.74-11.33,16.45-18.72,19.66-15.59,6.76-33.62,3.24-50.12,4.36l-10.16,19.72h-27l24.5-43.74h25.5Z"/>
  <path class="st1" d="M192.49,35.46c2.73.66-1.41,11.55-.99,13.93l13.99-13.93h22.5l-7.49,9.95c-5.3,3.5-32.19,34.78-35.01,34.78h-20c-.8,0-1.87-2.38-1.55-3.43l6.05-41.3h22.5Z"/>
  <polygon class="st1" points="162.99 35.46 140.49 80.19 114.99 80.19 139.49 35.46 162.99 35.46"/>
  <polygon class="st1" points="259.99 35.46 236.99 79.19 209.99 79.19 236.49 35.46 259.99 35.46"/>
  <path class="st1" d="M246.64,103.69c-5.95,5.95-14.66,6.24-22.64,6.31l12.7-22.87c13.36-2.48,19.94,6.57,9.94,16.56ZM247.76,91.37c-1.21-1.36-9.15-1.85-10.57-1.03-1.28.74-7.56,14.34-9.2,16.68,9.66,2.03,22.6-4.85,19.77-15.65Z"/>
  <path class="st1" d="M213.72,87.37c23.29-4.75,12.64,21.32-5.24,22.66-18.96,1.42-7.11-20.14,5.24-22.66ZM214.72,89.35c-5.96,1.23-18.94,12.54-11.13,17.56,6.81,4.37,24.14-6.43,19.91-15.81-2.31-2.23-5.77-2.37-8.78-1.75Z"/>
  <path class="st1" d="M111.73,87.39c24.3-4.19,10.41,22.73-7.24,22.7-17.34-.03-4.9-20.61,7.24-22.7ZM112.73,89.37c-6.98,1.14-16.85,9.46-12.76,17.18,12.68,8.97,33.84-20.63,12.76-17.18Z"/>
  <path class="st1" d="M197.65,95.74c-1.92,1.98-5.85,3.64-8.66,3.33l2,10.93c-4.64.8-4.53-10.96-5.5-10.94-4.96,1.62-4.49,8.89-9.48,10.94.77-3.56,9.96-21.14,12-22.36,5.01-2.99,17.15.34,9.65,8.1ZM196.99,90.13c-6.09-.78-10.44.04-10.99,6.95,4.71.34,11.22-1.35,10.99-6.95Z"/>
  <path class="st1" d="M140.01,103.05c2.33.5,1.6-.3,2.23-1.28,2.52-3.9,4.41-8.87,7.17-12.75.37-.52,1.16-3.65,2.58-1.87,1.53,1.91-10.38,18.23-11.01,21.86-2.25.42-1.59-.11-2.21-1.26-2.32-4.22-2.83-10.32-5.26-14.63l-9.52,16.89-1.99-.5,13-22.35,5.02,15.9Z"/>
  <path class="st1" d="M29.99,99.08l2,10.92c-4.39.71-4.21-10.96-5.5-10.94-2.72-.48-7.22,13.31-9.49,10.94,1.09-3.09,10.76-21.64,11.98-22.37,2.51-1.51,11.7-.9,12.06,3.01.47,5.08-6.3,9.07-11.05,8.44ZM38,90.13c-6.9-.91-9.37.07-11,6.95,5.1.26,11.97-.43,11-6.95Z"/>
  <path class="st1" d="M289.73,87.38c2.39-.41,14.08-1.05,13.26,3.22-.68,3.5-5.29-.98-6.71-1.28-14.21-3.02-27.72,17.96-12.71,18.61,2.46.11,4.82-1.14,7.13-1.73.58-.15,3.49-2.14,3.27.31-.28,3.28-21.61,7.61-19.79-4.72.92-6.22,9.41-13.37,15.54-14.43Z"/>
  <path class="st1" d="M66.99,106.04c.91,2.42-4.32,3.53-5.73,3.74-27.32,3.96-8.55-28,11.79-22.18,1.79.51,5.63,3.89,2.43,4.53-2.32.46-4.32-2.62-7.06-2.97-16.48-2.13-29.37,26.78-1.42,16.89Z"/>
  <path class="st1" d="M262.99,87.15c1.33,1.4-10.31,16.09-8.96,19.82,11.68,5.99,16.59-17.74,21.48-19.81,1.23-.52,1.86.21,1.47,1.46s-7.36,12.83-8.55,14.37c-3.43,4.42-8.65,8.65-14.73,6.83-6.6-1.98,3.53-16.79,6.12-20.35.9-1.23,1.05-2.76,3.17-2.31Z"/>
  <path class="st1" d="M179.78,88.38c2.32,2.15-.73,6.67-2.74,8.25-4.9,3.86-10.16,1.23-13.04,2.94s-3.72,10.15-8,10.43c-.85-.95,10.89-21.71,11.98-22.37,1.83-1.12,10.15-.77,11.8.75ZM166,97.08c4.94-.03,9.94-.41,11.97-5.47-5.66-3.97-11.26-1.25-11.97,5.47Z"/>
  <path class="st1" d="M331.03,92.09l-1.64-2.91c-10.16,1.2-2.57,7.35-2.31,11.37.55,8.54-14.61,14.54-14.08,3.49l3.01.69,1.56,3.22c14.39-2.93-.72-11.58,5.41-18.36,5.06-5.59,15.81-.36,8.05,2.49Z"/>
  <path class="st1" d="M23.99,87.15c.07,5.46-8.6,1.71-10.84,3.14l-3.15,6.79,8.99.5c-2.21,3.15-8.86.41-10.84,1.66-.59.37-5.7,13.21-8.15,10.77l12.42-21.94,11.57-.91Z"/>
  <path class="st1" d="M87.15,90.28c-.86.53-7.72,15.16-9.71,17.68-.93,1.18-1.66,2.39-3.44,2.04l10.99-19.38-4.99-1.97c1.97-2.46,13.42-2.02,14.5-.51.21,3.55-5.76,1.17-7.36,2.15Z"/>
  <path class="st1" d="M320.99,87.15c.66,3.69-3.7.86-6.57,2.91-3.03,2.16-7.16,13.34-9.99,16.91-.93,1.18-1.66,2.39-3.44,2.04-.99-1.01,9.25-15.87,9.97-18.41.83-2.93-4.28-.48-4.97-1.95,3.96-3.07,10.28-.86,14.99-1.49Z"/>
  <path class="st1" d="M99.99,87.15c.86.77-10.62,17.62-11.16,20.21l-3.83,2.64c-.86-.88,10.34-19.48,11.74-21.59.91-1.38,2.27-2.14,3.25-1.26Z"/>
  <path class="st1" d="M50.99,87.15c.68.7-8.07,15.38-9.19,17.19s-2.43,5.96-4.8,5.66c1.93-6.02,6.43-15.02,10.16-20.21.98-1.36,1.81-2.99,3.83-2.64Z"/>
  <rect class="st1" x="44.99" y="28.5" width="28" height="1.99"/>
  <path class="st1" d="M351.99,32.47v1.99h-28c-.08-.65,1.33-1.99,1.5-1.99h26.5Z"/>
  <path class="st1" d="M70.99,32.47c.08.65-1.33,1.99-1.5,1.99h-26.5v-1.99h28Z"/>
  <path class="st1" d="M354.99,28.5c.08.65-1.33,1.99-1.5,1.99h-26.5v-1.99h28Z"/>
  <rect class="st1" x="267.99" y="32.47" width="27" height="1.99"/>
  <path class="st1" d="M296.99,28.5v1.99h-27c-.08-.65,1.33-1.99,1.5-1.99h25.5Z"/>
  <rect class="st1" x="236.99" y="32.47" width="25" height="1.99"/>
  <path class="st1" d="M235.99,28.5c.08.65-1.33,1.99-1.5,1.99h-24.5c-.08-.65,1.33-1.99,1.5-1.99h24.5Z"/>
  <path class="st1" d="M231.99,32.47c.08.65-1.33,1.99-1.5,1.99h-23.5v-1.99h25Z"/>
  <path class="st1" d="M164.99,32.47c.08.65-1.33,1.99-1.5,1.99h-23.5v-1.99h25Z"/>
  <path class="st1" d="M263.99,28.5v1.99h-25c-.08-.65,1.33-1.99,1.5-1.99h23.5Z"/>
  <path class="st1" d="M194.99,28.5v1.99h-25c-.08-.65,1.33-1.99,1.5-1.99h23.5Z"/>
  <path class="st1" d="M166.99,28.5c.08.65-1.33,1.99-1.5,1.99h-23.5v-1.99h25Z"/>
  <rect class="st1" x="169.99" y="32.47" width="24" height="1.99"/>
  <path class="st0" d="M247.76,91.37c2.83,10.8-10.11,17.68-19.77,15.65,1.64-2.34,7.93-15.94,9.2-16.68,1.42-.82,9.36-.33,10.57,1.03Z"/>
  <path class="st0" d="M214.72,89.35c3.01-.62,6.47-.48,8.78,1.75,4.23,9.39-13.1,20.18-19.91,15.81-7.82-5.02,5.17-16.34,11.13-17.56Z"/>
  <path class="st0" d="M112.73,89.37c21.08-3.45-.08,26.16-12.76,17.18-4.09-7.72,5.78-16.04,12.76-17.18Z"/>
  <path class="st0" d="M196.99,90.13c.23,5.59-6.28,7.29-10.99,6.95.55-6.91,4.9-7.72,10.99-6.95Z"/>
  <path class="st0" d="M38,90.13c.98,6.52-5.89,7.2-11,6.95,1.63-6.88,4.1-7.86,11-6.95Z"/>
  <path class="st0" d="M166,97.08c.71-6.72,6.31-9.44,11.97-5.47-2.03,5.05-7.03,5.43-11.97,5.47Z"/>
</svg>