<?xml version="1.0" encoding="UTF-8"?>
<svg id="Layer_1" xmlns="http://www.w3.org/2000/svg" version="1.1" viewBox="0 0 1200 190">
  <!-- Generator: Adobe Illustrator 29.3.1, SVG Export Plug-In . SVG Version: 2.1.0 Build 151)  -->
  <defs>
    <style>
      .st0 {
        fill: none;
      }

      .st1 {
        fill: #fff;
      }
    </style>
  </defs>
  <path class="st1" d="M251,0l-125.51,189.01L1,0h250ZM138,10.99c3.26-2.96-15.3-9.23-20.05-1.55-4.12,6.65.82,15.22-2.71,20.3-2.23,3.21-3.59,1.7-5.96,3.03-2.68,1.5-11.38,6.35-12.71,8.29-1.88,2.74-5.4,14.88-6.33,18.67-.61,2.51.24,5.24-.43,7.57-.46,1.61-4.53,4.63-5.99,7.01-3.84,6.24-2.21,13.28-6.08,19.42-.55.88-3.26,1.16-3.61,2.9-.39,1.89,3.77,5.81,5.09,7.66,1.58,2.23,1.45,7.34,5.29,3.71,3.34-3.16-.47-6.22-.54-9.47-.05-2.52,1.97-8.5,3.61-10.46s13.67-9.41,8.44-12.62l-3.97.54-1.03-3.99c.32-.33,4.55,2.65,7.88-2.62,1.23-1.95.17-5.09,3.1-4.38,1.1,4.03,3,9.16,2.69,13.37-.35,4.71-5.08,9.2-4.76,14.14.13,2.05,4.56,10.15,6.08,8.48l.99-4.99c.1,5.11,2.98,9.67,8.53,10.06,2.25.16,5.29-1.3,5.47-1.08.15.19-.21,2.2,1,3.5.66.72,6.48,3.39,7.61,3.51,5.99.6,4.44-5.32,9.4-5.99l-3.48,11.01c-4.67,2.54.5-4.34-3-4-10.95,4.47-4.96,8.38-3,15.96.93,3.6,1.25,15.22,5.96,15.03l6.49-2.5c-4.21-6.74-4.07-11-1.96-18.51l.99,5.99c1.35,1.36,14.16-10.29,14.75-11.74.88-2.14,2.18-14.32-.27-14.27-2.31.05-8.73,13.01-12.48,14.01,2.06-4.85,4.88-12.31,8.5-15.99s20.45-13.29,15.96-20.03c-.41-.62-1.95-.71-2.24-1.2-.81-1.36.44-3.63-1.21-5.31-.28-.28-6.25-3.98-6.8-4.2-7.84-3.21-19.13-1.17-26.17,3.29-2.83,1.79-4.62,6.14-9.06,5.43.17-3.31,4.44-3.89,6.03-6.46,1.21-1.97.99-4.35,1.96-5.84,2.3-3.52,7.13-7.86,9.44-11.76.82-1.39,7-12.86,3.07-12.91l-4.48,1.48c3.74-4.34,9.47-5.32,14.47-7.51l-4.49,4.02c1.08,3.16,4.99,1.5,7.44,2.04,6.12,1.34,14.54,3.16,20.93,2.63,2.37-.2,4.33-2.52,5.95-2.47,1.43.05,2.95,1.5,5,1.48,6.13-.05,14.73-6.08,20.61-7.25,4.65-.93,11.74,1.48,12.07-5.04.16-3.25-3.16-5.08-5.67-6.29l-4.33,2.89.49-5c-4.26-.77-2.77,3.67-4.47,5.53-5.22,5.69-18.86-.14-24.15,1-2.69.58-4.75,5.33-8.46,5.51-3.37.16-2.99-2.38-5.05-3.89-8.97-6.57-9.48.33-13.81-.08-2.33-.22-5.3-4.91-10.07-5.12-6.32-.28-7.16,5.04-10.21,5.91-1.82.52-10.25-.4-10.23-3.24l1.42-8.65,4.99.04,1.34-1.45c-2.52-5.56.8-7.75,6.2-7.55ZM130,20.99c-1.45,5.26-1.3,10.94,5.55,7.06,4.15-2.35.57-3.63.47-5.54-.11-2.03,3.44-4.83,1.52-7.54-6.71-3.45-2.44,3.49-4.01,6.07l-3.52-.05ZM118.01,169c6.12-.91,1.13-7.53.91-11.48-.45-8.13,3.52-14.73,9.97-19.18l-3.41-11.34-10.46,11.51c-2.12,2.53-7.54,2.63-8.08,6.01-.66,4.08,3.07,5.13,4.81,8.22,2.52,4.49,4.74,11.24,6.26,16.25Z"/>
  <path class="st1" d="M1200,118c-15.32,6.07-38.21,5.79-46.4-11.1-14.44-29.77,18.62-53.51,45.4-38.88-1.55,8.62-5.62,3.38-10.56,2.04-12.75-3.47-27.12,2.87-29.18,16.7-2.81,18.82,8.82,32.17,28.17,29.17,8.29-1.28,3.23-14.52,4.56-20.94h8.01v23.01Z"/>
  <polygon class="st1" points="269 65 269 85.5 270.5 87 291.5 87 293 85.5 293 65 304 65 304 121 293 121 293 94 269 94 269 121 258 121 258 65 269 65"/>
  <path class="st1" d="M378.5,65c11.39,1.62,16.57,13.41,11.27,23.27-1.44,2.67-6.7,5.92-6.75,8.21l11.99,23.52-11,1.57c-3.6-3.8-8.79-22.21-12.69-23.37-1.66-.5-3.59-.13-5.31-.19v23h-11.01s0-56,0-56c7.32.74,16.43-1.01,23.5,0ZM366,91c19.25,2,20.36-21.8,0-19v19Z"/>
  <path class="st1" d="M462,65v38.5c0,1.38,2.27,6.23,3.45,7.55,3.65,4.06,11.78,4.08,15.91.82,1.02-.81,4.64-6.8,4.64-7.36v-39.5h10v40.5c0,.67-2.85,6.39-3.56,7.44-7.88,11.49-29.83,12.3-37.87,1-.71-1-3.57-6.79-3.57-7.43v-41.5h11Z"/>
  <polygon class="st1" points="1092 65 1098.8 65.22 1135 109 1135 65 1141 65 1141 121 1134.43 120.07 1100.81 78.69 1098 77 1098 121 1092 119.5 1092 65"/>
  <path class="st1" d="M574,65v7h-17.5c-2.46,3.61-2.43,12.51,0,16h17.5v7h-19v17.5c0,2.75,6.11.55,7.51.5,4.82-.16,9.68.11,14.49,0v8.01h-33.01v-56h30Z"/>
  <polygon class="st1" points="344 65 344 72 326 72 326 88 344 88 344 95 326 95 326 113 346.5 113 347.84 114.65 348 121 315 121 315 65 344 65"/>
  <path class="st1" d="M905,97v24l-6.35-.16-1.65-1.34v-54.5h21.5c.39,0,4.71,2.04,5.46,2.54,9.79,6.63,6.05,23.08-3.91,27.94l13.93,23.02c-1.6,1.74-6,3.29-7.99,2.04-3.53-2.22-9.72-22.66-14.48-23.55-1.98-.37-4.44.21-6.51,0ZM905,70v22c21.43,3.37,22.65-26.51,0-22Z"/>
  <polygon class="st1" points="658 65 658 87 686 87 686 65 694 65 694 119.5 692.35 120.84 686 121 686 93 658 93 658 121 651 121 651 65 658 65"/>
  <path class="st1" d="M423.76,64.26c6.55-.89,15.03-.02,20.16,4.34l-3.4,6.27c-40.54-16.92-42.33,50.64-.94,37.17,10.3,6.75-2.59,9.59-9.11,9.95-39.67,2.23-45.33-52.51-6.72-57.74Z"/>
  <path class="st1" d="M615.99,68.02l-3.65,5.9c-5.13-2.09-16.59-5.2-16.38,3.59s22.05,15.2,22.06,28.99c0,7.98-8.42,14.23-15.78,15.23s-26.23-1.89-15.75-11.72c3.34,4.43,15.41,6.11,18.4,1.38,9.4-14.89-29.88-20.98-18.74-39.75,5.86-9.87,21.11-9.06,29.84-3.63Z"/>
  <path class="st1" d="M765.89,65.12l20.11,55.87c-12.12,2.84-10.3-8.96-14.14-16.85l-21.97.45-5.37,15.42-7.51.98,21.88-55.4,7-.47ZM769,99l-7.01-25c-1.52.14-1.53,1.51-1.93,2.55-2.68,6.89-4.99,15.27-7.05,22.45h16Z"/>
  <path class="st1" d="M1003.89,65.12l20.11,55.87c-11.83,2.87-10.6-8.93-14.11-16.87l-22,.47-5.37,15.42-7.51.98,21.88-55.4,7-.47ZM1007,99l-7.01-25c-1.33.11-1.63,1.42-2.05,2.44-2.74,6.57-4.85,15.61-6.94,22.56h16Z"/>
  <polygon class="st1" points="731 65 731 70 712 70 712 88 731 88 731 94 712 94 712 115 735 115 735 121 704 121 704 65 731 65"/>
  <path class="st1" d="M517,65v47.5l1.58,1.39c6.61-1.52,13.79-1.35,20.31.21l.11,6.89h-33v-56h11Z"/>
  <polygon class="st1" points="969 65 969 70 950.5 70 949 71.5 949 88 969 88 969 94 950.5 94 949 95.5 949 115 973 115 973 121 942 121 942 65 969 65"/>
  <polygon class="st1" points="1064 65 1064 70 1046 70 1046 119.5 1044.35 120.84 1038 121 1038 70 1020 70 1020 65 1064 65"/>
  <polygon class="st1" points="826 65 826 70 808 70 808 119.5 806.35 120.84 800 121 800 70 782 70 782 65 826 65"/>
  <polygon class="st1" points="890 65 890 70 872 70 872 121 865.65 120.84 864 119.5 864 70 847 70 847 65 890 65"/>
  <polygon class="st1" points="1079 65 1079 119.5 1077.35 120.84 1071 121 1071 65 1079 65"/>
  <path class="st0" d="M138,10.99c-5.4-.2-8.72,1.99-6.2,7.55l-1.34,1.45-4.99-.04-1.42,8.65c-.02,2.84,8.41,3.76,10.23,3.24,3.05-.87,3.89-6.19,10.21-5.91,4.77.21,7.74,4.9,10.07,5.12,4.33.41,4.84-6.49,13.81.08,2.06,1.51,1.68,4.04,5.05,3.89,3.7-.17,5.77-4.93,8.46-5.51,5.29-1.14,18.94,4.69,24.15-1,1.7-1.85.21-6.29,4.47-5.53l-.49,5,4.33-2.89c2.51,1.22,5.83,3.04,5.67,6.29-.33,6.52-7.42,4.11-12.07,5.04-5.88,1.17-14.49,7.2-20.61,7.25-2.05.02-3.57-1.43-5-1.48-1.62-.05-3.58,2.27-5.95,2.47-6.38.53-14.8-1.29-20.93-2.63-2.45-.54-6.36,1.12-7.44-2.04l4.49-4.02c-5,2.19-10.73,3.17-14.47,7.51l4.48-1.48c3.93.05-2.24,11.52-3.07,12.91-2.31,3.91-7.14,8.24-9.44,11.76-.97,1.49-.75,3.87-1.96,5.84-1.58,2.57-5.86,3.15-6.03,6.46,4.43.7,6.23-3.64,9.06-5.43,7.03-4.46,18.33-6.5,26.17-3.29.54.22,6.52,3.92,6.8,4.2,1.66,1.68.41,3.95,1.21,5.31.29.49,1.83.58,2.24,1.2,4.49,6.74-12.38,16.39-15.96,20.03s-6.44,11.14-8.5,15.99c3.75-1,10.17-13.96,12.48-14.01,2.45-.05,1.15,12.13.27,14.27-.6,1.45-13.4,13.1-14.75,11.74l-.99-5.99c-2.11,7.5-2.24,11.77,1.96,18.51l-6.49,2.5c-4.71.19-5.02-11.43-5.96-15.03-1.96-7.59-7.95-11.5,3-15.96,3.5-.33-1.67,6.55,3,4l3.48-11.01c-4.96.67-3.41,6.59-9.4,5.99-1.13-.11-6.95-2.79-7.61-3.51-1.21-1.31-.85-3.32-1-3.5-.18-.21-3.21,1.24-5.47,1.08-5.55-.39-8.43-4.96-8.53-10.06l-.99,4.99c-1.52,1.66-5.95-6.43-6.08-8.48-.32-4.95,4.41-9.44,4.76-14.14.32-4.21-1.59-9.34-2.69-13.37-2.93-.71-1.86,2.42-3.1,4.38-3.33,5.27-7.56,2.3-7.88,2.62l1.03,3.99,3.97-.54c5.24,3.21-6.87,10.74-8.44,12.62s-3.66,7.95-3.61,10.46c.06,3.25,3.88,6.31.54,9.47-3.84,3.63-3.71-1.49-5.29-3.71-1.32-1.85-5.48-5.77-5.09-7.66.35-1.74,3.06-2.02,3.61-2.9,3.87-6.14,2.24-13.18,6.08-19.42,1.46-2.38,5.53-5.4,5.99-7.01.67-2.33-.18-5.06.43-7.57.93-3.8,4.45-15.93,6.33-18.67,1.33-1.94,10.03-6.79,12.71-8.29,2.37-1.33,3.73.18,5.96-3.03,3.53-5.08-1.41-13.65,2.71-20.3,4.76-7.68,23.32-1.41,20.05,1.55ZM110.99,80c.84-5.77,3.78-11.68,4.01-17.52.18-4.48-1.64-8.98-.95-12.91.58-3.3,4.52-9.7,6.01-13.01.83-1.85,1.69-1.83-.55-3.53-1.71.11-8.07,14.25-8.44,16.54-1,6.15,1.5,12.01.95,17.95-.36,3.86-4.81,10.24-1.02,12.49ZM102.21,59.16c9.57,1.83-4.7-6.65-5.21-6.15l3.01,7.99,1.98-.02.23-1.82ZM155,82.01c-3.01-2.65-10.47,6.22-11.85,8.64-1.14,1.99-1.94,7.1-3.12,7.88-2.24,1.46-12.31,2.73-15.29,3.71-1.13.37-2.43,1.57-2.73,2.76,3.16,2,14.74-4.24,15.98-2.98.5.5-.94,3.32,1.01,2.98-.13-2.8,2.7-2.81,5.01-3,.46-1.96-2.01-2.76-2.01-4.49,0-.44,3.58-7.25,3.98-7.77,2.23-2.84,8.81-3.25,9.03-7.73Z"/>
  <path class="st0" d="M118.01,169c-1.52-5.01-3.74-11.76-6.26-16.25-1.73-3.09-5.46-4.14-4.81-8.22.55-3.38,5.96-3.48,8.08-6.01l10.46-11.51,3.41,11.34c-6.45,4.45-10.42,11.05-9.97,19.18.22,3.94,5.21,10.57-.91,11.48Z"/>
  <path class="st0" d="M130,20.99l3.52.05c1.57-2.58-2.7-9.52,4.01-6.07,1.93,2.72-1.62,5.52-1.52,7.54.1,1.91,3.68,3.19-.47,5.54-6.85,3.88-7-1.8-5.55-7.06Z"/>
  <path class="st0" d="M366,91v-19c20.36-2.8,19.25,21,0,19Z"/>
  <path class="st0" d="M905,70c22.65-4.51,21.43,25.37,0,22v-22Z"/>
  <path class="st0" d="M769,99h-16c2.07-7.17,4.37-15.55,7.05-22.45.4-1.04.41-2.41,1.93-2.55l7.01,25Z"/>
  <path class="st0" d="M1007,99h-16c2.09-6.95,4.2-16,6.94-22.56.42-1.01.72-2.32,2.05-2.44l7.01,25Z"/>
  <path class="st1" d="M110.99,80c-3.79-2.24.66-8.63,1.02-12.49.56-5.94-1.94-11.8-.95-17.95.37-2.29,6.73-16.43,8.44-16.54,2.25,1.7,1.38,1.68.55,3.53-1.48,3.31-5.42,9.71-6.01,13.01-.69,3.93,1.13,8.43.95,12.91-.23,5.85-3.16,11.75-4.01,17.52Z"/>
  <path class="st1" d="M155,82.01c-.22,4.48-6.79,4.89-9.03,7.73-.41.52-3.98,7.33-3.98,7.77,0,1.73,2.47,2.52,2.01,4.49-2.31.19-5.14.2-5.01,3-1.95.34-.51-2.48-1.01-2.98-1.24-1.26-12.82,4.99-15.98,2.98.3-1.19,1.61-2.39,2.73-2.76,2.98-.98,13.05-2.24,15.29-3.71,1.18-.77,1.98-5.89,3.12-7.88,1.38-2.42,8.84-11.29,11.85-8.64Z"/>
  <path class="st1" d="M102.21,59.16l-.23,1.82-1.98.02-3.01-7.99c.51-.5,14.78,7.98,5.21,6.15Z"/>
</svg>