<?xml version="1.0" encoding="UTF-8"?>
<svg id="Layer_1" xmlns="http://www.w3.org/2000/svg" version="1.1" viewBox="0 0 943.88 143.78">
  <!-- Generator: Adobe Illustrator 29.1.0, SVG Export Plug-In . SVG Version: 2.1.0 Build 142)  -->
  <defs>
    <style>
      .st0 {
        fill-rule: evenodd;
      }

      .st0, .st1 {
        fill: #fff;
      }
    </style>
  </defs>
  <path class="st0" d="M149.63,122.3c47.97,2.07,134.52,1.93,179.7-14.33-50.27,24.63-245.86,25.94-312.29,8.55-30.31-7.94-14.96-14.96,5.75-19.16,7.74-1.58,21.57-4.34,29.09-3.89-4.77.27-23.04,5.44-17.4,11.79,10.95,12.35,92.7,16.07,115.15,17.04h0Z"/>
  <g>
    <path class="st1" d="M62.95,104.99V28.64h15.89v31h31.57v-31h15.89v76.35h-15.89v-34.82h-31.57v34.82s-15.89,0-15.89,0Z"/>
    <path class="st1" d="M203.73,103.18c-6.81,1.75-11.77,2.81-14.88,3.17s-6.41.54-9.88.54c-14.31,0-24.71-3.79-31.21-11.38s-9.75-17.19-9.75-28.81c0-7.6,1.43-14.44,4.28-20.51s7.18-10.83,12.97-14.29c5.79-3.46,13.65-5.18,23.55-5.18,8.36,0,16.65.98,24.87,2.94v12.43c-6.91-2.37-11.88-3.78-14.91-4.23s-5.92-.67-8.67-.67c-8.94,0-15.38,2.89-19.32,8.67-3.94,5.78-5.91,12.78-5.91,21,0,8.98,2.32,16.11,6.96,21.41s11.18,7.94,19.6,7.94c1.82,0,3.96-.26,6.4-.77v-25.12h15.89v32.86h.01Z"/>
    <path class="st1" d="M214.6,104.32v-13.11c5.96,2.5,10.41,4,13.36,4.49s5.66.73,8.13.73c4.46,0,7.79-1,9.99-2.99,2.2-2,3.29-4.39,3.29-7.18,0-2.13-.62-4.06-1.85-5.78-1.23-1.69-4.24-3.87-9.03-6.56l-5.15-2.84c-7.36-4.1-12.34-7.88-14.94-11.36-2.64-3.48-3.96-7.5-3.96-12.08,0-5.75,2.2-10.67,6.59-14.76s10.71-6.14,18.94-6.14c6.15,0,13.08.88,20.79,2.63v12.23c-7.89-2.93-14.16-4.39-18.81-4.39-3.84,0-6.77.83-8.78,2.5s-3.01,3.67-3.01,6.01c0,1.79.61,3.46,1.84,5.01,1.19,1.55,4.18,3.67,8.97,6.35l5.52,3.05c8.43,4.72,13.81,8.81,16.14,12.28,2.29,3.51,3.44,7.44,3.44,11.81,0,6.26-2.39,11.6-7.16,16.03-4.77,4.43-12.36,6.65-22.78,6.65-6.15,0-13.34-.86-21.53-2.58Z"/>
    <path class="st1" d="M276.6,104.99V28.64h15.89v76.35h-15.89Z"/>
  </g>
  <g>
    <path class="st1" d="M387.22,63.08V10.03h-22.03V1.54h56.88v8.49h-22.03v53.05h-12.82Z"/>
    <path class="st1" d="M434.5,63.08V1.55h12.81v24.98h25.45V1.55h12.81v61.53h-12.81v-28.06h-25.45v28.07h-12.81Z"/>
    <path class="st1" d="M504.76,63.08V1.55h39.41v8.49h-26.61v17.13h21.99v8.49h-21.99v18.7h28.56v8.73h-41.36Z"/>
    <path class="st1" d="M587.3,62.54v-10.56c4.8,2.02,8.39,3.22,10.76,3.62,2.37.39,4.56.59,6.55.59,3.6,0,6.28-.8,8.05-2.41s2.65-3.54,2.65-5.78c0-1.72-.49-3.27-1.48-4.66-.99-1.36-3.41-3.12-7.28-5.28l-4.16-2.29c-5.93-3.3-9.94-6.35-12.04-9.16-2.12-2.8-3.19-6.04-3.19-9.73,0-4.63,1.77-8.6,5.31-11.9S601.1.03,607.73.03c4.96,0,10.54.71,16.76,2.12v9.86c-6.36-2.36-11.41-3.54-15.16-3.54-3.09,0-5.45.67-7.07,2.02s-2.42,2.96-2.42,4.85c0,1.44.49,2.78,1.48,4.03.96,1.25,3.37,2.96,7.23,5.11l4.44,2.45c6.8,3.8,11.14,7.1,13,9.9,1.85,2.83,2.77,6,2.77,9.52,0,5.04-1.92,9.35-5.76,12.92-3.85,3.57-9.96,5.36-18.35,5.36-4.96-.01-10.75-.7-17.35-2.09h0Z"/>
    <path class="st1" d="M643.23,63.08V1.55h39.41v8.49h-26.61v17.13h21.99v8.49h-21.99v18.7h28.56v8.73h-41.36Z"/>
    <path class="st1" d="M698.2,63.08V1.55h11.29l28.46,42.03V1.55h10.27v61.53h-11.49l-28.26-42.03v42.03s-10.27,0-10.27,0Z"/>
    <path class="st1" d="M764.02,62.54v-10.56c4.8,2.02,8.39,3.22,10.76,3.62,2.37.39,4.56.59,6.55.59,3.6,0,6.28-.8,8.05-2.41s2.66-3.54,2.66-5.78c0-1.72-.49-3.27-1.48-4.66-.99-1.36-3.41-3.12-7.28-5.28l-4.16-2.29c-5.93-3.3-9.94-6.35-12.04-9.16-2.12-2.8-3.19-6.04-3.19-9.73,0-4.63,1.77-8.6,5.31-11.9S777.83.03,784.46.03c4.95,0,10.54.71,16.76,2.12v9.86c-6.36-2.36-11.41-3.54-15.16-3.54-3.09,0-5.45.67-7.07,2.02-1.62,1.34-2.42,2.96-2.42,4.85,0,1.44.49,2.78,1.48,4.03.96,1.25,3.37,2.96,7.23,5.11l4.44,2.45c6.8,3.8,11.13,7.1,13,9.9,1.85,2.83,2.76,6,2.76,9.52,0,5.04-1.92,9.35-5.76,12.92-3.85,3.57-9.96,5.36-18.35,5.36-4.97-.01-10.75-.7-17.35-2.09h0Z"/>
    <path class="st1" d="M847.34,64.62c-6.4,0-11.97-1.32-16.71-3.97-4.74-2.65-8.34-6.45-10.81-11.44-2.46-4.97-3.7-10.61-3.7-16.9s1.24-11.89,3.7-16.88,6.08-8.81,10.85-11.46,10.32-3.97,16.67-3.97,11.86,1.32,16.63,3.97c4.76,2.65,8.38,6.47,10.85,11.46s3.7,10.62,3.7,16.88-1.24,11.93-3.7,16.9c-2.46,4.98-6.06,8.79-10.79,11.44s-10.29,3.97-16.69,3.97h0ZM847.34,56.19c5.93,0,10.34-2.42,13.24-7.26s4.34-10.38,4.34-16.62-1.45-11.81-4.36-16.62c-2.91-4.82-7.32-7.22-13.22-7.22s-10.35,2.4-13.26,7.22-4.36,10.35-4.36,16.62,1.44,11.79,4.34,16.62c2.9,4.84,7.32,7.26,13.28,7.26h0Z"/>
    <path class="st1" d="M893.87,63.08V1.55h23.04c4.71,0,8.3.59,10.76,1.76,2.46,1.18,4.41,2.97,5.85,5.36,1.42,2.4,2.14,5.1,2.14,8.13,0,3.6-1.04,7-3.11,10.21-2.08,3.2-5.02,5.65-8.82,7.34l20.15,28.73h-15.6l-15.3-25.15h-7.04v25.15h-12.07ZM905.92,29.49h2.95c5.28,0,8.94-1.15,10.95-3.45s3.02-4.91,3.02-7.82c0-2.53-.81-4.53-2.46-6.01-1.64-1.48-4.97-2.23-10-2.23h-4.45v19.51h-.01Z"/>
    <path class="st1" d="M421.44,139.83c-2.69,1.18-5.03,1.99-7.02,2.42-2,.44-4.26.8-6.8,1.09s-5.04.43-7.51.43c-10.75,0-18.78-3.03-24.08-9.1-5.29-6.07-7.94-13.81-7.94-23.2s2.64-17.2,7.92-23.24,13.58-9.06,24.88-9.06c6.68,0,13.33.79,19.95,2.37v10.02c-3.19-1.11-5.79-1.92-7.82-2.43s-3.94-.9-5.75-1.14c-1.81-.25-3.62-.37-5.42-.37-7.06,0-12.2,2.27-15.38,6.82-3.19,4.55-4.78,10.18-4.78,16.88,0,7.04,1.8,12.73,5.42,17.09,3.62,4.35,9,6.53,16.15,6.53,5.96,0,12.01-1.51,18.17-4.54v9.44h.01,0Z"/>
    <path class="st1" d="M458.7,143.78c-6.4,0-11.97-1.32-16.71-3.97s-8.34-6.45-10.81-11.44-3.7-10.61-3.7-16.9,1.24-11.89,3.7-16.88c2.46-4.99,6.08-8.81,10.85-11.46s10.32-3.97,16.67-3.97,11.86,1.32,16.63,3.97c4.76,2.65,8.38,6.47,10.85,11.46s3.7,10.62,3.7,16.88-1.24,11.93-3.7,16.9-6.06,8.79-10.79,11.44c-4.73,2.65-10.29,3.97-16.69,3.97h0ZM458.7,135.34c5.93,0,10.34-2.42,13.24-7.26,2.9-4.85,4.34-10.38,4.34-16.62s-1.45-11.81-4.36-16.62c-2.91-4.82-7.32-7.22-13.22-7.22s-10.35,2.4-13.26,7.22-4.36,10.35-4.36,16.62,1.44,11.79,4.34,16.62c2.89,4.84,7.32,7.26,13.28,7.26Z"/>
    <path class="st1" d="M500.12,142.24v-61.53h11.29l28.46,42.03v-42.03h10.27v61.53h-11.49l-28.26-42.03v42.03h-10.27Z"/>
    <path class="st1" d="M564.28,142.24v-61.53h11.29l28.46,42.03v-42.03h10.27v61.53h-11.49l-28.26-42.03v42.03h-10.27Z"/>
    <path class="st1" d="M628.44,142.24v-61.53h39.41v8.49h-26.61v17.13h21.99v8.49h-21.99v18.7h28.56v8.73h-41.36Z"/>
    <path class="st1" d="M727.82,139.83c-2.69,1.18-5.03,1.99-7.02,2.42-2,.44-4.26.8-6.8,1.09s-5.03.43-7.51.43c-10.75,0-18.78-3.03-24.08-9.1s-7.94-13.81-7.94-23.2,2.64-17.2,7.92-23.24,13.57-9.06,24.88-9.06c6.68,0,13.33.79,19.95,2.37v10.02c-3.19-1.11-5.79-1.92-7.82-2.43s-3.94-.9-5.75-1.14-3.62-.37-5.42-.37c-7.06,0-12.2,2.27-15.38,6.82-3.19,4.55-4.78,10.18-4.78,16.88,0,7.04,1.8,12.73,5.42,17.09,3.62,4.35,9,6.53,16.15,6.53,5.96,0,12.01-1.51,18.17-4.54v9.44h.01Z"/>
    <path class="st1" d="M752.98,142.24v-53.05h-22.03v-8.49h56.88v8.49h-22.03v53.05h-12.82Z"/>
    <path class="st1" d="M795.15,142.24v-61.53h12.81v61.53h-12.81Z"/>
    <path class="st1" d="M849.5,143.78c-6.4,0-11.97-1.32-16.71-3.97s-8.34-6.45-10.81-11.44-3.7-10.61-3.7-16.9,1.24-11.89,3.7-16.88,6.08-8.81,10.85-11.46,10.32-3.97,16.67-3.97,11.87,1.32,16.63,3.97,8.38,6.47,10.85,11.46,3.7,10.62,3.7,16.88-1.24,11.93-3.7,16.9-6.06,8.79-10.79,11.44c-4.73,2.65-10.29,3.97-16.69,3.97h0ZM849.5,135.34c5.93,0,10.34-2.42,13.24-7.26,2.9-4.85,4.34-10.38,4.34-16.62s-1.45-11.81-4.36-16.62c-2.91-4.82-7.32-7.22-13.22-7.22s-10.35,2.4-13.26,7.22c-2.91,4.82-4.36,10.35-4.36,16.62s1.44,11.79,4.34,16.62c2.9,4.84,7.32,7.26,13.28,7.26h0Z"/>
    <path class="st1" d="M890.92,142.24v-61.53h11.29l28.46,42.03v-42.03h10.27v61.53h-11.49l-28.26-42.03v42.03h-10.27Z"/>
  </g>
</svg>