<?xml version="1.0" encoding="UTF-8"?>
<svg id="Layer_1" xmlns="http://www.w3.org/2000/svg" version="1.1" viewBox="0 0 361.51 65.78">
  <!-- Generator: Adobe Illustrator 29.1.0, SVG Export Plug-In . SVG Version: 2.1.0 Build 142)  -->
  <defs>
    <style>
      .st0 {
        fill: #fff;
      }
    </style>
  </defs>
  <path class="st0" d="M78.64,34.82c-1.53,1.74-3.94,4.2-7.3,6.58-8.99,6.36-18.08,7.5-25.46,8.19-6.9.65-13.95.09-21.16-1.73-5.33-1.34-9.48-4.41-10.37-10.39-.55-3.71.65-5.57,4.4-6.93.14,4.77,3.35,7.02,7.25,8.56,6.84,2.7,14.02,3.34,21.31,3.38,8.94.06,15.42-.1,23.24-3.32,3.51-1.44,6.24-3.08,8.11-4.35h-.02Z"/>
  <path class="st0" d="M74.59,51.89c-.83,1.11-2.14,2.65-4.02,4.16,0,0-1.18,1.01-2.63,1.82-13.73,7.74-28.31,9.93-43.61,5.99-6.43-1.66-9.75-6.11-9.44-11.44.07-1.27.52-2.33,1.39-3.18.64-.63,1.45-1.34,2.37-1.23,1.24.15.5,1.33.71,2.03.77,2.47,2.59,3.94,4.75,5.02,4.65,2.32,9.69,3.25,14.81,3.62,11.64.84,18.7.93,27.41-2.51,3.67-1.45,6.47-3.11,8.25-4.28h0Z"/>
  <path class="st0" d="M83.06,19.27c.39-.55.62-1.07.76-1.46l6-.57c.1-.5.15-1.06.11-1.67-.18-2.92-2.29-4.86-2.99-5.46-1.62-.13-3.24-.25-4.86-.38-.49-.48-1.16-1.04-2.03-1.56-.64-.38-1.24-.64-1.75-.83.35-.28,1.02-.85,1.4-1.45.06-.1.15-.24.11-.4-.08-.32-.61-.43-.78-.47-.8-.18-5.33-1.38-11.65-3.06-1.34.24-2.69.47-4.03.71-.85-.23-1.83-.44-2.92-.58-1.1-.15-2.11-.2-3-.2-.67-.49-1.34-.99-2.01-1.48-4.91-.14-9.81-.27-14.72-.41-.74.56-1.47,1.11-2.21,1.67-2.69.27-5.38.54-8.07.81-.79-.34-1.58-.67-2.37-1.01-4.33,1.04-8.67,2.08-13,3.12.23.51.46,1.02.69,1.53-.84.33-1.77.76-2.76,1.3-.8.44-1.5.9-2.12,1.34l-4.84.07c-2.01,2.12-4.01,4.23-6.02,6.35,1.67.38,3.35.76,5.02,1.15-.08.22-.24.77-.1,1.43.13.59.43.98.58,1.16-.44.32-.9.64-1.37.96-.99.68-1.97,1.32-2.93,1.91,2.43,1.79,5,3.57,7.73,5.31.67.43,1.35.85,2.02,1.26.68-.11,1.37-.23,2.05-.34,1.55-.26,3.1-.51,4.65-.77,1.31.43,2.66.84,4.04,1.25,1.65.48,3.25.92,4.82,1.32.37.95.73,1.89,1.1,2.84,7.7.07,15.41.14,23.11.21.54-.58,1.16-1.18,1.85-1.79.52-.46,1.03-.88,1.52-1.25,1.53-.09,3.19-.25,4.96-.53,1.9-.29,3.65-.67,5.21-1.08,2.03.58,4.05,1.16,6.08,1.73,5.02-2.15,10.04-4.3,15.05-6.45-1.25-.94-2.5-1.89-3.75-2.83.39-.28.93-.73,1.42-1.42v.02ZM64.47,20.2c-6.94,3.28-14.44,3.75-21.1,4.01-6.61-.42-12.36-.84-17.75-3.18-2.82-1.22-5.96-2.58-6.04-6.01-.07-3.32,2.98-4.87,5.66-6.06,7.52-3.34,15.51-4.17,23.63-3.79,5.3.25,10.58.94,15.49,3.16,2.61,1.18,5.55,2.5,5.65,5.74.11,3.4-2.91,4.89-5.54,6.13Z"/>
  <g>
    <path class="st0" d="M360.75,16.36c-2.29-4.13-11.65-3.42-13.02-3.42-36.4-.04-72.79-.09-109.19-.13-.67-.51-1.35-1.02-2.02-1.52-1.29.24-2.58.49-3.87.73-.29-.06-.58-.12-.87-.18-.09-.78-.19-1.56-.28-2.34-5.11,0-10.23-.02-15.34-.03-1.51.73-3.02,1.46-4.53,2.19-.77.08-1.53.17-2.3.25-1.68-.07-3.37-.15-5.05-.22-.77.34-1.54.68-2.31,1.02-7.39-.05-14.78-.1-22.17-.15-4.72,2.24-9.45,4.47-14.17,6.71-.32-2.26-.64-4.51-.97-6.77-3.46.05-8.78.13-11.94.17-.74.01-1.86-.01-3.35.03-1.54.05-3.82.09-6.62-.01-1.4,1.54-2.9,3.1-4.49,4.68-1.15,1.14-2.28,2.23-3.41,3.27-2.26-.02-4.52-.04-6.78-.06,2.58-2.59,5.16-5.19,7.75-7.78-6.66.02-13.33.03-20.02.01h-2.22c-9.5,9.57-19,19.14-28.5,28.7,7.34-.03,14.68-.05,22.02-.08,3.06-3.03,6.12-6.05,9.18-9.08,2.42-.06,4.84-.11,7.26-.17-2.99,3.05-5.98,6.1-8.98,9.14,14.08-.03,28.15-.06,42.23-.08,2.24-2.47,4.76-5.01,7.57-7.54,1.05-.95,2.1-1.86,3.14-2.72,1.67-.67,3.33-1.35,5-2.02.04.65.07,1.3.11,1.95.57.03,1.15.06,1.72.09.37.26.74.51,1.11.77-.9.58-1.8,1.16-2.69,1.74,2.57,2.65,5.14,5.31,7.71,7.96,1.59-.22,3.19-.45,4.78-.67.26.08.51.15.77.23-.03.74-.07,1.48-.1,2.22,5.4.02,10.81.05,16.21.07.99-.59,1.98-1.18,2.97-1.77,1.56-.22,3.11-.44,4.67-.66.57.23,1.15.45,1.72.68,19.33.02,38.67.04,58,.07l5.66-3.78c3.55-.03,7.09-.07,10.64-.1-.54,1.25-1.08,2.5-1.63,3.76,10.43-.03,20.87-.07,31.3-.1,3.12-3.18,6.23-6.35,9.35-9.53.22,3.2.43,6.41.65,9.61.41,0,1.14,0,2.05.02,6.02.04,9.08,0,15.99.03h3.8c0-1.65.03-2.95.04-3.75.05-3.07.1-4.41-.27-6.31-.13-.67-.28-1.21-.38-1.55.36-.01.87-.05,1.5-.13,5.55-.73,9.09-4.22,11.1-6.2,1.42-1.4,1.91-2.19,2.13-3.12,0,0,.49-2.03-.68-4.14h.02ZM135.23,38.45c-4.33-.03-8.67-.07-13-.1l7.51-8.94c-2.36-.02-4.75-.02-7.16-.01-2.58.01-5.13.04-7.65.08l-9.23,9.01c-3.43.02-6.87.02-10.34,0-1.13,0-2.25,0-3.37-.02,4.81-4.78,9.09-9.03,13.37-13.28.59-.58,1.27-1.27,2.14-2.14,3.13-3.13,5.67-5.69,7.38-7.42,4.62.08,9.23.16,13.85.25-2.54,2.55-5.08,5.11-7.62,7.66,5.04-.02,10.09-.04,15.13-.07,2.57-2.6,5.15-5.19,7.72-7.79,1.27,3.37,2.55,6.74,3.82,10.12-4.18,4.22-8.36,8.44-12.54,12.66h0ZM165.47,28.5c-3.27,3.33-6.55,6.66-9.82,10-4.78,0-9.57-.02-14.35-.03,3.41-3.38,6.81-6.76,10.22-10.14-1.57-4.24-3.14-8.49-4.71-12.73,5.16.09,10.31.19,15.47.28.55,2.4,1.1,4.81,1.65,7.21,5.42-2.51,10.84-5.01,16.26-7.52,1.21-.01,2.44-.02,3.69,0,3.89.04,7.63.21,11.22.48-9.87,4.15-19.74,8.3-29.61,12.45h-.02,0ZM212.32,38.33c-.96-.21-1.93-.42-2.89-.63-.95.28-2.04.53-3.25.71-.86.13-1.67.21-2.41.25-.85.57-1.69,1.14-2.54,1.71-3.92-.11-7.85-.21-11.77-.32-.32-.52-.64-1.04-.95-1.56-.6-.06-1.33-.17-2.12-.42-.49-.15-.93-.33-1.32-.51-1.06.23-2.11.46-3.17.69-1.43-1.36-2.87-2.72-4.3-4.08,1.02-.55,2.03-1.1,3.05-1.65-.11-.38-.21-.89-.21-1.49,0-.34.04-.64.08-.9-.63-.27-1.26-.55-1.89-.82,2-2.04,4-4.08,5.99-6.12.8-.02,1.6-.04,2.4-.06.5-.38,1.07-.76,1.72-1.14,1.21-.7,2.36-1.15,3.33-1.45.2-.49.39-.99.59-1.48,4.26-1.57,8.53-3.14,12.79-4.7l2.46.88c.87-.29,1.94-.58,3.16-.76.95-.14,1.82-.19,2.58-.19.88-.57,1.77-1.14,2.65-1.7,4.05.02,8.1.03,12.15.05.19.53.39,1.06.58,1.59.46.05,1.02.15,1.64.34.55.17,1.01.37,1.39.57,1.22-.24,2.44-.48,3.66-.72,1.47,1.36,2.95,2.72,4.42,4.08-1.4.96-2.8,1.92-4.2,2.89-3.61.08-7.23.16-10.84.23-.19-.22-.52-.57-.98-.93-2.37-1.86-5.33-1.8-7.24-1.68-6.63.42-15.46.98-21.25,6.82-.97.98-3.01,3.08-2.43,4.81.29.86,1.12,1.28,2.14,1.79,1.41.7,2.98,1.12,7.15,1.27,5.14.19,5.82-.35,6.1-.82.51-.85.25-2.25.16-2.71-.15-.79-.43-1.4-.65-1.79,7.46-.07,14.91-.13,22.37-.2-1.58.99-3.17,1.97-4.75,2.96-.24.93-.48,1.85-.72,2.78-1.12.39-2.24.78-3.36,1.17-3.11,1.08-6.21,2.16-9.31,3.23h-.01ZM218.21,38.67c3.66-1.46,7.32-2.91,10.98-4.37,4.96-4.95,9.92-9.89,14.88-14.84-1.28-1.32-2.56-2.64-3.83-3.96,16.29.09,32.57.18,48.86.27-2.67,1.59-5.34,3.17-8.02,4.76-6.78.09-13.64.1-20.57.03-1.14-.01-2.28-.03-3.42-.04-1.28,1.27-2.57,2.54-3.85,3.81,7.24-.01,14.49-.02,21.73-.04-2.68,1.48-5.37,2.96-8.05,4.44h-18.07c-1.51,1.51-3.02,3.02-4.53,4.53h15.06c-3.03,1.72-6.06,3.44-9.08,5.17-10.69.08-21.38.17-32.07.25h-.02ZM288.73,38.31c.34-.98.7-1.99,1.19-3.39-5.23,0-10.46-.02-15.69-.03-2.06,1.21-4.12,2.42-6.18,3.63-4.49,0-8.99-.02-13.48-.04,12.98-7.51,25.96-15.02,38.94-22.53,5.1.02,10.2.04,15.3.06l-3.07,13.01c-2.87,3.08-5.74,6.16-8.61,9.24-2.8.02-5.6.04-8.4.06h0ZM355.48,23.39c-.64.49-2.38,2-6.61,3.38-1.95.64-4.79,1.37-8.34,1.65,1.63.5,2.36,1.31,2.71,1.82.66.97.61,1.89.77,6.04.04,1.07.08,1.92.1,2.39-.59,0-1.09.02-1.47.02-5.4.07-7.78-.07-12.97,0-.57,0-1.05.02-1.4.03-.02-.3-.05-.8-.08-1.43-.19-4.24.21-5.87-.9-7.09-.2-.21-.54-.53-1.13-.77-1.09-.01-2.18-.03-3.27-.04-2.99,3-5.98,6.01-8.97,9.01l-14.06-.15c2.85-2.96,5.01-5.09,6.69-6.59.53-.47,1.58-1.4,2.33-2.96.38-.79.63-1.66.75-2.63.24-1.89.89-3.72,1.34-5.59,1.17-4.84,1.16-4.9,6.26-4.82,12.04.18,24.08-.5,36.11.45,2.01.16,4.4.2,5.09,2.45.72,2.32-1.41,3.62-2.97,4.81h.02v.02Z"/>
    <path class="st0" d="M342.85,21.23c-.3-.74-1.53-.97-5.04-1.03-1.69-.03-4.03-.03-6.85.12-1.6,1.65-3.2,3.3-4.81,4.94,2.03.14,7.33.45,11.89-.13,1.04-.13,2.87-.42,4.05-1.83.22-.26,1.07-1.29.75-2.07,0,0,.01,0,.01,0Z"/>
    <path class="st0" d="M282.39,29.86c2.8.02,5.63.02,8.47,0,.48,0,.96,0,1.43-.01l2.69-7.83c-4.2,2.62-8.4,5.24-12.59,7.86v-.02Z"/>
  </g>
  <path class="st0" d="M320.17,56.84c2.4-2.81,4.81-5.62,7.21-8.43,1.17-.08,2.39-.13,3.66-.15,1.66-.03,3.25-.02,4.77.04-4.36,4.5-8.72,9-13.08,13.5h-7.93c-.12-.57-.24-1.18-.36-1.76-.45-2.21-.9-4.42-1.34-6.62-2.28,2.84-4.56,5.69-6.84,8.53l-10.77.06c4.64-3.76,7.99-6.88,9.53-8.52.81-.86,1.74-1.97,2.35-3.58.26-.7.39-1.29.46-1.65h10.2c.42,1.74.85,3.48,1.29,5.23.28,1.12.56,2.24.85,3.35h0Z"/>
  <path class="st0" d="M241.82,48.23c-4.37,4.51-8.74,9.01-13.11,13.52-2.57.02-5.14.04-7.71.06-.67-2.77-1.33-5.53-2-8.3-2.44,2.77-4.89,5.54-7.33,8.31-2.9,0-5.79.02-8.69.02,4.48-4.51,8.97-9.02,13.45-13.53h7.42c.2.78.4,1.56.61,2.34.55,2.07,1.11,4.1,1.68,6.09,2.48-2.84,4.96-5.67,7.44-8.51h8.24Z"/>
  <path class="st0" d="M145.26,48.5c-1.06.92-2.71,2.41-4.64,4.38-3.2,3.27-3.27,3.9-5.19,5.21-1.39.96-3.57,2.37-6.51,3.14-.99.26-2.39.54-5.64.61-4.45.08-12.15.23-12.74-2.03-.19-.74.44-1.49,1.2-2.33,2.05-2.28,5.11-5.44,9.41-9.05l8.06-.04c-1.73,1.93-3.18,3.42-4.22,4.43-1.33,1.31-2.58,2.69-3.87,4.04-.44.46-1.21.89-1.25,1.52,0,.09-.02.27.08.44.26.45,1.06.43,1.66.41,2.37-.11,3.55-.16,4.67-.73.37-.19.79-.44,1.99-1.5,2.05-1.8,3.46-3.37,3.72-3.65,1.1-1.21,2.73-2.92,5-4.92,2.76.03,5.51.06,8.27.09,0,0,0-.02,0-.02Z"/>
  <path class="st0" d="M199.29,53.72c2.73,0,5.46-.03,8.19-.04-.84.92-1.69,1.83-2.53,2.75-2.82,0-5.64-.03-8.45-.04-.97.98-1.94,1.95-2.9,2.93h8.02c-.83.92-1.67,1.84-2.5,2.76-5.97-.06-11.94-.13-17.92-.19.77-.45,1.55-.9,2.32-1.35,3.73-3.76,7.46-7.53,11.19-11.29l-.71-.94c6.48,0,12.95.02,19.43.03-.79.81-1.59,1.62-2.38,2.43-2.98,0-5.96.02-8.93.03-.94.98-1.89,1.96-2.83,2.94v-.02h0Z"/>
  <path class="st0" d="M83.92,61.88c.55-.88,1.11-1.76,1.66-2.64,1.62-.05,2.92-.04,3.71-.03,2.87.05,7.13.28,9.12-.96.27-.17.57-.41.63-.76.06-.33-.19-.7-1.4-1.84-1.27-1.18-3.86-1.67-3.34-3.84.57-2.37,3.19-2.52,5.2-2.88,6.08-1.12,12.22-.47,18.73-.56-.72.78-1.44,1.56-2.16,2.34-.55.02-1.44.03-2.52.02-2.48-.04-5.76-.28-8.85.16-.62.09-1.92.27-2.09,1.01-.25,1.1.9,1.43,1.62,1.94.22.16.47.29.69.45,1.08.8,2.67,1.34,2.55,2.96-.12,1.67-1.64,2.34-3.01,2.86-6.6,2.52-13.43,1.91-20.52,1.78h-.02Z"/>
  <path class="st0" d="M266.03,48.31c-.7.87-1.4,1.74-2.1,2.6-6.1-.19-10.66-.12-11.97.14-.49.1-1.57.31-1.81,1.03,0,.02-.04.13-.04.24-.03,1.27,4.29,1.65,4.97,3.88.18.6.04,1.13-.03,1.38-.54,1.97-3.16,2.82-4.41,3.23-5.63,1.83-17.52,1.22-19.22,1.13.68-.91,1.36-1.83,2.03-2.74,2.08.04,12.05.18,12.92-1.03.23-.31.24-.61.24-.61,0-.28-.09-.76-1.45-1.82-.36-.28-.74-.54-1.11-.81-.85-.63-2.21-1.66-2.28-2.81-.06-.91.7-1.64,1.01-1.94,2.74-2.66,20.58-1.98,23.24-1.87h.01Z"/>
  <path class="st0" d="M133.28,62.01c1.81-1.11,3.63-2.22,5.44-3.33.41.06,1.04.15,1.82.24,4.57.56,5.85.31,6.76.1.97-.23,2.24-.46,2.42-1.52.16-.92-.98-1.42-1.69-1.98-.65-.51-1.36-.93-1.98-1.47-.89-.78-1.3-1.48-1.23-2.12.09-.79.87-1.35,1.75-1.83,3.29-1.79,6.49-1.87,6.49-1.87,6.2-.17,11.47-.07,14.98.04-.74.83-1.48,1.66-2.22,2.5-1.04.05-1.88.06-2.42.06-3.93,0-5.5-.3-8.52.21-.75.13-1.53.23-1.66,1.12-.11.77.64,1.02,1.13,1.41.14.11.3.2.45.31,1.37.99,3.56,1.7,3.28,3.63-.31,2.09-2.6,2.67-4.41,3.24-4.16,1.3-8.47,1.36-12.79,1.29-2.29-.04-4.59,0-7.6,0v-.03Z"/>
  <path class="st0" d="M277.28,48.49l-13.24,13.5c-3-.05-6-.1-9-.15,3.01-2.85,6.03-5.73,9.05-8.62,1.69-1.62,3.36-3.23,5.04-4.84.97,0,1.94.02,2.92.03,1.76.02,3.5.05,5.24.09h-.01Z"/>
  <path class="st0" d="M298.08,48.87c-3.94-.73-7.89-.65-11.78.1-5.2,1-10.1,2.77-13.34,7.37-.89,1.27-1.17,2.35-.86,3.2.37,1.01,1.5,1.5,2.69,1.87,4.31,1.33,8.42.72,8.76.66,6.07-.97,12.58-2.18,16.8-6.95,2.84-3.21,1.91-5.48-2.28-6.25h0ZM292.4,54.46c-1.6,2-3.53,3.07-4.46,3.53-1.13.56-2.48,1.22-4.35,1.31-.84.04-2.87.13-3.31-.81-.4-.86.72-2.13,1.65-3.19,2.5-2.84,5.36-3.82,5.93-4,.98-.32,3.89-1.14,5.15-.05.09.08.3.26.41.55.14.38.21,1.11-1.03,2.66h.01Z"/>
  <path class="st0" d="M189.44,51.34c-.08-.42-.4-1.17-2.53-2.07-3.33-1.41-6.28-1.16-13.01-.99-1.54.04-2.77.06-3.42.07-4.61,4.52-9.22,9.04-13.83,13.55,2.8,0,5.59-.02,8.39-.02,1.54-1.48,3.07-2.96,4.61-4.44,2.71.09,4.96,0,6.58-.08,7.19-.41,9.41-1.6,10.65-2.48.69-.49,2.84-2.01,2.56-3.52,0,0,0-.02,0-.02ZM179.45,53.79c-.74.64-1.59.91-2.99,1.14-1.13.19-2.7.37-4.61.33,1.56-1.47,3.12-2.95,4.68-4.42,1.69-.12,2.95,0,3.31.21.24.14.39.32.39.32,0,0,.19.22.27.51.14.48-.34,1.3-1.05,1.91h0Z"/>
</svg>