<?xml version="1.0" encoding="UTF-8"?>
<svg id="Layer_2" data-name="Layer 2" xmlns="http://www.w3.org/2000/svg" viewBox="0 0 908.09 256.92">
  <defs>
    <style>
      .cls-1 {
        fill: #fff;
      }
    </style>
  </defs>
  <g id="Layer_1-2" data-name="Layer 1">
    <g>
      <path class="cls-1" d="M904.22,122.09c3.49,6.98,3.87,23.68,3.87,32.3,0,20.09-11.54,33.31-24.41,46.42-8.79,9.03-16.81,18.83-25.22,28.25-.94,.89-1.93,1.73-2.96,2.51-.45-1.57-1.36-3-1.08-4.19,2.96-13.11,4.57-26.68,13.95-37.49,4.29-4.99,7.43-11.02,12.17-15.45,15.1-13.95,18.45-32.5,20.54-51.65,.42-1.26,1.06-2.44,1.88-3.49,.35,.84,.77,1.92,1.26,2.79Z"/>
      <path class="cls-1" d="M877.19,99.1c1.05,4.92,1.5,9.94,2.3,16.01-1.36,13.36-7.39,25.7-14.93,37.46-6.45,10.08-12.83,20.26-19.98,29.85-5.03,5.86-7.73,13.38-7.57,21.1-.22,1.57-.72,3.1-1.46,4.5-.56-1.53-1.24-3.01-2.02-4.43-8.89-13.11-4.99-25.77,2.02-37.81,6.97-12.31,14.58-24.25,22.77-35.78,7.04-9.11,11.5-19.96,12.9-31.39,0-1.29,1.53-2.44,2.34-3.49,1.26,1.29,3.31,2.44,3.63,3.98Z"/>
      <path class="cls-1" d="M855.71,64.16c1.24,5.2,.96,10.65-.8,15.69-5.55,18.1-15.94,33.34-26.33,48.83-11.79,16.35-20.1,34.95-24.41,54.65-2.28,13.62,.78,27.6,8.54,39.03,2.62,4.15,5.68,8.02,8.41,12.14,.52,1.17,.87,2.4,1.05,3.66-1.05,0-2.34,.28-3.14-.17-21.55-12.35-42.48-25.32-49.49-51.55-1.4-5.23-2.34-10.46-3.21-14.51,2.78-17.2,8.69-33.75,17.44-48.83,16.08-29.54,35.57-57.48,44.57-90.5,.42-1.53,2.06-2.82,2.3-4.36,.7-4.25,.94-8.61,1.36-12.9,2.93,4.25,6.17,8.37,8.68,12.87,6.76,11.18,11.82,23.3,15.03,35.96Z"/>
      <path class="cls-1" d="M736.01,192.22v6.03l-7.71-.87-.21,.56c.93,1.01,1.64,2.19,2.09,3.49,1.94,5.98,.44,12.55-3.91,17.09-4.02,2.97-8.97,4.41-13.95,4.05h0v-4.64c1.93,.08,3.74-.9,4.74-2.55,1.25-2.41,1.81-5.11,1.64-7.81,.15-2.9-.4-5.8-1.6-8.44-.79-1.58-2.32-2.66-4.08-2.86v-4.6c1.08-.06,2.16-.06,3.24,0l3.49,.49,16.25,.07Z"/>
      <path class="cls-1" d="M735.25,241.54c.07,2.99-.89,5.91-2.72,8.27-2.08,2.48-4.83,4.32-7.92,5.3-3.88,1.28-7.95,1.89-12.03,1.81-3.07,0-6.15-.15-9.21-.45-2.39-.23-4.73-.78-6.98-1.64-1.77-.67-3.32-1.8-4.5-3.28-1.12-1.51-1.69-3.35-1.6-5.23,0-1.7,.56-3.36,1.6-4.71,1.21-1.56,2.76-2.82,4.53-3.7-1.16-.78-2.1-1.85-2.72-3.1-.15-.29-.28-.6-.38-.91-.36-1.13-.53-2.31-.49-3.49,0-1.36,.3-2.71,.87-3.94,.6-1.27,1.39-2.45,2.34-3.49,1.2-1.18,2.47-2.29,3.8-3.31-2.21-1.19-4.05-2.98-5.3-5.16-2.25-4.61-2.35-9.99-.28-14.68,.95-1.94,2.36-3.62,4.12-4.88,1.87-1.31,3.98-2.25,6.21-2.76,2.52-.6,5.11-.9,7.71-.87h.8v4.6h-.8c-1.99-.11-3.88,.88-4.92,2.58-1.22,2.46-1.78,5.21-1.6,7.95-.17,2.89,.38,5.78,1.6,8.41,1,1.81,2.96,2.88,5.02,2.76v4.64c-2.35,.04-4.7-.23-6.98-.8-1.36,1.05-2.19,2.64-2.27,4.36-.2,1.53,.87,2.93,2.4,3.13,.02,0,.05,0,.07,0,1.24,.31,2.52,.43,3.8,.38h11.16c3.96-.29,7.91,.74,11.23,2.93,2.56,2.37,3.83,5.82,3.42,9.28Zm-11.23,3.49c.03-.9-.16-1.8-.56-2.62-.48-.81-1.21-1.44-2.09-1.78-1.42-.55-2.94-.8-4.46-.73h-7.71c-1.71,.03-3.42-.03-5.13-.17-.99,.74-1.83,1.68-2.44,2.76-.58,1.07-.87,2.27-.84,3.49-.07,2,1.01,3.86,2.79,4.78,2.81,1.2,5.85,1.72,8.89,1.53,3.02,.16,6.02-.54,8.65-2.02,1.86-1.11,2.97-3.14,2.89-5.3v.07Z"/>
      <path class="cls-1" d="M687.71,233.9v2.89h-21.76v-2.96c2.14-.2,3.81-1.93,3.94-4.08,.26-1.95,.37-3.92,.31-5.89v-17.19c-.07-1.17-.21-2.33-.42-3.49-.17-.76-.44-1.5-.8-2.2-.32-.53-.71-1.01-1.15-1.43-.43-.35-.91-.63-1.43-.84-1.9-.51-3.93-.22-5.62,.8-.62,.35-1.19,.77-1.71,1.26l-2.79-2.41c1.54-1.39,3.17-2.69,4.88-3.87,1.38-.93,2.87-1.69,4.43-2.27,1.57-.55,3.22-.82,4.88-.8,2.08-.06,4.16,.29,6.1,1.05,1.56,.66,2.92,1.71,3.94,3.07,1.05,1.49,1.77,3.17,2.13,4.95,.48,2.22,.7,4.49,.66,6.77v20.16c0,.93,.12,1.86,.35,2.76,.13,.6,.38,1.17,.73,1.67,.35,.47,.8,.85,1.33,1.12,.66,.33,1.35,.58,2.06,.77l-.07,.17Z"/>
      <path class="cls-1" d="M676.86,14.91c8.58,9.95,12.93,24.7,13.04,44.26,.2,9.55-1.11,19.07-3.87,28.21-2.19,7.17-5.94,13.77-10.99,19.32-4.73,5.02-10.59,8.84-17.09,11.13-6.82,2.34-13.99,3.52-21.2,3.49l-.21-9.77c2.37,.01,4.73-.38,6.98-1.15h0c1.97-.59,3.81-1.53,5.44-2.79,3.34-2.66,5.96-6.13,7.6-10.08,2.11-4.88,3.52-10.03,4.19-15.31,.87-6.45,1.29-12.95,1.26-19.46,.19-9.73-.74-19.46-2.76-28.98-1.09-6.46-3.8-12.53-7.88-17.65-1.4-1.55-3.06-2.84-4.92-3.8-3.06-1.87-6.6-2.81-10.18-2.72l-.24-9.56h1.81c17.35-.02,30.35,4.93,39.03,14.86Z"/>
      <path class="cls-1" d="M660.58,233.83v2.96h-21.69v-2.96c1.12-.22,2.16-.75,3-1.53,.6-.73,.99-1.61,1.12-2.55,.25-1.95,.34-3.93,.28-5.89v-23.37c-.03-.88-.21-1.76-.52-2.58-.29-.63-.75-1.18-1.33-1.57-.92-.55-1.94-.91-3-1.05v-3.07l12.28-.35h5.68l-.7,6.45h.56l2.79,2.41c-.53,.5-1,1.06-1.4,1.67-.81,1.17-1.25,2.55-1.26,3.98v17.44c-.05,1.98,.03,3.96,.24,5.93,.14,.95,.53,1.85,1.12,2.62,.78,.75,1.76,1.25,2.82,1.46Z"/>
      <path class="cls-1" d="M637.77,111.24c1.97,0,3.93-.26,5.82-.8-2.24,.77-4.6,1.16-6.98,1.15h-.94c-9.7-.35-17.72-6.73-20.93-18.55-6.1-21.55-6.1-44.37,0-65.92,2.72-9.77,9.1-16.67,19.95-17.44h1.71c3.54-.03,7.01,.95,10.01,2.82-2.85-1.47-6.01-2.21-9.21-2.16-8.11-.19-15.53,4.57-18.73,12.03-4.07,8.02-6.12,20.4-6.14,37.14,0,17.51,2.1,30.53,6.31,39.06,3.17,7.74,10.75,12.76,19.11,12.66Z"/>
      <path class="cls-1" d="M636.55,111.59l.21,9.77h-1.01c-17.02,0-29.81-4.98-38.36-14.93-8.56-9.95-12.82-24.87-12.8-44.75-.31-11.45,1.8-22.84,6.21-33.41,3.75-8.72,10.14-16.03,18.28-20.93,8.23-4.62,17.52-7.02,26.96-6.98l.24,9.24h-1.71c-10.85,.87-17.23,7.78-19.95,17.44-6.1,21.55-6.1,44.37,0,65.92,3.28,11.82,11.3,18.21,20.93,18.55l1.01,.07Z"/>
      <path class="cls-1" d="M633.69,233.83v2.96h-21.94v-2.96c1.14-.22,2.19-.75,3.03-1.53,.6-.73,1-1.61,1.15-2.55,.23-1.96,.32-3.93,.28-5.89v-20.93c.01-1.17-.06-2.33-.21-3.49-.09-.77-.35-1.51-.77-2.16-.38-.55-.92-.97-1.53-1.22-.8-.33-1.63-.57-2.48-.73v-3.07l12.35-.35h5.62v35.82c.01,.7,.08,1.4,.21,2.09,.06,.46,.19,.91,.38,1.33,.31,.88,.97,1.59,1.81,1.99,.67,.32,1.37,.55,2.09,.7Z"/>
      <rect class="cls-1" x="616.53" y="174.3" width="12.31" height="11.02"/>
      <path class="cls-1" d="M607.95,227.62l2.82,3.77-1.95,1.57c-1.6,1.27-3.36,2.34-5.23,3.17-2.21,.93-4.58,1.39-6.98,1.36-3.67,.32-7.3-.95-9.97-3.49-.57-.61-1.05-1.29-1.43-2.02-1.36-2.77-2.01-5.84-1.88-8.93v-25.11h-5.62v-3.1c1.43-.15,2.81-.6,4.05-1.33,.87-.62,1.57-1.44,2.02-2.41,.54-1.26,.93-2.59,1.15-3.94,.32-2.01,.53-4.04,.63-6.07h10.74v11.23h12.8v5.62h-12.8v20.26c-.06,2.51,.11,5.02,.49,7.5,.19,1.29,.73,2.49,1.57,3.49,.73,.76,1.74,1.17,2.79,1.15,.76,0,1.52-.06,2.27-.21,.73-.18,1.43-.45,2.09-.8,.88-.47,1.7-1.05,2.44-1.71Z"/>
      <path class="cls-1" d="M575.51,233.83v2.96h-16.71l.38-5.89-.66-.21c-2.03,2.1-4.39,3.85-6.98,5.2-2.32,1.07-4.84,1.62-7.39,1.6-2.32,.06-4.62-.42-6.73-1.4-1.79-.86-3.28-2.23-4.29-3.94-.74-1.28-1.21-2.71-1.36-4.19-.04-.53-.04-1.07,0-1.6-.04-2.08,.53-4.13,1.64-5.89,1.21-1.89,2.88-3.43,4.85-4.5,1.84-1.04,3.8-1.87,5.82-2.48,4.55-1.29,9.23-2.06,13.95-2.3v-4.29c.1-2.18-.22-4.36-.94-6.42-.46-1.3-1.32-2.42-2.44-3.21-1.05-.63-2.26-.94-3.49-.91-.64-.01-1.29,.04-1.92,.17l-.91-4.15c1.15-.28,2.31-.49,3.49-.63,1.4-.17,2.81-.25,4.22-.24,2.96-.12,5.92,.36,8.68,1.43,2.13,.91,3.86,2.57,4.85,4.67,.14,.27,.27,.55,.38,.84,.92,2.59,1.35,5.34,1.26,8.09v22.04c.02,.82,.16,1.63,.42,2.41,.18,.45,.43,.88,.73,1.26,.31,.32,.7,.57,1.12,.73,.65,.33,1.33,.6,2.02,.84Zm-17.79-10.78v-7.46c-3.67-.2-7.32,.71-10.46,2.62-2.27,1.58-3.58,4.21-3.49,6.98-.1,1.57,.46,3.11,1.53,4.25,1.16,1.03,2.68,1.55,4.22,1.46,1.38,0,2.73-.39,3.91-1.12,1.21-.71,2.22-1.72,2.93-2.93,.79-1.12,1.26-2.43,1.36-3.8Z"/>
      <path class="cls-1" d="M567.07,90.73v26.33c-6.38,1.5-12.17,2.62-17.44,3.31-5.01,.63-10.05,.96-15.1,.98l-.17-10.11c3.61,.17,7.21-.56,10.46-2.13,2.71-1.45,4.93-3.67,6.38-6.38,1.94-3.78,3.34-7.82,4.15-12h11.72Z"/>
      <path class="cls-1" d="M567.07,4.1V29.28h-11.82c-.83-5.34-3.11-10.34-6.59-14.47-3.12-3.13-7.41-4.81-11.82-4.64l.17-10.15c5.08,0,10.16,.32,15.21,.94,5.02,.69,9.99,1.74,14.86,3.14Z"/>
      <path class="cls-1" d="M547.93,192.4l.91,4.15c-.57,.1-1.12,.28-1.64,.52-1.15,.62-2.1,1.57-2.72,2.72-.93,1.72-1.54,3.6-1.78,5.55h-8.51v-8.16c2.76-1.22,5.06-2.16,6.98-2.82,1.77-.65,3.57-1.2,5.41-1.64l1.36-.31Z"/>
      <path class="cls-1" d="M537.01,.02l-.17,10.15c-8.93-.14-17.09,5.04-20.75,13.18-4.65,8.74-6.98,21.76-6.98,39.06,0,16.04,2.14,28.19,6.42,36.45,3.21,7.56,10.66,12.44,18.87,12.38l.17,10.11h-1.33c-10.22,.42-20.37-1.82-29.47-6.49-7.71-4.45-13.67-11.4-16.88-19.71-3.97-10.62-5.84-21.91-5.51-33.24-.27-11.28,1.92-22.47,6.42-32.82,3.92-8.93,10.48-16.44,18.8-21.52,9-5.22,19.28-7.84,29.68-7.57h.73Z"/>
      <path class="cls-1" d="M525.81,214.65h-28.46c-.3,4.19,.71,8.37,2.89,11.96,2.09,2.63,5.33,4.07,8.68,3.84,2.13,.03,4.24-.41,6.17-1.29,2.23-1.14,4.23-2.66,5.93-4.5l3.49,3.94c-2.53,2.9-5.61,5.27-9.07,6.98-3.3,1.42-6.87,2.11-10.46,2.02-5.83,.45-11.57-1.64-15.76-5.72-3.85-4.83-5.74-10.93-5.27-17.09-.11-4.34,.82-8.65,2.72-12.56,1.68-3.41,4.39-6.2,7.74-7.99,3.57-1.87,7.55-2.81,11.58-2.72,2.36-.02,4.71,.29,6.98,.94,1.91,.55,3.7,1.44,5.3,2.62,1.42,1.12,2.6,2.51,3.49,4.08,1.2,2,2.06,4.18,2.55,6.45,.87,2.94,1.37,5.97,1.5,9.03Zm-28.25-4.85h14.96c.1-3.5-.5-6.99-1.78-10.25-.84-2.15-2.93-3.54-5.23-3.49-2.34,.03-4.46,1.38-5.48,3.49-1.67,3.16-2.58,6.68-2.65,10.25h.17Z"/>
      <path class="cls-1" d="M480.06,192.08v12.42h-8.13c-.38-1.46-1.06-2.82-1.99-4.01-.85-.93-2.06-1.44-3.31-1.4-.76,.03-1.51,.24-2.16,.63-.84,.41-1.59,.99-2.2,1.71l-2.2-2.65c1.85-2.29,4.14-4.19,6.73-5.58,2.34-1.12,4.9-1.7,7.5-1.67,1.93,0,3.86,.19,5.75,.56Z"/>
      <path class="cls-1" d="M464.99,3.75V28.93h-11.93c-.8-3.83-2.23-7.51-4.22-10.88-1.52-2.55-3.74-4.62-6.38-5.96-3.01-1.38-6.31-2.04-9.63-1.92l-.21-10.11h1.5c5-.04,9.99,.21,14.96,.77,5.35,.7,10.66,1.67,15.9,2.93Z"/>
      <path class="cls-1" d="M464.88,233.83v2.96h-22.15v-2.96c1.12-.22,2.16-.75,3-1.53,.58-.74,.96-1.62,1.12-2.55,.23-1.96,.32-3.93,.28-5.89v-23.37c-.03-.88-.21-1.76-.52-2.58-.3-.63-.76-1.17-1.33-1.57-.93-.54-1.96-.9-3.03-1.05v-3.07l12.31-.35h5.65l-.66,6.77h.59l2.2,2.65c-.64,.63-1.14,1.39-1.46,2.23-.27,.75-.46,1.52-.56,2.3v17.82c-.05,1.99,.05,3.99,.31,5.96,.14,.99,.58,1.91,1.26,2.65,.82,.81,1.87,1.35,3,1.57Z"/>
      <path class="cls-1" d="M463.28,71.9c2.02,4.61,3.01,9.61,2.89,14.65,.17,6.53-1.55,12.98-4.95,18.55-3.46,5.4-8.48,9.63-14.4,12.1-6.93,2.91-14.39,4.33-21.9,4.19h-2.58v-10.11c3.16,.04,6.29-.55,9.21-1.74,2.79-1.16,5.13-3.17,6.7-5.75,1.75-2.91,2.61-6.27,2.48-9.66,.08-3.23-.6-6.43-1.99-9.35-1.58-2.94-3.77-5.51-6.42-7.53-3.86-2.92-7.99-5.46-12.35-7.57-4.23-2.07-8.33-4.4-12.28-6.98-3.44-2.28-6.57-4.98-9.31-8.06-2.53-2.83-4.56-6.08-6-9.59-1.47-3.74-2.19-7.73-2.13-11.75-.21-6.46,1.65-12.81,5.3-18.14,3.83-5.19,9.11-9.12,15.17-11.3C417.74,1.3,425.16,.02,432.62,.05l.21,10.11c-3.05-.05-6.08,.55-8.89,1.74-2.55,1.07-4.72,2.86-6.24,5.16-1.57,2.48-2.36,5.37-2.27,8.3-.08,3.03,.59,6.04,1.95,8.75,1.65,2.84,3.88,5.29,6.56,7.18,4.23,3.06,8.71,5.76,13.39,8.06,6.01,2.96,11.66,6.63,16.81,10.92,3.83,3.18,6.95,7.14,9.14,11.61Z"/>
      <path class="cls-1" d="M442.7,175.48v15.76h-6.14c-.56-2.05-1.01-3.55-1.36-4.5-.28-.85-.64-1.67-1.08-2.44-.36-.61-.79-1.17-1.29-1.67-.42-.43-.9-.8-1.43-1.08-.6-.31-1.25-.52-1.92-.63-.99-.16-2-.23-3-.21v-5.23h16.22Z"/>
      <path class="cls-1" d="M428.72,233.83v2.96h-24.8v-2.96c1.02-.14,2.02-.42,2.96-.84,.69-.3,1.26-.81,1.64-1.46,.41-.74,.64-1.56,.7-2.41v-48.41h-3.49c-1.4-.07-2.8,.14-4.12,.63-1,.43-1.86,1.12-2.51,1.99-.78,1.06-1.4,2.24-1.81,3.49-.5,1.41-.91,2.84-1.26,4.29h-6.24v-15.62h36.62v5.23h-3.21v44.78c-.06,1.16-.06,2.33,0,3.49,.04,.69,.2,1.36,.49,1.99,.2,.47,.5,.9,.87,1.26,.42,.36,.91,.65,1.43,.84,.87,.37,1.78,.63,2.72,.77Z"/>
      <path class="cls-1" d="M422.48,111.24v10.11c-5.13,0-10.46-.38-15.9-.94-6.06-.61-12.09-1.59-18.03-2.93v-26.75h11.72c.87,5.73,3.39,11.09,7.25,15.42,4.09,3.66,9.49,5.5,14.96,5.09Z"/>
      <path class="cls-1" d="M381.25,114.24v5.75h-47.99v-5.75c2.44-.11,4.78-.99,6.7-2.51,1.53-1.47,2.33-3.54,2.2-5.65-.03-1.94-.24-3.88-.63-5.79-.42-2.2-1.08-4.99-1.99-8.34l-2.34-8.51h-37.11l-2.89,8.23c-.8,2.34-1.46,4.57-1.99,6.73-.53,2.29-.79,4.63-.77,6.98,0,5.65,3,8.72,9.03,9.1v5.75h-37.11v-6c2.06-.2,4.02-.99,5.65-2.27,1.78-1.45,3.28-3.21,4.43-5.2,1.71-3.03,3.13-6.2,4.25-9.49L316.94,.79h23.19l28.74,97.34c.84,3.16,1.91,6.24,3.21,9.24,.81,1.72,2,3.24,3.49,4.43,1.68,1.24,3.63,2.07,5.68,2.44Zm-46.59-41.15l-.42-1.53h0c-4.39-15.62-8.47-30.17-12.59-44.71h-.21l-.77-2.69-.94,2.65h-.63l-15.69,44.75h.52l-.56,1.53h31.28Z"/>
      <path class="cls-1" d="M364.79,227.62l2.82,3.77c-2.12,2.01-4.55,3.66-7.18,4.92-2.21,.93-4.58,1.39-6.98,1.36-3.67,.32-7.3-.95-9.97-3.49-2.5-3.08-3.74-6.99-3.49-10.95v-25.29h-5.3v-3.1c1.43-.15,2.81-.6,4.05-1.33,.87-.62,1.57-1.44,2.02-2.41,.56-1.26,.95-2.58,1.15-3.94,.32-2.01,.53-4.04,.63-6.07h10.74v11.23h12.8v5.62h-12.8v20.26c-.06,2.51,.11,5.02,.49,7.5,.19,1.29,.74,2.5,1.6,3.49,.72,.75,1.72,1.17,2.76,1.15,.76,0,1.52-.06,2.27-.21,.73-.17,1.43-.44,2.09-.8,.83-.48,1.6-1.05,2.3-1.71Z"/>
      <path class="cls-1" d="M334.24,71.55l.42,1.53h-31.39l.56-1.53h30.41Z"/>
      <path class="cls-1" d="M334.34,71.55h0l-12.8-44.71h.21c4.12,14.54,8.2,29.09,12.59,44.71Z"/>
      <path class="cls-1" d="M330.51,233.83v2.96h-16.71l.42-5.89-.66-.21c-2.09,2.11-4.52,3.87-7.18,5.2-2.31,1.08-4.84,1.63-7.39,1.6-2.31,.06-4.6-.41-6.7-1.4-1.81-.85-3.31-2.22-4.32-3.94-.74-1.28-1.21-2.71-1.36-4.19-.04-.53-.04-1.07,0-1.6-.02-2.08,.54-4.12,1.6-5.89,1.24-1.87,2.92-3.41,4.88-4.5,1.84-1.05,3.79-1.88,5.82-2.48,4.55-1.28,9.23-2.06,13.95-2.3v-4.29c.1-2.18-.22-4.36-.94-6.42-.8-2.58-3.26-4.28-5.96-4.12-.66-.02-1.31,.04-1.95,.17l-.84-4.19c1.19-.28,2.27-.45,3.28-.59,1.4-.17,2.81-.25,4.22-.24,2.96-.13,5.92,.36,8.68,1.43,2.14,.92,3.87,2.58,4.88,4.67,1.21,2.82,1.76,5.87,1.6,8.93v22.04c.06,.81,.2,1.62,.42,2.41,.18,.46,.44,.89,.77,1.26,.3,.32,.67,.57,1.08,.73,.78,.34,1.58,.62,2.41,.84Zm-17.79-10.78v-7.46c-3.67-.21-7.32,.7-10.46,2.62-2.27,1.58-3.58,4.21-3.49,6.98-.12,1.57,.44,3.12,1.53,4.25,1.15,1.03,2.67,1.56,4.22,1.46,1.38-.01,2.73-.4,3.91-1.12,1.2-.71,2.2-1.72,2.89-2.93,.8-1.12,1.28-2.43,1.4-3.8Z"/>
      <path class="cls-1" d="M319.83,26.8l-15.9,44.75h-.52l15.8-44.75h.63Z"/>
      <path class="cls-1" d="M302.99,192.36l.84,4.19c-.57,.1-1.12,.27-1.64,.52-1.14,.64-2.08,1.58-2.72,2.72-.93,1.72-1.54,3.6-1.78,5.55h-8.51v-8.16c2.74-1.23,5.07-2.17,6.98-2.82,1.77-.65,3.57-1.2,5.41-1.64l1.43-.35Z"/>
      <path class="cls-1" d="M280.67,214.65h-28.49c-.28,4.19,.73,8.37,2.89,11.96,2.1,2.64,5.36,4.07,8.72,3.84,2.1,.1,4.2-.29,6.14-1.12,2.23-1.14,4.23-2.66,5.93-4.5l3.49,3.94c-2.52,2.91-5.61,5.28-9.07,6.98-3.3,1.43-6.87,2.12-10.46,2.02-5.77,.3-11.39-1.88-15.45-6-3.84-4.79-5.73-10.86-5.3-16.98-.11-4.34,.82-8.65,2.72-12.56,1.68-3.39,4.38-6.18,7.71-7.99,3.57-1.87,7.55-2.81,11.58-2.72,2.43-.04,4.85,.28,7.18,.94,1.89,.56,3.68,1.44,5.27,2.62,1.42,1.12,2.6,2.51,3.49,4.08,1.19,2,2.06,4.18,2.58,6.45,.69,2.96,1.06,5.99,1.08,9.03Zm-28.25-4.85h14.96c.08-3.5-.54-6.99-1.81-10.25-.83-2.14-2.91-3.53-5.2-3.49-2.35,.03-4.48,1.38-5.51,3.49-1.6,3.18-2.43,6.69-2.44,10.25Z"/>
      <path class="cls-1" d="M265.11,1.38V7.13c-1.89,.41-3.7,1.11-5.37,2.09-1.05,.67-1.91,1.59-2.51,2.69-.62,1.26-1.01,2.62-1.15,4.01-.28,2.44-.4,4.9-.35,7.36V110.47c.12,5.11-.37,10.21-1.46,15.21-.87,3.78-2.51,7.34-4.81,10.46-2.92,3.81-6.54,7.03-10.67,9.49-6.1,3.66-12.64,6.52-19.46,8.51l-4.36-10.67c2.79-1.14,5.43-2.63,7.85-4.43,1.57-1.24,2.85-2.79,3.77-4.57,.86-1.9,1.42-3.93,1.67-6,.41-3.47,.58-6.97,.52-10.46V23.28c0-2.72,0-4.99-.21-6.98-.07-1.57-.45-3.11-1.12-4.53-.66-1.18-1.62-2.15-2.79-2.82-1.63-.87-3.36-1.52-5.16-1.95V1.38h45.62Z"/>
      <path class="cls-1" d="M232.47,233.83v2.96h-23.44v-2.96c1.24-.2,2.43-.67,3.49-1.36,.56-.51,.94-1.18,1.08-1.92,.27-1.67,.38-3.37,.31-5.06v-38.64c.04-1.59-.05-3.17-.28-4.74-.16-.83-.58-1.58-1.19-2.16-.97-.74-2.09-1.25-3.28-1.5v-2.96h23.44v2.96c-1.02,.23-2,.62-2.89,1.15-.57,.36-1.01,.9-1.26,1.53-.28,.68-.45,1.4-.49,2.13-.07,1.16-.07,2.33,0,3.49v38.75c-.06,1.59,.05,3.18,.31,4.74,.17,.82,.58,1.58,1.19,2.16,.88,.7,1.9,1.19,3,1.43Z"/>
      <path class="cls-1" d="M213.77,201.85v5.65h-20.3v20.93c.02,.74,.14,1.48,.35,2.2,.15,.52,.42,1.01,.77,1.43,.4,.44,.89,.78,1.43,1.01,.7,.35,1.44,.6,2.2,.77v2.96h-23.47v-2.96c.91-.23,1.78-.56,2.62-.98,.61-.32,1.1-.82,1.43-1.43,.36-.73,.57-1.52,.63-2.34v-42.31c.06-1.16,.06-2.33,0-3.49-.02-.81-.21-1.6-.56-2.34-.32-.62-.82-1.13-1.43-1.46-.84-.46-1.75-.8-2.69-1.01v-2.96h23.58v2.96c-1.17,.26-2.28,.76-3.24,1.46-.61,.58-1.04,1.32-1.26,2.13-.3,1.59-.41,3.2-.35,4.81v15l20.3-.03Z"/>
      <path class="cls-1" d="M140.46,128.19c1.67,6.98,2.37,13.95,3.49,20.93-2.23,16.22-6.98,31.56-19.15,43.56-6.73,6.59-13.53,13.11-19.95,20.05-4.53,4.92-8.02,10.36-12.24,15.42-1.14,1.2-2.39,2.28-3.73,3.24-.47-1.44-.7-2.95-.7-4.46,2.83-18.81,11.48-36.26,24.73-49.91,9.9-10.46,18.21-22.98,19.57-38.36,.28-3.17,1.26-6.31,1.74-9.49,.49-3.17,.73-6.42,1.12-9.63,2.1,2.63,3.82,5.54,5.13,8.65Z"/>
      <path class="cls-1" d="M110.78,99.03c6.52,20.23-2.79,36.86-12.52,53.22-5.78,9.88-12.11,19.44-18.94,28.63-5.55,7.29-9.77,14.54-8.89,23.99,0,.94-.77,1.95-1.4,3.49-.51-1.52-1.14-3.01-1.88-4.43-8.68-12.97-5.02-25.98,1.78-37.98,6.38-11.37,14.51-21.8,21.55-32.85,7.14-10.27,12.21-21.83,14.93-34.04,.24-1.33,2.2-2.37,3.49-3.49,.72,1.1,1.35,2.25,1.88,3.45Z"/>
      <path class="cls-1" d="M87.91,60.11c3.49,11.27,.7,19.88-3.24,29.47-6.98,16.81-17.19,31.39-27.2,46.53-9.32,13.42-16,28.49-19.71,44.4-2.83,14.16-.12,28.86,7.57,41.08,2.69,4.53,5.44,9.03,8.16,13.53-3.05,.1-6.09-.37-8.96-1.4-13.78-7.92-25.68-18.74-34.88-31.7-9.12-12.65-11.96-28.77-7.71-43.77,5.3-20.93,17.09-38.71,27.62-56.95,12.48-21.64,23.43-44.12,32.78-67.28,1.78-4.39,1.08-9.73,1.71-14.58,.34-1.49,.87-2.93,1.57-4.29,.52,.91,1.05,1.88,1.6,2.79,8.61,13.15,15.55,27.31,20.68,42.17Z"/>
      <path class="cls-1" d="M56.27,236.65l-1.33,1.12-.73-2.02,2.06,.91Z"/>
      <path class="cls-1" d="M54.22,235.75l-.52-.21,.31-.31,.21,.52Z"/>
      <path class="cls-1" d="M54.01,235.22l-.31,.31-.21-.38,.52,.07Z"/>
    </g>
  </g>
</svg>