<?xml version="1.0" encoding="UTF-8"?>
<svg id="Layer_1" xmlns="http://www.w3.org/2000/svg" xmlns:serif="http://www.serif.com/" version="1.1" viewBox="0 0 381.83 112.74">
  <!-- Generator: Adobe Illustrator 29.1.0, SVG Export Plug-In . SVG Version: 2.1.0 Build 142)  -->
  <defs>
    <style>
      .st0 {
        fill: #ed1c24;
      }

      .st1 {
        fill: #fff;
      }
    </style>
  </defs>
  <path class="st1" d="M380.32.83h-73.14c-.11,8.95-1.24,18.03-2.32,27.21h4.94c2.38-9.67,5.27-11.35,15.46-11.35h5.02v60.95c0,6.26-3.59,6.96-7.3,6.96v5.29c6.7-.42,13.41-.84,20.23-.84s13.89.42,20.82.84v-5.29c-4.42,0-7.66-1.38-7.66-6.96V16.69h5.52c9.57,0,13.37,2.43,15.19,11.35h4.75c-.88-8.91-1.2-18.17-1.51-27.21Z"/>
  <path class="st1" d="M132.27.83H59.14c-.12,8.95-1.24,18.03-2.33,27.21h4.93c2.4-9.67,5.28-11.35,15.46-11.35h5.04v60.95c0,6.26-3.6,6.96-7.31,6.96v5.29c6.7-.42,13.4-.84,20.23-.84s13.88.42,20.83.84v-5.29c-4.44,0-7.67-1.38-7.67-6.96V16.69h5.51c9.57,0,13.37,2.43,15.19,11.35h4.76c-.88-8.91-1.2-18.17-1.51-27.21Z"/>
  <path class="st1" d="M1.06,109.78c-.47-.95-1.06-1.91-1.06-1.91,17.22-6.05,19.08-16.58,19.08-25.35V15.58c0-8.76-3.74-10.29-7.74-10.29V0c5.81.41,13.06.83,20.67.83S45.32.41,51.37,0v5.28c-2.9,0-5.93.55-5.93,5.84v60.53c0,24.63-18.54,35.79-43.27,41.08,0,0-.46-1.67-1.11-2.96h0Z"/>
  <path class="st1" d="M209.06,62.34c-.49,9.6-5.2,12.52-12.7,12.52h-22.97V14.19h23.22c7.02,0,9.92,5.57,10.16,10.72h3.87c-.23-5.99-.61-12.12-.96-18.93V.83h-68.56v5.29c2.66,0,5.92.55,5.92,5.84v65.96c0,5.3-3.26,5.85-5.92,5.85v5.29h70.49c.36-8.91,1.21-17.81,1.81-26.72h-4.35,0Z"/>
  <path class="st0" d="M219.57,43.34s-23.1,8.44-51.59,8.44-51.59-8.44-51.59-8.44c0,0,23.1-8.45,51.59-8.45s51.59,8.45,51.59,8.45Z"/>
  <path class="st1" d="M297.66,75.71c-6.22-13.23-13.45-28.74-19.03-40.24l15.51-24.65c3.57-4.59,5.49-5.53,9.7-5.53V0c-6.31.54-10.99.83-15.42.83C282.31.83,274.23.41,268.11,0v5.29c2.4,0,4.79,1.12,4.79,4.03s-.92,6.96-20.79,32.73h-.26V11.13c0-5.29,2.98-5.84,5.86-5.84V0c-5.99.56-11.98.83-19.16.83-6.45,0-12.92-.42-18.67-.83v5.29c2.64,0,5.87.55,5.87,5.84v67.62c0,5.3-3.24,5.85-5.87,5.85v5.29c5.76-.42,12.22-.83,18.67-.83,7.18,0,13.17.42,19.16.83v-5.29c-2.88,0-5.86-.55-5.86-5.85v-35.87h.26c7.63,14.33,16,32.66,21.66,47.02,7.35-.75,12.01-.83,18.26-.83,5.33,0,9.76.27,16.33.83v-5.29c-4.79,0-8.37-3.94-10.7-8.89h0Z"/>
</svg>