<?xml version="1.0" encoding="UTF-8"?>
<svg id="Layer_1" xmlns="http://www.w3.org/2000/svg" version="1.1" viewBox="0 0 289.57 147.71">
  <!-- Generator: Adobe Illustrator 29.1.0, SVG Export Plug-In . SVG Version: 2.1.0 Build 142)  -->
  <defs>
    <style>
      .st0 {
        fill: #fff;
      }
    </style>
  </defs>
  <g>
    <path class="st0" d="M46.24.72c-2.3,8.3-4.5,16.4-6.7,24.4,10.1-4,16.7-11,21-19.9C62.44,1.22,64.64-.08,68.84.02c7.8.3,15.6.1,24.2.1-3.4,13.6-11.9,23.3-18.5,33.4,5,10.5,10.4,20.6,14.6,31.2,2.8,7.2,4,15,5.8,22.6.8,3.3-.8,4.5-4,4.4-7-.1-14-.1-21,0-3,.1-3.9-1.2-4.3-4.1-1.7-12.6-6.5-24-13.9-35.3-3.7,2.5-7.6,4.7-11,7.4-.8.7-.8,3.1-.4,4.5,2.5,8.9,5.3,17.7,8.1,26.9H8.14C18.24,60.72,18.64,30.82,5.64.72h40.6Z"/>
    <path class="st0" d="M279.84.12c-3.3,13.4-12.3,21.8-19,31.7,10.2,18.5,20.4,37.1,23.1,59.9h-18.3c-3.8,0-8.5,1.1-11.2-.8-2.1-1.5-2-6.5-2.6-10-1.9-11.3-7.4-20.9-13.4-30.3-2.3,1.5-4.4,3.5-6.9,4.5-4.8,2.1-6.1,5.4-4.9,10.3,2.1,8.4,4,16.8,6,25.7h-35.2c8.8-30.6,10.7-60.7-5.9-90.4h40.7c-1.4,6.7-2.7,13.4-4,20,7.9-4.1,14.1-9.3,18.5-16.2,2-3.1,4.2-4.7,8-4.5,8.2.3,16.3.1,25.1.1h0Z"/>
    <path class="st0" d="M146.14.52h40.8c-11.9,30.6-11.2,60.5,2.6,90.7h-38.8c1.6-9.6,3.2-19,4.9-28.8h-22.8c3.1,9.8,6,19.1,9.1,28.8h-38.2c10.2-30.3,12.4-60.4-3.2-90.5h40.7c-4.1,12.1-8.4,23.6-8.5,36.4h22.2c1.1-13-4.1-24.3-8.8-36.6h0Z"/>
  </g>
  <g>
    <path class="st0" d="M257.04,123.02c5.2,7.7-.5,15.3,1,23.2h-10.5c.5-4.7,1-9.1,1.4-13.5.3-3.1-.5-5.4-4.9-4.3-.7,3.5-1.6,7.2-2.2,10.9-1.2,7.7-2,8.3-10.9,6.5,2.6-15.3,5.2-30.6,7.8-45.8,6.3,0,12.1-.3,17.8.1,3.9.3,6,3.2,6.2,7.3.2,5.9-1.5,11.1-5.7,15.6h0ZM245.54,118.22c5.4-.2,8.2-3.6,7-7.7-.3-1-1.6-2.1-2.6-2.2-.9-.1-2.6.9-2.9,1.8-.8,2.3-1,4.9-1.5,8.1Z"/>
    <path class="st0" d="M72.04,98.82c7.8,0,11.9,3.8,10.6,11.4-1.8,10.4-3.9,20.8-7.1,30.8-2.1,6.6-14.8,9-19.6,4-2.1-2.2-3.3-6.4-3-9.5.9-8.9,2.5-17.7,4.5-26.4,1.7-6.9,7.1-10.3,14.6-10.3h0ZM73.14,110.72c-.6-.8-1.4-2.2-2.3-3.5-1.3,1.2-3,2.2-3.9,3.7-.8,1.2-.8,2.8-1.1,4.3-.9,5.7-2,11.5-2.6,17.2-.2,1.8,1.1,3.6,1.6,5.5,1.4-1.4,3.6-2.6,3.9-4.2,1.7-7.3,2.8-14.7,4.4-23h0Z"/>
    <path class="st0" d="M168.94,115.42c-.4-1.4-.5-1.7-.6-2.1-.6-2.1-.9-5.8-1.9-6-3.6-.7-4,2.8-4.4,5.3-1.2,6.7-2.3,13.4-3.2,20.2-.2,1.6.7,3.3,1.1,4.9,1.3-.5,3.4-.6,3.7-1.5.8-2.1,1.7-6,.8-6.6-3.3-2.2-1.6-4.7-.8-6.5.6-1.2,3-1.9,4.7-2.2,2.6-.4,5.2-.1,8.5-.1-1.4,8.2-2.5,15.7-3.9,23.2-.7,3.6-4.8,3.2-5.9,2-2.3-2.4-3.3-.6-4.9.2-6.9,3.4-13.9,0-13.4-7.5.8-10.7,2.3-21.5,5.2-31.8,2.6-9.1,12.3-9.7,19.6-7.2,4.7,1.6,7.3,10.2,3.9,13.6-1.6,1.9-5.6,1.5-8.5,2.1h0Z"/>
    <path class="st0" d="M116.84,99.82h9.6c-.6,4.5-1.2,8.8-1.7,13.2.3.1.6.2.9.4,1.7-2.8,3.7-5.4,4.9-8.3,2.4-5.7,6.4-6.6,12.5-4.6-3,4.9-5.6,9.8-8.7,14.3-2.3,3.4-2.8,6.8-1.9,10.8,1.5,6.6,2.6,13.3,3.8,19.8-8.7,2.9-10.5,1.8-11.4-6.2-.3-2.5-.8-4.9-2.4-7.7-.8,2.6-2,5.2-2.5,7.9-1.4,8.1-1.5,8.3-10.9,6.4,2.6-15.3,5.2-30.6,7.8-46h0Z"/>
    <path class="st0" d="M228.94,146.32h-9c-.2-3-.3-5.8-.5-8.8-3.4-.4-6.8-2-8.1,3.3-1.6,6.6-3,7.1-10.7,4.7,1-3.1,1.9-6.2,3-9.3,3.4-9.7,6.9-19.4,10.5-29,3.1-8.5,4.9-9.3,14.8-6.7v45.8h0ZM220.64,113.62l-.9-.3c-1.3,4.7-2.7,9.3-4.1,14.1,3.1,1.5,4.8,1,4.9-2.3.1-3.9.1-7.7.1-11.5h0Z"/>
    <path class="st0" d="M101.94,115.82c-.2-1.8-.2-2.3-.4-2.7-.6-2-.9-5.5-2-5.7-3.8-.8-3.9,2.8-4.3,5.3-1.3,7-2.5,14.1-3.4,21.1-.2,1.3,1,2.7,1.6,4.1,1.4-.9,2.7-1.9,4.1-2.9.2-.2.2-.6.3-.9,1.6-4.7,5-6.5,10.2-5.6,2.2,11.7-9.3,22-20.5,18.5-4.4-1.4-6.1-5.1-5.6-9,1.3-10.2,2.4-20.5,5.2-30.3,2.6-9.3,11.7-10.3,19.8-7.8,4.8,1.5,7.4,11.4,3.7,14.4-2,1.5-5.6,1-8.7,1.5h0Z"/>
    <path class="st0" d="M205.54,99.52c.2,9-.2,9.4-7.7,9.5-6.3,0-6.4.1-5.9,7.5,3.3.2,6.7.4,10.7.6-.4,2.9-.2,5.7-1.2,7.9-.5,1.2-3.1,1.9-4.8,2-8.5.4-7.2-1.4-8.6,8.8,3.9.2,7.8.4,12.1.6-.2,2.6.1,5-.6,7-.5,1.4-2.6,2.9-4,3-4.6.4-9.3-.1-14,.2-4.2.2-5.3-1.6-4.6-5.4,1.8-10.1,3.2-20.3,5.3-30.4,2.3-11.6,2.5-11.5,14.7-11.3,2.7.1,5.5,0,8.6,0h0Z"/>
    <path class="st0" d="M9.94,129.72c0,2.1-.2,2.8,0,3.4.5,1.6,1,3.2,1.9,4.6.2.3,3-.4,3.3-1.1.7-1.8,1.5-4.4.7-5.9-1.2-2.2-3.7-3.7-5.7-5.5-5.6-4.8-6.9-11.4-3.5-18.5,2.9-6.2,8.4-8.9,15.7-7.8,5.2.8,9.7,7.9,7,12.1-1.2,1.9-5.5,1.9-8.7,2.9-.5-3-.8-4.8-1.4-7.7-1.8,1.3-4,2-4.2,3.1-.3,1.7.2,3.9,1.3,5.4,1.6,2.2,3.9,4,5.8,6,5.7,6,5.6,11.3-.1,21.3-2.6,4.5-8.6,6.5-15,5-5.5-1.3-9.4-11.5-5.4-15.6,1.5-1.5,5-1.1,8.3-1.7h0Z"/>
    <path class="st0" d="M279.14,106.32c-1.8,1.1-3.9,1.7-4.3,2.8-.5,1.4-.2,3.7.6,4.9,1.7,2.4,4.1,4.2,6.2,6.4,5,5.4,5.5,11.8,1.6,19.1-3.6,6.7-8,8.8-15.5,7.6-6.1-1-10.5-11.2-6.4-15.8,1.4-1.6,5.1-1.1,8-1.6.2,1.6.3,2.4.5,3.1.5,1.6.9,3.3,1.7,4.7.1.2,3-.4,3.3-1.1.7-1.9,1.3-4.3.6-5.9-.9-1.9-3-3.4-4.8-4.9-5.7-4.6-7.4-11-4.8-17.8,2.6-6.6,7.4-9.6,14.9-9.1,5.8.4,9.6,5.3,8.7,11-.5,3.2-2.4,3.5-5,3.3-2.4-.1-4.9.3-4.6-3.4.1-.5-.3-1.4-.7-3.3h0Z"/>
    <path class="st0" d="M31.44,145.82c2-12.2,4-24.1,6-36.4-2.2-.3-4.2-.6-6.2-.9-1.3-7.5-.2-9,6.7-9h17.8c.7,7.6.1,8.2-6,9.6-1.2.3-2.6,2.3-2.9,3.7-1.7,8.8-3.1,17.7-4.6,26.5-1.3,7.8-1.4,7.8-10.8,6.5Z"/>
  </g>
</svg>