<?xml version="1.0" encoding="UTF-8"?>
<svg id="Layer_1" xmlns="http://www.w3.org/2000/svg" version="1.1" viewBox="0 0 465.54 93.83">
  <!-- Generator: Adobe Illustrator 29.1.0, SVG Export Plug-In . SVG Version: 2.1.0 Build 142)  -->
  <defs>
    <style>
      .st0 {
        fill: none;
      }

      .st1 {
        fill: #fff;
      }
    </style>
  </defs>
  <path class="st0" d="M425.31,0h-14.65c-1.35,0-8.49,3.25-9.87,4.31-7.38,5.67-8.23,16.45-7.61,24.99h-13.23v13.23h13.23v49.15h18.9v-47.73l1.42-1.42h17.49v30.72c0,1.88,2,8.21,3.01,10.22,1.98,3.95,6.21,7.7,10.67,8.23,2.74.33,20,.35,20.88-.91v-11.46c-1.32-1.91-9.49.3-13.1-2.72-.63-.52-2.55-4.88-2.55-5.26v-28.83h15.12v-13.23h-15.12V9.45l-17.8,7.71-.15,12.14h-19.85c-.33-9.96.99-19.03,13.23-16.07V0ZM22.68,7.56H0v84.12h22.68v-36.86c2.44.49,4.84,4.15,6.59,6.17,8.65,9.94,16.58,20.61,25.07,30.69h46.31l1.42-1.42V9.92l-1.93-1.01-18.9,8.74-2.31,70.24-34.55-41.1L77.5,7.56h-24.1l-30.72,33.08V7.56ZM173.86,30.2c-1.91-28.6-55.21-28.88-61.15-3.97-3.66,15.34,5.3,23.13,18.41,28.36,7.47,2.98,30.39,5.74,23.75,18.53-5.72,11.02-25.16,4.48-25.95-7.99l-19.34,2.42c-2.95,1.72,5.16,15.26,7.24,17.4,11.49,11.84,40.15,11.36,51.92.14,9.49-9.04,11.02-27.89.92-36.92-8.34-7.45-33.35-9.97-36.84-15.17-5.55-8.28,9.83-14.31,17.15-8.14,1.44,1.21,4.18,7.17,4.71,7.3l19.18-1.98ZM246.68,30.24c-2.48-19.46-23.24-23.89-39.92-21.49-22.83,3.3-31.42,31.77-9.58,43.11,7.84,4.07,31.81,7.09,31.26,17.46-.76,14.28-26.57,10.77-26.23-4.07-3.36,1.15-19.93.18-20.52,3.22,2.1,29.86,52.11,33.26,64.23,10.64,4.47-8.34,4.36-22.53-2.42-29.63-9.76-10.22-26.77-8.31-35.91-14.65-5.76-4-3.64-11.11,2.75-12.08,8.37-1.28,13.29,2.09,17.08,9.27l19.25-1.78ZM307.17,43.47c-5.21-14.83-19.66-16.63-33.56-15.12s-22.44,15.97-15.25,28.49,28.37,8.24,32.64,15.6c2.59,4.47-2.11,8.67-6.97,8.9-8.52.4-9.03-5.85-13.28-6.66-2.7-.51-16.5-.31-16.53,3.24-.04,4.65,8.71,11.2,12.6,12.98,19.36,8.87,52.2-4.06,40.17-27.88-6.62-13.11-24.43-8.3-31.92-13.45-6.62-4.55,2.09-14.12,11.05-8.21,1.98,1.31,2.34,3.59,4.5,4.02,1.56.31,15.98-1.3,16.54-1.91ZM338.11,28.58c-12.78,1.99-22.29,15.28-23.37,27.67-4.19,48.26,60.28,47.82,64.26,11.33,2.96-27.17-13.84-43.22-40.89-39Z"/>
  <path class="st1" d="M22.68,7.56v33.08L53.4,7.56h24.1l-33.12,39.22,34.55,41.1,2.31-70.24,18.9-8.74,1.93,1.01v80.34l-1.42,1.42h-46.31c-8.49-10.09-16.42-20.75-25.07-30.69-1.75-2.02-4.15-5.68-6.59-6.17v36.86H0V7.56h22.68Z"/>
  <path class="st1" d="M425.31,0v13.23c-12.24-2.96-13.57,6.11-13.23,16.07h19.85l.15-12.14,17.8-7.71v19.85h15.12v13.23h-15.12v28.83c0,.38,1.93,4.73,2.55,5.26,3.61,3.01,11.78.81,13.1,2.72v11.46c-.88,1.26-18.14,1.24-20.88.91-4.46-.54-8.7-4.29-10.67-8.23-1.01-2.01-3.01-8.35-3.01-10.22v-30.72h-17.49l-1.42,1.42v47.73h-18.9v-49.15h-13.23v-13.23h13.23c-.62-8.55.23-19.32,7.61-24.99,1.38-1.06,8.53-4.31,9.87-4.31h14.65Z"/>
  <path class="st1" d="M246.68,30.24l-19.25,1.78c-3.78-7.18-8.71-10.55-17.08-9.27-6.39.97-8.52,8.09-2.75,12.08,9.14,6.34,26.16,4.43,35.91,14.65,6.78,7.1,6.89,21.29,2.42,29.63-12.12,22.62-62.13,19.22-64.23-10.64.58-3.04,17.16-2.06,20.52-3.22-.34,14.83,25.47,18.34,26.23,4.07.55-10.36-23.43-13.38-31.26-17.46-21.84-11.35-13.25-39.82,9.58-43.11,16.68-2.41,37.44,2.02,39.92,21.49Z"/>
  <path class="st1" d="M173.86,30.2l-19.18,1.98c-.53-.13-3.27-6.09-4.71-7.3-7.32-6.17-22.7-.14-17.15,8.14,3.49,5.2,28.5,7.72,36.84,15.17,10.09,9.02,8.57,27.87-.92,36.92-11.77,11.22-40.43,11.7-51.92-.14-2.07-2.14-10.19-15.67-7.24-17.4l19.34-2.42c.79,12.47,20.23,19,25.95,7.99,6.64-12.8-16.28-15.55-23.75-18.53-13.11-5.23-22.07-13.03-18.41-28.36,5.94-24.9,59.24-24.63,61.15,3.97Z"/>
  <path class="st1" d="M338.11,28.58c27.06-4.21,43.85,11.84,40.89,39-3.98,36.49-68.45,36.93-64.26-11.33,1.08-12.4,10.59-25.68,23.37-27.67ZM343.75,41.79c-12.13,2.79-12.8,32.32-1.61,37.12,22.18,9.52,25.44-42.61,1.61-37.12Z"/>
  <path class="st1" d="M307.17,43.47c-.56.61-14.98,2.23-16.54,1.91-2.16-.43-2.52-2.71-4.5-4.02-8.95-5.91-17.67,3.66-11.05,8.21,7.48,5.15,25.29.34,31.92,13.45,12.03,23.82-20.81,36.75-40.17,27.88-3.89-1.78-12.64-8.33-12.6-12.98.03-3.55,13.83-3.75,16.53-3.24,4.24.81,4.76,7.06,13.28,6.66,4.86-.23,9.56-4.43,6.97-8.9-4.27-7.37-25.65-3.44-32.64-15.6s1.16-26.97,15.25-28.49,28.35.29,33.56,15.12Z"/>
  <path class="st0" d="M343.75,41.79c23.82-5.48,20.57,46.64-1.61,37.12-11.18-4.8-10.51-34.33,1.61-37.12Z"/>
</svg>