<?xml version="1.0" encoding="UTF-8"?>
<svg id="Layer_1" xmlns="http://www.w3.org/2000/svg" version="1.1" viewBox="0 0 2061.3 1022.3">
  <!-- Generator: Adobe Illustrator 29.1.0, SVG Export Plug-In . SVG Version: 2.1.0 Build 142)  -->
  <defs>
    <style>
      .st0 {
        fill: #fff;
        fill-rule: evenodd;
      }
    </style>
  </defs>
  <path class="st0" d="M1245.7,724h-45.8l-114.4-432.7h219.3l54.4,168.8,62-186,148.5,46.7-140.9,480.2s-39.1,158.3-153.5,221.3l-161.2-82s131.4-34.3,162.1-173.5c5-22.5-1-42.8-30.5-42.8h0Z"/>
  <path class="st0" d="M0,724V0h223.4v211L364.3.2h237.7l-206.9,321.4,233.4,402.4h-258.7l-144.2-220.1v220.1H0Z"/>
  <path class="st0" d="M1820,277c132.8,0,241.3,106.3,241.3,236.5s-108.5,236.7-241.3,236.7-241.5-106.3-241.5-236.7,108.5-236.5,241.5-236.5ZM1820,409.4c22.9,0,42,47,42,104.2s-19.1,104.4-42,104.4-41.9-46.7-41.9-104.4c-.1-57.3,18.8-104.2,41.9-104.2h0Z"/>
  <path class="st0" d="M840.1,277c133,0,241.3,106.3,241.3,236.5s-108.2,236.7-241.3,236.7-241.3-106.3-241.3-236.7c.1-130.1,108.5-236.5,241.3-236.5h0ZM840.1,409.4c23.1,0,42,47,42,104.2s-18.8,104.4-42,104.4-42-46.7-42-104.4c.1-57.3,19.1-104.2,42-104.2Z"/>
</svg>