<?xml version="1.0" encoding="UTF-8"?>
<svg id="Layer_1" xmlns="http://www.w3.org/2000/svg" version="1.1" viewBox="0 0 296.36 107.81">
  <!-- Generator: Adobe Illustrator 29.1.0, SVG Export Plug-In . SVG Version: 2.1.0 Build 142)  -->
  <defs>
    <style>
      .st0 {
        fill: none;
      }

      .st1 {
        stroke-width: .25px;
      }

      .st1, .st2, .st3 {
        stroke: #000;
        stroke-miterlimit: 10;
      }

      .st2 {
        isolation: isolate;
        opacity: .66;
      }

      .st3 {
        stroke-width: .75px;
      }

      .st4 {
        fill: #fff;
      }
    </style>
  </defs>
  <path class="st4" d="M250,0c-.09,1.61.06,3.28-.3,4.83-1.43,6.32-3.19,12.56-4.46,18.91-.58,2.91-1.89,4.16-4.7,3.66-3.75-.68-4.89,1.37-5.57,4.55-.94,4.38-2.19,8.71-3.43,13.02-.61,2.13-.58,2.86,2.15,2.55,5.27-.6,10.6-.76,15.91-.84,4.74-.07,6.51,1.36,8.15,5.8,1.67,4.51,5.27,6.36,9.73,4.99,3.32-1.02,3.93-3.1,1.36-5.34-2.13-1.85-4.55-3.35-6.83-5.02-2.41-1.77-4.97-3.39-7.16-5.4-7-6.4-9.65-14.19-6.82-23.45,2.75-8.99,9.12-14.14,18.11-15.94,3.18-.64,6.82-.91,9.85,0,5.74,1.73,11.49,1.68,17.28,1.51,3.24-.09,3.54,1.04,2.66,3.76-1.93,6.01-3.82,12.05-5.37,18.17-.83,3.25-2.15,5.06-5.76,4.45-.72-.12-1.53.24-2.29.38.54.75.97,1.62,1.65,2.22,6.95,6.18,9.53,13.84,7.72,22.91-.93,4.68-3.32,8.65-6.77,11.98-.43.42-.66,1.04-.98,1.57.58.16,1.14.39,1.73.47,2.36.32,4.72.59,7.09.88-.74,2.36-1.39,4.75-2.25,7.07-3.12,8.42-6.3,16.81-9.46,25.21-1.23,3.27-3.57,4.9-7.01,4.91h-135.9c-44.63,0-89.26-.02-133.89-.03-3.39,0-4.84-1.71-4.35-5.13.29-1.97.55-3.95.91-5.9.61-3.34,2.31-6,5.66-6.98,2.78-.82,3.99-2.61,4.68-5.22,5.44-20.57,10.91-41.13,16.44-61.67.6-2.24.12-3.63-1.77-5.08-1.48-1.13-3.31-3-3.35-4.58-.09-3.6.71-7.25,1.47-10.81.11-.53,1.97-.98,3.03-.98,13.82-.06,27.65-.02,41.47-.06,2.34,0,3.48.66,2.83,3.22-.73,2.89-1.27,5.82-1.94,8.73-.68,2.95-2.26,5.2-5.31,6.02-2.98.81-4.13,2.99-4.85,5.72-3.63,13.66-7.32,27.3-10.98,40.94-.21.8-.43,1.62-.46,2.44,0,.38.32.99.65,1.13.36.15.91-.1,1.36-.22.14-.04.33-.22.33-.35.33-8.89,9.16-11.57,13.16-17.86,5.96-9.39,12.97-18.12,19.41-27.21,2.59-3.66,5.59-6.8,5.18-12.29-.41-5.44,14.49-12.18,18.97-8.86,1.77,1.31,3.06,3.94,3.55,6.19,3.06,14.13,5.83,28.32,8.7,42.49.36,1.79.52,3.67,1.22,5.32.51,1.22,1.76,3.02,2.65,3,1.42-.04,3.02-1.15,4.14-2.22.74-.7.81-2.12,1.12-3.24,3-11.07,5.95-22.16,9.02-33.21.62-2.22.84-3.92-.97-5.89-2.14-2.32-2.15-8.94-.35-11.34.48-.64,1.64-1.08,2.5-1.09,6.99-.09,13.99,0,20.98-.09,2.36-.04,3.11,1.29,3.79,3.15,2.39,6.56,4.87,13.08,7.34,19.61.28.74.74,1.42,1.12,2.13.44-.78,1.01-1.52,1.29-2.36.53-1.57.8-3.23,1.36-4.8.67-1.88.6-3.32-.94-4.93-3.34-3.47-1.6-7.5-.61-11.3.16-.63,1.41-1.21,2.25-1.39,1.11-.24,2.32-.09,3.48-.09,18.49,0,36.97.18,55.46-.13,4.66-.08,9.29-1.69,13.93-2.59h2,0ZM140.58,104.21h129.37c1.17,0,2.35-.12,3.49.02,2.76.35,4.22-.82,5.15-3.44,2.9-8.14,6.04-16.19,9.02-24.3,1.23-3.35,1.15-3.39-2.66-3.5-1.33-.04-2.66,0-4,0-59.94.01-119.88.02-179.82.03-17.98,0-35.96,0-53.95-.05-1.74,0-4.33.92-3.31-2.8,4.4-16.02,8.58-32.11,13.12-48.09.55-1.92,2.5-4.15,4.34-4.86,3.88-1.5,5.16-4.36,5.94-7.9.99-4.47,1.02-4.53-3.44-4.54-10.49-.04-20.98-.02-31.47,0-5.66,0-6.37.91-6.41,6.59-.02,2.74,1.73,3.81,3.52,4.95,1.92,1.22,2.62,2.54,1.98,4.94-5.86,21.82-11.59,43.68-17.37,65.52-.78,2.93-2.48,5-5.58,5.78-2.77.7-3.92,2.72-4.44,5.4-1.22,6.25-1.29,6.26,5.14,6.26h131.38ZM133.97,70.93c2.33,0,4.66.07,6.99-.03,1.53-.06,3.49.65,4.05-1.77.49-2.12,1.31-4.47-.94-5.91-2.5-1.6-2.49-3.53-1.81-5.99,2.4-8.64,4.68-17.32,7.07-25.96.24-.86.87-1.61,1.32-2.41.45.86,1.01,1.68,1.34,2.59,4.31,11.86,8.56,23.75,12.9,35.6.49,1.34,1.16,3.42,2.11,3.64,2.36.54,5.02.63,7.35.05,1.02-.26,1.8-2.52,2.21-4,4.21-15.21,8.34-30.43,12.45-45.67.74-2.76,1.44-5.17,4.52-6.65,1.53-.73,2.25-3.37,3.07-5.27.97-2.25.15-3.34-2.44-3.28-4.82.11-9.66-.09-14.47.1-1.43.06-3.56.6-4.08,1.6-1.07,2.02-1.43,4.7.98,6.27,2.37,1.54,2.16,3.41,1.54,5.62-1.56,5.6-3.04,11.22-4.6,16.82-.2.71-.68,1.35-1.04,2.02-.44-.66-1.03-1.27-1.3-2-3.34-8.86-6.74-17.7-9.88-26.63-.97-2.74-2.21-4.05-5.3-3.85-4.31.27-8.65.02-12.98.09-1.71.03-3.87-.7-4.57,1.82-.64,2.31-1.1,4.73,1.43,6.23,2.26,1.34,1.97,2.98,1.38,5.1-3.52,12.81-6.87,25.67-10.42,38.47-.41,1.49-1.41,3.57-2.59,3.94-3.68,1.16-3.94,4.05-4.63,6.97-.42,1.8.11,2.48,1.87,2.46,2.83-.02,5.66,0,8.49,0l-.02.03ZM210.63,70.93c7.32,0,14.65-.19,21.96.09,3.4.13,4.69-1.16,5.14-4.29.53-3.61,1.49-7.15,2.06-10.76.27-1.68.05-3.43.06-5.15-2.71.35-5.48.45-8.08,1.18-1.04.29-1.55,2.13-2.56,2.93-2.03,1.63-4.05,3.82-6.4,4.34-3.83.86-7.92.65-11.89.66-.52,0-1.62-1.53-1.48-2.13,1.07-4.52,2.28-9.02,3.65-13.46.66-2.14,3.2-2.51,4.62-.73.7.88.74,2.57,1.56,3.02,1.74.97,3.76,1.62,5.74,1.95,2.2.37,2.61-1.51,3.04-3.17,1.34-5.14,2.78-10.26,4.02-15.42.2-.83-.36-2.66-.67-2.68-2.92-.21-6.02-.96-8.44,1.63-.78.84-1.61,1.75-2.61,2.23-.8.39-2.13.55-2.77.13-.47-.31-.43-1.77-.25-2.64.4-1.95,1.05-3.84,1.56-5.76,1.79-6.71,1.94-6.73,8.76-6.03,2.91.3,4.41,1.8,5.38,4.39,1.2,3.21,4.09,2.85,6.76,2.87,2.77.02,2.45-2.36,2.88-3.92,1.05-3.84,1.86-7.75,2.72-11.64.82-3.73.8-3.66-2.72-3.33-3.3.32-6.62.6-9.94.63-9.65.08-19.3-.04-28.95.11-1.37.02-3.37.71-3.96,1.73-1.06,1.84-1.46,4.49.76,5.84,2.89,1.76,2.42,3.92,1.73,6.43-3.45,12.49-6.88,24.98-10.28,37.48-.59,2.18-1.52,3.75-3.82,4.79-1.38.63-2.54,2.57-3.02,4.16-1.24,4.1-.83,4.49,3.48,4.51,7.32.03,14.64,0,21.96,0h0ZM272.29,5.12c-10.34.01-18.02,5.05-20.89,13.07-2.95,8.26-.57,15.99,6.93,22.17,2.05,1.69,4.3,3.13,6.45,4.7,2.02,1.47,4.07,2.89,6.02,4.44,2.03,1.62,3.61,3.56,2.86,6.41-.77,2.95-3.08,4.2-5.82,4.81-6.47,1.42-10.91-.94-13.2-7.2-.93-2.54-2.44-3.92-5.18-3.65-1.83.18-4.26-.95-5.11,1.79-1.76,5.72-3.44,11.46-5.01,17.24-.14.51.79,1.85,1.27,1.88,2.48.15,5.38.78,7.37-.23,2.95-1.5,5.33-.93,8.04-.06,5.69,1.84,11.49,2.09,17.21.32,7.85-2.44,13.51-7.4,15.32-15.6,1.85-8.37-.81-15.45-7.63-20.79-2.22-1.74-4.67-3.21-6.89-4.95-2.48-1.95-5.09-3.84-7.16-6.17-2.74-3.09-1.21-6.6,2.86-7.27,3.63-.6,6.21.87,7.42,4.32.38,1.09.55,2.26.81,3.4.68,2.97,2.91,3.11,5.4,3.21,2.35.09,3.66-.63,4.29-3.01,1.23-4.66,2.65-9.27,4.07-13.88.7-2.27-.12-3.14-2.35-2.92-4.83.49-9.51-.06-14.1-1.74-1.2-.44-2.63-.25-3.01-.28h.03ZM108.08,70.93c3.33,0,6.66.16,9.97-.08,1.24-.09,3.23-.87,3.45-1.71.46-1.76.71-4.85-.25-5.5-4.22-2.86-4.34-7.25-5.2-11.38-2.99-14.29-5.86-28.61-8.87-42.9-.29-1.36-.93-3.33-1.94-3.75-4.76-1.97-7.79,2.64-11.81,3.75-1.08.3-1.6,2.82-2.26,4.37-.16.38.32.98.24,1.44-.21,1.22-.24,2.65-.91,3.59-9.61,13.34-19.3,26.62-29.04,39.87-.95,1.29-2.25,2.52-3.66,3.23-2.81,1.41-3.35,3.84-3.84,6.53-.38,2.09.42,2.6,2.33,2.58,5.15-.07,10.31.1,15.46-.08,1.78-.06,4.48-.37,5.1-1.48,1.25-2.25,1.45-5.1-1.5-6.96-.62-.39-1.3-1.87-1.04-2.27,1.38-2.14,2.34-4.77,5.79-4.65,5.65.19,11.31-.03,16.96.13,1.06.03,2.8.9,2.99,1.68.32,1.35-.02,3.08-.65,4.38-.69,1.42-2.41,2.36-3,3.79-1.82,4.43-1.06,5.41,3.7,5.44,2.66.02,5.32,0,7.98,0v-.02ZM199.3,18.61c-.28-.62-.48-1.66-1.12-2.2-.33-.28-1.6.14-2.14.6-1.31,1.13-3.1,2.29-3.52,3.76-4.33,15.31-8.44,30.69-12.56,46.07-.22.83.02,1.78.05,2.67.53-.7,1.4-1.33,1.53-2.1.62-3.79,1.94-6.9,5.74-8.72,1.03-.5,1.58-2.4,1.97-3.77,2.28-7.97,4.46-15.97,6.67-23.97,1.1-4,2.19-7.99,3.38-12.35h0ZM155.35,69.74h0c1.49-.01,2.99-.05,4.48,0,1.84.05,2.3-.63,1.65-2.4-3.23-8.86-6.38-17.76-9.59-26.64-.15-.42-.55-.75-.84-1.12-.32.44-.8.84-.94,1.34-1.25,4.46-2.41,8.95-3.66,13.42-.8,2.85-2.02,5.56,1.14,8.02.92.72,1.37,2.81,1.13,4.11-.53,2.89.64,3.53,3.14,3.29,1.15-.11,2.32-.02,3.48-.02h.01ZM88.11,58.87c-2.33,0-4.66-.06-6.99.04-.75.03-2.14.65-2.12.73.81,3.35,1.75,6.66,2.69,9.98.02.06.31.06.48.05,2.99-.04,6.11.41,8.9-.36,1.1-.3,1.45-3.29,2.15-5.06.18-.46.37-.93.62-1.36.71-1.25,1.46-2.49,2.19-3.73-1.64-.1-3.28-.22-4.93-.29-1-.04-2,0-3,0h0ZM217.75,57.29c2.43-.85,4.89-1.62,7.25-2.62.6-.25.89-1.24,1.33-1.9-.68-.24-1.36-.54-2.06-.72-2.03-.51-4.3-.57-6.05-1.55-3.05-1.71-2.92-1.95-3.92,1.66-.87,3.15.28,4.85,3.45,5.12h0ZM226.04,24.47c1.12-.63,3.64-1.48,3.59-2.1-.25-2.69-2.68-2.29-4.66-2.34-2.38-.06-2.89,1.87-2.75,3.37.3,3.2,2.28-.3,3.82,1.07ZM271.19,19.28c-.32.02-.75-.07-.95.09-.42.35-1.08,1.18-1.03,1.23,1.42,1.52,2.89,2.99,4.42,4.4.15.14.94-.06,1.06-.3.82-1.62-1.6-5.3-3.51-5.43h.01Z"/>
  <path d="M140.58,104.21H9.21c-6.43,0-6.36,0-5.14-6.26.53-2.69,1.68-4.71,4.44-5.4,3.1-.78,4.8-2.85,5.58-5.78,5.79-21.84,11.51-43.7,17.37-65.52.65-2.4-.06-3.72-1.98-4.94-1.79-1.14-3.54-2.21-3.52-4.95.05-5.68.75-6.59,6.41-6.59,10.49,0,20.98-.03,31.47,0,4.46.02,4.43.07,3.44,4.54-.78,3.54-2.06,6.4-5.94,7.9-1.84.71-3.79,2.93-4.34,4.86-4.54,15.98-8.72,32.07-13.12,48.09-1.02,3.73,1.56,2.8,3.31,2.8,17.98.05,35.96.06,53.95.05,59.94,0,119.88-.02,179.82-.03,1.33,0,2.66-.03,4,0,3.81.1,3.89.14,2.66,3.5-2.98,8.11-6.12,16.16-9.02,24.3-.93,2.62-2.39,3.79-5.15,3.44-1.15-.14-2.33-.02-3.49-.02h-129.38ZM140.65,102.45h128.92c1.33,0,2.71.21,3.98-.08.99-.22,2.37-.84,2.69-1.64,3.12-7.88,6.09-15.83,8.98-23.8.16-.43-.68-1.61-1.27-1.83-.88-.32-1.97-.11-2.97-.11H46.63c-6.06,0-6.09-.03-4.63-5.52,3.85-14.46,7.74-28.91,11.58-43.38,1.34-5.05,2.49-10.16,8.65-11.68.69-.17,1.48-.98,1.72-1.67.6-1.69.9-3.48,1.32-5.23-1.43-.22-2.86-.62-4.29-.63-9.33-.06-18.66-.11-27.98.05-1.56.03-3.92.62-4.47,1.69-1.06,2.07-.9,4.6,1.83,5.91,3.56,1.71,3.84,4.41,2.89,7.92-5.7,21.19-11.27,42.42-16.86,63.64-1.08,4.1-3.01,7.25-7.5,8.45-3.06.82-3.15,3.84-3.01,6.22.16,2.9,2.82,1.29,4.37,1.66.63.15,1.33.02,1.99.02h128.42-.01Z"/>
  <path d="M133.97,70.92c-2.83,0-5.66-.02-8.49,0-1.76.01-2.29-.66-1.87-2.46.69-2.93.95-5.81,4.63-6.97,1.18-.37,2.18-2.45,2.59-3.94,3.55-12.8,6.9-25.66,10.42-38.47.58-2.13.88-3.77-1.38-5.1-2.53-1.49-2.07-3.92-1.43-6.23.7-2.52,2.86-1.79,4.57-1.82,4.33-.07,8.67.18,12.98-.09,3.09-.2,4.33,1.11,5.3,3.85,3.14,8.93,6.54,17.77,9.88,26.63.27.73.86,1.33,1.3,2,.35-.67.84-1.31,1.04-2.02,1.56-5.6,3.04-11.22,4.6-16.82.62-2.22.83-4.09-1.54-5.62-2.42-1.57-2.05-4.25-.98-6.27.53-1,2.65-1.54,4.08-1.6,4.82-.19,9.65,0,14.47-.1,2.59-.06,3.41,1.03,2.44,3.28-.82,1.9-1.54,4.54-3.07,5.27-3.08,1.47-3.78,3.89-4.52,6.65-4.11,15.23-8.24,30.46-12.45,45.67-.41,1.48-1.19,3.74-2.21,4-2.33.58-4.99.5-7.35-.05-.94-.22-1.62-2.3-2.11-3.64-4.33-11.85-8.59-23.74-12.9-35.6-.33-.91-.89-1.73-1.34-2.59-.45.8-1.08,1.55-1.32,2.41-2.38,8.65-4.67,17.32-7.07,25.96-.68,2.46-.69,4.39,1.81,5.99,2.26,1.45,1.43,3.8.94,5.91-.56,2.42-2.52,1.71-4.05,1.77-2.33.1-4.66.03-6.99.02l.02-.02ZM149.8,7.93c-2.16,0-4.34-.12-6.49.05-1.02.08-2.72.61-2.82,1.18-.2,1.06.17,2.88.95,3.36,3,1.86,2.54,4.28,1.8,6.98-3.06,11.22-6.02,22.47-9.12,33.68-1.21,4.37-1.45,9.34-6.85,11.35-.72.27-.9,2.26-1.04,3.49-.02.17,1.63.75,2.51.77,3.83.09,7.66.13,11.48-.02.98-.04,2.46-.6,2.77-1.32.34-.8-.06-2.65-.72-3.03-3.56-2.03-2.7-4.89-1.9-7.85,2.45-8.98,4.83-17.97,7.37-26.92.69-2.44,1.83-4.75,2.77-7.13.94,2.29,1.95,4.55,2.8,6.87,4.38,12.02,8.7,24.06,13.09,36.08.59,1.62.77,3.51,3.34,3.7,3.05.23,4.41-.86,5.19-3.83,3.84-14.62,7.88-29.19,11.84-43.78,1-3.67,1.52-7.54,6.02-9.03.83-.28,1.12-2.2,1.66-3.37-1.11-.41-2.21-1.12-3.34-1.16-3.66-.15-7.32-.14-10.98,0-1,.04-2.7.66-2.8,1.22-.17,1.07.22,2.81,1.01,3.36,2.59,1.79,2.55,3.98,1.84,6.59-2.14,7.85-4.21,15.73-6.35,23.58-.16.59-.64,1.09-.98,1.64-.48-.55-1.15-1.03-1.4-1.67-3.36-8.85-6.57-17.77-10-26.59-3.95-10.16-1.14-7.88-11.68-8.19h.03Z"/>
  <path d="M210.63,70.93c-7.32,0-14.64.02-21.96,0-4.32-.02-4.72-.41-3.48-4.51.48-1.59,1.64-3.53,3.02-4.16,2.3-1.05,3.23-2.61,3.82-4.79,3.4-12.5,6.83-24.99,10.28-37.48.69-2.51,1.16-4.68-1.73-6.43-2.22-1.35-1.83-4-.76-5.84.59-1.02,2.58-1.71,3.96-1.73,9.65-.14,19.3-.02,28.95-.11,3.31-.03,6.63-.31,9.94-.63,3.53-.34,3.55-.41,2.72,3.33-.86,3.89-1.67,7.8-2.72,11.64-.43,1.56-.11,3.94-2.88,3.92-2.67-.02-5.56.35-6.76-2.87-.97-2.59-2.47-4.09-5.38-4.39-6.83-.7-6.98-.68-8.76,6.03-.51,1.92-1.16,3.82-1.56,5.76-.18.87-.22,2.33.25,2.64.64.42,1.97.26,2.77-.13,1-.49,1.83-1.39,2.61-2.23,2.42-2.59,5.52-1.84,8.44-1.63.31.02.87,1.85.67,2.68-1.24,5.17-2.68,10.28-4.02,15.42-.43,1.66-.84,3.53-3.04,3.17-1.98-.33-4-.98-5.74-1.95-.82-.46-.86-2.14-1.56-3.02-1.42-1.78-3.96-1.41-4.62.73-1.37,4.44-2.58,8.94-3.65,13.46-.14.59.96,2.13,1.48,2.13,3.98,0,8.06.2,11.89-.66,2.35-.53,4.38-2.72,6.4-4.34,1.01-.81,1.52-2.65,2.56-2.93,2.6-.72,5.38-.82,8.08-1.18,0,1.72.21,3.47-.06,5.15-.57,3.6-1.53,7.15-2.06,10.76-.46,3.13-1.74,4.42-5.14,4.29-7.31-.28-14.64-.09-21.96-.09h0ZM210.56,68.83c6.99,0,13.98-.13,20.96.06,2.96.08,4.16-.98,4.49-3.85.34-2.96,1.19-5.86,1.66-8.81.17-1.06-.14-2.19-.23-3.28-1.42.14-2.97-.02-4.23.5-.95.4-1.61,1.62-2.27,2.56-2.81,4-6.77,5.77-11.52,5.91-3.32.1-6.66-.07-9.98.05-2.69.1-3.06-1.1-2.41-3.37,1.42-4.95,2.62-9.96,4.16-14.87.37-1.19,1.71-2.9,2.63-2.91,1.82-.03,3.71.81,5.45,1.58.58.26.61,1.58,1.18,2.09,1,.9,2.29,2.23,3.34,2.12.96-.09,2.16-1.71,2.54-2.89,1.19-3.63,2.09-7.35,2.97-11.06.24-1.02.05-2.14.06-3.21-1.29.03-2.65-.18-3.84.17-.86.25-1.39,1.51-2.26,1.85-2.23.88-4.52,1.71-6.86,2.17-1.64.32-2.37-.65-1.86-2.46,1.31-4.64,2.39-9.34,3.82-13.93.31-1,1.69-2.37,2.58-2.37,5.3-.01,11.3-1.59,14.02,5.46.35.92,2.37,1.53,3.66,1.61.64.04,1.74-1.35,2.01-2.28.93-3.18,1.51-6.47,2.39-9.67.69-2.53-.28-2.73-2.5-2.44-2.79.37-5.64.33-8.46.34-9.15.04-18.3-.04-27.45.08-1.11.01-2.82.71-3.13,1.52-.31.82.46,2.64,1.3,3.2,2.7,1.79,2.41,4.07,1.72,6.6-3.22,11.86-6.37,23.74-9.64,35.59-1.04,3.77-1.55,7.91-6.25,9.47-.78.26-.99,2.21-1.47,3.38.99.36,1.97,1.02,2.96,1.03,6.82.09,13.64.05,20.46.05h0Z"/>
  <path d="M272.29,5.12c.37.03,1.8-.16,3.01.28,4.59,1.67,9.26,2.23,14.1,1.74,2.23-.23,3.05.65,2.35,2.92-1.43,4.61-2.85,9.22-4.07,13.88-.63,2.39-1.94,3.1-4.29,3.01-2.48-.1-4.72-.23-5.4-3.21-.26-1.14-.43-2.3-.81-3.4-1.21-3.46-3.79-4.93-7.42-4.32-4.07.68-5.59,4.19-2.86,7.27,2.08,2.34,4.68,4.23,7.16,6.17,2.22,1.74,4.67,3.21,6.89,4.95,6.82,5.34,9.48,12.42,7.63,20.79-1.82,8.2-7.47,13.16-15.32,15.6-5.72,1.78-11.52,1.52-17.21-.32-2.71-.87-5.09-1.44-8.04.06-2,1.02-4.89.39-7.37.23-.49-.03-1.41-1.38-1.27-1.88,1.57-5.77,3.25-11.52,5.01-17.24.84-2.74,3.27-1.61,5.11-1.79,2.73-.27,4.25,1.11,5.18,3.65,2.3,6.26,6.74,8.62,13.2,7.2,2.74-.6,5.05-1.85,5.82-4.81.74-2.85-.83-4.79-2.86-6.41-1.95-1.55-4-2.98-6.02-4.44-2.15-1.57-4.4-3.01-6.45-4.7-7.51-6.18-9.88-13.91-6.93-22.17,2.86-8.02,10.55-13.06,20.89-13.07h-.03ZM264.38,69.95c2.09-.14,3.6-.15,5.07-.36,11.22-1.62,18.6-10.5,17.55-21.06-.59-5.9-3.87-10.08-8.46-13.51-4.26-3.18-8.5-6.39-12.59-9.78-2.42-2.01-3.03-4.85-1.73-7.7,1.23-2.71,3.85-3.47,6.64-3.65,3.43-.22,8.06,2.05,8.74,7.84.21,1.82.86,3.06,3.1,3.08,2.13.02,2.9-1.01,3.38-2.84.9-3.37,1.84-6.74,2.98-10.03.72-2.08-.07-3.26-1.9-2.61-3.92,1.39-7.02-.91-10.5-1.52-3.21-.56-6.66-.76-9.85-.19-7.15,1.27-11.92,5.6-13.91,12.7-2.04,7.24.45,13.08,5.85,17.85,2.11,1.86,4.52,3.38,6.8,5.05,2.15,1.57,4.36,3.06,6.45,4.7,2.79,2.19,4.59,4.89,3.54,8.64-1.08,3.85-4.09,5.54-7.71,6.22-7.33,1.38-12.38-1.32-14.96-8.13-.78-2.06-1.88-2.8-4.02-2.85-2.19-.05-2.86,1.14-3.35,2.89-.88,3.2-1.86,6.38-2.77,9.58-1.32,4.61-.46,6.02,3.79,4.34,4.59-1.82,8.37-.38,12.49.58,1.93.45,3.93.59,5.34.79l.03-.03Z"/>
  <path d="M108.08,70.93c-2.66,0-5.32.01-7.98,0-4.76-.03-5.51-1.01-3.7-5.44.59-1.43,2.31-2.38,3-3.79.63-1.3.97-3.03.65-4.38-.18-.78-1.93-1.65-2.99-1.68-5.65-.17-11.31.06-16.96-.13-3.45-.12-4.41,2.52-5.79,4.65-.26.4.42,1.88,1.04,2.27,2.95,1.86,2.75,4.71,1.5,6.96-.62,1.11-3.32,1.42-5.1,1.48-5.15.18-10.31.01-15.46.08-1.91.03-2.71-.48-2.33-2.58.49-2.69,1.02-5.12,3.84-6.53,1.41-.71,2.72-1.94,3.66-3.23,9.75-13.24,19.43-26.53,29.04-39.87.67-.93.7-2.37.91-3.59.08-.46-.4-1.06-.24-1.44.66-1.55,1.17-4.07,2.26-4.37,4.03-1.11,7.05-5.72,11.81-3.75,1.01.42,1.65,2.39,1.94,3.75,3.01,14.29,5.88,28.61,8.87,42.9.86,4.13.98,8.52,5.2,11.38.95.65.71,3.73.25,5.5-.22.84-2.21,1.62-3.45,1.71-3.31.24-6.65.08-9.97.08v.02ZM88.5,53.55c2.66,0,5.32,0,7.98,0,5.23.03,5.47.36,6.2,5.48.31,2.16-.54,3.27-2.14,4.55-1.14.91-1.62,2.64-2.4,4.01,1.44.41,2.87,1.14,4.33,1.18,4.98.14,9.98.1,14.96-.01.83-.02,2.17-.62,2.33-1.2.26-.94.1-2.67-.53-3.08-4.22-2.77-4.24-7.37-5.13-11.47-2.71-12.49-5.13-25.05-7.74-37.56-1.9-9.11-1.92-9.02-10.36-5.31-2.41,1.06-3.33,2.25-2.61,4.94.33,1.22.04,3.09-.73,4.05-12,14.95-20.49,32.63-35.21,45.5-.73.64-1.18,2.18-.96,3.1.14.56,1.82,1.02,2.82,1.04,4.32.11,8.65.12,12.97,0,1-.03,2.7-.6,2.8-1.17.2-1.07-.15-2.93-.91-3.37-3.34-1.96-2.49-3.88-.85-6.53,1.99-3.2,4.38-4.69,8.19-4.2,2.29.29,4.65.05,6.98.05h0Z"/>
  <path class="st0" d="M199.3,18.61c-1.19,4.35-2.28,8.35-3.38,12.35-2.21,7.99-4.38,16-6.67,23.97-.39,1.37-.94,3.27-1.97,3.77-3.8,1.83-5.12,4.93-5.74,8.72-.12.76-1,1.4-1.53,2.1-.03-.89-.27-1.84-.05-2.67,4.12-15.37,8.23-30.75,12.56-46.07.42-1.48,2.22-2.63,3.52-3.76.53-.46,1.81-.88,2.14-.6.63.54.84,1.59,1.12,2.2h0Z"/>
  <path class="st0" d="M155.35,69.74c-1.16,0-2.33-.09-3.48.02-2.5.24-3.67-.41-3.14-3.29.24-1.3-.2-3.4-1.13-4.11-3.17-2.46-1.94-5.17-1.14-8.02,1.25-4.46,2.41-8.95,3.66-13.42.14-.49.62-.89.94-1.34.29.37.69.7.84,1.12,3.2,8.88,6.35,17.77,9.59,26.64.65,1.77.19,2.45-1.65,2.4-1.49-.04-2.99,0-4.48,0h-.01Z"/>
  <path class="st0" d="M88.11,58.87c1,0,2-.04,3,0,1.64.07,3.28.19,4.93.29-.73,1.24-1.48,2.48-2.19,3.73-.25.43-.43.9-.62,1.36-.7,1.76-1.06,4.76-2.15,5.06-2.79.76-5.91.32-8.9.36-.17,0-.46,0-.48-.05-.94-3.31-1.88-6.63-2.69-9.98-.02-.08,1.38-.69,2.12-.73,2.33-.1,4.66-.04,6.99-.04h0Z"/>
  <path class="st0" d="M217.75,57.29c-3.17-.26-4.32-1.97-3.45-5.12,1.01-3.61.87-3.38,3.92-1.66,1.75.98,4.02,1.04,6.05,1.55.7.18,1.37.47,2.06.72-.43.65-.73,1.64-1.33,1.9-2.36,1-4.82,1.76-7.25,2.62h0Z"/>
  <path class="st0" d="M226.04,24.47c-1.54-1.37-3.51,2.14-3.82-1.07-.14-1.5.37-3.42,2.75-3.37,1.98.05,4.41-.35,4.66,2.34.06.62-2.46,1.47-3.59,2.1Z"/>
  <path class="st0" d="M271.2,19.29c1.91.13,4.33,3.81,3.51,5.43-.12.23-.91.44-1.06.3-1.53-1.41-3.01-2.88-4.42-4.4-.05-.06.6-.88,1.03-1.23.2-.17.62-.07.95-.09h-.01Z"/>
  <path class="st4" d="M140.65,102.45H12.23c-.67,0-1.36.13-1.99-.02-1.55-.37-4.21,1.24-4.37-1.66-.13-2.38-.05-5.4,3.01-6.22,4.49-1.2,6.42-4.35,7.5-8.45,5.59-21.22,11.17-42.45,16.86-63.64.94-3.51.67-6.22-2.89-7.92-2.73-1.31-2.89-3.84-1.83-5.91.55-1.07,2.91-1.66,4.47-1.69,9.32-.15,18.65-.1,27.98-.05,1.43,0,2.86.41,4.29.63-.42,1.75-.72,3.54-1.32,5.23-.24.69-1.04,1.5-1.72,1.67-6.16,1.52-7.31,6.63-8.65,11.68-3.84,14.46-7.74,28.91-11.58,43.38-1.46,5.49-1.43,5.52,4.63,5.52h234.35c1,0,2.08-.22,2.97.11.6.22,1.43,1.4,1.27,1.83-2.89,7.97-5.85,15.92-8.98,23.8-.32.8-1.7,1.42-2.69,1.64-1.27.28-2.65.08-3.98.08h-128.92.01Z"/>
  <path class="st4" d="M149.8,7.93c10.54.31,7.73-1.97,11.68,8.19,3.43,8.83,6.64,17.74,10,26.59.24.64.92,1.11,1.4,1.67.33-.54.82-1.05.98-1.64,2.14-7.85,4.21-15.73,6.35-23.58.71-2.6.76-4.79-1.84-6.59-.79-.55-1.19-2.29-1.01-3.36.09-.56,1.8-1.18,2.8-1.22,3.66-.15,7.32-.15,10.98,0,1.13.05,2.23.76,3.34,1.16-.54,1.17-.83,3.09-1.66,3.37-4.51,1.49-5.03,5.37-6.02,9.03-3.96,14.59-8.01,29.16-11.84,43.78-.78,2.97-2.14,4.06-5.19,3.83-2.57-.19-2.75-2.07-3.34-3.7-4.39-12.02-8.71-24.06-13.09-36.08-.85-2.32-1.86-4.58-2.8-6.87-.94,2.37-2.08,4.68-2.77,7.13-2.54,8.95-4.92,17.95-7.37,26.92-.81,2.95-1.66,5.82,1.9,7.85.66.38,1.06,2.22.72,3.03-.31.72-1.78,1.29-2.77,1.32-3.82.15-7.65.11-11.48.02-.88-.02-2.53-.6-2.51-.77.14-1.23.32-3.22,1.04-3.49,5.4-2.02,5.64-6.99,6.85-11.35,3.1-11.21,6.07-22.45,9.12-33.68.73-2.7,1.2-5.12-1.8-6.98-.77-.48-1.15-2.3-.95-3.36.11-.57,1.8-1.09,2.82-1.18,2.15-.18,4.32-.05,6.49-.06l-.03.02Z"/>
  <path class="st4" d="M210.56,68.83c-6.82,0-13.64.04-20.46-.05-.99-.01-1.97-.67-2.96-1.03.47-1.17.69-3.13,1.47-3.38,4.7-1.56,5.21-5.7,6.25-9.47,3.27-11.85,6.43-23.73,9.64-35.59.69-2.53.98-4.81-1.72-6.6-.84-.56-1.61-2.38-1.3-3.2.31-.81,2.02-1.5,3.13-1.52,9.15-.12,18.3-.05,27.45-.08,2.82-.01,5.68.03,8.46-.34,2.22-.3,3.19-.09,2.5,2.44-.87,3.2-1.45,6.49-2.39,9.67-.27.93-1.36,2.32-2.01,2.28-1.29-.07-3.3-.69-3.66-1.61-2.72-7.05-8.72-5.47-14.02-5.46-.89,0-2.27,1.37-2.58,2.37-1.43,4.6-2.51,9.3-3.82,13.93-.51,1.81.22,2.78,1.86,2.46,2.34-.46,4.63-1.28,6.86-2.17.86-.34,1.4-1.6,2.26-1.85,1.2-.35,2.55-.14,3.84-.17,0,1.07.19,2.19-.06,3.21-.89,3.71-1.79,7.44-2.97,11.06-.38,1.18-1.58,2.79-2.54,2.89-1.05.1-2.34-1.22-3.34-2.12-.57-.51-.6-1.83-1.18-2.09-1.73-.77-3.63-1.62-5.45-1.58-.92.02-2.26,1.73-2.63,2.91-1.54,4.91-2.74,9.92-4.16,14.87-.65,2.26-.28,3.47,2.41,3.37,3.32-.12,6.66.04,9.98-.05,4.75-.14,8.71-1.91,11.52-5.91.66-.94,1.32-2.17,2.27-2.56,1.26-.53,2.8-.37,4.23-.5.09,1.1.39,2.23.23,3.28-.47,2.95-1.32,5.85-1.66,8.81-.33,2.87-1.53,3.93-4.49,3.85-6.98-.19-13.97-.06-20.96-.06h0Z"/>
  <path class="st4" d="M264.38,69.95c-1.4-.2-3.41-.34-5.34-.79-4.13-.96-7.91-2.4-12.49-.58-4.25,1.69-5.11.28-3.79-4.34.92-3.2,1.89-6.37,2.77-9.58.48-1.75,1.16-2.94,3.35-2.89,2.14.05,3.24.79,4.02,2.85,2.58,6.81,7.63,9.51,14.96,8.13,3.62-.68,6.63-2.37,7.71-6.22,1.05-3.74-.75-6.45-3.54-8.64-2.09-1.64-4.3-3.13-6.45-4.7-2.28-1.67-4.69-3.19-6.8-5.05-5.41-4.77-7.89-10.62-5.85-17.85,2-7.1,6.77-11.43,13.91-12.7,3.18-.57,6.64-.37,9.85.19,3.48.61,6.58,2.9,10.5,1.52,1.83-.65,2.63.53,1.9,2.61-1.14,3.29-2.08,6.66-2.98,10.03-.49,1.83-1.26,2.86-3.38,2.84-2.24-.02-2.89-1.26-3.1-3.08-.68-5.79-5.31-8.07-8.74-7.84-2.79.18-5.41.94-6.64,3.65-1.3,2.85-.69,5.7,1.73,7.7,4.09,3.39,8.33,6.6,12.59,9.78,4.59,3.43,7.87,7.61,8.46,13.51,1.05,10.56-6.33,19.44-17.55,21.06-1.48.21-2.98.22-5.07.36l-.03.03Z"/>
  <path class="st4" d="M88.5,53.55c-2.33,0-4.69.24-6.98-.05-3.81-.48-6.2,1.01-8.19,4.2-1.65,2.65-2.49,4.58.85,6.53.76.45,1.11,2.3.91,3.37-.11.56-1.81,1.14-2.8,1.17-4.32.13-8.65.12-12.97,0-1-.03-2.69-.49-2.82-1.04-.22-.93.23-2.47.96-3.1,14.72-12.87,23.2-30.54,35.21-45.5.77-.96,1.06-2.83.73-4.05-.72-2.68.2-3.88,2.61-4.94,8.44-3.71,8.46-3.8,10.36,5.31,2.61,12.51,5.03,25.07,7.74,37.56.89,4.1.91,8.7,5.13,11.47.63.41.78,2.14.53,3.08-.16.59-1.5,1.19-2.33,1.2-4.99.12-9.98.16-14.96.01-1.45-.04-2.88-.77-4.33-1.18.78-1.36,1.26-3.1,2.4-4.01,1.6-1.27,2.45-2.39,2.14-4.55-.73-5.12-.97-5.45-6.2-5.48-2.66-.02-5.32,0-7.98,0h0ZM90.56,46.97c0-.08.01-.16.02-.23,2.16,0,4.33-.02,6.49,0,2.02.03,3.19-.58,2.7-2.93-1.01-4.88-1.92-9.78-2.92-14.65-.12-.58-.6-1.08-.91-1.62-.5.38-1.11.68-1.47,1.17-2.56,3.48-5.15,6.95-7.57,10.52-1.53,2.26-2.79,4.7-4.17,7.05,2.61.23,5.22.46,7.83.69Z"/>
  <path d="M90.56,46.97l-7.83-.69c1.38-2.36,2.64-4.8,4.17-7.05,2.42-3.58,5.01-7.04,7.57-10.52.36-.49.97-.78,1.47-1.17.31.54.79,1.04.91,1.62,1.01,4.88,1.91,9.78,2.92,14.65.49,2.35-.68,2.96-2.7,2.93-2.16-.03-4.33,0-6.49,0,0,.08-.01.16-.02.23ZM91.72,44.77c6.01,0,6.09-.02,5.37-3.73-.55-2.86-1.34-5.68-2.03-8.52-1.95,2.27-3.9,4.54-5.84,6.81-.21.25-.42.52-.57.81-.74,1.38-1.46,2.77-2.18,4.16,1.58.16,3.17.32,4.75.47.16.02.33,0,.49,0h0Z"/>
  <path class="st4" d="M184.53,90.63c-.63.12-1.36.48-1.87.28-.51-.19-1.16-.97-1.12-1.44.06-.7.67-1.36,1.04-2.04.33.71.67,1.43,1,2.14.32.35.63.71.95,1.06Z"/>
  <path class="st4" d="M143.64,86.14c-.16-.2-.41-.39-.44-.61-.02-.13.29-.32.47-.46"/>
  <path class="st4" d="M139.95,86.97c.28.02.55.04.83.06-.09.16-.18.32-.27.49l-.46-.66-.1.11h0Z"/>
  <path class="st0" d="M91.72,44.77c-.16,0-.33,0-.49,0-1.59-.15-3.17-.31-4.75-.47.73-1.39,1.45-2.78,2.18-4.16.15-.29.36-.56.57-.81,1.94-2.27,3.89-4.54,5.84-6.81.68,2.84,1.48,5.66,2.03,8.52.71,3.71.63,3.73-5.37,3.73h0Z"/>
  <path class="st4" d="M156.68,76.53c-6.99,0-12.67,5.68-12.67,12.67s5.68,12.67,12.67,12.67,12.67-5.68,12.67-12.67-5.67-12.67-12.67-12.67h0Z"/>
  <path class="st2" d="M156.72,77.35c-6.7,0-12.13,5.43-12.13,12.13s5.43,12.13,12.13,12.13,12.13-5.44,12.13-12.13-5.44-12.13-12.13-12.13ZM156.72,77.63c.07,0,.14.02.2.06.06.04.11.11.13.18h0s0,0,0,0l.4,1.47c5.26.38,9.42,4.77,9.42,10.13,0,1.58-.36,3.08-1.01,4.42l1.04,1.05h0s0,0,0,0c.05.06.08.13.09.2,0,.07,0,.15-.04.21-.04.06-.09.11-.16.14-.07.03-.14.04-.22.03h-.01l-1.43-.37c-1.83,2.7-4.92,4.48-8.43,4.48s-6.6-1.78-8.42-4.48l-1.43.38h-.01c-.08.01-.15,0-.21-.03-.07-.03-.12-.08-.16-.14-.03-.06-.05-.14-.04-.21,0-.07.03-.14.09-.2h0s0,0,0,0l1.04-1.05c-.65-1.34-1.01-2.84-1.01-4.42,0-5.36,4.16-9.75,9.42-10.13l.4-1.46h0c.03-.08.07-.15.13-.19.06-.05.14-.06.21-.06h0ZM156.72,77.78s-.09.01-.12.04c-.04.03-.06.06-.08.1l-.88,3.26c-.02.06-.03.14-.01.2.02.06.06.11.12.15.16.11.22.32.29.52.07.2.09.37.03.58-.05.21-.17.39-.33.53-.29.25-.55.55-.72.9-.16.35-.22.73-.22,1.12v.94l-4.56-2.63-.5.87,5.06,2.92v1.06l-.91.53-5.06-2.92-.5.88,4.56,2.63-.82.47c-.33.19-.63.43-.85.75-.23.32-.36.7-.43,1.07-.04.21-.14.41-.29.56-.15.15-.31.22-.52.26-.21.03-.42.09-.59.01-.06-.03-.13-.04-.19-.02-.07.01-.13.05-.17.1l-2.38,2.41s-.05.08-.05.12c0,.04,0,.08.03.12.02.04.05.07.09.09.04.02.08.02.13.01l3.27-.87c.07-.01.13-.04.18-.09.04-.05.07-.11.08-.18.02-.19.16-.34.3-.51.14-.16.28-.26.49-.32.21-.06.43-.04.63.03.36.13.75.2,1.14.16.39-.04.74-.18,1.08-.37l.82-.47v5.26h1v-5.84l.92-.53.91.53v5.85h1.01v-5.26l.82.47c.33.19.69.33,1.08.37.39.04.78-.04,1.14-.17.2-.07.42-.08.63-.02.21.06.34.16.48.32.14.16.29.31.3.5,0,.07.03.13.08.18.04.05.11.09.17.1l3.27.86s.09,0,.13-.01c.04-.02.07-.05.09-.09.02-.04.03-.08.03-.12,0-.04-.02-.09-.05-.12l-2.38-2.4c-.04-.05-.11-.09-.17-.11-.07-.01-.13,0-.19.02-.17.08-.38.03-.59,0-.21-.04-.37-.11-.52-.26-.15-.15-.25-.35-.29-.56-.07-.38-.2-.75-.43-1.07-.23-.32-.53-.55-.86-.74l-.81-.47,4.56-2.63-.5-.87-5.06,2.92-.91-.53v-1.06l5.06-2.92-.5-.87-4.56,2.63v-.94c0-.38-.06-.76-.22-1.12-.16-.35-.43-.65-.72-.9-.16-.14-.28-.33-.33-.53-.05-.21-.04-.38.04-.58.08-.2.13-.41.29-.52.05-.04.1-.09.12-.15.02-.06.02-.14,0-.2l-.9-3.26s-.04-.08-.07-.1c-.03-.03-.07-.04-.12-.04h0ZM156.72,84.09c.24,0,.48.1.64.27.17.17.27.41.27.64v1.71l-.91.53-.92-.53v-1.71c0-.24.1-.48.27-.64.17-.17.41-.27.65-.27ZM156.73,88.4l.91.53v1.06l-.91.53-.92-.53v-1.05s.92-.53.92-.53ZM153.89,90.04l.91.53v1.06l-1.48.85c-.21.12-.46.15-.69.09-.23-.06-.44-.22-.56-.43-.12-.21-.15-.46-.09-.69.06-.23.22-.43.42-.55l1.48-.86h0ZM159.56,90.04l1.48.85c.21.12.36.32.43.55.06.23.03.49-.09.7-.12.21-.33.36-.56.42-.23.06-.48.03-.69-.09l-1.48-.86v-1.05l.92-.53h0Z"/>
  <path class="st1" d="M156.67,77.07c-6.7,0-12.13,5.43-12.13,12.13s5.43,12.13,12.13,12.13,12.13-5.44,12.13-12.13c0-6.7-5.44-12.13-12.13-12.13h0ZM156.68,77.35c.07,0,.14.02.2.06.06.04.11.11.13.18h0s0,0,0,0l.4,1.47c5.26.38,9.42,4.77,9.42,10.13,0,1.58-.36,3.08-1.01,4.42l1.04,1.05h0s0,0,0,0c.05.06.08.13.09.2,0,.07,0,.15-.04.21-.04.06-.09.11-.16.14-.07.03-.14.04-.21.03h-.01l-1.43-.37c-1.83,2.7-4.92,4.48-8.43,4.48s-6.6-1.78-8.42-4.48l-1.43.38h-.01c-.08.01-.15,0-.21-.03-.07-.03-.12-.08-.16-.14-.03-.06-.05-.14-.04-.21,0-.07.03-.14.09-.2h0s0,0,0,0l1.04-1.05c-.65-1.34-1.01-2.84-1.01-4.42,0-5.36,4.16-9.75,9.42-10.13l.4-1.46h0c.03-.08.07-.14.13-.19.06-.05.14-.06.21-.06h0ZM156.68,77.5s-.09.01-.12.04c-.04.03-.06.06-.08.1l-.88,3.26c-.02.06-.03.14-.01.2.02.06.06.12.11.16.16.11.22.32.29.52.07.2.09.37.03.58-.05.21-.18.39-.34.53-.29.25-.55.55-.71.9-.16.35-.22.73-.22,1.12v.94l-4.56-2.63-.5.87,5.06,2.92v1.06l-.91.53-5.06-2.92-.5.87,4.56,2.64-.82.47c-.33.19-.63.43-.86.75-.23.32-.36.69-.43,1.07-.04.21-.14.41-.29.56-.15.15-.31.22-.52.26-.21.04-.42.09-.59.01-.06-.03-.13-.04-.19-.02-.07.01-.13.05-.17.1l-2.38,2.41s-.04.08-.05.12c0,.04,0,.08.03.12.02.04.05.07.09.09.04.02.08.03.13.02l3.27-.87c.07-.01.13-.04.18-.09.04-.05.07-.11.08-.18.01-.19.16-.34.3-.51.14-.17.28-.26.49-.32.21-.06.43-.04.63.03.36.13.75.2,1.14.16.39-.04.74-.17,1.07-.37l.82-.47v5.26h1v-5.84l.92-.53.91.53v5.85h1.01v-5.26l.81.47c.33.19.69.33,1.08.37.39.04.78-.04,1.14-.17.2-.07.42-.08.63-.03.2.06.34.16.48.32.14.16.29.31.3.5,0,.07.03.13.08.18.04.05.11.09.17.1l3.27.86s.09,0,.13-.01c.04-.02.07-.05.09-.09.02-.04.03-.08.03-.12,0-.04-.02-.09-.05-.12l-2.38-2.4c-.04-.05-.11-.09-.17-.11-.07-.01-.13,0-.19.02-.17.08-.38.03-.59,0-.21-.04-.37-.11-.52-.26-.15-.15-.25-.35-.29-.56-.07-.38-.2-.75-.43-1.07-.23-.32-.53-.55-.86-.75l-.82-.47,4.56-2.64-.5-.87-5.06,2.92-.91-.53v-1.06l5.06-2.92-.5-.87-4.56,2.63v-.94c0-.38-.06-.76-.22-1.12-.16-.35-.42-.65-.72-.9-.16-.14-.28-.33-.33-.53-.05-.21-.04-.38.04-.58.07-.2.13-.41.29-.52.06-.04.1-.09.12-.16.02-.06.02-.14,0-.2l-.9-3.26s-.04-.08-.08-.1c-.03-.02-.07-.04-.11-.04ZM156.68,83.8c.24,0,.48.1.64.27.17.17.27.41.27.65v1.71l-.91.53-.92-.53v-1.71c0-.24.1-.48.27-.64.17-.17.41-.27.65-.27h0ZM156.68,88.12l.91.53v1.06l-.91.53-.92-.53v-1.05s.92-.53.92-.53ZM153.84,89.75l.92.53v1.06l-1.48.85c-.21.12-.46.15-.69.09-.23-.06-.44-.22-.56-.43-.12-.21-.15-.46-.09-.69.06-.23.22-.44.42-.56l1.48-.86h0ZM159.51,89.75l1.48.86c.21.12.36.32.43.55.06.23.02.49-.1.7-.12.21-.32.36-.55.42-.23.06-.49.03-.69-.09l-1.48-.85v-1.06l.91-.53h0Z"/>
  <path class="st3" d="M171.44,78.56l4.67,14.27v6.97h4.61v-6.97l4.41-14.27h-4.17l-2.62,9.27-2.54-9.27s-4.36,0-4.36,0ZM200.21,78.56v21.24h3.83v-13.77l2.2,13.77h2.9l2.19-13.77v13.77h3.91v-21.24h-5.86l-1.67,10.1-1.61-10.1s-5.89,0-5.89,0ZM233.03,78.56v21.24h4.27v-8.95h3.64v8.95h4.17v-21.24h-4.17v8.45h-3.64v-8.45s-4.27,0-4.27,0ZM251.19,78.55l-3.69,21.24h4.17l.82-5.19h3.19l.81,5.19h4.2l-3.69-21.24h-5.81ZM254.12,83.21l1.09,7.68h-2.22l1.13-7.68ZM221.25,78.55l-3.69,21.24h4.17l.82-5.19h3.19l.8,5.19h4.2l-3.69-21.24s-5.81,0-5.81,0ZM224.18,83.21l1.09,7.68h-2.22l1.13-7.68ZM188.46,78.55l-3.69,21.24h4.17l.82-5.19h3.19l.8,5.19h4.2l-3.69-21.24h-5.81ZM191.39,83.21l1.09,7.68h-2.22l1.13-7.68Z"/>
</svg>