<?xml version="1.0" encoding="UTF-8"?>
<svg id="Layer_1" xmlns="http://www.w3.org/2000/svg" version="1.1" viewBox="0 0 1001.14 427.96">
  <!-- Generator: Adobe Illustrator 29.1.0, SVG Export Plug-In . SVG Version: 2.1.0 Build 142)  -->
  <defs>
    <style>
      .st0 {
        fill: #fff;
      }
    </style>
  </defs>
  <rect class="st0" x="573.18" width="427.96" height="427.96"/>
  <path class="st0" d="M802.27,80.08v11.4c0,1.24,3.4,1.5,4.42,1.41l.88.71v31.02c-2.16.37-6.53-1.03-7.56,1.19-.82,1.76-.69,13.61.43,15.23,1.68,2.4,5.24-.11,7.13,1.89v17.24l-16.06-8.6c-35.64-2.15-72.74,1.45-108.32-.39-3.87-.2-7.99-1.27-11.94-1.32l-.52-1.6.29-77.18c2.97-1.16,2.72-4.38,2.42-7.19-.35-3.36-2.13-2.43-2.6-3.77-.29-.84-.25-4.77.18-5.48s1.92-.76,2.29-1.95c.42-1.38.62-7.13-1.09-7.73l-37.68-.29c-2.14.64-2.5,9.85.72,9.74v5.81c-2.4,2.09-2.62,4.86-2.18,7.97.34,2.45,2,2.04,2.16,2.73.22.97.47,4.43.54,5.71,1.95,32.36-1.53,66.65,0,99.21-1.56,4.08-.69,8.06-1.13,12.12-.5,4.51-2.56,9.07-1.54,14.11h-14.05l-.8.8v12.2l.8.8h14.05v38.18l-2.14.88c-.2,2.8.41,6.08-.11,8.8-.78,4.2-5.71,14.46-5.71,18.16v23.6l-6.66.5-29.93,28.4v78.75h397.2v-101.82h-25.99v-84.58c0-.95-2.65-8.6-3.26-10-4.2-9.67-16.92-19.96-27.77-19.96h-11.93v-16.44c2.81-.16,5.97.56,8.53-.87.69-.97.8-14.4.22-15.57-1.01-2.07-6.62-.37-8.75-1.59v-58.86c7.06.97,4.79-8.28,4.17-12.65l-6.2-.16c-6.95-13.55-23.82-17.49-37.42-11.66-3.75-5.42-8.13-10.3-13.84-13.72-.42-12.25,2.49-35.79-16.84-32.75-13.06,2.05-13.7,18.13-13.89,28.53-10.07,3.11-17.97,9.46-23.63,18.26l-6.88.81h0Z"/>
  <path d="M802.27,80.08l6.88-.81c5.66-8.8,13.57-15.16,23.63-18.26.19-10.4.84-26.48,13.89-28.53,19.34-3.03,16.42,20.5,16.84,32.75,5.71,3.43,10.08,8.3,13.84,13.72,13.59-5.83,30.47-1.9,37.42,11.66l6.2.16c.63,4.37,2.9,13.62-4.17,12.65v58.86c2.14,1.22,7.74-.48,8.75,1.59.57,1.18.47,14.6-.22,15.57-2.56,1.43-5.72.71-8.53.87v16.44h11.93c10.85,0,23.57,10.29,27.77,19.96.6,1.39,3.26,9.04,3.26,10v84.58h25.99v101.82h-397.2v-78.75l29.93-28.4,6.66-.5v-23.6c0-3.7,4.92-13.96,5.71-18.16.51-2.73-.11-6,.11-8.8l2.14-.88v-38.18h-14.05l-.8-.8v-12.2l.8-.8h14.05c-1.02-5.04,1.03-9.61,1.54-14.11.46-4.06-.42-8.04,1.13-12.12-1.53-32.56,1.95-66.85,0-99.21-.07-1.27-.32-4.74-.54-5.71-.16-.7-1.81-.28-2.16-2.73-.43-3.1-.21-5.88,2.18-7.97v-5.81c-3.23.11-2.87-9.1-.73-9.74l37.68.29c1.7.6,1.52,6.35,1.09,7.73-.36,1.19-1.88,1.28-2.29,1.95-.43.71-.47,4.65-.18,5.48.46,1.34,2.25.4,2.6,3.77.3,2.81.55,6.03-2.42,7.19l-.29,77.18.52,1.6c3.96.04,8.07,1.11,11.94,1.32,35.59,1.83,72.68-1.76,108.32.39l16.06,8.6v-17.24c-1.9-1.98-5.45.52-7.13-1.89-1.12-1.61-1.25-13.47-.43-15.23,1.03-2.21,5.4-.82,7.56-1.19v-31.02l-.88-.71c-1.02.08-4.42-.17-4.42-1.41v-11.4h.01ZM858.48,325.08V47.99c0-3.25-3.03-9.87-6.45-11.05-.58-.2-3.36-1.08-3.1.43,5.01,1.45,5.47,10.35,5.83,14.86,1.73,21.93.05,44.81-.02,66.79-.21,68.07.23,136.15,0,204.22l.52,1.6,3.21.23h0ZM845.22,60.46l.52-10.61c-3.75,2.21-6.35,6.65-7.94,10.61h7.42ZM652.72,51.97h-4.24v11.14h4.24v-11.14ZM663.86,51.97h-7.69c-1.21.74-.27,1.13-.27,1.33v10.34l7.95-.53v-11.14ZM848.41,64.17h-9.28c-3.33,0-11,3.28-14.01,5.08-3.68,2.2-8.45,6.3-10.12,10.3h33.41v-15.38ZM652.72,180.84v-112.16c-.95-1.19-3.21-1.24-4.24,0v111.37l.88.71,3.36.08ZM663.86,67.88h-7.95v112.96h7.95v-112.96ZM871.74,79.55c-1.92-4.14-6.42-8.38-10.61-10.08v10.08h10.61ZM909.39,90.68c-.42-1.6-2.67-3.73-3.99-4.76-10.96-8.55-26.82-6.63-34.72,4.76h38.71ZM848.41,83.79h-41.1c-1.19.95-1.24,3.21,0,4.24h41.1v-4.24ZM870.68,83.79h-9.55v4.24c4.38.24,8.27.65,9.55-4.24ZM862.19,98.64h53.83c.14,0,.42.63.81.31.89-.62.84-4.22-.24-4.41l-53.05.39c-1.89.21-1.27,2.28-1.33,3.71,0,0-.01,0-.01,0ZM848.41,101.82c-11.53-3.51-23.52-5-35.53-5.83v29.7h35.53v-23.86ZM911.51,163.87v-42.69c0-1.54-4.33-5.04-5.66-6-9.87-7.1-25.39-9.07-37.29-9.64v57.54l.8.8h42.16ZM861.13,125.68l3.04-.77c-1.8-5.03,2.21-13.17-3.04-16.2v16.97ZM848.41,129.4h-43.22l-.72.87-.07,1.78h44.02v-2.65ZM864.32,129.4h-3.19v2.66h3.19v-2.66ZM848.41,134.17h-43.22c-1.05,0-1.05,3.18,0,3.18h43.22v-3.18ZM864.32,134.17h-3.19v3.19h3.19v-3.19ZM848.41,151.67c-11.48-3.53-23.56-5.19-35.53-5.83l1.33,74.24h34.2v-68.41ZM785.3,156.44l-98.39.02-16.15-1.61.23,7.46c5.8,1.75,12.05,1.26,18.08,1.54,30.46,1.39,61.2.08,91.75.58l1.56-.56,2.92-7.42h0ZM798.56,161.76c-2.73-.3-7.94-4.84-10.26-4.28l-2.9,6.6c.16.84,6.16,3.98,6.84,3.81,1.62-1.93,4.31-3.43,5.97-5.03.43-.42.5-.35.34-1.09h0ZM862.18,158.56l-1.05.27v6.1l2.68-.23c.83-.56.55-2.12.27-2.98-.05-.17-1.76-3.02-1.9-3.15h0ZM807.04,175c.68-.71-5.19-9.18-6.09-10.53-.98-.08-5.77,4.08-6.03,5.08-.48,1.72,2.84,5.45,3.96,6.95l8.18-1.51h-.01ZM921.06,170.23c.02-1.15.28-2.45-.8-3.18h-59.13v3.18h59.93ZM921.06,172.35h-59.93v3.18h59.13c1.07-.73.82-2.04.8-3.18ZM673.4,202.05h16.44v12.99l-.8.8h-15.64v2.12h20.95l.71-.88c-.1-4.91,1.88-9.18,1.17-14.27-.17-1.24-.94-1.89-1.11-3.13-.14-.95-.11-6.19.25-6.69.39-.53,1.9-.47,2.72-1s1.17-1.79,1.85-2.42c9.94-9.29,22.64-11.62,33.88-2.6,1.63,1.32,3.6,4.38,4.52,5.04.83.59,1.87.31,2.31.59.81.53.81,5.91.66,7.07-.8,6.51-.93,6.09-.04,12.74.31,2.27.41,6.06-1.02,7.93.07,1.3,10.39.49,12.21,1.03.94.29,16.11,9.8,16.8,10.51l10.21,18.69v71.86h10.08v-140.8c0-.18-1.8-2.85-1.95-2.96-.52-.37-3.87-1.46-4.67-1.57-32.91,1.24-66.97-1.6-99.73,0-3.87.19-7.97,1.35-11.91,1.08,1.3,2.95.02,6.44.18,9.2.13,2.14,1.61,4.73,1.88,7.03.29,2.47-.08,5.14.05,7.64h.02ZM808.1,177.65l-8.48,1.59v215.84h8.48v-217.43ZM863.79,177.65h-2.65v42.42c.83.03,2.97.23,3.07-.8-.05-.24-.41-.41-.41-.53v-41.1ZM911.51,246.59v-50.11c0-1.79-6.78-6.48-8.47-7.43-9.86-5.57-22.22-6.68-33.28-8.1l-1.2.69v64.17l.8.8h42.16ZM734.39,194.62c-2.63-6.01-9.62-9.25-15.91-9.53l5.66,3.87,2.8,5.43,7.45.24h0ZM652.72,185.61h-4.25c.3,2.49-.2,4.89-.41,7.32-.05.6-.23,1.03.39,1.45l4.8.24-.53-9.02h0ZM664.39,185.61h-8.48v8.22l.8.8h8.75l-1.06-9.02ZM653.25,198.87c-7.35-1.09-7.34,4.28,0,3.19v-3.19ZM665.98,202.05l-.8-3.18h-8.75l-.5,2.32.76.86h9.28ZM719.54,199.4h-3.71v13.26h3.71v-13.26ZM734.39,199.4h-12.2v12.99c.74,1.21,1.13.27,1.33.27h10.87v-13.26ZM628.33,203.64h-7.95v2.65h7.95v-2.65ZM633.1,203.64h-3.19v2.66h3.19v-2.66ZM653.25,203.64h-5.31v2.66h5.31v-2.66ZM665.98,203.64h-9.55v2.65h8.22c.12,0,.29.36.53.41,1.03-.08.83-2.24.8-3.07ZM677.58,203.7l-4.18-.06v2.65l4.27-.25c.63-.31,0-2.26-.1-2.33ZM687.72,203.64h-7.95v2.65h7.95v-2.65ZM648.82,207.97c-2.97,3.03,1.77,4,4.2,2.61l-.28-2.45-3.92-.16h0ZM656.43,211.06h8.75c1.05,0,1.05-3.18,0-3.18h-8.48l-.67.77.4,2.41ZM628.33,208.41h-7.95v2.12h7.95v-2.12ZM633.1,208.41h-3.18l.04,2.08,2.62.34.52-2.42h0ZM678.18,208.42h-4.77v2.11l3.92.04.85-2.15ZM687.72,208.41h-7.95v2.12h7.69l.78-.8-.52-1.33ZM647.95,216.1v38.18c0,1.7,4.62-.21,5.3-1.06v-37.12c-.72-1.25-4.94-1.16-5.3,0ZM665.98,253.49v-37.39l-.8-.8h-8.75v38.18h9.55ZM719.54,217.43l-3.48.5-.17,4.22,3.65.59v-5.3h0ZM734.39,223.26c-.24-1.9.71-4.43-.8-5.83h-11.4v5.83h12.2ZM934.32,311.29v-82.46c0-1.77-4.67-6.63-6.63-6.63h-10.87v22.54c1.85,2.05,7.05-.51,8.4,1.68.87,1.41.88,11.56.63,13.71-.14,1.19-.39,2.1-1.34,2.91h-7.69v59.39h10.61v-11.14h6.89ZM848.41,223.79h-34.2c-1.05,0-1.05,3.18,0,3.18h34.2v-3.18ZM864.32,226.97l-.5-2.95-2.68-.23v3.19h3.18ZM721.62,227.56c-15.96-1.96-32.14-.81-48.22-1.11v6.89l29.98-.55,19.87,1.61-1.63-6.84ZM749.24,228.03h-23.86l.62,6.01.71.88h22.01l.53-6.89ZM753.22,228.57c-1.04,0-.95,6.09-1.09,7.4,5.46,3.33,8.4,8.32,11.95-.21l-10.86-7.19ZM848.41,228.56h-34.2c-1.05,0-1.05,3.18,0,3.18h34.2v-3.18ZM864.32,231.75l-.5-2.96h-2.2l-.5,2.96h3.19,0ZM766.28,251.82c1.38.22,6.86-.6,6.84-2.29l-6.13-10.88-4.49,5.57,3.77,7.62h.01ZM848.41,246.06c-10.67-2.59-22.86-5.64-33.92-5.61-.62,0-.69.03-1.08.57v66.29c.74,1.21,1.13.27,1.33.27h33.67v-61.52ZM719.54,257.2v-8.22l-.84-.74-2.87.48v8.48h3.71ZM734.39,248.18h-12.2v9.02h12.2v-9.02ZM755.6,322.43v-66.55c0-.25-2.25-3.87-2.62-4.27-3.25-3.45-8.34-3.77-12.76-3.42v74.24h15.38ZM921.06,250.31h-59.93v3.18h59.13c1.07-.73.82-2.04.8-3.18ZM696.21,252.43h-20.15l7.42,26.78v26.25h12.73c-.47-4.36.62-9.88.03-14.09-1.33-9.46,1.05-16.85-.01-25.97-.15-1.32-.92-2.16-1.05-3.19-.45-3.73.47-6.35,1.03-9.78ZM774.16,253.49c-2.12,1.05-6.81.67-6.93,3.42l.03,101.32.87,1.25,6.02.07v-106.06ZM921.06,255.08h-59.93v3.18h59.93v-3.18ZM671.28,257.2h-15.91l6.36,25.19-.29,89.6.82,1.08c.45.15.69-.28.8-.28h13.79c.17,0,.33.5.53.52l.53-.52c.59-.36-.27-.6-.27-.8v-92.8l-6.36-22.01h0ZM861.13,260.38v47.2l2.65.53c.15-12.53-.14-25.32-.02-37.95.01-1.54.6-2.85.6-4.22,0-1.75-.99-3.66-.57-5.57h-2.66ZM719.54,261.97h-3.71v21.21h3.71v-21.21ZM734.39,261.97h-12.2v21.21h12.2v-21.21ZM868.56,261.97v61.52h42.96v-45.87c-3.71-5.65-9.93-8.75-16.16-10.88-8.53-2.92-17.85-4-26.79-4.76ZM719.54,287.96h-3.71v21.21h3.71v-21.21ZM734.39,287.96h-12.2v21.21h12.2v-21.21ZM719.54,313.94h-3.71v21.21h3.71v-21.21ZM722.19,335.69c3.61-.81,7.76-.82,11.42-.13l.77-.67v-20.15l-.8-.8h-11.4v21.74ZM741.02,334.1h14.58v-5.83l-14.87.27c-.85.81-.86,5.22.29,5.58h0ZM791.66,334.1l-.24-5.33-11.91-.47-.04,5.8h12.2,0ZM814.2,334.1h115.34v-5.83l-115.64.23-.42.64c-.1,1.15-.5,4.59.72,4.96h0ZM791.66,338.34h-11.93l-.78.8.78.8h11.93v-1.59ZM929.54,338.34h-115.34l-.8,1.59h41.36v18.3c0,.15.54,1.24.89,1.35l2.82-.02v-18.83l.8-.8h70.27v-1.59ZM911.51,346.82h-42.96v11.93l.8.8h42.16v-12.73ZM929.28,363.26h-115.08c-1.19.72-1.12,4.5-.3,5.07l115.61.19.35-4.18-.57-1.08h-.01ZM929.54,373.34h-115.34l-.78.8.78.8h40.57v19.36c.86,1.2,2.42.75,3.71.8v-20.15h71.06v-1.59ZM912.57,381.82l-45.08.27v11.14c0,.53.3,1.52.8,1.86h44.28v-13.26Z"/>
  <g>
    <path class="st0" d="M468.02,143.82v-55.7h-34.08v240.25h34.08v-55.7h42.4v75.23c0,1.35-3.06,7.74-3.99,9.31-4.87,8.17-13.54,12.84-22.99,13.58-17.24,1.36-48.59,1.48-65.73,0-12.95-1.12-25.63-11.86-26.19-25.35V71.88c3.54-41.11,66.72-21.68,93.55-26.15,10.52-.04,25.36,13.34,25.36,23.68v73.15l-1.25,1.25h-41.16Z"/>
    <path class="st0" d="M190.36,143.82v-55.7h-34.08l.42,240.25h33.67v-55.7h42.4v74.4c0,12.37-15.62,22.83-26.99,23.72-17.24,1.36-48.59,1.48-65.73,0-13.43-1.16-25.89-12.34-26.19-26.18V71.04c1.14-13.15,11.29-22.76,23.95-25.11,22.14,1.05,46.93-2.15,68.77-.2,11.17,1,26.2,11.63,26.2,23.68v73.15l-1.25,1.25h-41.17Z"/>
    <path class="st0" d="M363.28,45.72v41.15l-1.25,1.25h-56.11v88.95h38.24l-.18,41.4c-2.42,1.7-27.64,1.07-32.69,1.04-1.27,0-6.2-1.52-6.2,1.21v106.41l1.25,1.25h59.02l1.25,1.25v39.9l-1.25,1.25h-101.83V45.72h99.76-.01Z"/>
    <polygon class="st0" points="42.39 328.36 90.61 328.36 90.61 370.76 0 370.76 0 45.72 41.15 45.72 42.39 46.97 42.39 328.36"/>
  </g>
  <path class="st0" d="M673.4,202.05c-.15-2.49.23-5.17-.05-7.64-.27-2.3-1.76-4.89-1.88-7.03-.16-2.77,1.11-6.25-.18-9.2,3.95.25,8.04-.9,11.91-1.08,32.77-1.6,66.83,1.25,99.73,0,.8.1,4.15,1.2,4.67,1.57.15.11,1.95,2.78,1.95,2.96v140.8h-10.08v-71.86l-10.21-18.69c-.7-.71-15.86-10.22-16.8-10.51-1.81-.54-12.13.28-12.21-1.03,1.43-1.87,1.33-5.66,1.02-7.93-.89-6.65-.75-6.23.04-12.74.14-1.17.15-6.53-.66-7.07-.45-.29-1.47,0-2.31-.59-.92-.66-2.88-3.72-4.52-5.04-11.23-9.03-23.94-6.68-33.88,2.6-.68.64-1.01,1.89-1.85,2.42s-2.32.46-2.72,1c-.36.5-.39,5.73-.25,6.69.17,1.24.94,1.89,1.11,3.13.71,5.08-1.26,9.35-1.17,14.27l-.71.88h-20.95v-2.12h15.64l.8-.8v-12.99h-16.46Z"/>
  <path class="st0" d="M911.51,246.59h-42.16l-.8-.8v-64.17l1.2-.69c11.06,1.42,23.43,2.55,33.28,8.1,1.7.95,8.47,5.64,8.47,7.43v50.11h0Z"/>
  <path class="st0" d="M848.41,151.67v68.41h-34.2l-1.33-74.24c11.97.66,24.05,2.31,35.53,5.83Z"/>
  <path class="st0" d="M868.56,261.97c8.94.76,18.26,1.85,26.79,4.76,6.24,2.13,12.45,5.22,16.16,10.88v45.87h-42.96v-61.52Z"/>
  <path class="st0" d="M911.51,163.87h-42.16l-.8-.8v-57.54c11.89.58,27.42,2.56,37.29,9.64,1.34.95,5.66,4.47,5.66,6v42.69Z"/>
  <path class="st0" d="M848.41,246.06v61.52h-33.67c-.19,0-.58.94-1.33-.27v-66.29c.39-.54.47-.57,1.08-.57,11.05-.02,23.24,3.02,33.92,5.61Z"/>
  <path class="st0" d="M671.28,257.2l6.36,22.01v92.8c0,.19.87.43.27.8l-.53.52c-.2-.02-.36-.52-.53-.52h-13.79c-.11,0-.36.42-.8.28l-.82-1.08.29-89.6-6.36-25.19h15.91Z"/>
  <polygon class="st0" points="808.1 177.65 808.1 395.08 799.62 395.08 799.62 179.24 808.1 177.65"/>
  <path class="st0" d="M934.32,311.29h-6.89v11.14h-10.61v-59.39h7.69c.94-.81,1.2-1.72,1.34-2.91.25-2.14.24-12.3-.63-13.71-1.35-2.18-6.55.37-8.4-1.68v-22.54h10.87c1.96,0,6.63,4.86,6.63,6.63v82.46h0Z"/>
  <path class="st0" d="M755.6,322.43h-15.38v-74.24c4.41-.35,9.5-.03,12.76,3.42.38.4,2.62,4.02,2.62,4.27v66.55Z"/>
  <path class="st0" d="M858.48,325.08l-3.21-.23-.52-1.6c.23-68.07-.21-136.15,0-204.22.06-21.98,1.75-44.85.02-66.79-.35-4.51-.83-13.41-5.83-14.86-.27-1.53,2.51-.64,3.1-.43,3.43,1.18,6.45,7.8,6.45,11.05v277.09h0Z"/>
  <path class="st0" d="M848.41,101.82v23.86h-35.53v-29.7c12.01.84,24,2.32,35.53,5.83Z"/>
  <rect class="st0" x="655.9" y="67.88" width="7.95" height="112.96"/>
  <path class="st0" d="M785.3,156.44l-2.92,7.42-1.56.56c-30.56-.5-61.29.81-91.75-.58-6.03-.28-12.29.22-18.08-1.54l-.23-7.46,16.15,1.61,98.39-.02h0Z"/>
  <path class="st0" d="M696.21,252.43c-.57,3.43-1.48,6.06-1.03,9.78.13,1.04.89,1.89,1.05,3.19,1.06,9.12-1.32,16.51.01,25.97.59,4.2-.49,9.73-.03,14.09h-12.73v-26.25l-7.42-26.78h20.15Z"/>
  <path class="st0" d="M774.16,253.49v106.06l-6.02-.07-.87-1.25-.03-101.32c.12-2.76,4.79-2.38,6.93-3.42Z"/>
  <path class="st0" d="M814.2,334.1c-1.22-.37-.82-3.82-.72-4.96l.42-.64,115.64-.23v5.83h-115.34Z"/>
  <path class="st0" d="M929.28,363.26l.57,1.08-.35,4.18-115.61-.19c-.83-.57-.89-4.35.3-5.07h115.09Z"/>
  <path class="st0" d="M912.57,381.82v13.26h-44.28c-.5-.34-.8-1.33-.8-1.86v-11.14l45.08-.27Z"/>
  <polygon class="st0" points="911.51 346.82 911.51 359.55 869.35 359.55 868.56 358.75 868.56 346.82 911.51 346.82"/>
  <path class="st0" d="M652.72,180.84l-3.36-.08-.88-.71v-111.37c1.03-1.24,3.29-1.19,4.24,0v112.16Z"/>
  <path class="st0" d="M848.41,64.17v15.38h-33.41c1.65-4,6.44-8.1,10.12-10.3,3.01-1.8,10.68-5.08,14.01-5.08h9.28Z"/>
  <polygon class="st0" points="665.98 253.49 656.43 253.49 656.43 215.31 665.18 215.31 665.98 216.1 665.98 253.49"/>
  <path class="st0" d="M721.62,227.56l1.63,6.84-19.87-1.61-29.98.55v-6.89c16.07.31,32.24-.85,48.21,1.11h.01Z"/>
  <path class="st0" d="M909.39,90.68h-38.71c7.9-11.39,23.77-13.31,34.72-4.76,1.32,1.03,3.56,3.16,3.99,4.76Z"/>
  <path class="st0" d="M722.19,335.69v-21.74h11.4l.8.8v20.15l-.77.67c-3.66-.69-7.83-.68-11.42.13Z"/>
  <rect class="st0" x="722.19" y="287.96" width="12.2" height="21.21"/>
  <rect class="st0" x="722.19" y="261.97" width="12.2" height="21.21"/>
  <path class="st0" d="M929.54,373.34v1.59h-71.06v20.15c-1.29-.04-2.85.4-3.71-.8v-19.36h-40.57l-.78-.8.78-.8h115.34Z"/>
  <path class="st0" d="M929.54,338.34v1.59h-70.27l-.8.8v18.83l-2.82.02c-.35-.11-.89-1.2-.89-1.35v-18.3h-41.36l.8-1.59h115.34Z"/>
  <path class="st0" d="M647.95,216.1c.36-1.16,4.58-1.25,5.3,0v37.12c-.68.85-5.3,2.76-5.3,1.06v-38.18Z"/>
  <path class="st0" d="M862.19,98.64c.05-1.43-.56-3.5,1.33-3.71l53.05-.39c1.09.19,1.13,3.81.24,4.41-.38.32-.67-.31-.81-.31h-53.83s.01,0,.01,0Z"/>
  <rect class="st0" x="861.13" y="255.08" width="59.93" height="3.18"/>
  <path class="st0" d="M921.06,250.31c.02,1.15.28,2.45-.8,3.18h-59.13v-3.18h59.93Z"/>
  <path class="st0" d="M921.06,170.23h-59.93v-3.18h59.13c1.07.73.82,2.04.8,3.18Z"/>
  <path class="st0" d="M921.06,172.35c.02,1.15.28,2.45-.8,3.18h-59.13v-3.18h59.93Z"/>
  <path class="st0" d="M848.41,83.79v4.24h-41.1c-1.24-1.03-1.19-3.29,0-4.24h41.1Z"/>
  <path class="st0" d="M734.39,199.4v13.26h-10.87c-.19,0-.58.94-1.33-.27v-12.99h12.2Z"/>
  <polygon class="st0" points="749.24 228.03 748.71 234.93 726.7 234.93 725.99 234.05 725.37 228.03 749.24 228.03"/>
  <path class="st0" d="M848.41,134.17v3.18h-43.22c-1.05,0-1.05-3.18,0-3.18h43.22Z"/>
  <path class="st0" d="M861.13,260.38h2.65c-.41,1.91.57,3.82.57,5.57,0,1.36-.58,2.68-.6,4.22-.12,12.63.17,25.42.02,37.95l-2.65-.53v-47.2h.01Z"/>
  <polygon class="st0" points="848.41 129.4 848.41 132.05 804.39 132.05 804.47 130.27 805.19 129.4 848.41 129.4"/>
  <path class="st0" d="M863.79,177.65v41.1c0,.12.36.29.41.53-.08,1.03-2.24.83-3.07.8v-42.42h2.65Z"/>
  <path class="st0" d="M848.41,228.56v3.18h-34.2c-1.05,0-1.05-3.18,0-3.18h34.2Z"/>
  <path class="st0" d="M848.41,223.79v3.18h-34.2c-1.05,0-1.05-3.18,0-3.18h34.2Z"/>
  <rect class="st0" x="722.19" y="248.18" width="12.2" height="9.02"/>
  <path class="st0" d="M663.86,51.97v11.14l-7.95.53v-10.34c0-.19-.94-.58.27-1.33h7.69Z"/>
  <path class="st0" d="M741.02,334.1c-1.16-.36-1.15-4.76-.29-5.58l14.87-.27v5.83h-14.58Z"/>
  <path class="st0" d="M807.04,175l-8.18,1.51c-1.1-1.5-4.42-5.23-3.96-6.95.28-1,5.06-5.17,6.03-5.08.9,1.34,6.77,9.82,6.09,10.53h.01Z"/>
  <polygon class="st0" points="664.39 185.61 665.45 194.62 656.7 194.62 655.9 193.83 655.9 185.61 664.39 185.61"/>
  <path class="st0" d="M753.22,228.57l10.86,7.19c-3.55,8.54-6.49,3.55-11.95.21.14-1.32.05-7.4,1.09-7.4Z"/>
  <path class="st0" d="M798.56,161.76c.16.74.1.68-.34,1.09-1.68,1.6-4.35,3.1-5.97,5.03-.69.16-6.68-2.97-6.84-3.81l2.9-6.6c2.31-.56,7.53,3.99,10.26,4.28h0Z"/>
  <path class="st0" d="M766.28,251.82l-3.77-7.62,4.49-5.57,6.13,10.88c.02,1.7-5.46,2.51-6.84,2.29h-.01Z"/>
  <rect class="st0" x="715.83" y="261.97" width="3.71" height="21.21"/>
  <rect class="st0" x="715.83" y="287.96" width="3.71" height="21.21"/>
  <rect class="st0" x="715.83" y="313.94" width="3.71" height="21.21"/>
  <polygon class="st0" points="791.66 334.1 779.47 334.1 779.51 328.29 791.42 328.76 791.66 334.1"/>
  <path class="st0" d="M734.39,223.26h-12.2v-5.83h11.4c1.51,1.4.55,3.93.8,5.83Z"/>
  <path class="st0" d="M871.74,79.55h-10.61v-10.08c4.19,1.7,8.69,5.94,10.61,10.08Z"/>
  <path class="st0" d="M734.39,194.62l-7.45-.24-2.8-5.43-5.66-3.87c6.29.3,13.27,3.52,15.91,9.53h0Z"/>
  <rect class="st0" x="715.83" y="199.4" width="3.71" height="13.26"/>
  <path class="st0" d="M845.22,60.46h-7.42c1.6-3.96,4.19-8.4,7.94-10.61l-.52,10.61Z"/>
  <rect class="st0" x="648.48" y="51.97" width="4.24" height="11.14"/>
  <path class="st0" d="M861.13,125.68v-16.97c5.25,3.02,1.24,11.17,3.04,16.2l-3.04.77Z"/>
  <path class="st0" d="M652.72,185.61l.53,9.02-4.8-.24c-.64-.42-.45-.85-.39-1.45.21-2.44.71-4.84.41-7.32h4.25Z"/>
  <path class="st0" d="M870.68,83.79c-1.27,4.9-5.17,4.49-9.55,4.24v-4.24h9.55Z"/>
  <polygon class="st0" points="719.54 257.2 715.83 257.2 715.83 248.72 718.7 248.24 719.54 248.98 719.54 257.2"/>
  <polygon class="st0" points="665.98 202.05 656.7 202.05 655.94 201.19 656.43 198.87 665.18 198.87 665.98 202.05"/>
  <path class="st0" d="M656.43,211.06l-.4-2.41.67-.77h8.48c1.05,0,1.05,3.18,0,3.18h-8.75Z"/>
  <path class="st0" d="M665.98,203.64c.03.83.23,2.97-.8,3.07-.24-.05-.41-.41-.53-.41h-8.22v-2.65h9.55Z"/>
  <rect class="st0" x="679.77" y="203.64" width="7.95" height="2.65"/>
  <rect class="st0" x="620.37" y="203.64" width="7.95" height="2.65"/>
  <polygon class="st0" points="791.66 338.34 791.66 339.93 779.73 339.93 778.95 339.13 779.73 338.34 791.66 338.34"/>
  <polygon class="st0" points="719.54 217.43 719.54 222.73 715.89 222.15 716.06 217.93 719.54 217.43"/>
  <polygon class="st0" points="687.72 208.41 688.24 209.74 687.46 210.53 679.77 210.53 679.77 208.41 687.72 208.41"/>
  <rect class="st0" x="620.37" y="208.41" width="7.95" height="2.12"/>
  <path class="st0" d="M653.25,198.87v3.19c-7.34,1.09-7.35-4.28,0-3.19Z"/>
  <path class="st0" d="M648.82,207.97l3.92.16.28,2.45c-2.43,1.39-7.17.42-4.2-2.61h0Z"/>
  <path class="st0" d="M862.18,158.56c.14.12,1.85,2.97,1.9,3.15.29.86.55,2.42-.27,2.98l-2.68.23v-6.1l1.05-.27h0Z"/>
  <rect class="st0" x="647.95" y="203.64" width="5.31" height="2.66"/>
  <path class="st0" d="M677.58,203.7c.08.08.72,2.03.1,2.33l-4.27.25v-2.65l4.18.06Z"/>
  <rect class="st0" x="861.13" y="134.17" width="3.19" height="3.19"/>
  <polygon class="st0" points="864.32 226.97 861.13 226.97 861.13 223.79 863.82 224.02 864.32 226.97"/>
  <polygon class="st0" points="864.32 231.75 861.13 231.75 861.62 228.79 863.83 228.79 864.32 231.75"/>
  <polygon class="st0" points="678.18 208.42 677.33 210.56 673.4 210.53 673.4 208.41 678.18 208.42"/>
  <rect class="st0" x="629.92" y="203.64" width="3.19" height="2.66"/>
  <rect class="st0" x="861.13" y="129.4" width="3.19" height="2.66"/>
  <polygon class="st0" points="633.1 208.41 632.58 210.83 629.96 210.49 629.92 208.41 633.1 208.41"/>
</svg>