<?xml version="1.0" encoding="UTF-8"?>
<svg id="Layer_1" xmlns="http://www.w3.org/2000/svg" version="1.1" viewBox="0 0 162.97 44.01">
  <!-- Generator: Adobe Illustrator 29.1.0, SVG Export Plug-In . SVG Version: 2.1.0 Build 142)  -->
  <defs>
    <style>
      .st0 {
        fill: none;
      }

      .st1 {
        fill: #fff;
      }
    </style>
  </defs>
  <path class="st0" d="M39.01,12.26h.02c0-1.33.03-2.66,0-3.99C38.8-1.43,40.78.34,30.49.01c-2.47-.08-3.55,1.03-4.47,3-1.77,3.75-3.67,7.44-5.56,11.13-.27.52-.77.92-1.17,1.37-.42-.49-.95-.91-1.24-1.47-1.98-3.84-3.93-7.69-5.82-11.56-.62-1.27-1.32-2.35-2.87-2.38C6.87.06,4.36-.03,1.88.18,1.22.24.14,1.34.13,1.98,0,8.63.05,15.28.04,21.93c0,1.43.68,2.14,2.11,2.12.67,0,1.33.04,2,0,2.68-.1,2.81-.16,2.87-2.87.08-3.49-.01-6.98.05-10.47.01-.68.43-1.36.66-2.04.43.47.99.87,1.27,1.41,1.98,3.83,3.98,7.66,5.81,11.57.82,1.75,2,2.33,3.88,2.47,3.01.22,4.98-.65,6.22-3.62,1.6-3.82,3.62-7.46,5.49-11.17.29-.57.73-1.06,1.11-1.59.17.72.42,1.44.49,2.17.08.99.02,1.99.02,2.99,0,2.33-.02,4.66,0,6.98.05,4.19.4,4.45,4.58,4.2,1.62-.1,2.46-.63,2.43-2.36-.05-3.16,0-6.32,0-9.48h-.01ZM39.03,35.43h-.03c0-2.16.15-4.34-.09-6.48-.07-.68-1.12-1.75-1.77-1.79-4.79-.3-9.79-.98-12.87,4.12-.08.14-.23.24-.35.35-1.47,1.33-2.94,3.71-4.4,3.71s-2.98-2.33-4.39-3.72c-3.23-3.2-7.15-4.72-11.74-4.57-.33,0-.67.03-1,0-1.71-.1-2.38.75-2.37,2.4.04,3.66-.06,7.32.03,10.98.06,2.47.41,2.64,3.63,2.61,3.11-.03,3.21-.12,3.37-2.91.1-1.81.21-3.61.32-5.42,1.48,1.2,3.03,2.31,4.4,3.62.95.9,1.59,2.1,2.47,3.08.53.59,1.22,1.41,1.88,1.45,3.08.19,6.36,1.08,8.71-2.08.79-1.06,1.81-1.96,2.81-2.83,1.31-1.13,2.71-2.16,4.07-3.23.11,1.64.24,3.28.31,4.92.14,3.32.18,3.37,3.38,3.4,3.42.03,3.55-.09,3.64-3.63.03-1.33,0-2.66,0-3.99h-.01ZM85.99,11.67h-.01c0,3.32.03,6.63-.01,9.95-.02,1.6.56,2.4,2.3,2.48,3.19.14,3.61-.18,3.71-3.55.03-.83-.03-1.66.01-2.49.13-2.8.14-2.83,2.77-2.95,1.49-.07,2.99-.02,4.48-.01,6.26.03,6.35.11,6.73,6.16.16,2.58.39,2.8,2.93,2.82,2.6.02,3.09-.25,3.03-2.67-.06-2.4.86-4.99-1.13-7.15-.25-.28.03-1.13.19-1.67.4-1.4,1.08-2.75,1.27-4.17.62-4.6-1.83-8.06-6.26-8.26-5.96-.27-11.94-.06-17.91-.07-1.44,0-2.1.71-2.1,2.13.01,3.15,0,6.3,0,9.45ZM115.66,11.86l.34.05c0,1.49-.15,3,.03,4.47.61,4.93,2.69,6.56,7.48,7.8,4.66,1.2,9.09.77,13.63-.11,3.78-.74,4.89-2.24,5.94-6.09,1.12-4.13.91-8.05-.04-12.14-.84-3.58-2.52-5.54-6.26-5.7-4.47-.19-8.95-.17-13.42-.01-3.65.13-5.55,1.73-6.61,5.48-.57,2.03-.74,4.17-1.08,6.26h-.01ZM68.88.08h0c-2.16,0-4.33-.11-6.49.03-4.32.28-7.16,2.49-7.34,6-.21,3.98-.15,7.98-.01,11.97.1,2.98,1.85,4.96,4.67,5.77,5.85,1.67,11.75,1.59,17.59-.03,1.23-.34,2.38-1.18,3.38-2.01,1.31-1.09,2.02-5.1.93-5.91-.93-.68-2.46-.82-3.68-.72-.68.06-1.75,1.05-1.83,1.71-.27,2.29-1.4,3.21-3.61,3.17-2.83-.05-5.66-.01-8.49-.02-1.5,0-2.4-.7-2.96-2.15-1.24-3.21-1.27-6.52-.85-9.8.31-2.42,2.18-3.78,5.01-3.94,2.49-.14,4.99-.02,7.49-.04,1.68,0,2.85.56,3.27,2.37.2.87.59,2.1,1.23,2.36,1,.41,2.32.33,3.41.07.55-.13,1.26-1.1,1.29-1.72.2-4.22-2.25-6.86-6.52-7.09-2.16-.12-4.33-.02-6.49-.02ZM50,12.29c0-3.33-.03-6.66,0-9.99.03-2.22-1.45-2.23-3.04-2.24-1.63-.01-2.99.12-2.97,2.31.05,6.49.04,12.98,0,19.47,0,2.22,1.45,2.23,3.04,2.24,1.63,0,3.01-.12,2.97-2.31-.06-3.16-.02-6.32-.02-9.49h.01ZM119.89,35.3h.09v-5.97c0-1.04-.16-2.18-1.45-2.1-.56.03-1.31.87-1.54,1.5-.79,2.16-1.34,4.4-2.07,6.58-.17.52-.68.92-1.04,1.38-.29-.52-.67-1.02-.86-1.58-.72-2.19-1.29-4.42-2.1-6.57-.22-.58-1.1-.9-1.68-1.34-.42.62-1.16,1.22-1.19,1.85-.14,2.98-.16,5.97-.05,8.94.06,1.57.47,3.13.72,4.7,2.33-1.02.83-3.12,1.29-4.66.14-.46.27-.92.4-1.39.21.42.48.82.63,1.27.38,1.09.59,2.25,1.11,3.26.34.66,1.25,1.66,1.64,1.55.8-.23,1.7-.96,2.05-1.72.77-1.65,1.23-3.44,1.82-5.18.11,1.8.22,3.59.34,5.39,0,.16,0,.37.08.48.27.35.59.66.89.98.31-.31.88-.61.9-.93.08-2.15.04-4.3.04-6.46l-.02.02ZM132.95,34.93h.02c0,1.43-.05,2.86-.02,4.29,0,.6-.06,1.36.13,1.94.19.59.72,1.02,1.05,1.53.34-.64.73-1.06.81-1.8.09-.78.05-1.6.05-2.39,0-1.65-.04-3.19.36-4.79.94,1.59,1.56,3.33,2.25,5.05.5,1.25.86,3.13,2.04,3.95,1,.69,2.26.3,2.83-.72.78-1.39.51-3.32.53-4.85.02-1.92,0-3.85-.03-5.77-.02-1.31.08-3.16-1.37-3.73-1.64-.64-1.56,1.25-1.58,2.41-.04,1.84-.06,3.55-.39,5.36-.57-.71-1.07-1.25-1.42-2.12-.35-.88-.64-1.78-1-2.65-.48-1.15-1.38-3.11-2.79-3.34-1.35-.22-1.44,1.1-1.43,2.07,0,1.85,0,3.7,0,5.56h-.03ZM71.97,31.54c-.02-2.38-1.33-4.02-3.39-4.43-2.64-.53-4.29.52-5.24,3.31-.77,2.27-.05,4.51,1.87,5.54,1.01.54,2.32.71,3.07,1.47.54.54.46,1.79.45,2.72,0,.26-.9.82-1.1.71-.62-.34-1.14-.9-1.63-1.44-.2-.22-.13-.72-.34-.9-.44-.37-1.14-.96-1.46-.82-.5.21-.98.91-1.09,1.48-.48,2.38,1.22,4.36,3.91,4.74,1.93.27,4.74-1.45,4.87-3.3.13-1.77.21-3.8-.54-5.28-.45-.89-2.54-.95-3.89-1.39-.3-.1-.8-.22-.84-.4-.17-.91-.42-1.89-.2-2.73.08-.31,1.49-.6,2.07-.36.67.28,1.05,1.2,1.65,1.73.31.27.95.55,1.22.4.35-.19.47-.79.62-1.06h-.01ZM85.97,35.16h.08c0,2.14-.04,4.29.04,6.43.01.37.49.73.76,1.1.35-.26.84-.46,1.01-.81.2-.42.15-.97.16-1.46.02-1.25.22-2.3,1.84-2.34,1.46-.04,2.12.63,2.12,2.06,0,.33.02.66.04.99.07,1.12.51,2.07,1.76,1.68.54-.17,1.13-1.17,1.15-1.81.12-3.24.19-6.49.03-9.72-.15-3.17-1.95-4.35-5.91-4.22-2.01.07-3.03,1.45-3.07,4.15-.02,1.32,0,2.64,0,3.96h-.01ZM83.01,34.87h-.1c0-2.16.04-4.32-.04-6.47-.01-.34-.56-.65-.87-.98-.31.32-.88.62-.89.95-.11,2.49-.09,4.98-.15,7.47-.03,1.16.14,2.42-.28,3.43-.31.73-1.38,1.49-2.19,1.59-1.29.16-1.47-1.02-1.48-2.07-.01-2.16.03-4.32-.04-6.48-.04-1.31-.13-2.64-.45-3.9-.12-.45-.98-.98-1.49-.97-.35,0-.97.87-.98,1.37-.09,3.49-.13,6.98-.05,10.46.06,2.7,2.19,4.76,4.63,4.69,2.81-.08,4.31-1.64,4.37-4.61.03-1.49,0-2.99,0-4.48h.01ZM162.97,39.12c.01-2.39-1.34-4.13-4.07-5.23-.45-.18-1.03-.43-1.2-.8-.3-.7-.69-1.73-.39-2.22.3-.5,1.58-.89,2.11-.65.74.34,1.1,1.42,1.78,1.98.3.25,1.01,0,1.53-.02-.12-1.26.21-2.91-.47-3.7-1.19-1.39-3.07-1.93-4.99-1.07-1.22.55-2.45,1.1-2.33,2.8.11,1.65-.34,3.56.36,4.87.55,1.02,2.49,1.31,3.82,1.9.3.13.88.13.92.28.24,1.01.36,2.06.52,3.09-1.05.04-2.18.35-3.1.02-.51-.18-.61-1.42-.97-2.15-.13-.25-.65-.6-.74-.54-.32.22-.76.61-.75.92.05,1.72-.71,3.63,1.58,4.74,3.56,1.73,6.37-.06,6.39-4.23h0ZM42,34.64h.03c0,1.52-.05,3.04-.02,4.56.02,1.1-.08,2.31.69,3.2.74.84,2.35.51,3.37.48.78-.03,3.12.25,3.46-.56.71-1.68-3.36-1.04-4.1-1.93-.47-.57-.5-1.63-.24-2.3.27-.69.88-.93,1.57-1.02.75-.1,1.59-.06,2.23-.54.42-.31.87-1.19.49-1.68-.38-.49-1.59-.54-2.15-.67-.94-.22-1.21-.29-1.75-1.15-.59-.94-.47-1.75.41-2.49.83-.7,1.79-.26,2.72-.62.72-.28,1.33-1.23.98-1.99-.42-.92-1.52-.66-2.37-.68-1.18-.03-2.36-.05-3.53.14-.94.15-1.28.24-1.47,1.18-.4,1.98-.33,4.08-.33,6.08h.01ZM96.98,35.55c0,1.84-.08,3.7.06,5.54.06.73.13,1.46.9,1.74,1.1.41,2.55.21,3.68.16,1.19-.05,2.43.38,3.01-1-1.08-.37-2.15-.72-3.25-1.06-.76-.23-1.22-.7-1.33-1.5-.1-.72.02-1.62.66-2.06.61-.43,1.52-.32,2.24-.36,1.22-.07,2.48-.79,1.73-2.26-.56-1.08-2.43-.63-3.41-.88-1.26-.32-1.58-1.86-1.01-2.94.8-1.52,2.93-.35,4.11-1.25.55-.42.65-1.34.29-1.92-.3-.49-.84-.61-1.38-.66-1.45-.15-3.23-.22-4.63.23-.98.32-1.37,1.07-1.53,2.04-.34,2.02-.13,4.14-.13,6.18h-.01ZM61.93,42.02c-1.42-4.82-2.79-9.54-4.24-14.24-.1-.31-.9-.68-1.22-.57-.53.18-1.22.65-1.35,1.13-1.2,4.43-2.31,8.89-3.4,13.35-.09.37.17.82.27,1.23.59-.2,1.46-.23,1.7-.63.56-.96.62-2.22,2.21-2.23,1.58,0,3,0,3.34,2.06.06.34,1.01.67,1.58.74.31.04.68-.5,1.11-.84ZM122.95,35.07v2.48c0,5.77.46,6.18,6.21,5.44.52-.07.97-.63,1.45-.97-.48-.33-.93-.8-1.46-.95-.62-.17-1.32-.09-1.98-.08-1.39.02-2.18-.54-2.13-2.05.04-1.19.57-1.83,1.78-1.89.66-.03,1.4.06,1.95-.21.48-.24,1.04-.92,1.02-1.39-.02-.46-.65-1.11-1.14-1.29-.75-.27-1.75,0-2.41-.35-.56-.31-1.12-1.22-1.1-1.84.02-.62.64-1.53,1.21-1.74.89-.33,1.98-.06,2.94-.26.52-.11,1.07-.61,1.34-1.08.12-.2-.38-1.12-.66-1.15-2.07-.21-4.19-.49-6.22-.22-.42.05-.65,2.3-.77,3.56-.13,1.31-.03,2.65-.03,3.97v.02ZM148.33,27.07h0c-.66,0-1.38-.17-1.97.03-.81.28-1.53.85-2.29,1.29.47.56.83,1.42,1.42,1.63,1.47.52,1.44,1.61,1.45,2.77,0,2.31-.05,4.62.03,6.92.04,1.2-.56,3.02,1.38,3.15,2.03.13,1.55-1.71,1.59-2.92.07-2.31.02-4.62.03-6.92,0-1.33-.09-2.62,1.7-3.09.49-.13.75-1.16,1.11-1.78-.66-.36-1.28-.87-1.99-1.03-.78-.18-1.64-.04-2.47-.04h.01ZM156.44,22.99c1.66,0,3.33.07,4.99-.02,1.29-.07,1.68-1.11,1.41-2.14-.17-.64-.9-1.6-1.41-1.62-3.32-.15-6.65-.14-9.97,0-.51.02-1.25.97-1.41,1.61-.27,1.02.11,2.07,1.41,2.14,1.66.09,3.32.02,4.99.02h-.01ZM156.45,6.01c1.66,0,3.34.14,4.98-.08.55-.07,1.24-.98,1.41-1.62.27-1.03-.12-2.1-1.41-2.13-3.32-.08-6.65-.1-9.97.05-.51.02-1.24.98-1.41,1.62-.27,1.03.12,2.06,1.41,2.14,1.66.1,3.32.02,4.99.02ZM156.64,13.98h0c1.64.01,3.28.1,4.91-.05.46-.04,1.14-.74,1.19-1.2.06-.46-.53-1.43-.85-1.44-3.6-.11-7.2-.12-10.79-.02-.36,0-.99.92-.96,1.38.02.46.68,1.24,1.11,1.27,1.79.14,3.6.06,5.4.06h0Z"/>
  <path class="st1" d="M39.01,12.26c0,3.16-.04,6.32,0,9.48.03,1.72-.81,2.26-2.43,2.36-4.18.25-4.53,0-4.58-4.2-.03-2.33,0-4.65,0-6.98,0-1,.06-2-.02-2.99-.06-.73-.32-1.45-.49-2.17-.37.53-.82,1.02-1.11,1.59-1.87,3.7-3.89,7.35-5.49,11.17-1.24,2.97-3.21,3.84-6.22,3.62-1.87-.13-3.05-.71-3.88-2.47-1.83-3.9-3.83-7.73-5.81-11.57-.28-.54-.84-.94-1.27-1.41-.23.68-.65,1.36-.66,2.04-.07,3.49.02,6.98-.05,10.47-.06,2.71-.19,2.77-2.87,2.87-.66.02-1.33-.02-2,0-1.44.02-2.12-.69-2.11-2.12C.04,15.29,0,8.64.12,1.99c.01-.64,1.09-1.74,1.75-1.8C4.35-.03,6.85.07,9.35.11c1.55.02,2.25,1.11,2.87,2.38,1.89,3.88,3.85,7.73,5.82,11.56.29.55.82.98,1.24,1.47.39-.45.9-.85,1.17-1.37,1.89-3.69,3.8-7.38,5.56-11.13C26.94,1.05,28.02-.06,30.48.02c10.29.34,8.31-1.44,8.54,8.26.03,1.33,0,2.66,0,3.99h-.02,0Z"/>
  <path class="st1" d="M39.03,35.43c0,1.33.03,2.66,0,3.99-.09,3.54-.21,3.66-3.64,3.63-3.21-.03-3.24-.08-3.38-3.4-.07-1.64-.2-3.28-.31-4.92-1.36,1.07-2.76,2.1-4.07,3.23-1,.87-2.03,1.77-2.81,2.83-2.34,3.16-5.63,2.27-8.71,2.08-.66-.04-1.35-.86-1.88-1.45-.88-.98-1.52-2.18-2.47-3.08-1.37-1.3-2.93-2.42-4.4-3.62-.11,1.81-.22,3.61-.32,5.42-.16,2.79-.26,2.88-3.37,2.91-3.22.03-3.57-.14-3.63-2.61-.09-3.66,0-7.32-.03-10.98-.02-1.65.66-2.5,2.37-2.4.33.02.67,0,1,0,4.6-.17,8.51,1.36,11.74,4.57,1.41,1.39,2.92,3.72,4.39,3.72s2.93-2.37,4.4-3.71c.12-.11.27-.22.35-.35,3.08-5.1,8.08-4.42,12.87-4.12.65.04,1.7,1.11,1.77,1.79.23,2.14.09,4.32.09,6.48h.04Z"/>
  <path class="st1" d="M85.99,11.67V2.22c0-1.42.66-2.13,2.1-2.13,5.97,0,11.95-.2,17.91.07,4.43.2,6.89,3.66,6.26,8.26-.19,1.42-.87,2.77-1.27,4.17-.16.55-.44,1.4-.19,1.67,1.98,2.16,1.07,4.76,1.13,7.15.06,2.42-.43,2.69-3.03,2.67-2.54-.02-2.77-.24-2.93-2.82-.39-6.05-.48-6.14-6.73-6.16-1.49,0-2.99-.05-4.48.01-2.63.12-2.63.15-2.77,2.95-.04.83.01,1.66-.01,2.49-.1,3.37-.52,3.69-3.71,3.55-1.73-.07-2.31-.87-2.3-2.48.04-3.32.01-6.63.01-9.95h.01ZM98.49,11.06c2.85,0,7.26.65,8.3-2.93.29-1,.17-2.09-.57-2.85-.99-1.02-2.52-1.08-3.85-1.14-1.83-.09-3.66-.09-5.49-.05-1.44.04-3.19-.24-4.25.92-.94,1.03-1.33,3.98-.28,5.12,1.32,1.42,4.48.94,6.15.93h-.01Z"/>
  <path class="st1" d="M115.66,11.86c.35-2.09.51-4.23,1.08-6.26,1.06-3.75,2.96-5.36,6.61-5.48,4.47-.15,8.95-.18,13.42.01,3.74.16,5.42,2.12,6.26,5.7.95,4.08,1.16,8.01.04,12.14-1.05,3.86-2.16,5.35-5.94,6.09-4.54.89-8.97,1.32-13.63.11-4.79-1.24-6.87-2.87-7.48-7.8-.18-1.47-.03-2.98-.03-4.47l-.34-.05h.01ZM129.97,4.1c-7.1-.37-8.1.7-8.07,8.22.02,6.76.93,7.86,8.06,7.83,7.07-.03,8.1-.76,8.07-8.31-.02-6.78-.94-8.16-8.06-7.74h0Z"/>
  <path class="st1" d="M68.88.08c2.16,0,4.33-.1,6.49.02,4.27.23,6.72,2.87,6.52,7.09-.03.62-.74,1.58-1.29,1.72-1.09.26-2.42.34-3.41-.07-.64-.26-1.02-1.49-1.23-2.36-.42-1.81-1.59-2.38-3.27-2.37-2.5.01-5-.1-7.49.04-2.83.16-4.7,1.52-5.01,3.94-.42,3.29-.39,6.6.85,9.8.56,1.46,1.46,2.14,2.96,2.15,2.83.01,5.66-.03,8.49.02,2.21.04,3.34-.88,3.61-3.17.08-.67,1.15-1.66,1.83-1.71,1.22-.1,2.75.04,3.68.72,1.09.8.38,4.81-.93,5.91-1,.84-2.16,1.67-3.38,2.01-5.84,1.62-11.74,1.7-17.59.03-2.82-.81-4.57-2.79-4.67-5.77-.14-3.99-.2-7.99.01-11.97.18-3.51,3.02-5.72,7.34-6,2.15-.14,4.33-.02,6.49-.02h0Z"/>
  <path class="st1" d="M50,12.29c0,3.16-.04,6.32.02,9.49.04,2.19-1.34,2.32-2.97,2.31-1.58,0-3.05-.02-3.04-2.24.03-6.49.04-12.98,0-19.47-.02-2.19,1.34-2.32,2.97-2.31,1.58.01,3.06.02,3.04,2.24-.04,3.33,0,6.66,0,9.99h-.02Z"/>
  <path class="st1" d="M119.89,35.3c0,2.15.04,4.31-.04,6.46,0,.32-.58.62-.9.93-.3-.32-.62-.64-.89-.98-.09-.11-.07-.32-.08-.48-.11-1.8-.23-3.59-.34-5.39-.59,1.73-1.04,3.53-1.82,5.18-.36.76-1.25,1.49-2.05,1.72-.38.11-1.29-.88-1.64-1.55-.52-1.01-.73-2.18-1.11-3.26-.15-.44-.42-.84-.63-1.27-.13.46-.26.93-.4,1.39-.47,1.54,1.04,3.63-1.29,4.66-.25-1.57-.66-3.12-.72-4.7-.11-2.98-.09-5.97.05-8.94.03-.63.78-1.24,1.19-1.85.58.44,1.46.76,1.68,1.34.81,2.15,1.39,4.38,2.1,6.57.18.56.57,1.05.86,1.58.35-.46.86-.86,1.04-1.38.73-2.18,1.29-4.42,2.07-6.58.23-.63.98-1.47,1.54-1.5,1.3-.08,1.45,1.07,1.45,2.1,0,1.99,0,3.98,0,5.97h-.09l.02-.02Z"/>
  <path class="st1" d="M132.95,34.93c0-1.85,0-3.7,0-5.56,0-.97.09-2.29,1.43-2.07,1.41.23,2.31,2.19,2.79,3.34.36.87.65,1.77,1,2.65.35.86.84,1.4,1.42,2.12.33-1.81.35-3.52.39-5.36.03-1.16-.05-3.05,1.58-2.41,1.45.57,1.35,2.42,1.37,3.73.03,1.92.05,3.85.03,5.77-.02,1.52.25,3.46-.53,4.85-.57,1.02-1.83,1.41-2.83.72-1.18-.82-1.53-2.7-2.04-3.95-.69-1.71-1.31-3.46-2.25-5.05-.4,1.6-.35,3.14-.36,4.79,0,.78.04,1.61-.05,2.39-.09.74-.47,1.16-.81,1.8-.33-.51-.86-.94-1.05-1.53-.19-.58-.12-1.34-.13-1.94-.03-1.43.02-2.86.02-4.29h-.02.03Z"/>
  <path class="st1" d="M71.97,31.54c-.14.27-.27.87-.62,1.06-.27.14-.91-.13-1.22-.4-.6-.53-.98-1.46-1.65-1.73-.58-.24-1.99.05-2.07.36-.22.84.03,1.82.2,2.73.03.18.54.3.84.4,1.35.45,3.44.5,3.89,1.39.75,1.48.67,3.51.54,5.28-.13,1.85-2.94,3.57-4.87,3.3-2.69-.38-4.38-2.36-3.91-4.74.11-.57.6-1.27,1.09-1.48.32-.14,1.02.45,1.46.82.21.18.14.68.34.9.49.54,1.01,1.1,1.63,1.44.2.11,1.09-.45,1.1-.71,0-.93.09-2.17-.45-2.72-.75-.76-2.07-.92-3.07-1.47-1.92-1.04-2.64-3.27-1.87-5.54.94-2.79,2.59-3.84,5.24-3.31,2.06.41,3.37,2.06,3.39,4.43h.01Z"/>
  <path class="st1" d="M85.97,35.16c0-1.32-.02-2.64,0-3.96.04-2.7,1.06-4.08,3.07-4.15,3.96-.13,5.76,1.05,5.91,4.22.15,3.24.09,6.49-.03,9.72-.02.64-.61,1.64-1.15,1.81-1.24.39-1.69-.57-1.76-1.68-.02-.33-.04-.66-.04-.99,0-1.42-.66-2.09-2.12-2.06-1.61.04-1.82,1.08-1.84,2.34,0,.49.04,1.04-.16,1.46-.17.35-.66.55-1.01.81-.26-.37-.74-.72-.76-1.1-.07-2.14-.04-4.29-.04-6.43h-.08.01ZM92.8,31.69c-.59-.41-1.35-1.26-2.28-1.5-1.48-.39-2.54.24-2.5,2.02.03,1.32-.14,2.74,1.83,2.77,1.38.02,2.77-1.27,2.94-3.29h0Z"/>
  <path class="st1" d="M83.01,34.87c0,1.49.03,2.99,0,4.48-.06,2.97-1.56,4.53-4.37,4.61-2.45.07-4.57-1.99-4.63-4.69-.08-3.49-.04-6.98.05-10.46.01-.5.63-1.36.98-1.37.51,0,1.37.52,1.49.97.32,1.26.41,2.59.45,3.9.07,2.16.02,4.32.04,6.48,0,1.05.19,2.23,1.48,2.07.81-.1,1.89-.86,2.19-1.59.42-1.01.26-2.27.28-3.43.06-2.49.04-4.98.15-7.47.01-.33.58-.63.89-.95.3.32.86.64.87.98.08,2.15.04,4.31.04,6.47h.1-.01Z"/>
  <path class="st1" d="M162.97,39.12c-.03,4.17-2.84,5.96-6.39,4.23-2.28-1.11-1.53-3.03-1.58-4.74,0-.31.43-.69.75-.92.09-.06.61.28.74.54.37.72.47,1.97.97,2.15.92.32,2.05.02,3.1-.02-.16-1.03-.28-2.07-.52-3.09-.04-.15-.62-.15-.92-.28-1.33-.59-3.27-.88-3.82-1.9-.7-1.31-.25-3.22-.36-4.87-.11-1.7,1.11-2.26,2.33-2.8,1.91-.85,3.79-.31,4.99,1.07.68.79.35,2.44.47,3.7-.52.02-1.23.27-1.53.02-.69-.56-1.05-1.64-1.78-1.98-.53-.25-1.81.15-2.11.65-.3.49.09,1.52.39,2.22.16.37.75.62,1.2.8,2.73,1.1,4.08,2.84,4.07,5.23h0Z"/>
  <path class="st1" d="M42,34.64c0-2-.07-4.1.33-6.08.19-.94.53-1.03,1.47-1.18,1.17-.19,2.35-.17,3.53-.14.85.02,1.96-.24,2.37.68.34.75-.27,1.71-.98,1.99-.92.36-1.89-.08-2.72.62-.88.74-1,1.55-.41,2.49.54.86.81.93,1.75,1.15.56.13,1.77.18,2.15.67.38.49-.07,1.37-.49,1.68-.64.48-1.48.44-2.23.54-.69.1-1.3.33-1.57,1.02-.26.67-.23,1.74.24,2.3.74.89,4.81.25,4.1,1.93-.34.81-2.68.53-3.46.56-1.02.03-2.63.36-3.37-.48-.78-.89-.67-2.1-.69-3.2-.03-1.52.02-3.04.02-4.56h-.04Z"/>
  <path class="st1" d="M96.99,35.55c0-2.04-.2-4.16.13-6.18.16-.98.55-1.72,1.53-2.04,1.4-.46,3.18-.38,4.63-.23.54.05,1.08.17,1.38.66.36.58.26,1.5-.29,1.92-1.18.9-3.31-.26-4.11,1.25-.57,1.08-.25,2.62,1.01,2.94.98.25,2.85-.2,3.41.88.76,1.47-.51,2.18-1.73,2.26-.71.04-1.62-.07-2.24.36-.64.45-.76,1.34-.66,2.06.11.8.57,1.27,1.33,1.5,1.09.34,2.16.68,3.25,1.06-.59,1.38-1.83.95-3.01,1-1.13.04-2.58.25-3.68-.16-.76-.29-.84-1.01-.9-1.74-.15-1.84-.06-3.7-.06-5.54h.01Z"/>
  <path class="st1" d="M61.93,42.02c-.43.35-.8.88-1.11.84-.57-.07-1.52-.4-1.58-.74-.35-2.07-1.76-2.06-3.34-2.06s-1.65,1.26-2.21,2.23c-.23.4-1.11.43-1.7.63-.1-.41-.36-.87-.27-1.23,1.09-4.46,2.2-8.92,3.4-13.35.13-.48.82-.95,1.35-1.13.32-.11,1.12.26,1.22.57,1.45,4.7,2.82,9.42,4.24,14.24ZM56.46,32.7c-.69.82-.74,2.42-.92,3.47-.16.92-.33,1.73.88,1.65.18,0,.79-.06.94-.22.17-.18-.11-1.26-.15-1.56-.12-.92-.04-2.74-.75-3.34Z"/>
  <path class="st1" d="M122.95,35.07c0-1.33-.1-2.66.03-3.97.12-1.26.36-3.5.77-3.56,2.03-.27,4.15,0,6.22.22.28.03.77.95.66,1.15-.28.47-.83.97-1.34,1.08-.96.2-2.05-.07-2.94.26-.57.21-1.2,1.12-1.21,1.74-.02.62.53,1.53,1.1,1.84.66.37,1.66.08,2.41.35.5.18,1.12.82,1.14,1.29.02.46-.54,1.15-1.02,1.39-.55.27-1.29.18-1.95.21-1.22.05-1.74.7-1.78,1.89-.05,1.51.73,2.06,2.13,2.05.66,0,1.36-.09,1.98.08.53.15.98.62,1.46.95-.48.33-.93.9-1.45.97-5.74.74-6.2.33-6.21-5.44v-2.5Z"/>
  <path class="st1" d="M148.33,27.07c.82,0,1.68-.14,2.47.04.7.16,1.33.67,1.99,1.03-.36.62-.62,1.65-1.11,1.78-1.79.47-1.69,1.77-1.7,3.09,0,2.31.05,4.62-.03,6.92-.04,1.2.45,3.05-1.59,2.92-1.94-.12-1.33-1.95-1.38-3.15-.08-2.31-.02-4.62-.03-6.92,0-1.16.03-2.26-1.45-2.77-.59-.21-.96-1.06-1.42-1.63.76-.44,1.47-1.01,2.29-1.29.59-.21,1.31-.04,1.97-.04h0v.02Z"/>
  <path class="st1" d="M156.44,22.99c-1.66,0-3.33.07-4.99-.02-1.29-.07-1.67-1.12-1.41-2.14.17-.64.9-1.59,1.41-1.61,3.32-.15,6.65-.15,9.97,0,.51.02,1.24.98,1.41,1.62.27,1.03-.12,2.06-1.41,2.14-1.66.1-3.32.02-4.99.02h.01Z"/>
  <path class="st1" d="M156.45,6.01c-1.66,0-3.33.07-4.99-.02-1.29-.07-1.68-1.11-1.41-2.14.17-.64.89-1.6,1.41-1.62,3.32-.15,6.65-.13,9.97-.05,1.29.03,1.68,1.1,1.41,2.13-.17.64-.86,1.55-1.41,1.62-1.63.22-3.32.08-4.98.08Z"/>
  <path class="st1" d="M156.64,13.98c-1.8,0-3.61.08-5.4-.06-.43-.03-1.09-.81-1.11-1.27-.02-.46.6-1.37.96-1.38,3.6-.1,7.2-.09,10.79.02.33.01.91.98.85,1.44-.06.46-.73,1.16-1.19,1.2-1.62.15-3.27.06-4.91.06h0s0-.01,0-.01Z"/>
  <path class="st0" d="M98.49,11.06c-1.67,0-4.83.49-6.15-.93-1.05-1.13-.66-4.09.28-5.12,1.06-1.17,2.8-.88,4.25-.92,1.83-.05,3.66-.04,5.49.05,1.33.06,2.85.12,3.85,1.14.75.77.86,1.86.57,2.85-1.04,3.58-5.45,2.93-8.3,2.93h.01Z"/>
  <path class="st0" d="M129.97,4.1c7.12-.43,8.04.96,8.06,7.74.02,7.55-1,8.28-8.07,8.31-7.13.03-8.04-1.06-8.06-7.83-.02-7.52.97-8.59,8.07-8.22h0Z"/>
  <path class="st0" d="M92.8,31.69c-.17,2.01-1.55,3.31-2.94,3.29-1.97-.03-1.8-1.45-1.83-2.77-.05-1.78,1.01-2.41,2.5-2.02.92.24,1.68,1.09,2.28,1.5h0Z"/>
  <path class="st0" d="M56.46,32.7c.71.61.63,2.42.75,3.34.04.3.32,1.37.15,1.56-.15.16-.76.21-.94.22-1.22.08-1.05-.73-.88-1.65.19-1.05.23-2.66.92-3.47Z"/>
</svg>