<?xml version="1.0" encoding="UTF-8"?>
<svg id="Layer_1" xmlns="http://www.w3.org/2000/svg" version="1.1" viewBox="0 0 45.01 90">
  <!-- Generator: Adobe Illustrator 29.1.0, SVG Export Plug-In . SVG Version: 2.1.0 Build 142)  -->
  <defs>
    <style>
      .st0 {
        fill: #fff;
      }
    </style>
  </defs>
  <path d="M45.01,23.97v43.06c-2.16.01-4.37.3-6.47-.04-4.53-.74-6.36,1.11-7.34,5.53-1.4,6.32-4.23,12.11-8.82,16.37-2.56-2.35-4.81-4.42-6.86-6.31,1.72-3.02,3.52-5.64,4.8-8.5,5.3-11.9,3.03-19.97-7.6-26.62v19.57H.02V23.97c5.52.79,12.23-2.17,15.55,5.83-1.34-11.44.45-21.09,8.59-29.35,2.48,2.6,4.6,4.81,6.74,7.06-6.52,7.67-7,15.72-3.71,24.61q8.18-7.73,17.82-8.15ZM3.34,27.86v35.63h6.5v-26.4c4.76,5.94,8.61,10.74,12.64,15.78,4.2-5.19,8.01-9.89,12.77-15.78v26.42h6.41V27.97c-4.11-1.53-6.78-.29-9.11,3.06-3.03,4.37-6.49,8.43-10.1,13.06-3.45-4.49-6.88-8.53-9.83-12.91-2.27-3.38-4.96-4.65-9.28-3.32Z"/>
  <path class="st0" d="M.01,67.03h12.7v-19.57c10.63,6.65,12.9,14.73,7.6,26.62-1.27,2.86-3.08,5.48-4.8,8.5,2.05,1.89,4.31,3.96,6.86,6.31,4.59-4.26,7.41-10.06,8.82-16.37.98-4.41,2.81-6.27,7.34-5.53,2.11.34,4.31.05,6.47.04v22.97H0c.01-7.61.01-15.29.01-22.97Z"/>
  <path class="st0" d="M45.01,23.97q-9.64.43-17.83,8.15c-3.29-8.89-2.82-16.94,3.71-24.61-2.14-2.25-4.25-4.46-6.74-7.06-8.14,8.27-9.92,17.91-8.59,29.35C12.24,21.8,5.53,24.76.01,23.97V0h45v23.97Z"/>
  <path class="st0" d="M3.34,27.86c4.31-1.33,7-.06,9.29,3.33,2.95,4.37,6.38,8.42,9.83,12.91,3.61-4.63,7.08-8.69,10.1-13.06,2.33-3.36,5-4.59,9.11-3.06v35.54h-6.41v-26.42c-4.76,5.89-8.57,10.59-12.77,15.78-4.03-5.04-7.88-9.84-12.64-15.78v26.4H3.35c0-11.9,0-23.67,0-35.64Z"/>
</svg>