<?xml version="1.0" encoding="UTF-8"?>
<svg id="Layer_1" xmlns="http://www.w3.org/2000/svg" version="1.1" viewBox="0 0 45 90">
  <!-- Generator: Adobe Illustrator 29.1.0, SVG Export Plug-In . SVG Version: 2.1.0 Build 142)  -->
  <defs>
    <style>
      .st0 {
        fill: none;
      }

      .st1 {
        fill: #fcfbfb;
      }

      .st2 {
        fill: #fff;
      }

      .st3 {
        fill: #0f0e0d;
      }
    </style>
  </defs>
  <path class="st3" d="M15,29c2.57,2.96,4.71,7.04,7.5,9.98,1.15,0,3.75-6.05,4.5-6.98s6.55-7.28,7.01-7.49c2.99-1.36,7.69-.12,10.99-.51v43h-12c0-.13-1.06-1.16-1.04-2.42.11-5.86,0-11.73.03-17.57-2.09,1.98-8.5,8.71-8.99,11l-10-11v20H0V24c8.64-.32,9.57-1.26,15,5ZM3,27v37h7v-26l11.55,14.04c1.37.14,1.58.16,2.53-.7,3.72-3.38,6.53-10.3,10.93-13.34v26h7V27c-7.42-4.28-16.64,15.72-18.53,16.05-1.48.26-1.96-.21-2.94-1.08-5.19-4.54-7.98-17.06-17.53-14.97Z"/>
  <path class="st0" d="M23,58c-.38,1.77.37,4.34-.11,6.38-1.48,6.34-3.11,12.51-7.82,17.26l5.93,8.36H0v-23h13v-20l10,11Z"/>
  <path class="st0" d="M25,0h20v24c-3.3.39-7.99-.84-10.99.51-.47.21-6.24,6.53-7.01,7.49-2-8.69-2.24-17.34,3.94-24.37L25,0Z"/>
  <path class="st0" d="M23,0c-6.58,8.91-9.13,17.84-8,29-5.43-6.26-6.36-5.32-15-5V0h23Z"/>
  <path class="st0" d="M45,67v23h-22c3.65-6.4,9.9-15.34,10-23h12Z"/>
  <path class="st2" d="M33,67c-.1,7.66-6.35,16.6-10,23h-2l-5.93-8.36c4.71-4.75,6.33-10.92,7.82-17.26.48-2.04-.27-4.61.11-6.38.49-2.29,6.9-9.02,8.99-11-.02,5.85.08,11.72-.03,17.57-.02,1.26,1.04,2.29,1.04,2.42Z"/>
  <path class="st2" d="M25,0l5.94,7.63c-6.18,7.02-5.93,15.67-3.94,24.37-.75.93-3.35,6.98-4.5,6.98-2.79-2.94-4.93-7.02-7.5-9.98-1.13-11.16,1.42-20.09,8-29h2Z"/>
  <path class="st1" d="M3,27c9.55-2.09,12.34,10.43,17.53,14.97.99.86,1.46,1.33,2.94,1.08,1.89-.33,11.11-20.33,18.53-16.05v37h-7v-26c-4.39,3.04-7.21,9.96-10.93,13.34-.95.86-1.16.84-2.53.7l-11.55-14.04v26H3V27Z"/>
</svg>