<?xml version="1.0" encoding="UTF-8"?>
<svg id="Layer_1" xmlns="http://www.w3.org/2000/svg" version="1.1" viewBox="0 0 837.8 135.25">
  <!-- Generator: Adobe Illustrator 29.1.0, SVG Export Plug-In . SVG Version: 2.1.0 Build 142)  -->
  <defs>
    <style>
      .st0 {
        fill: none;
      }

      .st1 {
        fill: #fff;
      }
    </style>
  </defs>
  <path class="st1" d="M586.8,135.15c0-9.6.1-19.3-.1-28.9-.1-3.9,1.3-5.8,5.2-6.3,3.1-.4,6.1-1.5,9.6-2.4,5.5,9.6,11,19.2,16.5,28.9-6.9,5.5-14.9,6.3-22.2,8.8h-9v-.1Z"/>
  <path class="st1" d="M159.8,135.15c0-9.6.1-19.3-.1-28.9-.1-3.9,1.3-5.8,5.2-6.3,3.1-.4,6.1-1.5,9.6-2.4,5.5,9.6,11,19.2,16.5,28.9-7,5.4-14.9,6.4-22.2,8.7h-9Z"/>
  <path class="st1" d="M575.8,135.15c-5.7-1.7-11.5-3.4-17.1-5.2-1.8-.6-3.5-1.7-6-3,5.8-10.1,11.4-19.8,17-29.5,4.9,1.4,9.2,2.6,14.1,3.9v33.8h-8Z"/>
  <path class="st1" d="M148.8,135.15c-5.7-1.7-11.4-3.4-17.1-5.2-1.8-.6-3.5-1.7-6.1-3.1,5.9-10.1,11.5-19.8,17.1-29.5,4.8,1.4,9.1,2.6,14,3.9v33.9h-7.9Z"/>
  <path class="st1" d="M746.6,2.05h27.3c5.1.1,5.8.7,5.9,5.8.1,7.8,0,15.6,0,23.5.3.1.7.3,1,.4.8-1.5,1.6-3,2.4-4.5l10.5-21c1.2-2.4,2.6-4.1,5.6-4.1,10.1,0,20.3,0,30.5,0,.6,0,1.3.3,2.7.6-.7,1.8-1.1,3.5-1.9,5-8.7,15.9-17.3,31.9-26.2,47.7-2,3.6-2.1,6.5-.1,10.2,8.3,15,16.4,30.1,24.6,45.2,2.3,4.2,4.6,8.5,6.8,12.8.7,1.4,1.2,2.9,2.1,5.1-2.1.2-3.5.5-4.9.5-9.3,0-18.7-.1-28,.1-3.7.1-5.8-1.4-7.3-4.7-4.6-9.6-9.5-19.1-14.2-28.7-.7-1.5-1.5-2.9-2.3-4.3-.4,0-.7.1-1.1.1v36.9h-33.6c-1.8-41.9.9-83.6.2-126.6h0ZM828.7,5.15c-9.9,0-18.3.2-26.8,0-3.7-.1-5.8,1.2-7.3,4.6-4.5,9.7-9.2,19.2-13.9,28.8-.8,1.5-1.7,3-2.5,4.5-.4-.1-.8-.2-1.2-.3-.6-12.3.3-24.7-.5-36.9h-26.8c-1.5,7.4-1,116.3.6,120.2,8.5.2,17.2.4,26.7-.2v-46.4c.4-.1.8-.2,1.3-.2.8,1.6,1.7,3.1,2.5,4.7,6.1,12.4,12.2,24.8,18.1,37.3,1.6,3.5,3.7,5.1,7.6,4.9,7.3-.3,14.7-.1,22-.1,1.4,0,2.8-.3,4.9-.5-11.8-22.2-23.3-43.8-34.6-65.1,10-18.4,19.6-36.3,29.9-55.3h0Z"/>
  <path class="st1" d="M.1,3.55c2-.2,3.4-.5,4.9-.5,9.2,0,18.3.1,27.5-.1,3.8-.1,5.7,1.4,6.8,5,3.9,11.7,8.1,23.3,12.2,34.9.4,1.2.9,2.3,1.4,3.5.3,0,.7-.1,1-.2V3.45h30.7c1.6,3.9,1.9,120.5.3,126-.8.2-1.7.7-2.7.7-10.5.1-21,0-31.5.1-3.2,0-4.2-1.9-5.1-4.5-4.1-12.7-8.2-25.4-12.4-38-.2-.6-.5-1.2-1.6-1.7v44c-10.8.2-21,.2-31.6-.1L.1,3.55H.1ZM56.9,60.65c-.5,0-1.1.1-1.6.2-1.9-5.3-3.9-10.6-5.8-15.9-4-11.5-8.1-22.9-12-34.4-1-2.8-2.5-4.5-5.7-4.4-8.7.1-17.4,0-26,0-1.1,0-2.2.5-3.4.8v119.6h26.3v-57c.5-.1,1-.2,1.5-.3.6,1.4,1.2,2.9,1.7,4.3,5.3,16.3,10.7,32.6,15.8,49,1,3.3,2.6,4.6,6,4.5,8.5-.1,17,0,25.5-.1,1.3,0,2.5-.4,4.1-.7V6.55h-26.4v54.1h0Z"/>
  <path class="st1" d="M741,53.85h-33v-18.1h-17.5v60.7h17.2v-26h33.5c.2,2,.6,3.6.6,5.2,0,9.8,0,19.7.1,29.5,0,3.2-1,5.7-3.3,8-4.6,4.4-8.8,9.1-13.5,13.3-1.7,1.5-4.3,2.7-6.5,2.8-13.2.2-26.3.2-39.5,0-2.1,0-4.5-1.2-6.1-2.7-4.5-4.2-8.5-8.9-12.8-13.3-2.3-2.3-3.4-4.7-3.4-7.9.1-26.2,0-52.3.2-78.5,0-2.4,1.2-5.2,2.7-7.1,4.1-5,8.6-9.7,13.3-14.2,1.5-1.4,4.1-2.5,6.2-2.5,13.3-.2,26.7-.3,40,0,2.4,0,5.2,1.3,7,3,4.8,4.6,9.3,9.5,13.7,14.5,1,1.1,1.9,2.9,1.9,4.4.2,8.7.1,17.3,0,26-.1.8-.5,1.5-.8,2.9h0ZM711,32.45v19h26.8c.3-1,.7-1.6.7-2.2.1-8.2.2-16.3,0-24.5,0-1.6-1.2-3.4-2.4-4.7-4-4.3-8-8.5-12.4-12.4-1.6-1.4-4.1-2.4-6.1-2.5-12.5-.2-25-.2-37.5,0-2.2.1-4.8,1.3-6.5,2.9-3.9,3.6-7.6,7.5-10.9,11.7-1.5,1.9-2.8,4.7-2.8,7.1-.2,26.2-.2,52.3,0,78.5,0,2.4,1.4,5.1,2.9,7,3.6,4.2,7.5,8.1,11.6,11.7,1.7,1.5,4.3,2.7,6.5,2.8,11.8.3,23.7.3,35.5,0,2.4-.1,5.1-1.4,6.9-3,4.4-3.8,8.5-8,12.3-12.4,1.6-1.8,2.7-4.6,2.8-7,.3-9,.2-18,.1-27,0-1.6-.4-3.1-.6-4.7h-27.3v26.1h-23c-.1-22.3-.1-44.2,0-66.3l23.4-.1h0Z"/>
  <path class="st1" d="M308,69.85c.7,1.1.9,1.7,1.3,1.9,7.1,4.8,8,11.8,7.7,19.7-.5,10.3-.1,20.7-.1,31,0,1.9-.3,3.9-.5,6.2h-32.5v-40.8h-17.5c-1,13.4.2,27-.7,40.9h-31.6c-1.6-4.2-1.8-120.9-.2-126.3,1.8-.2,3.7-.5,5.6-.5,17.5,0,35,.1,52.5-.1,3.8,0,6.6,1.1,9.2,3.9,4.1,4.4,8.7,8.3,12.6,12.8,1.6,1.8,2.9,4.6,3,7,.3,10.3.3,20.7,0,31-.1,2.4-1.5,5-2.9,7-1.7,2.4-3.9,4.2-5.9,6.3h0ZM302.8,70.45c3.1-2.6,4.9-4.2,6.9-5.8,3.1-2.5,4.3-5.6,4.1-9.6-.3-4.3,0-8.7-.1-13-.1-6.5,1.4-13.7-1-19.2-2.4-5.6-8.6-9.5-13-14.2-2.3-2.5-4.7-3.5-8-3.5-17.2.1-34.3,0-51.5.1-1.6,0-3.2.4-4.6.5-1.5,6.9-1,117.2.4,120.7h27v-40.9h22.9v40.9h27.1c.2-1.6.5-2.7.5-3.8,0-13.2.1-26.3-.1-39.5,0-1.9-1.3-4-2.6-5.5-2-2.3-4.5-4.2-8-7.2Z"/>
  <path class="st1" d="M620.3,125.45c-5.8-10.1-11.2-19.5-16.7-29,4.1-3.3,7.8-6.2,12.5-9.9,7.8,4.5,17.5,10.1,27.4,15.8-5.8,10-12.9,17.6-23.2,23.1h0Z"/>
  <path class="st1" d="M130.1,49.65c-10-5.8-19.4-11.2-29.6-17,5.7-10.1,13.5-17.1,23.2-23.5,5.8,10.1,11.4,19.8,16.7,29.1-3.5,3.9-6.6,7.3-10.3,11.4Z"/>
  <path class="st1" d="M176.7,96.55c3.9-3.8,7.2-7,11.1-10.8,9,5.2,18.6,10.7,28.6,16.5-5.7,10.1-12.8,17.7-23.3,23.1-5.6-9.9-11-19.3-16.4-28.8h0Z"/>
  <path class="st1" d="M123.8,125.45c-10.4-5.4-17.1-13.1-23.4-23,10-5.8,19.6-11.4,29.6-17.2,3.1,3.9,5.9,7.4,9.7,12.2-4.6,8.1-10.2,17.9-15.9,28h0Z"/>
  <path class="st1" d="M556.5,85.55c3.8,3.8,7.1,7.1,10.9,10.9-5.4,9.4-10.9,18.9-16.7,28.9-10.1-5.5-17.3-12.9-23.3-22.9,9.9-5.8,19.5-11.3,29.1-16.9Z"/>
  <path class="st1" d="M567.4,38.55c-3.7,3.8-6.9,7.1-10.7,11-9.6-5.5-19.1-11-29.3-16.8,5.7-9.9,13.3-16.9,23-23.4,5.8,9.8,11.3,19.4,17,29.2h0Z"/>
  <path class="st1" d="M99.3,34.65c10.1,5.8,19.7,11.4,29.4,17-1.4,5-2.6,9.4-4,14.2h-33.6c-.7-11.2,2.6-21.1,8.2-31.2Z"/>
  <path class="st1" d="M216.1,32.95c-9.4,5.5-19,11-28.9,16.7-3.3-4-6.2-7.6-9.8-12.1,4.6-8.2,10.1-17.7,15.5-27.2,7.5,1.7,19.8,13.7,23.2,22.6Z"/>
  <path class="st1" d="M643.5,32.65c-10,5.7-19.5,11.2-29.4,16.9-3.3-4.1-6.3-7.7-9.8-12.1,4.8-8.3,10.2-17.8,16-28,10.3,5.7,17.5,13.2,23.2,23.2h0Z"/>
  <path class="st1" d="M517.9,65.75c-.1-11.3,2.5-21.2,8.5-31,10,5.8,19.6,11.3,29.3,16.9-1.4,4.9-2.6,9.3-4,14.2l-33.8-.1h0Z"/>
  <path class="st1" d="M489.8,2.25v94.6h29.6v31.1c-3.8,1.6-55.1,1.9-61.2.4V2.45c10.3-.7,20.6-.4,31.6-.2h0ZM460.4,5.55v120h56.7v-26.4h-29.6V5.55h-27.1Z"/>
  <path class="st1" d="M190.7,9.15c-5.4,9.4-10.9,19-16.4,28.6-5.2-1.5-9.6-2.7-14.2-4V1.25c6.9-2.8,24.8,1.7,30.6,7.9h0Z"/>
  <path class="st1" d="M217.7,34.65c5.7,10,8.5,20,8.3,31.2h-33.6c-1.4-4.8-2.6-9.2-4-14.2,9.7-5.6,19.1-11.1,29.3-17h0Z"/>
  <path class="st1" d="M653.3,65.95h-33.8c-1.3-4.7-2.5-9.3-3.9-14.4,9.6-5.6,19-11,29.1-16.9,5.7,9.8,8.2,19.8,8.6,31.3h0Z"/>
  <path class="st1" d="M601.2,37.75c-5.1-1.5-9.4-2.7-14.1-4V1.15c6.9-2.6,22.8,1.3,30.6,7.8-5.4,9.4-10.8,19-16.5,28.8Z"/>
  <path class="st1" d="M218,100.45c-10.3-5.9-19.9-11.4-29.7-17,1.4-4.8,2.7-9,4.2-13.9h33.3c.6,10.8-2.5,20.6-7.8,30.9Z"/>
  <path class="st1" d="M517.9,69.35h33.7c1.3,4.6,2.6,9,4.1,14.1-9.6,5.5-19.2,11.1-29.4,17-5.5-9.9-8.3-19.7-8.4-31.1h0Z"/>
  <path class="st1" d="M128.6,83.35c-9.6,5.6-19.1,11.1-28.6,16.6-5.4-5.2-10.3-23.3-8.3-30.5h33c1.3,4.7,2.5,8.9,3.9,13.9h0Z"/>
  <path class="st1" d="M644.5,100.25c-10.1-5.8-19.6-11.4-29.2-16.9,1.5-4.9,2.7-9.2,4.1-13.9h33.4c.4,11-2.2,20.8-8.3,30.8h0Z"/>
  <path class="st1" d="M552.5,8.15c10.2-5.3,19.6-8.6,30.8-8.1v33.6c-4.3,1.3-8.7,2.6-13.7,4.1-5.6-9.7-11.1-19.2-17.1-29.6h0Z"/>
  <path class="st1" d="M156.4,33.75c-4.6,1.3-8.9,2.6-13.9,4.1-5.6-9.9-11.1-19.4-16.9-29.5C135.5,3.05,145.1-.45,156.3.35l.1,33.4h0Z"/>
  <path class="st1" d="M453.4,53.95v26.7h-44.3v-26.2c14.7-.9,29.2-.3,44.3-.5h0ZM450.2,56.65h-37.9v21.8h37.9c0,.1,0-21.8,0-21.8Z"/>
  <path class="st1" d="M828.7,5.15c-10.3,19-19.9,36.8-30,55.3,11.3,21.3,22.8,42.8,34.6,65.1-2.1.2-3.5.5-4.9.5-7.3,0-14.7-.2-22,.1-4,.2-6-1.5-7.6-4.9-5.9-12.5-12-24.9-18.1-37.3-.8-1.6-1.7-3.1-2.5-4.7-.4.1-.8.2-1.3.2v46.3c-9.5.6-18.2.3-26.7.2-1.6-3.9-2.1-112.8-.6-120.2h26.8c.8,12.3-.1,24.6.5,36.9.4.1.8.2,1.2.3.8-1.5,1.8-3,2.5-4.5,4.7-9.6,9.4-19.1,13.9-28.8,1.5-3.3,3.7-4.7,7.3-4.6,8.6.3,17,.1,26.9.1h0ZM774.8,7.45h-23.7v117.7h18.2c6,0,6.5-.5,6.5-6.6v-41c0-1.6.1-3.2.2-4.7,1.5,1.2,2.3,2.6,3,4,7.1,14.5,14.2,29,21.3,43.6,1.3,2.7,2.7,4.8,6.2,4.8,6.8-.2,13.7,0,20.5-.1,1,0,2.1-.6,3.6-1-1.3-2.8-2.4-5.2-3.6-7.5-9.5-17.6-18.9-35.2-28.5-52.8-1.1-2.1-1.6-3.8-.4-6,6-10.8,12-21.6,17.9-32.4,3.2-5.8,6.2-11.6,9.9-18.4-8.5,0-15.8.1-23.1-.1-3.3-.1-5.1,1.1-6.6,4.1-5,10.5-10.4,20.9-15.6,31.3-1.5,3.1-3.1,6.2-4.6,9.2-.4-.1-.8-.1-1.2-.2V7.45h0Z"/>
  <path class="st1" d="M56.9,60.65V6.65h26.3v119.8c-1.5.3-2.8.7-4.1.7-8.5.1-17-.1-25.5.1-3.4.1-5-1.2-6-4.5-5.1-16.4-10.5-32.7-15.8-49-.5-1.5-1.1-2.9-1.7-4.3-.5.1-1,.2-1.5.3v57H2.4V6.95c1.2-.3,2.3-.8,3.4-.8,8.7-.1,17.3,0,26-.1,3.3-.1,4.8,1.6,5.7,4.4,4,11.5,8,23,12,34.4,1.9,5.3,3.8,10.6,5.8,15.9.5,0,1-.1,1.6-.1h0ZM80.4,125.25V8.35h-22.4v62.8l-1.2.2c-7.3-21-14.7-42-22-62.9H4.6c-1.6,5.9-1.3,112.3.3,116.3h21.8V57.75c.4,0,.8-.1,1.1-.1.6,1.5,1.2,3,1.7,4.5,6.3,19.3,12.8,38.6,18.9,58,1.2,3.8,3.1,5.4,7.2,5.2,4.8-.3,9.7-.1,14.5-.1,3.3.1,6.6.1,10.3,0h0Z"/>
  <path class="st1" d="M711,32.45h-23.3c-.1,22.1-.1,43.9,0,66.3h23v-26h27.3c.2,1.6.6,3.2.6,4.7.1,9,.2,18-.1,27-.1,2.4-1.2,5.2-2.8,7-3.8,4.4-7.9,8.6-12.3,12.4-1.8,1.6-4.6,2.9-6.9,3-11.8.3-23.7.3-35.5,0-2.2-.1-4.8-1.3-6.5-2.8-4.1-3.6-8-7.5-11.6-11.7-1.6-1.8-2.9-4.6-2.9-7-.2-26.2-.2-52.3,0-78.5,0-2.4,1.3-5.1,2.8-7.1,3.3-4.2,7-8.1,10.9-11.7,1.7-1.5,4.3-2.8,6.5-2.9,12.5-.3,25-.2,37.5,0,2.1,0,4.6,1.1,6.1,2.5,4.3,3.9,8.4,8.1,12.4,12.4,1.2,1.2,2.4,3.1,2.4,4.7.2,8.2.1,16.3,0,24.5,0,.6-.4,1.2-.7,2.2h-26.8l-.1-19h0ZM736.9,49.65v-9.6c0-11.9-4.2-21.9-12.6-30.1-2.2-2.1-4.5-3.2-7.5-3.1-7.7.1-15.4.8-23-.1-12.6-1.6-21.8,2.6-28.8,13.1-2.1,3.1-3.4,5.8-3.4,9.4.1,20.5,0,41,0,61.5,0,12.3,4.5,22.7,13.4,31.3,2.2,2.1,4.5,3.1,7.6,3.1,6.5-.1,13.1-.8,19.5.1,13.7,2.1,23.8-2.8,31.8-13.6,1.8-2.4,3.1-4.5,3.1-7.6-.1-8.2,0-16.3-.1-24.5,0-1.6-.3-3.2-.5-5.2h-23.9v26.1h-26.1V30.75h26.4v19l24.1-.1h0Z"/>
  <path class="st1" d="M302.8,70.45c3.5,3.1,6.1,4.9,8.1,7.2,1.3,1.5,2.6,3.6,2.6,5.5.2,13.2.1,26.3.1,39.5,0,1.1-.3,2.2-.5,3.8h-27.1v-40.9h-22.9v40.8h-27c-1.4-3.5-1.9-113.8-.4-120.7,1.4-.2,3-.5,4.6-.5,17.2,0,34.3,0,51.5-.1,3.3,0,5.7,1,7.9,3.4,4.4,4.8,10.7,8.7,13,14.2,2.3,5.6.9,12.8,1,19.2.1,4.3-.2,8.7.1,13,.2,4-.9,7.2-4.1,9.6-2,1.7-3.9,3.4-6.9,6ZM301.8,70.15c2.3-2.4,4-4.6,6.1-6.4,3-2.6,4.2-5.6,4.1-9.6-.2-9,.1-18-.2-27-.1-2.1-1.1-4.5-2.5-6.1-3.4-3.9-7.3-7.3-10.9-11-2.1-2.2-4.5-3.1-7.5-3.1-16.1.1-32.3,0-48.5.1-1.7,0-3.5.4-5.2.6v117.1c8.1.5,15.6,1,23.9-.4v-40.6h26.8v41.1c8.4.3,15.9,1,23.7-.4.1-2.3.3-4.1.3-5.9,0-9.3-.3-18.7.1-28,.3-6.8-.9-12.5-6.7-16.6-1.2-.8-2-2.1-3.5-3.8h0Z"/>
  <path class="st1" d="M324.2,125.25V5.95c1.5-.2,2.9-.7,4.3-.7,17.6-.1,35.3-.1,53,.1,2.2,0,4.8,1.3,6.5,2.8,4.2,3.7,8.2,7.8,12,12,1.4,1.6,2.5,4,2.5,6.1.2,26.3.2,52.6,0,78.9,0,1.9-1,4.3-2.3,5.7-4.2,4.7-8.7,9.2-13.4,13.5-1.3,1.3-3.4,2.5-5.2,2.4-18.5-.2-36.9-.6-55.4-.9-.3.1-.8-.2-2-.6h0ZM326.1,124.45c1.7.3,3.1.7,4.6.7h47.5c4.3,0,8.1-1.3,11-4.8,2.4-2.9,4.9-5.9,7.8-8.4,3.4-3,4-6.5,4-10.7-.1-19.8,0-39.7-.1-59.5,0-6,1.3-12.6-.9-17.8-2.3-5.3-8.1-9-12.2-13.6-2.3-2.6-5-3.4-8.4-3.4-15.8.1-31.7,0-47.5.1-1.8,0-3.5.3-5.7.5v116.9h-.1Z"/>
  <path class="st0" d="M460.4,5.55h27.1v93.6h29.6v26.4h-56.7V5.55h0ZM462.3,7.35c-.2,2.2-.6,3.9-.6,5.7v105.5c0,6.1.5,6.6,6.6,6.6h41.5c1.8,0,3.5-.4,5.7-.6.5-7.9,1-15.4-.5-23.7h-29.4V7.35h-23.3Z"/>
  <path class="st1" d="M450.2,56.65v21.8h-37.9v-21.8h37.9ZM413.9,58.35c0,5.6-.2,10.5.2,15.4.1,1.2,2.3,3.1,3.5,3.1,9.1.3,18.2.2,27.4,0,1.2,0,3.4-1.6,3.5-2.6.4-5.2.2-10.4.2-15.9h-34.8Z"/>
  <path class="st1" d="M774.8,7.45v43.9c.4.1.8.1,1.2.2,1.5-3.1,3.1-6.2,4.6-9.2,5.2-10.4,10.5-20.8,15.6-31.3,1.4-3,3.3-4.2,6.6-4.1,7.3.2,14.6.1,23.1.1-3.7,6.8-6.7,12.6-9.9,18.4-5.9,10.8-11.8,21.6-17.9,32.4-1.2,2.2-.7,4,.4,6,9.5,17.6,19,35.2,28.5,52.8,1.2,2.3,2.3,4.7,3.6,7.5-1.5.4-2.5,1-3.6,1-6.8.1-13.7-.1-20.5.1-3.5.1-4.9-2.1-6.2-4.8-7-14.6-14.2-29.1-21.3-43.6-.7-1.4-1.5-2.8-3-4-.1,1.6-.2,3.2-.2,4.7v41c0,6.1-.5,6.6-6.5,6.6h-18.2V7.45h23.7Z"/>
  <path class="st1" d="M80.4,125.25h-10.3c-4.8,0-9.7-.2-14.5.1-4,.2-5.9-1.3-7.2-5.2-6.2-19.4-12.6-38.7-18.9-58-.5-1.5-1.1-3-1.7-4.5-.4,0-.8.1-1.1.1v66.9H4.9c-1.6-4-1.9-110.5-.3-116.3h30.2c7.3,20.9,14.7,41.9,22,62.9l1.2-.1V8.35h22.4v116.9Z"/>
  <path class="st1" d="M736.9,49.65h-24.1v-19h-26.4v69.9h26.1v-26h23.9c.2,2,.5,3.6.5,5.2,0,8.2-.1,16.3.1,24.5,0,3.1-1.3,5.2-3.1,7.6-8,10.8-18.2,15.6-31.8,13.6-6.3-1-13-.2-19.5-.1-3,.1-5.3-.9-7.6-3.1-8.9-8.6-13.4-19-13.4-31.3V29.45c0-3.7,1.3-6.4,3.4-9.4,7-10.5,16.2-14.7,28.8-13.1,7.5.9,15.3.3,23,.1,3.1-.1,5.3,1,7.5,3.1,8.4,8.2,12.6,18.2,12.6,30.1v9.4h0Z"/>
  <path class="st1" d="M301.8,70.15c1.5,1.7,2.4,3,3.5,3.8,5.9,4.1,7.1,9.8,6.7,16.5-.5,9.3-.1,18.7-.1,28,0,1.8-.2,3.6-.3,5.9-7.8,1.5-15.2.8-23.7.4v-41h-26.8v40.5c-8.4,1.4-15.9.9-23.9.4V7.65c1.7-.2,3.5-.7,5.2-.7,16.2-.1,32.3,0,48.5-.1,3,0,5.4.9,7.5,3.1,3.5,3.8,7.5,7.1,10.9,11,1.4,1.6,2.4,4,2.5,6.1.3,9,0,18,.2,27,.1,4-1.1,7-4.1,9.6-2.1,1.9-3.9,4.1-6.1,6.5h0ZM287.2,30.85h-26.2c-.2,9.9-.3,19.3,0,28.6h26.1v-28.6h.1Z"/>
  <path class="st1" d="M326.1,124.45V7.45c2.2-.2,3.9-.5,5.7-.5,15.8,0,31.7,0,47.5-.1,3.4,0,6.1.8,8.4,3.4,4.1,4.6,10,8.3,12.2,13.6,2.2,5.1.9,11.8.9,17.8.1,19.8,0,39.7.1,59.5,0,4.2-.6,7.8-4,10.7-2.9,2.5-5.3,5.5-7.8,8.4-2.9,3.5-6.7,4.8-11,4.8-15.8.1-31.7,0-47.5,0-1.4.1-2.8-.3-4.5-.6h0ZM350.3,30.65v69.9h25.9V30.65h-25.9Z"/>
  <path class="st1" d="M462.3,7.35h23.4v93.4h29.4c1.5,8.3.9,15.8.5,23.7-2.2.2-3.9.6-5.7.6-13.8.1-27.6.1-41.5,0-6.1,0-6.6-.5-6.6-6.6V12.95c0-1.6.3-3.4.5-5.6h0Z"/>
  <path class="st1" d="M413.9,58.35h34.7c0,5.5.2,10.8-.2,15.9-.1,1-2.2,2.6-3.5,2.6-9.1.2-18.2.2-27.4,0-1.3,0-3.4-2-3.5-3.1-.3-4.9-.1-9.8-.1-15.4h0Z"/>
  <path class="st1" d="M287.2,30.85v28.6h-26.1c-.4-9.3-.2-18.6,0-28.6h26.1ZM263.1,57.65h22.5c.3-8.7.6-16.8-.2-25.1h-22.3v25.1h0Z"/>
  <path class="st1" d="M263.1,57.65v-25.2h22.3c.9,8.3.5,16.4.2,25.1h-22.5v.1ZM266.4,35.55v18.9h16.7v-18.9h-16.7Z"/>
  <path class="st1" d="M266.4,35.55h16.7v18.9h-16.7v-18.9Z"/>
</svg>