<?xml version="1.0" encoding="UTF-8"?>
<svg id="Layer_1" xmlns="http://www.w3.org/2000/svg" version="1.1" viewBox="0 0 481.84 209.38">
  <!-- Generator: Adobe Illustrator 29.1.0, SVG Export Plug-In . SVG Version: 2.1.0 Build 142)  -->
  <defs>
    <style>
      .st0 {
        fill: none;
      }

      .st1 {
        fill: #fff;
      }
    </style>
  </defs>
  <path class="st1" d="M320.83.1c.3.3.5.9.8,1,6.7.2,17.8,5.5,21.8,10.1,2.4,2.8,5.1,5.5,7.3,8.5,2,2.7,1.5,4-1.8,5.8-3.5,1.9-7.1,3.8-10.6,5.6-1.7.9-3.1.9-3.4-.5-.8-3.4-3.4-5.4-5.8-7.6-4-3.8-8.7-5.9-14.5-6-5.5-.1-10.3,1.5-14.8,4.1-3.6,2.1-6,5.4-7.9,8.9-2.5,4.6-4.3,9.5-5.3,14.8-.7,3.6-.9,7.1-.6,10.6.4,5.3,1.8,10.4,4.1,15.2,2.2,4.8,5.9,8.6,9.9,11.8,2.7,2.1,6.2,3.6,10,3.6h5.5c7.1-.1,12.3-3.4,16.4-9.1,2.5-3.4,4.1-7,4-11.3,0-1.4-.6-1.6-1.8-1.6h-16c-1.5,0-2.5.1-2.3-2,.3-4.3.3-8.5.4-12.8,4.1,0,8.3-.1,12.4-.1h27c1.6,0,2.6.1,2.2,2.1-.4,2.3-.7,4.7-1,7.1-.3,2.2.8,4.6-1,6.6.4,5.4-2.7,9.9-4.2,14.7-1.1,3.3-3.6,6.2-5.9,9-4.5,5.6-10.5,9.1-16.9,12.1-1.5.7-3.4-.6-4.4,1.3-2.3-.4-4.4.8-6.6.9-3.5.2-7.1.6-10.5,0-7-1.3-13.8-3.5-19.8-7.7-9.1-6.3-14.5-15.2-18.2-25.3-.6-1.7-1.1-3.6-1.4-5.4-.5-2.7-.8-5.4-1-8.1-.2-2.7,0-5.3,0-8-.2-6.8,2-13,4.3-19.2,3.1-8.5,9.4-14.5,15.6-20.5,2.7-2.6,10.7-5.5,14.7-6.8,2.1-.7,4.1-.6,6.1-1,.2,0,.2-.5.4-.8,4.1,0,8.5,0,12.8,0h0Z"/>
  <path class="st1" d="M228.93.1c2,5.3,4,10.6,6,16,1.2,3.3,2.3,6.7,3.5,10,2.1,5.8,4.3,11.5,6.5,17.3,1.8,4.9,3.7,9.8,5.5,14.7,1.5,4,3,8.1,4.5,12.1,1.8,4.9,3.6,9.8,5.4,14.7,1.4,3.8,2.7,7.5,4.3,11.2.5,1.1-.4,2.8,1.3,3.4-1.3.2-2.5.4-3.8.4-4.7.1-9.3,0-14,0-1.9,0-2.7-.7-3.3-2.7-1.7-5.4-4-10.7-5.8-16-.3-1-.5-1.3-1.5-1.3h-31.9c-.9,0-1.2.3-1.6,1.2-2.3,4.7-4,9.7-5.9,14.5-.3.9-.6,1.8-1,2.6-.6,1-1.2,1.8-2.6,1.8-5.3-.1-10.6-.1-16,0-1.7,0-1.6-1.2-1.3-1.9,1.5-2.9,2.2-6.1,3.4-9.1,2.8-6.5,5.2-13.1,7.5-19.8,1.7-4.9,3.9-9.7,5.8-14.5,1.8-4.6,3.4-9.2,5.1-13.9,1.9-5,3.9-10,5.8-15.1,2.3-6.2,4.6-12.4,7.2-18.5.5-1.3.6-2.8,1.4-3.9.8-1.1.5-2.2.6-3.3,4.9.1,9.9.1,14.9.1h0ZM221.33,64.1h10.5c1.2,0,1.4-.7,1-1.6-1.2-3.1-2.9-6.2-3.8-9.4-1.5-5.5-3.7-10.8-5.2-16.3-.6-2.3-1.1-4.8-2.6-6.9-.2-.3-.5-.5-.7-.7-.2.2-.5.5-.5.7-.7,4.1-2.7,7.9-3.4,12.1-.6,3.5-1.9,6.8-3.1,10.2-1.3,3.5-1.9,7.2-3.4,10.6-.1.3.5,1.3.8,1.3,3.4,0,6.9,0,10.4,0h0Z"/>
  <path class="st1" d="M49.53,101H2.53Q.03,101,.03,98.7V4.3C.03,2.1.03,2,2.53,2c31.3.1,62.6.1,93.9.1q2.5,0,2.5,2.3v94.4c0,2.2,0,2.3-2.5,2.3-15.6-.1-31.3-.1-46.9-.1h0ZM89.53,25v.1c-1.7,0-3.3-.1-5,0-1.5.2-3.1.9-4.6.9-4.7,0-8.9,1.7-13.3,2.8-2.6.7-4.8,2.6-7.2,3-2.3.4-3.4,2.1-5.4,2.9-2,.7-3.8,2-5.6,3.3-4.9,3.5-8.6,8.1-12.9,12.1-.7.6-.9,1.7-1.5,2.3-3.5,3.7-5.3,8.4-7.7,12.8-3,5.6-6,16.9-6.3,22.3,0,.9-.7,1.8-.7,2.7-.1,2.4-.1,4.9-.1,7.3,2,.1,3.9.3,5.9.3,1.5.1,3,0,4.5,0,2.5,0,2.4,0,2.5-2.3.3-3.7.1-7.6,1.2-11,.9-2.9,1.6-5.9,2.7-8.8,1.2-2.9,2.7-5.5,4-8.3,4.1-8.6,10.3-15.3,18.2-20.5,6.2-4,12.5-7.6,20.2-8,1.8-1.7,4.1-.5,6.1-1s3.9-1.1,6.1-1c1.8.1,4.3.5,5.2-.4.9-1,.4-3.4.4-5.2,0-2-.1-4-.1-5.9l-6.6-.4h0ZM91.53,59c-3,.2-5.3.4-7.7.9-8.2,1.7-14.7,5.9-20,12-1.9,2.1-3.3,4.6-4.7,7-.9,1.7-1.4,3.7-2.1,5.6-.6,1.9-1.4,3.8-1.7,5.8-.3,2.4-.2,4.9-.2,7.3,1.9.1,3.9.3,5.8.4.3,0,.8.1,1,0,.4-.3,1-.8,1-1.2.5-7,3.1-13.4,7.1-19,3.7-5.1,9.2-8,15.3-9.8,3.1-.9,6.1-.9,9.1-.9,1,0,1.6-.1,1.5-1.3v-1.5c-.1-1.6.5-3.8-.4-4.8-.7-.8-3-.4-4-.5h0Z"/>
  <path class="st1" d="M406.83,51.6V6.2q0-3,2.8-3h30c3.2,0,6.2,1.1,9.1,2.1,6.8,2.1,12.9,5.5,18.1,10.4,4.5,4.3,10.5,15.1,12.1,22.5,1.3,5.9,2.4,11.8,1.7,17.7-.5,4.6-.9,9.4-2.9,13.7-1.8,4.1-3.6,8.2-6,12-4.6,7-16,14.9-24.2,17.2-2.4.7-5,1.2-7.5,1.2-10.3.1-20.6.1-31,.1-2.2,0-2.3,0-2.3-2.5.1-15.4.1-30.7.1-46h0ZM424.83,51.4v30.9c0,1.1.1,1.8,1.6,1.8,5.5.1,10.8-.2,16.1-2,6.8-2.2,11.7-6.7,15.1-12.5,2.1-3.7,3.3-8.1,3.2-12.6,0-3.7-.1-7.3,0-11,.1-2.4-.3-4.8-1-7.1-3-9-8.8-15-17.9-18-2.4-.8-4.9-.7-7.3-1.6-2.3-.9-5.2-.1-7.9-.2-1.5-.1-1.9.4-1.9,1.9,0,10.1,0,20.3,0,30.4h0Z"/>
  <path class="st1" d="M123.93,51.3V5.9c0-2.7,0-2.8,2.5-2.8,10.1,0,20.3-.2,30.4.1,6.5.2,12.7,2.3,17.8,6.3,4.8,3.8,7.5,9.2,8.3,15.5.2,1.5.8,3,.9,4.6.2,1.6,0,3.3,0,5,0,3.5-1.6,10.5-3.9,15.3-3.1,6.3-8.3,9.8-14.5,12.2-.9.3-1.7,1-2.6,1-4.2-.1-8.3,1.6-12.6,1.1-2.4-.3-4.9.2-7.3.3,0,2.3-.1,4.6-.1,6.9v26.9c0,1.2-.2,1.8-1.6,1.7-5.8-.2-11.5-.3-17.3-.4,0-5.3-.1-10.6-.1-15.9.1-10.8.1-21.6.1-32.4h0ZM142.93,32.8v9c0,2,.1,4,.1,5.9,2.1.1,4.2.3,6.3.4,5.2,0,5.1-.2,9.2-1.9,2.8-1.2,4.6-3.4,5.2-5.8.5-2.1,1.2-4.3,1.1-6.5s-.4-4.4-1-6.5c-1.1-4.2-3.7-7.4-7.9-8.1-3.3-.5-6.5-1.7-10-1.2-2.9.4-3,.1-3,2.8,0,4,0,7.9,0,11.9Z"/>
  <path class="st1" d="M369.83,51.6V6.2q0-3,3.2-3.1c4.3,0,8.7.1,13,0,1.7,0,2,.7,1.8,2-.1.7,0,1.3,0,2v88.9c0,.8-.1,1.7,0,2.5.2,1.4-.6,1.6-1.8,1.6-5.3-.1-10.6-.1-15.9-.2-.1-5.1-.3-10.2-.3-15.3,0-11,0-22,0-33h0Z"/>
  <path class="st0" d="M221.33,64.1c-3.5,0-7,0-10.5-.1-.3,0-.9-1-.8-1.3,1.5-3.4,2.1-7.1,3.4-10.6,1.2-3.3,2.5-6.7,3.1-10.2.8-4.2,2.7-7.9,3.4-12.1.1-.3.3-.5.5-.7.2.2.5.4.7.7,1.5,2,2,4.6,2.6,6.9,1.5,5.5,3.8,10.8,5.2,16.3.9,3.2,2.5,6.3,3.8,9.4.3.9.2,1.6-1,1.6-3.5.1-7,.1-10.4.1h0Z"/>
  <path class="st0" d="M89.53,25l6.3.5c.1,2,.1,4,.1,5.9,0,1.8.6,4.3-.4,5.2-.9,1-3.4.5-5.2.4-2.2-.1-4.1.5-6.1,1s-4.3-.7-6.1,1c-7.6.4-14,4-20.2,8-7.9,5.2-14.1,11.9-18.2,20.5-1.3,2.8-2.9,5.4-4,8.3s-1.8,5.9-2.7,8.8c-1,3.5-.9,7.3-1.2,11-.2,2.2-.1,2.2-2.5,2.3-1.5,0-3,.1-4.5,0-2-.1-3.9-.2-5.9-.3,0-2.4,0-4.9.1-7.3,0-.9.7-1.8.7-2.7.3-5.4,3.3-16.7,6.3-22.3,2.3-4.4,4.2-9.1,7.7-12.8.6-.7.8-1.7,1.5-2.3,4.3-4,8-8.7,12.9-12.1,1.8-1.3,3.6-2.6,5.6-3.3,1.9-.7,3-2.5,5.4-2.9s4.6-2.3,7.2-3c4.4-1.1,8.7-2.8,13.3-2.8,1.5,0,3-.8,4.6-.9,1.7-.2,3.3,0,5,0l.3-.2h0Z"/>
  <path class="st0" d="M91.53,59c1,.1,3.2-.3,4.1.5.8.9.3,3.1.4,4.7v1.5c.1,1.2-.6,1.3-1.5,1.3-3.1,0-6.1,0-9.1.9-6.1,1.8-11.6,4.7-15.3,9.8-4.1,5.6-6.6,12-7.1,19,0,.4-.6.9-1,1.2-.2.2-.7.1-1,0-1.9-.1-3.9-.2-5.8-.4,0-2.4-.1-4.9.2-7.3.3-2,1.1-3.9,1.7-5.8s1.1-3.9,2.1-5.6c1.4-2.5,2.8-4.9,4.7-7,5.4-6.1,11.9-10.3,20-12,2.2-.4,4.6-.6,7.6-.8h0Z"/>
  <path class="st0" d="M424.83,51.4v-30.4c0-1.5.4-2,1.9-1.9,2.6.1,5.6-.7,7.9.2,2.4.9,4.9.9,7.3,1.6,9.1,3.1,15,9,17.9,18,.8,2.3,1.1,4.6,1,7.1-.1,3.7-.1,7.3,0,11,.1,4.5-1.1,8.9-3.2,12.6-3.4,5.9-8.3,10.3-15.1,12.5-5.3,1.7-10.7,2.1-16.1,2-1.5,0-1.6-.6-1.6-1.8,0-10.3,0-20.6,0-30.9h0Z"/>
  <path class="st0" d="M142.93,32.8v-11.9c0-2.7.1-2.5,3-2.8,3.5-.5,6.7.7,10,1.2,4.2.7,6.9,3.9,7.9,8.1.5,2.1.9,4.4,1,6.5,0,2.2-.6,4.4-1.1,6.5-.6,2.4-2.4,4.6-5.2,5.8-4,1.7-3.9,2-9.2,1.9-2.1,0-4.2-.2-6.3-.4,0-2-.1-4-.1-5.9,0-3,0-6,0-9Z"/>
  <path class="st1" d="M458.83,126.26c3.2,0,6.3.1,9.5,0,3.6-.2,6.8,1.4,9.6,3.2,1.5,1,2.1,3.6,2.8,5.6.3.9,0,2,.1,3,.1,1.2-.5,1.4-1.5,1.3-1.2-.1-2.3-.1-3.5,0-1.4.1-2.3-.1-2-1.8.1-.5,0-1,0-1.5-.2-1.8-.9-2.7-2.7-2.7-7.5-.1-15-.1-22.5,0-2.1,0-3.8,1.9-3.8,4.1v15c0,2.1,1.8,3.9,4,3.9,7,0,14,.1,21,0,2.7,0,3.9-1.2,4-3.4,0-2.5,0-2.6-2.7-2.6-3.8,0-7.7-.1-11.5,0-1.7.1-2-.6-1.8-2,.1-.7,0-1.3,0-2q0-3,2.8-3h18c2.5,0,3.3.7,3.2,3.1-.2,3.4-.4,6.8-1.1,10.1-.3,1.6-1.7,3.1-2.9,4.2-1.1.9-2.7,1.3-4.3,1.7-7.2,1.6-14.4.6-21.6.9-2.6.1-5-1.1-7.6-1.2-3-.2-6.5-5.3-6.5-8.6v-17c0-5.2,4.8-10.1,10-10.2,3.7-.2,7.3-.1,11-.1h0Z"/>
  <path class="st1" d="M.03,144.26v-15c0-2.2.8-3,2.9-3,7.7,0,15.3-.3,23,.1,2.7.1,5.3.8,8.1.9s5.2,3.4,6.1,6.5c1,3,1.2,5.7,0,8.7-.4,1.1-1.1,1.9-1.7,2.8-.3.4-.4,1.4-.1,1.6,2,2.1,1.6,4.8,1.7,7.3v4.5c0,2.3-1.1,3.4-3.4,3.4s-3.6-1.2-3.6-3.7v-5.5c0-2.6-1.2-3.7-4-3.8-1.8-.1-3.7,0-5.5,0h-15c-.2,3.8-.4,7.5-.4,11.3,0,1.3-.3,1.7-1.7,1.7-5.9-.1-6.6.8-6.4-6,.1-3.8,0-7.8,0-11.8H.03ZM19.53,133.26h-9.9c-.5,0-1.5.5-1.5.7-.1,3,0,5.9.1,8.9,2.3.1,4.5.3,6.8.3,2.3.1,4.6,0,7,0s5,.1,7.5,0,3.6-1.4,3.6-3.7v-3c-.1-2.7-.6-3.2-3.6-3.3-3.4.1-6.7.1-10,.1h0Z"/>
  <path class="st1" d="M384.83,144.96c0,5.2-.1,10.3,0,15.5,0,1.6-.6,2.1-2,1.8h-.5c-4.3.8-7.2-1.2-10.4-4.1-7.8-7.2-15.3-14.6-22.8-22-.3-.3-.7-.5-1-.8-.1.4-.3.9-.3,1.4v22.5q0,3-2.8,3c-.8,0-1.7-.1-2.5,0-1.2.1-1.8-.1-1.8-1.6.1-10.5,0-21,0-31.4,0-2.2.8-2.8,2.9-3,3.6-.3,6.6.6,9.1,3.4,2.9,3.2,6,6.2,9.1,9.2,4.8,4.5,9.6,9,14.4,13.4.3.3.7.5,1.1.8.1-.4.4-.9.4-1.3v-22c.1-3.1.6-3.6,3.8-3.6,2.5.1,3.1.7,3.2,3.2.1,5.3.1,10.4.1,15.6h0Z"/>
  <path class="st1" d="M207.03,133.26h-9c-3.3,0-4.9,1.2-5.1,4.3-.2,4.8-.1,9.7,0,14.5.1,2.1,2.5,4.1,4.8,4.1,3.3.1,6.7,0,10,0,3.5,0,7,.1,10.5,0,1.8,0,2.5-.9,2.7-2.7v-.5c.2-4.9.3-4.9,5.1-4.9,1.5,0,2.1.3,2,1.9-.1,1.6,0,3.3,0,5-.1,3.7-3.3,7-7,7.1-2.6.1-4.9,1.5-7.6,1.1-2.6-.3-5.3-.2-8-.1-4.1.2-8.1-.2-12.1-1.1-2.3-.5-4.4-1.6-5.4-4.1-1-2.3-2-4.6-2-7.2.1-4.2.1-8.3,0-12.5-.1-7.1,4.2-11.8,12.2-12.1,6.2-.2,12.3-.2,18.5,0,8.9.3,11.9,5.1,11.3,12.9,0,.4-.7.9-1.2,1.1-.4.2-1,.1-1.5,0-1.3,0-3.1.4-3.8-.3-.7-.6-.4-2.4-.5-3.7-.1-2.2-.8-2.9-2.9-3-3.6.2-7.3.2-11,.2h0Z"/>
  <path class="st1" d="M133.23,162.26c-.7,0-1.4-.1-2,0-1.7.4-2.3-.5-2.7-1.9-.1-.4-.4-.8-.6-1.2-1.5-2.6-3.7-3.9-6.5-3.9-5.8,0-11.7.2-17.5-.1-2.5-.1-3.7,1.1-4.9,2.6-.9,1.2-1.1,3.4-2.2,3.9-1.7.8-3.8.4-5.8.5h-1c-.9-.1-1.5-1-.8-1.6,1.3-1.2,1.9-2.9,2.8-4.4,3.5-5.7,7.1-11.4,10.6-17.1,1.8-3.1,3.6-6.2,5.3-9.3,1.5-2.8,4.2-4.5,6.9-3.5,1.6.6,3.3,2.2,4.1,3.8,4.4,8.4,9.9,16.1,14.1,24.6.6,1.3,1.8,2.3,2.4,3.5,2.1,4,2.1,4.1-2.2,4.1h0ZM114.03,149.26h6.4c1.2,0,1.7.1.7-1.4-2.4-3.7-4.5-7.7-6.7-11.6-.2-.3-.4-.6-.7-.7-.6-.1-1.5-.2-1.6.1-1.2,2-2.1,4.1-3.2,6.1-1.3,2.3-2.6,4.5-3.9,6.8,2.7,1.5,5.7.3,8.5.7.1,0,.3,0,.5,0h0Z"/>
  <path class="st1" d="M287.83,144.76c0,5.1-.1,10.3.1,15.4.1,2-.7,2.2-2.3,2.1-1.1-.1-2.3-.1-3.5,0-1.1.1-1.3-.5-1.3-1.5v-31.8c0-1.5,1.9-2.7,4.2-2.7,1.7,0,2.8.9,2.8,2.6.1,5.3,0,10.6,0,15.9h0Z"/>
  <path class="st0" d="M19.53,133.26h9.9c2.9,0,3.5.6,3.6,3.3v3c0,2.4-1.1,3.6-3.6,3.7-2.5.1-5,0-7.5,0-2.3,0-4.6.1-7,0-2.3-.1-4.5-.2-6.8-.3,0-3-.1-5.9-.1-8.9,0-.3,1-.7,1.5-.7,3.3-.1,6.6-.1,10-.1h0Z"/>
  <path class="st0" d="M114.03,149.26h-.5c-2.8-.3-5.8.8-8.5-.7,1.3-2.3,2.7-4.5,3.9-6.8,1.1-2,2.1-4.1,3.2-6.1.2-.3,1.1-.2,1.6-.1.3,0,.5.4.7.7,2.2,3.9,4.3,7.8,6.7,11.6,1,1.5.5,1.4-.7,1.4-2.2,0-4.3,0-6.4,0h0Z"/>
  <path class="st1" d="M333.67,197.5v-9.5c0-1.2.2-1.8,1.6-1.8,4.1.1,8.3.1,12.5,0,2.6-.1,4,2.1,4.8,3.7.7,1.4.9,3.9-1.3,5.3-.4.3-.7.7-1.1,1.1-.8.9,0,.8.6,1,.4.1.9.4,1.2.8,1.2,1.9,2.5,3.7,1.4,6.1-1.1,2.5-2.9,4-5.7,4.1h-3c-3.6-.1-7.2-.2-10.8-.4v-10.4h-.2ZM342.17,206.3c2,0,4,.1,6,0,1.6-.1,3.5-2.4,3.5-4.4,0-1.4-1.9-3.5-3.4-3.5-3.8-.1-7.7,0-11.5,0-.4,0-1,.4-1,.7,0,2.3,0,4.6.1,6.9,1.8.1,3.6.2,5.4.4.3-.1.6-.1.9-.1h0ZM342.27,188.4h-1.5c-3.9,0-5.6,1.9-5.1,5.6,0,.2-.1.4,0,.5.6.6,1.3,1.7,2,1.8,3,.2,6,.3,9,0,2.7-.2,4.2-2.1,4-4.4-.2-1.9-2.1-3.5-4.4-3.5-1.3-.1-2.6,0-4,0h0Z"/>
  <path class="st1" d="M480.67,202.8v5c0,.2-.5.6-.7.5-.4,0-1.1-.2-1.2-.5-.2-.4,0-1-.1-1.5-.1-1.3-.9-1.2-1.7-.8-1.4.8-1.8,2.7-3.8,2.8-1.4.1-2.7.9-4.1.9-1.9-.1-4-.1-5.5-1-2.2-1.2-4-3-5.1-5.6-1.9-4.3-.7-13.6,5.1-15.6.7-.3,1.5-.6,2.2-.7,2-.1,4-.1,6,0,3.7,0,6.8,2.2,8,5.6.1.4-.1,1.1-.4,1.2-.3.2-.9,0-1.3-.2s-.9-.6-1-1c-1.7-3.7-5-4.7-8.5-4.5-3.6.2-6.5,2-8,5.6-1.9,4.4-.2,10.6,3.9,13.2,3.7,2.3,10.1.9,12.9-3,.5-.7.3-1.9.8-2.6.4-.7,1.3-1.3-.3-1.3-2-.1-4,0-6-.1-.3,0-.8-.5-.8-.9s.4-1.1.6-1.1c2.8-.1,5.6-.1,8.5,0,.3,0,.8.6.8.9-.3,1.7-.3,3.2-.3,4.7h0Z"/>
  <path class="st1" d="M233.77,197.6v9c0,.6-.3,1.6-.5,1.6-.7.1-1.8.1-2.3-.4-1.4-1.1-3.1-2.3-3.8-3.9-.9-1.9-2.5-3-3.6-4.5-1.1-1.4-2.1-2.8-3.2-4.2-1.1-1.4-2.1-2.8-3.2-4.1-.4-.4-1.1-.6-1.6-.9-.2.5-.7,1-.7,1.5-.1,5.1,0,10.3-.1,15.4,0,.3-.5.7-.8,1-.4-.4-.8-.7-1.2-1.1-.1-.1,0-.3,0-.5v-18.9c0-.5.4-1.3.8-1.4.5-.2,1.4-.1,1.9.2,1,.8,2.1,1.7,2.8,2.8,2.5,3.7,5.5,7.1,8.5,10.4.4.5.7,1,1,1.6.9,1.4,1.6,2.9,3.5,2.9.2-1.3.5-2.5.5-3.8.1-4.3,0-8.6.1-12.9,0-.4.6-.8,1-1.2.3.4.9.9.9,1.3,0,3.5,0,6.8,0,10.1h0Z"/>
  <path class="st1" d="M320.67,197.6v9c0,.6-.4,1.7-.5,1.7-.9-.1-2.1-.1-2.6-.7-2.1-2.4-3.8-5.1-5.9-7.5-2.6-3.1-5.3-6.1-8-9.2-.2-.2-.5-.2-.7-.4-.1.3-.3.6-.3.9v15.9c0,.3-.5.7-.7,1-.4-.4-.8-.7-1.2-1.1-.1-.1,0-.3,0-.5v-18.9c0-1.2,1.3-2,2.3-1.5.4.2.9.5,1.1.9.3.5.4,1.2.8,1.7,4.2,4.9,8.4,9.8,12.7,14.7.2.2.5.5.7.7.2-.4.5-.8.5-1.3v-13.9c0-.7-.1-1.4,0-2,.1-.3.6-.7,1-.7.3,0,.9.5.9.8,0,3.4-.1,6.9-.1,10.4h0Z"/>
  <path class="st1" d="M77.97,197.1v-10.4c3.6-.1,7.2-.3,10.8-.3,5,0,8.9,4.1,9,9.2v3.5c0,3.9-2.4,7.4-6.1,8.9-.4.2-.9.4-1.3.4-3.8,0-7.7.1-11.5,0-.4,0-1-.8-1-1.2-.1-3.3-.1-6.7-.1-10q.1-.1.2-.1h0ZM79.97,197.1h-.1v7.4c0,1.1,0,1.9,1.5,1.8,2.8-.1,5.6-.1,8.4,0,1,0,1.7-.4,2.6-1,4.1-3,3.8-7.4,3.3-11.5-.2-1.8-2.2-3.4-3.8-4.8-.7-.6-2.1-.7-3.2-.7-2.9,0-5.9.2-8.8.3l.1,8.5h0Z"/>
  <path class="st1" d="M191.77,197.4v-9.5c0-.9,0-1.6,1.2-1.6,5.3,0,10.7,0,16,.1.3,0,.7.6.7,1,0,.3-.4.9-.7.9-.8.1-1.7.1-2.5.1h-11c-1.2,0-1.8.2-1.7,1.6.1,2,.1,4,.1,6,1.9.1,3.9.4,5.8.4,2.5.1,5,0,7.5,0,.8,0,1.8-.1,1.6,1.2-.1.4-.9.8-1.4.8-3.8.1-7.7.1-11.5,0-1.3,0-2.2,0-2.1,1.8.2,2,.1,3.9.2,5.9,1.9.1,3.9.3,5.9.3,2.8.1,5.7,0,8.5.1.5,0,1.3.4,1.4.8.2,1.2-.7,1.2-1.6,1.2h-5.5c-3.5,0-7-.1-10.5-.1-.2-3.6-.4-7.2-.6-10.8q.1-.2.2-.2h0Z"/>
  <path class="st1" d="M263.57,196.8c.2-3.4.4-6.9.5-10.3,3.3-.1,6.6-.1,9.9-.1,1.8,0,3.7-.1,5.5.1.4,0,.8.7,1.2,1-.5.3-.9.9-1.4.9-4,.1-8,.1-12,0-1.3,0-1.7.4-1.6,1.7.1,2,.1,4,.1,5.9,2,.1,3.9.3,5.8.4,2.7.1,5.3,0,8,.1.4,0,.7.5,1,.7-.4.4-.7,1.2-1,1.2-4.2.1-8.3.1-12.5,0-1,0-1.5.2-1.5,1.4.1,2.1.2,4.3.2,6.4,2,.1,3.9.2,5.9.2,3,0,6,0,9,.1.3,0,.8.6.8.9s-.4,1-.6,1c-5.5.1-11,.1-16.5,0-.3,0-.8-.9-.8-1.4-.1-3.3,0-6.7,0-10,.1-.2,0-.2,0-.2h0Z"/>
  <path class="st1" d="M47.87,197.2v-10.4c3.6-.1,7.2-.3,10.8-.4,1.7-.1,3.3-.1,5,.1.4,0,.7.8,1.1,1.1-.3.3-.7.7-1,.8-1.7.1-3.3,0-5,0h-3.5c-1.8.1-3.6.2-5.3.3,0,2.3-.2,4.6-.1,6.9,0,.2,1,.7,1.5.7,3.5.1,7,0,10.5,0,.5,0,1-.1,1.5,0,.5.2,1.3.5,1.4.9.2,1.3-.8,1.1-1.6,1.1h-12c-1.1,0-1.5.5-1.3,1.5v1c.1,1.8.2,3.6.3,5.4,1.6.1,3.3.1,4.9.2,3.3,0,6.7,0,10,.1.3,0,.7.7.7,1s-.5.9-.8.9c-5.3.1-10.7,0-16,.1-1.3,0-1.2-.8-1.2-1.6v-9.5c0-.2.1-.2.1-.2h0Z"/>
  <path class="st1" d="M147.97,197.1v-10.4c3.6-.1,7.2-.2,10.8-.3,1.7,0,3.3-.1,5,0,.4,0,.7.5,1,.8-.4.4-.7,1.1-1.1,1.1-.8.2-1.6.1-2.5.1-3.2,0-6.3.1-9.5,0-1.5-.1-2.1.3-1.9,1.9.2,1.9.2,3.9.3,5.9,2,.1,3.9.2,5.9.2h8c.3,0,.5.3.8.4-.2.2-.4.6-.6.7-.9.3-1.8.8-2.6.8-3.5.1-7,0-10.5.1-.4,0-.9.6-1.2,1.1-.2.2-.1.6,0,1,.1,1.9.3,3.9.4,5.8,1.8,0,3.6.1,5.5.1,2.7,0,5.3,0,8,.1.4,0,.8.7,1.1,1.1-.3.3-.6.8-.9.8-5,.1-10,.1-15,0-.4,0-1-.8-1-1.2-.1-3.3-.1-6.6-.1-10q0-.1.1-.1h0Z"/>
  <path class="st1" d="M168.77,197.4c0-3.1.1-6.3,0-9.5,0-1.3.4-1.7,1.7-1.7,3.6.1,7.3.1,10.9,0,1.9-.1,3.4.8,4.7,1.9,2.2,1.7,2.5,5.8.5,7.7-1.3,1.3-2,1.9-.3,3.6,2.2,2.2,1.5,5.4,1.4,8.3,0,.2-.5.5-.8.4-.4-.1-1.1-.4-1.1-.6-.1-1.1,0-2.3-.1-3.5-.1-3-2.2-5.4-5.1-5.9-.5-.1-1,0-1.5,0-2.6,0-5.3.1-7.9.1-.1,2.6-.3,5.2-.4,7.8v.5c0,.8.1,1.8-1.1,1.6-.4-.1-.8-.9-.8-1.4-.1-2,0-4,0-6l-.1-3.3h0ZM177.17,188.4v-.2c-2.1.2-4.2.4-6.3.6,0,2-.1,4-.1,5.9,0,.5-.1,1.1,0,1.5.2.5.7,1.1,1.1,1.1,2.5.1,5,0,7.5.1,1.9.1,3.3-.9,4.7-1.9,1.5-1.1,2-2.5,1.6-4.3-.3-1.3-2.5-2.8-4.1-2.9-1.4,0-2.9.1-4.4.1h0Z"/>
  <path class="st1" d="M357.47,197.2c.2-3.6.4-7.2.6-10.8,3.5,0,6.9-.1,10.4-.1,1.3,0,2.7-.1,3.9.2,4.6,1.5,5.8,5.7,2.6,9.8-1.1,1.4-.9,1.8.1,2.9,2.2,2.5,1.8,5.7,1.4,8.7,0,.1-.5.3-.8.3s-.8-.2-.8-.4c-.1-1.1-.1-2.3-.1-3.4-.2-3.8-2.5-6-6.3-6.2h-1c-2.5.1-4.9.1-7.4.2-.1,2.4-.2,4.9-.3,7.4,0,.3.1.7,0,1-.2.5-.5,1.3-.9,1.4-1.2.2-1.1-.8-1.1-1.6v-9.5l-.3.1h0ZM366.17,188.4v-.2c-2.1.2-4.2.4-6.3.6,0,2-.1,4-.1,5.9,0,.5-.1,1.1,0,1.5.2.5.7,1.1,1.1,1.1,2.5.1,5,0,7.5.1,1.9.1,3.3-.9,4.7-1.9,1.5-1.1,2-2.5,1.6-4.3-.3-1.3-2.5-2.8-4.1-2.9-1.4,0-2.9.1-4.4.1h0Z"/>
  <path class="st1" d="M433.67,197.4v-10c0-.4.4-.8.7-1,.2-.1.7,0,.9.2,1.1,1,2.2,2,3.2,3.2,3.6,4.5,7.1,9.1,10.6,13.6.3.4.7.7,1.1,1.1.3.3.7.6,1.1.9.1-.4.4-.9.4-1.3v-14.5c0-.8-.1-1.7.1-2.5,0-.3.7-.5,1.2-.6.2,0,.7.2.8.5.1.5,0,1,0,1.5v18c0,.7.5,1.9-.8,1.9-.7.1-1.6-.1-2.2-.6-.9-.7-1.8-1.5-2.5-2.4-2.4-3.6-5-7.1-8.1-10.1-.5-.5-.9-1.3-1.4-1.9-.9-1.3-1.5-3-3.5-2.8-.1,1.3-.4,2.5-.4,3.8v13c0,.3-.4.7-.6,1-.1-.3-.4-.6-.4-.8-.2-3.6-.2-6.9-.2-10.2h0Z"/>
  <path class="st1" d="M403.67,197c0-2-.2-4,.1-6,.2-1.6-1.2-4.4,1.1-4.4,1.9-.1.7,2.7.8,4.2.2,2.1,0,4.3.1,6.5,0,.3.2.6.3.9.2-.1.5-.1.7-.3,2.9-2.6,5.9-5.1,8.8-7.8,1.8-1.6,3.7-2.9,6-3.7.3-.1.9.3,1.3.5-.2.2-.5.5-.7.7-2.8,2.1-5.6,4.2-8.3,6.4-1.3,1-1.4,2.5-.1,3.7,3.1,3.2,6.4,6.4,9.5,9.6.2.2.2.7.2,1-.3,0-.7.2-1,.1-.7-.3-1.6-.5-2.1-1-2.8-3.2-6.6-5.5-8.6-9.4-.2-.3-.8-.6-1.2-.5-2.6.5-4.7,3.1-4.8,5.7v4.5c0,.3-.7.7-1,.7s-.9-.5-.9-.8c-.2-3.6-.2-7.1-.2-10.6h0Z"/>
  <path class="st1" d="M237.77,197.2c-.6-3.4.6-6.5,3.6-9,1.4-1.1,2.8-2,4.7-1.9,1.5.1,3,0,4.5,0,3.8,0,7.4,2.5,8.8,6.2.1.2,0,.6-.1.7-.3.1-.7.2-.9.1-.5-.4-1.1-.8-1.5-1.3-3.4-5.4-11-5.8-14.8-1.8-1.7,1.8-2.9,3.4-2.5,6,.3,1.9-.1,4,.4,5.8.9,3.6,4.3,4.7,7.2,5.1,4.6.6,8.1-.5,10.5-5.4.1-.3-.1-.8.1-.9.4-.3.9-.5,1.3-.4.3.1.5.7.6,1.1,0,.2-.3.5-.4.8-3.1,6.2-9.2,8.8-15.5,5.9-2.1-1-3.9-3-5.4-4.9-.7-.8-.5-2.4-.6-3.7-.1-.6,0-1.3,0-2.4h0Z"/>
  <path class="st1" d="M400.67,207.8c-.4.2-.7.5-1,.5-.7-.1-2,.5-1.9-.8.1-2.1-1.4-3.4-2.1-5.1-.2-.4-.8-1-1.2-1-3.1-.1-6.3-.1-9.5,0-1.3,0-1.9.9-2.3,2-.6,1.6-1.4,3.1-2.1,4.6-.1.3-1,.5-1.3.3-.3-.1-.4-.8-.5-1.2,0-.1.1-.3.2-.4,3.5-6,5.6-12.6,8.8-18.8,1-1.9,2.1-2.2,3.4-.7.5.6.8,1.3,1.1,2,2.7,6,5.4,12,8.1,18-.2.2,0,.3.3.6h0ZM388.67,200.3c1.3,0,2.6.1,4,0,.4,0,.9-.4,1-.7.5-1.4-3.1-9.7-4.3-10.1-.9,1.8-1.8,3.6-2.8,5.4-.2.4-.7.7-.9,1.1-1.9,3.8-1.6,4.3,2.5,4.3.1.1.3.1.5,0h0Z"/>
  <path class="st1" d="M22.87,197.1v-9.5c0-.4.7-.8,1-1.2.3.5.9.9.9,1.4.1,2.3.1,4.7,0,7-.1,1.3.4,1.7,1.7,1.6,1.8-.1,3.7,0,5.5,0,2.8,0,5.6-.1,8.5-.1.1-2.8.3-5.6.4-8.3,0-.2-.1-.4,0-.5.4-.4.8-.7,1.2-1.1.2.4.7.7.7,1v20c0,.3-.5.6-.8,1-.4-.4-1.1-.7-1.1-1.1-.1-2.8-.1-5.7,0-8.5,0-1.1-.4-1.4-1.4-1.4-4.3,0-8.7.1-13,0-1.4,0-1.6.5-1.6,1.7.1,2.8,0,5.7,0,8.5,0,.3-.6.7-1,.7-.3,0-1-.5-1-.7,0-3.5,0-7,0-10.5h0Z"/>
  <path class="st1" d="M127.67,197.3c.2-3.6.3-7.2.5-10.8,3.6-.1,7.2-.1,10.9-.2,1.7,0,3.3-.1,5,0,.3,0,.7.6.8.9,0,.3-.4,1-.7,1-4,.1-8,0-11.9.1q-2.2,0-2.3,2.5v.5c0,3.3,1.6,5,4.8,5h8.5c.3,0,.7.6.7.9s-.5.9-.7,1c-2.3.1-4.6,0-7,.1-2,0-3.9.1-5.9.2-.1,1.9-.2,3.9-.3,5.8,0,1,.1,2,0,3,0,.4-.5.7-.7,1-.4-.4-1.2-.7-1.2-1.1-.1-3.3-.1-6.6-.1-9.9h-.4Z"/>
  <path class="st1" d="M108.67,196.8c.2-3.4.3-6.9.5-10.3,3.5-.1,6.9-.1,10.4-.1,1.6,0,3.3.1,4.9.2.1,0,.3.5.3.8s-.1.7-.3.8c-.4.2-.9.2-1.4.2h-6c-2,0-3.9.1-5.9.1-.1,2.1-.2,4.2-.4,6.3-.2,1.5.7,1.5,1.8,1.5h9.5c.7,0,1.4-.1,2,.1.3.1.7.6.7,1s-.5.9-.7.9c-3.1.1-6.3,0-9.4,0-2.5,0-3.7,1.3-3.7,4v5c0,.4-.5.7-.8,1-.4-.4-1.2-.7-1.2-1.1-.1-3.5-.1-7-.1-10.4h-.2Z"/>
  <path class="st1" d="M9.87,198.1v-2c0-2.5-.1-4.9-.1-7.4-2.4-.1-4.9-.2-7.3-.4-.3,0-.8.1-1,0-.3-.3-.5-.8-.6-1.2,0-.2.3-.5.5-.8.1-.1.3,0,.5,0,5.6,0,11.3,0,16.9.1.4,0,.7.8,1.1,1.2-.3.3-.6.7-1,.7-.8.1-1.6,0-2.5,0-3,0-4.5,1.6-4.5,4.8v14.4c0,.3-.6.8-.9.8s-1-.4-1-.7c-.2-3.2-.1-6.3-.1-9.5h0Z"/>
  <path class="st1" d="M295.67,197.3v9.9c0,.4-.8.7-1.2,1-.2-.3-.7-.7-.7-1v-19.9c0-.4.8-.7,1.2-1,.2.3.7.7.7,1,.1,3.4,0,6.7,0,10h0Z"/>
  <path class="st1" d="M428.67,197.9v9.5c0,.4-.5.7-.7,1-.4-.4-1.2-.7-1.2-1.1-.1-6.6-.1-13.3,0-19.9,0-.3.5-.7.7-1,.4.4,1.2.7,1.2,1.1v10.4Z"/>
  <path class="st1" d="M103.77,197.9v9.5c0,.3-.5.7-.8,1-.4-.4-1.2-.7-1.2-1.1-.1-6.6-.1-13.3,0-19.9,0-.3.5-.7.8-1,.4.4,1.2.7,1.2,1.1.1,3.4,0,6.9,0,10.4h0Z"/>
  <path class="st0" d="M342.17,206.3h-1c-1.8-.1-3.6-.2-5.4-.4,0-2.3-.1-4.6-.1-6.9,0-.2.7-.7,1-.7,3.8-.1,7.7-.1,11.5,0,1.6,0,3.5,2.1,3.4,3.5-.1,2-1.9,4.4-3.5,4.4-1.9.2-3.9.2-5.9.1h0Z"/>
  <path class="st0" d="M342.27,188.4h4c2.3.1,4.2,1.6,4.4,3.5.2,2.2-1.3,4.2-4,4.4-3,.2-6,.2-9,0-.7-.1-1.4-1.1-2-1.8-.1-.1,0-.3,0-.5-.5-3.8,1.3-5.6,5.1-5.6h1.5Z"/>
  <path class="st0" d="M79.97,197.1v-8.4c2.9-.1,5.9-.3,8.8-.3,1.1,0,2.5,0,3.2.7,1.5,1.4,3.5,3.1,3.8,4.8.6,4.1.8,8.5-3.3,11.5-.9.6-1.6,1-2.6,1-2.8-.1-5.6-.1-8.4,0-1.5.1-1.5-.7-1.5-1.8v-7.4q-.1-.1,0-.1h0Z"/>
  <path class="st0" d="M177.17,188.4h4.5c1.6,0,3.8,1.5,4.1,2.9.4,1.8-.1,3.2-1.6,4.3-1.4,1-2.8,1.9-4.7,1.9-2.5-.1-5,0-7.5-.1-.4,0-.9-.7-1.1-1.1-.2-.4-.1-1,0-1.5,0-2,.1-4,.1-5.9,2.1-.2,4.2-.4,6.3-.6-.1-.1-.1,0-.1.1h0Z"/>
  <path class="st0" d="M366.17,188.4h4.5c1.6,0,3.8,1.5,4.1,2.9.4,1.8-.1,3.2-1.6,4.3-1.4,1-2.8,1.9-4.7,1.9-2.5-.1-5,0-7.5-.1-.4,0-.9-.7-1.1-1.1-.2-.4,0-1,0-1.5,0-2,.1-4,.1-5.9,2.1-.2,4.2-.4,6.3-.6-.2-.1-.2,0-.1.1h0Z"/>
  <path class="st0" d="M388.67,200.3h-.5c-4.1,0-4.4-.5-2.5-4.3.2-.4.7-.7.9-1.1,1-1.8,1.9-3.6,2.8-5.4,1.2.4,4.8,8.7,4.3,10.1-.1.3-.7.7-1,.7-1.4.1-2.7,0-4,0h0Z"/>
</svg>