<?xml version="1.0" encoding="UTF-8"?>
<svg xmlns="http://www.w3.org/2000/svg" version="1.1" viewBox="0 0 695.54 224.05">
  <!-- Generator: Adobe Illustrator 29.1.0, SVG Export Plug-In . SVG Version: 2.1.0 Build 142)  -->
  <defs>
    <style>
      .st0 {
        fill: #0a0203;
      }

      .st1 {
        fill: #fff;
      }

      .st2 {
        display: none;
      }
    </style>
  </defs>
  <g id="Layer_2" class="st2">
    <g>
      <g>
        <path class="st0" d="M.4,193.29h13.99c3.05,0,5.33.8,6.84,2.41,1.52,1.61,2.27,3.9,2.27,6.87s-.83,5.44-2.48,7.16c-1.65,1.72-4.18,2.58-7.57,2.58h-4.61v11.23H.4v-30.25ZM8.85,206.18h2.06c1.62,0,2.76-.31,3.42-.94.66-.63.98-1.43.98-2.4s-.29-1.75-.85-2.41c-.57-.66-1.64-.99-3.21-.99h-2.4v6.75Z"/>
        <path class="st0" d="M26.75,193.29h22.55v6.46h-14.12v4.81h13.09v6.17h-13.09v5.96h14.52v6.85h-22.96v-30.25Z"/>
        <path class="st0" d="M53.21,223.54v-30.25h14.02c2.6,0,4.59.25,5.96.74,1.37.5,2.48,1.41,3.32,2.75.84,1.34,1.26,2.97,1.26,4.9,0,1.68-.32,3.13-.97,4.34-.64,1.22-1.53,2.21-2.66,2.96-.72.48-1.7.88-2.95,1.2,1,.37,1.73.74,2.19,1.12.31.25.76.78,1.35,1.59s.98,1.44,1.18,1.88l4.07,8.77h-9.51l-4.5-9.25c-.57-1.2-1.08-1.97-1.52-2.33-.61-.47-1.29-.7-2.06-.7h-.74v12.28h-8.45ZM61.66,205.54h3.55c.38,0,1.13-.14,2.23-.41.56-.12,1.01-.44,1.37-.95.35-.51.53-1.09.53-1.75,0-.98-.28-1.73-.84-2.25-.56-.52-1.6-.78-3.14-.78h-3.7v6.15Z"/>
        <path class="st0" d="M81.58,193.29h20.8v6.5h-12.35v5.28h10.55v6.11h-10.55v12.36h-8.45v-30.25Z"/>
        <path class="st0" d="M104.71,208.43c0-4.94,1.24-8.78,3.71-11.54,2.48-2.75,5.92-4.13,10.34-4.13s8.02,1.35,10.48,4.05c2.45,2.7,3.68,6.49,3.68,11.36,0,3.54-.54,6.44-1.61,8.7-1.07,2.26-2.62,4.02-4.64,5.28-2.02,1.26-4.55,1.89-7.57,1.89s-5.61-.54-7.62-1.63c-2.01-1.09-3.64-2.81-4.89-5.16-1.25-2.35-1.88-5.3-1.88-8.83ZM113.12,208.47c0,3.05.51,5.25,1.53,6.58,1.02,1.33,2.41,2,4.17,2s3.21-.65,4.2-1.96c.99-1.31,1.49-3.65,1.49-7.04,0-2.85-.52-4.93-1.55-6.24-1.03-1.31-2.44-1.97-4.21-1.97s-3.06.67-4.09,2c-1.03,1.33-1.54,3.54-1.54,6.62Z"/>
        <path class="st0" d="M136.42,223.54v-30.25h14.02c2.6,0,4.59.25,5.96.74,1.37.5,2.48,1.41,3.32,2.75.84,1.34,1.26,2.97,1.26,4.9,0,1.68-.32,3.13-.97,4.34-.64,1.22-1.53,2.21-2.66,2.96-.72.48-1.7.88-2.95,1.2,1,.37,1.73.74,2.19,1.12.31.25.76.78,1.35,1.59s.98,1.44,1.18,1.88l4.07,8.77h-9.51l-4.5-9.25c-.57-1.2-1.08-1.97-1.52-2.33-.61-.47-1.29-.7-2.06-.7h-.74v12.28h-8.45ZM144.87,205.54h3.55c.38,0,1.13-.14,2.23-.41.56-.12,1.01-.44,1.37-.95.35-.51.53-1.09.53-1.75,0-.98-.28-1.73-.84-2.25-.56-.52-1.6-.78-3.14-.78h-3.7v6.15Z"/>
        <path class="st0" d="M164.66,193.29h11.06l4.27,18.41,4.24-18.41h11.06v30.25h-6.89v-23.07l-5.31,23.07h-6.24l-5.3-23.07v23.07h-6.89v-30.25Z"/>
        <path class="st0" d="M216.26,218.54h-9.55l-1.33,4.99h-8.59l10.23-30.25h9.18l10.23,30.25h-8.81l-1.36-4.99ZM214.51,212l-3.01-10.88-2.97,10.88h5.98Z"/>
        <path class="st0" d="M228.02,193.29h7.86l10.25,16.74v-16.74h7.93v30.25h-7.93l-10.2-16.61v16.61h-7.91v-30.25Z"/>
        <path class="st0" d="M276.63,211.16l7.37,2.48c-.5,2.3-1.28,4.22-2.34,5.76-1.07,1.54-2.39,2.7-3.97,3.49-1.58.78-3.59,1.18-6.03,1.18-2.96,0-5.38-.48-7.25-1.43-1.88-.96-3.49-2.64-4.86-5.04-1.36-2.41-2.04-5.49-2.04-9.24,0-5,1.2-8.85,3.59-11.54,2.4-2.69,5.79-4.03,10.17-4.03,3.43,0,6.13.77,8.09,2.31,1.96,1.54,3.42,3.91,4.37,7.1l-7.43,1.84c-.26-.92-.53-1.6-.82-2.02-.47-.72-1.05-1.27-1.73-1.65-.68-.38-1.44-.58-2.28-.58-1.91,0-3.37.85-4.38,2.56-.77,1.26-1.15,3.25-1.15,5.96,0,3.35.46,5.65,1.37,6.89.92,1.24,2.2,1.87,3.86,1.87s2.83-.5,3.65-1.51c.82-1,1.42-2.46,1.79-4.38Z"/>
        <path class="st0" d="M286.93,193.29h22.55v6.46h-14.12v4.81h13.09v6.17h-13.09v5.96h14.52v6.85h-22.96v-30.25Z"/>
        <path class="st0" d="M322.91,193.29h25.57v7.47h-8.58v22.78h-8.41v-22.78h-8.58v-7.47Z"/>
        <path class="st0" d="M351.49,193.29h8.43v30.25h-8.43v-30.25Z"/>
        <path class="st0" d="M362.9,193.29h25.57v7.47h-8.58v22.78h-8.41v-22.78h-8.58v-7.47Z"/>
        <path class="st0" d="M405.3,218.54h-9.55l-1.33,4.99h-8.59l10.23-30.25h9.18l10.23,30.25h-8.81l-1.36-4.99ZM403.55,212l-3.01-10.88-2.97,10.88h5.98Z"/>
        <path class="st0" d="M417.06,193.29h7.86l10.25,16.74v-16.74h7.93v30.25h-7.93l-10.2-16.61v16.61h-7.91v-30.25Z"/>
        <path class="st0" d="M447.88,193.29h8.43v30.25h-8.43v-30.25Z"/>
        <path class="st0" d="M478.93,193.29h8.4v18.02c0,1.79-.25,3.47-.75,5.06-.5,1.59-1.29,2.98-2.36,4.17-1.07,1.19-2.19,2.02-3.37,2.51-1.63.67-3.6,1.01-5.89,1.01-1.32,0-2.77-.1-4.34-.31-1.57-.21-2.88-.62-3.93-1.23-1.05-.61-2.01-1.48-2.89-2.61-.87-1.13-1.47-2.29-1.79-3.49-.52-1.92-.78-3.63-.78-5.11v-18.02h8.39v18.45c0,1.65.41,2.94,1.24,3.87.82.93,1.97,1.39,3.43,1.39s2.58-.46,3.41-1.37c.82-.91,1.23-2.21,1.23-3.89v-18.45Z"/>
        <path class="st0" d="M491.66,193.29h11.06l4.27,18.41,4.24-18.41h11.06v30.25h-6.89v-23.07l-5.31,23.07h-6.24l-5.3-23.07v23.07h-6.89v-30.25Z"/>
        <path class="st0" d="M551.75,212.58v-6.29h13v12.9c-2.49,1.88-4.69,3.17-6.6,3.85-1.91.68-4.18,1.02-6.81,1.02-3.23,0-5.87-.61-7.9-1.84-2.04-1.22-3.62-3.05-4.74-5.47-1.12-2.42-1.68-5.2-1.68-8.34,0-3.3.61-6.17,1.84-8.62,1.23-2.44,3.02-4.3,5.39-5.56,1.84-.98,4.33-1.46,7.45-1.46s5.26.3,6.75.91c1.49.61,2.73,1.54,3.71,2.82.98,1.27,1.72,2.89,2.22,4.84l-8.12,1.61c-.33-1.14-.9-2.02-1.7-2.62-.8-.61-1.82-.91-3.06-.91-1.84,0-3.32.71-4.41,2.14-1.1,1.42-1.64,3.68-1.64,6.76,0,3.27.55,5.61,1.66,7.02s2.65,2.1,4.63,2.1c.94,0,1.84-.15,2.69-.45.85-.3,1.83-.82,2.93-1.55v-2.85h-5.63Z"/>
        <path class="st0" d="M568.71,223.54v-30.25h14.02c2.6,0,4.59.25,5.96.74,1.37.5,2.48,1.41,3.32,2.75.84,1.34,1.26,2.97,1.26,4.9,0,1.68-.32,3.13-.97,4.34-.64,1.22-1.53,2.21-2.66,2.96-.72.48-1.7.88-2.96,1.2,1,.37,1.73.74,2.19,1.12.31.25.76.78,1.35,1.59.59.81.98,1.44,1.18,1.88l4.07,8.77h-9.51l-4.5-9.25c-.57-1.2-1.08-1.97-1.52-2.33-.61-.47-1.29-.7-2.06-.7h-.74v12.28h-8.45ZM577.16,205.54h3.55c.38,0,1.13-.14,2.23-.41.56-.12,1.01-.44,1.37-.95.35-.51.53-1.09.53-1.75,0-.98-.28-1.73-.84-2.25-.56-.52-1.6-.78-3.14-.78h-3.7v6.15Z"/>
        <path class="st0" d="M595.34,208.43c0-4.94,1.24-8.78,3.71-11.54,2.48-2.75,5.92-4.13,10.35-4.13s8.02,1.35,10.47,4.05c2.45,2.7,3.68,6.49,3.68,11.36,0,3.54-.54,6.44-1.61,8.7-1.07,2.26-2.62,4.02-4.64,5.28-2.02,1.26-4.55,1.89-7.57,1.89s-5.61-.54-7.62-1.63c-2.01-1.09-3.64-2.81-4.89-5.16-1.25-2.35-1.88-5.3-1.88-8.83ZM603.75,208.47c0,3.05.51,5.25,1.53,6.58,1.02,1.33,2.41,2,4.17,2s3.21-.65,4.2-1.96c.99-1.31,1.49-3.65,1.49-7.04,0-2.85-.52-4.93-1.55-6.24-1.03-1.31-2.44-1.97-4.21-1.97s-3.06.67-4.09,2c-1.03,1.33-1.54,3.54-1.54,6.62Z"/>
        <path class="st0" d="M644.66,193.29h8.4v18.02c0,1.79-.25,3.47-.75,5.06-.5,1.59-1.29,2.98-2.36,4.17-1.07,1.19-2.19,2.02-3.37,2.51-1.63.67-3.6,1.01-5.89,1.01-1.32,0-2.77-.1-4.34-.31-1.57-.21-2.88-.62-3.93-1.23-1.05-.61-2.01-1.48-2.89-2.61-.87-1.13-1.47-2.29-1.79-3.49-.52-1.92-.78-3.63-.78-5.11v-18.02h8.39v18.45c0,1.65.41,2.94,1.24,3.87.82.93,1.97,1.39,3.43,1.39s2.58-.46,3.41-1.37c.82-.91,1.23-2.21,1.23-3.89v-18.45Z"/>
        <path class="st0" d="M657.45,193.29h13.99c3.05,0,5.33.8,6.84,2.41,1.52,1.61,2.28,3.9,2.28,6.87s-.83,5.44-2.48,7.16c-1.65,1.72-4.18,2.58-7.57,2.58h-4.61v11.23h-8.45v-30.25ZM665.9,206.18h2.06c1.62,0,2.76-.31,3.42-.94.66-.63.98-1.43.98-2.4s-.29-1.75-.85-2.41c-.57-.66-1.64-.99-3.21-.99h-2.4v6.75Z"/>
      </g>
      <path class="st0" d="M221.24,70.56h-71.65c-1.33,1.36-2.94,2.72-4.86,4.17-6.86,5.15-15.78,7.73-26.74,7.73h-23.52l3.12-11.89H26.55l-3.26,14.33h190.21c3.07-4.4,5.72-9.22,7.74-14.33Z"/>
      <path class="st0" d="M209.54,90.06c.59-.71,1.18-1.43,1.75-2.17H22.6l-3.79,16.67h174.38c6.22-4.16,11.81-9.1,16.35-14.5Z"/>
      <path class="st0" d="M104.84,42.95h27.37c14.66,0,22.74,5.39,22.49,16.19-.08,3.22-.9,5.89-2.61,8.43h70.27c1.8-5.28,2.94-10.83,3.2-16.5.47-10.38-2.32-19.84-7.67-27-5.35-7.15-24.33-17.69-51-17.69H41.16l-13.93,61.19h71.14l6.46-24.62Z"/>
      <path class="st0" d="M0,187.2h70.26l15.47-66.36h30.9c24.6,0,43.77-2.29,57.52-6.87,4.9-1.63,9.68-3.81,14.2-6.41H18.13L0,187.2Z"/>
      <polygon class="st0" points="277.54 187.2 355.67 187.2 374.77 107.56 296.55 107.56 277.54 187.2"/>
      <polygon class="st0" points="380.21 84.9 383.65 70.56 305.38 70.56 301.96 84.9 380.21 84.9"/>
      <polygon class="st0" points="388.21 51.53 465.38 51.53 475.54 6.37 243.41 6.37 233.1 51.53 309.93 51.53 306.1 67.56 384.37 67.56 388.21 51.53"/>
      <polygon class="st0" points="301.25 87.9 297.27 104.56 375.49 104.56 379.49 87.9 301.25 87.9"/>
      <path class="st0" d="M455.07,84.9h71.99c1.83-4.81,4.23-9.54,7.25-14.33h-73.46c-2.27,4.65-4.22,9.44-5.78,14.33Z"/>
      <path class="st0" d="M536.82,66.74c10.5-15.13,28.29-26.01,47.05-26.01s32,.67,40.33,20.33l71.33-9.33C682.87-3.94,636.5.06,583.21.06c-27.26,0-47.56,7.64-68.33,17-20.77,9.37-35.28,23.07-46.33,40-2.22,3.41-4.29,6.91-6.17,10.5h73.9c.19-.27.36-.55.55-.82Z"/>
      <polygon class="st0" points="576.33 104.56 686.41 104.56 690.23 87.9 580.21 87.9 576.33 104.56"/>
      <path class="st0" d="M451.13,104.56h71.6c.43-5.79,1.51-11.29,3.27-16.67h-71.84c-1.54,5.44-2.57,11.01-3.03,16.67Z"/>
      <path class="st0" d="M572.87,119.4l47.48-.59-3.14,15.92c-34.67,17.67-72.64,12.41-81,5.67-8.36-6.75-13.36-17.02-13.67-27-.06-1.98-.05-3.92.02-5.83h-71.62c-.09,2-.13,4.01-.06,6.04.75,24.29,7.67,43.46,29.67,57.79,19.22,12.52,54.65,17.46,85.67,16,35.33-1.67,72.33-11.33,108-29.67l11.51-50.17h-110.09l-2.75,11.83Z"/>
      <polygon class="st0" points="691.87 80.73 581.87 80.73 580.91 84.9 690.92 84.9 691.87 80.73"/>
    </g>
  </g>
  <g id="Layer_3">
    <g>
      <path class="st1" d="M.4,193.29h13.99c3.05,0,5.33.8,6.84,2.41,1.52,1.61,2.27,3.9,2.27,6.87s-.83,5.44-2.48,7.16c-1.65,1.72-4.18,2.58-7.57,2.58h-4.61v11.23H.4v-30.25ZM8.85,206.18h2.06c1.62,0,2.76-.31,3.42-.94.66-.63.98-1.43.98-2.4s-.29-1.75-.85-2.41c-.57-.66-1.64-.99-3.21-.99h-2.4v6.75Z"/>
      <path class="st1" d="M26.75,193.29h22.55v6.46h-14.12v4.81h13.09v6.17h-13.09v5.96h14.52v6.85h-22.96v-30.25Z"/>
      <path class="st1" d="M53.21,223.54v-30.25h14.02c2.6,0,4.59.25,5.96.74,1.37.5,2.48,1.41,3.32,2.75.84,1.34,1.26,2.97,1.26,4.9,0,1.68-.32,3.13-.97,4.34-.64,1.22-1.53,2.21-2.66,2.96-.72.48-1.7.88-2.95,1.2,1,.37,1.73.74,2.19,1.12.31.25.76.78,1.35,1.59s.98,1.44,1.18,1.88l4.07,8.77h-9.51l-4.5-9.25c-.57-1.2-1.08-1.97-1.52-2.33-.61-.47-1.29-.7-2.06-.7h-.74v12.28h-8.45ZM61.66,205.54h3.55c.38,0,1.13-.14,2.23-.41.56-.12,1.01-.44,1.37-.95.35-.51.53-1.09.53-1.75,0-.98-.28-1.73-.84-2.25-.56-.52-1.6-.78-3.14-.78h-3.7v6.15Z"/>
      <path class="st1" d="M81.58,193.29h20.8v6.5h-12.35v5.28h10.55v6.11h-10.55v12.36h-8.45v-30.25Z"/>
      <path class="st1" d="M104.71,208.43c0-4.94,1.24-8.78,3.71-11.54,2.48-2.75,5.92-4.13,10.34-4.13s8.02,1.35,10.48,4.05c2.45,2.7,3.68,6.49,3.68,11.36,0,3.54-.54,6.44-1.61,8.7-1.07,2.26-2.62,4.02-4.64,5.28-2.02,1.26-4.55,1.89-7.57,1.89s-5.61-.54-7.62-1.63c-2.01-1.09-3.64-2.81-4.89-5.16-1.25-2.35-1.88-5.3-1.88-8.83ZM113.12,208.47c0,3.05.51,5.25,1.53,6.58,1.02,1.33,2.41,2,4.17,2s3.21-.65,4.2-1.96c.99-1.31,1.49-3.65,1.49-7.04,0-2.85-.52-4.93-1.55-6.24-1.03-1.31-2.44-1.97-4.21-1.97s-3.06.67-4.09,2c-1.03,1.33-1.54,3.54-1.54,6.62Z"/>
      <path class="st1" d="M136.42,223.54v-30.25h14.02c2.6,0,4.59.25,5.96.74,1.37.5,2.48,1.41,3.32,2.75.84,1.34,1.26,2.97,1.26,4.9,0,1.68-.32,3.13-.97,4.34-.64,1.22-1.53,2.21-2.66,2.96-.72.48-1.7.88-2.95,1.2,1,.37,1.73.74,2.19,1.12.31.25.76.78,1.35,1.59s.98,1.44,1.18,1.88l4.07,8.77h-9.51l-4.5-9.25c-.57-1.2-1.08-1.97-1.52-2.33-.61-.47-1.29-.7-2.06-.7h-.74v12.28h-8.45ZM144.87,205.54h3.55c.38,0,1.13-.14,2.23-.41.56-.12,1.01-.44,1.37-.95.35-.51.53-1.09.53-1.75,0-.98-.28-1.73-.84-2.25-.56-.52-1.6-.78-3.14-.78h-3.7v6.15Z"/>
      <path class="st1" d="M164.66,193.29h11.06l4.27,18.41,4.24-18.41h11.06v30.25h-6.89v-23.07l-5.31,23.07h-6.24l-5.3-23.07v23.07h-6.89v-30.25Z"/>
      <path class="st1" d="M216.26,218.54h-9.55l-1.33,4.99h-8.59l10.23-30.25h9.18l10.23,30.25h-8.81l-1.36-4.99ZM214.51,212l-3.01-10.88-2.97,10.88h5.98Z"/>
      <path class="st1" d="M228.02,193.29h7.86l10.25,16.74v-16.74h7.93v30.25h-7.93l-10.2-16.61v16.61h-7.91v-30.25Z"/>
      <path class="st1" d="M276.63,211.16l7.37,2.48c-.5,2.3-1.28,4.22-2.34,5.76-1.07,1.54-2.39,2.7-3.97,3.49-1.58.78-3.59,1.18-6.03,1.18-2.96,0-5.38-.48-7.25-1.43-1.88-.96-3.49-2.64-4.86-5.04-1.36-2.41-2.04-5.49-2.04-9.24,0-5,1.2-8.85,3.59-11.54,2.4-2.69,5.79-4.03,10.17-4.03,3.43,0,6.13.77,8.09,2.31,1.96,1.54,3.42,3.91,4.37,7.1l-7.43,1.84c-.26-.92-.53-1.6-.82-2.02-.47-.72-1.05-1.27-1.73-1.65-.68-.38-1.44-.58-2.28-.58-1.91,0-3.37.85-4.38,2.56-.77,1.26-1.15,3.25-1.15,5.96,0,3.35.46,5.65,1.37,6.89.92,1.24,2.2,1.87,3.86,1.87s2.83-.5,3.65-1.51c.82-1,1.42-2.46,1.79-4.38Z"/>
      <path class="st1" d="M286.93,193.29h22.55v6.46h-14.12v4.81h13.09v6.17h-13.09v5.96h14.52v6.85h-22.96v-30.25Z"/>
      <path class="st1" d="M322.91,193.29h25.57v7.47h-8.58v22.78h-8.41v-22.78h-8.58v-7.47Z"/>
      <path class="st1" d="M351.49,193.29h8.43v30.25h-8.43v-30.25Z"/>
      <path class="st1" d="M362.9,193.29h25.57v7.47h-8.58v22.78h-8.41v-22.78h-8.58v-7.47Z"/>
      <path class="st1" d="M405.3,218.54h-9.55l-1.33,4.99h-8.59l10.23-30.25h9.18l10.23,30.25h-8.81l-1.36-4.99ZM403.55,212l-3.01-10.88-2.97,10.88h5.98Z"/>
      <path class="st1" d="M417.06,193.29h7.86l10.25,16.74v-16.74h7.93v30.25h-7.93l-10.2-16.61v16.61h-7.91v-30.25Z"/>
      <path class="st1" d="M447.88,193.29h8.43v30.25h-8.43v-30.25Z"/>
      <path class="st1" d="M478.93,193.29h8.4v18.02c0,1.79-.25,3.47-.75,5.06-.5,1.59-1.29,2.98-2.36,4.17-1.07,1.19-2.19,2.02-3.37,2.51-1.63.67-3.6,1.01-5.89,1.01-1.32,0-2.77-.1-4.34-.31-1.57-.21-2.88-.62-3.93-1.23-1.05-.61-2.01-1.48-2.89-2.61-.87-1.13-1.47-2.29-1.79-3.49-.52-1.92-.78-3.63-.78-5.11v-18.02h8.39v18.45c0,1.65.41,2.94,1.24,3.87.82.93,1.97,1.39,3.43,1.39s2.58-.46,3.41-1.37c.82-.91,1.23-2.21,1.23-3.89v-18.45Z"/>
      <path class="st1" d="M491.66,193.29h11.06l4.27,18.41,4.24-18.41h11.06v30.25h-6.89v-23.07l-5.31,23.07h-6.24l-5.3-23.07v23.07h-6.89v-30.25Z"/>
      <path class="st1" d="M551.75,212.58v-6.29h13v12.9c-2.49,1.88-4.69,3.17-6.6,3.85-1.91.68-4.18,1.02-6.81,1.02-3.23,0-5.87-.61-7.9-1.84-2.04-1.22-3.62-3.05-4.74-5.47-1.12-2.42-1.68-5.2-1.68-8.34,0-3.3.61-6.17,1.84-8.62,1.23-2.44,3.02-4.3,5.39-5.56,1.84-.98,4.33-1.46,7.45-1.46s5.26.3,6.75.91c1.49.61,2.73,1.54,3.71,2.82.98,1.27,1.72,2.89,2.22,4.84l-8.12,1.61c-.33-1.14-.9-2.02-1.7-2.62-.8-.61-1.82-.91-3.06-.91-1.84,0-3.32.71-4.41,2.14-1.1,1.42-1.64,3.68-1.64,6.76,0,3.27.55,5.61,1.66,7.02s2.65,2.1,4.63,2.1c.94,0,1.84-.15,2.69-.45.85-.3,1.83-.82,2.93-1.55v-2.85h-5.63Z"/>
      <path class="st1" d="M568.71,223.54v-30.25h14.02c2.6,0,4.59.25,5.96.74,1.37.5,2.48,1.41,3.32,2.75.84,1.34,1.26,2.97,1.26,4.9,0,1.68-.32,3.13-.97,4.34-.64,1.22-1.53,2.21-2.66,2.96-.72.48-1.7.88-2.96,1.2,1,.37,1.73.74,2.19,1.12.31.25.76.78,1.35,1.59.59.81.98,1.44,1.18,1.88l4.07,8.77h-9.51l-4.5-9.25c-.57-1.2-1.08-1.97-1.52-2.33-.61-.47-1.29-.7-2.06-.7h-.74v12.28h-8.45ZM577.16,205.54h3.55c.38,0,1.13-.14,2.23-.41.56-.12,1.01-.44,1.37-.95.35-.51.53-1.09.53-1.75,0-.98-.28-1.73-.84-2.25-.56-.52-1.6-.78-3.14-.78h-3.7v6.15Z"/>
      <path class="st1" d="M595.34,208.43c0-4.94,1.24-8.78,3.71-11.54,2.48-2.75,5.92-4.13,10.35-4.13s8.02,1.35,10.47,4.05c2.45,2.7,3.68,6.49,3.68,11.36,0,3.54-.54,6.44-1.61,8.7-1.07,2.26-2.62,4.02-4.64,5.28-2.02,1.26-4.55,1.89-7.57,1.89s-5.61-.54-7.62-1.63c-2.01-1.09-3.64-2.81-4.89-5.16-1.25-2.35-1.88-5.3-1.88-8.83ZM603.75,208.47c0,3.05.51,5.25,1.53,6.58,1.02,1.33,2.41,2,4.17,2s3.21-.65,4.2-1.96c.99-1.31,1.49-3.65,1.49-7.04,0-2.85-.52-4.93-1.55-6.24-1.03-1.31-2.44-1.97-4.21-1.97s-3.06.67-4.09,2c-1.03,1.33-1.54,3.54-1.54,6.62Z"/>
      <path class="st1" d="M644.66,193.29h8.4v18.02c0,1.79-.25,3.47-.75,5.06-.5,1.59-1.29,2.98-2.36,4.17-1.07,1.19-2.19,2.02-3.37,2.51-1.63.67-3.6,1.01-5.89,1.01-1.32,0-2.77-.1-4.34-.31-1.57-.21-2.88-.62-3.93-1.23-1.05-.61-2.01-1.48-2.89-2.61-.87-1.13-1.47-2.29-1.79-3.49-.52-1.92-.78-3.63-.78-5.11v-18.02h8.39v18.45c0,1.65.41,2.94,1.24,3.87.82.93,1.97,1.39,3.43,1.39s2.58-.46,3.41-1.37c.82-.91,1.23-2.21,1.23-3.89v-18.45Z"/>
      <path class="st1" d="M657.45,193.29h13.99c3.05,0,5.33.8,6.84,2.41,1.52,1.61,2.28,3.9,2.28,6.87s-.83,5.44-2.48,7.16c-1.65,1.72-4.18,2.58-7.57,2.58h-4.61v11.23h-8.45v-30.25ZM665.9,206.18h2.06c1.62,0,2.76-.31,3.42-.94.66-.63.98-1.43.98-2.4s-.29-1.75-.85-2.41c-.57-.66-1.64-.99-3.21-.99h-2.4v6.75Z"/>
    </g>
    <path class="st1" d="M221.24,70.56h-71.65c-1.33,1.36-2.94,2.72-4.86,4.17-6.86,5.15-15.78,7.73-26.74,7.73h-23.52l3.12-11.89H26.55l-3.26,14.33h190.21c3.07-4.4,5.72-9.22,7.74-14.33Z"/>
    <path class="st1" d="M209.54,90.06c.59-.71,1.18-1.43,1.75-2.17H22.6l-3.79,16.67h174.38c6.22-4.16,11.81-9.1,16.35-14.5Z"/>
    <path class="st1" d="M104.84,42.95h27.37c14.66,0,22.74,5.39,22.49,16.19-.08,3.22-.9,5.89-2.61,8.43h70.27c1.8-5.28,2.94-10.83,3.2-16.5.47-10.38-2.32-19.84-7.67-27-5.35-7.15-24.33-17.69-51-17.69H41.16l-13.93,61.19h71.14l6.46-24.62Z"/>
    <path class="st1" d="M0,187.2h70.26l15.47-66.36h30.9c24.6,0,43.77-2.29,57.52-6.87,4.9-1.63,9.68-3.81,14.2-6.41H18.13L0,187.2Z"/>
    <polygon class="st1" points="277.54 187.2 355.67 187.2 374.77 107.56 296.55 107.56 277.54 187.2"/>
    <polygon class="st1" points="380.21 84.9 383.65 70.56 305.38 70.56 301.96 84.9 380.21 84.9"/>
    <polygon class="st1" points="388.21 51.53 465.38 51.53 475.54 6.37 243.41 6.37 233.1 51.53 309.93 51.53 306.1 67.56 384.37 67.56 388.21 51.53"/>
    <polygon class="st1" points="301.25 87.9 297.27 104.56 375.49 104.56 379.49 87.9 301.25 87.9"/>
    <path class="st1" d="M455.07,84.9h71.99c1.83-4.81,4.23-9.54,7.25-14.33h-73.46c-2.27,4.65-4.22,9.44-5.78,14.33Z"/>
    <path class="st1" d="M536.82,66.74c10.5-15.13,28.29-26.01,47.05-26.01s32,.67,40.33,20.33l71.33-9.33C682.87-3.94,636.5.06,583.21.06c-27.26,0-47.56,7.64-68.33,17-20.77,9.37-35.28,23.07-46.33,40-2.22,3.41-4.29,6.91-6.17,10.5h73.9c.19-.27.36-.55.55-.82Z"/>
    <polygon class="st1" points="576.33 104.56 686.41 104.56 690.23 87.9 580.21 87.9 576.33 104.56"/>
    <path class="st1" d="M451.13,104.56h71.6c.43-5.79,1.51-11.29,3.27-16.67h-71.84c-1.54,5.44-2.57,11.01-3.03,16.67Z"/>
    <path class="st1" d="M572.87,119.4l47.48-.59-3.14,15.92c-34.67,17.67-72.64,12.41-81,5.67-8.36-6.75-13.36-17.02-13.67-27-.06-1.98-.05-3.92.02-5.83h-71.62c-.09,2-.13,4.01-.06,6.04.75,24.29,7.67,43.46,29.67,57.79,19.22,12.52,54.65,17.46,85.67,16,35.33-1.67,72.33-11.33,108-29.67l11.51-50.17h-110.09l-2.75,11.83Z"/>
    <polygon class="st1" points="691.87 80.73 581.87 80.73 580.91 84.9 690.92 84.9 691.87 80.73"/>
  </g>
</svg>