<?xml version="1.0" encoding="UTF-8"?>
<svg id="Layer_2" xmlns="http://www.w3.org/2000/svg" version="1.1" viewBox="0 0 722 294.8">
  <!-- Generator: Adobe Illustrator 29.1.0, SVG Export Plug-In . SVG Version: 2.1.0 Build 142)  -->
  <defs>
    <style>
      .st0 {
        fill: #fff;
      }
    </style>
  </defs>
  <path class="st0" d="M123.8,197.3v25.3c-1.1.1-2,.1-2.9.1-11.4,0-22.8-.1-34.1.1-2.2,0-2.8-.6-2.8-2.8.1-31.6.1-63.2,0-94.8,0-2.2.6-2.8,2.8-2.8,11.4.1,22.8.1,34.1.1h2.6v23.5c6.3-1.8,11.3-5.1,15.8-9.2,8.2-7.5,12.2-17.2,13.6-28,1.8-14.2-.5-27.6-8.6-39.6-8.4-12.5-20.2-19.5-35.3-21.3-23.9-2.8-47.2,13.5-52.6,36.9-3,13.1-3,26,3.4,38.1,2.8,5.3,6.8,10,10.5,14.8,1.6,2,2.6,3.9,2.6,6.6-.1,15.4-.1,30.8-.1,46.3,0,1-.1,2-.2,3.3-1.3-.3-2.3-.4-3.3-.8-18.3-7.6-34-18.4-45.4-34.9-7.6-11-12.2-23.1-14.8-36.2-1.7-8.7-2.6-17.5-2.2-26.3.8-26.2,11.1-48.2,29.2-66.7C52,12.8,71.4,3.6,94.1,1.4c30.2-3,56.2,6.4,77.6,27.7,16.1,16,25.8,35.4,28.6,58,3.1,24.3-.8,47.4-14,68.3-12.3,19.4-29.8,32.2-51.7,39-3.5,1-7.1,1.9-10.8,2.9h0Z"/>
  <path class="st0" d="M261.5,91.1c-7.5-2-13.3-5.8-18.3-10.9-22.9-23.5-16-67.1,19.7-78.1,24.3-7.5,48.9,5.5,57.1,29.5,5.5,15.9,3.4,31.1-6.7,44.7-6.2,8.4-14.8,13.4-24.7,16.1-2.3.6-3,1.5-2.8,3.7.2,2.8,0,5.7,0,8.8h-18.7v-47.1h18.6v10.3c3.3-.3,5.5-2,7.5-3.9,6.7-6.5,8.7-18.2,4.8-27.5-3.9-9.1-12.4-14.7-22.2-14.6-13.8.2-24.4,12.9-22.7,27.2.7,6,3.1,11.1,7.2,15.5.5.6,1.2,1.4,1.2,2.1,0,8,0,15.9,0,24.2h0Z"/>
  <path class="st0" d="M481.9,92.4h-21.6c0-1.1-.1-2-.1-3,0-9.3-.1-18.5,0-27.8,0-2.2-.5-2.9-2.8-2.9-5.7.2-11.4.1-17.4.1v-20.9h19.2c2-6.5-2.1-13.9-8.6-15.6-6.6-1.8-12.9,2.1-14.2,9-.5,2.5-.8,5.2-.8,7.8-.1,16.8,0,33.5,0,50.3v3.2h-4c-5.2,0-10.5-.1-15.7,0-1.8,0-2.5-.4-2.5-2.4.1-18.5-.3-36.9.2-55.3.3-11,4.2-20.9,13.2-28.1C433.6,1.4,441.6,0,450.1.3c17.9.7,30.9,13.7,31.7,33.5.8,19.2.3,38.4.3,57.6,0,.3-.1.5-.2,1h0Z"/>
  <path class="st0" d="M379.1,1.6h8.6c3.5,0,7.1.1,10.6,0,2.1-.1,2.7.8,2.6,2.6-.1,2.9,0,5.7,0,8.6-.1,15.7.2,31.4-.5,47-.6,13.3-5.5,25.2-18.5,31-17.8,7.9-42.6,2.9-48.5-24.6-.7-3.2-1-6.5-1-9.8-.1-17.2,0-34.4,0-51.5q0-3.3,3.3-3.3c5.2,0,10.5.2,15.7-.1,2.7-.1,3.2.9,3.2,3.3-.1,16.8-.1,33.7.1,50.5,0,3.2.6,6.6,1.6,9.6,1.6,5,5.6,7.1,11.6,6.8,5.2-.3,8.9-3.1,10-8.1.6-2.9,1.1-6,1.1-9,.2-16.3.2-32.7.3-49-.2-1.1-.2-2.4-.2-4h0Z"/>
  <path class="st0" d="M651,1.9h21.2c.1,1.4.3,2.8.3,4.2,0,7.5,0,15,.1,22.5,0,2.5.4,5,1,7.5,1,3.6,4.1,5.8,7.9,5.8,4,.1,7.2-1.8,8.2-5.4.8-2.5,1.1-5.3,1.2-7.9.2-7.7.1-15.3.2-23,0-1.2.1-2.3.2-3.6h21.7c.1.6.3,1.3.3,1.9-.2,10.3,0,20.5-.6,30.8-.6,11.5-6.5,20-16.8,25.1-2.2,1.1-3,2.3-3,4.7.2,9.2.1,18.3.1,27.8h-22c0-1-.1-2-.1-2.9v-25.8c0-1.9-.6-2.9-2.3-3.7-11.2-5-16.8-14-17.5-25.9-.6-10.2-.2-20.5-.2-30.8-.1-.4.1-.7.1-1.3h0Z"/>
  <path class="st0" d="M624.2,92.2h-22.4V22.7h-19.2V1.9h60.5v20.7h-18.9v69.6h0Z"/>
  <path class="st0" d="M683.8,135.6c-2.1,6.3-4.3,12.5-6.4,18.8-3,9.1-6,18.2-9,27.3-.5,1.4-1.1,2.8-1.9,4.1-2.4,4.1-7.4,4.2-9.5-.1s-3.5-8.9-5-13.4c-4.4-13.2-8.7-26.5-13-39.8-.2-.6-.5-1.2-1.2-2.5-.3,2-.6,3.3-.8,4.6-2.5,17-4.9,33.9-7.3,50.9-.2,1.6-.7,2.4-2.5,2.3-2.2-.1-4.3,0-6.9,0,.1-1.6.1-3,.3-4.4,2.8-18.4,5.6-36.7,8.4-55.1.4-2.3.7-4.7,1.4-6.9.9-2.9,2.8-5,6.1-5.3,3.4-.4,5.9,1.2,7.2,4.1,1.8,4,3.1,8.1,4.5,12.3,4.4,13.2,8.7,26.3,13,39.5.1.3.3.6.7,1.4,1.3-4.1,2.6-7.7,3.8-11.4,4.2-12.9,8.4-25.9,12.7-38.8.4-1.3,1.2-2.6,1.9-3.8,1.7-2.6,4.1-3.6,7.2-3.2,2.8.3,4.7,2.2,5.3,4.7,1.1,4.5,1.9,9,2.6,13.6,2.5,16.4,5,32.9,7.4,49.4.2,1.2.2,2.5.2,4-2.8,0-5.3.1-7.8-.1-.5,0-1.3-1-1.4-1.6-1.9-12.9-3.7-25.8-5.6-38.7-.8-5.6-1.7-11.2-3.2-17-.3,1.7-.8,3.4-1.2,5.1h0Z"/>
  <path class="st0" d="M543.3,93c-9.9-.6-19.3-.7-28.7-1.7-10.2-1.1-17.8-8.9-19.4-19.1-.6-4.1-1-8.4-1-12.5-.1-17.8,0-35.5,0-53.3,0-1.4.1-2.8.2-4.4h22v57.5c0,9.7,2.1,11.9,11.7,12.2,4.2.1,8.4.2,12.6.1,1.8,0,2.5.4,2.5,2.4,0,5.9.1,12,.1,18.8h0Z"/>
  <path class="st0" d="M239.4,175.1c-.5-6.3-1.3-12.5-1.4-18.8-.2-12.1,0-24.3.1-36.4,0-.8.1-1.6.2-2.6h9.1c.1,1.3.2,2.6.2,3.8.1,14.9.1,29.8.3,44.7,0,1.8.2,3.6.7,5.2,2.4,8.8,12.2,12.5,20,7.7,4-2.5,5.2-6.6,5.6-10.8.4-4.9.4-9.9.5-14.9.1-10.9,0-21.9,0-32.9v-2.8h9.1c.1,1.7.4,3.4.4,5.2.1,13.6.1,27.3.2,40.9,0,2.7.3,5.4.9,8,1.6,6.5,6.5,9.8,13.2,9.2,7.4-.6,11.4-4.6,12.2-12.6.3-3.3.4-6.6.4-9.8.1-12.6,0-25.3.1-37.9v-2.9h9.2c.1,1.1.4,2.1.4,3.2-.1,15.8,0,31.5-.4,47.2-.3,9.4-4.8,16.6-13.9,20.1-9.3,3.6-19,1.2-25.7-5.9-.3-.4-.7-.7-1.2-1.1-3.2,3.4-6.9,6.2-11.4,7.6-11.8,3.5-23.7-1.5-28-12.6-.4-.3-.7-.6-.8-.8h0Z"/>
  <path class="st0" d="M311.6,293.3c3.3-11.3,6.5-22.2,9.7-33l-.5-.2c-1.5,3.5-3,7-4.4,10.5-2.9,7-5.9,14-8.7,21-.5,1.3-1.1,1.9-2.5,1.8-2-.1-4,0-6.4,0,1.8-11.3,3.6-22.3,5.4-33.3-.2,0-.3-.1-.5-.1-2.1,7.1-4.2,14.1-6.2,21.2-1,3.5-2,6.9-3,10.4-.4,1.4-1.1,2-2.7,1.9-3-.1-6,0-9.4,0,1.7-5.8,3.3-11.4,4.9-16.9,3.7-12.4,7.4-24.8,11-37.2.4-1.5,1.1-2,2.6-2,4.9.1,9.7,0,15,0-1.3,8.1-2.5,15.9-3.7,23.7.2,0,.3.1.5.1,2-4.7,3.9-9.4,5.9-14.1.8-1.9,1.5-3.7,2.3-5.6,1.2-2.8,3.3-4.2,6.5-4.2h12.3c-.8,2.7-1.4,5.2-2.1,7.6-4.6,15.5-9.1,31.1-13.7,46.7-.4,1.3-.8,2-2.4,1.9-3.3-.3-6.4-.2-9.9-.2h0Z"/>
  <path class="st0" d="M573,92.3h-21.4V1.9h21.4v90.4Z"/>
  <path class="st0" d="M559.5,188v-8.1c3.1-.3,6.2-.6,9.2-1,12.5-1.5,22.5-11.3,23.4-23.8,1-13.2-5-25.1-20.5-28.8-1.9-.4-3.8-.9-5.7-1-3.3-.3-6.5-.3-10.1-.5-.1,1.2-.2,2.2-.2,3.3v56.8c0,2.2-.5,3.1-2.8,2.8-2.2-.2-4.3,0-6.7,0v-2.8c0-21.6,0-43.3-.1-64.9,0-2.4.7-3,3-2.9,7.1.3,14.2-.1,21.2.6,15.2,1.6,26.7,11.5,30.6,25.5,4.9,17.7-5.5,36.7-23,42.2-5.9,1.9-12,2.3-18.3,2.6h0Z"/>
  <path class="st0" d="M670.8,237.2v23.2c.2,0,.4.1.6.1,1.1-3.5,2.2-7,3.2-10.6,1.1-3.5,2.1-7.1,3.1-10.6.4-1.5,1.1-2.2,2.8-2.1,2.8.1,5.5,0,8.7,0-1.3,4.4-2.4,8.5-3.6,12.6-4,13.7-8.1,27.4-12.1,41.1-.5,1.9-1.3,2.5-3.3,2.4-2.8-.2-5.7,0-8.7,0v-22.7c-.2,0-.4-.1-.6-.1-2.2,7.5-4.5,15-6.8,22.7h-10.9c1.7-5.7,3.3-11.3,4.9-17,3.6-12.2,7.3-24.5,10.8-36.7.5-1.8,1.3-2.4,3.1-2.3,3,.1,5.8,0,8.8,0h0Z"/>
  <path class="st0" d="M570.3,284.3c2.1,1.2,3.2.6,3.8-1.2,1.5-4.8,3.1-9.6,4.5-14.4,3-9.9,5.9-19.8,8.9-29.7.2-.7.9-1.7,1.4-1.7,3.8-.1,7.7-.1,12-.1-1.2,4.1-2.1,7.8-3.2,11.5-3.3,11-6.6,22.1-10,33.1-3.7,11.9-16,14.9-25.1,11.6-3.7-1.3-5.8-4.7-4.9-8.7,1.4-6.6,3.2-13,5-19.5,2.3-8.3,4.9-16.6,7.2-24.9.7-2.3,1.7-3.3,4.2-3.1,3.1.2,6.2.1,9.8.1-4.6,15.8-9.1,31.4-13.6,47h0Z"/>
  <path class="st0" d="M425.8,237.2c-4.7,16-9.2,31.6-13.7,47.3,2.4,1.1,3.5.2,4.1-1.7,2-6.6,4.1-13.2,6.1-19.8,2.4-8,4.8-15.9,7.1-23.9.4-1.5,1.2-2,2.7-1.9,3.4.1,6.9,0,10.8,0-.7,2.6-1.2,4.7-1.8,6.9-3.6,12.2-7.4,24.4-10.9,36.7-3.5,12.1-15.5,16-25.3,12.8-4.3-1.4-6.5-5.9-5-11,4.1-14.5,8.3-28.9,12.4-43.4.4-1.4,1-2.1,2.6-2,3.3.1,6.8,0,10.9,0h0Z"/>
  <path class="st0" d="M379.7,293.3v-23c-.2,0-.4-.1-.5-.1-1.1,3.8-2.3,7.6-3.5,11.4-1,3.3-1.9,6.6-3,9.9-.2.7-1.1,1.6-1.7,1.7-3.1.2-6.2.1-9.7.1,1-3.4,1.8-6.5,2.7-9.6,4.3-14.7,8.7-29.3,13-44,.6-2,1.5-2.7,3.5-2.5,2.6.2,5.2.1,8.1.1v23.1l.6.1c.3-.8.7-1.5,1-2.3,1.9-6.2,3.8-12.4,5.5-18.6.5-1.8,1.2-2.5,3.1-2.4,2.7.2,5.4,0,8.5,0-1.1,4-2.2,7.7-3.2,11.3-4.1,13.9-8.2,27.7-12.1,41.6-.7,2.4-1.7,3.5-4.3,3.2-2.5-.2-5.1,0-8,0h0Z"/>
  <path class="st0" d="M281.8,237.2c-5.6,18.9-11,37.4-16.5,55.9h-11.2v-22.6c-.2,0-.4,0-.6-.1-1.4,4.8-2.8,9.5-4.2,14.3-.7,2.3-1.3,4.7-2.1,7-.2.7-1.2,1.5-1.8,1.5-3,.2-6,.1-9.5.1,1.2-4.2,2.3-8.1,3.4-12,4.1-14,8.3-28,12.4-42.1.4-1.5,1-2.1,2.6-2,2.8.1,5.7,0,8.9,0v23.1c.2,0,.5.1.7.1.9-3,1.8-5.9,2.7-8.9,1.3-4.3,2.5-8.5,3.9-12.8.2-.7,1.1-1.5,1.8-1.5,3-.1,6.1,0,9.5,0h0Z"/>
  <path class="st0" d="M214.3,294.8c-1.3-.3-3.4-.5-5.2-1.1-3.8-1.4-6-4.5-5.4-8.7.6-4.3,1.5-8.6,2.7-12.8,2.3-8,4.7-15.9,7.4-23.8,3.2-9.3,14.3-14.9,23.3-11.9,5.1,1.7,7.9,5.4,6.5,10.6-3.2,12.2-6.6,24.5-10.9,36.4-2.7,7.7-9.7,10.8-18.4,11.3h0ZM230.8,245.9c-2.9-.3-3.4.1-4.2,2.5-1.1,3.7-2.2,7.4-3.3,11.1-2.2,7.5-4.4,15-6.5,22.5-.2.8.4,1.9.6,2.8,1-.6,2-1.1,2.9-1.8.3-.3.4-.9.5-1.4,3.1-10.6,6.3-21.3,9.4-31.9.3-1.1.4-2.4.6-3.8h0Z"/>
  <path class="st0" d="M65.3,264.6c3,2.1,3.4,5,2.4,8.4-2,6.7-3.8,13.4-5.8,20.1h-12.1c2.3-8.1,4.5-16,6.8-24-1.1-.4-2.1-.8-3.5-1.3-1.1,3.5-2.1,6.9-3.1,10.3-1.3,4.5-2.6,9-4,13.5-.2.7-1.1,1.5-1.7,1.6-3.8.1-7.6.1-11.8.1,1.3-4.5,2.5-8.7,3.8-12.9,4-13.8,8.1-27.5,12.1-41.3.5-1.6,1.1-2.2,2.7-2.1,5.9.3,11.8.4,17.7.7,4.6.2,6.5,2.4,6.5,6.9,0,5.3-1.3,10.4-4.3,14.8-1.4,1.9-3.7,3.3-5.7,5.2h0ZM55.7,258.9c.2.2.4.4.6.6,1.1-.6,2.8-1,3.2-1.9,1.2-2.8,2.1-5.8,2.8-8.8.1-.4-.9-1.5-1.6-1.7-.5-.2-1.7.4-1.8.9-1.1,3.6-2.1,7.3-3.2,10.9h0Z"/>
  <path class="st0" d="M607.3,293.3c2.3-8.2,4.5-16,6.8-24.1-1.1-.4-2.1-.8-3.5-1.4-1.8,5.8-3.5,11.5-5.2,17.2-.3,1.1-.7,2.2-1,3.4-1,3.3-3.2,4.9-6.7,4.9h-6.8c-.2,0-.3-.1-.9-.2.9-3.3,1.8-6.7,2.8-10,4.2-14.2,8.4-28.3,12.5-42.5.8-2.6,1.9-3.7,4.6-3.5,5.9.4,11.8.5,17.7,1,3.2.2,5,2.3,5.1,5.5.2,6.1-1.4,11.9-4.9,16.9-1.2,1.6-3.2,2.6-5,4.1,4,3,3.1,6.9,1.9,11-1.6,5.2-3.1,10.5-4.5,15.7-.4,1.5-1,2.2-2.8,2.1-3.3-.2-6.5-.1-10.1-.1h0ZM613.2,258.9c.3.3.6.5.9.8,1.2-.9,2.7-1.6,3.3-2.8,1.1-2,1.7-4.3,2.2-6.6.8-3.1.6-3.3-2.9-3.5-1.1,4-2.3,8.1-3.5,12.1h0Z"/>
  <path class="st0" d="M706.4,257.4c.9-3.9,1.7-7.5,2.5-11.2-2.3-1.2-3.5-.3-4.1,1.6-2,6.2-3.9,12.5-5.8,18.8-1.5,5.2-2.9,10.4-4.3,15.5-.2.8-.2,1.6-.3,2.5,2.1.9,3.5.3,4.2-1.6,1.2-3.4,2.4-6.8,3.6-10.4-2.6-.9-2.4-2.5-1.5-4.5.5-1,.5-2.2,1-3.1.3-.6,1.1-1.4,1.7-1.4,4.5-.1,9.1-.1,14.1-.1-.8,2.6-1.4,5-2.1,7.4-2,6.9-4,13.9-6.2,20.8-.2.7-1.2,1.5-1.9,1.6-2.1.2-4.2.1-6.4.1-.3-1-.5-1.8-.7-2.7-2.1,1.2-4,2.8-6.3,3.5-7.9,2.5-14.4-3.5-12.2-11.5,3.3-12,6.9-23.9,10.8-35.7,2.9-8.8,15.4-13.8,23.8-9.9,4.7,2.1,6.7,6.5,5.5,11.9-.2.9-.5,1.8-.8,2.7-1.2,3.9-3.8,5.8-8,5.8-2.2-.1-4.3-.1-6.6-.1h0Z"/>
  <path class="st0" d="M473.4,293.1c.6-3.1,1.1-6.2,1.7-9.4h-4.6c-1,2.5-2,5-2.9,7.5-.5,1.5-1.2,2.1-2.9,2.1-3.7-.1-7.4,0-11.4,0,2.1-5.2,4-10,6-14.8,5.3-12.9,10.7-25.7,15.9-38.6.8-2.1,1.8-2.8,4-2.7,5.3.2,10.6.1,16.2.1-3,18.8-5.9,37.3-8.9,55.9l-13.1-.1h0ZM482.3,252.1c-.2,0-.4,0-.6-.1-2.8,6.9-5.5,13.8-8.4,21.1,1.9-.5,4.2,1.3,4.8-1.4,1.5-6.4,2.8-13,4.2-19.6h0Z"/>
  <path class="st0" d="M367.9,237.1c-3,18.9-6,37.4-8.9,56h-13.2c.5-3.1,1.1-6.1,1.6-9.1-3.8-1.1-4.5-.8-5.8,2.7-1.6,4.3-4.7,6.5-9.4,6.5h-6.7c2.1-5.1,4.1-10,6.1-14.9,5.3-12.9,10.7-25.7,16-38.6.8-1.9,1.6-2.8,3.8-2.7,5.4.2,10.7.1,16.5.1h0ZM354.6,252.3c-.2-.1-.4-.1-.5-.2-2.8,6.9-5.5,13.9-8.3,21,3,.3,4.7-.7,5.3-3.2.4-2,.9-4.1,1.3-6.2.7-3.8,1.4-7.6,2.2-11.4h0Z"/>
  <path class="st0" d="M516.8,116.6v8c-4.8.6-9.5.9-14.1,1.8-10.2,2-17.4,7.7-20.3,18-.2.8-.4,1.6-.6,2.6h35v8.2h-35.4c1,8.9,4.9,15.5,12.3,19.8,7.1,4.2,15,4.6,23.1,4.3v8.6c-3.3-.2-6.7-.4-10-.6-9.3-.6-17.8-3.2-24.6-9.7-10.5-10.1-13.8-22.4-9.4-36.2,4.2-13.1,13.7-20.7,27.1-23.2,5.5-.9,11.1-1.1,16.9-1.6h0Z"/>
  <path class="st0" d="M131.1,271c-2,9.5-4.6,17.9-14,22.1-5,2.2-10.2,2.2-15.2.3-3.5-1.3-5.7-4.9-4.7-8.5,3.2-12.1,6.2-24.3,10.1-36.1,3.5-10.5,15.1-15.5,25-11.8,4.2,1.6,6.4,4.9,5.6,9.3-.8,4.6-1.9,9.1-3,13.5-.2.7-1.3,1.5-2,1.5-3.7.1-7.4.1-11.6.1,1.3-5.1,2.6-10,3.8-14.9-2.3-1.5-3.7-1.3-4.7,1.3-1.7,4.9-3.2,9.9-4.8,14.9-1.8,5.8-3.4,11.6-5.1,17.4-.4,1.5-.4,3.1-.7,4.7,2.5.8,3.9-.1,4.6-2.2,1.1-3.3,2.1-6.6,3.2-9.8.2-.7.9-1.6,1.5-1.6,4-.3,7.8-.2,12-.2h0Z"/>
  <path class="st0" d="M529.6,261.3h-13.3c.7-2.7,1.4-5.2,2.1-7.8.5-1.7,1-3.4,1.2-5.1.1-.9-.2-2.4-.7-2.6-1.5-.7-2.8,0-3.4,1.7-1,3-2,6.1-3,9.1-2.3,7.7-4.6,15.5-6.8,23.2-.3.9-.5,1.8-.5,2.7s.5,1.7.7,2.5c1-.5,2.6-.7,3-1.5,1.1-2.2,1.9-4.7,2.6-7.1,1.6-5.2,1.5-5.2,7-5.2h6.8c-1.1,15.7-12.1,26.7-27.1,22.8-5.2-1.4-7.5-5.4-6.1-11.5,1.8-7.4,3.9-14.6,6-21.9,1.3-4.4,2.6-8.7,4.2-12.9,3.6-9.5,15.6-14.6,24.9-10.6,4.1,1.7,6.2,5.4,5.2,9.8-.6,4.7-1.7,9.5-2.8,14.4h0Z"/>
  <path class="st0" d="M176.2,253.8c.5-2.8,1-5.2,1.4-7.7-.2-.2-.4-.5-.6-.7-1.1.6-2.5.9-3.3,1.7-2.6,3.1-2.4,6.9.4,9.8,1.6,1.6,3.3,3.1,5,4.7,3.6,3.4,5.1,7.4,3.9,12.3-.8,3.1-1.9,6.1-2.7,9.2-2.5,9.3-13.1,12.5-20.4,11.5-1.4-.2-2.8-.6-4.1-1.1-3.4-1.2-5.3-4.1-4.8-7.7s1.3-7.1,2.1-10.6c.1-.6.8-1.4,1.3-1.4,3.6-.1,7.2-.1,11.1-.1-.7,3.1-1.4,5.8-1.9,8.6-.1.8.3,1.8.5,2.6,1.1-.3,2.4-.3,3.1-1,3.2-3.2,3.2-9,.2-12.4-1.5-1.7-3.2-3.3-4.9-4.8-3.4-3.1-4.7-6.9-3.6-11.4.6-2.5,1.3-5.1,2.2-7.5,3.7-9.9,14.5-14.7,24.4-10.8,3.6,1.4,5.1,3.4,4.8,7.3-.2,2.8-1,5.6-1.6,8.4-.1.5-1.1,1-1.6,1-2.9.1-5.7.1-8.6.1-.9,0-1.5,0-2.3,0h0Z"/>
  <path class="st0" d="M421.7,174.4c1.4-2.5,2.9-4.9,4.1-7.4.6-1.2,1.1-1.7,2.4-1.4,1.4.3,2.8.6,4.2.6,2.2,0,2.4,1.1,2.2,2.9-1.2,8.6-10.4,17.6-19.8,19.4-14,2.8-27-5.9-30.3-20.1-2.9-12.4,5.7-25.9,18.8-29.3,12-3.2,25.6,3.4,29.7,14.6-10.8,5.8-21.7,11.6-32.7,17.4-1.3-2.2-2.4-4.1-3.7-6.4,8.1-4.4,16.1-8.8,24.2-13.1-4.7-6.2-14.5-7-21-1.7-5.1,4.1-7.2,9.6-6.2,15.9,1,6.4,4.3,11.6,10.7,13.8s13.9,1.1,17.4-5.2h0Z"/>
  <path class="st0" d="M13.1,293.1H0c1.6-5.4,3.1-10.6,4.6-15.9,3.7-12.5,7.4-24.9,11-37.4.5-1.7,1.1-2.5,3.1-2.4,5.4.2,10.8,0,16.1.1,5.9.1,8.4,3.2,7,8.9-1.4,5.6-3.1,11.1-4.9,16.6-1.5,4.6-5.2,6.6-9.7,7.4-1.4.2-2.9.6-4.3.4-2.9-.4-3.7,1.2-4.3,3.5-1.8,6.3-3.7,12.6-5.5,18.8h0ZM22.7,260.6c2.9.5,3.7.2,4.5-2.1,1.1-2.9,1.9-5.9,2.8-8.9.4-1.3.1-2.3-1.4-2.7s-2.1.3-2.5,1.6c-1,4-2.2,8-3.4,12.1h0Z"/>
  <path class="st0" d="M90.5,258.8c2.6.2,5.1.5,7.9.7-.8,3-1.6,6-2.5,8.9-.2.5-1.1,1-1.7,1.1-1.4.2-2.9.2-4.3,0-1.9-.2-2.9.5-3.4,2.4-.8,3.3-1.9,6.6-2.9,10.2h9.6c-1.1,3.7-2,7.1-3,10.4-.1.4-.9.7-1.4.7h-21.6c1-3.5,1.9-6.8,2.9-10,4.2-14.3,8.5-28.7,12.6-43,.7-2.4,1.7-3.1,4.2-3,5.3.2,10.6.1,15.9.1h2.8c-1.1,3.9-2.1,7.3-3.2,11-2.3,0-4.7.1-7,0-1.4-.1-2,.5-2.3,1.7-.9,2.8-1.7,5.7-2.6,8.8h0Z"/>
  <path class="st0" d="M431.8,293.3c1.6-5.6,3.1-10.9,4.7-16.2,3.6-12.4,7.4-24.8,11-37.2.5-1.9,1.2-2.8,3.4-2.7,5.6.2,11.3.1,16.9.1.8,0,1.6.1,2.7.1-1,3.5-1.8,6.7-2.8,9.9-.1.5-1.1.9-1.7,1-2,.1-4,0-6.1.1-.7.1-1.8.5-1.9,1-1,3-1.8,6.1-2.8,9.5,2.6.3,5.1.5,7.9.8-.9,3.2-1.8,6.2-2.8,9.2-.1.4-.7.7-1.1.8-.5.1-1,0-1.5.1-5.9,0-5.9.1-7.5,5.9-1.5,5.3-3.2,10.6-4.7,16-.4,1.4-1,1.8-2.5,1.8-3.7-.3-7.3-.2-11.2-.2h0Z"/>
  <path class="st0" d="M31.6,31.5c-3.3,4.5-6.8,8.9-9.9,13.5-8.3,12.5-13.5,26.2-15.3,41.2-2.7,22.8.9,44.5,11.8,64.7,9,16.9,22.8,29.1,39.6,38.1,1.7.9,3.4,1.8,5.2,2.6q3.4,1.6,3,5.9c-1.8-.7-3.7-1.2-5.4-1.9-18.8-8.2-34.6-20-45.6-37.7-6.4-10.3-10.4-21.6-12.6-33.6-2.7-15-2.9-30,.6-44.8,3.4-14.4,10-27.3,19.4-38.7,2.8-3.3,5.8-6.5,8.7-9.8.3.2.4.3.5.5h0Z"/>
  <path class="st0" d="M530.4,293.3c4.4-15,8.7-29.7,13.1-44.8-2.7-.2-5-.3-7.6-.4,1-3.4,1.8-6.6,2.9-9.8.1-.4,1-1,1.5-1,9-.1,18,0,27.5,0-1,3.7-1.9,7.1-3,10.4-.1.4-1.3.6-2,.6-6.3.2-6.2.2-7.9,6.3-3.5,12.2-7.2,24.3-10.7,36.5-.5,1.7-1.3,2.4-3.1,2.3-3.5-.3-6.9-.2-10.7-.1h0Z"/>
  <path class="st0" d="M143,293.1h-13.1c1.1-3.7,2-7.3,3.1-10.9,4.3-14.5,8.5-29,12.9-43.4.2-.7,1.1-1.6,1.7-1.7,3.9-.1,7.7-.1,11.9-.1-5.6,19-11,37.5-16.5,56.1h0Z"/>
  <path class="st0" d="M181.9,293.3c2-6.8,3.8-13.3,5.7-19.7,3.3-11.1,6.7-22.2,9.8-33.4.7-2.4,1.7-3.2,4.1-3.1,3.2.2,6.4.1,9.9.1-1.5,5.3-2.9,10.2-4.4,15.1-3.6,12.4-7.3,24.8-10.9,37.2-1.1,3.8-1,3.8-5,3.8-2.9-.1-5.8-.1-9.2,0h0Z"/>
  <path class="st0" d="M654.3,237.2c-1.3,4.6-2.5,8.6-3.7,12.7-4.1,13.8-8.2,27.5-12.2,41.3-.5,1.6-1.1,2.1-2.8,2.1-3.5-.1-7,0-10.9,0,1.2-4.3,2.3-8.3,3.5-12.3,4.1-13.9,8.2-27.7,12.2-41.6.5-1.6,1.1-2.4,2.9-2.3,3.6.2,7,.1,11,.1h0Z"/>
  <path class="st0" d="M82.4,223.9c11.9.6,23.1-.3,34.3.6.1.4.1.7.2,1.1-.9.3-1.8.8-2.7.8-11.4.1-22.8,0-34.2.1-2,0-2.4-.9-2.4-2.6-.1-15.1-.4-30.2-.4-45.2,0-16.4.3-32.9.4-49.3,0-.9.1-1.8.2-2.9h4.5v97.4h.1Z"/>
  <path class="st0" d="M361.6,187.5h-8.5v-47.8h7.3c.2,2,.5,3.9.7,5.8,6.6-6.1,9.8-7.3,19.1-7.1v7.9c-1.6.2-3.3.3-4.9.6-9.2,1.4-13.6,6.4-13.7,15.7-.1,7.3,0,14.7-.1,22,.1,1,.1,1.9.1,2.9h0Z"/>
  <path class="st0" d="M488.6,5.9q4.5-.6,4.5,3.7c0,16.5-.1,33,.1,49.5.1,5.5.6,11.1,2,16.5,2.6,9.6,9.5,15.1,19.2,16.7,5.6.9,11.4.8,17.1,1.2,1.6.1,3.1.3,4.7.5.1.3.2.6.2.8-1,.3-1.9,1-2.9,1-8.2-.2-16.5-.1-24.7-1-12.1-1.4-20.1-10.5-20.3-23.2-.4-20.5-.3-41.1-.4-61.7.1-1.3.3-2.6.5-4h0Z"/>
  <path class="st0" d="M370.5,95c-5.7,3.1-11.7,3.3-17.6,1.8-15-3.8-24.7-15.1-26.2-30.6-.4-3.8-.5-7.6-.5-11.3V9.2c0-1.4-.7-3.3,1.9-3.6,2.4-.3,3.2.5,3.2,3-.1,15.9-.1,31.8,0,47.8,0,8.1,1.7,15.9,6,22.9,6.3,10.1,15.5,15.4,27.4,15.8,2-.1,3.9-.1,5.8-.1h0Z"/>
  <path class="st0" d="M685.9,95c-.8.3-1.7.9-2.5.9-5.3.1-10.6,0-15.9.1-2,0-2.8-.8-2.8-2.9.1-8.7,0-17.4.1-26,0-1.9-.6-2.9-2.3-3.7-11.5-5.2-17-14.4-17.6-26.5-.5-9.2-.3-18.4-.3-27.5,0-3.9.5-4.2,4.8-3.5.1,1.3.2,2.8.2,4.2.1,7.2,0,14.3.4,21.5.5,8.3,2.2,16.3,8.5,22.3,2.7,2.6,6.1,4.7,9.4,6.7,1.4.9,2,1.7,2,3.3-.1,8.7,0,17.4,0,26q0,3.5,3.6,3.6c2.7,0,5.4-.1,8.1,0,1.4,0,2.8.3,4.2.5l.1,1h0Z"/>
  <path class="st0" d="M91.1,51.4c6.1-2.8,12.5-3.4,19-2.3,19.1,3.1,32.4,13.5,38.7,31.7,6,17.3,5.2,34.3-5.7,49.9-1.5,2.2-3.6,4.1-5.9,5.7,1.7-3,3.5-6,4.9-9.1,10.1-21.3,4.8-50.6-14.8-66-10-7.8-21.4-11-34-10.1-.7.1-1.5.1-2.2.2h0Z"/>
  <path class="st0" d="M616.9,95.1c-.9.3-1.9.8-2.8.8-5.4.1-10.8.1-16.2.1-1.5,0-2.2-.5-2.2-2s-.2-3-.2-4.5c0-19.2,0-38.4-.1-57.6v-5.9h-18.8V6c4.3-.9,4.6-.7,4.6,3.5v10.6c0,3,.6,3.5,3.6,3.5,4.1.1,8.3.1,12.4,0,2.1,0,3.5.4,3.3,2.9-.1,1.2.1,2.4.1,3.5v57.6c0,1,.1,2,0,3,0,2,.9,2.9,2.9,2.8,3.1-.1,6.2-.1,9.3,0,1.3,0,2.5.4,3.8.6.3.4.3.8.3,1.1h0Z"/>
  <path class="st0" d="M239.3,175.1c.6,4.1,2.9,7.2,5.8,9.9,4.2,3.8,9.4,5.1,14.8,5.4.7.1,1.5,0,3,0-3,2.1-5.8,2.4-8.5,2.4-12.3-.2-21.9-7.8-22.3-20.9-.6-15.9-.2-31.8-.3-47.7,0-.9.2-1.8.3-2.8h4.5c.1,1.8.3,3.5.3,5.2.1,12.9,0,25.8.3,38.6.1,3.3,1.4,6.6,2.1,9.9h0Z"/>
  <path class="st0" d="M566,94.5c-3.9,1.7-14.6,2.2-20.2.7V6h4c.1,1.7.4,3.5.4,5.3v76.5q0,5.5,5.5,5.6c3.4.1,6.8.1,10.2.2.1.4.1.6.1.9h0Z"/>
  <path class="st0" d="M419.3,12.4c-5.8,9.4-7.2,19.7-7.1,30.5.1,15.4,0,30.8.1,46.2,0,4.3.2,4.5,4.6,4.5,2.7,0,5.4-.1,8.1,0,1.2,0,2.4.3,3.5.5,0,.3.1.6.1.9-.8.3-1.7.8-2.5.8-5.5.1-11,0-16.4,0-1.8,0-2.4-.8-2.5-2.4v-6.6c0-15.6-.1-31.2.1-46.7.1-8.5,2.1-16.5,7.4-23.4,1.3-1.7,2.8-3.3,4.2-4.9,0,.3.2.5.4.6h0Z"/>
  <path class="st0" d="M239.1,16.4c-2.3,4.4-4.8,8.2-6.5,12.3-8.1,19.3-3,46.4,19.3,59.5,3,1.8,2.9,1.8,2.3,6.1-2.4-.9-4.9-1.3-6.9-2.6-17.2-10.9-26.3-29.2-22.6-49.6,1.8-9.5,5.9-17.8,12.9-24.6.5-.2.9-.5,1.5-1.1h0Z"/>
  <path class="st0" d="M331.6,139.9h8.2v47.9h-8.2v-47.9Z"/>
  <path class="st0" d="M510.1,190.3c-.7.3-1.5.8-2.2.8-9.5.1-18.8-.9-27.1-6.2-18.5-11.8-21.3-38.4-5.6-53,.3-.3.6-.5,1.6-1.2-1.2,2.4-2.2,4.1-3,5.9-10.9,22.8,3.9,49,29,51.6,2.5.2,4.9.8,7.3,1.2-.1.2-.1.5,0,.9h0Z"/>
  <path class="st0" d="M549,189.6c-3,1.8-5.3,2.2-7.7,1.3-.6-.3-1.2-1.5-1.2-2.3-.1-7.1,0-14.1,0-21.2v-46h4.6c.1,1.8.3,3.6.3,5.4v56.9c.1,2.5-.2,5.2,4,5.9h0Z"/>
  <path class="st0" d="M638.7,134.9c1.6,4.8,3.1,9.3,4.5,13.7,3.7,11.2,7.2,22.4,11,33.5.9,2.7,2.7,5.1,4.3,7.9-1.7,2.7-5.2,3-7.3-.2-1.2-1.8-2.1-3.8-2.8-5.9-3.8-11.6-7.6-23.3-11.4-35-.8-3-.2-9,1.7-14h0Z"/>
  <path class="st0" d="M629.1,119.9c-.4,3.1-.6,5.5-1,7.9-2.4,16.2-4.9,32.4-7.3,48.6-.4,2.9-.6,5.9-1.3,8.7-.5,2.1,0,3.4,2,4.1.4.1.7.4,1.1.7-2.3,1.9-4.8,1.9-7.2.9-.6-.2-1-1.8-.9-2.7.8-6,1.7-12,2.6-18,1.6-11,3.3-21.9,5-32.9.6-3.8,1.2-7.6,2-11.4.5-2.5,2.1-4.2,5-5.9h0Z"/>
  <path class="st0" d="M372.6,6h5.1c.1,1.3.3,2.6.3,3.8,0,15.3,0,30.6-.1,46,0,2.9-.5,5.9-1.4,8.7-.6,2-2.3,3.6-3.9,6V6h0Z"/>
  <path class="st0" d="M437.1,62.2v-19.9l.7-.1c.2,1,.6,2,.6,3.1.1,4.7,0,9.4,0,14.4h20.2c.1,2.2.4,4.2.4,6.2v24.2c0,3.2.2,3.5,3.4,3.6,2.9.1,5.9,0,8.8.1,1.3,0,2.6.3,3.9.5,0,.3.1.6.1,1-.9.3-1.8.8-2.7.8-5.3.1-10.6,0-15.9,0-2.2,0-2.9-.9-2.9-3,.1-9.2,0-18.3,0-27.5v-3.2l-16.6-.2h0Z"/>
  <path class="st0" d="M683.7,135.6c1.5-1.5,1.9-.4,2.1,1,1,7.2,2,14.5,3.1,21.7,1.3,9.4,2.6,18.8,4.2,28.2.2,1.3,1.8,2.4,2.7,3.6-1.6,1.2-5.5,1.7-7.1.6-.5-.3-.8-1.1-.9-1.6-1.5-9.9-3-19.8-4.5-29.6-.3-2.3-.7-4.7-1-7-.6-4.7-.6-9.4,1-13.9.3-1,.3-2.1.4-3h0Z"/>
  <path class="st0" d="M556.6,127.6c3.7-2.6,7.7-1.8,11.6-1.1,13.8,2.6,20.7,9.4,22.9,22.4,1.5,8.6-2.7,19.1-9.4,23,5.5-10,6.5-19.8,1-29.8-5.7-10.1-15.5-12.7-26.1-14.5h0Z"/>
  <path class="st0" d="M266.9,178.8c2.9-19.3.6-38.3,1.6-57.4.8-.1,1.5-.1,2.2-.2h2.3c.2,1.3.5,2.5.5,3.7,0,13,0,26-.1,38.9-.1,5.7-1,11-6.5,15h0Z"/>
  <path class="st0" d="M304.9,121.3h4.5c.1,1.3.4,2.6.4,3.8,0,13.1,0,26.2-.1,39.4,0,5-1.1,9.7-5,13.2-.3.2-.6.4-1.2.9v-2c.4-4.3,1.1-8.7,1.2-13,.2-12.5.1-25.1.1-37.6-.1-1.4,0-2.9.1-4.7h0Z"/>
  <path class="st0" d="M412.6,190.1c-8.3,4.7-23.3,1.9-30.6-9.4-7.8-12.1-2.6-27.1,5.7-32.3-5.7,9.9-6.4,19.4-.6,28.7,5.7,9.2,14.3,13.4,25.5,13h0Z"/>
  <path class="st0" d="M290.6,64.6c4.2-8.9,4.9-17.7.2-26.5-4.8-8.9-12.5-12.8-22.7-12.6,3.5-3,10.6-3.3,16.3-.9,8.7,3.8,13.7,10.4,14.5,19.9.6,8.1-1.4,15.2-8.3,20.1h0Z"/>
  <path class="st0" d="M333.1,190.6c-1,.3-2,.8-3,.9-3.8.4-4.6-.3-4.6-4.1v-40.1c0-2.7,1.5-3.8,4.5-3.6.1,1.4.3,2.9.3,4.4v35.9c0,2.4-.4,5.1,3.1,6-.1.2-.2.4-.3.6h0Z"/>
  <path class="st0" d="M355.1,189.6c-2.6,2-4.7,2.2-7,1.4-.5-.2-1.2-1-1.2-1.6-.1-15.1,0-30.1,0-45.4h4.7v40c.1,2.4-.2,4.9,3.5,5.6h0Z"/>
  <path class="st0" d="M278.3,107.4c-5.3,1.4-10.7,1.6-16.1.6-.5-.1-1.3-1.1-1.3-1.7-.1-3.9-1-8.2.1-11.8,2.5-7.6,1.3-15.3,1.5-22.9.1-3.1-.8-6.3-1.4-9.8,1.1-.1,2.5-.2,4.3-.3.1,2,.3,3.8.3,5.7,0,11.8,0,23.6.1,35.3,0,3.2.4,3.5,3.6,3.6,3,.1,5.9.2,8.9.2.1.4,0,.8,0,1.1h0Z"/>
  <path class="st0" d="M678.1,120.6c-5.4,16.7-10.7,32.9-16.1,49.5-1.6-2.5-2.4-4.5-1.6-7,4.1-12.4,8-24.8,12.1-37.1.9-2.4,2.1-4.6,5.6-5.4h0Z"/>
  <path class="st0" d="M685,5.7c.8-.1,1.5-.1,2.1-.2,2-.3,2.9.5,2.9,2.6-.1,7.8.1,15.5-.2,23.2-.1,2.4-1.5,4.8-2.5,7.1-.3.7-1.3,1.1-2.3,1.9V5.7h0Z"/>
  <path class="st0" d="M714.6,188.5c-3.3,0-5.9-2.4-5.9-5.5s2.7-5.8,5.8-5.8c3.5-.1,6.3,2.6,6.2,5.9-.1,3.1-2.7,5.5-6.1,5.4h0Z"/>
  <path class="st0" d="M536.1,182.9c0,3.3-2.5,5.7-6,5.7-3.3,0-5.8-2.4-5.8-5.6s2.7-5.8,6-5.7c3.3-.1,5.8,2.4,5.8,5.6h0Z"/>
  <path class="st0" d="M603.1,188.5c-3.5,0-5.8-2.2-5.9-5.5-.1-3.3,2.5-5.9,5.9-5.9s6,2.6,6,5.9c-.1,3.1-2.7,5.5-6,5.5Z"/>
  <path class="st0" d="M442.1,25.1c4.5-4,11.9-2.3,15,3.4.8,1.4,1.3,3,1.5,4.5.1,1.2,1,3.2-1.2,3.5-1.8.3-3.6.7-4.5-2.2-1.4-4.9-4.6-8.1-9.9-8.8-.3,0-.6-.2-.9-.4h0Z"/>
  <path class="st0" d="M300,190.4c-5.5,4.4-20.7,2-24.5-4.4,1.2-1.1,2.5-2.3,3.8-3.5,5.7,5.7,12.3,8.4,20.7,7.9Z"/>
  <path class="st0" d="M331.4,129c-1.4-3.7-1.1-6.1,1.1-7.7s5.3-1.4,7.1.5c1.6,1.6,1.9,4.5.6,6.5-1.4,2-4.6,2.9-7,1.7-.7-.3-1.3-.7-1.8-1h0Z"/>
  <path class="st0" d="M528,189.5c-2.5,2.6-4.6,3.1-7,1.8-2.3-1.2-3.1-3.2-2.7-5.7.4-2.4,2-3.5,4.6-3.8.4,3.4,1.8,6.1,5.1,7.7h0Z"/>
  <path class="st0" d="M595,182c1.7,2.8,3.3,5.3,5,8.1-1.1,1.6-3,2.3-5.4,1.5-2.5-.9-3.8-3.2-3.5-6,.4-2.2,1.9-3.5,3.9-3.6h0Z"/>
  <path class="st0" d="M510.2,157.4c-3,2-25.8,1.6-27.7-.4,9.2-.9,18.1-1,27.7.4Z"/>
  <path class="st0" d="M707.5,181.5c.1,3.6,1.6,6.2,4.7,7.8-1.7,2.6-4.1,3.4-6.4,1.9-.9-.6-1.4-1.9-1.8-2.9-.3-.9,0-2-.1-3-.2-2.3.9-3.5,3.6-3.8Z"/>
  <path class="st0" d="M331.3,128.9c.5,1.1.9,2.1,1.4,3.2-1.9,2.3-4.4,2.5-6.7.6-1.9-1.6-2.2-4.7-.6-6.5,1.5-1.8,2.9-1.7,4.1.3.5.8,1.2,1.6,1.8,2.4h0Z"/>
  <path class="st0" d="M418.9,151.4c-2.4,2.2-4.6,2.6-7.6.6-2.2-1.4-4.9-1.9-7.3-2.8,3.4-3.3,11.7-2.1,14.9,2.2h0Z"/>
  <path class="st0" d="M571.3,188.2c-5.8,2.4-11.7,3.2-18.1,2.7,1.5-2.3,2.9-4.3,4.3-6.4.1.3.6.9.6,1.4.1,2.6,1.8,3.1,3.9,3,3.2-.2,6.3-.4,9.3-.7h0Z"/>
  <path class="st0" d="M636.2,25c-3.5,1.3-7.1,1.1-11,.6,2.3-2.3,7.4-2.7,11-.6Z"/>
  <path class="st0" d="M421.8,174.3c-1.3,1-2.6,2-4.5,3.4,1-2.8,1.6-5.1,2.7-7.1.4-.7,1.9-.7,2.9-1.1.1.2.3.5.4.8-.5,1.4-1,2.8-1.5,4h0Z"/>
  <path class="st0" d="M399.6,171.7c-1.5-.1-2.6.2-2.9-.2-1.1-1.5-2.1-3.1-.9-5.6,1.3,1.9,2.3,3.4,3.8,5.8h0Z"/>
  <path class="st0" d="M500.3,128.4c3-1.4,6.1-2.3,9.5-.5-1.6.2-3.2.4-4.7.5-1.6.1-3.2,0-4.8,0h0Z"/>
</svg>