<?xml version="1.0" encoding="UTF-8"?>
<svg id="Layer_1" xmlns="http://www.w3.org/2000/svg" version="1.1" viewBox="0 0 642 333.73">
  <!-- Generator: Adobe Illustrator 29.1.0, SVG Export Plug-In . SVG Version: 2.1.0 Build 142)  -->
  <defs>
    <style>
      .st0, .st1 {
        fill: none;
      }

      .st2 {
        fill: #fff;
      }

      .st1 {
        stroke: #fff;
        stroke-miterlimit: 10;
        stroke-width: 2px;
      }
    </style>
  </defs>
  <path class="st2" d="M451.84,282.03l8.03,38.07,10.65-37.11,11.09-1.16,10.3,39.42,7.32-39.35h11.23l-12.41,50.54-12.91-1.05-8.97-36.01-9.6,37.07-13.33-.07-12.49-48.81c-.12-2.34-.02-1.44,1.66-1.69,1.43-.2,8.81-.26,9.44.16h0Z"/>
  <path class="st2" d="M232.18,281.88c15.08,1.87,19.7,16.76,7.88,25.9-3.26,2.52-7.67.21-.07,5.61l11.85,19.07-12.38-.54c-5.04-6.5-7.95-19.8-17.97-18.57v19.11h-11.24v-50.6c6.96.62,15.14-.84,21.92,0h0ZM221.5,289.74c1.1,5.71-3.5,16.37,4.92,15.7,13.9-1.11,9.95-19.66-4.92-15.7Z"/>
  <path class="st2" d="M20.8,281.88c17.6,2.18,19.87,20.91,4.71,27-2.77,1.92,1.91,2.86,3.72,5.05,1.46,1.78,12.22,17.65,11.24,18.55l-12.13-.24c-5.18-6.64-7.62-21.03-18.21-18.88v19.11H0v-50.6c6.6.58,14.37-.8,20.8,0ZM11.96,289.91c-3.32,1.1-1.52,10.67-1.69,13.74,1.59,4.81,16.45,1.1,13.11-9.75-1.15-3.73-8.16-5.08-11.42-3.99Z"/>
  <path class="st2" d="M642,279.64v52.84h-10.13l-.55-4.5c-7.05,9.67-22.35,6.11-24.8-5.57-3.82-18.18,7.72-34.8,25.37-22.55v-20.24h10.12ZM623.7,303.43c-10.16,1.59-9.75,22.46.91,22.18,10.57-.28,9.96-23.88-.91-22.18Z"/>
  <polygon class="st2" points="111.31 279.64 111.31 313.37 122.54 297.05 134.92 296.51 122.73 313.73 136.05 332.47 122.78 332.24 111.31 314.49 111.31 332.48 101.19 332.48 101.19 279.64 111.31 279.64"/>
  <path class="st2" d="M516.47,327.59c-5.03-5.7-5.21-17.29-1.33-23.6,11.2-18.2,45.55-6.15,33.42,19.92-5.36,11.52-24.25,12.56-32.09,3.68ZM530.36,303.45c-10.51,1.65-9.16,21.98.85,22.17,12.44.22,11.33-24.08-.85-22.17Z"/>
  <path class="st2" d="M328.31,332.48h-11.24v-24.17c0-3.54-7-7-10.65-2.77-.49.57-2.84,5.8-2.84,6.14v20.8h-10.12v-35.98l9.43-.08,2.37,4.55c4.49-6.71,17.8-7.99,21.08.3.39.99,1.97,8.57,1.97,9.28v21.92h0Z"/>
  <path class="st2" d="M286.71,317.86h-23.61c1.69,10.3,12.46,8.31,20.23,6.75l.06,5.99c-11.51,5.41-28.21,3.87-30.3-11.15-4.31-30.94,37.59-32.31,33.63-1.59h0ZM276.59,311.11c.47-10.98-10.51-11.84-13.46-1.64-.61,2.11.31,1.47,1.63,1.64,3.65.47,8.06-.34,11.83,0Z"/>
  <path class="st2" d="M394.64,332.48h-10.13l-.55-4.5c-8.25,9.64-21.99,7.13-20.88-7.38.8-10.45,13.14-10.38,21.44-10.63,0-11.47-10.92-7.25-17.99-4.5l.11-7.75c6.96-1.53,19.15-4.52,24.66,1.53.72.79,3.33,6.2,3.33,6.79v26.42h.01ZM384.53,315.61c-1.98-.08-3.96-.1-5.91.27-17.51,3.33,5.72,21.14,5.91-.27Z"/>
  <path class="st2" d="M339.55,304.37h-5.63v-7.88h5.63l.13-7.71,11.09-3.52v11.24l7.9.64v7.23h-7.89v18.55c0,1.84,6.02,3.19,7.86,1.69l-.11,7.75c-4.52,1.29-11.12,2.34-15.1-.97-1.05-.87-3.89-6.46-3.89-7.35v-19.68h.01Z"/>
  <path class="st2" d="M181.03,296.5v7.87c-.6.61-14.65-5.59-14.68,1.68-.02,4.88,12.69,4.7,15.21,10.71,6.24,14.89-13.87,19.46-24.2,15.2l-1.07-8.48c5.89,2.5,13.68,6.38,16.85-1.68-4.86-4.85-15.84-4.26-16.92-12.32-1.96-14.68,14.28-15.05,24.8-12.99Z"/>
  <path class="st2" d="M92.07,296.61l.11,8.87c-23.71-10.4-23.72,28.52,0,18l-.48,7.94c-37.51,12.55-37.17-44.78.36-34.81h.01Z"/>
  <rect class="st2" x="404.76" y="279.64" width="10.12" height="52.84"/>
  <rect class="st2" x="588.03" y="279.64" width="10.12" height="52.84"/>
  <path class="st2" d="M558.8,296.5h10.13l.55,6.75c3-4.28,5.77-8.6,11.81-7.87v10.13c-4.86-1.61-12.37,1.97-12.37,7.31v19.68h-10.12v-35.98h0Z"/>
  <rect class="st2" x="46.1" y="296.5" width="10.12" height="35.98"/>
  <path class="st2" d="M114.75,285.78c7.61-1.32,8.72,8.59,2.5,9.67-7.61,1.32-8.72-8.59-2.5-9.67Z"/>
  <rect class="st2" x="142.79" y="281.88" width="6.75" height="15.74"/>
  <path class="st0" d="M221.5,289.74c14.88-3.97,18.82,14.58,4.92,15.7-8.42.67-3.82-9.98-4.92-15.7Z"/>
  <path class="st0" d="M11.96,289.91c3.26-1.09,10.28.26,11.42,3.99,3.34,10.85-11.54,14.55-13.11,9.75.17-3.07-1.63-12.63,1.69-13.74Z"/>
  <path class="st0" d="M623.7,303.43c10.87-1.7,11.48,21.9.91,22.18-10.66.28-11.06-20.6-.91-22.18Z"/>
  <path class="st0" d="M530.36,303.45c12.19-1.91,13.29,22.4.85,22.17-10.02-.18-11.37-20.52-.85-22.17Z"/>
  <path class="st0" d="M276.59,311.11c-3.77-.33-8.17.48-11.83,0-1.32-.17-2.24.47-1.63-1.64,2.95-10.2,13.93-9.35,13.46,1.64Z"/>
  <path class="st0" d="M384.53,315.61c-.19,21.41-23.42,3.6-5.91.27,1.96-.37,3.95-.35,5.91-.27Z"/>
  <g>
    <path class="st0" d="M318.24.04c3.8-.06,7.62-.09,11.41.26,2.09.04,4.19.08,6.24.49,2,.19,4.03.24,5.99.73,24.78,3.59,48.39,14.53,67.39,30.82,1.55,1.21,2.86,2.7,4.38,3.95,1.83,1.68,3.52,3.5,5.3,5.23,1.61,1.9,3.37,3.65,4.98,5.55,1.52,1.98,3.24,3.81,4.68,5.86,5.61,7.42,10.47,15.41,14.36,23.86,1.29,2.52,2.22,5.2,3.38,7.79.89,2.56,1.83,5.09,2.68,7.66,1.37,4.73,2.72,9.47,3.6,14.32.14,1.32.6,2.58.74,3.9.25,2.21.8,4.38.88,6.61.34,2.27.52,4.56.56,6.86.22,3.51.35,7.02.23,10.53.07,2.29-.3,4.57-.3,6.86.02,2.36-.59,4.66-.75,7-.04,1.62-.59,3.16-.72,4.77-.72,4.2-1.49,8.4-2.68,12.49-.63,2.09-1.03,4.25-1.87,6.28-1.63,4.94-3.52,9.78-5.66,14.53-7.12,15.3-17.08,29.31-29.35,40.91-1.72,1.8-3.69,3.33-5.52,5.02-1.27,1.2-2.73,2.17-4.06,3.3-7.76,6.16-16.2,11.45-25.13,15.74-2.17.92-4.23,2.09-6.46,2.88-2.4.98-4.76,2.06-7.26,2.78-4.59,1.68-9.28,3.04-14.04,4.15-1.46.52-3.03.59-4.52.99-2.25.32-4.45.94-6.73,1.08-1.7.41-3.44.58-5.18.69-2.1.34-4.22.52-6.35.55-3.35.21-6.7.36-10.05.26-3.17.09-6.32-.37-9.49-.35-2.45-.32-4.9-.67-7.37-.82-1.69-.52-3.46-.55-5.17-.93-2.05-.31-4.07-.81-6.11-1.16-5.32-1.35-10.65-2.75-15.8-4.68-8.96-3.3-17.64-7.42-25.71-12.53-4.15-2.64-8.14-5.52-12.05-8.5-2.36-2.05-4.86-3.94-7.08-6.15-2.06-1.68-3.86-3.65-5.74-5.52-1.01-.88-1.8-1.95-2.71-2.92-2.24-2.27-4.17-4.81-6.2-7.26-2.01-2.66-4.09-5.26-5.88-8.07-2.77-4.04-5.19-8.29-7.49-12.6-.94-1.59-1.62-3.3-2.44-4.95-.54-1.17-1.16-2.3-1.6-3.52-.85-2.23-1.9-4.37-2.64-6.64-.39-1.29-.93-2.54-1.38-3.81-1.16-3.54-2.17-7.13-3.04-10.76-.68-2.24-1-4.57-1.42-6.87-.34-1.29-.5-2.61-.65-3.93-.58-2.88-.74-5.81-1.12-8.72-.37-6.13-.64-12.28-.14-18.41.08-2.14.02-4.3.5-6.4.15-1.46.32-2.91.41-4.38.49-1.77.6-3.6.99-5.39.67-4.51,1.99-8.89,3.13-13.29,2.6-8.75,6.13-17.23,10.43-25.28,1.91-3.45,3.96-6.82,6.07-10.15,2.84-4.21,5.88-8.28,9.13-12.17,3.17-3.75,6.44-7.43,10.05-10.76,2.03-2.15,4.36-3.96,6.55-5.94,2.32-1.84,4.55-3.8,6.99-5.5,4.72-3.49,9.69-6.61,14.8-9.49,2.53-1.31,4.98-2.76,7.59-3.89,1.57-.7,3.09-1.5,4.67-2.17,2.03-.69,3.96-1.61,5.97-2.35,3.51-1.2,6.99-2.52,10.6-3.39,2.28-.71,4.63-1.15,6.91-1.81,2.36-.5,4.76-.84,7.11-1.4,2.05-.15,4.05-.68,6.09-.87.95-.23,1.94-.05,2.89-.31,3.37-.46,6.77-.41,10.16-.65"/>
    <path class="st2" d="M314.49.88c-2.88,0-5.71.64-8.57.88-4.17.4-8.3,1.05-12.39,1.97-2.57.37-5.03,1.21-7.54,1.83-4.44,1.16-8.79,2.66-13.07,4.29-1.2.48-2.49.75-3.62,1.38,1.59.38,2.81,1.58,3.86,2.76.12,1.67-.06,3.36-.18,5.03-.73.72-1.78.98-2.66,1.48-1.51.83-3.14,1.4-4.66,2.2-.19,1.47.6,2.91.44,4.38-.4.94-.99,1.78-1.43,2.71-.27.46-.45,1.01-.87,1.34-.93.29-2.05.13-2.81.85-1.63,1.22-3.02,2.7-4.33,4.25-.33.34,0,.76.18,1.08.91,1.39,1.78,2.81,2.81,4.12,1.13.04,2.26,0,3.39-.02.29.69.58,1.4.61,2.15-.69,1.49-1.88,2.69-2.56,4.19.91-.11,1.82-.23,2.71-.46.95-.22,1.64-.96,2.39-1.54,2.67-2.13,4.84-4.79,7.25-7.19.67-.68,1.57-1.04,2.29-1.66.28-.57.2-1.24.29-1.86.06-1.2.31-2.37.66-3.51,1.85-.33,3.71-.6,5.57-.77,1.14-.09,2.1-.76,3.02-1.38-.22-.87-.44-1.73-.63-2.61.88-.71,1.69-1.71,2.89-1.83,1.14-.17,2.3-.27,3.45-.36,1.36-.05,2.53-.86,3.58-1.65.34-.92.04-1.99.17-2.97,1.47-.3,2.93-.7,4.41-1,1.94-.42,3.95-.25,5.91-.51.92-.41,1.39-1.47,2.33-1.85,1.78-.18,3.56.16,5.34.14.29.88.44,1.8.68,2.69,1.31.4,2.55,1.02,3.91,1.23,1.16.18,2.32.41,3.5.5,1.75.14,3.45-.41,5.18-.62,1.21-.08,2.08-1.01,3.12-1.52.69-.39,1.5-.32,2.27-.37,1.39-.03,2.78-.31,4.17-.07.91.15,1.81.31,2.72.49.87.17,1.6.73,2.45.96.96-.13,1.87-.49,2.77-.83,1.08-.41,1.41-1.71,2.42-2.23.55-.31,1.25-.81,1.84-.29,3.95,2.68,7.85,5.43,11.94,7.91,1.29.68,1.72,2.18,2.76,3.11.89.48,1.87.78,2.78,1.24-.12.92-.41,1.79-.59,2.69,1.23.05,2.47.12,3.7-.01.52-.3.68-.98,1.04-1.45.35.03.7.06,1.05.08.63.26,1.31.41,1.89.79.37.95.63,1.95.74,2.96l-.12.18c-1.77.42-3.57.7-5.37.99-1.64.24-2.94,1.35-4.34,2.13.46.87,1.12,1.6,1.65,2.43.54.82,1.09,1.71,2.02,2.13,3.14,1.62,6.31,3.18,9.46,4.79.85.5,1.58,1.17,2.35,1.79.89.7,1.36,1.76,1.95,2.7.56.91,1.09,1.85,1.66,2.75.46.8,1.37,1.12,2.14,1.53,1.06.51,2.06,1.2,3.24,1.45.88.2,1.77.39,2.68.45.74-.64.77-1.8,1.48-2.49,1.08-.68,2.38-.91,3.4-1.69-1.32-1.1-3.13-1.45-4.3-2.75-1.78-1.83-3.63-3.62-5.86-4.89-1-.38-2.08-.51-3.05-.97.89-.94,2.07-1.54,2.99-2.47-.51-.74-1.24-1.3-1.7-2.08.54-.53,1.04-1.1,1.57-1.65,2.01,1.28,4.06,2.52,6.21,3.54,1.01.51,2.23.62,3.14,1.3.55,1.51.69,3.14,1.21,4.66.77,1.39,1.81,2.62,2.64,3.97.61,1.03,1.58,1.93,1.71,3.18.33,2.44.61,4.9,1.32,7.27.21.64.21,1.45.83,1.85,1.24,1.03,3.04,1.56,3.66,3.19.82,1.81,1.94,3.48,2.77,5.29.12,2.05-.36,4.12-.2,6.18.25.88.84,1.61,1.32,2.37,1.04.02,2.1-.07,3.11.21,1.31.36,2.63.71,3.96,1,.12,1.43.4,2.87.27,4.3-.65.97-1.69,1.6-2.32,2.58-.15,1.17-.04,2.35-.04,3.52.8.74,1.67,1.42,2.46,2.18.78.76.36,1.96.55,2.92.38.51,1.01.78,1.54,1.13,1.09.62,2.1,1.39,3.24,1.93,1.1-.5,2.06-1.35,2.91-2.21.64-1.75.86-3.63,1.47-5.39.27-.73.96-1.36.82-2.19-.73-1.14-2.22-1.64-2.74-2.96-.97-2.15-2.2-4.16-3.44-6.15-.75-1.06-.34-2.43-.44-3.63.07-1.26-.48-2.42-.94-3.56-.6-1.41-.75-2.95-1.06-4.44,1.75-.18,3.51-.11,5.28-.17.22-.62.42-1.25.62-1.89-1.05-.68-2.25-1.04-3.37-1.57-.8-.38-1.72-.59-2.33-1.27.89-.48,1.78-.98,2.74-1.3,1.04-.27,2.16.12,3.19-.23.71-.24,1.41-.54,2.12-.8.12-.87.17-1.75.12-2.62-1.11-.8-2.44-1.31-3.45-2.25-.4-.88-.62-1.84-.91-2.77-.51-1.73,0-3.52-.09-5.28-.47-1.5-1.21-2.9-1.73-4.38-.22-.66-.28-1.42-.84-1.9-2.03-2.06-3.92-4.24-6.06-6.19-1.35-1.34-2.82-2.57-4.16-3.92-1.28-1.28-2.66-2.43-4.13-3.47-2.15-1.59-4.27-3.24-6.43-4.82-2.07-1.36-4.14-2.72-6.21-4.08-4.3-2.99-9.13-5.06-13.67-7.63-3.63-1.63-7.3-3.17-10.95-4.76-1.77-.69-3.64-1.08-5.45-1.66-2.75-.86-5.5-1.73-8.27-2.5-1.63-.54-3.31-.94-5.01-1.14-3.19-.61-6.41-1.09-9.62-1.62-1.94-.42-3.91-.66-5.89-.78-3.66-.45-7.37-.33-11.04-.74-2.93.33-5.88.25-8.82.26"/>
    <path class="st1" d="M253.86,19.21c-6.49,3.78-12.67,8.09-18.42,12.93-10.18,8.38-18.91,18.43-26.24,29.37-1.12,1.81-2.27,3.61-3.36,5.43-1.16,2.18-2.57,4.23-3.59,6.5-1.68,3.13-3.07,6.39-4.53,9.63-.94,2.71-2.23,5.29-3,8.06-.6,2.05-1.44,4.02-1.95,6.1-.99,3.65-1.88,7.32-2.73,11-.44,2.72-.85,5.44-1.29,8.16-.19,2.28-.51,4.55-.76,6.83.04,2.29-.29,4.55-.23,6.84,0,3.67-.11,7.35.18,11.02-.12,1.99.45,3.92.51,5.9.11,2.3.72,4.55.89,6.84.63,3.86,1.38,7.7,2.43,11.46.5,2.49,1.34,4.88,2.06,7.31,1.33,4.22,2.98,8.33,4.68,12.42,3.4,7.7,7.56,15.06,12.32,22,5.96,8.42,12.73,16.29,20.5,23.09,1.73,1.62,3.59,3.1,5.4,4.64,7.5,5.89,15.5,11.19,24.1,15.34,5.01,2.53,10.23,4.59,15.48,6.55,2.23.69,4.45,1.42,6.68,2.12,5.68,1.51,11.39,2.95,17.24,3.67,1.16.14,2.29.48,3.47.54,1.51.13,3.03.16,4.51.49,1.63.34,3.3.08,4.94.27,1.98.29,3.99.12,6,.17,2.78-.05,5.58.14,8.35-.21,1.64-.05,3.3,0,4.92-.3,1.97-.34,4.08-.07,5.96-.78-.16-.74-.42-1.47-.44-2.23.3-1.23,1.14-2.27,1.4-3.51.03-.99-.19-1.97-.26-2.96-1.07-.09-2.14-.22-3.21-.27-.61-1.12-1.57-1.99-2.36-2.98-1.17-1.44-2.47-2.76-3.83-4.02-.44-.38-.79-.91-1.36-1.1-1.51-2.31-4.07-3.53-6.36-4.91-1.73-.99-3.26-2.27-4.83-3.48-.44-.27-.33-.83-.36-1.26,0-1.72,0-3.45-.06-5.17.53-.87,1.05-1.74,1.45-2.68.27-.51.44-1.19,1.06-1.36,1.14-.43,2.31-.76,3.45-1.2,1.21-.31,1.32-1.77,1.82-2.72.53-2.44-.1-5.08.71-7.49-1.26-.33-2.57-.39-3.86-.49-1.24,0-2.42.48-3.67.46-1.38.13-2.6-.64-3.88-1-2.08-.86-4.27-1.5-6.28-2.5-.78-1.17-1.18-2.55-1.83-3.79-.58-1.06-.79-2.35-1.73-3.18-.77-.71-1.55-1.39-2.32-2.09-1.09-.99-2.39-1.69-3.59-2.53-1.47-1.04-3.21-1.53-4.83-2.27-1.82-.71-3.58-1.6-5.47-2.14-3.21-1.06-6.45-2.03-9.54-3.41-.54-.25-.97-.67-1.4-1.06-1.38-1.23-2.71-2.52-4.11-3.73-.88-.76-1.63-1.72-2.74-2.16-1.31-.64-2.69-1.16-3.9-1.98-.93-1.14-1.78-2.38-2.48-3.67.09-1.25,1.11-2.37.77-3.66-.36-1.41-.6-2.88-1.18-4.22-1.21-2.39-2.41-4.78-3.59-7.18-1.02-3.16-1.5-6.48-2.65-9.61-.15-.33-.24-.73-.54-.95-.44,0-.87.05-1.3.09-.18,1.22.33,2.38.57,3.55.4,2.08.6,4.22,1.38,6.2.31.83.5,1.72.97,2.49.8,1.14,1.93,2.03,2.6,3.27-1.04-.13-2.05-.46-2.98-.94-.88-.66-1.52-1.58-2.32-2.32-.6-.57-1.13-1.23-1.38-2.03-.84-2.51-1.87-4.95-2.55-7.5-1.38-4.99-2.93-9.93-4.35-14.91-.23-1.21,0-2.43.19-3.63.07-.99.18-1.98.27-2.98.12-4.13.96-8.18,1.59-12.25,1.35-3.2,2.67-6.44,4.55-9.39,1.04-2.06,2.71-3.66,4.09-5.49-.36-1.62-.87-3.24-.86-4.92-.1-2.68.35-5.35.45-8.03.92-3.44,2.17-6.81,2.87-10.31.4-1.48.75-2.98,1.05-4.48.12-1.38-.13-2.76-.18-4.13-.04-1.53-.88-2.85-1.3-4.28-.28-1.21-1.6-1.61-2.59-2.07-1.83-1.35-4.12-1.78-6.2-2.61-1.49-.48-2.8-1.44-4.33-1.76-.35-.29-.85-.48-.99-.95-.35-1.05-.74-2.1-.95-3.2.17-.02.5-.05.66-.07.71.79,1.57,1.44,2.44,2.04.85.37,1.81.47,2.73.49.45-1.62,1-3.21,1.77-4.7.45-.82.66-1.86,1.51-2.38.79-.51,1.55-1.08,2.34-1.59.41-.27.92-.11,1.37-.06,1.27.26,2.53.59,3.83.71,1.1-1.36,1.32-3.18,2.32-4.58,1.02.16,2.05-.14,3.06.04.56.08,1.11.23,1.68.24.78-.24,1.39-.89,2.23-.97,1.06-.12,2.13-.08,3.2-.11,1.23-.05,2.32.62,3.4,1.12.12.5.26,1,.47,1.48.11,1.02.37,2.02.61,3.02.32,1.38-.07,2.82.26,4.2.45.88,1.1,1.64,1.66,2.45.72,1.12,1.58,2.3,2.79,2.89.61.85,1.48,1.45,2.23,2.16,2.06,1.88,4.35,3.49,6.53,5.24,1.72,1.29,3.36,2.69,5.12,3.93.29-.84.39-1.72.45-2.6-.91-1.13-2.44-1.67-3.33-2.83-.29-.98-.28-2.04-.7-2.98-.81-.98-1.95-1.63-2.77-2.6v-.15c.77-.84,1.62-1.63,2.53-2.31,1.33-.19,2.68-.22,4.02-.29.41.55.8,1.11,1.19,1.67l.14.06c.29.69.64,1.41,1.22,1.91.85.66,1.98.9,2.78,1.64.38.65.54,1.41.84,2.1,1.06,2.14.33,4.59.74,6.86.35.5.93.78,1.41,1.15.64-.52,1.35-.99,1.83-1.68.47-1.44.53-2.98.73-4.47.84-.18,1.7-.23,2.55-.12.4.03.33.5.39.79.23,1.82.21,3.69.77,5.46.1.49.7.49,1.08.65.72.16,1.43.47,2.17.53.99-.27,1.96-.61,2.91-1.02-.86-.6-2.02-.81-2.64-1.72-1.01-1.32-2.07-2.58-3.02-3.94.75-.96,1.69-1.76,2.59-2.59.44-.47,1.15-.21,1.69-.1,1.23.4,2.54.57,3.7,1.17,2.08,1.08,4.14,2.2,6.25,3.22.82.52,1.73.89,2.53,1.45,1.14,1.53,1.26,3.77,2.91,4.94,1.39,1.08,3.26,1.34,4.64,2.44.91,1.33,1.53,2.85,2.5,4.14-.68.82-1.45,1.55-2.07,2.41-.43,1.15-.55,2.39-.85,3.58-1.15.19-2.29.62-3.46.57-.84-.23-1.59-.68-2.39-1.01-1.35-.63-2.81-.91-4.22-1.35-1.47-.37-2.99-.43-4.46-.84.1-.32.27-.61.56-.8,1.03-.76,2.07-1.52,3.05-2.35.19-.2.49-.38.49-.7.13-1.29.22-2.59.15-3.88-.27-.62-.71-1.14-1.07-1.7-.32-.42-.57-.97-1.11-1.12-1.73-.63-3.52-1.1-5.29-1.62.65.83,1.46,1.51,2.1,2.35.27.32-.11.66-.27.93-.84,1.03-1.57,2.19-2.72,2.91-1.55,1.22-3.28,2.23-4.62,3.71-1.82,1.84-3.97,3.47-5.07,5.88-.65.95-1.55,1.86-1.64,3.07-.1.93-.04,1.87-.18,2.79-.1.77-.27,1.57-.11,2.35.44.79.97,1.52,1.47,2.27.23.46.8.42,1.23.54.92.37,1.93.43,2.88.7,1.44.32,2.77.97,4.11,1.58.23.18.69.22.69.59.12,1.26.24,2.52.41,3.77.37.78.96,1.45,1.37,2.21.68,1.33,1.94,2.21,3.08,3.13.26-.93.45-1.87.58-2.82.18-1.71.58-3.39.72-5.1-.03-1.26,1.04-2.12,1.54-3.18-.49-.75-1.23-1.3-1.69-2.06-.27-1.63-.24-3.28-.33-4.92-.22-1.81-.23-3.64-.12-5.46.07-.06.22-.18.29-.25.92-.11,1.77-.55,2.68-.64,2.03.74,3.95,1.74,5.98,2.48,1.74.52,2.27,2.49,3.6,3.52,2,.81,4.2.61,6.29,1,.61.25,1.09.72,1.62,1.11,1.79,1.39,3.64,2.71,5.42,4.13,1.23,1.14,2.19,2.53,3.33,3.76,1.17,1.16,1.5,2.82,2.09,4.3.39.69-.38,1.33-.28,2.02-.53.61-.62,1.66-1.49,1.91-.98.39-1.94.84-2.92,1.23-1.35.54-2.94.16-4.2.95-1.26.72-2.64,1.22-3.8,2.08-.81.75-1.57,1.56-2.3,2.38-.34.28-.19.72-.15,1.09,2.01-.61,3.58-2.02,5.19-3.29.92.23,1.88.36,2.75.77.5.85.21,1.95.59,2.85,1.76.8,3.61-.18,5.43-.07.68.77.91,1.89,1.26,2.86-1.75,1.12-3.57,2.11-5.39,3.11-1.48.54-2.24,1.97-3.37,2.95-.75-.4-1.49-.83-2.28-1.15-.79.13-1.55.54-2.22.98-.71.95-1.27,2-1.94,2.97-.76,1.07-1.07,2.35-1.6,3.53-.79.31-1.82.35-2.27,1.17-.58.88-1.19,1.74-1.79,2.61-.69,1.15-.93,2.49-1.45,3.72-.29.9-.85,1.73-.85,2.7,0,1.51-.21,3.02-.23,4.53-1.1.94-2.16,1.93-3.29,2.82-1.41,1.13-3.01,2.02-4.3,3.28-.62,0-.86.67-1.14,1.11-.54,1.16-1.53,2.12-1.67,3.44-.2,1.12-.57,2.24-.42,3.39.37,1.16,1.17,2.15,1.49,3.33.15.57.3,1.15.5,1.71-.13.86.24,1.71.21,2.58-.93.3-1.88.54-2.8.85-2.01-2.4-3.53-5.15-5.4-7.65-.55-.5-1.32-.67-1.98-.97-.88-.3-1.67-.88-2.62-.92-1.23-.06-2.45-.37-3.68-.36-.65.18-1.21.57-1.81.87-.86.47-1.85.59-2.81.7-.72.12-1.32-.36-1.92-.67-1.03-.69-2.31-.71-3.49-.93-.92-.19-1.82.14-2.71.33-1.11.24-2.25.38-3.33.77-.35.12-.45.53-.66.8-.35.23-.53.64-.8.96-.86,1.25-1.91,2.38-2.64,3.71-.39,1.16-.3,2.41-.56,3.6-.35,1.61.27,3.21.25,4.82.06.43-.08.97.3,1.29.75.73,1.64,1.3,2.43,1.98.96.76,1.82,1.74,3.03,2.12.91.29,1.79.7,2.72.89.96-.08,1.89-.42,2.76-.83.61-.73.91-1.67,1.51-2.41.78-.55,1.76-.7,2.65-1.03.64-.17,1.35-.67,1.97-.18.86.53,1.81.96,2.56,1.64,0,.87-.21,1.72-.27,2.59-.28.71-.27,1.48-.38,2.23-.29,1.09-1.06,1.98-1.42,3.04-.1.75.19,1.48.39,2.19,1.06,0,2.13.02,3.19-.08,1.59-.21,3.08.49,4.59.84,1.74.36,3.14,1.55,4.45,2.66.01.79-.09,1.58-.12,2.38-.05,1.2-.58,2.3-.95,3.43-.63,1.04-.04,2.3.67,3.13,1.17.97,2.44,1.83,3.7,2.68,1.73.53,3.58.37,5.36.68.89.11,1.75.39,2.64.53.99-.74,1.7-1.82,2.72-2.55,1.28-.92,2.32-2.21,3.82-2.8.8-.33,1.57-.7,2.35-1.08.49-.22,1.03-.54,1.57-.27,1.89.67,3.76,1.41,5.7,1.95,1.21-.32,2.2-1.2,3.44-1.44,2.61-.06,5.22-.2,7.83-.2,2.33-.19,4.53-1.13,6.86-1.38.68.07,1.28.42,1.94.58.83.53,1.78.83,2.67,1.22,1.74.72,3.47,1.6,5.38,1.72,1.4.28,2.8.56,4.21.81,3.1.08,6.21-.07,9.32,0,.53,0,.92.43,1.36.67.02.26.15.48.33.67.98,1.14,1.98,2.28,2.95,3.42.53.62,1.01,1.33,1.73,1.76,2.41-.26,4.8-.61,7.2-.95,2.68-.67,5.4-1.23,8.08-1.92,1.88-.48,3.48-1.99,5.5-1.85.74.28,1.47.63,2.09,1.15.76.63,1.66,1.11,2.29,1.88-.26.84-.94,1.46-1.36,2.21-1.58,2.39-3.3,4.69-4.92,7.05-.73,1.54-1.18,3.2-1.91,4.74-.69,1.26-.46,2.73-.5,4.11,1.47-.94,2.59-2.3,3.97-3.37,5.69-5.25,11.06-10.88,15.78-17.03,3.51-4.42,6.61-9.14,9.57-13.94,1.16-2.19,2.5-4.28,3.57-6.51,2.3-4.23,4.2-8.66,5.92-13.15.84-2.01,1.57-4.06,2.2-6.15,1.91-5.13,3.04-10.5,4.23-15.82.48-3.18,1.08-6.34,1.41-9.53-.88.31-1.89.58-2.44,1.4-1.6,2.42-3.18,4.86-4.69,7.35-1.65,0-3.2-.68-4.82-.93-.79-.03-1.17-.84-1.83-1.11-.78-1.3-1.96-2.28-2.94-3.41-.85-.89-1.24-2.07-1.75-3.16-.5-1.05-.96-2.13-1.46-3.18-1.2-2.35-1.76-4.94-2.64-7.42-.89-2.49-.7-5.2-1.38-7.72-.21-2.1-.09-4.21-.1-6.32.04-2.32-.11-4.66.19-6.97.05-.98.26-2.03-.21-2.95-1.51-3.31-2.95-6.66-3.91-10.17.27-1.8.83-3.61,1.83-5.14.91-1.25.61-2.94.24-4.34-.82,1.94-.99,4.08-1.74,6.04-.79,1-1.94,1.66-2.94,2.43-.39.38-.81-.03-1.17-.24-1.39-.9-2.87-1.67-4.21-2.65-.51-.86-.27-1.95-.52-2.9-.62-.78-1.47-1.32-2.19-1.99-.29-.29-.73-.54-.69-1.02-.06-1.13-.1-2.27.02-3.39.38-.79,1.14-1.31,1.72-1.95.31-.36.8-.7.72-1.25-.03-.99-.05-1.99-.24-2.96-.07-.06-.2-.19-.26-.25-1.13-.45-2.35-.61-3.52-.94-1.01-.3-2.06-.09-3.09-.21-.49-.48-.77-1.1-1.13-1.67-.23-.42-.57-.82-.53-1.33,0-1.27-.05-2.56.22-3.81.14-.94.3-1.99-.29-2.81-.96-1.53-1.69-3.19-2.56-4.78-.51-1.04-1.64-1.49-2.53-2.14-.55-.41-1.3-.71-1.49-1.43-.32-1.09-.5-2.21-.85-3.29l-.19-.06c.11-1.69-.52-3.32-.62-4.99,0-1.06-.74-1.86-1.28-2.69-.8-1.23-1.66-2.43-2.48-3.65-1.19-1.62-1.03-3.75-1.8-5.55-3.16-.94-5.96-2.7-8.77-4.39-.32.37-1.22.82-.72,1.38.4.63,1.38,1.04,1.37,1.84-.78.79-1.76,1.36-2.61,2.07.9.36,1.94.38,2.74.96.53.37,1.04.77,1.57,1.13,1.51.99,2.66,2.39,3.98,3.6,1.28,1.37,3.21,1.78,4.69,2.87.11.19.13.42.21.63-1.23.33-2.36.93-3.52,1.43-1.28.49-1.1,2.23-2.11,2.99-.99-.07-1.94-.39-2.9-.57-1.38-.24-2.55-1.05-3.79-1.65-.71-.39-1.54-.71-1.95-1.45-.93-1.53-1.82-3.07-2.77-4.58-.51-.79-1.36-1.26-2.06-1.87-1.24-1.07-2.85-1.55-4.26-2.35-2.14-1.16-4.36-2.15-6.5-3.32-.81-.4-1.26-1.2-1.74-1.92-.67-1.03-1.45-1.97-2.12-2.99.72-.59,1.57-1.01,2.27-1.62.76-.12,1.35-.72,2.12-.83,1.83-.38,3.68-.69,5.54-.93,0-.87-.16-1.78-.63-2.52-.66-.37-1.42-.49-2.15-.66-.27.51-.48,1.09-.9,1.5-1.59.08-3.18.03-4.77.03.15-1.02.58-1.97.68-3-.86-.38-1.78-.65-2.56-1.17-1.03-.94-1.52-2.4-2.79-3.1-4.02-2.46-7.89-5.15-11.78-7.81-.45-.36-.99.07-1.39.3-1.01.6-1.35,2-2.56,2.3-.96.28-1.89.69-2.88.83-.94-.26-1.75-.85-2.72-1.02-1.53-.3-3.07-.73-4.64-.55-1.19.15-2.38.12-3.57.24-1.3.52-2.3,1.76-3.78,1.82-1.97.16-3.91.93-5.91.53-1.57-.35-3.23-.31-4.74-.93-.81-.32-1.67-.54-2.42-1-.27-.78-.33-1.62-.52-2.42-1.34-.2-2.71-.19-4.06-.2-1.37-.17-1.96,1.35-3.04,1.88-2.22.31-4.52,0-6.69.68-1.14.25-2.28.47-3.39.81,0,.86.06,1.73-.03,2.59-.67.76-1.64,1.2-2.51,1.7-1.73.6-3.61.4-5.38.76-.84.3-1.47.97-2.16,1.5.27.86.52,1.74.69,2.63-1.04.72-2.13,1.53-3.44,1.62-1.77.23-3.54.38-5.29.74-.52,1.35-.56,2.82-.63,4.25l.15.2c-.26.67-.78,1.17-1.42,1.48-1.21.61-2.04,1.71-2.97,2.66-1.93,1.9-3.67,4.03-5.85,5.66-.75.56-1.42,1.32-2.37,1.54-1.3.32-2.61.58-3.94.7.78-1.82,2.21-3.28,2.99-5.09-.08-.48-.23-.93-.36-1.39-1.03-.03-2.06.06-3.09-.02-.96-.62-1.42-1.77-2.15-2.62-.55-.95-1.2-1.85-1.69-2.83,1.21-1.44,2.39-2.93,3.89-4.09.75-.56,1.36-1.48,2.39-1.51.52-.12,1.11-.07,1.59-.35.6-.98,1.06-2.05,1.65-3.04.55-.83.16-1.83-.07-2.69-.04-.81-.14-1.61-.2-2.42,2.51-1.14,5.04-2.26,7.46-3.59-.06-1.54.15-3.06.2-4.59-1.12-1.1-2.32-2.41-4-2.49-5.12,2.14-10.06,4.7-14.85,7.5"/>
    <path class="st0" d="M421.72,45.95c.32,1.42,1.16,2.64,1.54,4.03.15,1.13-.13,2.27-.12,3.41-.09,1.22.34,2.39.69,3.54.18.51.33,1.1.83,1.4,1,.67,2.08,1.21,3.07,1.92,0,1.04.07,2.09-.14,3.12-.93.64-2.1.89-3.17,1.2-1.45,0-3.12-.16-4.2,1.04,1.25.63,2.54,1.17,3.82,1.72.47.2.93.44,1.34.75-.31.85-.56,1.71-.83,2.57-1.68.1-3.36-.01-5.04.14.04,2.09,1.01,3.99,1.69,5.92.58,1.75-.44,3.82.73,5.39,1.06,1.68,2.15,3.34,2.93,5.17.54,1.34,1.69,2.27,2.79,3.13.94-1.51.32-3.29.36-4.94-.24-2.76.15-5.51.34-8.26.26-.38.83-.36,1.2-.6,1.15.03,2.25.36,3.36.62-.09-1.67.03-3.37-.33-5.01-.44-.9-1.18-1.62-1.76-2.43-1.16-1.35-2.06-2.89-2.95-4.42.62-.16,1.26-.24,1.9-.29.39-.73,1.13-1.51.82-2.4-.37-1.44-1.03-2.86-.85-4.37,0-.94.4-2.03-.29-2.82-1.25-1.61-2.38-3.32-3.72-4.86-1.36-1.54-2.49-3.31-4.04-4.67"/>
    <path class="st2" d="M267.78,52.12c-1.31-.38-2.75-.46-4.04,0-.59,1.47-1.07,3.03-2.06,4.29-1.73.24-3.4-.8-5.14-.69-1.22.84-2.82,1.47-3.37,2.96-.52,1.13-1.13,2.23-1.49,3.43-.26.85-.51,1.71-.9,2.51-1.01-.21-2.05-.27-3.03-.58-.77-.39-1.32-1.11-2.12-1.44.2.75.26,1.68.86,2.23,2.4,1.24,4.92,2.24,7.48,3.08,1.88.58,3.51,1.69,5.25,2.57.62.28.83.97,1.12,1.52.3,1.34,1.08,2.54,1.17,3.93.13,1.91.5,3.88,0,5.77-.61,2.56-1.1,5.16-1.89,7.67-.55,1.75-1.02,3.52-1.59,5.27-.34,1-.22,2.06-.36,3.1-.24,2.19-.42,4.41-.24,6.61.13,1.39.73,2.71.76,4.11-.55.91-1.33,1.65-1.98,2.48-1.44,1.58-2.33,3.56-3.47,5.35-1.1,2.07-1.93,4.27-2.9,6.4-.76,2.42-.82,4.99-1.36,7.46-.35,1.5-.22,3.05-.41,4.57-.16,2.36-.66,4.72-.49,7.09,1.3,4.92,2.9,9.75,4.23,14.65.69,2.69,1.81,5.25,2.67,7.89.27.93,1.07,1.54,1.69,2.24.85.89,1.66,2.01,2.98,2.18-.53-1.07-1.62-1.77-1.98-2.92-.46-1.43-1.12-2.8-1.33-4.29-.39-2.19-.8-4.37-1.29-6.54,0-.34-.24-.79.06-1.06.67-.29,1.41-.38,2.12-.58.4.54.6,1.19.81,1.82,1.08,3.01,1.52,6.2,2.53,9.23,1.18,2.53,2.51,5,3.72,7.51.48,1.32.72,2.71,1.1,4.06.35,1.19-.45,2.25-.72,3.37-.13.42.25.75.44,1.09.65.83,1.12,1.8,1.84,2.58,1.91,1.22,4.29,1.72,5.87,3.44,1.95,1.72,3.8,3.56,5.81,5.2,3.75,1.81,7.82,2.81,11.72,4.23,2.46,1.07,4.97,2.02,7.4,3.14,1.93,1.21,3.91,2.38,5.55,3.98.7.68,1.54,1.22,2.13,2.01,1.08,2.06,1.85,4.3,3.02,6.3,2.63,1.22,5.41,2.14,8.14,3.13,1.32.5,2.73.04,4.08-.09,1.3-.25,2.59.1,3.89.13.66.09,1.46-.04,1.95.51-.98,1.28-.54,2.96-.72,4.45-.18,1.38.2,2.89-.51,4.16-.37.67-.58,1.49-1.15,2.02-1.41.73-3.05.92-4.44,1.69-.7,1.11-1.22,2.35-1.82,3.52-.26,1.41,0,2.86-.08,4.29.06.58-.2,1.34.38,1.73.66.57,1.4,1.06,2.08,1.6,2.09,1.66,4.56,2.74,6.72,4.3,1.86,1.64,3.56,3.45,5.34,5.18,1.64,1.56,2.9,3.46,4.49,5.06,1.01.51,2.19.15,3.26.4.2.96.2,1.95.3,2.93.12,1.27-.72,2.33-1.16,3.45-.53.91.11,1.91.32,2.82,2.07-.14,4.08-.72,6.13-1.03,2.42-.51,4.86-.97,7.28-1.51,2.86-.74,5.67-1.64,8.48-2.52,1.92-.64,3.93-.99,5.78-1.83,2.45-1.1,4.97-2.04,7.43-3.14,1.68-.78,3.47-1.3,5.06-2.25,4.57-2.54,9.18-5.03,13.74-7.6,3.75-2.68,7.44-5.44,11.16-8.16.65-.48,1.42-.85,1.92-1.51.36-1.52-.14-3.18.55-4.64.6-1.38,1.14-2.78,1.68-4.19.51-1.41,1.57-2.5,2.4-3.72,1.2-1.82,2.57-3.52,3.7-5.39.11-.24.32-.49.28-.77-.69-.72-1.56-1.24-2.35-1.83-.77-.58-1.85-.89-2.77-.49-1.74.74-3.44,1.63-5.31,2.01-2.33.52-4.64,1.1-6.97,1.59-1.59.28-3.22.36-4.81.65-.99.11-2.03.47-2.99.03-.65-.98-1.45-1.82-2.22-2.71-1.09-1.14-1.96-2.5-3.16-3.53-3.16-.15-6.34.08-9.51-.05-1.87-.28-3.74-.64-5.6-.97-1.33-.21-2.5-.92-3.75-1.37-1.64-.62-3.19-1.5-4.88-1.98-2.01.35-3.97.94-5.97,1.33-2.66.17-5.33-.03-7.99.17-1.52.1-2.73,1.17-4.15,1.59-1.93-.61-3.82-1.34-5.74-1.97-.63-.23-1.23.18-1.79.42-1.13.58-2.41.91-3.38,1.77-.91.78-1.89,1.47-2.78,2.28-.75.74-1.45,1.55-2.28,2.21-2.55-.6-5.17-.87-7.78-1.03-.73-.02-1.23-.66-1.81-1.03-.96-.77-2.05-1.35-2.95-2.18-.44-.7-.7-1.51-.84-2.31.25-1.33.91-2.55,1.21-3.87.18-.94.14-1.91.12-2.86-.71-.43-1.36-.94-2.05-1.4-1.02-.72-2.29-.84-3.45-1.22-2.12-.81-4.42-.1-6.61-.45-.24-.86-.58-1.73-.49-2.64.36-1.21,1.32-2.19,1.48-3.47.18-1.37.51-2.73.6-4.11-.86-.55-1.69-1.19-2.64-1.57-1.2.25-2.37.69-3.48,1.2-.81.7-1.08,1.83-1.8,2.62-.97.39-1.98.77-3.02.86-1.71-.52-3.6-.9-4.94-2.18-1.15-.98-2.35-1.9-3.5-2.87-.43-.32-.51-.86-.56-1.35-.18-1.9-.39-3.8-.36-5.69.45-1.15.28-2.44.79-3.57,1.05-1.61,2.28-3.09,3.39-4.66.29-.36.54-.83,1.02-.95,1.45-.42,2.96-.64,4.44-.97,1.2-.3,2.42.05,3.62.21.96.09,1.73.7,2.57,1.12.56.34,1.24.16,1.86.1,1.28-.12,2.23-1.1,3.42-1.48.62-.1,1.24.08,1.86.13,1.24.18,2.56.06,3.7.68,1,.51,2.1.8,3.08,1.34.84.81,1.36,1.89,2.06,2.82,1.02,1.67,2.24,3.2,3.32,4.83.76-.18,1.52-.37,2.24-.69-.38-1.54-.4-3.18-1.13-4.61-.42-.92-1-1.77-1.23-2.75.06-1.17.38-2.3.55-3.46.21-1.64,1.72-2.72,2.08-4.3,1.23-.68,2.29-1.6,3.43-2.4,1.72-1.19,3.35-2.52,4.84-3.98.21-1.74.04-3.53.41-5.25.64-1.72,1.26-3.46,1.94-5.17.65-1.18,1.5-2.24,2.26-3.35.45-.71,1.37-.74,2.05-1.13.37-.42.49-1,.71-1.5.52-1.48,1.55-2.7,2.32-4.05.6-1.21,2-1.65,3.19-2.06.77.32,1.48.77,2.25,1.11.56-.58,1.03-1.24,1.6-1.81.76-.68,1.75-1.03,2.63-1.54,1.33-.76,2.65-1.56,3.99-2.31-.29-.72-.6-1.44-.93-2.14-1.91.19-3.91.81-5.75-.08-.17-.92-.04-1.92-.39-2.79-.69-.28-1.42-.47-2.15-.58-.57.18-.97.66-1.44,1.02-1.2,1.09-2.69,1.81-4.23,2.31-.2-.55-.53-1.15-.31-1.74.37-.51.87-.92,1.31-1.38.74-.72,1.37-1.62,2.36-2.04,1.1-.5,2.16-1.09,3.22-1.68.76-.44,1.67-.39,2.51-.5,1.17-.06,2.2-.67,3.27-1.07.64-.29,1.49-.46,1.74-1.21.32-.9,1.13-1.84.68-2.83-.5-1.25-.77-2.65-1.73-3.65-.88-1-1.74-2.02-2.59-3.04-.86-1.05-2.04-1.73-3.08-2.57-1.14-.9-2.34-1.73-3.48-2.65-.49-.37-.98-.84-1.63-.87-1.99-.16-4.02-.31-5.94-.88-1.04-.93-1.6-2.3-2.7-3.15-1.95-.95-4.01-1.68-5.99-2.59-.98-.55-1.99.23-2.95.45-.11,3.07.03,6.14.26,9.2-.07,1.28,1.54,1.77,1.8,2.89-.36,1.05-1.37,1.82-1.46,2.98-.09,1.2-.4,2.37-.55,3.57-.18,1.86-.74,3.65-.92,5.51-.95-.45-1.64-1.27-2.44-1.93-1.01-.82-1.58-2.02-2.31-3.07-.32-.51-.73-1.01-.73-1.64-.05-1.13-.12-2.26-.36-3.36-1.55-.59-2.99-1.52-4.66-1.75-1.25-.29-2.52-.5-3.73-.92-.54-.59-.93-1.3-1.44-1.91-.43-.67-.76-1.43-.56-2.24.29-1.49.23-3.02.39-4.52.14-1.04.97-1.79,1.47-2.66.76-1.18,1.43-2.45,2.47-3.4,1.33-1.28,2.65-2.58,3.98-3.85,1.28-1.01,2.58-1.99,3.91-2.94,1.02-.76,1.65-1.89,2.46-2.84-.6-.86-1.36-1.6-2.09-2.35-.99.31-1.93.78-2.94,1.03-1.18-.25-2.37-.59-3.49-1.04-.45-.57-.4-1.43-.64-2.12-.21-1.43-.18-2.88-.5-4.29-.61,0-1.23.03-1.84.08-.26,1.4-.4,2.83-.77,4.21-.64.78-1.39,1.56-2.29,2.01-.71-.38-1.41-.84-1.91-1.48-.32-1.86.09-3.78-.27-5.64-.37-1.07-.74-2.15-1.2-3.18-.84-.78-2.05-.98-2.9-1.75-.88-1.05-1.37-2.38-2.33-3.36-.9-.02-1.79.12-2.69.13-.37.04-.8-.02-1.08.28-.66.54-1.3,1.11-1.84,1.77.87.78,1.85,1.47,2.6,2.38.41.94.33,2.01.7,2.97,1.03,1.08,2.37,1.81,3.47,2.82-.25,1.22-.36,2.46-.68,3.67-.48-.23-.92-.52-1.33-.85-3.07-2.4-6.17-4.77-9.24-7.18-1.77-1.49-3.48-3.05-5.21-4.58-1.11-.97-1.76-2.32-2.66-3.47-.38-.55-.92-1.09-.93-1.81-.1-1.38.14-2.79-.21-4.14-.17-.67-.35-1.34-.49-2.02-.08-.6-.21-1.2-.37-1.78-.4-.18-.8-.36-1.21-.54-1.42-.69-3.03-.39-4.54-.42-1.25-.09-2.1,1.42-3.35,1.01"/>
    <path class="st2" d="M430.24,58.54c-.13,1.62.86,3.06.98,4.65-.13.84-.66,1.54-1.02,2.28-.47.06-.93.12-1.39.19.79,2,2.3,3.58,3.59,5.25.3.42.72.82.78,1.37.24,1.85.19,3.72.26,5.57-1.47-.19-3.09-1.15-4.5-.38-.64,3.43-.6,6.98-.29,10.45.15,1.18-.35,2.3-.55,3.44-.23,1.47.14,2.93.15,4.4,0,.87-.6,1.57-.99,2.3-.66,1.03-.93,2.24-1.25,3.41-.43,1.22.39,2.37.71,3.52.6,2.06,1.53,3.99,2.39,5.96.44,1,1.03,2.02.87,3.16-.28,4.08-.18,8.17-.22,12.26-.04,1.97.52,3.88.69,5.83.15,1.7.49,3.38,1.08,4.99.68,1.87,1.09,3.85,1.94,5.66.89,1.88,1.74,3.78,2.62,5.68.54,1.25,1.65,2.12,2.52,3.14.78.77,1.43,1.68,2.27,2.38.69.29,1.44.4,2.18.5.85.41,1.81.47,2.73.66.35-.45.69-.91.98-1.4,1.12-1.95,2.45-3.77,3.62-5.69.56-1.11,1.92-1.2,2.89-1.77.42-.19.34-.72.44-1.09.57-4.56.61-9.16.73-13.74.08-1.64-.21-3.26-.19-4.9.06-3.1-.28-6.2-.72-9.26-.19-2.88-.65-5.73-1.2-8.56-.62-3.15-1.07-6.35-2.03-9.42-.2-.5-.17-1.17-.54-1.55-.08-1.01-.4-1.98-.68-2.94-.98-3.54-2.29-6.97-3.5-10.43-1.24-3.04-2.63-6.02-3.96-9.03-.99-2.01-2.07-3.97-3.06-5.97-.92-1.95-2.2-3.69-3.29-5.54-1.45-2.41-3.01-4.76-4.7-7.01-.18.53-.29,1.07-.31,1.63"/>
    <path class="st2" d="M312.89,73.22c.68,1.05,1.55,1.97,2.28,2.98.41.56.85,1.16,1.52,1.44,1.5.69,3,1.39,4.61,1.77,1,.31,2.05.48,3.01.92.54.53.9,1.2,1.34,1.81.3.49.72.98.71,1.6,0,1.38-.14,2.77-.14,4.15-1.15,1.09-2.52,1.92-3.7,2.96,1.15.36,2.38.36,3.54.7,1.97.56,3.98,1.09,5.81,2.02,1.18.7,2.55.11,3.77-.17.36-1.02.48-2.11.77-3.14.49-.89,1.29-1.57,1.92-2.36-.74-1.31-1.37-2.7-2.3-3.87-1.73-1.16-4-1.51-5.38-3.18-.6-.85-.9-1.87-1.34-2.81-.26-.53-.44-1.19-.99-1.49-2.63-1.49-5.35-2.79-8.01-4.22-1.14-.64-2.43-.91-3.68-1.23-.44-.08-.9-.25-1.35-.13-.88.65-1.64,1.45-2.38,2.26h0Z"/>
    <path class="st0" d="M333.23,49.34c1.52-.62,3.18-.24,4.77-.26.98.06,2.05-.11,2.94.41,1.73,1.02,3.31,2.34,5.18,3.13,1.6.57,3.23,1.04,4.84,1.54,1.69.48,2.89,1.84,4.34,2.76,2.27,1.44,3.97,3.54,5.95,5.31.47.47,1.12.93,1.08,1.67.06,1.48.04,2.96,0,4.44-.87.86-1.85,1.61-2.67,2.51-.51.5-.41,1.26-.46,1.91,0,1.87-.23,3.74-.2,5.61.04,2.05-.61,4.06-.48,6.11.29.81.8,1.52,1.27,2.24.49.86,1.57.93,2.4,1.29,1.21.49,2.55.76,3.61,1.56-.36.17-.72.34-1.09.48-3.17,1.01-6.28,2.29-9.54,2.98-1.47-.38-2.72-1.29-3.97-2.12-.78-.54-1.63-.98-2.41-1.52-1.04-.65-.75-2.08-1.36-3.01-.83-.8-1.99-1.11-2.9-1.8-.62-1.88-.59-3.91-.95-5.85-.19-.88-.1-1.95-.88-2.57-1.29-1.18-2.58-2.38-3.89-3.54-1.48-1.2-3-2.34-4.5-3.51-1.52-1.2-3.65-1.39-4.97-2.86-.89-.98-1.97-1.79-2.77-2.85-.61-1.23-.79-2.62-1.33-3.89-.74.64-1.49,1.35-1.8,2.31-.64,1.99-1.07,4.06-1.83,6.01-1.28-.64-2.47-1.43-3.69-2.17-1-.58-1.58-1.63-2.23-2.55-.25-.47-.75-.96-.56-1.53.33-1.12.8-2.2,1.24-3.28.23-.6.64-1.23.46-1.9-.2-.83-.49-1.64-.67-2.48,1.25-.64,2.57-1.15,3.81-1.83,1.49-.52,3.1-.33,4.65-.29.13.68.28,1.36.45,2.03.65-.05,1.34.04,1.97-.2,1.11-.84,1.6-2.29,2.79-3.03,1.11-.48,2.28-.82,3.42-1.26"/>
    <path class="st2" d="M332.22,50.28c-.81.33-1.69.52-2.44.98-.94.8-1.41,2.03-2.4,2.77-.89.31-1.86.33-2.79.3-.31-.61-.19-1.39-.49-2.02-1.31.06-2.7-.24-3.92.36-1.14.51-2.26,1.04-3.41,1.51.1,1.15,1.04,2.29.48,3.44-.6,1.42-1.27,2.82-1.71,4.3.87,1.21,1.55,2.69,2.89,3.47.97.57,1.9,1.19,2.9,1.7.63-1.93,1.04-3.93,1.76-5.83.62-1.03,1.41-2.01,2.37-2.75.62,1.46.84,3.06,1.46,4.51.84,1.03,1.88,1.87,2.77,2.86,1.15,1.32,3.01,1.49,4.39,2.46,1.33.95,2.57,2,3.89,2.97,1.7,1.22,3.11,2.77,4.69,4.13.43.45,1.07.82,1.13,1.5.22,1.77.58,3.52.72,5.3.07.65.14,1.32.4,1.93.87.83,2.18,1.04,3.02,1.91.32.8.36,1.68.7,2.48.56.62,1.34.97,2.03,1.42,1.48.88,2.84,2.03,4.51,2.55,2.66-.56,5.19-1.63,7.79-2.43.54-.18,1.11-.31,1.57-.66-1.42-.6-2.93-1-4.33-1.64-.58-.24-.84-.84-1.17-1.32-.36-.61-.82-1.17-1.08-1.83-.03-1.23.2-2.46.33-3.68.37-1.99.07-4.02.31-6.03.16-1.26.03-2.53.15-3.8.86-1.25,2.29-2.03,3.09-3.32.08-1.37.07-2.76-.02-4.14-.92-1.28-2.25-2.21-3.29-3.38-1.58-1.73-3.59-2.95-5.43-4.37-.62-.46-1.25-.94-1.99-1.2-1.96-.66-4.03-1.05-5.9-1.95-1.23-.71-2.41-1.5-3.61-2.25-.66-.39-1.27-1.03-2.1-.98-1.56,0-3.12-.02-4.68-.03-.92-.02-1.74.47-2.59.75h0Z"/>
    <path class="st0" d="M389.09,62.16c.59-.28,1.2-.56,1.84-.72,1.34.72,2.09,2.2,3.46,2.91,1.88.96,3.86,1.69,5.79,2.53,1.78.78,3.69,1.38,5.23,2.62.63.85.65,2.03.47,3.03-.23,1.11-.21,2.25-.24,3.37-.33-.01-.65-.03-.97-.06-.94-.35-1.89-.69-2.8-1.09-1.92-.87-3.73-2.05-5.8-2.54.18,1.4,1.57,2.03,2.48,2.93,1.07.87,1.63,2.18,1.97,3.49-1.2,0-2.59.18-3.55-.68-.88-.76-1.8-1.46-2.66-2.23-.53-.45-.74-1.13-.93-1.77-.42-1.46-.77-2.94-1.24-4.39-.49-1.49-1.59-2.66-2.38-3.98-.58-.9-.97-1.9-1.36-2.89.23-.18.48-.36.73-.54"/>
    <path class="st2" d="M388.99,62.79c.61,2.2,2.26,3.86,3.31,5.83.71,1.91,1.17,3.92,1.75,5.87.24.75.97,1.16,1.52,1.66.79.59,1.46,1.33,2.31,1.82.6.13,1.22.08,1.84.09-.4-2.02-2.31-3.03-3.65-4.37-.63-.55-.45-1.48-.53-2.22,3.4.75,6.15,3.23,9.61,3.79,0-1.12.07-2.25.31-3.34.05-.83,0-1.93-.84-2.36-.82-.54-1.7-.96-2.6-1.34-2.58-1.09-5.18-2.12-7.72-3.3-1.41-.61-2.14-2.09-3.4-2.89-.68.12-1.29.48-1.91.75h0Z"/>
    <path class="st0" d="M370.09,64.15c.95-.33,1.9-.75,2.91-.84,1.28.56,2.32,1.57,3.43,2.41-.28,1.09-.63,2.16-.87,3.25-.29,1-.46,2.1-1.19,2.89-.79.87-1.57,1.76-2.25,2.72-.34.33-.7.65-1.06.97-1.05-.42-2.17-.74-3.09-1.42-.68-.73-1.21-1.61-1.62-2.51-.45-1.47-.37-3.04-.61-4.55.68-.15,1.37-.29,1.99-.62.91-.63,1.24-1.93,2.36-2.29"/>
    <path class="st2" d="M370.35,64.65c-.94.31-1.31,1.32-1.94,1.99-.51.61-1.5.43-2.03.98.1,1.24.27,2.47.47,3.7.31.9.84,1.73,1.48,2.44.81.54,1.74.84,2.66,1.15.64-.69,1.26-1.38,1.86-2.11.67-.83,1.5-1.57,1.8-2.63.42-1.41.81-2.83,1.14-4.26-.91-.7-1.8-1.44-2.8-1.99-.92.05-1.79.43-2.64.75v-.02Z"/>
    <path class="st0" d="M352.94,116.2c.32-.81.6-1.64.91-2.45,2.53,2.46,5.35,4.59,8.05,6.85,1.16.89,1.91,2.27,2.13,3.7-2.05.03-4.11,0-6.16.07-1.14-1.46-2.51-2.72-3.61-4.21-.64-1.23-1.55-2.5-1.33-3.96"/>
    <path class="st0" d="M353.98,114.62c-.26,1.02-.77,2.14-.3,3.18.41.94.76,1.93,1.48,2.68.79.84,1.52,1.74,2.29,2.6.31.31.61.75,1.12.69,1.57.02,3.14.04,4.71-.06-.27-.89-.62-1.8-1.36-2.4-2.65-2.22-5.39-4.34-7.94-6.69h0Z"/>
    <path class="st0" d="M313.53,183.95c.5-.28,1.06-.07,1.57.03,2.92.75,5.86,1.45,8.72,2.41,1.64.6,3.41.46,5.11.71,1.52.47,2.93,1.23,4.4,1.84-.12.89-.57,1.72-1.1,2.44-.45.29-1.01.22-1.51.28-1.09.05-2.15.42-3.24.44-1.85-.97-3.33-2.57-5.26-3.42-1.05-.49-2.1-.99-3.14-1.48-1.02-.49-2.18-.44-3.25-.73-1.75-.47-3.63-.33-5.3-1.09.95-.58,2-.96,3.01-1.43"/>
    <path class="st2" d="M312.01,185.33c1.87.2,3.7.65,5.57.91.96.12,1.86.5,2.71.96,1.23.66,2.58,1.1,3.73,1.9.96.66,1.89,1.38,2.85,2.05.33.22.68.49,1.1.39,1.3-.14,2.58-.43,3.88-.54.35-.53.64-1.1.88-1.69-1.3-.65-2.6-1.32-3.99-1.76-1.73-.2-3.52-.05-5.18-.69-3.06-1.05-6.19-1.87-9.35-2.53-.82.06-1.51.59-2.19,1h-.01Z"/>
    <path class="st0" d="M334.16,190.33c1.83-.58,3.76-.75,5.63-1.18,1.04-.29,2.03.3,3.03.49.07.53.1,1.06.14,1.6.66.41,1.33.8,2.02,1.15.55.3,1.18.58,1.43,1.21-1.46.18-2.9.44-4.35.71-2.55.38-5.07-.37-7.41-1.32-.15-.06-.46-.19-.61-.25,0-.8.06-1.6.12-2.4"/>
    <path class="st2" d="M339.61,189.71c-1.62.44-3.3.57-4.93.94-.04.54-.09,1.07-.13,1.61,1.13.62,2.36,1.03,3.6,1.36,2.31.57,4.73.16,7-.42-.84-.74-1.98-1.04-2.8-1.81-.08-.36.02-.73.05-1.08-.81-.56-1.81-.9-2.79-.6Z"/>
  </g>
</svg>