<?xml version="1.0" encoding="UTF-8"?>
<svg id="Layer_1" xmlns="http://www.w3.org/2000/svg" version="1.1" viewBox="0 0 584.5 364.7">
  <!-- Generator: Adobe Illustrator 29.1.0, SVG Export Plug-In . SVG Version: 2.1.0 Build 142)  -->
  <defs>
    <style>
      .st0 {
        fill: #fff;
        stroke: #fff;
        stroke-miterlimit: 10;
      }
    </style>
  </defs>
  <path class="st0" d="M283.2.7c3.5-.3,7-.2,10.5,0-1.1,1.8.8,2.1,1.6,2.6,5.1,3.1,10.3,6.1,15.4,9.4,4.3,2.7,8.9,5.1,13.2,7.8,1.8,1.1,3.6,2.1,5.4,3.2,5,3.2,10.1,6.1,15.2,9.2,2.3,1.4,4.8,2.7,7,4.2,2.4,1.6,5,3.1,7.5,4.6s5.1,2.8,7.4,4.4c2.2,1.6,4.7,2.9,7,4.2,2.7,1.6,5.3,3.3,8.1,4.9,1.9,1.1,3.8,2.2,5.6,3.4,2.7,1.6,5.3,3.3,8,4.9,2.4,1.5,4.9,2.8,7.3,4.3,4.8,3.1,9.8,5.9,14.7,8.8,2.4,1.4,4.8,2.7,6.9,4.3,1.7,1.3,3.8,1.7,5.5,3l.2-.2c.3.2.6.5.9.7,1.2,1.3,2.9,1.9,4.5,2.6.2.2.4.3.6.4-.2,0-.1.2,0,.3.1,0,.2,0,.3,0,.5.2,1,.5,1.5.7.3.7.7.9,1.5.8.3.2.6.5.9.7,0,.5.1.8.7.4.1,0,.3.2.4.3h-.1v.2c.9.8,2,1.1,3,1.6.7.4,1.1,1.3,2.1,1.2.2,0,.4.3.7.4,0,0-.1,0-.1.2,0,0,0,0,.1,0,1.9.8,3.5,2.2,5.3,3.2,1,.5,1.8,1.3,3,1.2.2,0,.4.3.6.4.1.7.2.8.9.8.2,0,.4.3.6.4.1.7.5.9,1.1.5.3.2.6.3.9.4-.2,0-.1.2,0,.3.1,0,.2,0,.3,0,.2,0,.4.2.7.3.4,1.1,3.8,3.2,5.6,3.5.2,0,.4.3.6.4,0,.7.3,1.1,1.1.8.2,0,.5.2.7.3.1.6.5.8,1.1.6.2,0,.5.2.7.3.5.9.8,1.1,1.6,1.2.1,0,.3.2.4.3-.2,0-.2.2-.1.3.1,0,.2,0,.3,0,.2,0,.5.2.7.3h-.1v.2c.8.4,1.8.7,2.5,1.3,3.9,3.1,8.4,5.1,12.5,7.8,3.3,2.2,6.7,4.1,10.1,6,2.9,1.6,5.6,3.4,8.4,5,5.1,3,10.2,6,15.2,9.1,2.4,1.5,5,2.8,7.3,4.5,1.1.9,2.4,1.8,4,1.7.2.1.4.3.6.4,0,.7.2,1,.9.8.2.1.5.3.7.4,0,.1-.2.1-.2.2s0,.2,0,.2c2.3.9,4.2,2.7,6.4,3.7,1,.5,2,1.1,2.9,1.8,1,.8,2.1,1.5,3.5,1.4.2.1.5.2.7.4,0,.1-.2.3-.2.3,1.7,1.7,4,2.5,6,3.6,0,0,0-.1,0-.1.2.1.4.3.6.4,0,.1,0,.2,0,.3.2.2.3.1.4-.1.2.1.4.3.7.4,0,.1,0,.1,0,.2h0c1.7.9,3.1,2,4.7,2.9,1,.5,1.8,1.4,3.1,1.2.2.1.5.3.7.4-.5.6.2.8.5,1,2.5,1.5,4.9,3,7.4,4.4,1,.6,2,1.1,2.9,1.8,1,.8,2,1.8,3.5,1.5.5.3,1.2.5,1.5,1,0,.7.2,1,.9.8.6.6,1.3,1.2,1.9,1.9.3,1.6.3,3.2.3,4.8s0,3.9-.2,5.8c0,.1-.2.3-.4.4-.3-.4-.5,0-.7.2-2.5,2.9-6.2,4.2-9.3,6.2-2.4,1.5-4.9,2.9-7.2,4.4-2,1.3-4.3,2.3-6.2,3.8-2.2,1.7-4.7,3.1-7.1,4.3-2.7,1.3-5.1,3.1-7.7,4.6-2.6,1.6-5.2,3.3-7.9,4.8-2.6,1.5-5.1,3.1-7.7,4.6-1.8,1.1-3.8,1.9-5.5,3.2-2.4,1.9-5.2,3.2-7.8,4.8-2.3,1.4-4.7,2.8-7,4.2-3.4,2-6.8,4-10.1,6.1-2.2,1.4-4.5,2.7-6.8,4.1-2.6,1.6-5.3,3.1-7.9,4.7-2.3,1.4-4.8,2.7-7,4.3-2.3,1.6-4.9,2.8-7.3,4.4-2.1,1.4-4.2,2.7-6.3,4.1-.3.2-.7.4-1,.6-.3-.2-.4,0-.5.2-.1.1-.3.3-.5.4-.9-.3-1.1.7-1.7.9-3,1.1-5.4,3.2-8.1,4.7-2,1.1-4.1,2.3-6,3.6-2.7,1.8-5.5,3.3-8.3,5-.8.5-1.9.7-2.4,1.8-.1.1-.3.2-.4.4-.1-.2-.2-.2-.3-.1-.1.1-.2.2,0,.3-.2.1-.4.2-.6.4-.5-.1-.7,0-.9.5-.5.2-1,.5-1.5.8-1,.1-1.1.2-1.5,1.1-.2.1-.4.3-.6.4h-.3c-.1.1-.1.2.1.3-.2.1-.5.2-.7.3-1.3.2-2.5.5-3.2,1.7-.2.1-.4.3-.6.4-.6-.2-.8,0-.5.5-1.2.6-2.4,1.2-3.7,1.9-.6-.1-.6,0-.8.6-.2.2-.5.4-.7.6-.1,0-.2-.1-.3,0-.1.1-.1.2,0,.3-.5.2-1,.5-1.5.7-.7-.1-1.3,0-1.5.8-.2.1-.4.2-.7.4-.5-.1-.8,0-.5.6-.3.2-.6.5-.9.7-.9-.1-1.6.3-2.1,1-.5.3-1,.5-1.5.8-.6-.1-.9.2-.9.8-.8.5-1.6.9-2.4,1.4-.7-.2-1.2,0-1.5.8-.3.2-.6.5-.9.7-.1,0-.2-.1-.3-.1s-.2.2-.1.3c-.3.2-.6.5-.9.7-.6-.1-.7,0-.9.5-.7.3-1.4.7-2.1,1-.1,0-.2-.1-.3-.1-.1.1-.2.2,0,.3-.2.1-.4.3-.6.4-.5-.3-.6,0-.6.5-.8.9-1.9,1.3-3,1.7-.1,0-.2-.2-.3-.1-.1,0-.2.1-.1.3-.8.6-1.7,1.2-2.5,1.8-1.4.3-2.8,1.1-3.4,1.8-.3.2-.5.4-.8.6-.5-.2-.8,0-.8.6-1.1.6-2.1,1.3-3.3,1.6,0-.3-.1-.2-.2-.1s-.2.2,0,.3c-.4.3-.7.6-1,.9-.3-.1-.6-.1-.5.3-.4.2-.8.5-1.2.8-1.2.1-2.3.5-3,1.6-.2.2-.5.4-.7.6-.2-.1-.3,0-.5.1-.1.1-.1.2.1.3-1.2.6-2.3,1.2-3.5,1.8-2,1.1-4.1,2-5.9,3.3-1.1.8-2.4,1.3-3.2,2.3-.4.2-.9.5-1.3.7-.6-.2-.8,0-.8.6-.1.1-.3.2-.4.3-.6-.2-.8,0-.8.6-.5.3-1,.5-1.5.8-.7-.2-1.2.1-1.5.7-.1.1-.3.2-.5.3-.5-.2-.8,0-.8.6-.2.2-.5.4-.7.6-.7,0-1.3.2-1.6.9-.8.4-1.5.8-2.2,1.2-.3-.1-.5-.1-.5.3-.2.2-.5.4-.7.6-.3-.2-.5-.2-.5.3-.4.5-.9.7-1.5.8-.5-.3-.8-.1-.8.5-.5.3-.9.6-1.4.8-.5-.1-.8,0-.8.6-.1.1-.3.2-.4.4-.1-.2-.3-.1-.5,0-.2.2-.1.3.1.4-1,.4-2,.9-3,1.3-1.4.6-2.6,1.5-3.8,2.4-.5.2-1,.5-1.5.7-.1,0-.2-.1-.2-.1-.1.1-.2.1-.1.3-1.2,1.7-3.3,2-4.9,3-.3-.2-.5-.1-.5.3-.3.2-.6.5-.9.7-.6,0-1,.2-1.1.8-.3.1-.6.3-.9.4-.1-.2-.2-.1-.3,0v.2c-.3.1-.6.3-.9.4-.1-.2-.2-.1-.3,0,0,0,0,.1.1.2-.2.1-.4.2-.7.4-.1-.2-.2-.1-.3,0v.2c-.9,1.5-2.7,1.5-4,2.4-1.4.1-2,1.2-2.9,2-.4.2-.8.4-1.2.5-.7-.1-1.1.2-1.5.7-.1.1-.3.2-.5.3-.5-.1-.8.1-.8.6-1.3,1.5-3.3,1.7-4.8,2.8-.4-.1-.7,0-.5.5-.2.1-.4.2-.6.4-.5-.2-.8,0-.8.5-.3.1-.6.3-.9.4-.7.1-6.8,3.7-7.2,4.3-.2.1-.4.3-.6.5-1.7.7-3.3,1.6-4.8,2.6-.7.5-1.1,1.1-.4,2-3.6.2-7.2.2-10.8,0,.6-1.3-.2-2.3-2.1-2.8-.3-.1-.6-.3-.9-.4v-.2c-.1-.1-.2-.2-.3,0-.2-.1-.5-.2-.7-.3-.1-.6-.5-.9-1.1-.9-.2-.1-.4-.3-.6-.4-.6-1.2-1.8-1.4-3-1.7-.2-.1-.5-.2-.7-.4.2-.2,0-.3-.1-.4-2-1.9-4.6-2.7-6.7-4.4-1.4-1.1-3.2-1.8-4.8-2.6-.1-.1-.3-.2-.4-.4,0-1.4-1.3-.7-1.8-1.2-2.4-1.9-5.2-3.4-7.8-5-2.3-1.4-4.6-2.9-6.9-4.3-2.4-1.4-4.9-2.9-7.3-4.4-2.6-1.6-5.1-3.3-7.6-4.9-2.7-1.7-5.4-3.3-8.1-5-3.8-2.4-7.6-4.8-11.4-7-3.2-1.9-6.4-4.1-9.6-5.9-2.4-1.4-4.6-3.1-7.1-4.3-2.3-1.1-4.4-2.7-6.6-4-3-1.8-5.9-3.8-9-5.5-2-1.1-4-2.4-5.9-3.7-2.4-1.7-5.1-3.1-7.6-4.7-2.5-1.5-5.2-2.8-7.6-4.5-5.8-3.9-11.9-7.4-17.8-11.2-3.2-2.1-6.6-4.2-9.9-6.1-4.4-2.5-8.7-5.4-13.1-8-2-1.2-4.1-2.4-6.1-3.7-2.5-1.7-5.1-3.3-7.7-4.8-2.3-1.3-4.7-2.7-6.9-4.2-4-2.7-8.3-5.1-12.4-7.8-3.1-2.1-6.3-4-9.5-5.9-4.3-2.5-8.5-5.3-12.9-7.8-2.2-1.3-4.4-2.7-6.6-4.1-2.4-1.5-4.7-3.2-7.2-4.5s-4.9-2.9-7.3-4.4c-4.1-2.6-8.3-5.1-12.4-7.7-1.9-1.2-3.9-2.4-5.8-3.6-2.9-1.7-5.7-3.4-8.6-5.1-2.2-1.4-4.3-3-6.7-4.2-1.9-.9-3.4-2.2-4.9-3.6-1.2-1.1-1.5-2.4-1.2-3.9.2-1.3.2-2.6,0-3.9-.2-1.2.1-2.4.9-3.3,1.4-1.5,2.8-3,4.8-3.7.8-.3,1.6-.9,2.3-1.4,2.5-1.6,4.9-3.3,7.4-4.7,2.5-1.3,4.7-3,7.1-4.4,1.7-.9,3.5-1.8,5-3,2.3-1.9,5-3.1,7.5-4.7,2.3-1.5,4.7-2.9,7.2-4.3,2.1-1.2,4.2-2.5,6.2-3.8,2.5-1.6,4.9-3.3,7.4-4.7,2.7-1.4,5.2-3.3,7.9-4.8,3.2-1.8,6.1-4.1,9.4-5.7.4-.2.7-.5,1.1-.7,2.5-1.6,4.9-3.2,7.4-4.7s5.1-2.9,7.5-4.5c2.3-1.5,4.6-3,7-4.3,2.7-1.5,5.1-3.3,7.8-4.8s3.6-1.9,5.2-3.2c2.3-1.8,5-3,7.5-4.6,2.3-1.5,4.6-3,7.1-4.4,1.9-1.1,3.9-2.2,5.7-3.4,3-2,6.1-4,9.2-5.7.4-.2.8-.5,1.3-.8,2.7-1.7,5.4-3.4,8.2-5.1,2.4-1.4,4.9-2.7,7.1-4.3,1.3-.9,2.6-1.7,4-2.5,1.8-1.1,3.7-2,5.3-3.2,2.7-2,6.1-3,8.6-5.2.8-.7,2.1-.7,2.3-2.1.2-.2.4-.3.6-.4,1.8-.4,3.3-1.3,4.7-2.3.1,0,.3-.3.1-.5.3-.2.6-.5.9-.8,1.1,0,2.1-.3,2.6-1.4.2,0,.5-.2.7-.4.2.3.5,0,.6,0,1.4-1.2,3.1-1.9,4.7-2.8.4-.2,1.1-.5.9-1.2.2,0,.4-.3.6-.4,1.4,0,2.3-.9,3.4-1.4.2,0,.4-.3.1-.5.2,0,.4-.3.6-.4.1.2.3.2.5,0,.2,0,.4-.3.1-.6.2,0,.4-.3.6-.4,1.1,0,2.1-.4,2.6-1.4.2,0,.4-.3.6-.4.7.2,1,0,.9-.8.2,0,.4-.3.6-.4,1.1.2,1.8-.7,2.8-1q.5-.2.8-.9c.2,0,.4-.3.6-.4.2.3.4,0,.6,0,.1,0,.2-.3,0-.5.2,0,.4-.3.6-.4,1.1.2,1.8-.7,2.7-1,.2,0,.9,0,.5-.7.5-.4,1.1-.8,1.6-1.2.4.3.6.2.5-.3,3.2-1.6,6.1-3.7,9.2-5.4,2.8-1.6,5.5-3.3,8.2-5,2.4-1.5,5.1-2.7,7.4-4.7.1,0,.2-.2.4-.3,2.9-1.1,5.4-3.1,8-4.7,2.4-1.5,4.9-2.9,7.3-4.5,1.9-1.4,4-2.5,6-3.7.9-.5,1.9-.9,2.6-1.7.1.2.3.2.4.1s.3-.2,0-.4c.2-.2.5-.4.7-.6.1.2.2.2.4.1.1-.1.3-.2.1-.4,1.8-.8,3.5-1.6,4.9-3,.1.1.2.2.3.2s.4-.1.2-.4c.4-.2.9-.5,1.3-.7.1.2.2.2.4.1.1-.1.3-.2.1-.4.5-.2,1-.4,1.3-.9.1.2.3.2.4.1.1-.1.3-.3,0-.4.2-.2.5-.4.7-.6.1.2.2.2.4.1.1-.1.3-.2.1-.4,3.1-1.6,6.1-3.2,8.8-5.4.4.5.6,0,.7-.2.4-.9.4-1.4-.2-1.6h0ZM577.6,182.2c0-1.4-.7-2.2-1.8-2.4-2.9-.6-5.1-2.6-7.6-4-7.1-4.1-14.1-8.3-21-12.6-3.2-2-6.6-3.7-9.8-5.7-4.2-2.7-8.7-5-12.9-7.7-4-2.5-8-5.1-12-7.6-2.7-1.6-5.4-3.1-8-4.9-2.5-1.7-5.1-3.3-7.8-4.8-5.3-3-10.5-6.2-15.9-9.3-5.8-3.3-11.4-6.9-17-10.4-5-3-10-6.1-15-9.1-4.7-2.8-9.4-5.7-14-8.6-5.8-3.6-11.8-7-17.7-10.5-4.6-2.8-9-5.9-13.7-8.5-5.4-3.1-10.8-6.2-16.1-9.4-5.2-3.1-10.4-6.2-15.4-9.5-4.6-3.1-9.6-5.7-14.4-8.5-3.1-1.8-6.1-3.5-9.2-5.4-2.4-1.5-4.7-3.2-7.2-4.6-5.9-3.5-11.8-6.9-17.6-10.4-3.4-2.1-6.7-4.3-10.1-6.4-3.7-2.2-7.5-4.4-11.2-6.6-4.1-2.5-8.1-4.9-12-7.6-.9-.6-1.9-.7-2.8-.1-3.5,2.2-6.8,4.8-10.5,6.8-1.8,1-3.3,2.4-5.1,3.4-4.2,2.3-7.9,5.2-12,7.6-7.8,4.6-15.6,9.3-23.3,14.1-4,2.5-8,4.9-12,7.3-4.7,2.9-9.4,5.6-14,8.6-4,2.7-8.3,5-12.3,7.7-4,2.6-8.1,5.1-12.2,7.5-4.1,2.4-8.2,4.9-12.2,7.6-7.6,5-15.6,9.3-23.2,14.3-4.3,2.8-8.8,5.3-13.2,8-3.2,2-6.1,4.3-9.4,6.1-4.6,2.4-8.9,5.2-13.2,8-4.9,3.1-10,6.1-14.9,9.2-8.6,5.4-17.3,10.5-25.9,15.9-6.8,4.4-13.6,8.8-20.7,12.8-5.5,3.1-10.7,6.8-16,10.1-1.3.8-2.8,1.3-3.9,2.4-1.3,1.3-2.9,2.2-4.6,3.1-2.1,1.1-4.1,2.3-6.1,3.4-5,2.8-9.4,6.7-14.8,8.9-1,.4-1.7,1-1.7,2.2s.7,1.9,1.7,2.2c3.4,1.1,6.2,3.4,9.2,5.2,7.1,4.3,14.1,8.8,21.1,13.1,4.4,2.7,9,5,13.3,7.9,5.6,3.8,11.3,7.3,17.1,10.8,8.4,5.1,16.7,10.4,25.2,15.4,8.1,4.9,16.3,9.7,24.3,14.8,6.9,4.4,14.1,8.5,21,13,7,4.7,14.5,8.5,21.5,13.1,6.2,4.1,12.6,7.9,19,11.6,9.4,5.5,18.3,11.6,27.7,17,4,2.3,7.9,4.9,11.8,7.4,5.3,3.4,10.8,6.5,16.1,9.8,5.6,3.5,11.2,7,16.8,10.5,6.6,4.1,13.3,8,20,12.1,5.3,3.2,10.5,6.5,15.7,9.9,1,.6,2,.8,3,.2,4-2.6,8.2-4.7,12.2-7.2,5.2-3.3,10.5-6.3,15.6-9.7,4.5-3,9.2-5.7,13.9-8.3,5.7-3.1,11-6.8,16.6-10.1,4.6-2.7,9.3-5.2,13.8-8.2,3.8-2.6,7.8-4.8,11.7-7.2,7.2-4.4,14.4-8.7,21.7-13,4.6-2.7,9.3-5.3,13.8-8.2,6.7-4.3,13.7-8.2,20.5-12.5,7-4.5,14.2-8.6,21.3-12.8,7.4-4.4,14.6-9.2,22.1-13.5,5.2-3,10.3-6.1,15.5-9.1,2-1.2,3.9-2.6,5.9-3.8,8.6-5.1,17.2-10.1,25.7-15.4,4.5-2.8,9-5.6,13.6-8.2,6.2-3.5,12.2-7.3,18.3-10.9,7.9-4.6,15.3-10.1,23.8-13.7.3-.7,1.2-1.3.9-2.6h0Z"/>
  <path class="st0" d="M429.7,83.6l-.2.2c-1.7-1.3-3.8-1.7-5.5-3-2.2-1.7-4.6-2.9-6.9-4.3-4.9-2.9-9.9-5.8-14.7-8.8-2.4-1.5-4.9-2.8-7.3-4.3-2.7-1.6-5.3-3.3-8-4.9-1.9-1.2-3.8-2.3-5.6-3.4-2.7-1.5-5.4-3.3-8.1-4.9-2.3-1.4-4.8-2.7-7-4.2-2.3-1.7-5-2.9-7.4-4.4-2.5-1.5-5.1-3-7.5-4.6-2.3-1.5-4.7-2.8-7-4.2-5-3.1-10.2-6-15.2-9.2-1.8-1.1-3.6-2.1-5.4-3.2-4.4-2.7-8.9-5.1-13.2-7.8-5.1-3.2-10.3-6.2-15.4-9.4-.8-.5-2.7-.8-1.6-2.7.9,0,2.1-.4,1.8,1.3-.1.4.6.7,1.1.9,4.5,2.2,8.5,5.1,12.8,7.6,3.4,2,6.9,3.9,10.2,6.1,4.2,2.8,8.7,5,12.8,7.9,1.6,1.1,3.4,2.1,5.1,3,3,1.5,5.7,3.4,8.5,5.1,1.9,1.2,3.9,2.2,5.8,3.5,2.7,1.9,5.7,3.5,8.5,5.4,2.5,1.7,5.2,3,7.6,4.7,1.8,1.3,3.8,2.3,5.7,3.4,5.3,3.2,10.6,6.5,16,9.6,4.3,2.4,8.4,5.1,12.7,7.6,2.6,1.5,5.3,3.1,7.9,4.8,2,1.4,4.2,2.6,6.4,3.8,2.8,1.6,5.5,3.3,8.3,5,.9.5,1.6,1.1,2.6,1.5.8.6,1.7.9,2.2,1.9h0Z"/>
  <path class="st0" d="M532.9,145.7c-1.6,0-2.9-.9-4-1.7-2.3-1.8-4.9-3-7.3-4.5-5-3.1-10.1-6.1-15.2-9.1-2.8-1.7-5.6-3.4-8.4-5-3.4-1.9-6.9-3.9-10.1-6-4.1-2.7-8.6-4.7-12.5-7.8-.7-.6-1.6-.9-2.5-1.3h0c0,0,.1-.2.1-.2,1.3,0,2.3.7,3.2,1.3,2.5,1.9,5.3,3.1,7.9,4.8,3,2,6.2,3.6,9.1,5.6,1.6,1.1,3.4,2,5.1,3,2.4,1.4,4.6,2.9,7,4.2,2.7,1.5,5.3,3.1,7.9,4.8,1,.7,2.1,1.1,3.1,1.7,2.5,1.2,4.8,2.7,7,4.4.6.5,1.2,1,1.8,1.3,2.6,1.1,4.7,3.2,7.3,4.3.2-.2.6-.2.5.2h0Z"/>
  <path class="st0" d="M434.8,277.8c.5-1,1.5-1.2,2.4-1.8,2.8-1.7,5.6-3.2,8.3-5,2-1.3,4-2.4,6-3.6,2.7-1.5,5.1-3.6,8.1-4.7.6-.2.9-1.2,1.7-.9.5.6-.2.8-.5,1-3.9,2.1-7.6,4.6-11.4,6.8-3.2,1.8-6.3,3.8-9.4,5.6-1.7,1.1-3.3,2.2-5.2,2.6h0Z"/>
  <path class="st0" d="M578.7,173.3c-1.5.3-2.5-.7-3.5-1.5-.9-.7-1.9-1.3-2.9-1.8-2.5-1.4-5-2.9-7.4-4.4-.3-.2-1-.3-.5-1,3.9,2.3,7.9,4.4,11.7,7,.8.6,1.7,1,2.6,1.4h0c0,.2,0,.3,0,.3h0Z"/>
  <path class="st0" d="M547.8,154.7c-1.4,0-2.5-.6-3.5-1.4-.9-.7-1.8-1.4-2.9-1.8-2.3-1-4.1-2.8-6.4-3.7,0,0,0-.2,0-.2,0-.1,0-.1.2-.2.8.1,1.7.4,2.3.9,2.3,1.8,5.1,2.9,7.5,4.7.9.6,2.2.7,2.9,1.7h0Z"/>
  <path class="st0" d="M364.2,320.3c.9-1,2.2-1.5,3.2-2.3,1.9-1.3,3.9-2.2,5.9-3.3.2,1.1-.9,1.3-1.4,1.6-1.9.9-3.7,1.8-5.3,3.2-.5.5-1.4,1.1-2.4.8h0Z"/>
  <path class="st0" d="M583.1,187.7c.4-1.9.2-3.9.2-5.8s0-3.2-.3-4.8c.9.1.9.9.9,1.4,0,2.6,0,5.2,0,7.8,0,.5,0,1.1-.8,1.4h0Z"/>
  <path class="st0" d="M454.8,98.7c-1.2,0-2.1-.7-3-1.2-1.8-1-3.4-2.4-5.3-3.2h-.1c0-.2.1-.3.1-.3.8,0,1.5.4,2.1.8,2.1,1.2,4,2.7,6.2,3.8h0c0,0,0,0,0,0h0Z"/>
  <path class="st0" d="M563.8,164.3c-1.3.2-2.2-.7-3.1-1.2-1.6-.9-3-2.1-4.7-2.8,0,0,0-.1,0-.1,0-.1,0-.1,0-.2.9,0,1.7.4,2.2.9,1.7,1.2,3.7,2.1,5.5,3.4h0Z"/>
  <path class="st0" d="M191.7,58.3c.2.8-.5,1-.9,1.2-1.6.9-3.3,1.6-4.7,2.8-.2,0-.4.3-.6,0,.3-.8.9-1.2,1.6-1.5,1.4-.9,3-1.7,4.6-2.5h0Z"/>
  <path class="st0" d="M554.5,158.9s0,.1,0,.1c-2.1-1.1-4.3-1.9-6-3.6,0,0,0-.2.2-.3,1.8,1,3.7,2.1,5.5,3.1.2,0,.5.2.4.7h0Z"/>
  <path class="st0" d="M465.7,105.3c-1.9-.3-5.2-2.4-5.6-3.5.7.2,5.3,3,5.6,3.5Z"/>
  <path class="st0" d="M181.2,64.9c.2.2.1.4-.1.5-1.5,1-3,1.9-4.7,2.3-.2-.4.2-.5.4-.6,1.6-.6,2.8-1.7,4.4-2.2h0Z"/>
  <path class="st0" d="M445.9,93.6c-1,0-1.4-.8-2.1-1.2-1-.5-2.1-.8-3-1.6h0c0,0,.1-.2.1-.2,2.1.5,4.3,1.8,5,3h0Z"/>
  <path class="st0" d="M338.4,335.9c1.2-.9,2.4-1.8,3.8-2.4l.2.2c-.5,1.1-2.7,2.3-4,2.2h0Z"/>
  <path class="st0" d="M435.1,87c-1.6-.7-3.2-1.3-4.5-2.6,1.7.6,3.4.9,4.5,2.6Z"/>
  <path class="st0" d="M388.9,305.4c.6-.8,2-1.5,3.4-1.8.3.2.2.5,0,.6-1.1.3-2.1,1.2-3.4,1.2h0Z"/>
  <path class="st0" d="M318.9,347.8c.9-.8,1.5-1.9,2.9-2-.3,1-1.9,2.2-2.9,2Z"/>
  <path class="st0" d="M195.9,55.9c.3.2.1.5-.1.5-1.1.5-2.1,1.5-3.4,1.4.9-1,2.2-1.4,3.5-1.9h0Z"/>
  <path class="st0" d="M206.1,49.6q-.3.7-.8.9c-.9.3-1.6,1.2-2.8,1,1-1,2.3-1.4,3.6-1.9Z"/>
  <path class="st0" d="M424.8,283.8c.7-1.3,1.9-1.5,3.2-1.7-.8.9-1.9,1.4-3.2,1.7Z"/>
  <path class="st0" d="M211.1,46.5c.4.6-.2.6-.5.7-.9.3-1.6,1.2-2.7,1,.9-1,2.1-1.3,3.2-1.7Z"/>
  <path class="st0" d="M378,311.9c.7-1,1.8-1.5,3-1.6-.8.9-1.8,1.5-3,1.6Z"/>
  <path class="st0" d="M184.8,62.8c-.6,1.1-1.5,1.4-2.6,1.4.6-.9,1.5-1.2,2.6-1.4Z"/>
  <path class="st0" d="M200.4,53.2c-.6,1-1.5,1.4-2.6,1.4.6-.9,1.6-1.2,2.6-1.4Z"/>
  <path class="st0" d="M411,292.1c.5-.7,1.2-1.1,2.1-1-.5.8-1.1,1.2-2.1,1Z"/>
  <path class="st0" d="M283.2.7c.6.2.6.7.4,1.2-.1.3-.3.7-.7.2-.2-.5-.6-1.1.3-1.4h0Z"/>
  <path class="st0" d="M471.6,108.9c-.9,0-1.2-.2-1.6-1.2.7,0,1.3.5,1.6,1.2Z"/>
  <path class="st0" d="M429.6,281.1c.3-.9.4-1,1.5-1.1-.4.7-.7.9-1.5,1.1Z"/>
  <path class="st0" d="M354.3,326.3c.4-.6.9-.9,1.6-.9-.2.9-.8,1.1-1.6.9Z"/>
  <path class="st0" d="M316.2,349.1c.4-.5.8-.9,1.5-.7-.2.7-.8.9-1.5.7Z"/>
  <path class="st0" d="M357.9,324c.3-.6.8-.9,1.5-.7-.3.5-.7.9-1.5.7Z"/>
  <path class="st0" d="M404.8,295.8c.2-.8.8-.9,1.5-.8-.4.7-.8.9-1.5.8Z"/>
  <path class="st0" d="M467.4,106.5c-.8.3-1.1,0-1.1-.8.6,0,1,.3,1.1.8Z"/>
  <path class="st0" d="M438.9,89.1c-.7.2-1.2,0-1.5-.8.8,0,1.3.1,1.5.8Z"/>
  <path class="st0" d="M415.3,289.5c.2-.8.8-.9,1.5-.8-.4.7-.8,1-1.5.8Z"/>
  <path class="st0" d="M329.1,341.6c.2-.5.6-.8,1.1-.8.2,1-.4.9-1.1.8Z"/>
  <path class="st0" d="M201.9,52c.1.7-.1,1-.9.8,0-.6.3-.9.9-.8Z"/>
  <path class="st0" d="M534.4,146.9c-.8.3-1-.1-.9-.8.6,0,.8.3.9.8Z"/>
  <path class="st0" d="M469.2,107.4c-.6.3-1,0-1.1-.6.5,0,1,0,1.1.6Z"/>
  <path class="st0" d="M408.7,293.7c0-.6.2-.9.9-.8,0,.7-.3,1-.9.8Z"/>
  <path class="st0" d="M581.2,175.1c-.7.2-1-.1-.9-.8.6,0,.8.3.9.8Z"/>
  <path class="st0" d="M458.1,100.8c-.6.3-1,0-1.1-.5.5,0,1,0,1.1.5Z"/>
  <path class="st0" d="M456.3,99.9c-.7,0-.8,0-.9-.8.7,0,.9.2.9.8Z"/>
  <path class="st0" d="M419.3,287.2c.1-.6.2-.6.8-.6,0,.7-.2.7-.8.6Z"/>
  <path class="st0" d="M401.7,297.9c.2-.5.3-.6.9-.5,0,.5-.3.6-.9.5Z"/>
  <path class="st0" d="M432.6,279.2c.2-.5.4-.5.9-.5,0,.6-.3.7-.9.5Z"/>
  <path class="st0" d="M308.2,354.2c.1-.5.4-.7.8-.5,0,.8-.4.7-.8.5Z"/>
  <path class="st0" d="M315,350c0-.5.3-.7.8-.6,0,.7-.2.9-.8.6Z"/>
  <path class="st0" d="M345.9,331.4c0-.6.3-.7.8-.6,0,.6-.1,1-.8.6Z"/>
  <path class="st0" d="M387.3,306.6c0-.6.2-.8.8-.6,0,.5-.2.7-.8.6Z"/>
  <path class="st0" d="M348.1,330c0-.6.3-.7.8-.5,0,.6-.3.7-.8.5Z"/>
  <path class="st0" d="M356.7,324.9c0-.6.3-.8.8-.6,0,.6-.2.8-.8.6Z"/>
  <path class="st0" d="M360.9,322.5c0-.5.2-.8.8-.6,0,.5-.2.8-.8.6Z"/>
  <path class="st0" d="M362.1,321.6c0-.5.2-.8.8-.6,0,.5-.2.8-.8.6Z"/>
  <path class="st0" d="M440.5,90.2c-.6.4-.7,0-.7-.4.6-.3.7,0,.7.4Z"/>
  <path class="st0" d="M414.1,290.4c-.2-.6,0-.7.5-.6.2.6,0,.8-.5.6Z"/>
  <path class="st0" d="M309.7,353.4c-.1-.5.1-.6.5-.5.3.1.2.3,0,.5-.1,0-.3.3-.5,0Z"/>
  <path class="st0" d="M423.7,284.7c-.2-.6,0-.8.5-.5.2.6,0,.7-.5.5Z"/>
  <path class="st0" d="M197.1,55c.3.3,0,.4-.1.6-.1,0-.3.2-.5,0,0-.5.1-.7.6-.5Z"/>
  <path class="st0" d="M398.1,300c0-.5.1-.7.6-.5.1.6,0,.8-.6.5Z"/>
  <path class="st0" d="M207.3,48.7c.2.2.1.3,0,.5-.2.2-.4.4-.6,0,0-.5.1-.7.6-.5Z"/>
  <path class="st0" d="M271.1,9.6c.2.2,0,.3-.1.4-.2.1-.3.1-.4-.1,0-.5.2-.5.5-.3Z"/>
  <path class="st0" d="M376.9,312.9c-.2-.1-.2-.2-.1-.3.1-.1.3-.2.5-.1s.1.3,0,.4c-.1.2-.3.3-.4,0h0Z"/>
  <path class="st0" d="M272.9,8.4c.2.2.1.3,0,.4-.1.1-.3.1-.4-.1-.2-.4,0-.5.4-.3Z"/>
  <path class="st0" d="M269.3,10.6c.1.3-.1.3-.2.4-.1,0-.2-.1-.3-.2-.2-.1-.1-.2.1-.3.2,0,.4-.2.4.1h0Z"/>
  <path class="st0" d="M382.2,309.6c-.1-.5.1-.5.5-.3.2.2.1.3,0,.4-.2.1-.4.1-.5-.1h0Z"/>
  <path class="st0" d="M263.9,13.8c.2.2,0,.3-.1.4-.2.1-.3.1-.4-.1,0-.5.2-.5.5-.3h0Z"/>
  <path class="st0" d="M351.6,327.9c-.1-.5.1-.5.5-.3.2.1.1.3,0,.4-.2.1-.4.1-.5-.1h0Z"/>
  <path class="st0" d="M350.4,328.8c0-.4.2-.5.5-.3.1.5-.1.6-.5.3Z"/>
  <path class="st0" d="M274.1,7.5c.2.2,0,.3-.1.4-.2.1-.3.1-.4-.1,0-.4.2-.5.5-.3Z"/>
  <path class="st0" d="M345.2,332.2c-.2-.1-.3-.2-.1-.4s.3-.2.5,0c.1.4,0,.5-.4.4h0Z"/>
  <path class="st0" d="M331.2,340.1c0-.4.2-.5.5-.3.2.2,0,.3-.1.4-.2.2-.3.2-.4-.1Z"/>
  <path class="st0" d="M262.7,14.7c.2.2.1.3,0,.4s-.3.1-.4-.1c-.2-.4.1-.5.4-.3Z"/>
  <path class="st0" d="M213.2,45c.1.5-.1.6-.5.3,0-.4.2-.5.5-.3Z"/>
  <path class="st0" d="M461.8,261.5c.1-.2.2-.5.5-.2s.2.4,0,.4c-.3.1-.5,0-.5-.2Z"/>
  <path class="st0" d="M383.7,308.4c-.2-.1-.1-.3,0-.3.1-.1.3-.1.2.1.1.1,0,.3-.1.3.1,0,0-.1-.1-.1h0Z"/>
  <path class="st0" d="M472.2,109.5c-.1.2-.2.2-.3,0-.1,0-.1-.2.1-.3.1-.2.2,0,.3,0s.1.2-.1.2h0Z"/>
  <path class="st0" d="M336.6,336.8c-.1-.1,0-.2.1-.3,0,0,.1,0,.2.1,0,.1.1.2.1.3-.2.2-.3,0-.4-.1h0Z"/>
  <path class="st0" d="M327.9,342.2v-.2c.1-.1.2-.1.3,0,.2.1.1.2,0,.3-.1.1-.2.1-.3,0h0Z"/>
  <path class="st0" d="M326.7,342.9c0-.1-.1-.2-.1-.2.1-.1.2-.2.3,0,.2.1.2.2.1.3s-.2,0-.3,0Z"/>
  <path class="st0" d="M325.8,343.4v-.2c.1-.1.2-.2.3,0,0,.1.1.3.1.3-.2.2-.3.1-.4,0h0Z"/>
  <path class="st0" d="M394.8,301.8c-.1-.1,0-.2.1-.3.1,0,.2.1.3.1.1.1,0,.2-.1.3,0,0-.2-.1-.3-.1h0Z"/>
  <path class="st0" d="M399.3,299.1c-.2-.1-.1-.2,0-.3.1,0,.2,0,.3.1.2.1.1.2,0,.3,0,.1-.2.1-.3-.1h0Z"/>
  <path class="st0" d="M403.5,296.7c-.1-.1-.1-.3.1-.3s.2.1.3.1c.1.1.1.3-.1.3s-.2-.1-.3-.1Z"/>
  <path class="st0" d="M434.1,278.4c-.2-.1-.1-.2,0-.3s.2-.1.3.1c.2.1.1.2,0,.3,0,.1-.2.1-.3-.1h0Z"/>
  <path class="st0" d="M436,87.6c-.1,0-.2,0-.3,0-.1,0-.2-.2,0-.3.1,0,.2,0,.3,0,0,.1,0,.2,0,.3h0Z"/>
  <path class="st0" d="M459.3,101.4c-.1,0-.2,0-.3,0s-.2-.2,0-.3c0-.2.2-.2.3,0,.1,0,.2.2,0,.3h0Z"/>
  <path class="st0" d="M428.8,281.7c-.2-.1-.2-.2-.1-.3h.3c.2.1.2.2.1.3s-.3.2-.3,0h0Z"/>
  <path class="st0" d="M555.4,159.5c0,.2-.2.3-.4.1,0,0,0-.2,0-.3,0-.2.2-.1.3,0,.1.1,0,.2,0,.2h0Z"/>
  <path class="st0" d="M418.2,288c-.2-.1-.1-.2,0-.3h.3c.2.1.2.2,0,.3,0,.2-.2.2-.3,0h0Z"/>
  <path class="st0" d="M434.5,162.2c3,0,6.1-.1,9.1-.3,2.7-.2,4.7,1,6,3.5,1.1,2,2.4,3.9,2.3,6.4-.1,2.7-1.5,3.6-4,2.6-1.9-.8-3.4-2.1-4.7-3.6-1.2-1.4-2.7-2.1-4.5-2.4-3.6-.6-7.1,2.8-6.6,6.4.2,1.8,1.6,2.6,3.2,2,.7-.2,1.2-.6,1.8-1.1,1.4-1.2,3-1.4,4.1-.7.8.6,1.4,2.8.9,4-.9,1.9-1.3,4-2,5.9-1.1,3.1-3.9,3.8-6.3,1.4-2.2-2.2-2.8-2.1-3.8.9-.2.7-.5,1.3-.7,2-1.1,3.6,1.4,5.6,4.1,5.8,3.5.2,6.3-1.2,8.4-4,1.3-1.8,2.9-3.3,4.4-4.9.9-.9,1.8-1.4,3.1-.8,1.2.5,1.4,1.5,1.4,2.7,0,2.1-1.4,3.5-2.2,5.1-.9,1.6-1.6,3.3-2.3,5-1,2.5-2.4,3.6-5,3.4-5.2-.4-10.5.1-15.7-.1-6.9-.4-13.8,0-20.6.1-1.2,0-2.3-.1-3.4-.6-1.4-.6-1.9-1.8-1.4-3.3.4-1.1.9-2.1,1.4-3.1,1.7-2.9.3-5.1-1.2-7.1-1.7-2.4-3.2-2.3-5.2-.2-2,2.2-2.2,4.1-.5,6.6.6.9,1.4,1.8,2,2.8,1.5,2.1,1,3.8-1.5,4.5-1.4.4-2.9.5-4.4.5-5,0-10-1.1-15.1-.2-2.5.4-5.1.5-7.7.1-1.3-.2-2.2-.9-2.7-2.1-.5-1.2.1-2.2.9-3,.9-.9,2-1.7,2.9-2.6,1.4-1.4,1.4-3.1-.2-4.4-1.5-1.2-3.3-1.6-5.2-1.2-1.3.3-2.4,1-3.5,1.7-1.4.9-1.8,2.5-1.2,4.2.3.9.7,1.8,1.1,2.6,1.1,2.3.3,4-2.1,4.5-2.9.6-5.8.5-8.6-.1-1.9-.4-3.8-.2-5.6.2-1.1.2-2.3.2-3.4.1-1.7-.3-2.9-1.3-3.5-2.9-1-2.8-2.6-5.4-3.5-8.3-.4-1.5-1.5-2.7-2.6-3.8-1.1-1-2.3-.8-3.2.4-1.6,2.2-1.5,4.4.1,6.6.9,1.3,2.1,2.4,2.5,4.1.6,2.6-.6,4.5-3.2,4.2-3.1-.3-6.1-.1-9.1.1-2.4.1-3.7-.6-4.1-2-.5-1.6.2-3.6,2-4.6,2.5-1.3,3-3.4,3.3-5.9.3-2.4,1-4.6,1.2-7,.3-3.2.8-6.4,1.9-9.5.9-2.6-.7-4.5-2.2-6.3-1.8-2.2-1.1-4,1.6-4.4,1.2-.2,2.5-.1,3.7,0,2.8.3,5.7.2,8.5,0,5.3-.4,10.1.9,13.5,5.3,1.8,2.4,1.7,5.2.8,8-1.1,3.1-3.3,5.3-6,7-.9.5-1.6,1.2-2,2.1-.6,1.1-.6,2.2.1,3.2,1,1.6,2,3.2,3,4.8.8,1.2,1.8,2.1,3.1,2.7,1.9.8,4.2-.2,4.9-2.5,1.1-3.4,3.4-6.1,5-9.3,1-2,1.9-4,2.9-6,1.5-3,3.2-5.9,5-8.9.8-1.3,1.5-2.6,2.1-3.9,1.1-2.2,3.5-3.2,5.9-2.4,2,.6,2.5,2.4,2.5,4.2,0,5.3,1.9,10.3,2.3,15.5.3,3.3.8,6.5.8,9.8s.9,2.5,2,3c1.2.6,2.6.6,3.8-.2,1.3-.9,1.8-2.1,2.2-3.7,1.6-6,1.6-12.2,3.4-18.2.5-1.7.4-3.5-1.2-4.8-.3-.2-.5-.6-.7-.9-1.4-1.8-1.1-3.1,1-3.9,1.3-.5,2.7-.9,4.2-.9,1.8.1,3.7.1,5.5-.2.5-.1,1.1-.1,1.6,0,1.1.1,2.2.3,2.6,1.4.3,1-.5,1.8-1.2,2.4-1.1.9-2.1,2-3.1,3-1.2,1.2-1.5,2.8-1.5,4.4.1,2.3,2.2,3.2,4.1,1.8,2.3-1.7,3.8-3.9,4.4-6.8.3-1.4.2-3.1,1.4-4.2,1.1-1.1,2.6-1.3,4.1-1.5,2.4-.4,4.8-.6,7.1.2,1.8.5,2.3,2,1.1,3.4-.7.9-1.6,1.7-2.5,2.3-1.6,1-2.8,2.3-4,3.7-1.5,1.7-3.2,3.1-4.8,4.7-1.4,1.4-1.8,3.2-.8,4.9,1.2,2.3,2.4,4.7,4,6.8,1,1.3,1.7,2.8,2.2,4.4.7,2.2,2.2,3.3,4.7,3.2,1.8,0,3.7-1.5,3.9-3.5.6-4.1,1.8-8.2,2.1-12.4.1-1.5.4-3.1.9-4.5,1-3.2.9-6.1-1.2-8.8-.3-.4-.5-.9-.6-1.5-.3-1.8,0-2.3,1.8-2.6,2.2-.4,4.4-.7,6.7-.6,1.4.1,2.5,0,3.7.1h0ZM329.8,173.7c0,2.8.7,4.1,2.5,4.8,3.1,1.3,8.1-2.4,7.8-5.8,0-.2-.1-.5-.1-.7-.8-2.1-3.8-3.8-6.1-3.6-2.4.2-3.3,1.2-3.9,4.1,0,.6,0,1.1-.2,1.2h0ZM369.5,178.9c.1-1.1-.2-2.2-1.4-2.8-1.3-.6-1.8.6-2.6,1.3-.3.3-.6.6-.8.9-.6.9-.7,1.9-.2,2.8.5,1,1.4,1.3,2.4,1.2,1.6,0,2.6-1.2,2.6-3.4h0Z"/>
  <path class="st0" d="M158.4,201.5c-1.9-.1-3.9.2-5.8-.2-2-.4-2.6-1.6-1.9-3.6.4-1,1-1.7,1.8-2.3,2.5-1.9,3.7-4.4,3.9-7.6.3-4.9,1.1-9.7,2.8-14.3.3-.9.3-1.9.2-2.8,0-1-.5-1.8-1.4-2.1s-1.9-.3-2.8.6c-1,1.1-1.7,2.3-2.3,3.6-.5,1.1-1.1,2.1-2.1,2.9-.7.6-1.4,1.1-2.3.8-.9-.4-1.7-1.2-1.7-2.3-.1-2.4.3-4.7,1.9-6.6.9-1.1,1.7-2.2,2.1-3.6.4-1.4,1.4-1.9,2.7-2.1,2.2-.3,4.4-.4,6.6,0,3.5.7,6.9.1,10.4-.5,1-.2,2-.2,3-.1,1.5.1,2.5.9,2.9,2.4.3,1.4.7,2.7.9,4.1.7,3.3,3.1,2.8,4.9,1.3.9-.7,1.4-1.8,1.9-2.8.6-1.2,1.4-2.1,2.7-2.7,1.4-.6,2.8-1.3,4.2-1.9,2.4-1.1,4.8-1.2,7.2-.2,1.8.8,3.7,1.1,5.7,1.2,1.1.1,1.6.6,1.9,1.5.8,2.7,1.6,5.4,2,8.2.2,1.4.2,2.8-1.1,3.8-1.9,1.5-3.8,1.1-4.6-1.2-.6-1.8-1.3-3.8-2.4-5.2-2.5-2.9-5.2-3.9-8.5-.9-2.7,2.5-4.4,5.6-4.9,9.2-.4,2.4-1.3,4.7-1,7.2.4,3.3,1.6,6.2,4.1,8.4,2.1,1.9,5,1.7,7.3-.4,1.1-.9,1.9-2,3-3,1.1-1.1,2.4-2.1,4.1-1.5,1.1.4,1.6,2.4,1.3,4.3-.2,1-.5,2-1.4,2.5-2,1.1-3.7,2.5-5.4,4-4.1,3.6-12,2.7-15.5-1.1-3.4-3.6-5.9-7.7-6.4-12.7-.2-1.8.1-3.5.4-5.2.4-2.6.2-4.7-2-6.4-1.4-1.1-2.5-2.6-3.4-4.1-.7-1.1-1.5-1.9-2.9-1.6-1.3.3-1.7,1.4-1.9,2.6-.3,2,0,4.1-.4,6.1-.5,2.9-.8,5.7-1,8.6,0,.5-.2,1.1-.5,1.6-1.7,2.5-.9,4.8.3,7.2s1.4,2.8.8,4.4c-.5,1.4-1.4,2.2-2.9,2.2-1.3.3-2.9.3-4.5.3h0Z"/>
  <path class="st0" d="M231.8,201.5c-1.4,0-2.7.1-4.1,0s-2.5-.6-3.2-1.9c-.7-1.3,0-2.5.8-3.4.9-1,2.1-1.8,3-2.9,1.9-2.2,1.7-4.9,1.4-7.5-.1-.4-.4-.8-.8-1.1-2.3-2.1-7.2-1.1-8.7,1.7s-2,5.5-.1,8.3c.6.9.8,1.9,1.2,2.9.4,1.2-.2,2.5-1.6,3-1.8.7-3.7,1.1-5.7,1.1s-3.8-.2-5.7.3c-.9.2-1.7-.1-2.4-.9-1.4-1.8-.8-4.7,1.2-5.8,1.9-1,3.4-2.1,3.7-4.5.2-1.6.9-3.1.8-4.7-.1-3.8.8-7.4,2.2-10.9,1.1-2.8.9-5.4-1.3-7.7-.4-.4-.8-.9-1-1.5-.8-1.6-.1-3.1,1.6-3.5,1.5-.4,3-.7,4.6-.7,1.5.1,3.1,0,4.6-.2,1.4-.2,2.9-.3,3.8,1.2s.2,3.6-.8,4.7c-.7.8-1.5,1.5-2.2,2.2-1.8,1.7-1.9,3.7-1.3,5.9.2.9.9,1.6,1.7,1.7,2.2.1,4.4.7,6.7.2.5-.1.9-.4,1.2-.8,1.8-2.6,2.9-6,.3-9.1-.5-.6-1-1.4-1.3-2.2-.6-1.6.1-2.8,1.7-2.9,3.1-.3,6.1-.6,9.2-.9,1-.1,2,.1,3,.3,2.1.4,2.8,1.9,1.8,3.8-.7,1.3-2,2.1-3.1,3-1.5,1.2-2.1,2.9-2.2,4.6-.1,5.5-1.4,10.9-2.6,16.2-.3,1.4-.3,2.7.4,4,.6,1.2,1.4,2.3,1.8,3.6.7,2.3-.2,3.6-2.6,4.1-1.9.4-3.9.3-6,.3h0Z"/>
  <path class="st0" d="M165.6,111.3c0-2-.1-4,0-6,.2-2.7,2.3-4.5,3.7-6.6,3.1-4.7,7.5-7.6,12.8-9.3.1,0,.1,0,.1,0,3.7,0,7.4-.3,10.9,1.3,3.1,1.5,4.9,4.2,6.1,7.3.7,1.9.6,3.9-.4,5.8-1.8,3.5-3.9,6.7-7.5,8.7s-2.3,2.8-1.6,4.7c1.4,3.8,2.4,7.8,3.4,11.7.9,3.5,2.5,6.8,4.1,10.1.7,1.5,1.7,3,3.8,2.9,1.5-.1,2.2-1.2,3.1-2,.4-.3.6-.8,1-1.1,1.2-1.2,2.4-1.3,3.6-.4,1.4,1.2,1.8,2.9.7,4.1-2.3,2.6-5,4.4-8.7,4.2-1.5-.1-2.7-1-3.9-1.8-4.1-2.7-6.6-6.6-8.6-11-2-4.3-2.4-8.9-3.8-13.3-.2-.7-.4-1.3-.7-2-.1-.4-.4-.9-.9-.9s-1,.3-1.2.8-.4,1-.6,1.5c-.9,4.5-1.5,8.9-.2,13.5.6,2.1.1,2.6-2,2.1-2.8-.7-5.6-.5-8.5-.9-.7-.1-1.4-.2-1.9-.7-.9-.8-1-1.9-.1-2.7.7-.6,1.4-1.1,2.2-1.6,2.4-1.5,3.4-3.8,3.4-6.4s.2-3.7,1.4-5.4c1-1.4.9-3.2,1.1-4.9.1-.6.2-1.3.1-1.9-.2-3.3,1.2-6.2,2.1-9.3.2-.7.4-1.4.5-2.2.3-1.6,1.5-2.5,3.1-2.3s2.8,1.4,2.9,2.9c0,.8-.1,1.5-.4,2.2-.3,1-.6,2-.9,3-.4,1.4-.1,2.6,1.1,3.4,1.1.7,2.6.4,3.7-.6,1.6-1.6,2.7-3.5,3.4-5.6,1.3-3.6-1.8-8.3-5.7-9.1-2.8-.6-5.3-.2-7.5,1.7-1.6,1.3-3.4,2.2-4.9,3.6-3.9,3.5-5.4,7.8-4.5,13,.3,1.7,1.1,3.3,1.7,4.9,1,2.6.2,3.9-2.6,4.2-1,0-1.7-.2-2.2-1.1-.6-1.1-.9-2.2-.9-3.4,0-1.6,0-3.3.2-5q-.1,0,0,0h0Z"/>
  <path class="st0" d="M294.9,162c3,0,5.2-.1,7.5-.2,4.9-.2,9.2,1.3,12.1,5.7,1.5,2.3.7,7.2-1.3,9.1-1,.9-2,1.8-2.8,2.9-.6,1.1-.5,2,.3,2.9,3.8,3.9,3.8,10-.1,13.8-1.6,1.6-2.9,3.4-5.1,4.4-2.6,1.1-5.4,1.2-8.2,1.1-3.6-.2-7.2-.8-10.9,0-1.4.3-2.9.3-4.3-.2-2.2-.8-2.8-2.4-1.5-4.5.6-1,1.6-1.6,2.5-2.3,1.5-1.1,2.3-2.5,2.8-4.4,1-4.2,1.2-8.4,2.1-12.6.4-1.6.8-3.3,1.2-4.9.4-1.9-.4-3.4-1.5-4.9-1.6-2.2-2-4.6,1.3-5.6,2.1-.7,4.4-.3,5.9-.3h0ZM296.5,173.8c0,4,2,5.3,5.6,3.9.5-.2,1.1-.5,1.6-.7,1.9-.8,2.7-2.4,2.9-4.4.2-2.3-1.2-4.1-3.5-4.5-3.2-.6-5.3.4-6.2,3.3-.3.9-.5,1.7-.4,2.4h0ZM304.3,188.2c.3-1.8-1.8-3.2-3.6-3.8-1.9-.6-3.5,0-4.5,1.7-.7,1.3-1.4,2.6-1.9,4.1-.6,1.9.1,3.3,2,4,3.4,1.2,8-2.2,8-6h0Z"/>
  <path class="st0" d="M533,179.1c0,4.1-.9,8-2.7,11.6-1.2,2.4-3.2,4.4-4.9,6.6-2.2,2.9-5.2,4.6-8.8,5.3-1.2.2-2.5.3-3.7,0-1.5-.4-3-.9-4.4-1.3-2.6-.7-4.3-2.5-5.5-4.8-1.6-3.3-3.3-6.7-3.7-10.5-.3-2.6,0-5,.6-7.5.1-.3.2-.6.1-.9-.8-2.3.1-3.8,2-5,.7-.4,1-1.3,1.4-2.1,2.4-5.4,7.2-7.7,12.1-9.7,2-.8,4-.4,5.9.6,2.9,1.6,5.7,3.2,7.7,6,2.5,3.5,3.8,7.4,3.9,11.7h0ZM508.1,184.7c0,1.8.4,3.4.8,5.2.4,1.9,1.3,3.5,2.8,4.8,1.6,1.4,3.5,1.6,5.2.4,3.5-2.4,5.6-5.9,6.3-10.1.3-1.6.4-3.3.6-4.9.6-3.8,0-7.4-2.1-10.6-1.4-2.2-4.8-2.9-6.7-1.4-1.7,1.4-3.1,3.1-4.2,5-2.1,3.7-2.5,7.6-2.7,11.6h0Z"/>
  <path class="st0" d="M123.9,202.2c-4.2.7-9.7-4.2-10.4-9.8-.3-2.2-.4-4.3.2-6.5.5-1.7.3-3.6.4-5.4.2-2.1.7-4.1,1.5-6.1.8-1.9.7-3.8-.3-5.6-.7-1.3-1.6-2.4-1.6-4s.6-2.3,2-2.6c1.7-.4,3.4-.6,5-.2,1.4.3,2.7-.1,4-.3,1.5-.2,2.8-.2,3.7,1.2.7,1.1.6,2.9-.9,4-3.2,2.5-4.3,5.9-4.3,9.7s-1.2,6.6-1.7,10c-.2,1.5-.3,3-.1,4.5.2,2.4,3.9,4.4,6.3,3.4,1.8-.7,3.1-2.1,3.7-3.9,1.7-4.6,2.4-9.4,3.1-14.3.2-1.2.3-2.4.6-3.5.6-2,0-3.8-.9-5.5-1.6-3-.4-5.3,3.1-5.6,1.7-.2,3.4-.2,5.1-.3,1.2,0,2.4-.1,3,1.2.6,1.4.1,2.6-.7,3.8-.4.5-.8.9-1.3,1.3-1.7,1.4-2,3.2-2.2,5.2-.3,2.7-.1,5.5-.6,8.2-.6,2.8-1.2,5.6-1.9,8.4-.9,3.6-2.9,6.7-5.4,9.2-2.4,2.6-5.7,3.5-9.4,3.5h0Z"/>
  <path class="st0" d="M320.7,241.1c-1-.1-2.3.1-3.5.4-1.3.3-2.3,1.1-2.5,2.5-.2,1.3.3,2.4,1.5,3.2,1.8,1.2,4.4,1.1,6-.3.9-.8,1.9-.9,2.8-.5,1,.4,1.3,1.5,1.2,2.5,0,.8-.2,1.5-.6,2.1-2.3,3.7-7.9,4.5-11.1,1.6-1.3-1.2-2.2-2.7-3.1-4.2,0-.1-.1-.2-.1-.3-.6-.9-1.2-2.2-2.5-2.1-1.3.1-1.9,1.3-2.5,2.4-.3.7-.5,1.5-.9,2.2-.9,1.9-2.7,2.4-4.5,2.9-.7.2-1.5.2-2.2.4-2.3.5-2.7,1-3,3.3-.3,2.5-.8,3-3.1,3s-2.8-1.6-2.9-3.4c-.1-1.5.7-2.8,1-4.2.4-2.3.3-4.6.1-6.9-.1-1.3-.2-2.6-.2-3.9.1-2-.2-4-.4-6-.4-3.9.6-4.9,3.4-6.1,2.2-.9,4.5-1.8,6.9-1.5,3.9.5,5.3,3.5,6.4,6.7.4,1.3.5,2.7.8,4.1.1.5.1,1.2.8,1.2s1-.4,1.1-1c.3-1.2.6-2.4,1-3.6,1-2.8,2.9-4.8,5.1-6.7,1.9-1.6,3.5-1.6,5.5-.2,2.3,1.6,3.8,3.7,4.9,6.3,1.2,2.6-.5,5.6-3.4,5.8-.5.4-1.2.3-2,.3h0ZM303,240.5c.1-1.3-.1-2.6-.9-3.9-.8-1.3-2.5-1.9-4.1-1.5-1.5.4-2.2,1.3-2.2,3.1s0,2.5-.2,3.7.1,2.4.6,3.5c1.1,2.3,3.8,2.5,5.3.4,1.2-1.5,1.6-3.2,1.5-5.3h0ZM320.8,236.3c0-1.7-.5-2.3-2.2-2.3s-3.1.8-3.2,2.5c0,1.6,1.2,2.8,2.8,2.8,1.6,0,2.6-1.3,2.6-3h0Z"/>
  <path class="st0" d="M66,202.2c-5.8,0-8.8-2.5-11.6-5.5-5.9-6.5-5.1-14.1-2.9-21.5,1.7-5.9,5.9-10.5,11.5-13.5,2.4-1.3,5.1-1.6,7.7-.5,2.2.9,4.5,1.3,6.8,1.5,1.1.1,1.8.7,2.1,1.7,1.1,3.2,1.8,6.4,1.3,9.8-.2,1.6-1.6,3-3,3.1-1.8.1-2.8-.7-3.2-2.4-.3-1.6-.8-3.2-1.6-4.6-1.2-2.2-3.9-3.3-6.5-2.5s-3.6,2.6-4.7,4.7c-1.8,3.3-2.4,6.9-3,10.6-.8,4.8,1.6,10.1,5.9,12.3.8.4,1.6.4,2.4.1,1.7-.7,3.1-1.8,4.2-3.2.8-1,1.7-2,2.7-2.8,1.7-1.5,3.8-.7,4.3,1.5.4,2.1-.9,4.7-3.4,6.2-1,.6-1.9,1.2-2.6,2-2.1,2.4-4.7,3.2-6.4,3h0Z"/>
  <path class="st0" d="M480.5,202.3c-2.3.2-4.7-1.9-7-4.1-4.3-4-6.4-9-6.2-14.8.2-5.9,2.2-11.1,6.3-15.6,1.5-1.7,2.7-3.6,4.8-4.7,3.1-1.7,6.2-3.3,9.9-1.7,2,.8,4.2.7,6.3,1.1,2.1.4,2.8.9,2.8,3s.4,5.4,1,8c.2.7-.1,1.2-.6,1.7-2.3,1.9-5.6.8-6.2-2.2-.1-.6-.3-1.2-.5-1.9-.9-3.7-3.9-4.7-7.4-3.2-2.8,1.2-4.8,3.3-5.7,6.4-1,3.1-1.9,6.1-2.2,9.3-.1,1.3,0,2.5.4,3.7.4,1.3.8,2.6,1.4,3.8,2.1,4.1,6.1,6.3,10.7,2.1.9-.8,1.6-1.8,2.4-2.7,1.3-1.4,3.1-1.7,4.4-.9,1.2.8,1.5,2.8.7,4.5-.9,1.8-2.5,2.8-3.9,4.1-2.9,2.4-6.3,3.9-11.4,4.1Z"/>
  <path class="st0" d="M96.8,161.6c1.8,0,3.3.1,3.8,1.6s.4,3.1-1.1,4c-3,1.9-3.9,4.6-4,8.1,0,3.2-.5,6.4-1.3,9.6-.3,1.4-1,2.6-1.6,3.9-1,2.3-.8,3.8.8,5.3,1.2,1.1,2.6,1,3.9.7,3-.6,4.6-2.9,6-5.3.8-1.2,1.8-2.2,2.8-3.1.9-.8,2-.7,2.9,0s1.7,1.5,1,2.8c-.6,1.2-1.1,2.4-1.8,3.6-.6,1.1-1,2.1-1.2,3.3-1.1,4.8-3.5,5.3-7.6,5.3-4.6.1-9.2-.9-13.9.1-1.1.2-2.2.2-3.3,0-1.4-.2-2.4-.9-2.7-2.4-.3-1.5.3-2.5,1.5-3.3.6-.4,1.2-.7,1.8-1.1,1.2-.9,2-2.1,1.9-3.7-.2-2.7.6-5.2,1.1-7.8.7-3.7,1.3-7.4,2.1-11,.4-1.9-.2-3.6-1.5-5.1-1.8-2.1-1.2-4,1.5-4.7.9-.2,1.8-.4,2.6-.5,2.3-.1,4.5,0,6.3-.3h0Z"/>
  <path class="st0" d="M228.2,113.5c-.1,5.2-1.5,9.3-3.1,13.3-.9,2.2-2.9,3.5-4.7,4.9-1.2,1-2.4,2.1-3.6,3.1-2.3,1.8-6.1,1.3-8-.9-1.3-1.6-2.3-3.4-3.4-5.1-.6-.9-.7-2-.5-3,.7-3.4.7-6.9,1.6-10.3,1-3.7,3.1-6.7,6-9.1,1.2-1.1,2.3-2.4,3.6-3.3,1.9-1.3,3.7-1.4,5.8-.4,5.1,2.2,5.8,6.8,6.3,10.8h0ZM221.4,113c.1-1.1-.1-1.9-.5-2.7-.7-1.4-1.7-2.2-3.4-2.2s-2.3,1.1-2.8,2.3c-.5,1-.6,2.2-1.1,3.2-1.8,3.7-1.1,7.6-1.5,11.5-.1.7.3,1.6.6,2.3.6,1.3,1.6,1.9,3.1,2,1.4,0,1.9-.9,2.5-1.9,2.6-4.6,2.5-9.7,3.1-14.5h0Z"/>
  <path class="st0" d="M276.9,254.6c-4,0-9.4-3.8-10.3-7.1-.3-1.3-.4-2.4.7-3.3,1-.8,2.3-.6,3.4-.1,1.4.6,2.4,1.8,3.5,2.8,1.3,1.1,2.6,1.5,4.1.9s2-1.9,2.2-3.5c.2-1.7-.5-2.9-2-3.6-1.1-.5-2.2-.9-3.3-1.3-3.9-1.3-6.4-3.9-7.6-7.8-.7-2.4-.1-4.5,1.6-6.2,1.3-1.3,2.5-2.9,4-4,1.1-.8,2.3-1.2,3.6-1,2.7.5,5.2,1.5,7.2,3.3,1,.8,1.5,3.4.9,4.5-.5.9-1.3,1.3-2.4,1.2-.9-.1-1.7-.5-2.5-1-.9-.7-1.9-1.2-3-1.5-1.3-.4-2.4-.1-3.2,1-.8,1.2-.7,2.4.1,3.5,1.2,1.6,2.9,2.3,4.7,2.7,4.2.8,6.5,3.8,7.3,7.5,1,4-.6,8.6-4.5,11.3-2,1.5-2.4,1.7-4.5,1.7h0Z"/>
  <path class="st0" d="M267,171.9c.1,1,0,2.1.2,3.1.4,1.7,1.2,2.4,2.9,2.4s2.9.1,4.3.9c2.2,1.3,3,4.8,1.3,6.9-.4.4-.7.4-1.2.5-1.4.1-2.8-.3-4.2-.3-2,0-2.9.8-3.1,2.8-.1,1.4.1,2.7.4,4,.4,1.8-.4,3-1.6,4-1.1.9-2.3.7-3.5.1-.8-.4-1.6-.6-2.2-1.2-.7-.7-1.1-1.5-.8-2.6.3-1.2.6-2.4.6-3.7,0-2.4-2.6-4.1-5.3-3.7-2.5.4-3.8-.4-4.1-2.6-.4-2.2.9-4,3-4.5,1.3-.3,2.7-.1,4-.4,1.7-.5,2.5-1.4,2.5-3.2s-.2-3.1-.3-4.6c0-.6.1-1.1.6-1.6,1-1,3.9-1.5,5.1-.8.8.4,1.3,1.1,1.3,2,.1.8,0,1.7.1,2.5h0Z"/>
  <path class="st0" d="M270.1,107.2c1,3.2-.4,6.3-1.5,9.6-1.4,4.1-1.8,8.4-2.3,12.7-.2,1.6-.1,3.2-1.5,4.4-1.2,1.1-2.4.7-3.6.2-1.1-.4-1.9-1.2-1.8-2.6,0-1.2.1-2.3.5-3.4,1.8-4.6,2.3-9.6,3-14.4.6-4.3,1.6-8.6,2.6-12.9.4-1.9.6-3.8,1-5.7.7-3,1.6-5.9,4.3-7.9,1.7-1.3,3-3,4.6-4.5,2-1.9,5.3-2,7.3-.2,1.9,1.6,1.5,4.3-.8,5.4-1.2.6-2.4.6-3.7.4-3.1-.5-4.4.3-5.1,3.4-1,4.3-1.9,8.6-2.8,13-.1.7-.1,1.4-.2,2.5h0Z"/>
  <path class="st0" d="M372.3,110.5c.1,1.2-.2,2.4-.5,3.6-.2.7.1,1,.6,1.4s.9.3,1.4,0c.6-.3,1.2-.7,1.8-1.1,2.4-1.7,2.3-4.2-.2-6.4-2-1.8-1.5-4.3,1.1-5.2,3.2-1.1,6.4,1.3,6.6,5,.2,2.1-.5,3.8-2,5.4-2.4,2.7-5,5-8,6.8s-2.5,2.3-2.9,4c-.3,1.5.3,3.1,1.5,3.8,1.5.9,3.2.7,4.4-.5.5-.6,1.1-1.2,1.5-1.9.6-1,1.5-1.3,2.5-.8,1.1.6,1.3,1.6,1,2.7-.2.9-.8,1.6-1.6,2.1-1.3.7-2.3,1.8-3.1,2.9-2.8,3.8-8.5,4.2-11.5.8-1.7-1.9-1.7-4.1-1.4-6.4.6-4.9,2-9.7,3.8-14.3.5-1.3,1.2-2.5,1.9-3.7.5-.8,1.4-1.5,2.4-1.2,1.1.6.5,2,.7,3h0Z"/>
  <path class="st0" d="M309.3,108.3c.2,4.4-2.5,6.4-5.3,8.4-.1,0-.2,0-.3,0-.7,0-1.6.4-2.1,0-.5-.6.2-1.2.3-1.8.2-.6.6-1,1-1.4.8-.8,1-1.8.8-2.9-.2-1.2-1-1.9-2.1-2.2-1.1-.3-1.6.5-2.1,1.3-.8,1.1-1,2.5-2,3.6-.6.8-.5,1.9.4,2.7.1,0,.3.3.4.4,1.6,1.7,1.7,2.4,0,4.1-.9.9-1.6,1.7-2.1,2.9-.6,1.7-.2,3.4,1.2,4.4,1.4,1,2.7.9,3.9-.2.8-.7,1.5-1.5,2.2-2.2.8-.7,1.7-1,2.6-.4,1,.6.5,1.5.3,2.3-.3,1-.9,1.8-1.8,2.3-1.3.9-2.5,2-3.5,3.2-2.4,3.1-7,3.5-9.5.9-.6-.6-1-1.3-1.1-2.1-.2-1.4-.4-2.7-.8-4-1.1-3.4.7-6.4,1.3-9.6.6-3.1,1.9-5.8,3.8-8.3.2-.3.5-.7.8-.9,2.1-1.3,3.3-3.3,5-5,1.6-1.7,3.2-2,5.3-1,2.7,1.2,3.5,3.3,3.4,5.5h0Z"/>
  <path class="st0" d="M237.9,247.6c.2-4.4,0-8.7.3-13.1.2-3.2,1.4-4.7,4.6-5.3,1.1-.2,2.1-.4,3.2-.7,2.8-.7,4.4,0,6.1,2.3,2.5,3.4,3.3,7.2,2.5,11.3-.1.8,0,1.6.1,2.4.4,2.2.4,4.4-.1,6.6-.3,1.3-1.2,1.9-2.5,1.9s-2.5-.3-2.9-1.8-.7-3-.5-4.6c.4-2.8.1-5.7.4-8.5.1-1.3-1.3-3-2.4-3.1-1.1-.2-2.1.7-2.7,2.3-.8,2.1-.6,4.3-.4,6.4.2,2.1.2,4.3.2,6.4-.1,1.8-1.4,3.1-3,3.1s-2.6-1.2-2.8-3.1c-.1-.8-.1-1.6-.1-2.5h0Z"/>
  <path class="st0" d="M374.3,236.5c-1,3.1.2,6.7.3,10.4,0,1-.2,2-.4,2.9-.4,1.6-1.3,2.5-2.9,2.8-1.7.2-3.2.9-4.8,1.6-2.5,1.1-5.8-.3-6.8-3-.3-.8-.8-1.6-1.2-2.4-.9-1.6-1.1-3.3,0-4.9.3-.4.6-.8.8-1.2,1.4-2.7,3.4-4.2,6.6-3.7,1.4.3,2.2-.8,2.7-1.9.5-1.2.1-2.3-.8-3.2-.9-.8-2.3-.7-3.7.4-.6.4-1.1.8-1.8.9-1.3.3-2.2-.1-2.8-1.1-.6-1-.5-2,.2-2.9,2-2.6,6.3-3.8,9.8-2.6,2.8.9,4.8,3.9,4.8,7.9h0ZM363.4,245.5c0,1.8,1.1,3.1,2.7,3.1s3.2-1.8,3.2-4-.9-2.8-2.4-2.8c-2,.1-3.5,1.6-3.5,3.7h0Z"/>
  <path class="st0" d="M240.4,124.6c0,2.7,1.3,4.4,3.9,5.1,1,.3,1.8,0,2.2-.9.3-.6.8-1.2,1.3-1.6.7-.6,1.5-1.3,2.5-.4.7.7.9,2.2.2,3-.3.3-.6.8-1,.9-1.9.5-2.9,2-4.3,3.2-2.6,2.4-6.5,2.6-8.4.2-1.9-2.4-3.5-4.9-3-8.3.6-3.9,1.2-7.9,2.7-11.6.8-2.1,2.3-3.9,3.9-5.4,1.1-1,1.9-2.1,2.6-3.4,1.3-2.3,3.2-3.7,6-3.3,2.4.3,4.5,1.1,5.4,3.6.9,2.1-.2,4-2.5,4.1-1.6,0-3-.7-4.5-1.1-2.5-.7-3.4-.3-4.1,2.2-.1.3-.2.7-.4,1-1.8,3.9-2.2,8.3-2.5,12.7h0Z"/>
  <path class="st0" d="M233.5,240.2c-.1,4.7-.3,8.7-3.2,11.7-2.6,2.7-4.4,3.4-7,2.4-1.1-.4-1.9-1.1-2.6-2-1.8-2.2-3.3-4.6-3.9-7.4-.1-.4-.2-.8-.3-1.2-1.9-5.8,1.1-10,4.7-13.8,2.7-2.9,7-1.8,9.7,1.9,2,2.7,2.5,5.9,2.6,8.4h0ZM221.5,240.8v1.4c.2,1.5.4,3.1,1.2,4.4,1.2,1.8,3.5,2.1,4.6.6,2.1-2.8,2.1-8.9-.1-11.7-1.1-1.4-2.6-1.5-3.9-.3-1.6,1.6-1.8,3.6-1.8,5.6h0Z"/>
  <path class="st0" d="M325.9,126.8c.3-2.4-1.1-4.2-2.2-6.1-1.5-2.6-2.8-5.3-3.2-8.3-.4-2.9,1.3-5.1,3.4-6.9.7-.6,1.4-1.2,2-1.8,2.5-2.5,7.5-1.6,8.9,1.7.5,1.1.5,2.4-.3,3.4-.9,1-2,1.2-3.3.6-.8-.3-1.5-.7-2.3-1-1.6-.5-2.7.3-2.9,2-.1,1.5.3,2.9,1.2,4.1,2.3,2.9,3.4,6.2,4.2,9.7.6,2.8-.5,5.2-2.2,7.3-.3.3-.6.6-.8.9-3.7,4.4-6.8,3.6-11.4.8-1.6-1-2.6-3.8-2.1-5.6.3-.9.9-1.7,2-1.7,1.5-.1,2.9.4,3.8,1.7.5.8,1.2,1.4,1.8,2,.7.7,1.6.6,2.4.4.7-.2,1-.9,1.1-1.7-.1-.5-.1-1-.1-1.5h0Z"/>
  <path class="st0" d="M148.8,227.6c-1,.2-2.1-.4-3.3-.1-1.3.4-2.3,1-3.1,2-1.2,1.5-.9,3.1.7,4.1,1.1.6,2.3,1.2,3.6,1.3,1.7.2,2.7,1.2,2.8,2.4,0,1.4-.8,2.2-2.6,2.6-.5.1-1.1.2-1.6.3-2.2.6-3.6,2.9-3.2,5.2.2,1.3.4,2.7.4,4,0,1.9-1.1,3-3,3-2.6.1-3.3-.4-3.6-2.7-.4-3.8.3-7.6.8-11.4.2-1.3.1-2.6,0-3.9-.3-3.1-.4-6.2.1-9.2.2-1.4,1.2-2.4,2.6-2.9,3.3-1.2,6.7-1.2,10.2-.8,1.6.2,2.7,2,2.5,3.8,0,1.7-1,2.3-3.3,2.3Z"/>
  <path class="st0" d="M353.3,98.7c-.1,1.6-.1,3.5.3,5.4.2,1.2,0,2.3-.8,3.4-1.6,2.1-2.1,4.6-2.7,7.1-.6,2.8-1.4,5.5-2.3,8.2-.5,1.7-.5,3.3.8,4.7,1.1,1.1,1.7,1.1,2.8,0,.5-.5,1-.9,1.6-1.4s1.3-.8,2-.1c.6.7.5,1.5.1,2.2-.2.3-.5.7-.8.8-2.1.7-3.2,2.6-4.8,3.9-2.2,1.9-4,2.2-6,1.3-1.8-.9-2.5-3.5-2.3-5.8.3-2.2.7-4.4,1.2-6.6.6-2.8,1.4-5.5,2.1-8.2.3-1.3.2-2.7-.1-4-.6-2-.5-3.8,1.3-5.3,1.2-1.1,1.5-2.8,2-4.3.3-.8.5-1.8.8-2.6.4-.9,1-1.8,2.1-1.9,2-.2,2.7.6,2.7,3.2h0Z"/>
  <path class="st0" d="M271.7,129.1c.1-4.2.8-8.3,2.4-12.2.4-1.1.7-2.2,1-3.3.3-1.2.2-2.4-.4-3.6-2.2-4.3,1.3-7.1,5-7.4,1.5-.2,2.6,1.4,2.8,3.6.2,2.4-.5,4.7-.8,7.1-.3,2.7-1.3,5.2-2.1,7.8-.7,2.3-.7,4.4.5,6.5,1.6,2.8-.6,8.1-5,7.7-2-.2-3.2-1.1-3.4-3.4v-2.8h0Z"/>
  <path class="st0" d="M393.5,133.8c-2.9.3-3.7-1.9-2.8-4.8,1.1-3.7,2.3-7.3,3.1-11.1.4-1.7.7-3.4,1.1-5.1.2-1.1-.1-2.2-.3-3.2-.4-1.8-.6-3.4,1.1-4.7,1.7-1.3,3.4-1.3,5.2-.6,2.2.9,2.9.8,4.2-1.2.9-1.4,2-2.5,3.8-2.5,2.2,0,3.4,1.8,2.4,3.8-.8,1.6-2.1,2.6-3.9,2.7-2.4,0-3.9,1.3-4.9,3.5-1.2,2.5-2.3,5-2.7,7.7-.2,1.4-.9,2.6-1.4,3.9-1,2.6-.7,5.4-1.1,8.1s-1.4,3.5-3.8,3.5Z"/>
  <path class="st0" d="M436.3,254.4c-3.3,0-5.8-1.7-6.9-4.4-.3-.8-.7-1.7,0-2.4.7-.6,1.6-.4,2.4,0s1.5.8,2.3,1.1c1.6.7,3.1.5,3.7-.5.5-.9,0-3.1-.9-4-1.1-1-2.5-1.4-3.8-1.9-2.9-1.1-5-3.9-4.9-6.4,0-.5,0-1.1.4-1.4,2.3-2.6,4.2-5.7,8.3-6,2-.2,4.9,1.8,4.9,3.9s-.9,1.7-2,1.9c-1.2.1-2.5.2-3.7.2s-1.5.4-1.8,1.2.3,1.3.8,1.8,1,.5,1.5.7c3.1.9,5.4,3,7.2,5.6,1.5,2.2,1,4.9-1.1,6.5-1.1.9-2.2,1.8-3.1,2.9-.9.9-2.1,1.4-3.3,1.2h0Z"/>
  <path class="st0" d="M176.1,242.7c-.1-4.3.6-8.3,3.2-11.6,1.3-1.7,2.9-3.2,5.4-2.9,1.2.1,2.2.7,3.1,1.4,1.4,1.1,2.4,2.6,3,4.2.4,1.1.6,2.2-.5,3-1,.8-2.1.4-3-.3s-1.8-1.2-3-1.2-2.3.7-2.6,2c-.4,2.3-.9,4.7-.6,7.1.3,3.1,2.6,4.2,5.2,2.4.5-.4.9-.8,1.4-1.1,1.2-.8,2.4-.4,2.7,1,.4,2.1-.2,4.2-1.8,5.6-1.7,1.6-3.7,3-6.3,1.9-1.3-.5-2.2-1.6-2.9-2.7-.8-1.3-1.5-2.7-2.3-4-1.1-1.6-1.2-3.2-1-4.8h0Z"/>
  <path class="st0" d="M329,239.8c-.3-1.6.3-3,1.2-4.3,1.4-2,2.4-4.2,4.3-5.9,1.2-1.1,2.6-1.4,4.1-.9,2.4.8,4.5,1.9,5.2,4.7.2,1,.5,1.9-.4,2.8-.9.8-1.6.3-2.5,0-1.2-.5-2.5-.9-3.9-.7-1.3.2-2.7,1.3-2.8,2.5-.1,2.5-.2,5,.1,7.5.2,1.7,1.8,2.3,3.3,2.1,1.2-.2,2.2-.8,3.3-1.3,1.6-.8,2.8,0,2.8,1.8-.1,2.8-1.5,4.7-3.9,5.9-1.8.9-4,1-5.1-.5-2.4-3-5.6-5.7-5.4-10.1,0-1.3-.5-2.4-.3-3.6h0Z"/>
  <path class="st0" d="M195,243.4c.1-1.5,0-3,.2-4.5.2-1.4.1-2.8-.5-4.2-1.3-3-.4-6,.8-8.8.8-1.8,3.1-1.9,4.5-.2,1,1.2,1.9,2.6,2.7,4,.9,1.5.7,3-.3,4.4-1.3,1.7-1.8,3.6-1.6,5.8.1.6.1,1.3,0,1.9-.3,2.9.5,5.5,2.1,7.9,1.3,1.9,1.2,3.1.1,4.2-.9.9-3.1.8-4.6-.1-2.1-1.2-2.5-3.4-3.1-5.4-.4-1.8-.3-3.4-.3-5h0Z"/>
  <path class="st0" d="M407.5,246.9c.1-2.1-1.2-3.2-3-3.8-2.3-.7-3.9-2.2-5.1-4.2-.9-1.5-1.2-3.1-.2-4.6,1-1.6,1.9-3.3,3.3-4.6,2.3-2.2,6.9-1.3,8.1,1.6.5,1.1-.1,2.3-1.4,2.7-1,.4-2,.2-3,.2s-2,.5-2.3,1.5c-.3,1.1.6,1.8,1.6,2.2.2.1.5.2.7.3,3.8.8,5.4,3.9,7,6.9.5.9.3,1.9-.3,2.7-1.2,1.6-2.4,3.3-3.7,4.9-2.3,2.9-7.9,1.9-9.6-2.2-.5-1.3.3-2.5,1.8-2.6,1.1,0,2.1.6,3.2.8,2,.6,2.9,0,2.9-1.8h0Z"/>
  <path class="st0" d="M424.4,231.5c0,.9-.4,1.5-.8,2.1-1.4,2-2,4-1.4,6.5.3,1.4.1,2.9,0,4.3-.1,1.9.4,3.6,1.7,5.1.3.3.5.6.7,1,.6.9.6,2,0,2.8-.6.9-1.6,1.1-2.7.9-1.8-.3-3-1.5-3.8-2.9-1.3-2.1-2-4.4-1.4-7,.8-3.4.1-6.7-1-9.9-1-3,0-5.8,1.7-8.3,1.2-1.9,3.1-1.9,4.3-.2,1.4,1.7,2.3,3.6,2.7,5.6h0Z"/>
  <path class="st0" d="M166.7,247.4c.8-3,.1-6.2.6-9.2.2-1.1.2-2.2-.1-3.3-.4-1.4-.1-2.7.7-3.8s1.2-2.3.3-3.6c-.6-1-.6-2.1-.6-3.2,0-2.2,1.5-3.1,3.4-2.2,1.1.5,1.8,1.9,1.6,3.1-.1.2-.1.5-.2.7-1.8,2.4-1.3,4.8-.4,7.4,1,2.5.6,5.2.4,7.8-.1,2.2.2,4.4.2,6.6s-.2,2.2-.5,3.2c-.3,1-.6,1.8-1.9,1.8s-2.4-.4-2.9-1.6c-.5-1.1-.7-2.4-.6-3.7h0Z"/>
  <path class="st0" d="M385,227.3c-.6,6.2-.2,12.1-.3,18,0,1.3.2,2.6,0,4-.3,2-1.1,3.1-2.6,3.1-1.8-.1-2.8-1.3-2.8-3.4s.6-4.1.7-6.2c.1-1-.1-2-.1-2.9-.1-4.6-.3-9.1-1.1-13.6-.3-1.7,1-3.5,2.5-3.7,1.8-.3,3,.7,3.3,2.8.3.7.5,1.4.4,1.9h0Z"/>
  <path class="st0" d="M354.1,224.9c.1,1.1-.5,2-1,2.9-.4.9-.8,1.8-.2,2.7,2.3,3.5,1.6,7.3,1,11-.3,2.1-.4,4,.2,6,.5,1.6.4,3.2-.8,4.5-.9,1-2,.9-3,.1-1-.9-1.6-2-1.6-3.3,0-4.2-.1-8.4,0-12.6,0-1.6.8-3.1,1.2-4.6.4-1.3.3-2.5-.2-3.8-.4-.9-.8-1.8-.8-2.9,0-1.6,1-2.9,2.5-3,1.5,0,2.7,1.4,2.7,3h0Z"/>
  <path class="st0" d="M154.3,247.3c-.1-1.2,0-2.4.3-3.6.4-1.7.1-3.4,0-5-.1-2.3.6-4.4,1.6-6.4.9-1.8,4.4-2.9,6.3-2.2,1.6.6,1.9,2,.8,3.5-.8,1-1.6,2-2.4,3-1.8,2.2-1.9,4.7-1.5,7.4.3,1.9.3,3.9-.1,5.8-.3,1.5-1.4,2.6-2.6,2.5-1.2,0-2.2-1.3-2.4-2.8,0-.8,0-1.5,0-2.2h0Z"/>
  <path class="st0" d="M207.7,245c-.1-2.7,0-4.9-.2-7.1-.2-1.9.1-3.9,1-5.7.4-.7.7-1.4,1.6-1.4.7.1,1.1.7,1.4,1.4.8,2,1.6,4,2.4,6.1.2.4.3,1.1.1,1.5-1.3,3.2-.8,6.6-1.6,9.8-.1.3-.1.6-.3.9-.5,1.1-1.2,1.9-2.5,1.7-1.3-.2-1.8-1.2-1.9-2.4v-4.8h0Z"/>
  <path class="st0" d="M389.2,246c.6-3.5,0-7,.1-10.4,0-1.9.4-3.7,1.6-5.2.7-.9,1.4-.9,1.7.2.8,2.4,1.7,4.9,1.1,7.6-.5,2.2,0,4.4.6,6.5.6,2.3.5,4.5-1.2,6.4-.6.7-1.2,1.5-2.2,1.2s-1.2-1.2-1.3-2.1c-.4-1.5-.3-2.8-.4-4.2h0Z"/>
  <path class="st0" d="M457.9,226c.1,4.1-4.1,6-6.7,5.7-1.2-.1-1.8-1.2-2.6-2-1.1-1.2-1.4-2.8-1.7-4.4-.1-.9.3-1.6,1-2.2,2.1-1.7,7.2-1.3,9.2.6.9.8.9,1.6.8,2.3h0Z"/>
  <path class="st0" d="M126.4,234.2c-2,0-3.7-.1-4.3-1.8-.7-1.9-.8-3.9.7-5.6.5-.7,1.2-1,2.1-.9,1.1.1,2.2.2,3.2.4,2.1.4,3.3,1.9,3.2,4.2,0,2.1-1.1,3.2-3.4,3.6-.6,0-1.3.1-1.5.1h0Z"/>
  <path class="st0" d="M208.4,224.3c0-.8-.1-1.8.9-2,1.1-.3,2.2-.1,2.9.9.7.9.7,2,.1,2.9-.5.9-1.3,2-2.4,1.6-1.1-.3-1.6-1.5-1.6-2.8.1,0,.1-.3.1-.6h0Z"/>
  <path class="st0" d="M390.2,224.2c0-1.2.9-2.1,2-1.9,1.1.1,1.8.8,1.9,1.9.1,1.3-1.2,3.5-2.1,3.5s-1.8-1.5-1.8-3.5Z"/>
</svg>