<?xml version="1.0" encoding="utf-8"?>
<!-- Generator: Adobe Illustrator 28.2.0, SVG Export Plug-In . SVG Version: 6.00 Build 0)  -->
<svg version="1.1" id="Layer_1" xmlns="http://www.w3.org/2000/svg" xmlns:xlink="http://www.w3.org/1999/xlink" x="0px" y="0px"
	 viewBox="0 0 602.1 427.8" style="enable-background:new 0 0 602.1 427.8;" xml:space="preserve">
<style type="text/css">
	.st0{fill:#FFFFFF;stroke:#FFFFFF;stroke-miterlimit:10;}
</style>
<path class="st0" d="M292.4,6.1c3.5-0.3,7-0.2,10.5-0.1c-1.1,1.8,0.8,2.1,1.6,2.6c5.1,3.1,10.3,6.1,15.4,9.4
	c4.3,2.7,8.9,5.1,13.2,7.8c1.8,1.1,3.6,2.1,5.4,3.2c5,3.2,10.1,6.1,15.2,9.2c2.3,1.4,4.8,2.7,7,4.2c2.4,1.6,5,3.1,7.5,4.6
	c2.5,1.5,5.1,2.8,7.4,4.4c2.2,1.6,4.7,2.9,7,4.2c2.7,1.6,5.3,3.3,8.1,4.9c1.9,1.1,3.8,2.2,5.6,3.4c2.7,1.6,5.3,3.3,8,4.9
	c2.4,1.5,4.9,2.8,7.3,4.3c4.8,3.1,9.8,5.9,14.7,8.8c2.4,1.4,4.8,2.7,6.9,4.3c1.7,1.3,3.8,1.7,5.5,3c0,0,0.1-0.1,0.2-0.2
	c0.3,0.2,0.6,0.5,0.9,0.7c1.2,1.3,2.9,1.9,4.5,2.6c0.2,0.2,0.4,0.3,0.6,0.4c-0.2,0.1-0.1,0.2,0,0.3c0.1,0,0.2-0.1,0.3-0.1
	c0.5,0.2,1,0.5,1.5,0.7c0.3,0.7,0.7,0.9,1.5,0.8c0.3,0.2,0.6,0.5,0.9,0.7c0,0.5,0.1,0.8,0.7,0.4c0.1,0.1,0.3,0.2,0.4,0.3
	c0,0-0.1,0.1-0.1,0.1c0,0,0,0.1,0,0.1c0.9,0.8,2,1.1,3,1.6c0.7,0.4,1.1,1.3,2.1,1.2c0.2,0.1,0.4,0.3,0.7,0.4c0,0.1-0.1,0.1-0.1,0.2
	c0,0,0,0.1,0.1,0.1c1.9,0.8,3.5,2.2,5.3,3.2c1,0.5,1.8,1.3,3,1.2c0.2,0.1,0.4,0.3,0.6,0.4c0.1,0.7,0.2,0.8,0.9,0.8
	c0.2,0.1,0.4,0.3,0.6,0.4c0.1,0.7,0.5,0.9,1.1,0.5c0.3,0.2,0.6,0.3,0.9,0.4c-0.2,0.1-0.1,0.2,0,0.3c0.1,0,0.2-0.1,0.3-0.1
	c0.2,0.1,0.4,0.2,0.7,0.3c0.4,1.1,3.8,3.2,5.6,3.5c0.2,0.1,0.4,0.3,0.6,0.4c0,0.7,0.3,1.1,1.1,0.8c0.2,0.1,0.5,0.2,0.7,0.3
	c0.1,0.6,0.5,0.8,1.1,0.6c0.2,0.1,0.5,0.2,0.7,0.3c0.5,0.9,0.8,1.1,1.6,1.2c0.1,0.1,0.3,0.2,0.4,0.3c-0.2,0.1-0.2,0.2-0.1,0.3
	c0.1,0.1,0.2,0.1,0.3-0.1c0.2,0.1,0.5,0.2,0.7,0.3c0,0-0.1,0.1-0.1,0.1c0,0,0,0.1,0,0.1c0.8,0.4,1.8,0.7,2.5,1.3
	c3.9,3.1,8.4,5.1,12.5,7.8c3.3,2.2,6.7,4.1,10.1,6c2.9,1.6,5.6,3.4,8.4,5c5.1,3,10.2,6,15.2,9.1c2.4,1.5,5,2.8,7.3,4.5
	c1.1,0.9,2.4,1.8,4,1.7c0.2,0.1,0.4,0.3,0.6,0.4c-0.1,0.7,0.2,1,0.9,0.8c0.2,0.1,0.5,0.3,0.7,0.4c-0.1,0.1-0.2,0.1-0.2,0.2
	c0,0.1,0.1,0.2,0.1,0.2c2.3,0.9,4.2,2.7,6.4,3.7c1,0.5,2,1.1,2.9,1.8c1,0.8,2.1,1.5,3.5,1.4c0.2,0.1,0.5,0.2,0.7,0.4
	c-0.1,0.1-0.2,0.3-0.2,0.3c1.7,1.7,4,2.5,6,3.6c0,0,0-0.1,0.1-0.1c0.2,0.1,0.4,0.3,0.6,0.4c0,0.1-0.1,0.2-0.1,0.3
	c0.2,0.2,0.3,0.1,0.4-0.1c0.2,0.1,0.4,0.3,0.7,0.4c0,0.1-0.1,0.1-0.1,0.2c0,0,0,0.1,0,0.1c1.7,0.8,3.1,1.9,4.7,2.8
	c1,0.5,1.8,1.4,3.1,1.2c0.2,0.1,0.5,0.3,0.7,0.4c-0.5,0.6,0.2,0.8,0.5,1c2.5,1.5,4.9,3,7.4,4.4c1,0.6,2,1.1,2.9,1.8
	c1,0.8,2,1.8,3.5,1.5c0.5,0.3,1.2,0.5,1.5,1c0,0.7,0.2,1,0.9,0.8c0.6,0.6,1.3,1.2,1.9,1.9c0.3,1.6,0.3,3.2,0.3,4.8
	c0,1.9,0.1,3.9-0.2,5.8c-0.1,0.1-0.2,0.3-0.4,0.4c-0.3-0.4-0.5,0-0.7,0.2c-2.5,2.9-6.2,4.2-9.3,6.2c-2.4,1.5-4.9,2.9-7.2,4.4
	c-2,1.3-4.3,2.3-6.2,3.8c-2.2,1.7-4.7,3.1-7.1,4.3c-2.7,1.3-5.1,3.1-7.7,4.6c-2.6,1.6-5.2,3.3-7.9,4.8c-2.6,1.5-5.1,3.1-7.7,4.6
	c-1.8,1.1-3.8,1.9-5.5,3.2c-2.4,1.9-5.2,3.2-7.8,4.8c-2.3,1.4-4.7,2.8-7,4.2c-3.4,2-6.8,4-10.1,6.1c-2.2,1.4-4.5,2.7-6.8,4.1
	c-2.6,1.6-5.3,3.1-7.9,4.7c-2.3,1.4-4.8,2.7-7,4.3c-2.3,1.6-4.9,2.8-7.3,4.4c-2.1,1.4-4.2,2.7-6.3,4.1c-0.3,0.2-0.7,0.4-1,0.6
	c-0.3-0.2-0.4,0-0.5,0.2c-0.1,0.1-0.3,0.3-0.5,0.4c-0.9-0.3-1.1,0.7-1.7,0.9c-3,1.1-5.4,3.2-8.1,4.7c-2,1.1-4.1,2.3-6,3.6
	c-2.7,1.8-5.5,3.3-8.3,5c-0.8,0.5-1.9,0.7-2.4,1.8c-0.1,0.1-0.3,0.2-0.4,0.4c-0.1-0.2-0.2-0.2-0.3-0.1c-0.1,0.1-0.2,0.2,0,0.3
	c-0.2,0.1-0.4,0.2-0.6,0.4c-0.5-0.1-0.7,0-0.9,0.5c-0.5,0.2-1,0.5-1.5,0.8c-1,0.1-1.1,0.2-1.5,1.1c-0.2,0.1-0.4,0.3-0.6,0.4
	c-0.1,0-0.2,0-0.3,0c-0.1,0.1-0.1,0.2,0.1,0.3c-0.2,0.1-0.5,0.2-0.7,0.3c-1.3,0.2-2.5,0.5-3.2,1.7c-0.2,0.1-0.4,0.3-0.6,0.4
	c-0.6-0.2-0.8,0-0.5,0.5c-1.2,0.6-2.4,1.2-3.7,1.9c-0.6-0.1-0.6,0-0.8,0.6c-0.2,0.2-0.5,0.4-0.7,0.6c-0.1,0-0.2-0.1-0.3,0
	c-0.1,0.1-0.1,0.2,0,0.3c-0.5,0.2-1,0.5-1.5,0.7c-0.7-0.1-1.3,0-1.5,0.8c-0.2,0.1-0.4,0.2-0.7,0.4c-0.5-0.1-0.8,0-0.5,0.6
	c-0.3,0.2-0.6,0.5-0.9,0.7c-0.9-0.1-1.6,0.3-2.1,1c-0.5,0.3-1,0.5-1.5,0.8c-0.6-0.1-0.9,0.2-0.9,0.8c-0.8,0.5-1.6,0.9-2.4,1.4
	c-0.7-0.2-1.2,0-1.5,0.8c-0.3,0.2-0.6,0.5-0.9,0.7c-0.1,0-0.2-0.1-0.3-0.1c-0.1,0-0.2,0.2-0.1,0.3c-0.3,0.2-0.6,0.5-0.9,0.7
	c-0.6-0.1-0.7,0-0.9,0.5c-0.7,0.3-1.4,0.7-2.1,1c-0.1,0-0.2-0.1-0.3-0.1c-0.1,0.1-0.2,0.2,0,0.3c-0.2,0.1-0.4,0.3-0.6,0.4
	c-0.5-0.3-0.6,0-0.6,0.5c-0.8,0.9-1.9,1.3-3,1.7c-0.1,0-0.2-0.2-0.3-0.1c-0.1,0-0.2,0.1-0.1,0.3c-0.8,0.6-1.7,1.2-2.5,1.8
	c-1.4,0.3-2.8,1.1-3.4,1.8c-0.3,0.2-0.5,0.4-0.8,0.6c-0.5-0.2-0.8,0-0.8,0.6c-1.1,0.6-2.1,1.3-3.3,1.6c0-0.3-0.1-0.2-0.2-0.1
	c-0.1,0.1-0.2,0.2,0,0.3c-0.4,0.3-0.7,0.6-1,0.9c-0.3-0.1-0.6-0.1-0.5,0.3c-0.4,0.2-0.8,0.5-1.2,0.8c-1.2,0.1-2.3,0.5-3,1.6
	c-0.2,0.2-0.5,0.4-0.7,0.6c-0.2-0.1-0.3,0-0.5,0.1c-0.1,0.1-0.1,0.2,0.1,0.3c-1.2,0.6-2.3,1.2-3.5,1.8c-2,1.1-4.1,2-5.9,3.3
	c-1.1,0.8-2.4,1.3-3.2,2.3c-0.4,0.2-0.9,0.5-1.3,0.7c-0.6-0.2-0.8,0-0.8,0.6c-0.1,0.1-0.3,0.2-0.4,0.3c-0.6-0.2-0.8,0-0.8,0.6
	c-0.5,0.3-1,0.5-1.5,0.8c-0.7-0.2-1.2,0.1-1.5,0.7c-0.1,0.1-0.3,0.2-0.5,0.3c-0.5-0.2-0.8,0-0.8,0.6c-0.2,0.2-0.5,0.4-0.7,0.6
	c-0.7,0-1.3,0.2-1.6,0.9c-0.8,0.4-1.5,0.8-2.2,1.2c-0.3-0.1-0.5-0.1-0.5,0.3c-0.2,0.2-0.5,0.4-0.7,0.6c-0.3-0.2-0.5-0.2-0.5,0.3
	c-0.4,0.5-0.9,0.7-1.5,0.8c-0.5-0.3-0.8-0.1-0.8,0.5c-0.5,0.3-0.9,0.6-1.4,0.8c-0.5-0.1-0.8,0-0.8,0.6c-0.1,0.1-0.3,0.2-0.4,0.4
	c-0.1-0.2-0.3-0.1-0.5,0c-0.2,0.2-0.1,0.3,0.1,0.4c-1,0.4-2,0.9-3,1.3c-1.4,0.6-2.6,1.5-3.8,2.4c-0.5,0.2-1,0.5-1.5,0.7
	c-0.1,0-0.2-0.1-0.2-0.1c-0.1,0.1-0.2,0.1-0.1,0.3c-1.2,1.7-3.3,2-4.9,3c-0.3-0.2-0.5-0.1-0.5,0.3c-0.3,0.2-0.6,0.5-0.9,0.7
	c-0.6,0-1,0.2-1.1,0.8c-0.3,0.1-0.6,0.3-0.9,0.4c-0.1-0.2-0.2-0.1-0.3,0c0,0,0,0.1,0,0.2c-0.3,0.1-0.6,0.3-0.9,0.4
	c-0.1-0.2-0.2-0.1-0.3,0c0,0,0,0.1,0.1,0.2c-0.2,0.1-0.4,0.2-0.7,0.4c-0.1-0.2-0.2-0.1-0.3,0c0,0,0,0.1,0,0.2
	c-0.9,1.5-2.7,1.5-4,2.4c-1.4,0.1-2,1.2-2.9,2c-0.4,0.2-0.8,0.4-1.2,0.5c-0.7-0.1-1.1,0.2-1.5,0.7c-0.1,0.1-0.3,0.2-0.5,0.3
	c-0.5-0.1-0.8,0.1-0.8,0.6c-1.3,1.5-3.3,1.7-4.8,2.8c-0.4-0.1-0.7,0-0.5,0.5c-0.2,0.1-0.4,0.2-0.6,0.4c-0.5-0.2-0.8,0-0.8,0.5
	c-0.3,0.1-0.6,0.3-0.9,0.4c-0.7,0.1-6.8,3.7-7.2,4.3c-0.2,0.1-0.4,0.3-0.6,0.5c-1.7,0.7-3.3,1.6-4.8,2.6c-0.7,0.5-1.1,1.1-0.4,2
	c-3.6,0.2-7.2,0.2-10.8,0c0.6-1.3-0.2-2.3-2.1-2.8c-0.3-0.1-0.6-0.3-0.9-0.4c0-0.1,0-0.2,0-0.2c-0.1-0.1-0.2-0.2-0.3,0
	c-0.2-0.1-0.5-0.2-0.7-0.3c-0.1-0.6-0.5-0.9-1.1-0.9c-0.2-0.1-0.4-0.3-0.6-0.4c-0.6-1.2-1.8-1.4-3-1.7c-0.2-0.1-0.5-0.2-0.7-0.4
	c0.2-0.2,0-0.3-0.1-0.4c-2-1.9-4.6-2.7-6.7-4.4c-1.4-1.1-3.2-1.8-4.8-2.6c-0.1-0.1-0.3-0.2-0.4-0.4c0-1.4-1.3-0.7-1.8-1.2
	c-2.4-1.9-5.2-3.4-7.8-5c-2.3-1.4-4.6-2.9-6.9-4.3c-2.4-1.4-4.9-2.9-7.3-4.4c-2.6-1.6-5.1-3.3-7.6-4.9c-2.7-1.7-5.4-3.3-8.1-5
	c-3.8-2.4-7.6-4.8-11.4-7c-3.2-1.9-6.4-4.1-9.6-5.9c-2.4-1.4-4.6-3.1-7.1-4.3c-2.3-1.1-4.4-2.7-6.6-4c-3-1.8-5.9-3.8-9-5.5
	c-2-1.1-4-2.4-5.9-3.7c-2.4-1.7-5.1-3.1-7.6-4.7c-2.5-1.5-5.2-2.8-7.6-4.5c-5.8-3.9-11.9-7.4-17.8-11.2c-3.2-2.1-6.6-4.2-9.9-6.1
	c-4.4-2.5-8.7-5.4-13.1-8c-2-1.2-4.1-2.4-6.1-3.7c-2.5-1.7-5.1-3.3-7.7-4.8c-2.3-1.3-4.7-2.7-6.9-4.2c-4-2.7-8.3-5.1-12.4-7.8
	c-3.1-2.1-6.3-4-9.5-5.9c-4.3-2.5-8.5-5.3-12.9-7.8c-2.2-1.3-4.4-2.7-6.6-4.1c-2.4-1.5-4.7-3.2-7.2-4.5c-2.5-1.3-4.9-2.9-7.3-4.4
	c-4.1-2.6-8.3-5.1-12.4-7.7c-1.9-1.2-3.9-2.4-5.8-3.6c-2.9-1.7-5.7-3.4-8.6-5.1c-2.2-1.4-4.3-3-6.7-4.2c-1.9-0.9-3.4-2.2-4.9-3.6
	c-1.2-1.1-1.5-2.4-1.2-3.9c0.2-1.3,0.2-2.6,0-3.9c-0.2-1.2,0.1-2.4,0.9-3.3c1.4-1.5,2.8-3,4.8-3.7c0.8-0.3,1.6-0.9,2.3-1.4
	c2.5-1.6,4.9-3.3,7.4-4.7c2.5-1.3,4.7-3,7.1-4.4c1.7-0.9,3.5-1.8,5-3c2.3-1.9,5-3.1,7.5-4.7c2.3-1.5,4.7-2.9,7.2-4.3
	c2.1-1.2,4.2-2.5,6.2-3.8c2.5-1.6,4.9-3.3,7.4-4.7c2.7-1.4,5.2-3.3,7.9-4.8c3.2-1.8,6.1-4.1,9.4-5.7c0.4-0.2,0.7-0.5,1.1-0.7
	c2.5-1.6,4.9-3.2,7.4-4.7c2.5-1.5,5.1-2.9,7.5-4.5c2.3-1.5,4.6-3,7-4.3c2.7-1.5,5.1-3.3,7.8-4.8c1.8-1,3.6-1.9,5.2-3.2
	c2.3-1.8,5-3,7.5-4.6c2.3-1.5,4.6-3,7.1-4.4c1.9-1.1,3.9-2.2,5.7-3.4c3-2,6.1-4,9.2-5.7c0.4-0.2,0.8-0.5,1.3-0.8
	c2.7-1.7,5.4-3.4,8.2-5.1c2.4-1.4,4.9-2.7,7.1-4.3c1.3-0.9,2.6-1.7,4-2.5c1.8-1.1,3.7-2,5.3-3.2c2.7-2,6.1-3,8.6-5.2
	c0.8-0.7,2.1-0.7,2.3-2.1c0.2-0.2,0.4-0.3,0.6-0.4c1.8-0.4,3.3-1.3,4.7-2.3c0.1-0.1,0.3-0.3,0.1-0.5c0.3-0.2,0.6-0.5,0.9-0.8
	c1.1-0.1,2.1-0.3,2.6-1.4c0.2-0.1,0.5-0.2,0.7-0.4c0.2,0.3,0.5,0.1,0.6,0c1.4-1.2,3.1-1.9,4.7-2.8c0.4-0.2,1.1-0.5,0.9-1.2
	c0.2-0.1,0.4-0.3,0.6-0.4c1.4,0,2.3-0.9,3.4-1.4c0.2-0.1,0.4-0.3,0.1-0.5c0.2-0.1,0.4-0.3,0.6-0.4c0.1,0.2,0.3,0.2,0.5,0.1
	c0.2-0.1,0.4-0.3,0.1-0.6c0.2-0.1,0.4-0.3,0.6-0.4c1.1,0,2.1-0.4,2.6-1.4c0.2-0.1,0.4-0.3,0.6-0.4c0.7,0.2,1-0.1,0.9-0.8
	c0.2-0.1,0.4-0.3,0.6-0.4c1.1,0.2,1.8-0.7,2.8-1c0.5-0.2,0.5-0.2,0.8-0.9c0.2-0.1,0.4-0.3,0.6-0.4c0.2,0.3,0.4,0.1,0.6,0
	c0.1-0.1,0.2-0.3,0-0.5c0.2-0.1,0.4-0.3,0.6-0.4c1.1,0.2,1.8-0.7,2.7-1c0.2-0.1,0.9-0.1,0.5-0.7c0.5-0.4,1.1-0.8,1.6-1.2
	c0.4,0.3,0.6,0.2,0.5-0.3c3.2-1.6,6.1-3.7,9.2-5.4c2.8-1.6,5.5-3.3,8.2-5c2.4-1.5,5.1-2.7,7.4-4.7c0.1-0.1,0.2-0.2,0.4-0.3
	c2.9-1.1,5.4-3.1,8-4.7c2.4-1.5,4.9-2.9,7.3-4.5c1.9-1.4,4-2.5,6-3.7c0.9-0.5,1.9-0.9,2.6-1.7c0.1,0.2,0.3,0.2,0.4,0.1
	c0.1-0.1,0.3-0.2,0-0.4c0.2-0.2,0.5-0.4,0.7-0.6c0.1,0.2,0.2,0.2,0.4,0.1c0.1-0.1,0.3-0.2,0.1-0.4c1.8-0.8,3.5-1.6,4.9-3
	c0.1,0.1,0.2,0.2,0.3,0.2c0.1,0,0.4-0.1,0.2-0.4c0.4-0.2,0.9-0.5,1.3-0.7c0.1,0.2,0.2,0.2,0.4,0.1c0.1-0.1,0.3-0.2,0.1-0.4
	c0.5-0.2,1-0.4,1.3-0.9c0.1,0.2,0.3,0.2,0.4,0.1c0.1-0.1,0.3-0.3,0-0.4c0.2-0.2,0.5-0.4,0.7-0.6c0.1,0.2,0.2,0.2,0.4,0.1
	c0.1-0.1,0.3-0.2,0.1-0.4c3.1-1.6,6.1-3.2,8.8-5.4c0.4,0.5,0.6,0.1,0.7-0.2C293,6.8,293,6.3,292.4,6.1L292.4,6.1z M586.8,187.6
	c0.1-1.4-0.7-2.2-1.8-2.4c-2.9-0.6-5.1-2.6-7.6-4c-7.1-4.1-14.1-8.3-21-12.6c-3.2-2-6.6-3.7-9.8-5.7c-4.2-2.7-8.7-5-12.9-7.7
	c-4-2.5-8-5.1-12-7.6c-2.7-1.6-5.4-3.1-8-4.9c-2.5-1.7-5.1-3.3-7.8-4.8c-5.3-3-10.5-6.2-15.9-9.3c-5.8-3.3-11.4-6.9-17-10.4
	c-5-3-10-6.1-15-9.1c-4.7-2.8-9.4-5.7-14-8.6c-5.8-3.6-11.8-7-17.7-10.5c-4.6-2.8-9-5.9-13.7-8.5c-5.4-3.1-10.8-6.2-16.1-9.4
	c-5.2-3.1-10.4-6.2-15.4-9.5c-4.6-3.1-9.6-5.7-14.4-8.5c-3.1-1.8-6.1-3.5-9.2-5.4c-2.4-1.5-4.7-3.2-7.2-4.6
	c-5.9-3.5-11.8-6.9-17.6-10.4c-3.4-2.1-6.7-4.3-10.1-6.4c-3.7-2.2-7.5-4.4-11.2-6.6c-4.1-2.5-8.1-4.9-12-7.6
	c-0.9-0.6-1.9-0.7-2.8-0.1c-3.5,2.2-6.8,4.8-10.5,6.8c-1.8,1-3.3,2.4-5.1,3.4c-4.2,2.3-7.9,5.2-12,7.6c-7.8,4.6-15.6,9.3-23.3,14.1
	c-4,2.5-8,4.9-12,7.3c-4.7,2.9-9.4,5.6-14,8.6c-4,2.7-8.3,5-12.3,7.7c-4,2.6-8.1,5.1-12.2,7.5c-4.1,2.4-8.2,4.9-12.2,7.6
	c-7.6,5-15.6,9.3-23.2,14.3c-4.3,2.8-8.8,5.3-13.2,8c-3.2,2-6.1,4.3-9.4,6.1c-4.6,2.4-8.9,5.2-13.2,8c-4.9,3.1-10,6.1-14.9,9.2
	c-8.6,5.4-17.3,10.5-25.9,15.9c-6.8,4.4-13.6,8.8-20.7,12.8c-5.5,3.1-10.7,6.8-16,10.1c-1.3,0.8-2.8,1.3-3.9,2.4
	c-1.3,1.3-2.9,2.2-4.6,3.1c-2.1,1.1-4.1,2.3-6.1,3.4c-5,2.8-9.4,6.7-14.8,8.9c-1,0.4-1.7,1-1.7,2.2c0,1.2,0.7,1.9,1.7,2.2
	c3.4,1.1,6.2,3.4,9.2,5.2c7.1,4.3,14.1,8.8,21.1,13.1c4.4,2.7,9,5,13.3,7.9c5.6,3.8,11.3,7.3,17.1,10.8c8.4,5.1,16.7,10.4,25.2,15.4
	c8.1,4.9,16.3,9.7,24.3,14.8c6.9,4.4,14.1,8.5,21,13c7,4.7,14.5,8.5,21.5,13.1c6.2,4.1,12.6,7.9,19,11.6c9.4,5.5,18.3,11.6,27.7,17
	c4,2.3,7.9,4.9,11.8,7.4c5.3,3.4,10.8,6.5,16.1,9.8c5.6,3.5,11.2,7,16.8,10.5c6.6,4.1,13.3,8,20,12.1c5.3,3.2,10.5,6.5,15.7,9.9
	c1,0.6,2,0.8,3,0.2c4-2.6,8.2-4.7,12.2-7.2c5.2-3.3,10.5-6.3,15.6-9.7c4.5-3,9.2-5.7,13.9-8.3c5.7-3.1,11-6.8,16.6-10.1
	c4.6-2.7,9.3-5.2,13.8-8.2c3.8-2.6,7.8-4.8,11.7-7.2c7.2-4.4,14.4-8.7,21.7-13c4.6-2.7,9.3-5.3,13.8-8.2c6.7-4.3,13.7-8.2,20.5-12.5
	c7-4.5,14.2-8.6,21.3-12.8c7.4-4.4,14.6-9.2,22.1-13.5c5.2-3,10.3-6.1,15.5-9.1c2-1.2,3.9-2.6,5.9-3.8c8.6-5.1,17.2-10.1,25.7-15.4
	c4.5-2.8,9-5.6,13.6-8.2c6.2-3.5,12.2-7.3,18.3-10.9c7.9-4.6,15.3-10.1,23.8-13.7C586.2,189.5,587.1,188.9,586.8,187.6L586.8,187.6z
	"/>
<path class="st0" d="M438.9,89c-0.1,0.1-0.2,0.2-0.2,0.2c-1.7-1.3-3.8-1.7-5.5-3c-2.2-1.7-4.6-2.9-6.9-4.3
	c-4.9-2.9-9.9-5.8-14.7-8.8c-2.4-1.5-4.9-2.8-7.3-4.3c-2.7-1.6-5.3-3.3-8-4.9c-1.9-1.2-3.8-2.3-5.6-3.4c-2.7-1.5-5.4-3.3-8.1-4.9
	c-2.3-1.4-4.8-2.7-7-4.2c-2.3-1.7-5-2.9-7.4-4.4c-2.5-1.5-5.1-3-7.5-4.6c-2.3-1.5-4.7-2.8-7-4.2c-5-3.1-10.2-6-15.2-9.2
	c-1.8-1.1-3.6-2.1-5.4-3.2c-4.4-2.7-8.9-5.1-13.2-7.8c-5.1-3.2-10.3-6.2-15.4-9.4c-0.8-0.5-2.7-0.8-1.6-2.7c0.9,0,2.1-0.4,1.8,1.3
	c-0.1,0.4,0.6,0.7,1.1,0.9c4.5,2.2,8.5,5.1,12.8,7.6c3.4,2,6.9,3.9,10.2,6.1c4.2,2.8,8.7,5,12.8,7.9c1.6,1.1,3.4,2.1,5.1,3
	c3,1.5,5.7,3.4,8.5,5.1c1.9,1.2,3.9,2.2,5.8,3.5c2.7,1.9,5.7,3.5,8.5,5.4c2.5,1.7,5.2,3,7.6,4.7c1.8,1.3,3.8,2.3,5.7,3.4
	c5.3,3.2,10.6,6.5,16,9.6c4.3,2.4,8.4,5.1,12.7,7.6c2.6,1.5,5.3,3.1,7.9,4.8c2,1.4,4.2,2.6,6.4,3.8c2.8,1.6,5.5,3.3,8.3,5
	c0.9,0.5,1.6,1.1,2.6,1.5C437.5,87.7,438.4,88,438.9,89L438.9,89z"/>
<path class="st0" d="M542.1,151.1c-1.6,0-2.9-0.9-4-1.7c-2.3-1.8-4.9-3-7.3-4.5c-5-3.1-10.1-6.1-15.2-9.1c-2.8-1.7-5.6-3.4-8.4-5
	c-3.4-1.9-6.9-3.9-10.1-6c-4.1-2.7-8.6-4.7-12.5-7.8c-0.7-0.6-1.6-0.9-2.5-1.3c0,0,0-0.1,0-0.1c0,0,0.1-0.1,0.1-0.1
	c1.3,0,2.3,0.7,3.2,1.3c2.5,1.9,5.3,3.1,7.9,4.8c3,2,6.2,3.6,9.1,5.6c1.6,1.1,3.4,2,5.1,3c2.4,1.4,4.6,2.9,7,4.2
	c2.7,1.5,5.3,3.1,7.9,4.8c1,0.7,2.1,1.1,3.1,1.7c2.5,1.2,4.8,2.7,7,4.4c0.6,0.5,1.2,1,1.8,1.3c2.6,1.1,4.7,3.2,7.3,4.3
	C541.8,150.7,542.2,150.7,542.1,151.1L542.1,151.1z"/>
<path class="st0" d="M444,283.2c0.5-1,1.5-1.2,2.4-1.8c2.8-1.7,5.6-3.2,8.3-5c2-1.3,4-2.4,6-3.6c2.7-1.5,5.1-3.6,8.1-4.7
	c0.6-0.2,0.9-1.2,1.7-0.9c0.5,0.6-0.2,0.8-0.5,1c-3.9,2.1-7.6,4.6-11.4,6.8c-3.2,1.8-6.3,3.8-9.4,5.6
	C447.5,281.7,445.9,282.8,444,283.2L444,283.2z"/>
<path class="st0" d="M587.9,178.7c-1.5,0.3-2.5-0.7-3.5-1.5c-0.9-0.7-1.9-1.3-2.9-1.8c-2.5-1.4-5-2.9-7.4-4.4c-0.3-0.2-1-0.3-0.5-1
	c3.9,2.3,7.9,4.4,11.7,7c0.8,0.6,1.7,1,2.6,1.4c0,0,0.1,0.1,0.1,0.1C588,178.6,588,178.7,587.9,178.7L587.9,178.7z"/>
<path class="st0" d="M557,160.1c-1.4,0-2.5-0.6-3.5-1.4c-0.9-0.7-1.8-1.4-2.9-1.8c-2.3-1-4.1-2.8-6.4-3.7c-0.1,0-0.1-0.2-0.1-0.2
	c0-0.1,0.1-0.1,0.2-0.2c0.8,0.1,1.7,0.4,2.3,0.9c2.3,1.8,5.1,2.9,7.5,4.7C555,159,556.3,159.1,557,160.1L557,160.1z"/>
<path class="st0" d="M373.4,325.7c0.9-1,2.2-1.5,3.2-2.3c1.9-1.3,3.9-2.2,5.9-3.3c0.2,1.1-0.9,1.3-1.4,1.6c-1.9,0.9-3.7,1.8-5.3,3.2
	C375.3,325.4,374.4,326,373.4,325.7L373.4,325.7z"/>
<path class="st0" d="M592.3,193.1c0.4-1.9,0.2-3.9,0.2-5.8c0-1.6,0-3.2-0.3-4.8c0.9,0.1,0.9,0.9,0.9,1.4c0.1,2.6,0.1,5.2,0,7.8
	C593.2,192.2,593.1,192.8,592.3,193.1L592.3,193.1z"/>
<path class="st0" d="M464,104.1c-1.2,0.1-2.1-0.7-3-1.2c-1.8-1-3.4-2.4-5.3-3.2c0,0-0.1-0.1-0.1-0.1c0-0.1,0.1-0.2,0.1-0.2
	c0.8,0,1.5,0.4,2.1,0.8c2.1,1.2,4,2.7,6.2,3.8c0,0,0,0.1,0,0.1C464.1,104,464.1,104.1,464,104.1L464,104.1z"/>
<path class="st0" d="M573,169.7c-1.3,0.2-2.2-0.7-3.1-1.2c-1.6-0.9-3-2.1-4.7-2.8c0,0-0.1-0.1,0-0.1c0-0.1,0.1-0.1,0.1-0.2
	c0.9,0,1.7,0.4,2.2,0.9C569.2,167.5,571.2,168.4,573,169.7L573,169.7z"/>
<path class="st0" d="M200.9,63.7c0.2,0.8-0.5,1-0.9,1.2c-1.6,0.9-3.3,1.6-4.7,2.8c-0.2,0.1-0.4,0.3-0.6,0c0.3-0.8,0.9-1.2,1.6-1.5
	C197.7,65.3,199.3,64.5,200.9,63.7L200.9,63.7z"/>
<path class="st0" d="M563.7,164.3c0,0,0,0.1-0.1,0.1c-2.1-1.1-4.3-1.9-6-3.6c0,0,0.1-0.2,0.2-0.3c1.8,1,3.7,2.1,5.5,3.1
	C563.5,163.7,563.8,163.8,563.7,164.3L563.7,164.3z"/>
<path class="st0" d="M474.9,110.7c-1.9-0.3-5.2-2.4-5.6-3.5C470,107.4,474.6,110.2,474.9,110.7z"/>
<path class="st0" d="M190.4,70.3c0.2,0.2,0.1,0.4-0.1,0.5c-1.5,1-3,1.9-4.7,2.3c-0.2-0.4,0.2-0.5,0.4-0.6
	C187.6,71.9,188.8,70.8,190.4,70.3L190.4,70.3z"/>
<path class="st0" d="M455.1,99c-1,0.1-1.4-0.8-2.1-1.2c-1-0.5-2.1-0.8-3-1.6c0,0,0-0.1,0-0.1c0,0,0.1-0.1,0.1-0.1
	C452.2,96.5,454.4,97.8,455.1,99L455.1,99z"/>
<path class="st0" d="M347.6,341.3c1.2-0.9,2.4-1.8,3.8-2.4c0.1,0.1,0.2,0.2,0.2,0.2C351.1,340.2,348.9,341.4,347.6,341.3
	L347.6,341.3z"/>
<path class="st0" d="M444.3,92.4c-1.6-0.7-3.2-1.3-4.5-2.6C441.5,90.4,443.2,90.7,444.3,92.4z"/>
<path class="st0" d="M398.1,310.8c0.6-0.8,2-1.5,3.4-1.8c0.3,0.2,0.2,0.5,0,0.6C400.4,309.9,399.4,310.8,398.1,310.8L398.1,310.8z"
	/>
<path class="st0" d="M328.1,353.2c0.9-0.8,1.5-1.9,2.9-2C330.7,352.2,329.1,353.4,328.1,353.2z"/>
<path class="st0" d="M205.1,61.3c0.3,0.2,0.1,0.5-0.1,0.5c-1.1,0.5-2.1,1.5-3.4,1.4C202.5,62.2,203.8,61.8,205.1,61.3L205.1,61.3z"
	/>
<path class="st0" d="M215.3,55c-0.3,0.7-0.3,0.7-0.8,0.9c-0.9,0.3-1.6,1.2-2.8,1C212.7,55.9,214,55.5,215.3,55z"/>
<path class="st0" d="M434,289.2c0.7-1.3,1.9-1.5,3.2-1.7C436.4,288.4,435.3,288.9,434,289.2z"/>
<path class="st0" d="M220.3,51.9c0.4,0.6-0.2,0.6-0.5,0.7c-0.9,0.3-1.6,1.2-2.7,1C218,52.6,219.2,52.3,220.3,51.9z"/>
<path class="st0" d="M387.2,317.3c0.7-1,1.8-1.5,3-1.6C389.4,316.6,388.4,317.2,387.2,317.3z"/>
<path class="st0" d="M194,68.2c-0.6,1.1-1.5,1.4-2.6,1.4C192,68.7,192.9,68.4,194,68.2z"/>
<path class="st0" d="M209.6,58.6c-0.6,1-1.5,1.4-2.6,1.4C207.6,59.1,208.6,58.8,209.6,58.6z"/>
<path class="st0" d="M420.2,297.5c0.5-0.7,1.2-1.1,2.1-1C421.8,297.3,421.2,297.7,420.2,297.5z"/>
<path class="st0" d="M292.4,6.1c0.6,0.2,0.6,0.7,0.4,1.2c-0.1,0.3-0.3,0.7-0.7,0.2C291.9,7,291.5,6.4,292.4,6.1L292.4,6.1z"/>
<path class="st0" d="M480.8,114.3c-0.9-0.1-1.2-0.2-1.6-1.2C479.9,113.2,480.5,113.6,480.8,114.3z"/>
<path class="st0" d="M438.8,286.5c0.3-0.9,0.4-1,1.5-1.1C439.9,286.1,439.6,286.3,438.8,286.5z"/>
<path class="st0" d="M363.5,331.7c0.4-0.6,0.9-0.9,1.6-0.9C364.9,331.7,364.3,331.9,363.5,331.7z"/>
<path class="st0" d="M325.4,354.5c0.4-0.5,0.8-0.9,1.5-0.7C326.7,354.5,326.1,354.7,325.4,354.5z"/>
<path class="st0" d="M367.1,329.4c0.3-0.6,0.8-0.9,1.5-0.7C368.3,329.2,367.9,329.6,367.1,329.4z"/>
<path class="st0" d="M414,301.2c0.2-0.8,0.8-0.9,1.5-0.8C415.1,301.1,414.7,301.3,414,301.2z"/>
<path class="st0" d="M476.6,111.9c-0.8,0.3-1.1-0.1-1.1-0.8C476.1,111,476.5,111.4,476.6,111.9z"/>
<path class="st0" d="M448.1,94.5c-0.7,0.2-1.2-0.1-1.5-0.8C447.4,93.6,447.9,93.8,448.1,94.5z"/>
<path class="st0" d="M424.5,294.9c0.2-0.8,0.8-0.9,1.5-0.8C425.6,294.8,425.2,295.1,424.5,294.9z"/>
<path class="st0" d="M338.3,347c0.2-0.5,0.6-0.8,1.1-0.8C339.6,347.2,339,347.1,338.3,347z"/>
<path class="st0" d="M211.1,57.4c0.1,0.7-0.1,1-0.9,0.8C210.2,57.6,210.5,57.3,211.1,57.4z"/>
<path class="st0" d="M543.6,152.3c-0.8,0.3-1-0.1-0.9-0.8C543.3,151.5,543.5,151.8,543.6,152.3z"/>
<path class="st0" d="M478.4,112.8c-0.6,0.3-1,0.1-1.1-0.6C477.8,112.2,478.3,112.2,478.4,112.8z"/>
<path class="st0" d="M417.9,299.1c0-0.6,0.2-0.9,0.9-0.8C418.8,299,418.5,299.3,417.9,299.1z"/>
<path class="st0" d="M590.4,180.5c-0.7,0.2-1-0.1-0.9-0.8C590.1,179.6,590.3,180,590.4,180.5z"/>
<path class="st0" d="M467.3,106.2c-0.6,0.3-1,0.1-1.1-0.5C466.7,105.6,467.2,105.6,467.3,106.2z"/>
<path class="st0" d="M465.5,105.3c-0.7,0.1-0.8-0.1-0.9-0.8C465.3,104.5,465.5,104.7,465.5,105.3z"/>
<path class="st0" d="M428.5,292.6c0.1-0.6,0.2-0.6,0.8-0.6C429.2,292.7,429.1,292.7,428.5,292.6z"/>
<path class="st0" d="M410.9,303.3c0.2-0.5,0.3-0.6,0.9-0.5C411.8,303.3,411.5,303.4,410.9,303.3z"/>
<path class="st0" d="M441.8,284.6c0.2-0.5,0.4-0.5,0.9-0.5C442.6,284.7,442.4,284.8,441.8,284.6z"/>
<path class="st0" d="M317.4,359.6c0.1-0.5,0.4-0.7,0.8-0.5C318.2,359.9,317.8,359.8,317.4,359.6z"/>
<path class="st0" d="M324.2,355.4c0-0.5,0.3-0.7,0.8-0.6C325,355.5,324.8,355.7,324.2,355.4z"/>
<path class="st0" d="M355.1,336.8c0-0.6,0.3-0.7,0.8-0.6C355.9,336.8,355.8,337.2,355.1,336.8z"/>
<path class="st0" d="M396.5,312c0-0.6,0.2-0.8,0.8-0.6C397.3,311.9,397.1,312.1,396.5,312z"/>
<path class="st0" d="M357.3,335.4c0-0.6,0.3-0.7,0.8-0.5C358.1,335.5,357.8,335.6,357.3,335.4z"/>
<path class="st0" d="M365.9,330.3c0-0.6,0.3-0.8,0.8-0.6C366.7,330.3,366.5,330.5,365.9,330.3z"/>
<path class="st0" d="M370.1,327.9c0-0.5,0.2-0.8,0.8-0.6C370.9,327.8,370.7,328.1,370.1,327.9z"/>
<path class="st0" d="M371.3,327c0-0.5,0.2-0.8,0.8-0.6C372.1,326.9,371.9,327.2,371.3,327z"/>
<path class="st0" d="M449.7,95.6c-0.6,0.4-0.7,0.1-0.7-0.4C449.6,94.9,449.7,95.2,449.7,95.6z"/>
<path class="st0" d="M423.3,295.8c-0.2-0.6,0-0.7,0.5-0.6C424,295.8,423.8,296,423.3,295.8z"/>
<path class="st0" d="M318.9,358.8c-0.1-0.5,0.1-0.6,0.5-0.5c0.3,0.1,0.2,0.3,0,0.5C319.3,358.8,319.1,359.1,318.9,358.8z"/>
<path class="st0" d="M432.9,290.1c-0.2-0.6,0-0.8,0.5-0.5C433.6,290.2,433.4,290.3,432.9,290.1z"/>
<path class="st0" d="M206.3,60.4c0.3,0.3,0,0.4-0.1,0.6c-0.1,0.1-0.3,0.2-0.5-0.1C205.6,60.4,205.8,60.2,206.3,60.4z"/>
<path class="st0" d="M407.3,305.4c0-0.5,0.1-0.7,0.6-0.5C408,305.5,407.9,305.7,407.3,305.4z"/>
<path class="st0" d="M216.5,54.1c0.2,0.2,0.1,0.3,0,0.5c-0.2,0.2-0.4,0.4-0.6,0C215.8,54.1,216,53.9,216.5,54.1z"/>
<path class="st0" d="M280.3,15c0.2,0.2,0,0.3-0.1,0.4c-0.2,0.1-0.3,0.1-0.4-0.1C279.8,14.8,280,14.8,280.3,15z"/>
<path class="st0" d="M386.1,318.3c-0.2-0.1-0.2-0.2-0.1-0.3c0.1-0.1,0.3-0.2,0.5-0.1c0.2,0.1,0.1,0.3,0,0.4
	C386.4,318.5,386.2,318.6,386.1,318.3L386.1,318.3z"/>
<path class="st0" d="M282.1,13.8c0.2,0.2,0.1,0.3,0,0.4c-0.1,0.1-0.3,0.1-0.4-0.1C281.5,13.7,281.7,13.6,282.1,13.8z"/>
<path class="st0" d="M278.5,16c0.1,0.3-0.1,0.3-0.2,0.4c-0.1,0-0.2-0.1-0.3-0.2c-0.2-0.1-0.1-0.2,0.1-0.3
	C278.3,15.8,278.5,15.7,278.5,16L278.5,16z"/>
<path class="st0" d="M391.4,315c-0.1-0.5,0.1-0.5,0.5-0.3c0.2,0.2,0.1,0.3,0,0.4C391.7,315.2,391.5,315.2,391.4,315L391.4,315z"/>
<path class="st0" d="M273.1,19.2c0.2,0.2,0,0.3-0.1,0.4c-0.2,0.1-0.3,0.1-0.4-0.1C272.6,19,272.8,19,273.1,19.2L273.1,19.2z"/>
<path class="st0" d="M360.8,333.3c-0.1-0.5,0.1-0.5,0.5-0.3c0.2,0.1,0.1,0.3,0,0.4C361.1,333.5,360.9,333.5,360.8,333.3L360.8,333.3
	z"/>
<path class="st0" d="M359.6,334.2c0-0.4,0.2-0.5,0.5-0.3C360.2,334.4,360,334.5,359.6,334.2z"/>
<path class="st0" d="M283.3,12.9c0.2,0.2,0,0.3-0.1,0.4c-0.2,0.1-0.3,0.1-0.4-0.1C282.8,12.8,283,12.7,283.3,12.9z"/>
<path class="st0" d="M354.4,337.6c-0.2-0.1-0.3-0.2-0.1-0.4c0.1-0.1,0.3-0.2,0.5,0C354.9,337.6,354.7,337.7,354.4,337.6L354.4,337.6
	z"/>
<path class="st0" d="M340.4,345.5c0-0.4,0.2-0.5,0.5-0.3c0.2,0.2,0,0.3-0.1,0.4C340.6,345.8,340.5,345.8,340.4,345.5z"/>
<path class="st0" d="M271.9,20.1c0.2,0.2,0.1,0.3,0,0.4c-0.1,0.1-0.3,0.1-0.4-0.1C271.3,20,271.6,19.9,271.9,20.1z"/>
<path class="st0" d="M222.4,50.4c0.1,0.5-0.1,0.6-0.5,0.3C221.9,50.3,222.1,50.2,222.4,50.4z"/>
<path class="st0" d="M471,266.9c0.1-0.2,0.2-0.5,0.5-0.2c0.2,0.2,0.2,0.4,0,0.4C471.2,267.2,471,267.1,471,266.9z"/>
<path class="st0" d="M392.9,313.8c-0.2-0.1-0.1-0.3,0-0.3c0.1-0.1,0.3-0.1,0.2,0.1c0.1,0.1,0,0.3-0.1,0.3
	C393.1,313.9,393,313.8,392.9,313.8L392.9,313.8z"/>
<path class="st0" d="M481.4,114.9c-0.1,0.2-0.2,0.2-0.3,0.1c-0.1-0.1-0.1-0.2,0.1-0.3c0.1-0.2,0.2-0.1,0.3,0
	S481.6,114.9,481.4,114.9L481.4,114.9z"/>
<path class="st0" d="M345.8,342.2c-0.1-0.1,0-0.2,0.1-0.3c0,0,0.1,0,0.2,0.1c0,0.1,0.1,0.2,0.1,0.3
	C346,342.5,345.9,342.4,345.8,342.2L345.8,342.2z"/>
<path class="st0" d="M337.1,347.6c0-0.1,0-0.2,0-0.2c0.1-0.1,0.2-0.1,0.3,0c0.2,0.1,0.1,0.2,0,0.3
	C337.3,347.8,337.2,347.8,337.1,347.6L337.1,347.6z"/>
<path class="st0" d="M335.9,348.3c0-0.1-0.1-0.2-0.1-0.2c0.1-0.1,0.2-0.2,0.3,0c0.2,0.1,0.2,0.2,0.1,0.3S336,348.4,335.9,348.3z"/>
<path class="st0" d="M335,348.8c0-0.1,0-0.2,0-0.2c0.1-0.1,0.2-0.2,0.3,0c0,0.1,0.1,0.3,0.1,0.3C335.2,349.1,335.1,349,335,348.8
	L335,348.8z"/>
<path class="st0" d="M404,307.2c-0.1-0.1,0-0.2,0.1-0.3c0.1,0,0.2,0.1,0.3,0.1c0.1,0.1,0,0.2-0.1,0.3
	C404.2,307.3,404.1,307.2,404,307.2L404,307.2z"/>
<path class="st0" d="M408.5,304.5c-0.2-0.1-0.1-0.2,0-0.3c0.1,0,0.2,0,0.3,0.1c0.2,0.1,0.1,0.2,0,0.3
	C408.7,304.7,408.6,304.7,408.5,304.5L408.5,304.5z"/>
<path class="st0" d="M412.7,302.1c-0.1-0.1-0.1-0.3,0.1-0.3c0.1,0,0.2,0.1,0.3,0.1c0.1,0.1,0.1,0.3-0.1,0.3
	C412.9,302.2,412.8,302.1,412.7,302.1z"/>
<path class="st0" d="M443.3,283.8c-0.2-0.1-0.1-0.2,0-0.3s0.2-0.1,0.3,0.1c0.2,0.1,0.1,0.2,0,0.3C443.5,284,443.4,284,443.3,283.8
	L443.3,283.8z"/>
<path class="st0" d="M445.2,93c-0.1,0-0.2,0.1-0.3,0.1c-0.1-0.1-0.2-0.2,0-0.3c0.1,0,0.2-0.1,0.3-0.1
	C445.3,92.8,445.3,92.9,445.2,93L445.2,93z"/>
<path class="st0" d="M468.5,106.8c-0.1,0-0.2,0.1-0.3,0.1c-0.1,0-0.2-0.2,0-0.3c0-0.2,0.2-0.2,0.3-0.1
	C468.6,106.6,468.7,106.7,468.5,106.8L468.5,106.8z"/>
<path class="st0" d="M438,287.1c-0.2-0.1-0.2-0.2-0.1-0.3c0.1,0,0.2,0,0.3,0c0.2,0.1,0.2,0.2,0.1,0.3S438,287.3,438,287.1L438,287.1
	z"/>
<path class="st0" d="M564.6,164.9c-0.1,0.2-0.2,0.3-0.4,0.1c0,0,0.1-0.2,0.1-0.3c0.1-0.2,0.2-0.1,0.3,0
	C564.7,164.8,564.6,164.9,564.6,164.9L564.6,164.9z"/>
<path class="st0" d="M427.4,293.4c-0.2-0.1-0.1-0.2,0-0.3c0.1,0,0.2,0,0.3,0c0.2,0.1,0.2,0.2,0,0.3
	C427.6,293.6,427.5,293.6,427.4,293.4L427.4,293.4z"/>
<path class="st0" d="M443.7,167.6c3,0,6.1-0.1,9.1-0.3c2.7-0.2,4.7,1,6,3.5c1.1,2,2.4,3.9,2.3,6.4c-0.1,2.7-1.5,3.6-4,2.6
	c-1.9-0.8-3.4-2.1-4.7-3.6c-1.2-1.4-2.7-2.1-4.5-2.4c-3.6-0.6-7.1,2.8-6.6,6.4c0.2,1.8,1.6,2.6,3.2,2c0.7-0.2,1.2-0.6,1.8-1.1
	c1.4-1.2,3-1.4,4.1-0.7c0.8,0.6,1.4,2.8,0.9,4c-0.9,1.9-1.3,4-2,5.9c-1.1,3.1-3.9,3.8-6.3,1.4c-2.2-2.2-2.8-2.1-3.8,0.9
	c-0.2,0.7-0.5,1.3-0.7,2c-1.1,3.6,1.4,5.6,4.1,5.8c3.5,0.2,6.3-1.2,8.4-4c1.3-1.8,2.9-3.3,4.4-4.9c0.9-0.9,1.8-1.4,3.1-0.8
	c1.2,0.5,1.4,1.5,1.4,2.7c0,2.1-1.4,3.5-2.2,5.1c-0.9,1.6-1.6,3.3-2.3,5c-1,2.5-2.4,3.6-5,3.4c-5.2-0.4-10.5,0.1-15.7-0.1
	c-6.9-0.4-13.8,0-20.6,0.1c-1.2,0-2.3-0.1-3.4-0.6c-1.4-0.6-1.9-1.8-1.4-3.3c0.4-1.1,0.9-2.1,1.4-3.1c1.7-2.9,0.3-5.1-1.2-7.1
	c-1.7-2.4-3.2-2.3-5.2-0.2c-2,2.2-2.2,4.1-0.5,6.6c0.6,0.9,1.4,1.8,2,2.8c1.5,2.1,1,3.8-1.5,4.5c-1.4,0.4-2.9,0.5-4.4,0.5
	c-5,0-10-1.1-15.1-0.2c-2.5,0.4-5.1,0.5-7.7,0.1c-1.3-0.2-2.2-0.9-2.7-2.1c-0.5-1.2,0.1-2.2,0.9-3c0.9-0.9,2-1.7,2.9-2.6
	c1.4-1.4,1.4-3.1-0.2-4.4c-1.5-1.2-3.3-1.6-5.2-1.2c-1.3,0.3-2.4,1-3.5,1.7c-1.4,0.9-1.8,2.5-1.2,4.2c0.3,0.9,0.7,1.8,1.1,2.6
	c1.1,2.3,0.3,4-2.1,4.5c-2.9,0.6-5.8,0.5-8.6-0.1c-1.9-0.4-3.8-0.2-5.6,0.2c-1.1,0.2-2.3,0.2-3.4,0.1c-1.7-0.3-2.9-1.3-3.5-2.9
	c-1-2.8-2.6-5.4-3.5-8.3c-0.4-1.5-1.5-2.7-2.6-3.8c-1.1-1-2.3-0.8-3.2,0.4c-1.6,2.2-1.5,4.4,0.1,6.6c0.9,1.3,2.1,2.4,2.5,4.1
	c0.6,2.6-0.6,4.5-3.2,4.2c-3.1-0.3-6.1-0.1-9.1,0.1c-2.4,0.1-3.7-0.6-4.1-2c-0.5-1.6,0.2-3.6,2-4.6c2.5-1.3,3-3.4,3.3-5.9
	c0.3-2.4,1-4.6,1.2-7c0.3-3.2,0.8-6.4,1.9-9.5c0.9-2.6-0.7-4.5-2.2-6.3c-1.8-2.2-1.1-4,1.6-4.4c1.2-0.2,2.5-0.1,3.7,0
	c2.8,0.3,5.7,0.2,8.5,0c5.3-0.4,10.1,0.9,13.5,5.3c1.8,2.4,1.7,5.2,0.8,8c-1.1,3.1-3.3,5.3-6,7c-0.9,0.5-1.6,1.2-2,2.1
	c-0.6,1.1-0.6,2.2,0.1,3.2c1,1.6,2,3.2,3,4.8c0.8,1.2,1.8,2.1,3.1,2.7c1.9,0.8,4.2-0.2,4.9-2.5c1.1-3.4,3.4-6.1,5-9.3
	c1-2,1.9-4,2.9-6c1.5-3,3.2-5.9,5-8.9c0.8-1.3,1.5-2.6,2.1-3.9c1.1-2.2,3.5-3.2,5.9-2.4c2,0.6,2.5,2.4,2.5,4.2
	c0,5.3,1.9,10.3,2.3,15.5c0.3,3.3,0.8,6.5,0.8,9.8c0,1.5,0.9,2.5,2,3c1.2,0.6,2.6,0.6,3.8-0.2c1.3-0.9,1.8-2.1,2.2-3.7
	c1.6-6,1.6-12.2,3.4-18.2c0.5-1.7,0.4-3.5-1.2-4.8c-0.3-0.2-0.5-0.6-0.7-0.9c-1.4-1.8-1.1-3.1,1-3.9c1.3-0.5,2.7-0.9,4.2-0.9
	c1.8,0.1,3.7,0.1,5.5-0.2c0.5-0.1,1.1-0.1,1.6,0c1.1,0.1,2.2,0.3,2.6,1.4c0.3,1-0.5,1.8-1.2,2.4c-1.1,0.9-2.1,2-3.1,3
	c-1.2,1.2-1.5,2.8-1.5,4.4c0.1,2.3,2.2,3.2,4.1,1.8c2.3-1.7,3.8-3.9,4.4-6.8c0.3-1.4,0.2-3.1,1.4-4.2c1.1-1.1,2.6-1.3,4.1-1.5
	c2.4-0.4,4.8-0.6,7.1,0.2c1.8,0.5,2.3,2,1.1,3.4c-0.7,0.9-1.6,1.7-2.5,2.3c-1.6,1-2.8,2.3-4,3.7c-1.5,1.7-3.2,3.1-4.8,4.7
	c-1.4,1.4-1.8,3.2-0.8,4.9c1.2,2.3,2.4,4.7,4,6.8c1,1.3,1.7,2.8,2.2,4.4c0.7,2.2,2.2,3.3,4.7,3.2c1.8,0,3.7-1.5,3.9-3.5
	c0.6-4.1,1.8-8.2,2.1-12.4c0.1-1.5,0.4-3.1,0.9-4.5c1-3.2,0.9-6.1-1.2-8.8c-0.3-0.4-0.5-0.9-0.6-1.5c-0.3-1.8,0-2.3,1.8-2.6
	c2.2-0.4,4.4-0.7,6.7-0.6C441.4,167.6,442.5,167.5,443.7,167.6L443.7,167.6z M339,179.1c0,2.8,0.7,4.1,2.5,4.8
	c3.1,1.3,8.1-2.4,7.8-5.8c0-0.2-0.1-0.5-0.1-0.7c-0.8-2.1-3.8-3.8-6.1-3.6c-2.4,0.2-3.3,1.2-3.9,4.1
	C339.1,178.5,339.1,179,339,179.1L339,179.1z M378.7,184.3c0.1-1.1-0.2-2.2-1.4-2.8c-1.3-0.6-1.8,0.6-2.6,1.3
	c-0.3,0.3-0.6,0.6-0.8,0.9c-0.6,0.9-0.7,1.9-0.2,2.8c0.5,1,1.4,1.3,2.4,1.2C377.7,187.7,378.7,186.5,378.7,184.3L378.7,184.3z"/>
<path class="st0" d="M167.6,206.9c-1.9-0.1-3.9,0.2-5.8-0.2c-2-0.4-2.6-1.6-1.9-3.6c0.4-1,1-1.7,1.8-2.3c2.5-1.9,3.7-4.4,3.9-7.6
	c0.3-4.9,1.1-9.7,2.8-14.3c0.3-0.9,0.3-1.9,0.2-2.8c0-1-0.5-1.8-1.4-2.1c-0.9-0.3-1.9-0.3-2.8,0.6c-1,1.1-1.7,2.3-2.3,3.6
	c-0.5,1.1-1.1,2.1-2.1,2.9c-0.7,0.6-1.4,1.1-2.3,0.8c-0.9-0.4-1.7-1.2-1.7-2.3c-0.1-2.4,0.3-4.7,1.9-6.6c0.9-1.1,1.7-2.2,2.1-3.6
	c0.4-1.4,1.4-1.9,2.7-2.1c2.2-0.3,4.4-0.4,6.6,0c3.5,0.7,6.9,0.1,10.4-0.5c1-0.2,2-0.2,3-0.1c1.5,0.1,2.5,0.9,2.9,2.4
	c0.3,1.4,0.7,2.7,0.9,4.1c0.7,3.3,3.1,2.8,4.9,1.3c0.9-0.7,1.4-1.8,1.9-2.8c0.6-1.2,1.4-2.1,2.7-2.7c1.4-0.6,2.8-1.3,4.2-1.9
	c2.4-1.1,4.8-1.2,7.2-0.2c1.8,0.8,3.7,1.1,5.7,1.2c1.1,0.1,1.6,0.6,1.9,1.5c0.8,2.7,1.6,5.4,2,8.2c0.2,1.4,0.2,2.8-1.1,3.8
	c-1.9,1.5-3.8,1.1-4.6-1.2c-0.6-1.8-1.3-3.8-2.4-5.2c-2.5-2.9-5.2-3.9-8.5-0.9c-2.7,2.5-4.4,5.6-4.9,9.2c-0.4,2.4-1.3,4.7-1,7.2
	c0.4,3.3,1.6,6.2,4.1,8.4c2.1,1.9,5,1.7,7.3-0.4c1.1-0.9,1.9-2,3-3c1.1-1.1,2.4-2.1,4.1-1.5c1.1,0.4,1.6,2.4,1.3,4.3
	c-0.2,1-0.5,2-1.4,2.5c-2,1.1-3.7,2.5-5.4,4c-4.1,3.6-12,2.7-15.5-1.1c-3.4-3.6-5.9-7.7-6.4-12.7c-0.2-1.8,0.1-3.5,0.4-5.2
	c0.4-2.6,0.2-4.7-2-6.4c-1.4-1.1-2.5-2.6-3.4-4.1c-0.7-1.1-1.5-1.9-2.9-1.6c-1.3,0.3-1.7,1.4-1.9,2.6c-0.3,2,0,4.1-0.4,6.1
	c-0.5,2.9-0.8,5.7-1,8.6c0,0.5-0.2,1.1-0.5,1.6c-1.7,2.5-0.9,4.8,0.3,7.2c0.7,1.4,1.4,2.8,0.8,4.4c-0.5,1.4-1.4,2.2-2.9,2.2
	C170.8,206.9,169.2,206.9,167.6,206.9L167.6,206.9z"/>
<path class="st0" d="M241,206.9c-1.4,0-2.7,0.1-4.1,0s-2.5-0.6-3.2-1.9c-0.7-1.3,0-2.5,0.8-3.4c0.9-1,2.1-1.8,3-2.9
	c1.9-2.2,1.7-4.9,1.4-7.5c-0.1-0.4-0.4-0.8-0.8-1.1c-2.3-2.1-7.2-1.1-8.7,1.7c-1.5,2.8-2,5.5-0.1,8.3c0.6,0.9,0.8,1.9,1.2,2.9
	c0.4,1.2-0.2,2.5-1.6,3c-1.8,0.7-3.7,1.1-5.7,1.1c-1.9,0-3.8-0.2-5.7,0.3c-0.9,0.2-1.7-0.1-2.4-0.9c-1.4-1.8-0.8-4.7,1.2-5.8
	c1.9-1,3.4-2.1,3.7-4.5c0.2-1.6,0.9-3.1,0.8-4.7c-0.1-3.8,0.8-7.4,2.2-10.9c1.1-2.8,0.9-5.4-1.3-7.7c-0.4-0.4-0.8-0.9-1-1.5
	c-0.8-1.6-0.1-3.1,1.6-3.5c1.5-0.4,3-0.7,4.6-0.7c1.5,0.1,3.1,0,4.6-0.2c1.4-0.2,2.9-0.3,3.8,1.2c0.6,1,0.2,3.6-0.8,4.7
	c-0.7,0.8-1.5,1.5-2.2,2.2c-1.8,1.7-1.9,3.7-1.3,5.9c0.2,0.9,0.9,1.6,1.7,1.7c2.2,0.1,4.4,0.7,6.7,0.2c0.5-0.1,0.9-0.4,1.2-0.8
	c1.8-2.6,2.9-6,0.3-9.1c-0.5-0.6-1-1.4-1.3-2.2c-0.6-1.6,0.1-2.8,1.7-2.9c3.1-0.3,6.1-0.6,9.2-0.9c1-0.1,2,0.1,3,0.3
	c2.1,0.4,2.8,1.9,1.8,3.8c-0.7,1.3-2,2.1-3.1,3c-1.5,1.2-2.1,2.9-2.2,4.6c-0.1,5.5-1.4,10.9-2.6,16.2c-0.3,1.4-0.3,2.7,0.4,4
	c0.6,1.2,1.4,2.3,1.8,3.6c0.7,2.3-0.2,3.6-2.6,4.1C245.1,207,243.1,206.9,241,206.9L241,206.9z"/>
<path class="st0" d="M174.8,116.7c0-2-0.1-4,0-6c0.2-2.7,2.3-4.5,3.7-6.6c3.1-4.7,7.5-7.6,12.8-9.3c0.1,0,0.1-0.1,0.1-0.1
	c3.7,0.1,7.4-0.3,10.9,1.3c3.1,1.5,4.9,4.2,6.1,7.3c0.7,1.9,0.6,3.9-0.4,5.8c-1.8,3.5-3.9,6.7-7.5,8.7c-1.8,1-2.3,2.8-1.6,4.7
	c1.4,3.8,2.4,7.8,3.4,11.7c0.9,3.5,2.5,6.8,4.1,10.1c0.7,1.5,1.7,3,3.8,2.9c1.5-0.1,2.2-1.2,3.1-2c0.4-0.3,0.6-0.8,1-1.1
	c1.2-1.2,2.4-1.3,3.6-0.4c1.4,1.2,1.8,2.9,0.7,4.1c-2.3,2.6-5,4.4-8.7,4.2c-1.5-0.1-2.7-1-3.9-1.8c-4.1-2.7-6.6-6.6-8.6-11
	c-2-4.3-2.4-8.9-3.8-13.3c-0.2-0.7-0.4-1.3-0.7-2c-0.1-0.4-0.4-0.9-0.9-0.9c-0.5,0-1,0.3-1.2,0.8c-0.2,0.5-0.4,1-0.6,1.5
	c-0.9,4.5-1.5,8.9-0.2,13.5c0.6,2.1,0.1,2.6-2,2.1c-2.8-0.7-5.6-0.5-8.5-0.9c-0.7-0.1-1.4-0.2-1.9-0.7c-0.9-0.8-1-1.9-0.1-2.7
	c0.7-0.6,1.4-1.1,2.2-1.6c2.4-1.5,3.4-3.8,3.4-6.4c0-1.9,0.2-3.7,1.4-5.4c1-1.4,0.9-3.2,1.1-4.9c0.1-0.6,0.2-1.3,0.1-1.9
	c-0.2-3.3,1.2-6.2,2.1-9.3c0.2-0.7,0.4-1.4,0.5-2.2c0.3-1.6,1.5-2.5,3.1-2.3c1.6,0.2,2.8,1.4,2.9,2.9c0,0.8-0.1,1.5-0.4,2.2
	c-0.3,1-0.6,2-0.9,3c-0.4,1.4-0.1,2.6,1.1,3.4c1.1,0.7,2.6,0.4,3.7-0.6c1.6-1.6,2.7-3.5,3.4-5.6c1.3-3.6-1.8-8.3-5.7-9.1
	c-2.8-0.6-5.3-0.2-7.5,1.7c-1.6,1.3-3.4,2.2-4.9,3.6c-3.9,3.5-5.4,7.8-4.5,13c0.3,1.7,1.1,3.3,1.7,4.9c1,2.6,0.2,3.9-2.6,4.2
	c-1,0.1-1.7-0.2-2.2-1.1c-0.6-1.1-0.9-2.2-0.9-3.4C174.7,120.1,174.7,118.4,174.8,116.7C174.7,116.7,174.7,116.7,174.8,116.7
	L174.8,116.7z"/>
<path class="st0" d="M304.1,167.4c3,0,5.2-0.1,7.5-0.2c4.9-0.2,9.2,1.3,12.1,5.7c1.5,2.3,0.7,7.2-1.3,9.1c-1,0.9-2,1.8-2.8,2.9
	c-0.6,1.1-0.5,2,0.3,2.9c3.8,3.9,3.8,10-0.1,13.8c-1.6,1.6-2.9,3.4-5.1,4.4c-2.6,1.1-5.4,1.2-8.2,1.1c-3.6-0.2-7.2-0.8-10.9,0
	c-1.4,0.3-2.9,0.3-4.3-0.2c-2.2-0.8-2.8-2.4-1.5-4.5c0.6-1,1.6-1.6,2.5-2.3c1.5-1.1,2.3-2.5,2.8-4.4c1-4.2,1.2-8.4,2.1-12.6
	c0.4-1.6,0.8-3.3,1.2-4.9c0.4-1.9-0.4-3.4-1.5-4.9c-1.6-2.2-2-4.6,1.3-5.6C300.3,167,302.6,167.4,304.1,167.4L304.1,167.4z
	 M305.7,179.2c0,4,2,5.3,5.6,3.9c0.5-0.2,1.1-0.5,1.6-0.7c1.9-0.8,2.7-2.4,2.9-4.4c0.2-2.3-1.2-4.1-3.5-4.5
	c-3.2-0.6-5.3,0.4-6.2,3.3C305.8,177.7,305.6,178.5,305.7,179.2L305.7,179.2z M313.5,193.6c0.3-1.8-1.8-3.2-3.6-3.8
	c-1.9-0.6-3.5,0-4.5,1.7c-0.7,1.3-1.4,2.6-1.9,4.1c-0.6,1.9,0.1,3.3,2,4C308.9,200.8,313.5,197.4,313.5,193.6L313.5,193.6z"/>
<path class="st0" d="M542.2,184.5c0.1,4.1-0.9,8-2.7,11.6c-1.2,2.4-3.2,4.4-4.9,6.6c-2.2,2.9-5.2,4.6-8.8,5.3
	c-1.2,0.2-2.5,0.3-3.7,0c-1.5-0.4-3-0.9-4.4-1.3c-2.6-0.7-4.3-2.5-5.5-4.8c-1.6-3.3-3.3-6.7-3.7-10.5c-0.3-2.6,0-5,0.6-7.5
	c0.1-0.3,0.2-0.6,0.1-0.9c-0.8-2.3,0.1-3.8,2-5c0.7-0.4,1-1.3,1.4-2.1c2.4-5.4,7.2-7.7,12.1-9.7c2-0.8,4-0.4,5.9,0.6
	c2.9,1.6,5.7,3.2,7.7,6C540.8,176.3,542.1,180.2,542.2,184.5L542.2,184.5z M517.3,190.1c-0.1,1.8,0.4,3.4,0.8,5.2
	c0.4,1.9,1.3,3.5,2.8,4.8c1.6,1.4,3.5,1.6,5.2,0.4c3.5-2.4,5.6-5.9,6.3-10.1c0.3-1.6,0.4-3.3,0.6-4.9c0.6-3.8,0-7.4-2.1-10.6
	c-1.4-2.2-4.8-2.9-6.7-1.4c-1.7,1.4-3.1,3.1-4.2,5C517.9,182.2,517.5,186.1,517.3,190.1L517.3,190.1z"/>
<path class="st0" d="M133.1,207.6c-4.2,0.7-9.7-4.2-10.4-9.8c-0.3-2.2-0.4-4.3,0.2-6.5c0.5-1.7,0.3-3.6,0.4-5.4
	c0.2-2.1,0.7-4.1,1.5-6.1c0.8-1.9,0.7-3.8-0.3-5.6c-0.7-1.3-1.6-2.4-1.6-4c0-1.4,0.6-2.3,2-2.6c1.7-0.4,3.4-0.6,5-0.2
	c1.4,0.3,2.7-0.1,4-0.3c1.5-0.2,2.8-0.2,3.7,1.2c0.7,1.1,0.6,2.9-0.9,4c-3.2,2.5-4.3,5.9-4.3,9.7c0,3.4-1.2,6.6-1.7,10
	c-0.2,1.5-0.3,3-0.1,4.5c0.2,2.4,3.9,4.4,6.3,3.4c1.8-0.7,3.1-2.1,3.7-3.9c1.7-4.6,2.4-9.4,3.1-14.3c0.2-1.2,0.3-2.4,0.6-3.5
	c0.6-2,0-3.8-0.9-5.5c-1.6-3-0.4-5.3,3.1-5.6c1.7-0.2,3.4-0.2,5.1-0.3c1.2,0,2.4-0.1,3,1.2c0.6,1.4,0.1,2.6-0.7,3.8
	c-0.4,0.5-0.8,0.9-1.3,1.3c-1.7,1.4-2,3.2-2.2,5.2c-0.3,2.7-0.1,5.5-0.6,8.2c-0.6,2.8-1.2,5.6-1.9,8.4c-0.9,3.6-2.9,6.7-5.4,9.2
	C140.1,206.7,136.8,207.6,133.1,207.6L133.1,207.6z"/>
<path class="st0" d="M329.9,246.5c-1-0.1-2.3,0.1-3.5,0.4c-1.3,0.3-2.3,1.1-2.5,2.5c-0.2,1.3,0.3,2.4,1.5,3.2c1.8,1.2,4.4,1.1,6-0.3
	c0.9-0.8,1.9-0.9,2.8-0.5c1,0.4,1.3,1.5,1.2,2.5c0,0.8-0.2,1.5-0.6,2.1c-2.3,3.7-7.9,4.5-11.1,1.6c-1.3-1.2-2.2-2.7-3.1-4.2
	c0-0.1-0.1-0.2-0.1-0.3c-0.6-0.9-1.2-2.2-2.5-2.1c-1.3,0.1-1.9,1.3-2.5,2.4c-0.3,0.7-0.5,1.5-0.9,2.2c-0.9,1.9-2.7,2.4-4.5,2.9
	c-0.7,0.2-1.5,0.2-2.2,0.4c-2.3,0.5-2.7,1-3,3.3c-0.3,2.5-0.8,3-3.1,3c-1.5,0-2.8-1.6-2.9-3.4c-0.1-1.5,0.7-2.8,1-4.2
	c0.4-2.3,0.3-4.6,0.1-6.9c-0.1-1.3-0.2-2.6-0.2-3.9c0.1-2-0.2-4-0.4-6c-0.4-3.9,0.6-4.9,3.4-6.1c2.2-0.9,4.5-1.8,6.9-1.5
	c3.9,0.5,5.3,3.5,6.4,6.7c0.4,1.3,0.5,2.7,0.8,4.1c0.1,0.5,0.1,1.2,0.8,1.2c0.6,0,1-0.4,1.1-1c0.3-1.2,0.6-2.4,1-3.6
	c1-2.8,2.9-4.8,5.1-6.7c1.9-1.6,3.5-1.6,5.5-0.2c2.3,1.6,3.8,3.7,4.9,6.3c1.2,2.6-0.5,5.6-3.4,5.8
	C331.4,246.6,330.7,246.5,329.9,246.5L329.9,246.5z M312.2,245.9c0.1-1.3-0.1-2.6-0.9-3.9c-0.8-1.3-2.5-1.9-4.1-1.5
	c-1.5,0.4-2.2,1.3-2.2,3.1c0,1.2,0,2.5-0.2,3.7c-0.2,1.2,0.1,2.4,0.6,3.5c1.1,2.3,3.8,2.5,5.3,0.4
	C311.9,249.7,312.3,248,312.2,245.9L312.2,245.9z M330,241.7c0-1.7-0.5-2.3-2.2-2.3c-2.1,0-3.1,0.8-3.2,2.5c0,1.6,1.2,2.8,2.8,2.8
	C329,244.6,330,243.4,330,241.7L330,241.7z"/>
<path class="st0" d="M75.2,207.6c-5.8,0-8.8-2.5-11.6-5.5c-5.9-6.5-5.1-14.1-2.9-21.5c1.7-5.9,5.9-10.5,11.5-13.5
	c2.4-1.3,5.1-1.6,7.7-0.5c2.2,0.9,4.5,1.3,6.8,1.5c1.1,0.1,1.8,0.7,2.1,1.7c1.1,3.2,1.8,6.4,1.3,9.8c-0.2,1.6-1.6,3-3,3.1
	c-1.8,0.1-2.8-0.7-3.2-2.4c-0.3-1.6-0.8-3.2-1.6-4.6c-1.2-2.2-3.9-3.3-6.5-2.5c-2.6,0.8-3.6,2.6-4.7,4.7c-1.8,3.3-2.4,6.9-3,10.6
	c-0.8,4.8,1.6,10.1,5.9,12.3c0.8,0.4,1.6,0.4,2.4,0.1c1.7-0.7,3.1-1.8,4.2-3.2c0.8-1,1.7-2,2.7-2.8c1.7-1.5,3.8-0.7,4.3,1.5
	c0.4,2.1-0.9,4.7-3.4,6.2c-1,0.6-1.9,1.2-2.6,2C79.5,207,76.9,207.8,75.2,207.6L75.2,207.6z"/>
<path class="st0" d="M489.7,207.7c-2.3,0.2-4.7-1.9-7-4.1c-4.3-4-6.4-9-6.2-14.8c0.2-5.9,2.2-11.1,6.3-15.6c1.5-1.7,2.7-3.6,4.8-4.7
	c3.1-1.7,6.2-3.3,9.9-1.7c2,0.8,4.2,0.7,6.3,1.1c2.1,0.4,2.8,0.9,2.8,3c0,2.7,0.4,5.4,1,8c0.2,0.7-0.1,1.2-0.6,1.7
	c-2.3,1.9-5.6,0.8-6.2-2.2c-0.1-0.6-0.3-1.2-0.5-1.9c-0.9-3.7-3.9-4.7-7.4-3.2c-2.8,1.2-4.8,3.3-5.7,6.4c-1,3.1-1.9,6.1-2.2,9.3
	c-0.1,1.3,0,2.5,0.4,3.7c0.4,1.3,0.8,2.6,1.4,3.8c2.1,4.1,6.1,6.3,10.7,2.1c0.9-0.8,1.6-1.8,2.4-2.7c1.3-1.4,3.1-1.7,4.4-0.9
	c1.2,0.8,1.5,2.8,0.7,4.5c-0.9,1.8-2.5,2.8-3.9,4.1C498.2,206,494.8,207.5,489.7,207.7z"/>
<path class="st0" d="M106,167c1.8,0,3.3,0.1,3.8,1.6c0.5,1.5,0.4,3.1-1.1,4c-3,1.9-3.9,4.6-4,8.1c-0.1,3.2-0.5,6.4-1.3,9.6
	c-0.3,1.4-1,2.6-1.6,3.9c-1,2.3-0.8,3.8,0.8,5.3c1.2,1.1,2.6,1,3.9,0.7c3-0.6,4.6-2.9,6-5.3c0.8-1.2,1.8-2.2,2.8-3.1
	c0.9-0.8,2-0.7,2.9,0c0.9,0.7,1.7,1.5,1,2.8c-0.6,1.2-1.1,2.4-1.8,3.6c-0.6,1.1-1,2.1-1.2,3.3c-1.1,4.8-3.5,5.3-7.6,5.3
	c-4.6,0.1-9.2-0.9-13.9,0.1c-1.1,0.2-2.2,0.2-3.3,0c-1.4-0.2-2.4-0.9-2.7-2.4c-0.3-1.5,0.3-2.5,1.5-3.3c0.6-0.4,1.2-0.7,1.8-1.1
	c1.2-0.9,2-2.1,1.9-3.7c-0.2-2.7,0.6-5.2,1.1-7.8c0.7-3.7,1.3-7.4,2.1-11c0.4-1.9-0.2-3.6-1.5-5.1c-1.8-2.1-1.2-4,1.5-4.7
	c0.9-0.2,1.8-0.4,2.6-0.5C102,167.2,104.2,167.4,106,167L106,167z"/>
<path class="st0" d="M237.4,118.9c-0.1,5.2-1.5,9.3-3.1,13.3c-0.9,2.2-2.9,3.5-4.7,4.9c-1.2,1-2.4,2.1-3.6,3.1
	c-2.3,1.8-6.1,1.3-8-0.9c-1.3-1.6-2.3-3.4-3.4-5.1c-0.6-0.9-0.7-2-0.5-3c0.7-3.4,0.7-6.9,1.6-10.3c1-3.7,3.1-6.7,6-9.1
	c1.2-1.1,2.3-2.4,3.6-3.3c1.9-1.3,3.7-1.4,5.8-0.4C236.2,110.3,236.9,114.9,237.4,118.9L237.4,118.9z M230.6,118.4
	c0.1-1.1-0.1-1.9-0.5-2.7c-0.7-1.4-1.7-2.2-3.4-2.2c-1.6,0-2.3,1.1-2.8,2.3c-0.5,1-0.6,2.2-1.1,3.2c-1.8,3.7-1.1,7.6-1.5,11.5
	c-0.1,0.7,0.3,1.6,0.6,2.3c0.6,1.3,1.6,1.9,3.1,2c1.4,0,1.9-0.9,2.5-1.9C230.1,128.3,230,123.2,230.6,118.4L230.6,118.4z"/>
<path class="st0" d="M286.1,260c-4,0-9.4-3.8-10.3-7.1c-0.3-1.3-0.4-2.4,0.7-3.3c1-0.8,2.3-0.6,3.4-0.1c1.4,0.6,2.4,1.8,3.5,2.8
	c1.3,1.1,2.6,1.5,4.1,0.9c1.5-0.6,2-1.9,2.2-3.5c0.2-1.7-0.5-2.9-2-3.6c-1.1-0.5-2.2-0.9-3.3-1.3c-3.9-1.3-6.4-3.9-7.6-7.8
	c-0.7-2.4-0.1-4.5,1.6-6.2c1.3-1.3,2.5-2.9,4-4c1.1-0.8,2.3-1.2,3.6-1c2.7,0.5,5.2,1.5,7.2,3.3c1,0.8,1.5,3.4,0.9,4.5
	c-0.5,0.9-1.3,1.3-2.4,1.2c-0.9-0.1-1.7-0.5-2.5-1c-0.9-0.7-1.9-1.2-3-1.5c-1.3-0.4-2.4-0.1-3.2,1c-0.8,1.2-0.7,2.4,0.1,3.5
	c1.2,1.6,2.9,2.3,4.7,2.7c4.2,0.8,6.5,3.8,7.3,7.5c1,4-0.6,8.6-4.5,11.3C288.6,259.8,288.2,260,286.1,260L286.1,260z"/>
<path class="st0" d="M276.2,177.3c0.1,1,0,2.1,0.2,3.1c0.4,1.7,1.2,2.4,2.9,2.4c1.5,0,2.9,0.1,4.3,0.9c2.2,1.3,3,4.8,1.3,6.9
	c-0.4,0.4-0.7,0.4-1.2,0.5c-1.4,0.1-2.8-0.3-4.2-0.3c-2,0-2.9,0.8-3.1,2.8c-0.1,1.4,0.1,2.7,0.4,4c0.4,1.8-0.4,3-1.6,4
	c-1.1,0.9-2.3,0.7-3.5,0.1c-0.8-0.4-1.6-0.6-2.2-1.2c-0.7-0.7-1.1-1.5-0.8-2.6c0.3-1.2,0.6-2.4,0.6-3.7c0-2.4-2.6-4.1-5.3-3.7
	c-2.5,0.4-3.8-0.4-4.1-2.6c-0.4-2.2,0.9-4,3-4.5c1.3-0.3,2.7-0.1,4-0.4c1.7-0.5,2.5-1.4,2.5-3.2c0-1.5-0.2-3.1-0.3-4.6
	c0-0.6,0.1-1.1,0.6-1.6c1-1,3.9-1.5,5.1-0.8c0.8,0.4,1.3,1.1,1.3,2C276.2,175.6,276.1,176.5,276.2,177.3L276.2,177.3z"/>
<path class="st0" d="M279.3,112.6c1,3.2-0.4,6.3-1.5,9.6c-1.4,4.1-1.8,8.4-2.3,12.7c-0.2,1.6-0.1,3.2-1.5,4.4
	c-1.2,1.1-2.4,0.7-3.6,0.2c-1.1-0.4-1.9-1.2-1.8-2.6c0-1.2,0.1-2.3,0.5-3.4c1.8-4.6,2.3-9.6,3-14.4c0.6-4.3,1.6-8.6,2.6-12.9
	c0.4-1.9,0.6-3.8,1-5.7c0.7-3,1.6-5.9,4.3-7.9c1.7-1.3,3-3,4.6-4.5c2-1.9,5.3-2,7.3-0.2c1.9,1.6,1.5,4.3-0.8,5.4
	c-1.2,0.6-2.4,0.6-3.7,0.4c-3.1-0.5-4.4,0.3-5.1,3.4c-1,4.3-1.9,8.6-2.8,13C279.4,110.8,279.4,111.5,279.3,112.6L279.3,112.6z"/>
<path class="st0" d="M381.5,115.9c0.1,1.2-0.2,2.4-0.5,3.6c-0.2,0.7,0.1,1,0.6,1.4c0.5,0.4,0.9,0.3,1.4,0c0.6-0.3,1.2-0.7,1.8-1.1
	c2.4-1.7,2.3-4.2-0.2-6.4c-2-1.8-1.5-4.3,1.1-5.2c3.2-1.1,6.4,1.3,6.6,5c0.2,2.1-0.5,3.8-2,5.4c-2.4,2.7-5,5-8,6.8
	c-1.5,0.9-2.5,2.3-2.9,4c-0.3,1.5,0.3,3.1,1.5,3.8c1.5,0.9,3.2,0.7,4.4-0.5c0.5-0.6,1.1-1.2,1.5-1.9c0.6-1,1.5-1.3,2.5-0.8
	c1.1,0.6,1.3,1.6,1,2.7c-0.2,0.9-0.8,1.6-1.6,2.1c-1.3,0.7-2.3,1.8-3.1,2.9c-2.8,3.8-8.5,4.2-11.5,0.8c-1.7-1.9-1.7-4.1-1.4-6.4
	c0.6-4.9,2-9.7,3.8-14.3c0.5-1.3,1.2-2.5,1.9-3.7c0.5-0.8,1.4-1.5,2.4-1.2C381.9,113.5,381.3,114.9,381.5,115.9L381.5,115.9z"/>
<path class="st0" d="M318.5,113.7c0.2,4.4-2.5,6.4-5.3,8.4c-0.1,0.1-0.2,0.1-0.3,0.1c-0.7,0.1-1.6,0.4-2.1-0.1
	c-0.5-0.6,0.2-1.2,0.3-1.8c0.2-0.6,0.6-1,1-1.4c0.8-0.8,1-1.8,0.8-2.9c-0.2-1.2-1-1.9-2.1-2.2c-1.1-0.3-1.6,0.5-2.1,1.3
	c-0.8,1.1-1,2.5-2,3.6c-0.6,0.8-0.5,1.9,0.4,2.7c0.1,0.1,0.3,0.3,0.4,0.4c1.6,1.7,1.7,2.4,0,4.1c-0.9,0.9-1.6,1.7-2.1,2.9
	c-0.6,1.7-0.2,3.4,1.2,4.4c1.4,1,2.7,0.9,3.9-0.2c0.8-0.7,1.5-1.5,2.2-2.2c0.8-0.7,1.7-1,2.6-0.4c1,0.6,0.5,1.5,0.3,2.3
	c-0.3,1-0.9,1.8-1.8,2.3c-1.3,0.9-2.5,2-3.5,3.2c-2.4,3.1-7,3.5-9.5,0.9c-0.6-0.6-1-1.3-1.1-2.1c-0.2-1.4-0.4-2.7-0.8-4
	c-1.1-3.4,0.7-6.4,1.3-9.6c0.6-3.1,1.9-5.8,3.8-8.3c0.2-0.3,0.5-0.7,0.8-0.9c2.1-1.3,3.3-3.3,5-5c1.6-1.7,3.2-2,5.3-1
	C317.8,109.4,318.6,111.5,318.5,113.7L318.5,113.7z"/>
<path class="st0" d="M247.1,253c0.2-4.4,0-8.7,0.3-13.1c0.2-3.2,1.4-4.7,4.6-5.3c1.1-0.2,2.1-0.4,3.2-0.7c2.8-0.7,4.4,0,6.1,2.3
	c2.5,3.4,3.3,7.2,2.5,11.3c-0.1,0.8,0,1.6,0.1,2.4c0.4,2.2,0.4,4.4-0.1,6.6c-0.3,1.3-1.2,1.9-2.5,1.9c-1.3,0-2.5-0.3-2.9-1.8
	c-0.4-1.5-0.7-3-0.5-4.6c0.4-2.8,0.1-5.7,0.4-8.5c0.1-1.3-1.3-3-2.4-3.1c-1.1-0.2-2.1,0.7-2.7,2.3c-0.8,2.1-0.6,4.3-0.4,6.4
	c0.2,2.1,0.2,4.3,0.2,6.4c-0.1,1.8-1.4,3.1-3,3.1c-1.5,0-2.6-1.2-2.8-3.1C247.1,254.7,247.1,253.9,247.1,253L247.1,253z"/>
<path class="st0" d="M383.5,241.9c-1,3.1,0.2,6.7,0.3,10.4c0,1-0.2,2-0.4,2.9c-0.4,1.6-1.3,2.5-2.9,2.8c-1.7,0.2-3.2,0.9-4.8,1.6
	c-2.5,1.1-5.8-0.3-6.8-3c-0.3-0.8-0.8-1.6-1.2-2.4c-0.9-1.6-1.1-3.3,0-4.9c0.3-0.4,0.6-0.8,0.8-1.2c1.4-2.7,3.4-4.2,6.6-3.7
	c1.4,0.3,2.2-0.8,2.7-1.9c0.5-1.2,0.1-2.3-0.8-3.2c-0.9-0.8-2.3-0.7-3.7,0.4c-0.6,0.4-1.1,0.8-1.8,0.9c-1.3,0.3-2.2-0.1-2.8-1.1
	c-0.6-1-0.5-2,0.2-2.9c2-2.6,6.3-3.8,9.8-2.6C381.5,234.9,383.5,237.9,383.5,241.9L383.5,241.9z M372.6,250.9c0,1.8,1.1,3.1,2.7,3.1
	c1.7,0,3.2-1.8,3.2-4c0-1.7-0.9-2.8-2.4-2.8C374.1,247.3,372.6,248.8,372.6,250.9L372.6,250.9z"/>
<path class="st0" d="M249.6,130c0,2.7,1.3,4.4,3.9,5.1c1,0.3,1.8,0,2.2-0.9c0.3-0.6,0.8-1.2,1.3-1.6c0.7-0.6,1.5-1.3,2.5-0.4
	c0.7,0.7,0.9,2.2,0.2,3c-0.3,0.3-0.6,0.8-1,0.9c-1.9,0.5-2.9,2-4.3,3.2c-2.6,2.4-6.5,2.6-8.4,0.2c-1.9-2.4-3.5-4.9-3-8.3
	c0.6-3.9,1.2-7.9,2.7-11.6c0.8-2.1,2.3-3.9,3.9-5.4c1.1-1,1.9-2.1,2.6-3.4c1.3-2.3,3.2-3.7,6-3.3c2.4,0.3,4.5,1.1,5.4,3.6
	c0.9,2.1-0.2,4-2.5,4.1c-1.6,0.1-3-0.7-4.5-1.1c-2.5-0.7-3.4-0.3-4.1,2.2c-0.1,0.3-0.2,0.7-0.4,1C250.3,121.2,249.9,125.6,249.6,130
	L249.6,130z"/>
<path class="st0" d="M242.7,245.6c-0.1,4.7-0.3,8.7-3.2,11.7c-2.6,2.7-4.4,3.4-7,2.4c-1.1-0.4-1.9-1.1-2.6-2
	c-1.8-2.2-3.3-4.6-3.9-7.4c-0.1-0.4-0.2-0.8-0.3-1.2c-1.9-5.8,1.1-10,4.7-13.8c2.7-2.9,7-1.8,9.7,1.9
	C242.1,239.9,242.6,243.1,242.7,245.6L242.7,245.6z M230.7,246.2c0,0.4,0,0.9,0,1.4c0.2,1.5,0.4,3.1,1.2,4.4
	c1.2,1.8,3.5,2.1,4.6,0.6c2.1-2.8,2.1-8.9-0.1-11.7c-1.1-1.4-2.6-1.5-3.9-0.3C230.9,242.2,230.7,244.2,230.7,246.2L230.7,246.2z"/>
<path class="st0" d="M335.1,132.2c0.3-2.4-1.1-4.2-2.2-6.1c-1.5-2.6-2.8-5.3-3.2-8.3c-0.4-2.9,1.3-5.1,3.4-6.9
	c0.7-0.6,1.4-1.2,2-1.8c2.5-2.5,7.5-1.6,8.9,1.7c0.5,1.1,0.5,2.4-0.3,3.4c-0.9,1-2,1.2-3.3,0.6c-0.8-0.3-1.5-0.7-2.3-1
	c-1.6-0.5-2.7,0.3-2.9,2c-0.1,1.5,0.3,2.9,1.2,4.1c2.3,2.9,3.4,6.2,4.2,9.7c0.6,2.8-0.5,5.2-2.2,7.3c-0.3,0.3-0.6,0.6-0.8,0.9
	c-3.7,4.4-6.8,3.6-11.4,0.8c-1.6-1-2.6-3.8-2.1-5.6c0.3-0.9,0.9-1.7,2-1.7c1.5-0.1,2.9,0.4,3.8,1.7c0.5,0.8,1.2,1.4,1.8,2
	c0.7,0.7,1.6,0.6,2.4,0.4c0.7-0.2,1-0.9,1.1-1.7C335.1,133.2,335.1,132.7,335.1,132.2L335.1,132.2z"/>
<path class="st0" d="M158,233c-1,0.2-2.1-0.4-3.3-0.1c-1.3,0.4-2.3,1-3.1,2c-1.2,1.5-0.9,3.1,0.7,4.1c1.1,0.6,2.3,1.2,3.6,1.3
	c1.7,0.2,2.7,1.2,2.8,2.4c0,1.4-0.8,2.2-2.6,2.6c-0.5,0.1-1.1,0.2-1.6,0.3c-2.2,0.6-3.6,2.9-3.2,5.2c0.2,1.3,0.4,2.7,0.4,4
	c0,1.9-1.1,3-3,3c-2.6,0.1-3.3-0.4-3.6-2.7c-0.4-3.8,0.3-7.6,0.8-11.4c0.2-1.3,0.1-2.6,0-3.9c-0.3-3.1-0.4-6.2,0.1-9.2
	c0.2-1.4,1.2-2.4,2.6-2.9c3.3-1.2,6.7-1.2,10.2-0.8c1.6,0.2,2.7,2,2.5,3.8C161.3,232.4,160.3,233,158,233z"/>
<path class="st0" d="M362.5,104.1c-0.1,1.6-0.1,3.5,0.3,5.4c0.2,1.2,0,2.3-0.8,3.4c-1.6,2.1-2.1,4.6-2.7,7.1
	c-0.6,2.8-1.4,5.5-2.3,8.2c-0.5,1.7-0.5,3.3,0.8,4.7c1.1,1.1,1.7,1.1,2.8,0c0.5-0.5,1-0.9,1.6-1.4c0.6-0.5,1.3-0.8,2-0.1
	c0.6,0.7,0.5,1.5,0.1,2.2c-0.2,0.3-0.5,0.7-0.8,0.8c-2.1,0.7-3.2,2.6-4.8,3.9c-2.2,1.9-4,2.2-6,1.3c-1.8-0.9-2.5-3.5-2.3-5.8
	c0.3-2.2,0.7-4.4,1.2-6.6c0.6-2.8,1.4-5.5,2.1-8.2c0.3-1.3,0.2-2.7-0.1-4c-0.6-2-0.5-3.8,1.3-5.3c1.2-1.1,1.5-2.8,2-4.3
	c0.3-0.8,0.5-1.8,0.8-2.6c0.4-0.9,1-1.8,2.1-1.9C361.8,100.7,362.5,101.5,362.5,104.1L362.5,104.1z"/>
<path class="st0" d="M280.9,134.5c0.1-4.2,0.8-8.3,2.4-12.2c0.4-1.1,0.7-2.2,1-3.3c0.3-1.2,0.2-2.4-0.4-3.6c-2.2-4.3,1.3-7.1,5-7.4
	c1.5-0.2,2.6,1.4,2.8,3.6c0.2,2.4-0.5,4.7-0.8,7.1c-0.3,2.7-1.3,5.2-2.1,7.8c-0.7,2.3-0.7,4.4,0.5,6.5c1.6,2.8-0.6,8.1-5,7.7
	c-2-0.2-3.2-1.1-3.4-3.4C280.9,136.3,280.9,135.4,280.9,134.5L280.9,134.5z"/>
<path class="st0" d="M402.7,139.2c-2.9,0.3-3.7-1.9-2.8-4.8c1.1-3.7,2.3-7.3,3.1-11.1c0.4-1.7,0.7-3.4,1.1-5.1
	c0.2-1.1-0.1-2.2-0.3-3.2c-0.4-1.8-0.6-3.4,1.1-4.7c1.7-1.3,3.4-1.3,5.2-0.6c2.2,0.9,2.9,0.8,4.2-1.2c0.9-1.4,2-2.5,3.8-2.5
	c2.2-0.1,3.4,1.8,2.4,3.8c-0.8,1.6-2.1,2.6-3.9,2.7c-2.4,0.1-3.9,1.3-4.9,3.5c-1.2,2.5-2.3,5-2.7,7.7c-0.2,1.4-0.9,2.6-1.4,3.9
	c-1,2.6-0.7,5.4-1.1,8.1S405.1,139.2,402.7,139.2z"/>
<path class="st0" d="M445.5,259.8c-3.3,0-5.8-1.7-6.9-4.4c-0.3-0.8-0.7-1.7,0-2.4c0.7-0.6,1.6-0.4,2.4,0c0.8,0.4,1.5,0.8,2.3,1.1
	c1.6,0.7,3.1,0.5,3.7-0.5c0.5-0.9,0-3.1-0.9-4c-1.1-1-2.5-1.4-3.8-1.9c-2.9-1.1-5-3.9-4.9-6.4c0-0.5,0-1.1,0.4-1.4
	c2.3-2.6,4.2-5.7,8.3-6c2-0.2,4.9,1.8,4.9,3.9c0,1.1-0.9,1.7-2,1.9c-1.2,0.1-2.5,0.2-3.7,0.2c-0.9,0-1.5,0.4-1.8,1.2
	c-0.3,0.8,0.3,1.3,0.8,1.8c0.4,0.4,1,0.5,1.5,0.7c3.1,0.9,5.4,3,7.2,5.6c1.5,2.2,1,4.9-1.1,6.5c-1.1,0.9-2.2,1.8-3.1,2.9
	C447.9,259.5,446.7,260,445.5,259.8L445.5,259.8z"/>
<path class="st0" d="M185.3,248.1c-0.1-4.3,0.6-8.3,3.2-11.6c1.3-1.7,2.9-3.2,5.4-2.9c1.2,0.1,2.2,0.7,3.1,1.4
	c1.4,1.1,2.4,2.6,3,4.2c0.4,1.1,0.6,2.2-0.5,3c-1,0.8-2.1,0.4-3-0.3c-0.9-0.7-1.8-1.2-3-1.2c-1.4,0-2.3,0.7-2.6,2
	c-0.4,2.3-0.9,4.7-0.6,7.1c0.3,3.1,2.6,4.2,5.2,2.4c0.5-0.4,0.9-0.8,1.4-1.1c1.2-0.8,2.4-0.4,2.7,1c0.4,2.1-0.2,4.2-1.8,5.6
	c-1.7,1.6-3.7,3-6.3,1.9c-1.3-0.5-2.2-1.6-2.9-2.7c-0.8-1.3-1.5-2.7-2.3-4C185.2,251.3,185.1,249.7,185.3,248.1L185.3,248.1z"/>
<path class="st0" d="M338.2,245.2c-0.3-1.6,0.3-3,1.2-4.3c1.4-2,2.4-4.2,4.3-5.9c1.2-1.1,2.6-1.4,4.1-0.9c2.4,0.8,4.5,1.9,5.2,4.7
	c0.2,1,0.5,1.9-0.4,2.8c-0.9,0.8-1.6,0.3-2.5,0c-1.2-0.5-2.5-0.9-3.9-0.7c-1.3,0.2-2.7,1.3-2.8,2.5c-0.1,2.5-0.2,5,0.1,7.5
	c0.2,1.7,1.8,2.3,3.3,2.1c1.2-0.2,2.2-0.8,3.3-1.3c1.6-0.8,2.8,0,2.8,1.8c-0.1,2.8-1.5,4.7-3.9,5.9c-1.8,0.9-4,1-5.1-0.5
	c-2.4-3-5.6-5.7-5.4-10.1C338.5,247.5,338,246.4,338.2,245.2L338.2,245.2z"/>
<path class="st0" d="M204.2,248.8c0.1-1.5,0-3,0.2-4.5c0.2-1.4,0.1-2.8-0.5-4.2c-1.3-3-0.4-6,0.8-8.8c0.8-1.8,3.1-1.9,4.5-0.2
	c1,1.2,1.9,2.6,2.7,4c0.9,1.5,0.7,3-0.3,4.4c-1.3,1.7-1.8,3.6-1.6,5.8c0.1,0.6,0.1,1.3,0,1.9c-0.3,2.9,0.5,5.5,2.1,7.9
	c1.3,1.9,1.2,3.1,0.1,4.2c-0.9,0.9-3.1,0.8-4.6-0.1c-2.1-1.2-2.5-3.4-3.1-5.4C204.1,252,204.2,250.4,204.2,248.8L204.2,248.8z"/>
<path class="st0" d="M416.7,252.3c0.1-2.1-1.2-3.2-3-3.8c-2.3-0.7-3.9-2.2-5.1-4.2c-0.9-1.5-1.2-3.1-0.2-4.6c1-1.6,1.9-3.3,3.3-4.6
	c2.3-2.2,6.9-1.3,8.1,1.6c0.5,1.1-0.1,2.3-1.4,2.7c-1,0.4-2,0.2-3,0.2c-1.2,0-2,0.5-2.3,1.5c-0.3,1.1,0.6,1.8,1.6,2.2
	c0.2,0.1,0.5,0.2,0.7,0.3c3.8,0.8,5.4,3.9,7,6.9c0.5,0.9,0.3,1.9-0.3,2.7c-1.2,1.6-2.4,3.3-3.7,4.9c-2.3,2.9-7.9,1.9-9.6-2.2
	c-0.5-1.3,0.3-2.5,1.8-2.6c1.1,0,2.1,0.6,3.2,0.8C415.8,254.7,416.7,254.1,416.7,252.3L416.7,252.3z"/>
<path class="st0" d="M433.6,236.9c0,0.9-0.4,1.5-0.8,2.1c-1.4,2-2,4-1.4,6.5c0.3,1.4,0.1,2.9,0,4.3c-0.1,1.9,0.4,3.6,1.7,5.1
	c0.3,0.3,0.5,0.6,0.7,1c0.6,0.9,0.6,2,0,2.8c-0.6,0.9-1.6,1.1-2.7,0.9c-1.8-0.3-3-1.5-3.8-2.9c-1.3-2.1-2-4.4-1.4-7
	c0.8-3.4,0.1-6.7-1-9.9c-1-3,0-5.8,1.7-8.3c1.2-1.9,3.1-1.9,4.3-0.2C432.3,233,433.2,234.9,433.6,236.9L433.6,236.9z"/>
<path class="st0" d="M175.9,252.8c0.8-3,0.1-6.2,0.6-9.2c0.2-1.1,0.2-2.2-0.1-3.3c-0.4-1.4-0.1-2.7,0.7-3.8c0.8-1.1,1.2-2.3,0.3-3.6
	c-0.6-1-0.6-2.1-0.6-3.2c0-2.2,1.5-3.1,3.4-2.2c1.1,0.5,1.8,1.9,1.6,3.1c-0.1,0.2-0.1,0.5-0.2,0.7c-1.8,2.4-1.3,4.8-0.4,7.4
	c1,2.5,0.6,5.2,0.4,7.8c-0.1,2.2,0.2,4.4,0.2,6.6c0,1.1-0.2,2.2-0.5,3.2c-0.3,1-0.6,1.8-1.9,1.8c-1.3,0-2.4-0.4-2.9-1.6
	C176,255.4,175.8,254.1,175.9,252.8L175.9,252.8z"/>
<path class="st0" d="M394.2,232.7c-0.6,6.2-0.2,12.1-0.3,18c0,1.3,0.2,2.6,0,4c-0.3,2-1.1,3.1-2.6,3.1c-1.8-0.1-2.8-1.3-2.8-3.4
	c0-2.1,0.6-4.1,0.7-6.2c0.1-1-0.1-2-0.1-2.9c-0.1-4.6-0.3-9.1-1.1-13.6c-0.3-1.7,1-3.5,2.5-3.7c1.8-0.3,3,0.7,3.3,2.8
	C394.1,231.5,394.3,232.2,394.2,232.7L394.2,232.7z"/>
<path class="st0" d="M363.3,230.3c0.1,1.1-0.5,2-1,2.9c-0.4,0.9-0.8,1.8-0.2,2.7c2.3,3.5,1.6,7.3,1,11c-0.3,2.1-0.4,4,0.2,6
	c0.5,1.6,0.4,3.2-0.8,4.5c-0.9,1-2,0.9-3,0.1c-1-0.9-1.6-2-1.6-3.3c0-4.2-0.1-8.4,0-12.6c0-1.6,0.8-3.1,1.2-4.6
	c0.4-1.3,0.3-2.5-0.2-3.8c-0.4-0.9-0.8-1.8-0.8-2.9c0-1.6,1-2.9,2.5-3C362.1,227.3,363.3,228.7,363.3,230.3L363.3,230.3z"/>
<path class="st0" d="M163.5,252.7c-0.1-1.2,0-2.4,0.3-3.6c0.4-1.7,0.1-3.4,0-5c-0.1-2.3,0.6-4.4,1.6-6.4c0.9-1.8,4.4-2.9,6.3-2.2
	c1.6,0.6,1.9,2,0.8,3.5c-0.8,1-1.6,2-2.4,3c-1.8,2.2-1.9,4.7-1.5,7.4c0.3,1.9,0.3,3.9-0.1,5.8c-0.3,1.5-1.4,2.6-2.6,2.5
	c-1.2,0-2.2-1.3-2.4-2.8C163.5,254.1,163.5,253.4,163.5,252.7L163.5,252.7z"/>
<path class="st0" d="M216.9,250.4c-0.1-2.7,0-4.9-0.2-7.1c-0.2-1.9,0.1-3.9,1-5.7c0.4-0.7,0.7-1.4,1.6-1.4c0.7,0.1,1.1,0.7,1.4,1.4
	c0.8,2,1.6,4,2.4,6.1c0.2,0.4,0.3,1.1,0.1,1.5c-1.3,3.2-0.8,6.6-1.6,9.8c-0.1,0.3-0.1,0.6-0.3,0.9c-0.5,1.1-1.2,1.9-2.5,1.7
	c-1.3-0.2-1.8-1.2-1.9-2.4C216.9,253.5,216.9,251.7,216.9,250.4L216.9,250.4z"/>
<path class="st0" d="M398.4,251.4c0.6-3.5,0-7,0.1-10.4c0-1.9,0.4-3.7,1.6-5.2c0.7-0.9,1.4-0.9,1.7,0.2c0.8,2.4,1.7,4.9,1.1,7.6
	c-0.5,2.2,0,4.4,0.6,6.5c0.6,2.3,0.5,4.5-1.2,6.4c-0.6,0.7-1.2,1.5-2.2,1.2c-1-0.3-1.2-1.2-1.3-2.1
	C398.4,254.1,398.5,252.8,398.4,251.4L398.4,251.4z"/>
<path class="st0" d="M467.1,231.4c0.1,4.1-4.1,6-6.7,5.7c-1.2-0.1-1.8-1.2-2.6-2c-1.1-1.2-1.4-2.8-1.7-4.4c-0.1-0.9,0.3-1.6,1-2.2
	c2.1-1.7,7.2-1.3,9.2,0.6C467.2,229.9,467.2,230.7,467.1,231.4L467.1,231.4z"/>
<path class="st0" d="M135.6,239.6c-2,0-3.7-0.1-4.3-1.8c-0.7-1.9-0.8-3.9,0.7-5.6c0.5-0.7,1.2-1,2.1-0.9c1.1,0.1,2.2,0.2,3.2,0.4
	c2.1,0.4,3.3,1.9,3.2,4.2c0,2.1-1.1,3.2-3.4,3.6C136.5,239.5,135.8,239.6,135.6,239.6L135.6,239.6z"/>
<path class="st0" d="M217.6,229.7c0-0.8-0.1-1.8,0.9-2c1.1-0.3,2.2-0.1,2.9,0.9c0.7,0.9,0.7,2,0.1,2.9c-0.5,0.9-1.3,2-2.4,1.6
	c-1.1-0.3-1.6-1.5-1.6-2.8C217.6,230.2,217.6,230,217.6,229.7L217.6,229.7z"/>
<path class="st0" d="M399.4,229.6c0-1.2,0.9-2.1,2-1.9c1.1,0.1,1.8,0.8,1.9,1.9c0.1,1.3-1.2,3.5-2.1,3.5
	C400.1,233.1,399.4,231.6,399.4,229.6z"/>
</svg>
