<?xml version="1.0" encoding="UTF-8"?>
<svg id="Layer_1" xmlns="http://www.w3.org/2000/svg" version="1.1" viewBox="0 0 972.2 146.2">
  <!-- Generator: Adobe Illustrator 29.1.0, SVG Export Plug-In . SVG Version: 2.1.0 Build 142)  -->
  <defs>
    <style>
      .st0 {
        fill: none;
      }

      .st1 {
        fill: #fff;
      }
    </style>
  </defs>
  <g>
    <path class="st1" d="M738.6,70.8c23.6-23.6,47.3-47.1,71-70.8,23.3,23.6,46.9,47.4,70.5,71.3l.6-.4c-1.1-.7-2.3-1.3-3.4-2.1-21.1-13.6-42.3-27.1-63.3-41-3.4-2.2-5.5-1.9-8.7.2-21.7,14.2-43.6,28.2-65.4,42.3-.5.3-1,.4-1.3.5h0Z"/>
    <path class="st1" d="M734.9,75.8c22.5,22.8,46,46.6,68.8,69.6.1.1-.9-.4-1.8-1-21.1-13.7-42.2-27.3-63.2-41.1-3.2-2.1-5.3-2.4-8.8-.1-21.9,14.4-44.1,28.6-66.4,43,23.9-23.7,47.6-47,71.4-70.4h0Z"/>
    <path class="st1" d="M814.9,144.8c23.5-23.1,46.9-46.2,70.1-69,23,23,46.6,46.8,69.2,69.4-12.6-8.2-26.7-17.2-40.7-26.3-8.2-5.3-16.6-10.5-24.7-16.1-2.8-1.9-4.8-1.7-7.5.1-21.9,14.2-43.9,28.4-65.8,42.5-.2-.2-.4-.4-.6-.6h0Z"/>
  </g>
  <path class="st1" d="M.1,24.15c22.6,0,45.2-.2,67.8,0,7.1.1,11.6,4.3,12.5,11.3.7,4.9.6,9.9.2,14.9-.4,6.7-4.1,11-11.5,12.6,5.2,6.6,10,12.7,15.4,19.6-5.2,0-9.6.2-14-.1-1.3-.1-2.8-1.6-3.8-2.8-3.6-4.7-7.2-9.5-11-14.1-1-1.2-2.6-2.5-3.9-2.5-12.1-.2-24.2-.1-37-.1v18.4c-5.3.3-10,.6-14.8.9.1-19.4.1-38.8.1-58.1ZM15,49.65c1.1.1,1.8.3,2.6.3,14.5,0,28.9-.1,43.4.1,4.7.1,5.5-2.3,5.4-6.3,0-4,0-7.4-5.5-7.2-5.8.2-11.6,0-17.4,0H15v13.1h0Z"/>
  <path class="st0" d="M278.1,129.15h-32v-22.6c4.7,3.3,8.8,6,12.6,9.1,2.4,1.9,4.2,1.8,6.5,0,3.8-3,7.9-5.8,12.9-9.4v22.9h0Z"/>
  <path class="st1" d="M426.1,129.15c-1.9-1.8-3.7-3.6-5.6-5.4.3-.4.6-.8.9-1.3,1.1-.1,2.5-.6,3.2-.1,8.8,5.5,18.4,1.7,27.5,2.2.9.1,3-3,2.6-3.7-.7-1.6-2.6-3.5-4.1-3.6-7.1-.4-14.3-.1-21.5-.2-6.2-.1-8.4-2.6-8.2-8.6.1-4.2,2.3-6.8,6.3-6.9,8.6-.2,17.3-.2,25.9,0,3.3.1,5.6,1.9,5.7,6-1.1.1-2.5.8-3.2.3-8.8-5.5-18.4-1.8-27.6-2.2-1,0-3,2.6-2.8,3.6.3,1.4,2.2,3.5,3.6,3.6,6.6.4,13.3.2,20,.2,3.9,0,8.1-.4,9.7,4.1,1.6,4.6.5,8.8-3.7,11.8l-28.7.2h0Z"/>
  <path class="st1" d="M620.1,129.15c-1.6-1.8-3.2-3.6-5.7-6.4,2.8-.2,4.2-.8,4.9-.3,8.8,5.6,18.4,1.7,27.5,2.2.8.1,2.7-2.8,2.5-3.9-.4-1.4-2.4-3.3-3.8-3.4-7.5-.3-15-.1-22.5-.2-5.4-.1-8.2-3.5-7.5-8.8.5-4,2.5-6.6,6.7-6.7,8.5-.1,17-.3,25.5.2,2.3.1,4.5,2.7,6.8,4.1-.2.6-.5,1.2-.7,1.8-1.2.1-2.7.7-3.5.2-8.9-5.3-18.4-1.8-27.6-2-.8,0-2.7,2.8-2.4,3.8.4,1.4,2.3,3.3,3.7,3.3,6.7.4,13.3.2,20,.2,4.1,0,8.3-.1,9.7,5,1.3,4.6,0,8.5-4.5,11l-29.1-.1h0Z"/>
  <path class="st1" d="M559.1,129.15v-27.8c11.6,0,22.2,0,32.8.1.8,0,1.5,1.2,2.3,1.8-.9.7-1.8,1.9-2.7,1.9-7,.2-14,.1-21,.1h-6.3v7.7h29.1c.4,4,.4,4.1-2.7,4.1-7,.1-14,0-21,0h-5.6v7.9c9.4,0,18.5.1,27.6-.1,3.2,0,4.4.9,3.3,4.1l-35.8.2h0Z"/>
  <path class="st1" d="M366.1,129.15c-3.6-2.2-4.9-5.5-4.7-9.6.1-3.6,0-7.3.2-10.9.2-4.3,2.5-6.9,6.9-7,8.3-.2,16.6-.2,24.9,0,4.3.1,6.6,2.7,6.7,7.1,0,4.3.6,8.7-.2,12.9-.5,2.7-3,5-4.6,7.5h-29.2ZM380.7,125.05h10c3.2,0,5-1.2,4.9-4.7s-.1-7,0-10.5c.1-2.9-1.3-4.3-4.1-4.4-3.8-.1-7.6-.2-11.5-.2-16.8.1-13.8-1.4-14.2,14.5-.1,4,1.8,5.3,5.4,5.3,3.2,0,6.4,0,9.5,0h0Z"/>
  <path class="st1" d="M186.1,129.15c-3.5-2.4-4.6-5.7-4.3-9.8.2-3.5.1-7,.1-10.4-.1-4.4,2.1-7.2,6.4-7.3,8.4-.2,16.9-.2,25.4,0,4.3.1,6.5,2.9,6.5,7.2,0,3.6-.1,7.3.1,10.9.2,4.2-1.1,7.4-5.1,9.3l-29.1.1h0ZM201,125.15c16.8-.2,14.9,2.5,15-14.7v-.5c0-2.8-1.3-4.4-4.2-4.4-7.3,0-14.6-.2-21.9.2-1.4.1-3.7,2.5-3.7,3.8.1,17.5-3,15.4,13.8,15.5.3,0,.7,0,1,.1h0Z"/>
  <path class="st1" d="M304.1,129.15v-27.6c11,0,21.4-.3,31.8.1,5.2.2,6.4,2.8,6.3,10.3-.1,5.9-1.6,8.2-6.7,8.5-6.8.4-13.6.2-20.5.2h-7v8.3l-3.9.2h0ZM308.3,116.45c9,0,17.7.1,26.5,0,3.8-.1,3.2-3.1,3.2-5.6s.2-5.1-3.1-5.2c-8.8-.1-17.6-.1-26.6-.1v10.9Z"/>
  <path class="st1" d="M278.1,129.15v-23c-5,3.6-9.1,6.3-12.9,9.4-2.3,1.9-4.1,2-6.5,0-3.8-3.1-7.9-5.7-12.6-9.1v22.7h-5v-29.1c3.8,1.8,6.3,2.7,8.5,4,4.2,2.6,8.3,7.4,12.5,7.5,3.9.1,7.9-4.9,12-7.4,2.2-1.4,4.7-2.3,8-4v29h-4Z"/>
  <path class="st1" d="M127.1,129.15c-3.8-2-5.2-5.2-5-9.5.2-3.6,0-7.3.1-11,.1-4.4,2.4-7,6.7-7.1,8.5-.2,17-.2,25.4.1,4.1.2,5.1,1.6,5.8,6.1-1,.1-2.2.7-2.8.3-8.6-5.4-18-1.9-27.1-2.3-1.2-.1-2.5,2.3-3.7,3.6-.2.2-.1.6-.1,1,.1,17-1.9,14.6,13.9,14.8,2.8,0,5.7.3,8.5-.1,2.6-.4,5.1-1.6,7.7-2.3,1.1-.3,2.4-.3,3.6-.4l.9,1.3c-1.6,1.8-3.2,3.7-4.8,5.5h-29.1Z"/>
  <path class="st1" d="M520.1,129.15v-23.6c-4.8,0-9.3.1-13.7-.1-1.1-.1-2.1-1.3-3.2-2,1-.7,2.1-2,3.1-2,10.8-.2,21.6-.1,32.4,0,1,0,1.9,1.2,2.8,1.8-1,.8-1.9,2.1-3,2.2-4.5.2-8.9.1-14.6.1v23.6h-3.8Z"/>
  <path class="st1" d="M481.1,129.15c-.1-8.3-.2-16.6-.1-24.8,0-1,1.5-1.9,2.2-2.9.6.9,1.7,1.9,1.8,2.8.1,8.3.1,16.6.1,24.9h-4Z"/>
  <path class="st1" d="M358,24.25c1.1-.2,1.5-.3,1.8-.3,9.7-.4,17,3.6,22,11.9,6,10.1,12.1,20.2,18.6,31.1,3.2-5.4,6.2-10.1,8.8-15,.5-1.1,0-3.1-.8-4.3-4.6-7.7-9.4-15.2-14.7-23.7,5.7,0,10.6-.3,15.5.2,1.3.1,2.8,2.1,3.6,3.5,7.8,12.8,15.4,25.6,23.5,39,1.1-1.5,1.9-2.6,2.6-3.8,7-11.6,14-23,20.8-34.7,1.8-3.1,3.7-4.7,7.4-4.3,3.6.3,7.3.1,11.6.1-.8,1.6-1.2,2.8-1.9,3.8-10.6,16.9-21.3,33.8-32,50.7-3.3,5.2-13.4,5.3-16.7.1-3-4.6-6-9.2-9-13.8-.1-.1-.3-.2-1.1-.8-3.1,4.8-6.2,9.6-9.3,14.3-3.6,5.5-13.5,5.5-17,0-10.6-16.7-21.2-33.5-31.8-50.2-.4-1.2-1-2.3-1.9-3.8h0Z"/>
  <path class="st1" d="M548.4,63.25h-51.9c-.7,6.1-.1,7,5.4,7.1,13.5.1,27,0,40.4,0h5.6v11c-1.3.1-2.4.4-3.6.4-15,0-30,.1-44.9,0-11.8-.1-16.4-4.5-16.9-16.2-.3-6-.1-12,.5-17.9.6-6.4,4.3-10.2,10.7-11.5,1.6-.3,3.3-.6,4.9-.6,11.3,0,22.6-.2,33.9,0,10.6.2,15.5,5.1,15.8,15.7.2,3.6.1,7.5.1,12h0ZM496.4,53.55h38.3c1.1-4.9-.6-6.8-5.3-6.8-9.3.2-18.6.1-27.9,0-4.7-.1-6.3,2-5.1,6.8h0Z"/>
  <path class="st1" d="M563.4,81.65v-11.3h48c2.4,0,4.9.2,4.9-3.4,0-3.4-2.4-3.5-4.8-3.5-11.5,0-23,.1-34.5,0-9.6-.1-13.2-3-13.7-10.7-.7-11.1,2.4-15.6,12.3-16.8,5.4-.7,11-.4,16.5-.5h36.8v11.2c-1.6.1-3.4.2-5.2.2-14,0-28,0-42,.1-1.5,0-3.4.3-4.5,1.2-.7.5-.9,2.8-.3,3.6.7,1,2.4,1.7,3.7,1.7,9.7.1,19.3.1,29,.1h4c16.8-.1,16.5,6.5,15.6,18.6-.4,5.1-4.6,8.6-11,9.1-6.8.6-13.6.5-20.5.5-11.4-.1-22.7-.1-34.3-.1h0Z"/>
  <path class="st1" d="M129.2,81.35c-6.7,0-13.3.4-19.9-.1-7.4-.5-11.6-4.6-12.3-12-.6-6.1-.7-12.3-.4-18.4.4-10.5,5.5-15.3,16.2-15.4,11.2-.2,22.3-.1,33.4,0,1.6,0,3.3.2,4.9.5,6.6,1.3,10.6,5.5,11,12.3s.4,13.7,0,20.5c-.4,7.3-5,12-12.4,12.5-6.8.5-13.7.1-20.5.1h0ZM129.1,69.35c4.8,0,9.6-.1,14.4,0,3.3.1,4.9-1.4,4.8-4.8-.1-4-.2-8,0-11.9.1-3.4-1.3-4.9-4.7-4.9h-28.4c-3.7,0-5,1.9-5,5.3.1,3.7.1,7.3,0,11s1.5,5.5,5.4,5.4c4.5-.2,9-.1,13.5-.1h0Z"/>
  <path class="st1" d="M242.8,36.05v11.7h-5.6c-13.3,0-26.6.1-39.9-.1-4.5-.1-6.4,1.7-6.1,6.2.2,3.2.2,6.3,0,9.5-.3,4.6,1.9,6.1,6.3,6.1,13.1-.2,26.3-.1,39.4-.1h5.8v12c-1.4.1-2.8.3-4.2.3-14.5,0-29,.1-43.4,0-13.1-.1-17.7-4.8-17.7-17.9,0-5.3-.1-10.7.5-15.9.8-7.2,4.7-11,11.9-11.9,4.4-.6,9-.4,13.4-.4,12.8,0,25.6.1,38.4.1.3-.1.6.1,1.2.4h0Z"/>
  <path class="st1" d="M647.1,24.05h13.8v11h20v12.3h-19.7c0,6.6-.3,12.7.2,18.8.1,1.2,3.3,2.9,5.2,3,8.3.3,16.6.1,24.9.2,1.6,0,3.2.2,5.1.2v11.6c-1.1.2-2.4.5-3.6.5-9.7,0-19.3.1-28.9,0-12.2-.2-16.9-4.9-17-17.1V24.05Z"/>
  <path class="st1" d="M329.5,23.35c-11.2,9.8-22.3,19.7-34,30,10.8,9.1,21.2,18,32.7,27.7-7.8,0-14.2.1-20.6-.1-1,0-2.1-.9-2.9-1.6-9.7-8.4-19.3-16.8-29.4-25.6,2.2-2.1,4.3-4.2,6.5-6.1,8-7.3,16-14.5,23.9-22,2.6-2.5,5.3-3.5,8.9-3.3,4.8.2,9.6.1,14.5.1,0,.2.2.6.4.9h0Z"/>
  <path class="st1" d="M272.8,81.35h-13.3V16.55h13.3v64.8Z"/>
  <path class="st0" d="M15,49.65v-13h28.5c5.8,0,11.6.2,17.4,0,5.5-.2,5.5,3.2,5.5,7.2s-.8,6.3-5.4,6.3c-14.5-.2-28.9-.1-43.4-.1-.7-.1-1.5-.3-2.6-.4h0Z"/>
  <path class="st0" d="M380.7,125.05c-3.2,0-6.3-.1-9.5,0-3.6.1-5.5-1.3-5.4-5.3.4-15.9-2.6-14.4,14.2-14.5,3.8,0,7.6.1,11.5.2,2.9.1,4.2,1.5,4.1,4.4-.1,3.5-.1,7,0,10.5s-1.7,4.7-4.9,4.7c-3.3,0-6.7,0-10,0h0Z"/>
  <path class="st0" d="M201,125.15h-1c-16.7-.2-13.7,1.9-13.8-15.5,0-1.3,2.4-3.8,3.7-3.8,7.3-.4,14.6-.2,21.9-.2,2.9,0,4.1,1.7,4.2,4.4v.5c0,17.1,1.8,14.3-15,14.6h0Z"/>
  <path class="st0" d="M308.3,116.45v-10.8c9,0,17.8-.1,26.6.1,3.4.1,3.2,2.8,3.1,5.2,0,2.4.6,5.5-3.2,5.6-8.7,0-17.5-.1-26.5-.1Z"/>
  <path class="st0" d="M496.4,53.55c-1.2-4.8.4-6.8,5.1-6.8,9.3.1,18.6.2,27.9,0,4.7-.1,6.4,1.9,5.3,6.8h-38.3Z"/>
  <path class="st0" d="M129.1,69.35c-4.5,0-9-.1-13.4,0-3.8.1-5.4-1.7-5.4-5.4.1-3.7.1-7.3,0-11,0-3.4,1.3-5.3,5-5.3,9.5.1,18.9.1,28.4,0,3.3,0,4.8,1.4,4.7,4.9-.2,4-.1,8,0,11.9.1,3.4-1.4,4.8-4.8,4.8-4.9,0-9.7.1-14.5.1h0Z"/>
</svg>