<?xml version="1.0" encoding="UTF-8"?>
<svg id="Layer_1" xmlns="http://www.w3.org/2000/svg" version="1.1" viewBox="0 0 473.7 75.4">
  <!-- Generator: Adobe Illustrator 29.1.0, SVG Export Plug-In . SVG Version: 2.1.0 Build 142)  -->
  <defs>
    <style>
      .st0 {
        fill: #fff;
        fill-rule: evenodd;
      }
    </style>
  </defs>
  <g id="Ebene_1">
    <path class="st0" d="M451.2,5.2v13.1c-6.8-2.6-12.8-3.8-18.1-3.8s-5.6.6-7.5,1.7c-1.9,1.1-2.8,2.5-2.8,4.2s2.1,4.1,6.4,5.9l12.3,6c9.9,4.7,14.9,11,14.9,18.9s-2.6,11.8-7.9,15.7c-5.2,3.9-12.3,5.9-21.1,5.9s-7.7-.2-10.9-.5c-3.2-.3-6.9-1.1-11.1-2.1v-13.7c7.5,2.6,14.4,3.8,20.6,3.8s11.1-2.1,11.1-6.5-1.5-3.9-4.6-5.2l-13.6-5.8c-5-2.3-8.8-5-11.2-8.3-2.4-3.3-3.6-7.1-3.6-11.4s2.5-10.9,7.6-14.6c5.1-3.7,11.8-5.5,20.2-5.5s5.9.2,9.3.7c3.5.5,6.9,1,10.1,1.8h0Z"/>
    <path class="st0" d="M64.6,5.2v13.1c-6.8-2.6-12.8-3.8-18.1-3.8s-5.6.6-7.5,1.7c-1.9,1.1-2.8,2.5-2.8,4.2s2.1,4.1,6.4,5.9l12.3,6c9.9,4.7,14.8,11,14.8,18.9s-2.6,11.8-7.9,15.7c-5.3,3.9-12.3,5.9-21.1,5.9s-7.7-.2-10.9-.5c-3.2-.3-6.9-1.1-11.1-2.1v-13.7c7.6,2.6,14.5,3.8,20.6,3.8s11.1-2.1,11.1-6.5-1.5-3.9-4.5-5.2l-13.6-5.8c-5.1-2.3-8.8-5-11.2-8.3-2.4-3.3-3.6-7.1-3.6-11.4,0-6.1,2.5-10.9,7.6-14.6,5-3.7,11.8-5.5,20.2-5.5s5.8.2,9.4.7c3.5.5,6.8,1,10.1,1.8h0Z"/>
    <polygon class="st0" points="78.7 4 98.7 4 98.7 71.4 78.7 71.4 78.7 4"/>
    <polygon class="st0" points="163.2 4 163.2 16.4 133.5 16.4 133.5 31.4 159.2 31.4 159.2 42.6 133.5 42.6 133.5 58.3 163.8 58.3 163.8 71.4 114.2 71.4 114.2 4 163.2 4"/>
    <polygon class="st0" points="256.6 4 256.6 71.4 237.9 71.4 237.9 26.9 218.6 72 207 72 188.4 26.9 188.4 71.4 174.9 71.4 174.9 4 199.3 4 216 45.2 233.4 4 256.6 4"/>
    <polygon class="st0" points="321.1 4 321.1 16.4 291.5 16.4 291.5 31.4 317.3 31.4 317.3 42.6 291.5 42.6 291.5 58.3 321.7 58.3 321.7 71.4 272.1 71.4 272.1 4 321.1 4"/>
    <polygon class="st0" points="391.3 4 391.3 71.4 370.1 71.4 346.2 28.2 346.2 71.4 332.7 71.4 332.7 4 354.6 4 377.8 46.5 377.8 4 391.3 4"/>
  </g>
</svg>