<?xml version="1.0" encoding="UTF-8"?>
<svg id="Layer_1" xmlns="http://www.w3.org/2000/svg" xmlns:xlink="http://www.w3.org/1999/xlink" version="1.1" viewBox="0 0 481.55 140.2">
  <!-- Generator: Adobe Illustrator 29.1.0, SVG Export Plug-In . SVG Version: 2.1.0 Build 142)  -->
  <defs>
    <style>
      .st0 {
        fill: none;
      }

      .st1, .st2 {
        fill: #fff;
      }

      .st2 {
        stroke: #fff;
        stroke-miterlimit: 10;
      }

      .st3 {
        clip-path: url(#clippath);
      }
    </style>
    <clipPath id="clippath">
      <rect class="st0" x=".5" y=".5" width="480.5" height="139.2"/>
    </clipPath>
  </defs>
  <g class="st3">
    <g>
      <path class="st1" d="M453.7.5c16.4,0,30.6,10.9,26.7,33.8l-12.3,76.8c-2.3,17.1-8.7,28.6-32.3,28.6H27.8C6.4,138.2-.8,123.5.7,110.4c1.5-13.2,13-89,13-89C16.7,6,25.4.5,41.1.5M28.1,131h404.8c22.9-.8,23.3-8.3,25.6-23l12.8-76c2.1-16.9-5.5-22.5-21.3-22.8H40.7c-7.7.2-16.1,1.8-18,13.1l-13,87.3c-1.5,12,2.2,20.7,19.2,21.4h-.8Z"/>
      <path class="st2" d="M53.1,85.9l-1.3,6.8c-1,5.5-.4,10.3,6,10.3,4.7,0,7.7-4.7,8.6-9.5,1.5-8-3.9-11.1-8.5-14.7-5.4-3.9-10-7.6-12.9-12.5s-3.8-10.7-2.2-19.1c3.4-18,14.9-27.1,30.5-27.1,17.5,0,24,13,19.6,30.9h-18.6c.9-5.6,2.5-13.2-4-13.8-4-.4-6.9,2.2-8.2,6.4-1.7,5.7.4,8.6,3.8,11.7,6.6,5.4,12.4,8.6,16.2,13.5s5.4,11.2,3.2,22.7c-3.5,18.3-14.6,28.5-31.3,28.5-18.4,0-24-11.4-21.6-24l1.9-10.1h18.8Z"/>
    </g>
  </g>
  <polygon class="st2" points="85.7 117.8 103.9 22.3 124 22.3 105.8 117.8 85.7 117.8"/>
  <polygon class="st2" points="113.3 117.8 131.5 22.3 159.9 22.3 159.6 78.7 159.8 78.7 181.3 22.3 209.5 22.3 191.3 117.8 172 117.8 188.4 43 188.2 43 159.6 117.8 144.7 117.8 145.1 43 144.8 43 132.4 117.8 113.3 117.8"/>
  <g>
    <path class="st2" d="M229.4,63.5c3.8-.1,8.1.4,11.9-2.4,2.4-2.7,3.9-6.1,4.4-9.7.7-3.7,1.4-9.3-1.7-11.1-2.5-.7-5.1-1-7.8-.8h-2.2l-4.6,24ZM198.8,117.8l18.2-95.5h23.9c7.8,0,18.9.8,23.1,7.9,3.6,5.9,3.1,13,1.7,20.8-2,10.3-6.4,21.9-16.4,26.6-7.7,3.8-15.6,2.7-23.3,3.1l-7.1,37.2-20.1-.1Z"/>
    <path class="st2" d="M280.2,85.9l-1.3,6.8c-1,5.5-.4,10.3,6,10.3,4.7,0,7.7-4.7,8.6-9.5,1.5-8-3.8-11.1-8.5-14.7-5.4-3.9-10-7.6-12.9-12.5s-3.8-10.7-2.2-19.1c3.4-18,14.9-27.1,30.5-27.1,17.5,0,24,13,19.6,30.9h-18.5c.9-5.6,2.5-13.2-4-13.8-4-.4-6.9,2.2-8.2,6.4-1.7,5.7.4,8.6,3.8,11.7,6.5,5.4,12.4,8.6,16.2,13.5,3.8,4.9,5.3,11.2,3.1,22.8-3.5,18.2-14.6,28.4-31.2,28.4-18.4,0-24-11.4-21.6-24l1.9-10.1h18.7Z"/>
    <path class="st2" d="M360.1,50.1c1.1-5.9,2-12.9-4.7-12.9s-8.6,7-9.7,12.9l-7.5,39.2c-1,5.5-1.8,13.6,4.7,13.6s8.5-8.1,9.6-13.6l7.6-39.2ZM373.1,87.4c-4.1,21.5-13,32.7-33.4,32.7s-25.4-11.2-21.2-32.7l7.4-38.9c3.5-18.3,15.2-28.5,33-28.5s25.2,10.1,21.7,28.5l-7.5,38.9Z"/>
  </g>
  <polygon class="st2" points="401.6 64.4 401.3 64.6 393 117.8 373.8 117.8 392.1 22.3 412.8 22.3 418.2 75.7 418.5 75.7 426.8 22.3 445.9 22.3 427.7 117.8 407.1 117.8 401.6 64.4"/>
</svg>