<?xml version="1.0" encoding="UTF-8"?>
<svg id="svg1877" xmlns="http://www.w3.org/2000/svg" xmlns:svg="http://www.w3.org/2000/svg" version="1.1" viewBox="0 0 744.1 202">
  <!-- Generator: Adobe Illustrator 29.1.0, SVG Export Plug-In . SVG Version: 2.1.0 Build 142)  -->
  <defs>
    <style>
      .st0 {
        fill: #fff;
      }
    </style>
  </defs>
  <g id="g1892">
    <path id="path1890" class="st0" d="M44.44,101.36c-3.21,0-5.88-3.21-5.88-6.55V23.59c0-2.67,2.67-5.88,5.88-5.88h154.73c2.67,0,5.88,3.21,5.88,5.88v29.4c0,3.21-3.21,6.55-5.88,6.55h-50.24c-3.21,0-6.55-3.21-6.55-6.55v-10.42c0-2-2-3.88-3.88-3.88h-33.27c-2,0-4.54,2-4.54,3.88v33.27c0,2,2.67,4.54,4.54,4.54h114.25c4.54,0,6.55,2,6.55,5.88v92.07c0,3.21-3.21,5.88-6.55,5.88H23.6c-3.21,0-5.88-2.67-5.88-5.88v-50.24c0-3.21,2.67-5.88,5.88-5.88h50.24c3.21,0,5.88,2.67,5.88,5.88v31.4c0,2,2.67,3.88,4.54,3.88h75.1c2,0,3.88-2,3.88-3.88v-54.25c0-2-2-3.88-3.88-3.88H44.44Z"/>
    <path id="path1888" class="st0" d="M267.86,84.39v33.27c0,2-2,3.21-4.54,4.54-3.88.67-5.88,2.67-5.88,5.88v50.24c0,3.21,2.67,5.88,5.88,5.88h60.8c3.21,0,5.88-2.67,5.88-5.88v-55.45c0-.67,1.34-1.34,2-.67l59.46,60.8c1.34,1.34,2,1.34,3.88,1.34h74.43c3.21,0,6.55-2.67,6.55-5.88v-50.24c0-3.21-3.21-5.88-6.55-5.88h-54.25c-1.34,0-2,0-2.67-1.34l-40.49-39.82c0-.67-.67-.67,0-1.34l19.64-19.64c.67-.67,1.34-.67,2.67-.67h54.92c2.67,0,5.88-3.21,5.88-6.55v-29.4c0-2.67-3.21-5.88-5.88-5.88h-54.25c-2,0-2.67.67-3.88,2l-58.79,60.13c-1.34.67-2.67.67-2.67-.67V23.72c0-2.67-2.67-5.88-5.88-5.88h-60.8c-3.21,0-5.88,3.21-5.88,5.88v50.24c0,3.21,2,5.21,5.21,5.88,3.87,1.2,5.21,2.54,5.21,4.54h0Z"/>
    <path id="path6" class="st0" d="M507.58,178.33c0,3.21,3.21,5.88,6.55,5.88h60.13c3.21,0,6.55-2.67,6.55-5.88v-49.57c0-3.21-2-5.88-5.88-6.55-3.21-1.34-4.54-2-4.54-4.54v-12.43c0-2,2-3.88,3.88-3.88h22.85c2.67,0,4.54,2,4.54,3.88,0,3.21,3.21,6.55,5.88,6.55h50.24c3.21,0,6.55-3.21,6.55-6.55v-29.4c0-3.21-3.21-5.88-6.55-5.88h-50.24c-2.67,0-5.88,2.67-5.88,5.88,0,2-2,4.54-4.54,4.54h-22.85c-2,0-3.88-2.67-3.88-4.54v-33.27c0-2,2-3.88,3.88-3.88h64.67c2,0,4.54,2,4.54,3.88v10.42c0,3.21,2.67,6.55,5.88,6.55h71.22c3.21,0,5.88-3.21,5.88-6.55v-29.4c0-2.67-2.67-5.88-5.88-5.88h-206.45c-3.21,0-6.55,3.21-6.55,5.88v50.24c0,3.21,2.67,5.21,5.88,5.88,2.67.67,4.54,2.67,4.54,4.54v33.27c0,2-1.34,3.88-4.54,4.54-3.88.67-5.88,2.67-5.88,5.88v50.38h0Z"/>
  </g>
</svg>