<?xml version="1.0" encoding="UTF-8"?>
<svg id="Layer_1" xmlns="http://www.w3.org/2000/svg" version="1.1" viewBox="0 0 341.99 130.85">
  <!-- Generator: Adobe Illustrator 29.1.0, SVG Export Plug-In . SVG Version: 2.1.0 Build 142)  -->
  <defs>
    <style>
      .st0 {
        fill: #fff;
      }
    </style>
  </defs>
  <path class="st0" d="M143.49,125.05c-.03.1-.06.23-.11.39-.04.12-.68,2.17-2.32,3.52-2.16,1.78-4.71,1.55-7.44,1.3-.82-.07-1.53-.21-2.21-.7-.22-.16-1.06-.81-1.53-2.49-.45-1.58-.23-2.83.19-5.14.51-2.75.89-4.75,1.07-5.73,1.51,0,3.02.01,4.54.02-.81,4.75-1.38,8.22-1.46,8.78,0,.06-.04.26,0,.52.02.22.05.65.33.94.13.13.34.29.86.36.16.02,2.19.27,3.22-1.08.32-.42.42-.83.46-.98.6-2.48,1.57-8.35,1.65-8.79l4.13.03c-.34,2.96-.87,7.1-1.37,9.04h0Z"/>
  <path class="st0" d="M68.38,129.94c.79-4.63,1.58-9.26,2.37-13.89,3.72.04,7.45.08,11.17.12-.17.94-.35,1.88-.52,2.81l-7.08-.12c-.12.38-.23.79-.32,1.25-.09.42-.15.81-.19,1.18,2.23.08,4.46.15,6.7.23-.16.81-.32,1.61-.49,2.42-2.17-.01-4.34-.02-6.5-.04-.22.97-.44,1.94-.66,2.9,2.47.01,4.95.02,7.42.04-.23,1-.46,2-.7,3-3.73.04-7.47.08-11.2.11h0Z"/>
  <path class="st0" d="M186.11,117.91c2.34-2.01,6.04-3.28,8.8-1.93.46.22,2.26,1.1,2.92,2.95.1.26.15.49.18.65-1.29.43-2.59.87-3.88,1.3-.11-.22-.88-1.66-2.28-1.86-1.95-.27-3.26,2.13-3.46,2.5-.65,1.19-1.29,3.47-.06,4.69.83.83,2.1.77,2.22.77.94-.05,1.57-.54,1.81-.72.85-.67,1.13-1.55,1.21-1.86l3.52,1.24c-.05.14-.13.35-.24.59-.11.23-1.18,2.47-3.41,3.69-2.25,1.22-6.07,1.52-8.4-.85-2.66-2.7-1.42-6.86-1.26-7.39.56-1.87,1.64-3.14,2.36-3.77h-.03Z"/>
  <path class="st0" d="M33.52,130.08c.58-3.58,1.16-7.15,1.75-10.73-1.38-.02-2.75-.03-4.13-.05.23-1.09.45-2.19.68-3.28h13.14c-.26,1.1-.51,2.19-.77,3.29-1.41.05-2.82.09-4.24.14-.61,3.52-1.21,7.05-1.82,10.57-1.54.02-3.07.04-4.61.06Z"/>
  <path class="st0" d="M64.7,123.33c.91-.61,1.44-1.28,1.57-1.45.38-.5.79-1.03.97-1.87,0,0,.23-1.09-.23-2.25-.68-1.71-5.59-2.38-12-1.55-.84,4.57-1.69,9.14-2.53,13.71h4.33c.42-1.98.85-3.95,1.27-5.93.25.13.62.34.98.69.77.75.94,1.54,1.47,2.87.22.56.56,1.34,1.05,2.27,1.68,0,3.36.02,5.04.02-.21-1.24-.62-2.81-1.47-4.48-.32-.64-.67-1.21-1.01-1.71.15-.08.35-.19.58-.35l-.02.03ZM61.55,121.38c-.92.64-2.1.35-2.46.26-.26-.06-.48-.15-.63-.22.06-.34.13-.68.19-1.02l.3-1.47c.33-.11.83-.22,1.43-.19.35.02,1.83.1,2.09.91.2.63-.43,1.39-.92,1.73Z"/>
  <path class="st0" d="M174.16,117.76c-.96-1.23-2.31-1.58-3.38-1.86-.63-.16-3.64-.94-6.51.77-1.13.67-1.79,1.47-2.22,1.98-.55.67-1.94,2.41-2.15,5.01-.07.86-.19,2.41.74,4,.87,1.5,2.18,2.17,2.69,2.42,2.94,1.46,5.93.24,6.46.03.49-.2,2.1-.92,3.46-2.6,2.14-2.66,1.97-5.67,1.91-6.49-.08-1.04-.16-2.19-.98-3.25h-.02ZM169.18,126.25c-1,.68-2.77,1.22-3.9.4-1.54-1.12-1.13-4.19.25-5.89.1-.13,1.79-2.16,3.57-1.6,1.3.41,1.75,1.95,1.84,2.26.5,1.69-.17,3.77-1.75,4.84h-.01Z"/>
  <path class="st0" d="M102.75,126.27c.45-.61.91-1.23,1.36-1.84-.66-.42-1.32-.85-1.98-1.27l-1.55,1.21c-.09-.08-.22-.2-.38-.35-.29-.28-.5-.51-.74-.77-.12-.13-.29-.32-.48-.53.42-.19,2.59-1.2,3.12-3.38.1-.41.42-1.73-.32-2.61-.43-.51-.99-.65-1.78-.83-1.01-.23-3.25-.73-5.12.6-.87.62-1.3,1.37-1.43,1.6-.22.4-.59,1.11-.55,2.09.04.94.43,1.62.63,1.92-.62.23-1.76.76-2.7,1.91-.39.48-1.88,2.3-1.26,4.09.43,1.24,1.62,1.82,2.24,2.12,2.41,1.17,4.92.27,5.84-.06,1.23-.44,2.13-1.04,2.69-1.48.55.47,1.1.94,1.66,1.41.82-.7,1.64-1.4,2.46-2.1l-1.73-1.75.02.02ZM96.32,127.73c-.34.09-.63.09-.79.08-.25-.01-.81-.04-1.31-.44-.18-.14-.61-.47-.64-.99,0-.12,0-.35.2-.72.43-.78,1.19-1.17,1.6-1.35.54.59,1.11,1.19,1.71,1.79.23.23.47.46.7.69-.22.25-.7.73-1.46.92v.02ZM97.46,120.54c-.1-.08-.23-.21-.36-.39-.12-.16-.36-.51-.38-1-.04-.97.55-1.18,1.33-1.24.28-.02.5.05.66.18.27.22.3.57.31.67.06.61-.58,1.31-1.56,1.78Z"/>
  <path class="st0" d="M123.91,116.03h-4.46c-2.56,4.6-5.12,9.2-7.67,13.79,1.49.08,2.98.16,4.47.24.38-.7.75-1.41,1.13-2.11,1.24.06,2.51.11,3.8.14.38,0,.76.02,1.14.02.13.65.26,1.3.38,1.95,1.55,0,3.11,0,4.66.02-1.15-4.68-2.3-9.37-3.45-14.05ZM121.72,124.31c-.9-.03-1.8-.05-2.7-.08.74-1.31,1.48-2.61,2.22-3.92.16,1.33.32,2.67.48,4Z"/>
  <path class="st0" d="M283.42,119.89c-.24-.97-1.01-1.67-1.87-1.75-.71-.07-1.4.38-1.9.95-.14.16-.2.41-.14.65.13.53.94.68,2.6,1.11,2.44.63,2.93.89,3.34,1.23.2.17.82.69,1.12,1.49.49,1.29-.19,3.45-1.47,4.85-2.3,2.55-6.13,2.4-8.24,1.64-.66-.24-1.74-.64-2.36-1.69-.49-.83-.53-1.77-.54-1.96-.01-.48.05-.87.12-1.14,1.12-.02,2.25-.05,3.37-.07.05.31.19.91.66,1.48.15.18.93,1.11,2.13,1.05.07,0,1.02-.11,1.66-.86.66-.79.33-1.54-.53-2.08-1.26-.8-2.74-.8-4.07-1.38-2.01-.87-2.4-3.3-1.28-5.07.52-.82,1.09-1.32,1.73-1.74,2.41-1.57,5.05-1.07,5.86-.91,1.07.2,1.95.37,2.67,1.15,1,1.07.97,2.5.94,2.92-1.27.04-2.54.09-3.82.13h.02Z"/>
  <path class="st0" d="M48.94,130.07c-1.38-.02-2.76-.05-4.14-.07.85-4.63,1.71-9.25,2.56-13.88l4.08.09c-.83,4.62-1.66,9.24-2.5,13.86h0Z"/>
  <g>
    <g>
      <path class="st0" d="M31.94,4.57c1.03-.47,2.17-.93,2.17-.93,1.81-.6,6.66-2.55,13.47-3.31,1.02-.11,3.97-.42,8.14-.31,0,0,16.68.43,22.02,6.8.17.2.64.77.48,1.27-.14.41-.65.59-.85.66-11.34,3.73-15.28,4.72-15.28,4.72,0,0-10.72,2.7-14.96,9.11-.76,1.15-1.11,2.39-1.11,2.39-.1.35-.59,2.18-.04,4.4.56,2.27,1.91,3.68,3.29,5.13,1.61,1.69,2.01,1.51,4.57,3.99,1.83,1.77,2.4,2.6,2.77,3.59.23.62.87,2.3.15,3.76-.55,1.11-1.63,1.61-2.18,1.86-5.37,2.46-10.6,5.27-16.12,7.4-.4.16-.69.27-1.11.43-3.1,1.19-4.82,1.81-7.07,2.65-2.65.99-2.19.86-4.79,1.84-.9.34-4.01,1.5-8.23,2.95-5.2,1.78-4.3,1.42-5.66,1.89-.79.27-3.51,1.47-6.04,2.31-1.18.39-1.45.42-1.78.35-1.22-.28-1.9-1.74-2.35-2.97C-.53,59.16,0,53.32.29,50.85c.36-3.08.6-4.72,1.23-7.51,1.03-4.55,2.96-12.73,9.07-21.27,0,0,8.19-11.46,21.35-17.5Z"/>
      <path class="st0" d="M97.32,29.14c.29-.12.87-.37,1.47-.17.59.2.98.76,1.35,1.27.33.47.52.87.56.95.46.98,1.49,3.54,2.78,6.95,1.46,4.39,1.46,6.78,1.68,8.91.29,2.76.78,7.7-.06,14.08-.93,7.07-3.02,12.33-4.05,14.69-4.04,9.27-9.8,15.24-12.86,18.07-3.42,3.15-13.83,11.94-29.55,13.88-5.03.62-8.97.17-10.71.17,0,0-14.64-1.4-25.76-10.37-1.96-1.58-4.07-3.57-4.07-3.57-.43-.41-.95-.93-2-1.97-2.93-2.92-4.19-3.94-3.93-4.96.02-.1.11-.38.75-.92,1.6-1.35,3.31-1.48,6.19-2.04.42-.08,1.68-.37,4.2-.95,2.06-.47,3.37-.81,4.81-1.15,8.24-1.96,13.25-3.08,15.29-3.54,4.22-.95,7.28-1.59,11.14-2.4h0c2.05-.39,17.97-3.64,35.73-9.27.58-.19,3.03-.97,5.97-2.59,3.62-1.98,6.64-3.64,7.53-6.82.79-2.81-.47-5.39-.85-6.18-1.23-2.53-3.31-3.92-7.42-6.61,0,0-6.81-4.46-7.94-6.88-.35-.75-.36-1.49-.36-1.49-.01-.89.34-1.55.48-1.83,1.31-2.5,5.81-3.67,9.62-5.27h0Z"/>
      <path class="st0" d="M68.29,18.2c.45-.24.79-.39,1.02-.5,0,0,10.6-4.97,14.25-5.49.5-.07.87-.03,1.11.02.37.07.6.19,1.61.79.88.52,1.33.79,1.89,1.17.26.18.67.44,1.06.75,1.01.79,2.12,1.79,3.04,3.24.41.65.71,1.22.53,1.74s-.75.76-.98.86c-6.04,2.46-10.92,3.89-10.92,3.89-5.83,1.71-8.07,3.86-9.01,5.07-.47.6-1.51,1.93-1.25,3.5.1.62.37,1.25.85,1.82,1.53,1.84,2.96,3.24,4.16,4.12.73.54.89.59,2.52,1.77.15.1,1.26.92,1.75,1.28,1.99,1.46,3.79,3.07,4.3,5.67.34,1.7-.88,3.1-1.47,3.88-1.37,1.85-3.05,2.54-5.66,3.69-6.61,2.9-4.91,2.41-10.32,4.67-3.96,1.65-5.95,2.36-6.93,2.7-1.3.45-2.63.89-4.1,1.37-2.57.84-4.48,1.43-4.91,1.57-6.23,1.94-9.64,3.35-16.96,5.61-6.58,2.03-8.96,2.48-13.4,4.05-1.8.64-3.61,1.25-5.42,1.86-1.51.5-3.02,1-4.54,1.46-1.32.4-2.75.66-3.87-.32-.65-.56-1.01-1.19-1.27-1.79-.32-.72-1.03-2.34-.45-3.53.65-1.32,2.4-1.05,8.93-2.86.25-.07.49-.14.99-.28,1.86-.53,4.87-1.41,10.81-3.32,3.02-.97,2.57-.85,4.64-1.5,3.28-1.04,4.76-1.46,6.67-2.05,3.19-.99,4.59-1.54,8.62-2.95,5.74-2.01,14.02-4.79,19.18-7.8.68-.4,2.65-1.59,3.84-3.79.72-1.34.85-2.47.87-2.79.03-.35.15-1.34-.26-2.55-1.1-3.26-3.51-5.54-5.7-8.01-1.24-1.39-2.51-2.79-3.22-4.59-.71-1.81-.94-3.23-.64-4.52.36-1.51,1.41-2.53,2.59-3.73.79-.8,1.53-1.38,2.06-1.75h0s.04-.02.06-.04c0,0,2-1.38,3.9-2.39h.03Z"/>
    </g>
    <g>
      <path class="st0" d="M133.68,70.52c.43.49,1.52,1.74,2.01,3.71.39,1.57.29,3.25-.26,5.09-.46,1.55-1.11,2.94-1.96,4.19-.25.36-1.41,2.04-3.4,3.56-3.69,2.82-7.79,3.25-10.64,3.56-2.07.22-5.85.58-9.99-.92-2.22-.81-3.31-1.7-3.93-2.31-1.54-1.51-2.11-3.16-2.51-4.29,0,0-.44-1.52-.42-3.84,0-.43.13-.77.37-.97.25-.21.57-.22.67-.22.74-.02,4.4-.23,9.44-.52.03.66.16,1.86.84,3.14.26.48,1.04,1.93,2.54,2.69,2.72,1.36,6.81-.06,7.79-2.5.2-.5.56-1.75.03-2.99-.13-.29-.37-.74-.87-1.21-1.49-1.39-3.78-1.56-5.68-1.91-4.65-.86-7.4-2.87-7.92-3.27-1.5-1.13-2.18-2.11-2.59-2.96-.47-.97-.71-2.05-.73-3.24-.04-2.96,1.44-5.18,2.13-6.17,2.94-4.24,7.52-5.54,9.19-6.01,2.52-.71,4.71-.77,6.15-.7-1.05-1.2-2.03-2.41-2.64-3.93-.7-1.73-.55-3.5-.61-5.26-.02-.44.34-.69.78-.69,2.79,0,5.52-.75,8.32-.74.49,0,.89.03,1.11.27.26.28.2.71.19.91-.09,1.2.65,2.37,1.01,2.94,1.4,2.21,4.91,2.13,5.15,2.12.93-.03,1.65-.26,1.97-.38.86-.32,1.64-.83,2.36-1.55,1.55-1.54,1.1-4.48-.78-5.32-1.93-.86-3.97-1.19-5.93-1.82-1.85-.59-3.8-.99-5.5-2.11-.97-.63-2.06-1.07-2.86-1.95-1.8-1.96-2.81-4.95-1.77-7.88.71-2,1.57-3.43,2.18-4.2,1.33-1.66,2.78-2.57,3.71-3.15.51-.31,1.75-1.04,3.52-1.63,2.7-.9,4.89-.91,7.37-.9,3.52,0,5.27.02,7.37.89,1.16.48,3.56,1.48,5.02,3.99.32.56.92,2.54,1.07,5,.02.31.03.63-.22.88-.13.07-.27.15-.4.22-4.54.31-7.88.46-8.74.44-.26,0-.71-.04-1.01-.36-.19-.2-.24-.42-.3-.69-.09-.38-.34-1.4-.65-1.96-.29-.53-.71-.8-1.16-1.08-1.54-.98-3.26-.71-3.88-.66-1.28.11-2.25.84-3.11,1.7-.92.92-.6,2.92.58,3.41.61.25.88.5,3.25,1.03,0,0,.95.21,3.03.7,1.89.45,3.12.73,4.6,1.3,1.64.63,2.9,1.13,4.18,2.32.4.37,1.23,1.15,1.88,2.43,1.21,2.37.83,4.65.73,5.71-.1,1.17-.63,2.34-1.13,3.45-1.02,2.26-2.62,4.07-4.54,5.6-.3.24-1.59,1.22-3.77,2.18-1.88.84-5.15,1.98-9.64,2.05.21.21.42.42.64.62,1.67,1.88,1.82,4.19,1.83,6.53,0,.28-.08.55-.29.76h0c-4.66.34-8.09.54-8.97.55-.2,0-.64,0-1.01-.28-.23-.17-.39-.44-.52-.82-.47-1.48-1.36-2.53-2.49-3.09-1.55-.77-3.45-.47-4.64.18-.45.25-1.68.92-1.95,2.19-.03.12-.15.84.19,1.53.66,1.33,2.5,1.31,5.94,2.05,1.7.37,3.48.75,5.53,1.62,1.76.74,3.32,1.4,4.72,2.99l.02-.02Z"/>
      <path class="st0" d="M236.13,89.65c-.28.51-1.26.46-1.65.44-2.5-.09-5,.1-7.5.12-.16,0-.57,0-.82-.26-.16-.17-.23-.44-.21-.81,0-.17,0-.65.38-2.19,0-.04,0-.05.02-.06.36-1.39.86-5.04,1.29-7.26.31-1.58.62-2.62.87-4.72.12-.99.17-1.81-.31-2.58-.63-1-1.75-1.27-2.01-1.32-1.28-.27-2.3.34-2.75.59-1.27.7-2.06,1.88-2.47,3.26-.31,1.06-.56,1.87-.62,2.31-.23,1.49-1.58,10.91-2.07,12.25-.04.11-.11.27-.26.42-.41.41-1.07.36-1.3.36-2.52.04-5.04.02-7.57,0-.45,0-.74-.07-.91-.25-.29-.32-.19-.85-.16-.99.11-.61,3.81-23.08,4.48-24.71.06-.15.14-.24.2-.28.21-.16.49-.13.76-.13,2.4,0,4.8-.1,7.2,0,.31.01.91.04,1.11.4.12.22.02.65-.17,1.5-.08.37-.2.79,0,1.04,0,0,.11.15.26.21.55.22,1.48-.85,1.65-1.03,1.56-1.73,4.9-2.54,5.73-2.7,1.35-.26,4.91-.95,7.46,1.22,1.48,1.26,1.95,2.92,2.17,3.68.44,1.54.31,2.73-.48,7.5-.17,1.02-.38,2.27-.82,4.76-1.36,7.86-1.48,8.33-1.42,8.76,0,.06.04.27-.07.47h0Z"/>
      <path class="st0" d="M215.15,29.11c-.03-.11-.13-.47.05-.71.13-.17.39-.22.75-.22,2.76,0,5.52.03,8.28,0,.31,0,.51.06.65.17.32.27.35.73.36.92.2,4.6,1.5,9.1,1.84,13.69,0,.14.04.43.25.58.08.05.15.07.21.08h0s.17.04.38-.03c.47-.18,5.76-11.04,5.76-11.04.69-1.42,1.05-1.61,1.48-2.9.14-.44.23-.88.64-1.18.56-.42,1.36-.28,2.12-.28,2.17,0,4.33,0,6.5,0,.37,0,.83-.15,1.03.3,0,0,.05.11.04.24-.03.59-15.03,24.69-15.24,25.07-.02.03-.13.25-.36.38-.1.06-.21.09-.36.1-2.65.25-5.3.03-7.95.09-.15,0-.25-.03-.33-.09-.27-.21-.27-.64-.27-.72-.03-1.22-5.63-23.69-5.83-24.45h0Z"/>
      <path class="st0" d="M174.51,34.84h-1.26s-.74.07-1.4.31c-2.15.78-2.13,8.57-2.02,10.92.02.44.07,1.18.58,1.57.15.11.45.28,2.41.23,1.02-.03,1.33-.09,1.55.14.3.3.14.78.02,1.61-.37,2.52.2,3.38-.54,4.12-.41.42-.95.5-1.35.55-6.05.83-9.08,1.25-11.15-.76-.97-.94-1.34-2-1.54-2.59-1.09-3.24.04-7.58,1.66-13.74.09-.33.31-1.31-.12-1.8-.25-.28-.76-.32-1.71-.32-.69,0-1.03,0-1.19-.17-.25-.26-.2-.67-.13-1.29.16-1.55-.12-.11.25-3.36.11-.99.18-1.49.59-1.78.06-.05.19-.13.65-.22,1.16-.23,2.7-.2,3.15-.18.08,0,.17,0,.27-.04.28-.13.38-.55.45-1.75.06-1.11.02-1.55.27-2.18.1-.25.2-.41.26-.51.37-.54.88-.78,1.06-.87,2.71-1.32,5.61-2.27,8.14-3.91.09-.06.4-.27.58-.16.14.09.13.34.12.48-.15,1.96-1.13,7.75-1.13,7.75-.03.17-.08.54.12.85.21.33.62.52,1.13.52h3.05c.65,0,.8.13.9.25.28.31.1.78-.13,2-.03.18-.12.74-.28,1.86-.22,1.52-.26,2.02-.68,2.29-.13.08-.28.18-.59.17-.67-.02-1.33,0-2,0h0Z"/>
      <path class="st0" d="M204.04,69.37c-.28-1.3-.61-2.62-1.66-3.89-1.94-2.35-5.22-2.42-9.87-2.44-7.91-.04-12.02,2.2-13.47,3.35,0,0-1.45,1.18-2.35,3.4-.19.46-.2.82-.05,1.08.23.39.77.47,1.03.51,1.62.23,2.42.35,6.94.73.1,0,.37.03.67-.09.38-.15.59-.45.67-.56,1.38-2.11,3.45-2.64,5.78-2.56.97.03,1.84.28,2.45,1.14.33.47.44.97.33,1.41-.15.6-.69.94-.9,1.07-2.12,1.32-10.99,2.43-15.31,4.15-.79.31-2,.87-3.08,2.03-.22.24-.99,1.09-1.56,2.46-.38.94-1.25,3.04-.37,5.33.66,1.71,1.96,2.6,2.42,2.93.33.24,1.51.99,3.61,1.21,4.81.52,10.86-2.12,11.85-2.8.1-.07.44-.32.77-.22.26.08.46.32.55.7.1.4.09.83.28,1.22.13.26.27.51.51.62.15.07.28.06.32.06,5.63-.08,6.39-.11,7.91-.17.13,0,.5-.02.62-.24.11-.2-.03-.46-.06-.51-.76-1.58.62-8.79.62-8.79,1.57-8.23,1.73-9.32,1.34-11.13h0ZM192.91,80.52c-.3.65-.44.98-.72,1.4-.31.46-.97,1.46-2.17,2.24-.34.22-2.57,1.04-5,.88-.71-.05-1.32-.6-1.53-1.25-.29-.89-.34-1.88.36-2.66.68-.76,1.31-1.23,2.22-1.65,1.07-.49,2.07-.69,3.87-1.04.76-.15,1.78-.33,2.09-.52.02-.01.26-.16.56-.19h.15c.14.02.29.09.43.21,0,0,.13.12.2.28.29.61-.47,2.29-.47,2.29h.01Z"/>
      <path class="st0" d="M210.61,34.4c-.32-1.35-1.13-2.55-2.03-3.58-1.86-2.12-4.47-3.06-7.1-3.34-3.68-.39-6.64-.15-8.13.21-1.89.46-6.46,1.65-9.92,5.97-.8,1-3.59,4.72-3.59,9.92,0,1.38.02,3.48,1.25,5.72,1.76,3.22,4.75,4.49,5.66,4.86,1.89.77,3.42.81,5.98.87,1.33.03,3.7-.01,6.51-.69,1.1-.26,1.98-.41,3.05-.97,2.52-1.31,4.7-3.07,6.49-5.5-.42-.02-.77-.05-1.02-.07-2.24-.21-6.56-.98-7.59-1.12-.13-.02-.44-.06-.76.09-.22.1-.35.24-.39.28-.55.58-2.26,1.8-3.43,2.17-1.24.39-2.69.1-3.73-.56-1.9-1.21-2.72-3.87-2.02-4.67.18-.21.59-.48,1.02-.54.31-.05.63-.03.94-.03,5.74,0,11.48-.03,17.23-.04.76,0,1.57.06,1.67-1.02.38-2.66.56-5.33-.07-7.97h-.02ZM201.21,37.96c-.04.24-.13.44-.26.59-.35.42-.96.45-1.21.46-2.52.12-5.04,0-7.56.07-.17,0-.63.02-.87-.27-.15-.18-.2-.44-.14-.79.25-1.6,1.17-2.82,2.44-3.73,1.08-.77,2.3-1.12,3.7-1.17,2.57-.09,4.22,2.87,3.91,4.83h-.01Z"/>
      <path class="st0" d="M307.68,72.9c-.07-1.65-.49-3.23-1.32-4.58-1.43-2.33-3.35-3.5-4.16-3.94-1.84-1.01-3.45-1.24-4.86-1.42-1.04-.14-6.74-.79-12.24,2.4-2.79,1.62-4.91,3.82-6.51,6.54-1.75,2.99-2.16,6.27-1.75,9.7.33,2.8,1.78,4.95,3.89,6.67,2.99,2.44,6.46,2.57,8.42,2.66,2.85.13,5.06-.44,5.99-.72.88-.26,5.14-1.6,8.66-5.67.74-.85,1.93-2.25,2.83-4.44.61-1.48,1.2-4.03,1.06-7.19h-.01ZM292.94,83.28c-.48.18-2.2.85-3.76.08-.65-.32-1.03-.74-1.15-.88-.37-.43-.9-1.26-.92-3.01-.04-3.32.56-6.46,3.6-8.42,1.17-.75,2.29-1.11,3.37-.91,1.69.32,2.62,1.81,2.78,2.06,2.11,3.37-.3,9.69-3.91,11.08h0Z"/>
      <path class="st0" d="M270.29,89.5c-.28.51-1.26.46-1.65.44-2.5-.09-5,.1-7.5.12-.16,0-.57,0-.82-.26-.16-.17-.23-.44-.21-.81.01-.17,0-.65.38-2.19.01-.04.01-.05.02-.06.36-1.39.86-5.04,1.29-7.26.31-1.58.62-2.62.87-4.72.12-.99.17-1.81-.31-2.58-.63-1-1.75-1.27-2.01-1.32-1.28-.27-2.3.34-2.75.59-1.27.7-2.06,1.88-2.47,3.26-.31,1.06-.56,1.87-.62,2.31-.23,1.49-1.58,10.91-2.07,12.25-.04.11-.11.27-.26.42-.41.41-1.07.36-1.3.36-2.52.04-5.04.02-7.57,0-.45,0-.74-.07-.91-.25-.29-.32-.19-.85-.16-.99.11-.61,3.81-23.08,4.48-24.71.06-.15.14-.24.2-.28.21-.16.49-.13.76-.13,2.4,0,4.8-.1,7.2,0,.31.01.91.04,1.11.4.12.22.02.65-.17,1.5-.08.37-.2.79,0,1.04,0,0,.11.15.26.21.55.22,1.48-.85,1.65-1.03,1.56-1.73,4.9-2.54,5.73-2.7,1.35-.26,4.91-.95,7.46,1.22,1.48,1.26,1.95,2.92,2.17,3.68.44,1.54.31,2.73-.48,7.5-.17,1.02-.38,2.27-.82,4.76-1.36,7.86-1.48,8.33-1.42,8.76,0,.06.04.27-.07.47h0Z"/>
      <path class="st0" d="M338.96,89.69c-.28.51-1.26.46-1.65.44-2.5-.09-5,.1-7.5.12-.16,0-.57,0-.82-.26-.16-.17-.23-.44-.21-.81.01-.17,0-.65.38-2.19.01-.04.01-.05.02-.06.36-1.39.86-5.04,1.29-7.26.31-1.58.62-2.62.87-4.72.12-.99.17-1.81-.31-2.58-.63-1-1.75-1.27-2.01-1.32-1.28-.27-2.3.34-2.75.59-1.27.7-2.06,1.88-2.47,3.26-.31,1.06-.56,1.87-.62,2.31-.23,1.49-1.58,10.91-2.07,12.25-.04.11-.11.27-.26.42-.41.41-1.07.36-1.3.36-2.52.04-5.04.02-7.57,0-.45,0-.74-.07-.91-.25-.29-.32-.19-.85-.16-.99.11-.61,3.81-23.08,4.48-24.71.06-.15.14-.24.2-.28.21-.16.49-.13.76-.13,2.4,0,4.8-.1,7.2,0,.31.01.91.04,1.11.4.12.22.02.65-.17,1.5-.08.37-.2.79-.01,1.04,0,0,.11.15.26.21.55.22,1.48-.85,1.65-1.03,1.56-1.73,4.9-2.54,5.73-2.7,1.35-.26,4.91-.95,7.46,1.22,1.48,1.26,1.95,2.92,2.17,3.68.44,1.54.31,2.73-.48,7.5-.17,1.02-.38,2.27-.82,4.76-1.36,7.86-1.48,8.33-1.42,8.76,0,.06.04.27-.07.47h0Z"/>
      <path class="st0" d="M167.42,89.67c-.28.51-1.26.46-1.65.44-2.5-.09-5,.1-7.5.12-.16,0-.57,0-.82-.26-.16-.17-.23-.44-.21-.81,0-.17,0-.65.38-2.19,0-.04,0-.05.02-.06.36-1.39.86-5.04,1.29-7.26.31-1.58.62-2.62.87-4.72.12-.99.17-1.81-.31-2.58-.63-1-1.75-1.27-2.01-1.32-1.28-.27-2.3.34-2.75.59-1.27.7-2.06,1.88-2.47,3.26-.31,1.06-.56,1.87-.62,2.31-.23,1.49-1.58,10.91-2.07,12.25-.04.11-.11.27-.26.42-.41.41-1.07.36-1.3.36-2.52.04-5.04.02-7.57,0-.45,0-.74-.07-.91-.25-.28-.31-.19-.81-.16-.99,1.45-8.23,2.72-16.49,4.31-24.7.09-.47.14-.7.17-.88.4-2.2,1.32-8.06,1.55-8.65,0-.02.07-.18.16-.41.06-.18.11-.32.11-.33.21-.64,3.48-.48,3.48-.48,2.83.15,6.2-.24,6.39.26.11.28.09.57.09.57,0,.12-.04.21-.04.23-.12.42-.48,3.23-.59,3.96-.17,1.17-.61,3.25-1.48,7.35,0,.05-.04.17.03.28.1.16.34.18.39.18.18.01.32-.05.46-.11.17-.08.28-.16.43-.28.24-.19.36-.29.54-.47.23-.24,2.19-1.74,5.19-2.23,1.77-.29,5.05-.83,7.46,1.22,1.48,1.26,1.95,2.92,2.17,3.68.44,1.54.31,2.73-.48,7.5-.17,1.02-.38,2.27-.82,4.76-1.36,7.86-1.48,8.33-1.42,8.76,0,.06.04.27-.07.47h.02Z"/>
      <path class="st0" d="M276.26,34.52c-.32-1.35-1.13-2.55-2.03-3.58-1.86-2.12-4.47-3.06-7.1-3.34-3.68-.39-6.64-.15-8.13.21-1.89.46-6.46,1.65-9.92,5.97-.8,1-3.59,4.72-3.59,9.92,0,1.38.02,3.48,1.25,5.72,1.76,3.22,4.75,4.49,5.66,4.86,1.89.77,3.42.81,5.98.87,1.33.03,3.7-.01,6.51-.69,1.1-.26,1.98-.41,3.05-.97,2.52-1.31,4.7-3.07,6.49-5.5-.42-.02-.77-.05-1.02-.07-2.24-.21-6.56-.98-7.59-1.12-.13-.02-.44-.06-.76.09-.22.1-.35.24-.39.28-.55.58-2.26,1.8-3.43,2.17-1.24.39-2.69.1-3.73-.56-1.9-1.21-2.72-3.87-2.02-4.67.18-.21.59-.48,1.02-.54.31-.05.63-.03.94-.03,5.74,0,11.48-.03,17.23-.04.76,0,1.57.06,1.67-1.02.38-2.66.56-5.33-.07-7.97h-.02ZM266.86,38.08c-.04.24-.13.44-.26.59-.35.42-.96.45-1.21.46-2.52.12-5.04,0-7.56.07-.17,0-.63.02-.87-.27-.15-.18-.2-.44-.14-.79.25-1.6,1.17-2.82,2.44-3.73,1.08-.77,2.3-1.12,3.7-1.17,2.57-.09,4.22,2.87,3.91,4.83h-.01Z"/>
    </g>
  </g>
  <path class="st0" d="M270.4,123.51c.91-.61,1.44-1.28,1.57-1.45.38-.5.79-1.03.97-1.87,0,0,.23-1.09-.23-2.25-.68-1.71-5.59-2.38-12-1.55-.84,4.57-1.69,9.14-2.53,13.71h4.33c.42-1.98.85-3.95,1.27-5.93.25.13.62.34.98.69.77.75.94,1.54,1.47,2.87.22.56.56,1.34,1.05,2.27,1.68,0,3.36.02,5.04.02-.21-1.24-.62-2.81-1.47-4.48-.32-.64-.67-1.21-1.01-1.71.15-.08.35-.19.58-.35l-.02.03ZM267.25,121.56c-.92.64-2.1.35-2.46.26-.26-.06-.48-.15-.63-.22.06-.34.13-.68.19-1.02l.3-1.47c.33-.11.83-.22,1.43-.19.35.02,1.83.1,2.09.91.2.63-.43,1.39-.92,1.73h0Z"/>
  <path class="st0" d="M198.63,129.89c.79-4.63,1.58-9.26,2.37-13.89,3.72.04,7.45.08,11.17.12-.17.94-.35,1.88-.52,2.81l-7.08-.12c-.12.38-.23.79-.32,1.25-.09.42-.15.81-.19,1.18,2.23.08,4.46.15,6.7.23-.16.81-.32,1.61-.49,2.42-2.17-.01-4.34-.02-6.5-.04-.22.97-.44,1.94-.66,2.9,2.47.01,4.95.02,7.42.04-.23,1-.46,2-.7,3-3.73.04-7.47.08-11.2.11h0Z"/>
  <path class="st0" d="M244.26,130.15c.79-4.63,1.58-9.26,2.37-13.89,3.72.04,7.45.08,11.17.12-.17.94-.35,1.88-.52,2.81l-7.08-.12c-.12.38-.23.79-.32,1.25-.09.42-.15.81-.19,1.18,2.23.08,4.46.15,6.7.23-.16.81-.32,1.61-.49,2.42-2.17-.01-4.34-.02-6.5-.04-.22.97-.44,1.94-.66,2.9,2.47.01,4.95.02,7.42.04-.23,1-.46,2-.7,3-3.73.04-7.47.08-11.2.11h0Z"/>
  <path class="st0" d="M148.79,130.26c.58-3.58,1.16-7.15,1.75-10.73-1.38-.02-2.75-.03-4.13-.05.23-1.09.45-2.19.68-3.28h13.14c-.26,1.1-.51,2.19-.77,3.29-1.41.05-2.82.09-4.24.14-.61,3.52-1.21,7.05-1.82,10.57-1.54.02-3.07.04-4.61.06h0Z"/>
  <path class="st0" d="M232.83,130.23c.58-3.58,1.16-7.15,1.75-10.73-1.38-.02-2.75-.03-4.13-.05.23-1.09.45-2.19.68-3.28h13.14c-.26,1.1-.51,2.19-.77,3.29-1.41.05-2.82.09-4.24.14-.61,3.52-1.21,7.05-1.82,10.57-1.54.02-3.07.04-4.61.06h0Z"/>
  <path class="st0" d="M217.06,129.92l-4.14-.07c.85-4.63,1.71-9.25,2.56-13.88l4.08.09c1.25,2.43,2.51,4.87,3.76,7.3.56-2.43,1.13-4.85,1.69-7.28h3.89c-.75,4.6-1.49,9.19-2.24,13.79-1.41.03-2.81.07-4.22.1-1.33-2.59-2.66-5.19-3.99-7.78-.46,2.58-.93,5.16-1.39,7.73h0Z"/>
</svg>