<?xml version="1.0" encoding="UTF-8"?>
<svg id="Layer_1" xmlns="http://www.w3.org/2000/svg" version="1.1" viewBox="0 0 150.93 49.53">
  <!-- Generator: Adobe Illustrator 29.1.0, SVG Export Plug-In . SVG Version: 2.1.0 Build 142)  -->
  <defs>
    <style>
      .st0 {
        fill: #fff;
      }
    </style>
  </defs>
  <g id="KQKbs7">
    <g>
      <path class="st0" d="M122.32,44.89c6.52.26,9.77.37,10.92.42,3.68.16,7.36.26,11.05.42,1.5.06,3.01.07,4.53.31-.33.07-.67.18-1.01.2-2.51.1-5.02.16-7.54.26-3.35.13-6.69.23-10.05.43-3.14.19-6.27.28-9.41.42-2.99.13-5.98.35-8.97.43,1.63.29,3.26.3,4.89.34,2.37.05,4.73.09,7.1.23,3.66.21,7.32.28,10.99.42,3.39.12,6.78.36,10.16.38.15,0,.46-.14.17.38H1c-.67,0-1-.54-1-1.62.27-1.12.4-2.31.77-3.38.78-2.19,1.78-3.35,2.02-3.61,1.18-1.3,2.35-1.64,2.95-1.74,1.7-.07,3.42-.12,5.15-.16,3.23-.07,6.42-.08,9.56-.04h.84c0,.14-.02.44.07.78.09.35.24.56.31.64-.19-.02-.45,0-.75,0-.47,0-.87.3-1.18.82-.21.35-.37.76-.38,1.23,0,.12,0,.37.07.61.15.44.51.66.91.61h5.34c.59,0,1.01-.21,1.26-.38,1.04-.71,1.61-2.24,2.07-3.46.15-.4.26-.74.32-.95.27,0,.55,0,.81,0-.63,1.66-1.26,2.86-1.73,3.67-.21.36-.79,1.66-1.54,3.33-.23.52-.48,1.1-.27,1.77.22.65.63.7,1.05.67.38-.02.76-.07,1.13,0,.87.18,1.43-.52,1.89-1.59.12-.28.22-.46.26-.57.24-.58.62-1.41,1.2-2.48.41,0,1.04-.02,1.91,0h.06c1.51.05,3.04.28,4.27-1.72.22,1.65.27,1.72,1.21,1.72.48,0,.97-.04,1.44,0,.61.06,1.03-.4,1.37-1.14.39-.83.59-1.26.79-1.64.08-.15.19-.35.31-.56.24-.4.61-.95,1.18-1.48.79.02,1.58.03,2.37.05-.22.36-.46.77-.7,1.23-.19.36-.35.72-.5,1.05,0,0-.37.74-.35,1.36,0,.17.02.34.06.51.17.72.59.62.97.62.69,0,1.39-.04,2.07,0,.71.05,1.33-.17,1.86-1.3.1,1.2.54,1.33,1.1,1.29.56-.05,1.13-.03,1.7,0,.46.02.81-.3,1.07-.87.71-1.51,1.1-2.22,1.5-3.24.12-.32.23-.58.29-.74.19,0,.37,0,.55.02-.21.41-.37.79-.47,1.07-.23.6-.38,1.03-.41,1.63,0,.2,0,.41.03.63.12.97.45,1.46,1.07,1.49h.25c1.03-.08,2.15.42,3.02-.98.79,1.74,1.93.73,2.91.96.4.1.82.02,1.33.02-.3.95-.62,1.41-1.24,1.38-1.41-.06-2.81,0-4.21-.02-.67,0-1.11.52-1.39,1.44-.28.97.02,1.82.69,1.82,2.22.02,4.45.13,6.66-.05,1.23-.1,2.22-1.32,2.97-2.92.62-1.32,1.03-2.64,2.41-5.31.21-.4.38-.73.51-.95h1.41c.02.15.06.43.18.73.13.32.29.51.38.6-.19-.03-.48,0-.82,0-.58,0-.99.45-1.33,1.15-.22.47-.27.97-.13,1.52.15.58.46.6.79.6,1.86,0,3.73,0,5.6,0,1.41-.02,2.92-1.98,3.23-4.19.04-.33.12-.47.33-.46h70.11c-2.09.44-4.18.31-6.27.42-3.18.17-6.36.28-9.54.42-2.97.13-5.95.25-8.91.39-3.14.15-6.28.26-9.42.43-1.61.09-3.22.05-4.82.22,2.04.35,4.08.28,6.13.34,3.77.12,7.54.23,11.3.42,3.55.18,7.12.27,10.68.41,3.45.14,6.9.37,10.36.52-.37.07-.74.19-1.11.21-2.74.1-5.49.17-8.23.28-3.12.12-6.24.23-9.35.41-5.91.35-6.11.25-9.29.4-2.53.12-6.21.3-10.7.57,3.02.13,6.73.28,10.96.44v.02Z"/>
      <path class="st0" d="M150.93,11.16c-.28,1.15-.84,1.3-1.54,1.27-1.74-.08-3.48-.01-5.22-.03-.33,0-.57.11-.79.58-1.96,4.17-3.95,8.32-5.91,12.49-.27.57-.72,1.23-.45,1.96.27.73.85.52,1.33.45,1.66-.26,3.19-1.2,4.56-2.63.8-.83,1.49-.98,2.32-.29-.02.31-.22.33-.35.45-3.11,2.78-6.33,5.09-9.9,5.75-1.94.36-3.89.15-5.8-.59-.26-.1-.52-.27-.76-.45-1.05-.79-1.25-1.89-.55-3.38,1.99-4.18,4-8.34,6-12.51.2-.41.56-.83.41-1.39-.17-.62-.62-.41-.96-.42-.67-.02-1.34.01-2.01-.02-.2,0-.56.29-.51-.47.02-.49-.03-.98.46-1.05,1.67-.24,3.31-.72,4.95-1.33,2.84-1.07,5.59-2.54,8.16-4.8.14-.13.3-.28.46-.28.97-.03,1.95-.01,3.02-.01-1.16,2.2-2.25,4.26-3.43,6.51h6.52v.2h0Z"/>
      <path class="st0" d="M94.84,0c.68.36,1.41.38,2.09.82.39.26.77.51,1.11.93.72.91.72,2.04-.02,2.93-.74.89-1.62,1.24-2.51,1.48-1.76.47-3.5.38-5.21-.43-.42-.2-.83-.48-1.2-.86-.94-.99-.95-2.27-.02-3.27.76-.83,1.64-1.13,2.53-1.39.15-.04.34.06.46-.2h2.77,0Z"/>
      <path class="st0" d="M37.06,4.2c-.69,2.56-1.4,4.92-1.97,7.37-.33,1.43-.81,1.89-1.74,1.89-.81,0-1.37-.04-1.77-1.43-.39-1.36-1.17-2.3-1.98-3.05-3.12-2.87-6.44-3.61-9.93-2.28-.59.23-1.15.66-1.6,1.34-.61.91-.63,1.74-.08,2.72.43.76.96,1.31,1.5,1.81,2.03,1.89,4.22,3.27,6.32,4.91,1.41,1.1,2.84,2.16,4.08,3.75.16.21.33.42.48.65.96,1.48,1.05,2.59.35,4.4-.87,2.28-2.23,3.5-3.72,4.42-2.17,1.35-4.45,1.88-6.74,2.16-4.91.6-9.79.09-14.67-.73-.89-.15-1.77-.19-2.5.86-.16.23-.35.17-.54.17H.99c-.63,0-.83-.45-.59-1.35.66-2.59,1.32-5.17,1.95-7.78.14-.57.31-.76.68-.73.63.05,1.26.01,1.88.02.17,0,.36-.1.38.41.1,2.1.92,3.4,1.94,4.46,1.37,1.42,2.9,2.23,4.49,2.74,2.36.76,4.73,1.07,7.1.11.53-.21,1.03-.54,1.48-1.06,1.02-1.18,1.1-2.68.22-4.1-.83-1.34-1.87-2.14-2.91-2.94-2.43-1.86-4.99-3.3-7.38-5.33-.87-.74-1.72-1.57-2.43-2.68-1.26-1.97-1.24-4.35.07-6.25,1.02-1.48,2.28-2.23,3.58-2.8,2.58-1.14,5.22-1.52,7.88-1.66,3.57-.18,7.12.08,10.64,1.04.29.08.58.13.86.28,1.1.58,2.06.13,2.94-.98.24-.3.45-.39.74-.37.81.05,1.62.02,2.53.02h0Z"/>
      <path class="st0" d="M55.19,17.63c-1.98,2.67-3.9,5.28-5.82,7.88-1.3,1.76-2.6,3.52-3.9,5.28-.25.34-1.98.69-2.23.43-.23-.23-.1-.62-.09-.93.14-3.2.27-6.41.19-9.62-.06-2.09-.18-4.17-.41-6.24-.39-3.4-2.01-4.47-3.8-4.22,0-.99.21-1.44.89-1.53,2.4-.31,4.79-.76,7.19-1.11,1.29-.19,1.03-.47,1.52,1.49.77,3.05,1.11,6.29,1.31,9.55.02.43.04.87.07,1.51.81-1.12,1.54-2.13,2.27-3.15,2.13-3,4.28-5.97,6.39-9.01.65-.94,1.39-.46,2.09-.59.27-.05.18.55.2.83.2,2.78.37,5.58.58,8.36.15,2.01.32,4.02.62,5.99.11.7.27.98.74.63,2.13-1.63,4.13-3.58,5.83-6.24.9-1.41.88-2.2,0-3.66-.38-.62-.81-1.18-1.18-1.82-.71-1.24-.56-2.5.38-3.16,1.59-1.1,3.21-1.21,4.82-.13,1.16.78,1.5,2.41.95,4.25-.45,1.52-1.16,2.72-1.92,3.85-3.36,5.05-7.23,8.95-11.17,12.67-.51.48-1.03.88-1.54,1.37-.74.72-1.5,1.07-2.38.94-.41-.06-.56-.17-.61-.88-.29-4.09-.63-8.18-.95-12.26-.01-.12-.02-.24-.05-.47h0Z"/>
      <path class="st0" d="M125.28.18c.08-.01.3,0,.93,0h1.46c.77.02,1.34.17,1.98.28.9.16,1.78.42,2.64.95.4.24.77.53,1.08.99.65.98.59,2.08-.17,2.84-.5.51-1.07.75-1.65.92-1.16.35-2.33.44-3.49-.09-.26-.12-.51-.3-.74-.54-.59-.65-.59-1.5-.01-2.16.17-.19.42-.33.39-.71-.04-.44-.33-.51-.54-.58-.77-.24-1.54-.14-2.29.26-.86.46-1.64,1.16-2.36,2.06-1.4,1.77-2.48,3.98-3.43,6.51h6.39c-.28.92-.51,1.55-1.23,1.51-1.72-.09-3.44,0-5.16-.05-.41-.01-.63.19-.83.77-1.54,4.41-3.11,8.79-5.05,12.8-3.52,7.27-8.19,11.01-13.83,11.82-1.95.28-3.89.37-5.82-.25-.89-.29-1.75-.71-2.48-1.63-.91-1.15-.79-2.59.3-3.2,1.73-.96,3.51-.91,5.24.03.96.52,1.04,1.25.4,2.5-.13.25-.36.5-.28.85.09.41.38.38.59.4,1.67.15,3.11-.64,4.17-2.8,1.82-3.71,3.38-7.72,5.03-11.63,1.33-3.16,2.64-6.32,4.02-9.6h-5.27c.31-1.04.64-1.57,1.36-1.52,1.38.11,2.77.02,4.15.04.32,0,.53-.11.75-.52,2.78-5.37,6.43-8.26,10.61-9.64,1.03-.34,2.07-.49,3.11-.63v.02Z"/>
      <path class="st0" d="M80.1,12.7c.17-1.1.51-1.4,1.15-1.39,4.23.07,8.46.03,12.68-.36.41-.04.82-.09,1.33-.15-.97,2.06-1.88,3.98-2.79,5.91-2.18,4.62-4.37,9.23-6.54,13.86-.24.51-.48.72-.88.72-1.65,0-3.31-.02-4.94-.62-.08-.03-.17-.05-.24-.09-1.62-.86-1.82-1.77-.94-3.93,1.37-3.36,2.96-6.46,4.38-9.75.28-.66.56-1.34.81-2.05.3-.88.18-1.31-.45-1.65-1.05-.56-2.14-.53-3.23-.52-.1,0-.2.02-.35.03h0Z"/>
      <path class="st0" d="M58.23,46.43c.24-.52.59-.58.95-.57h4.21c.63,0,1.73-1.52,1.85-2.51.07-.56-.17-.51-.38-.51-1.13,0-2.27,0-3.39,0-.73,0-1.1-.81-.71-1.78.74-1.85,1.41-3.84,2.65-5.05.68-.66,1.38-.91,2.16-.85.63.05,1.26,0,1.89.02.14,0,.31-.03.37.27.04.25-.02.46-.12.65-.25.47-.56.74-.94.65-.94-.23-1.55.41-2.02,1.68-.27.72-.61,1.37-.92,2.05-.27.58-.16.84.28.83.53,0,1.05,0,1.57,0,.47,0,.78-.39,1.04-.97.63-1.4,1.28-2.77,1.89-4.17.31-.7.68-1.03,1.22-1,.77.04,1.55,0,2.33,0,.16,0,.36-.06.42.28.05.29-.06.53-.19.7-.15.18-.31.4-.48.45-.71.2-1.11.95-1.5,1.82-.97,2.17-1.97,4.29-2.94,6.44-.57,1.25-1.34,1.99-2.25,2.44-1.27.18-2.54.04-3.81.07-.9.02-1.8-.03-2.69.02-.5.03-.58-.3-.46-.97h0Z"/>
      <path class="st0" d="M35.8,35.17c1.2,0,2.38,0,3.58,0,.74,0,1.08.88.69,1.9-.55,1.43-1.13,2.87-1.89,4.03-.74,1.12-1.62,1.87-2.71,1.76-1.21-.12-1.74-.08-2.95-.03-.32,0-.58.03-.71.04-.09.17-.24.47-.41.85-.41.89-.74,1.54-1.19,2.61-.32.76-.73,1.16-1.32,1.09-.4-.05-.79,0-1.2,0-.19,0-.41.11-.53-.19-.12-.34.05-.63.17-.9.64-1.38,1.28-2.76,1.91-4.14.44-.95.89-1.88,1.31-2.84.32-.72.69-1.12,1.26-1.05.46.06.92.03,1.38,0,.51-.02.54.33.28.91-.19.44-.4.86-.59,1.3-.19.44-.19.76.22.77.61,0,1.21,0,1.82,0,.35,0,.57-.37.76-.79.43-.95.87-1.9,1.31-2.85.1-.21.25-.42.14-.71-.11-.29-.3-.18-.46-.18-1.67,0-3.35,0-5.02-.02-.19,0-.47.18-.56-.23-.09-.45.15-.73.35-.98.32-.39.71-.37.83-.36.69.03,1.91,0,3.52,0h0Z"/>
      <path class="st0" d="M55.29,35.16h1.13c.12,0,.33-.05.37.04.32,1.07.69.18,1.03.09.94-.24,1.88-.16,2.82-.07.49.05.67,1.14.33,1.97-.41,1.01-.89,1.96-1.33,2.95-.17.39-.54.82.04,1.23.22.15.11.54-.02.78-.24.46-.56.69-.94.69-.5,0-1,0-1.51,0-.28,0-.61.09-.76-.47-.15-.56-.15-1.11.09-1.63.45-.97.9-1.95,1.34-2.94.12-.26.33-.53.18-.88-.14-.31-.4-.19-.59-.1-.87.41-1.57,1.23-2.12,2.4-.41.89-.83,1.78-1.23,2.69-.29.67-.66.98-1.17.94-.46-.03-.92,0-1.38,0-.54-.02-.61-.22-.29-.94.61-1.37,1.24-2.71,1.87-4.07.19-.4.44-.79-.06-1.18-.27-.21-.08-.59.06-.84.36-.65.84-.68,1.33-.64.27.02.54,0,.82,0h-.01Z"/>
      <path class="st0" d="M27.29,35.16h2.7c.16,0,.37-.06.45.24.09.32-.06.58-.19.81-.22.42-.51.54-.84.54-1.09,0-2.18,0-3.27,0-.19,0-.39-.03-.56.07-.33.21-.75.49-.68,1.14.06.63.49.32.75.33.67.04,1.34,0,2.01,0,.28,0,.6-.14.76.44.16.57.16,1.13-.08,1.63-.66,1.36-1.5,2.36-2.57,2.43-1.8.12-3.6.04-5.41.03-.16,0-.37.07-.43-.26-.05-.27.06-.51.18-.72.26-.46.59-.6.97-.6h3.21c.23,0,.47.03.68-.15.27-.25.63-.53.55-1.1-.07-.47-.43-.25-.66-.25-.69-.03-1.38,0-2.07-.02-.3,0-.64.1-.81-.51-.15-.58-.12-1.16.11-1.63.69-1.35,1.54-2.3,2.65-2.4.85-.08,1.72-.02,2.58-.02h0Z"/>
      <path class="st0" d="M78.36,35.17h2.7c.15,0,.36-.1.43.24.06.29-.06.52-.17.73-.23.46-.53.61-.89.6-1.09,0-2.18,0-3.26,0-.19,0-.39-.02-.56.08-.33.21-.75.52-.68,1.15.06.57.5.3.76.31.69.04,1.38,0,2.07.02.74,0,1.09.97.66,1.97-.62,1.45-1.51,2.44-2.59,2.53-1.8.14-3.6.04-5.4.03-.16,0-.37.09-.44-.24-.07-.32.07-.58.2-.8.25-.41.56-.55.91-.54,1.09,0,2.18,0,3.26,0,.2,0,.43,0,.61-.14.28-.21.64-.52.57-1.07-.07-.56-.46-.29-.7-.3-.69-.03-1.38,0-2.07,0-.28,0-.61.1-.77-.45s-.17-1.15.07-1.64c.69-1.41,1.56-2.35,2.69-2.46.85-.08,1.72-.02,2.58-.02h0Z"/>
      <path class="st0" d="M44.29,37.22c.59-.27,1-.85,1.44-1.31.47-.49.96-.81,1.53-.74.16.02.36-.04.42.3.05.28-.05.52-.18.71-.24.35-.5.62-.84.57-.53-.07-.98.26-1.41.71-1.23,1.28-2.51,2.47-3.29,4.59-.22.6-.58.83-1.02.8-.48-.03-.97,0-1.44,0-.53-.02-.61-.23-.28-.96.61-1.38,1.24-2.72,1.86-4.08.18-.4.46-.8-.06-1.14-.21-.14-.11-.47-.01-.7.23-.55.55-.8.96-.8h2.39c.18,0,.41-.1.5.26.09.32-.09.57-.19.82-.11.27-.32.44-.37.99v-.02Z"/>
      <path class="st0" d="M48.42,35.47c.74-.54,1.52-.19,2.29-.24.38-.03.94-.35,1.12.21.21.64-.32,1.14-.54,1.67-.48,1.11-1,2.17-1.49,3.26-.15.35-.38.73.1.96.27.13.17.47.05.73-.24.52-.57.78-.97.77-.82,0-1.64,0-2.45,0-.53,0-.59-.23-.27-.96.59-1.35,1.23-2.66,1.83-3.99.15-.33.41-.67.1-1.12-.46-.7.1-.89.25-1.29Z"/>
      <path class="st0" d="M76.6,19.86c-.84-.01-1.58-.16-2.27-.69-.22-.17-.46-.39-.48-.86-.02-.53.24-.79.48-.95,1.48-.94,2.97-.94,4.45,0,.23.15.46.39.47.86.02.54-.24.75-.48.95-.71.56-1.48.66-2.17.68h0Z"/>
      <path class="st0" d="M123.77,19.87c-.8-.03-1.57-.14-2.27-.7-.23-.18-.45-.41-.46-.87-.01-.47.21-.74.44-.89,1.52-.99,3.05-1.04,4.55.04.6.43.57,1.18-.03,1.7-.7.6-1.47.7-2.22.73h0Z"/>
      <path class="st0" d="M99.86,19.86c-.76-.02-1.5-.15-2.19-.67-.25-.19-.51-.44-.5-.94,0-.44.23-.72.47-.87,1.5-.96,3-.97,4.5.03.24.16.45.44.44.89-.01.45-.24.71-.46.88-.71.53-1.47.69-2.25.69h0Z"/>
      <path class="st0" d="M36.84,19.86c-.78-.02-1.52-.15-2.22-.67-.25-.18-.51-.43-.5-.94,0-.45.23-.72.46-.87,1.5-.96,3-.99,4.5.01.24.16.45.41.44.89,0,.48-.24.69-.46.87-.71.56-1.47.69-2.23.7h0Z"/>
      <path class="st0" d="M51.11,34.23c-.61,0-.83-.48-.67-1.44.25-1.49,1.89-3.28,2.86-3.13.53.09.72.65.52,1.54-.33,1.46-1.75,3.05-2.71,3.03Z"/>
      <path class="st0" d="M51.87,38.88c-.46,1.17-.92,2.33-1.39,3.5.17-.63.14-.99.06-1.21-.06-.19-.18-.34-.17-.58,0-.19.09-.32.12-.38.15-.26.35-.67.63-1.34.24,0,.49,0,.73,0h0Z"/>
      <path class="st0" d="M58.23,46.43c.02.71.24.86.68.86,2.09-.03,4.19,0,6.28.02-.16.05-.32.14-.48.14-2.06,0-4.13,0-6.19,0-.19,0-.41.04-.5-.28-.07-.3.04-.58.22-.75h0Z"/>
      <path class="st0" d="M48.42,35.47c-.05.44-.53.68-.25,1.29-.41-.47-.37-.67.25-1.29Z"/>
    </g>
  </g>
</svg>