<?xml version="1.0" encoding="UTF-8"?>
<svg id="layer" xmlns="http://www.w3.org/2000/svg" version="1.1" viewBox="0 0 599.9 96.9">
  <!-- Generator: Adobe Illustrator 29.1.0, SVG Export Plug-In . SVG Version: 2.1.0 Build 142)  -->
  <defs>
    <style>
      .st0 {
        fill: #fff;
      }
    </style>
  </defs>
  <path class="st0" d="M123,59.2v-30h-4.8c-.4,0-.8-.4-.8-.8h0v-11.5c0-.5.4-.8.8-.8h4.8V1.2c0-.5.4-.8.8-.8h13c.4,0,.8.4.8.8v14.9h9.9c.4,0,.8.4.8.8v11.5c0,.4-.3.8-.8.8h-9.9v13.8c0,13-.9,18.2,4.3,18.7,2.4.3,3.6-.4,6-1.4.4-.2.8,0,1,.3l5,9.1c.2.4.1.8-.2,1.1-3.3,2.5-9.5,4-15.2,4-10,.1-15.5-5.4-15.5-15.6M180.4,26.6c-9,0-12.9,7-13.6,12.7h27.1c-.3-5.4-3.9-12.7-13.5-12.7M151.9,44.7c0-16.6,11.7-30.1,28.5-30.1s27.6,12.8,27.6,31.6v2.5c0,.4-.3.8-.8.8h-40.1c.9,7.2,6.5,13.3,15.8,13.3,4.4,0,10.4-1.9,14-5.1.3-.3.8-.3,1.1,0l.1.1,5.5,8.4c.2.4.2.8-.1,1.1-5.5,4.9-13.9,7.5-22.2,7.5-16.8.1-29.4-11.7-29.4-30.1M246.8,59.4v-6.5c0-.2-.1-.4-.2-.5-2.4-3.2-6.9-4.8-11.5-4.8-5.7,0-10.4,3.1-10.4,8.7s4.7,8.4,10.4,8.4c4.6,0,9-1.6,11.5-4.8.1-.1.2-.3.2-.5M246.8,72.7v-5.1c-3.8,4.6-10.3,7.4-17.4,7.4-8.8,0-19.2-6.2-19.2-19s10.4-18.5,19.2-18.5c7.3,0,13.8,2.5,17.4,7v-7.7c0-5.8-4.8-9.6-12.1-9.6-5.6,0-10.8,2-15.3,6.1-.3.3-.8.3-1.1,0,0,0-.1-.1-.1-.2l-4.7-8.6c-.2-.4-.1-.8.2-1.1,6.7-5.9,15.1-8.6,23.6-8.6,12.5,0,24.1,5.2,24.1,21.8v36.1c0,.4-.3.8-.8.8h-12.9c-.6,0-.9-.4-.9-.8h0M336.8,73.5c-.4,0-.8-.4-.8-.8v-35.4c0-5.3-2.3-9.1-8.2-9.1-5,0-9.2,3.4-11.3,6.4-.1.1-.2.3-.2.5v37.6c0,.4-.3.8-.8.8h-13c-.4,0-.8-.4-.8-.8v-35.4c0-5.3-2.3-9.1-8.2-9.1-4.9,0-9,3.4-11.2,6.6-.1.1-.2.3-.2.5v37.4c0,.4-.3.8-.8.8h-12.9c-.4,0-.8-.4-.8-.8h0V16.9c0-.5.4-.8.8-.8h12.9c.4,0,.8.4.8.8v6.7c2.3-3.4,9.6-8.9,18-8.9s13.2,3.9,15.3,10.5c3.2-5.2,10.5-10.5,18.9-10.5,10.1,0,16.2,5.6,16.2,17.4v40.6c0,.4-.3.8-.8.8h-12.9Z"/>
  <path class="st0" d="M100,19.3H.8c-.5,0-.8-.4-.8-.8V1.2C0,.7.4.4.8.4h99.2c.4,0,.8.4.8.8v17.3c0,.5-.4.8-.8.8"/>
  <path class="st0" d="M100,46.6H26c-.4,0-.8-.4-.8-.8v-17.5c0-.5.4-.8.8-.8h74c.4,0,.8.4.8.8v17.5c0,.4-.4.8-.8.8"/>
  <path class="st0" d="M100,73.5h-48.9c-.4,0-.8-.4-.8-.8v-17.1c0-.4.3-.8.8-.8h48.9c.4,0,.8.4.8.8v17.1c0,.5-.3.8-.8.8"/>
  <path class="st0" d="M397.8,52.9v-18c0-.2,0-.3-.1-.5-2.5-3.7-7.6-6.3-12.3-6.3-8.2,0-13.9,5.9-13.9,15.8s5.7,15.8,13.9,15.8c4.7,0,9.8-2.7,12.3-6.3.1-.2.1-.3.1-.5M359.3,87.6l5.6-9.4c.2-.4.7-.5,1.1-.3.1,0,.1.1.2.1,4.3,4.5,9.9,6.4,16.5,6.4,7,0,15.2-3.2,15.2-14.5v-5.8c-4.3,5.7-10.3,9-17,9-13.8,0-24.3-10.1-24.3-29.2s10.4-29.2,24.3-29.2c6.6,0,12.5,3,17,8.8v-6.5c0-.5.4-.8.8-.8h13c.4,0,.8.4.8.8v52.7c0,21.9-16.2,27.2-29.8,27.2-9.2,0-16.4-2.1-23.2-8.1-.3-.4-.4-.8-.2-1.2M453.5,59.4v-6.5c0-.2-.1-.4-.2-.5-2.4-3.2-6.9-4.8-11.5-4.8-5.7,0-10.4,3.1-10.4,8.7s4.7,8.4,10.4,8.4c4.6,0,9-1.6,11.5-4.8.1-.1.2-.3.2-.5M453.5,72.7v-5.1c-3.8,4.6-10.3,7.4-17.4,7.4-8.8,0-19.2-6.2-19.2-19s10.4-18.5,19.2-18.5c7.3,0,13.8,2.5,17.4,7v-7.7c0-5.8-4.8-9.6-12.1-9.6-5.6,0-10.8,2-15.3,6.1-.3.3-.8.3-1.1,0,0,0-.1-.1-.1-.2l-4.7-8.6c-.2-.3-.1-.8.2-1.1,6.7-5.9,15.1-8.6,23.6-8.6,12.5,0,24.1,5.2,24.1,21.8v36.1c0,.4-.3.8-.8.8h-12.9c-.6,0-.9-.4-.9-.8M512.4,73.5c-.4,0-.8-.4-.8-.8h0v-33.9c0-8-4-10.7-10.1-10.7-5.6,0-10,3.2-12.4,6.5-.1.1-.2.3-.2.5v37.6c0,.4-.3.8-.8.8h-12.9c-.4,0-.8-.4-.8-.8h0V16.9c0-.5.4-.8.8-.8h12.9c.4,0,.8.4.8.8v6.7c3.5-4.4,10.3-8.9,19.3-8.9,12.1,0,17.9,7.1,17.9,18.3v39.7c0,.4-.3.8-.8.8h-12.9ZM534.5,58.8v-30h-4.8c-.4,0-.8-.4-.8-.8h0v-11.5c0-.5.4-.8.8-.8h4.8V.8c0-.5.4-.8.8-.8h13c.4,0,.8.4.8.8v14.9h9.9c.4,0,.8.4.8.8v11.5c0,.4-.3.8-.8.8h-9.9v14.1c.1,12.5-.9,17.9,4.3,18.5,2.4.3,3.6-.4,6-1.4.4-.2.8,0,1,.3l5,9.1c.2.4.1.8-.2,1.1-3.3,2.5-9.5,4-15.2,4-10,0-15.5-5.4-15.5-15.7M568.9,58.8v-30h-4.8c-.4,0-.8-.4-.8-.8h0v-11.5c0-.5.4-.8.8-.8h4.8V.8c0-.5.4-.8.8-.8h13c.4,0,.8.4.8.8v14.9h9.9c.4,0,.8.4.8.8v11.5c0,.4-.3.8-.8.8h-9.9v14.1c.1,12.5-.9,17.9,4.3,18.5,2.4.3,3.6-.4,6-1.4.4-.2.8,0,1,.3l5,9.1c.2.4.1.8-.2,1.1-3.3,2.5-9.5,4-15.2,4-10,0-15.5-5.4-15.5-15.7"/>
</svg>