<?xml version="1.0" encoding="UTF-8"?>
<svg id="Layer_1" xmlns="http://www.w3.org/2000/svg" version="1.1" viewBox="0 0 358.27 77.27">
  <!-- Generator: Adobe Illustrator 29.1.0, SVG Export Plug-In . SVG Version: 2.1.0 Build 142)  -->
  <defs>
    <style>
      .st0 {
        fill: none;
      }

      .st1 {
        fill: #fff;
      }
    </style>
  </defs>
  <path class="st0" d="M104.66,76.04h.98c1.61.63,2.82.02,4-1.1.94-.89,2.08-1.19,2.83.26,1.44,2.79,2.82,1.35,4.02-.1.82-1,1.46-2.19,1.99-3.38.63-1.41.26-2.41-1.36-3.07-4.01-1.62-7.39-.64-10.22,3.2-.28-1.2-.55-2.4-.83-3.59-1.04.72-2.27,1.27-3.07,2.19-.93,1.08-1.55,2.46-2.19,3.77-.73,1.49.15,2.17,1.49,2.25.77.05,1.57-.28,2.36-.44h0ZM175.1.26v-.26H59.15c-4.06,0-4.06.03-4.7,3.68-.73,4.17-.77,4.22-5.07,4.31-15.15.32-30.31.63-45.46.94-.83.02-1.67,0-2.5.04-1.33.05-1.87.57-.98,1.82,1.35,1.89,2.77,3.74,4.08,5.66,1.8,2.66,4,3.89,7.46,3.84,12.82-.2,25.65-.04,38.48,0,1.46,0,3.49-.22,3.6,1.69.12,1.93-1.79,2.6-3.5,2.87-.98.15-1.99.1-2.99.1h-12.99c-6.66,0-13.33-.02-19.99.03-.9,0-1.8.43-2.7.66.42.87.72,1.83,1.29,2.58,1.7,2.26,3.7,4.32,5.21,6.68,1.28,2,2.89,2.4,5.03,2.38,7.83-.07,15.66-.03,23.49-.03,1.5,0,3.09-.28,4.47.14,1.03.31,1.78,1.53,2.65,2.35-.84.39-1.67,1.07-2.53,1.13-5.65.38-11.3.62-16.96.92-3.14.16-6.28.33-9.42.49,1.86,2.85,3.72,5.7,5.57,8.56,1.22,1.89,2.97,2.38,5.14,2.35,5-.08,10-.07,14.99.1,1.58.06,3.42.35,4.65,1.23,6.77,4.83,14.39,6.69,22.51,6.69,65.64.05,131.27,0,196.91.09,7.08,0,13.37-2.27,19.24-5.77,2.54-1.52,4.96-2.35,7.92-2.34,16.99.07,33.98.01,50.98,0,1.33,0,2.67.03,4-.06,1.63-.11,1.45-.96.61-1.89-2.46-2.71-5.02-5.33-7.4-8.12-1.43-1.67-3.04-2.31-5.21-2.23-8.32.3-16.64.51-24.97.68-6.83.15-13.66.25-20.49.28-2.55.01-2.96-.62-2.82-2.83.13-2.1,1.61-1.76,2.88-1.77,8.16-.08,16.33-.03,24.49-.21,6.32-.13,12.64-.51,18.96-.84.73-.04,1.45-.47,2.17-.71-.43-.66-.77-1.41-1.31-1.96-1.86-1.9-3.96-3.6-5.65-5.63-1.19-1.43-2.45-2.05-4.24-2.09-10.15-.26-20.29-.58-30.44-.87-1.66-.05-3.33-.05-5-.02-1.65.03-1.85-1-1.85-2.29s.13-2.36,1.78-2.36c1.5,0,3-.05,4.5-.07,8.99-.13,17.99-.24,26.98-.42.76,0,1.52-.44,2.27-.68-.3-.7-.46-1.5-.92-2.07-1.35-1.69-2.96-3.18-4.2-4.94-1.68-2.36-3.84-3.48-6.69-3.55-6.82-.17-13.64-.47-20.45-.54-2.17-.02-3.17-.43-3.52-2.89-.51-3.66-1.27-4.01-4.97-4.14-1.16-.04-2.33-.02-3.5-.02-37.65-.24-75.29-.47-112.94-.71v.02ZM140.17,67.47c-4.27.26-5.59,3.22-6.74,6.22-.37.95-.24,2.1-.34,3.15.87-.33,1.97-.44,2.55-1.04,1.77-1.82,3.14-2.24,4.58.36.2.35,2.15.35,2.4-.05,1.19-1.9,2.06-3.99,3.05-6.02l-5.5-2.62ZM238.69,67.95c.2,0,.03-.01-.13,0-2.4.23-6.52,5.79-5.89,8.13.08.32,1.47.71,1.83.46,1.76-1.2,3.42-2.27,5.7-2.59,1.94-.27,4.5-.65,4.77-3.46.13-1.29-3.11-2.62-6.28-2.54ZM227.89,67.67c-1.51.52-3,.57-3.57,1.32-1.66,2.18-2.95,4.64-4.35,7.01-.1.17.13.77.25.78.6.06,1.38.22,1.8-.07,2.02-1.39,4.05-2.54,6.56-3.02,1.78-.34,4.56-1.03,3.85-3.48-.36-1.23-3.06-1.77-4.55-2.54h.01ZM211.61,77.01c4.09-.04,8.17-2.92,9.08-6.49.15-.57-.15-1.26-.24-1.89-.71.17-1.7.09-2.09.54-1.19,1.36-2.05,3.02-3.26,4.38-.58.65-1.65.86-2.5,1.28-.06-.84-.13-1.69-.17-2.53-.07-1.23-.13-2.45-.19-3.68-.96.83-1.96,1.62-2.87,2.5-.34.33-.53.84-.73,1.29-1.4,3.1-.39,4.64,2.98,4.61h-.01ZM197.42,74.88c.15-.06-.73.3-1.6.66,1.02.34,1.92.79,3.01.86,1,.07,2.01.11,3.02.02.95-.09,1.82-.27,2.56-.9.64-.55,1.14-1.24,1.76-1.81-.81-.67-1.6-1.4-2.46-2-.44-.31-1.64-.67-1.75-1.31-.14-.77,1.11-1.06,1.65-1.06,1,0,1.84-.31,2.8-.59-.7-.28-1.31-.71-2.08-.77s-1.62.03-2.39.12c-1.38.16-2.82.53-3.85,1.52-1.07,1.05-.46,1.73.42,2.65.44.46.8.88,1.39,1.14.68.29.79.5,1.09,1.17-1.19.39-2.31.29-3.56.29h0ZM124.17,77.26c1.83-.46,3.22-.58,4.35-1.18.87-.46,2.15-1.97,1.99-2.23-.95-1.51-1.86-.23-2.78.35-1.3.82-3.02,1.49-3.6-.29-.27-.83,1.26-2.37,2.18-3.41.32-.36,1.25-.22,1.9-.23.99-.02,1.99.12,2.97.02.55-.05,1.06-.44,1.59-.68-.46-.43-.84-1.03-1.38-1.28-3.03-1.39-6.3-.45-9.31,2.53-1.22,1.21-2.54,2.74-1.55,4.26.75,1.15,2.63,1.58,3.66,2.13h-.02ZM91.73,76.44c5.81-.18,7-1.28,6.22-5.85-.29-1.7-1.4-2.38-2.79-1.72-1.73.83-3.38,1.96-4.82,3.24-1.16,1.03-1.95,2.48-2.9,3.74,1.43.2,2.86.39,4.28.59h.01ZM172.12,69.45c-1.07-.74-1.52-1.3-2-1.34-4.64-.37-8.01,1.23-9.33,5.54-.29.96.19,2.16.31,3.25.88-.4,1.77-.77,2.63-1.19,1.61-.79,3.19-1.65,4.82-2.41,1.18-.55,1.52-1.23.45-2.15-.34-.3-.91-.33-1.38-.49.34-.12.68-.27,1.03-.37.9-.23,1.81-.44,3.47-.83h0ZM151.82,76.59l.08-.28c1.46,0,4.47.62,5.46-.93.43-.68-.18-2.06-.37-2.79-.31-1.19-.66-2.37-.99-3.55-1.59.66-3.67,1.16-4.99,2.29-1.37,1.18-2.45,2.8-3.6,4.19,1.47.36,2.94.72,4.42,1.07h0ZM256.58,74.66c.03.13.22,1.05.41,1.98.91-.32,1.99-.43,2.69-1,1.91-1.55,3.71-3.25,5.45-4.98.53-.53.77-1.35,1.15-2.04-.74.1-1.5.13-2.22.31-.46.12-.92.4-1.27.72-1.15,1.06-1.96,1.17-3.22-.15-1.49-1.56-2.32-1.18-2.68.9-.19,1.13-.18,2.29-.32,4.26h0ZM180.13,67.86c-.84.2-2.13.43-3.35.86-.31.11-.59,1.24-.54,1.27,2.54,1.37.27,2.78.07,4.15-.12.88-.2,1.76-.3,2.64.96-.42,2.09-.65,2.84-1.31.82-.73,1.2-1.93,1.92-2.8.7-.85,1.55-1.61,2.42-2.3.55-.44,1.25-.68,1.88-1-.68-.4-1.32-.94-2.05-1.18-.76-.25-1.62-.2-2.9-.33h0ZM247.32,77.23c3.78-.04,3.81-.15,2.67-2.99-.22-.54-.02-1.27.07-1.89.17-1.19.74-3.35.54-3.42-2-.72-2.64,1.17-3.64,2.31-.43.48-.76,1.07-1.02,1.66-.43,1.01-1.37,2.46-1.01,2.99.6.88,2.06,1.18,2.4,1.35h0Z"/>
  <path class="st1" d="M175.1.26c37.65.24,75.29.47,112.94.71,1.17,0,2.33-.02,3.5.02,3.7.13,4.46.48,4.97,4.14.34,2.47,1.35,2.87,3.52,2.89,6.82.07,13.64.37,20.45.54,2.85.07,5.01,1.19,6.69,3.55,1.25,1.75,2.85,3.25,4.2,4.94.46.57.62,1.38.92,2.07-.76.24-1.51.66-2.27.68-8.99.17-17.99.29-26.98.42-1.5.02-3,.07-4.5.07-1.66,0-1.78,1.1-1.78,2.36s.2,2.32,1.85,2.29c1.67-.03,3.33-.03,5,.02,10.15.29,20.29.61,30.44.87,1.79.05,3.05.66,4.24,2.09,1.69,2.04,3.79,3.73,5.65,5.63.54.55.88,1.3,1.31,1.96-.72.25-1.44.67-2.17.71-6.32.33-12.64.7-18.96.84-8.16.17-16.32.13-24.49.21-1.26.01-2.74-.33-2.88,1.77-.14,2.21.26,2.84,2.82,2.83,6.83-.03,13.66-.13,20.49-.28,8.32-.18,16.65-.39,24.97-.68,2.17-.08,3.79.56,5.21,2.23,2.38,2.78,4.94,5.41,7.4,8.12.84.93,1.02,1.77-.61,1.89-1.33.09-2.66.06-4,.06-16.99.02-33.99.08-50.98,0-2.96-.01-5.37.82-7.92,2.34-5.88,3.5-12.16,5.78-19.24,5.77-65.64-.09-131.27-.04-196.91-.09-8.12,0-15.74-1.87-22.51-6.69-1.23-.88-3.07-1.17-4.65-1.23-4.99-.18-9.99-.19-14.99-.1-2.17.04-3.92-.46-5.14-2.35-1.85-2.86-3.71-5.71-5.57-8.56,3.14-.16,6.28-.33,9.42-.49,5.65-.29,11.31-.54,16.96-.92.87-.06,1.69-.74,2.53-1.13-.87-.82-1.62-2.04-2.65-2.35-1.38-.42-2.97-.14-4.47-.14-7.83,0-15.66-.05-23.49.03-2.14.02-3.76-.38-5.03-2.38-1.52-2.37-3.51-4.43-5.21-6.68-.57-.76-.87-1.72-1.29-2.58.9-.23,1.8-.65,2.7-.66,6.66-.06,13.33-.03,19.99-.03h12.99c1,0,2.01.05,2.99-.1,1.71-.27,3.62-.93,3.5-2.87-.12-1.91-2.14-1.68-3.6-1.69-12.83-.05-25.66-.21-38.48,0-3.46.06-5.66-1.18-7.46-3.84-1.31-1.92-2.73-3.77-4.08-5.66-.89-1.24-.35-1.76.98-1.82.83-.03,1.67-.03,2.5-.04,15.15-.31,30.31-.62,45.46-.94,4.3-.09,4.34-.14,5.07-4.31C55.09.05,55.09.02,59.15.02h115.95v.26-.02ZM81.83,33.83c0,4.5.06,8.99-.03,13.49-.03,1.89.63,2.55,2.57,2.67,9.6.63,9.59.69,14.06-7.84.77-1.47,1.51-2.96,2.3-4.42.47-.88.96-1.76,1.54-2.56.25-.35.76-.5,1.16-.75.12.47.38.96.34,1.42-.09.98-.33,1.96-.51,2.93-.47,2.61-1.01,5.21-1.38,7.84-.19,1.34-.08,3.01,1.64,3.14,3.31.24,6.65.19,9.98.07.65-.02,1.45-.79,1.88-1.42,6.33-9.17,12.61-18.38,18.92-27.57,1-1.46,1.07-2.46-1.1-2.49-1.83-.02-3.68.14-5.49-.07-2.66-.3-4.25.65-5.56,3.05-2.71,4.95-5.77,9.72-8.72,14.54-.33.53-.88.92-1.33,1.37-.17-.74-.58-1.51-.46-2.2.82-4.57,1.78-9.11,2.63-13.68.47-2.56.16-2.94-2.36-3.03-1.66-.06-3.34.12-5,0-2.45-.17-4.05.73-5.13,3.01-1.35,2.85-2.89,5.62-4.53,8.32-1.57,2.57-3.38,4.99-5.09,7.48.34-3.11.71-6.22,1-9.34.28-3.05.48-6.11.72-9.16-3.14-.11-6.29-.18-9.42-.35-1.88-.1-2.7.58-2.66,2.56.09,4.33.03,8.66.03,12.99h0ZM226.07,49.93c2.46,0,4.12.06,5.78-.01,2.65-.13,2.84-.43,1.59-2.96-1.76-3.56-3.71-7.03-5.47-10.6-2.43-4.92-2.38-5.05,2.06-7.92,2.65-1.71,5.4-3.26,8.03-5,2.27-1.51,4.42-3.2,6.62-4.81-2.64-.11-5.29-.05-7.91-.36-4.37-.51-8.07.71-11.54,3.38-2.75,2.11-5.83,3.8-8.81,5.61-.44.26-1.16.25-1.68.09-.19-.06-.3-.92-.18-1.35.38-1.44.9-2.84,1.31-4.26.84-2.89.63-3.27-2.16-3.41-2.16-.11-4.33.07-6.48-.05-2.04-.12-2.89.86-3.5,2.7-1.71,5.19-3.62,10.3-5.44,15.45-1.32,3.75-2.61,7.5-3.92,11.25-.34.96-.8,2.12.78,2.15,3.31.06,6.83.51,9.87-.45,1.57-.5,2.3-3.67,3.41-5.63.16-.29.27-.63.49-.86,1.47-1.51,2.96-3,4.45-4.5,1.05,1.6,2.49,3.08,3.06,4.83,1.7,5.21,4.37,8.51,9.66,6.7h-.02ZM264.77,18.01c-3.41.43-6.92.57-10.28,1.37-3.79.9-7.03,2.97-9.12,6.44-2.41,4.01-1.77,6.94,2.36,9.05,2.63,1.34,5.57,2.08,8.37,3.06,1.87.65,3.84,1.08,5.62,1.91,1.74.81,1.68,2.4-.03,3.35-3.08,1.73-6.39,1.63-8.83-.72-3.64-3.52-7.8-2.06-11.79-1.93-2.05.07-2.63,1.64-1.9,3.71,1.01,2.86,2.99,4.81,5.91,5.58,7.61,2,15.18,1.62,22.46-1.3,3.78-1.52,6.72-4.28,8.29-8.21,1.42-3.56.66-5.72-2.89-7.16-2.91-1.18-5.98-1.92-8.96-2.93-1.72-.58-3.43-1.22-5.09-1.98-.52-.24-1.14-.9-1.16-1.4-.02-.46.63-1.25,1.11-1.37,2.72-.68,5.43-1.42,7.88,1.01.82.81,2.22,1.25,3.42,1.4,1.8.23,3.65.11,5.48.06,3.64-.1,5.2-2.88,3.06-5.87-.88-1.23-2.5-2.32-3.97-2.66-3.21-.74-6.54-.97-9.95-1.42h0ZM169.07,51.27c2.85-.46,5.68-.69,8.38-1.41,5.3-1.4,9.49-4.64,13.12-8.63.89-.97,1.23-2.57-.39-2.65-4.34-.22-8.95-1.64-12.73,2.18-1.09,1.1-2.81,2.06-4.32,2.18-4.48.36-6.94-.61-6.21-6.23.51-3.93,2.39-7.23,5.72-9.54,3.85-2.67,6.13-2.33,9.57,1,.87.84,2.16,1.56,3.34,1.71,2.13.27,4.32.21,6.47.02,3.16-.27,4.04-1.77,2.98-4.72-1.53-4.26-5.07-5.97-9.11-6.83-10.53-2.24-19.31,1.32-26.7,8.62-3.11,3.07-5.07,6.96-5.6,11.42-.72,6.06,1.71,9.87,7.67,11.52,2.53.7,5.19.92,7.82,1.36h0ZM136.44,49.91c.67,0,1.33.01,2,0q4.55-.1,6.19-4.64c2.29-6.4,4.65-12.78,6.82-19.23,2.66-7.9,4.04-7.81-5.83-7.72-4.08.04-4.16.11-5.61,4.22-2.55,7.19-5.05,14.4-7.57,21.6-1.37,3.89-.03,5.82,4.01,5.78h0Z"/>
  <path class="st1" d="M140.17,67.47c1.83.87,3.67,1.75,5.5,2.62-.99,2.02-1.87,4.12-3.05,6.02-.25.4-2.2.4-2.4.05-1.44-2.6-2.81-2.17-4.58-.36-.59.6-1.69.71-2.55,1.04.1-1.06-.03-2.2.34-3.15,1.16-3,2.47-5.96,6.74-6.22ZM140.93,72.23c.25-.65.71-1.26-.08-1.71-.7-.39-1.24.42-1.75.82.41.2.82.4,1.83.89Z"/>
  <path class="st1" d="M106.9,71.86c2.83-3.84,6.21-4.83,10.22-3.2,1.62.66,1.99,1.65,1.36,3.07-.53,1.19-1.17,2.38-1.99,3.38-1.2,1.46-2.57,2.9-4.02.1-.75-1.45-1.9-1.16-2.83-.26-1.18,1.12-2.39,1.73-4,1.1l.06.06c-.06-.61-.12-1.22-.19-1.83l.3-.38c.24-.55.48-1.1.73-1.65.12-.13.24-.26.37-.39h-.01ZM113.85,72.19c.29-.63.81-1.21,0-1.67-.7-.4-1.24.41-1.75.82.41.2.82.4,1.75.85Z"/>
  <path class="st1" d="M238.69,67.95c3.17-.08,6.41,1.24,6.28,2.54-.27,2.82-2.84,3.19-4.77,3.46-2.28.32-3.94,1.39-5.7,2.59-.36.25-1.75-.15-1.83-.46-.62-2.34,3.5-7.89,5.89-8.13.16-.02.33,0,.13,0ZM240.72,71.33c-.11-.4-.19-.89-.25-.89-.44.02-.88.14-1.33.22.12.37.24.73.35,1.1.41-.15.82-.29,1.22-.44h0Z"/>
  <path class="st1" d="M227.89,67.67c1.48.77,4.19,1.32,4.55,2.54.71,2.44-2.07,3.14-3.85,3.48-2.51.48-4.54,1.63-6.56,3.02-.43.29-1.2.13-1.8.07-.12-.01-.35-.61-.25-.78,1.39-2.37,2.69-4.83,4.35-7.01.57-.75,2.06-.8,3.57-1.32h-.01ZM227.65,70.01c-.48.55-.86.98-1.24,1.42.27.14.61.47.81.4.54-.2,1.03-.56,1.53-.86-.29-.25-.58-.51-1.09-.96h0Z"/>
  <path class="st1" d="M211.61,77.01c-3.37.04-4.37-1.51-2.98-4.61.2-.45.39-.96.73-1.29.91-.88,1.91-1.67,2.87-2.5.06,1.23.12,2.45.19,3.68.05.84.12,1.69.17,2.53.85-.41,1.92-.63,2.5-1.28,1.21-1.35,2.06-3.01,3.26-4.38.39-.45,1.38-.38,2.09-.54.09.63.38,1.32.24,1.89-.9,3.57-4.99,6.45-9.08,6.49h.01Z"/>
  <path class="st1" d="M197.42,74.88c1.25,0,2.37.1,3.56-.29-.31-.67-.42-.88-1.09-1.17-.59-.25-.95-.68-1.39-1.14-.88-.91-1.49-1.6-.42-2.65,1.02-1,2.47-1.36,3.85-1.52.77-.09,1.62-.19,2.39-.12.77.06,1.38.49,2.08.77-.96.28-1.8.58-2.8.59-.54,0-1.79.29-1.65,1.06.12.64,1.31,1,1.75,1.31.86.6,1.65,1.34,2.46,2-.62.57-1.12,1.26-1.76,1.81-.74.63-1.6.81-2.56.9-1,.09-2.01.04-3.02-.02-1.09-.07-1.99-.52-3.01-.86.87-.36,1.75-.72,1.6-.66h0Z"/>
  <path class="st1" d="M124.17,77.26c-1.03-.56-2.91-.98-3.66-2.13-.99-1.52.33-3.05,1.55-4.26,3.01-2.99,6.28-3.93,9.31-2.53.54.25.93.84,1.38,1.28-.53.24-1.04.63-1.59.68-.98.09-1.98-.04-2.97-.02-.65.01-1.59-.13-1.9.23-.92,1.04-2.45,2.58-2.18,3.41.58,1.78,2.3,1.11,3.6.29.92-.58,1.84-1.87,2.78-.35.16.26-1.12,1.78-1.99,2.23-1.13.6-2.51.71-4.35,1.18h.02Z"/>
  <path class="st1" d="M91.73,76.44c-1.43-.2-2.86-.39-4.28-.59.95-1.26,1.74-2.71,2.9-3.74,1.44-1.28,3.08-2.42,4.82-3.24,1.39-.66,2.5.02,2.79,1.72.78,4.57-.41,5.67-6.22,5.85h-.01ZM94.33,72.61c-.13-.34-.24-.61-.35-.88-.34.3-.76.55-1,.92-.1.15.17.55.27.83.36-.29.73-.59,1.08-.87Z"/>
  <path class="st1" d="M171.92,69.32c0,.26-2.33.72-3.22.79-.36.03-1.73.33-1.72.52-.04.53,1.67.2,2.02.5,1.07.92.31,1.38-.87,1.93-1.63.76-2.93,1.05-4.55,1.84-.86.42-1.6,1.59-2.48,1.99-.61-.91-.6-2.28-.31-3.25,1.31-4.32,4.68-5.91,9.33-5.54.49.04,1.92.18,1.8,1.22h0Z"/>
  <path class="st1" d="M151.82,76.59c-1.47-.36-2.94-.72-4.42-1.07,1.15-1.39,2.23-3.01,3.6-4.19,1.33-1.14,3.4-1.63,4.99-2.29.32,1.18.68,2.36.99,3.55.19.74.8,2.12.37,2.79-.99,1.55-4,.93-5.46.93l-.08.28h0ZM153.75,71.52c-.31.63-.56,1.16-.81,1.68.67.1.76.01,1.14-.58.39-.61.1-.62-.33-1.1Z"/>
  <path class="st1" d="M256.58,74.66c.14-1.97.13-3.14.32-4.26.35-2.08,1.19-2.46,2.68-.9,1.25,1.32,2.07,1.21,3.22.15.35-.33.81-.6,1.27-.72.72-.19,1.48-.22,2.22-.31-.37.69-.61,1.52-1.15,2.04-1.75,1.73-3.54,3.43-5.45,4.98-.71.57-1.78.68-2.69,1-.19-.92-.38-1.84-.41-1.98h0Z"/>
  <path class="st1" d="M180.13,67.86c1.28.13,2.14.09,2.9.33.73.24,1.37.77,2.05,1.18-.63.33-1.34.57-1.88,1-.87.69-1.71,1.45-2.42,2.3-.72.87-1.1,2.07-1.92,2.8-.74.66-1.88.89-2.84,1.31.1-.88.17-1.77.3-2.64.19-1.37,2.47-2.78-.07-4.15-.05-.03.23-1.16.54-1.27,1.22-.43,2.5-.66,3.35-.86h0Z"/>
  <path class="st1" d="M247.32,77.23c-.34-.17-1.8-.47-2.4-1.35-.36-.53.58-1.99,1.01-2.99.26-.59.6-1.18,1.02-1.66,1.01-1.14,1.65-3.03,3.64-2.31.2.07-.37,2.23-.54,3.42-.09.63-.28,1.36-.07,1.89,1.14,2.85,1.11,2.96-2.67,2.99h0Z"/>
  <path class="st1" d="M104.66,76.04c-.79.16-1.58.49-2.36.44-1.34-.09-2.22-.76-1.49-2.25.64-1.31,1.26-2.69,2.19-3.77.8-.93,2.03-1.48,3.07-2.19.28,1.2.55,2.4.83,3.59-.13.13-.25.26-.37.39-.24.55-.48,1.1-.73,1.65l-.3.38c-.3.61-.6,1.22-.91,1.84l.05-.07h.02Z"/>
  <path class="st1" d="M105.64,76.05h-.98l-.05.07h1.09l-.06-.06h0Z"/>
  <path class="st0" d="M81.83,33.83c0-4.33.06-8.66-.03-12.99-.04-1.97.78-2.66,2.66-2.56,3.14.17,6.28.24,9.42.35-.24,3.05-.44,6.11-.72,9.16-.29,3.12-.66,6.23-1,9.34,1.71-2.49,3.52-4.91,5.09-7.48,1.64-2.69,3.18-5.47,4.53-8.32,1.08-2.28,2.68-3.18,5.13-3.01,1.66.11,3.33-.07,5,0,2.52.1,2.83.48,2.36,3.03-.85,4.56-1.81,9.11-2.63,13.68-.12.68.29,1.46.46,2.2.45-.45,1.01-.84,1.33-1.37,2.95-4.82,6-9.59,8.72-14.54,1.31-2.4,2.9-3.35,5.56-3.05,1.81.2,3.66.04,5.49.07,2.17.03,2.1,1.03,1.1,2.49-6.3,9.19-12.58,18.4-18.92,27.57-.43.63-1.23,1.4-1.88,1.42-3.32.12-6.66.17-9.98-.07-1.72-.12-1.82-1.8-1.64-3.14.37-2.63.91-5.23,1.38-7.84.18-.98.42-1.95.51-2.93.04-.46-.22-.95-.34-1.42-.39.24-.91.4-1.16.75-.58.8-1.07,1.68-1.54,2.56-.79,1.46-1.53,2.95-2.3,4.42-4.47,8.53-4.46,8.47-14.06,7.84-1.94-.13-2.61-.78-2.57-2.67.08-4.49.03-8.99.03-13.49h0Z"/>
  <path class="st0" d="M226.07,49.93c-5.29,1.81-7.96-1.49-9.66-6.7-.57-1.76-2.02-3.23-3.06-4.83-1.49,1.5-2.98,2.99-4.45,4.5-.22.23-.33.57-.49.86-1.11,1.96-1.83,5.13-3.41,5.63-3.04.96-6.55.5-9.87.45-1.59-.03-1.12-1.19-.78-2.15,1.31-3.75,2.6-7.51,3.92-11.25,1.82-5.15,3.73-10.27,5.44-15.45.61-1.84,1.45-2.82,3.5-2.7,2.15.12,4.32-.05,6.48.05,2.79.14,3,.51,2.16,3.41-.41,1.43-.93,2.83-1.31,4.26-.11.43,0,1.3.18,1.35.51.15,1.24.17,1.68-.09,2.98-1.8,6.06-3.49,8.81-5.61,3.48-2.67,7.17-3.89,11.54-3.38,2.62.3,5.27.25,7.91.36-2.2,1.61-4.35,3.3-6.62,4.81-2.62,1.75-5.38,3.29-8.03,5-4.44,2.88-4.49,3-2.06,7.92,1.76,3.57,3.71,7.04,5.47,10.6,1.25,2.53,1.05,2.83-1.59,2.96-1.66.08-3.32.01-5.78.01h.02Z"/>
  <path class="st0" d="M264.77,18.01c3.41.45,6.74.68,9.95,1.42,1.47.34,3.09,1.43,3.97,2.66,2.14,2.99.58,5.77-3.06,5.87-1.83.05-3.68.18-5.48-.06-1.2-.15-2.6-.59-3.42-1.4-2.45-2.42-5.16-1.69-7.88-1.01-.48.12-1.13.91-1.11,1.37.02.49.64,1.16,1.16,1.4,1.65.75,3.36,1.4,5.09,1.98,2.98,1,6.05,1.75,8.96,2.93,3.55,1.44,4.32,3.6,2.89,7.16-1.57,3.93-4.5,6.69-8.29,8.21-7.28,2.92-14.85,3.31-22.46,1.3-2.93-.77-4.91-2.72-5.91-5.58-.73-2.07-.15-3.64,1.9-3.71,3.99-.13,8.15-1.59,11.79,1.93,2.43,2.35,5.74,2.45,8.83.72,1.71-.96,1.77-2.55.03-3.35-1.78-.83-3.75-1.26-5.62-1.91-2.81-.98-5.75-1.72-8.37-3.06-4.14-2.11-4.77-5.04-2.36-9.05,2.08-3.47,5.33-5.54,9.12-6.44,3.36-.8,6.88-.94,10.28-1.37h-.01Z"/>
  <path class="st0" d="M169.07,51.27c-2.63-.44-5.29-.66-7.82-1.36-5.96-1.65-8.4-5.46-7.67-11.52.53-4.46,2.49-8.35,5.6-11.42,7.39-7.3,16.17-10.86,26.7-8.62,4.04.86,7.57,2.57,9.11,6.83,1.06,2.96.18,4.45-2.98,4.72-2.15.18-4.34.24-6.47-.02-1.18-.15-2.47-.87-3.34-1.71-3.43-3.33-5.72-3.67-9.57-1-3.33,2.31-5.21,5.61-5.72,9.54-.73,5.62,1.73,6.6,6.21,6.23,1.51-.12,3.23-1.08,4.32-2.18,3.79-3.81,8.39-2.39,12.73-2.18,1.62.08,1.28,1.67.39,2.65-3.63,3.99-7.82,7.23-13.12,8.63-2.7.71-5.53.94-8.38,1.41h0Z"/>
  <path class="st0" d="M136.44,49.91c-4.04.04-5.38-1.89-4.01-5.78,2.52-7.2,5.02-14.41,7.57-21.6,1.46-4.1,1.53-4.18,5.61-4.22,9.88-.09,8.49-.18,5.83,7.72-2.17,6.44-4.52,12.82-6.82,19.23q-1.63,4.55-6.19,4.64c-.67.01-1.33,0-2,0h0Z"/>
  <path class="st0" d="M140.93,72.23c-1.02-.49-1.42-.69-1.83-.89.51-.4,1.05-1.21,1.75-.82.79.45.33,1.06.08,1.71Z"/>
  <path class="st0" d="M113.85,72.19c-.93-.45-1.34-.65-1.75-.85.51-.41,1.05-1.22,1.75-.82.8.46.29,1.04,0,1.67Z"/>
  <path class="st0" d="M105.81,73.9c.24-.55.48-1.1.73-1.65-.24.55-.48,1.1-.73,1.65Z"/>
  <path class="st0" d="M105.7,76.11h-1.09c.3-.61.6-1.22.91-1.84.06.61.12,1.22.19,1.83h-.01Z"/>
  <path class="st0" d="M240.72,71.33c-.4.14-.81.29-1.22.44-.12-.37-.24-.73-.35-1.1.44-.09.88-.2,1.33-.22.06,0,.14.48.25.89h0Z"/>
  <path class="st0" d="M227.65,70.01c.51.45.8.7,1.09.96-.51.3-.99.66-1.53.86-.19.07-.53-.25-.81-.4.38-.43.76-.87,1.24-1.42h0Z"/>
  <path class="st0" d="M94.33,72.61c-.35.28-.71.58-1.08.87-.1-.28-.37-.68-.27-.83.24-.37.65-.62,1-.92.11.27.22.55.35.88Z"/>
  <path class="st0" d="M153.75,71.52c.43.47.72.49.33,1.1-.38.6-.47.69-1.14.58.25-.52.51-1.05.81-1.68Z"/>
</svg>