<?xml version="1.0" encoding="UTF-8"?>
<svg id="Layer_3" data-name="Layer 3" xmlns="http://www.w3.org/2000/svg" viewBox="0 0 596.46 534.08">
  <defs>
    <style>
      .cls-1 {
        fill: #be1e2d;
      }
    </style>
  </defs>
  <path class="cls-1" d="M499.69,211.89l-44.37-26.7-36.19-40.98-17.03,11.71-37.79-37.79-49.75,13.04v-53.31l-17.03-24.08-16.96,25.33,.31,56.22-43.77-16.13-50.56,50.03-19.16-9.58-18.09,24.48-40.83,27.31,129.79-.92-55.97-16.28,23.95-28.21,15.43-3.73,13.84-24.48,47.37,15.43,80.89-14.37,44.71,39.92,9.05-17.03,32.99,35.66-67.34,14,116.5,.46Zm-202.15-109.27c-4.75,0-8.6-3.85-8.6-8.6s3.85-8.6,8.6-8.6,8.6,3.85,8.6,8.6-3.85,8.6-8.6,8.6Z"/>
  <polygon class="cls-1" points="297.43 0 557.01 105.49 544.63 211.89 513.9 212.35 527.2 125.21 297.54 35.03 73.61 124.29 83.7 212.35 52.97 212.81 39.67 105.49 297.43 0"/>
  <polygon class="cls-1" points="297.43 534.08 511.15 447.63 520.1 373.33 489.82 372.65 480.88 428.37 298.35 499.23 114.2 427.68 107.32 372.65 75.68 373.33 85.31 448.32 297.43 534.08"/>
  <g>
    <path class="cls-1" d="M226.72,435.21c-2.68,0-4.95-.94-6.83-2.81-1.87-1.87-2.81-4.14-2.81-6.79v-21.98c0-2.68,.94-4.95,2.83-6.83,1.88-1.87,4.16-2.81,6.81-2.81s4.95,.94,6.81,2.83c1.86,1.88,2.8,4.16,2.8,6.81v4.59h-6.3v-4.72c0-.96-.34-1.79-1.03-2.47-.69-.69-1.51-1.03-2.47-1.03s-1.78,.34-2.46,1.03c-.67,.69-1.01,1.51-1.01,2.47v22.04c0,.96,.34,1.78,1.01,2.46,.67,.67,1.49,1.01,2.46,1.01s1.79-.34,2.47-1.01c.68-.67,1.03-1.49,1.03-2.46v-5.56h6.3v5.62c0,2.68-.94,4.95-2.83,6.81-1.89,1.86-4.14,2.79-6.78,2.79Z"/>
    <path class="cls-1" d="M250.82,393.93c2.68,0,4.95,.94,6.83,2.83,1.87,1.88,2.81,4.16,2.81,6.81v21.98c0,2.68-.94,4.95-2.83,6.83-1.89,1.87-4.16,2.81-6.81,2.81s-4.95-.94-6.81-2.83c-1.86-1.88-2.79-4.15-2.79-6.81v-21.98c0-2.68,.94-4.95,2.83-6.83s4.14-2.81,6.78-2.81Zm3.31,9.51c0-.96-.34-1.78-1.01-2.46-.67-.67-1.49-1.01-2.46-1.01s-1.79,.34-2.47,1.01c-.69,.67-1.03,1.49-1.03,2.46v22.04c0,.96,.34,1.78,1.03,2.46,.69,.67,1.51,1.01,2.47,1.01s1.78-.34,2.46-1.01,1.01-1.49,1.01-2.46v-22.04Z"/>
    <path class="cls-1" d="M275.4,394.44c3.38,0,5.87,.93,7.45,2.79,1.39,1.63,2.09,3.9,2.09,6.81v5.85c0,2.85-1.08,5.26-3.25,7.23l4.5,17.57h-6.57l-3.68-15.16h-4.05v15.16h-6.07v-40.26h9.57Zm3.63,9.7c0-2.33-1.16-3.5-3.47-3.5h-3.66v12.88h3.66c.96,0,1.78-.34,2.46-1.03,.67-.69,1.01-1.51,1.01-2.47v-5.88Z"/>
    <path class="cls-1" d="M298.21,394.41l8.06,27.08v-27.08h6.07v40.29h-6.52l-8.35-25.8v25.8h-6.07v-40.29h6.82Z"/>
    <path class="cls-1" d="M317.77,434.7v-40.29h17.29v6.1h-11.21v10.99h8.19v6.1h-8.19v10.99h11.21v6.1h-17.29Z"/>
    <path class="cls-1" d="M355.78,434.7h-16.55v-40.26h6.07v34.22h10.47v6.04Z"/>
    <path class="cls-1" d="M376.5,434.7h-16.55v-40.26h6.07v34.22h10.47v6.04Z"/>
  </g>
  <polygon class="cls-1" points="387.82 417.13 387.82 396.07 466.67 396.07 387.82 417.13"/>
  <polygon class="cls-1" points="204.52 417.13 204.52 396.07 125.67 396.07 204.52 417.13"/>
  <g>
    <polygon class="cls-1" points="142.48 298.27 150.69 298.27 146.59 269.3 142.48 298.27"/>
    <path class="cls-1" d="M294.52,263.79h-6.68v23.51h6.68c1.76,0,3.26-.63,4.49-1.88,1.23-1.25,1.85-2.76,1.85-4.51v-10.73c0-4.26-2.11-6.39-6.33-6.39Z"/>
    <path class="cls-1" d="M105.07,277.39c.43-1.25,.64-2.79,.64-4.63,0-3.05-.74-5.35-2.23-6.92-1.37-1.45-3.15-2.17-5.34-2.17h-4.63v18.76h4.63c3.44,0,5.75-1.68,6.92-5.04Z"/>
    <polygon class="cls-1" points="338.79 298.27 347 298.27 342.9 269.3 338.79 298.27"/>
    <path class="cls-1" d="M98.15,293.05h-4.63v21.93h4.63c3.75,0,6.35-1.93,7.8-5.8,.51-1.33,.76-2.85,.76-4.57,0-4.11-.78-7.1-2.35-8.97-1.41-1.72-3.48-2.58-6.22-2.58Z"/>
    <polygon class="cls-1" points="222.17 298.27 230.38 298.27 226.27 269.3 222.17 298.27"/>
    <path class="cls-1" d="M576.51,228.86l-555.87-1.38L0,292.84l20.64,61.92,557.24,.69,18.58-61.92-19.95-64.67ZM43.34,306.37c-7.35,0-13.3-5.95-13.3-13.3s5.95-13.3,13.3-13.3,13.3,5.96,13.3,13.3-5.95,13.3-13.3,13.3Zm72.93,10.89c-1.37,2.54-3.3,4.57-5.81,6.1-2.81,1.72-5.61,2.58-8.39,2.58h-20.52v-73.53h16.59c4.38,0,8.33,1.15,11.85,3.46,3.01,1.95,5.16,4.98,6.45,9.09,.7,2.19,1.05,4.79,1.05,7.8,0,4.93-1.31,8.88-3.93,11.84-1.1,1.25-2.39,2.21-3.87,2.87,2.46,.94,4.55,2.8,6.27,5.57,1.13,1.88,1.97,4.3,2.52,7.27,.27,1.52,.41,3.22,.41,5.1,0,4.65-.88,8.6-2.64,11.85Zm38.66,8.68l-2.59-16.89h-11.57l-2.69,16.89h-11.54l12.49-73.47h15.24l12.31,73.47h-11.65Zm43.67-16.65c0,4.89-1.71,9.02-5.13,12.4-3.42,3.38-7.55,5.07-12.4,5.07-2.81,0-5.1-.29-6.86-.88l1.58-10.32c1.25,.23,2.33,.35,3.23,.35,.55,.04,1.33,.02,2.34-.06,1.8-.12,3.31-.76,4.54-1.94,1.23-1.17,1.85-2.64,1.85-4.4v-56.94h10.85v56.7Zm36.02,16.65l-2.59-16.89h-11.57l-2.69,16.89h-11.54l12.49-73.47h15.25l12.31,73.47h-11.65Zm67.33,0l-6.72-27.68h-7.39v27.68h-11.08v-73.47h17.47c6.17,0,10.71,1.7,13.6,5.1,2.54,2.97,3.81,7.11,3.81,12.43v10.67c0,5.2-1.97,9.6-5.92,13.2l8.21,32.07h-11.98Zm49.29,0l-2.6-16.89h-11.57l-2.69,16.89h-11.54l12.49-73.47h15.25l12.31,73.47h-11.65Zm54.4-48.32h-11.49v-8.62c0-1.76-.63-3.26-1.88-4.51-1.25-1.25-2.75-1.88-4.51-1.88s-3.25,.62-4.49,1.88c-1.23,1.25-1.85,2.76-1.85,4.51v40.22c0,1.76,.62,3.25,1.85,4.49,1.23,1.23,2.73,1.85,4.49,1.85s3.26-.62,4.51-1.85c1.25-1.23,1.88-2.73,1.88-4.49v-10.14h11.49v10.26c0,4.89-1.72,9.03-5.16,12.43-3.44,3.4-7.56,5.1-12.37,5.1s-9.04-1.71-12.46-5.13c-3.42-3.42-5.13-7.56-5.13-12.4v-40.11c0-4.89,1.72-9.04,5.16-12.46,3.44-3.42,7.58-5.13,12.43-5.13s9.03,1.72,12.43,5.16c3.4,3.44,5.1,7.59,5.1,12.43v8.38Zm20.17,48.32h-11.08v-73.47h11.08v73.47Zm48.14,0h-11.91l-15.25-47.08v47.08h-11.08v-73.53h12.44l14.71,49.42v-49.42h11.08v73.53Zm44.85-48.32h-11.49v-8.62c0-1.76-.63-3.26-1.88-4.51-1.25-1.25-2.75-1.88-4.51-1.88s-3.25,.62-4.49,1.88c-1.23,1.25-1.85,2.76-1.85,4.51v40.22c0,1.76,.62,3.25,1.85,4.49,1.23,1.23,2.73,1.85,4.49,1.85s3.26-.62,4.51-1.84c1.25-1.23,1.88-2.72,1.88-4.47v-14.44h-6.16v-11.14h17.65v25.68c0,4.89-1.72,9.03-5.16,12.43-3.44,3.4-7.56,5.1-12.37,5.1s-9.04-1.72-12.46-5.16c-3.42-3.44-5.13-7.57-5.13-12.37v-40.11c0-4.89,1.72-9.04,5.16-12.46,3.44-3.42,7.58-5.13,12.43-5.13s9.03,1.72,12.43,5.16c3.4,3.44,5.1,7.59,5.1,12.43v8.38Zm32.71,28.75c-7.35,0-13.3-5.95-13.3-13.3s5.95-13.3,13.3-13.3,13.3,5.96,13.3,13.3-5.95,13.3-13.3,13.3Z"/>
  </g>
</svg>