<?xml version="1.0" encoding="UTF-8"?>
<svg id="Layer_1" data-name="Layer 1" xmlns="http://www.w3.org/2000/svg" viewBox="0 0 198.27 236.13">
  <defs>
    <style>
      .cls-1 {
        fill: #fff;
      }
    </style>
  </defs>
  <path class="cls-1" d="M56.74,236.13c-7.4-.45-14.47-2.8-18.66-10.32-3.65-6.55-1.96-15.37,3.62-21.46,5.33-5.82,12.07-7.93,19.67-8.01,.77,0,1.56,.17,2.3,.41,1.17,.38,1.57,1.25,1.36,2.47-.19,1.13-.83,1.6-1.95,1.65-3.3,.16-6.6,.43-9.83,1.21-10.5,2.55-15.24,15.25-8.64,23.8,3.96,5.14,9.91,5.87,15.86,5.21,5.81-.64,5.76-.9,5.28-6.69-.15-1.82-.15-3.66-.24-5.49-.07-1.23-.15-2.37,1.54-2.64,1.66-.27,3,.01,3.62,1.72,.32,.89,.6,1.88,.56,2.81-.14,2.87-.25,5.74-.75,8.59-.54,3.15-2.45,4.88-5.37,5.71-2.53,.72-5.12,.97-8.38,1.04Z"/>
  <path class="cls-1" d="M122.81,161.28c1.74-.62,3.12-1.16,4.52-1.61,6.99-2.29,12.5,1.51,12.76,8.85,.15,4.19-.2,8.39,.28,12.57,.06,.52,.08,1.04,.17,1.56,.27,1.49,.06,2.45-1.81,2.63-1.94,.19-2.85-.52-2.87-2.38-.05-3.84-.03-7.69-.04-11.53,0-.52,.08-1.05,.01-1.57-.35-2.71-.69-5.54-3.57-6.81-2.84-1.25-5.47,0-7.93,1.36-1.61,.9-1.59,2.57-1.53,4.17,.17,4.8,.35,9.59,.53,14.38,.04,1.09,.49,2.38-1.42,2.34-1.52-.03-3.31,.59-3.6-1.81-.12-.95-.23-1.91-.23-2.86,.07-9.17,.17-18.34,.24-27.51,0-1.04-.1-2.09-.17-3.13-.09-1.33-1.15-2.92,1.54-3.1,2.31-.16,3.54,.51,3.62,2.84,.13,3.75-.12,7.49-.49,11.6Z"/>
  <path class="cls-1" d="M174.72,172.88c.15-3.75,.15-7.5-.26-11.25-.1-.89-.7-2.03,.6-2.48,.98-.34,2.23-.51,2.9,.5,1.26,1.89,2.6,1.29,4.23,.61,1.75-.73,3.59-1.3,5.55-1.3,4.75,0,8.26,3.03,9.03,7.74,.6,3.64,.31,7.3,.38,10.95,.03,1.76,.4,3.45,.67,5.17,.13,.84,1.26,2.24-.75,2.27-1.45,.02-3.57,1.23-4-1.41-.61-3.72-.19-7.49-.21-11.24,0-.43,.11-.87,.13-1.3,.24-7.72-4.73-10.73-11.61-7.15-1.72,.9-2.03,2.2-2.03,3.85,0,4.98-.12,9.97,.06,14.94,.08,2.22-1.14,2.82-2.8,2.87-1.86,.07-1.87-1.5-1.88-2.82-.03-3.32,0-6.64-.01-9.96Z"/>
  <path class="cls-1" d="M119.86,210.77c.8-.37,1.1-.58,1.42-.65,2.88-.68,3.88-2.36,3.14-5.28-.33-1.29-.55-2.77,1.7-2.95,2.13-.17,2.5,1.04,2.67,2.64,.04,.35,.14,.7,.09,1.04-.34,2.56,.67,3.66,3.29,3.23,1.2-.19,2.69,.21,2.71,1.37,.02,1.4-1.56,1.62-2.81,1.72-3.79,.3-3.95,.47-3.96,4.35,0,3.92-.03,7.85,.01,11.77,.03,2.5,.69,4.5,3.82,4.45,1.47-.02,1.65,.6,.65,1.72-1.95,2.21-5.95,1.72-7.47-.99-1.02-1.81-1.16-3.82-1.2-5.83-.07-3.05-.11-6.11-.09-9.16,.03-3.1,.7-6.44-3.99-7.43Z"/>
  <path class="cls-1" d="M114.06,211.7c-1.93,.18-4.05,.74-5.1,2.69-1,1.85,.27,3.53,1.47,4.92,1.07,1.25,2.35,2.32,3.51,3.5,4.59,4.67,1.95,10.04-3.19,12.29-1.73,.76-3.58,1.41-5.58,.73-1.24-.43-2.02-1.14-1.77-2.48,.28-1.46,1.28-1.57,2.59-1.23,2.31,.59,4.6,.05,5.68-2.02,1.11-2.13-.42-3.96-1.99-5.48-1.56-1.5-3.41-2.66-4.59-4.59-1.55-2.51-1.73-4.68-.06-7.01,2.24-3.13,5.55-4.39,9.2-4.72,1.2-.11,2.42,.36,2.36,2.1-.07,1.75-1.08,1.68-2.53,1.31Z"/>
  <path class="cls-1" d="M145.68,213.44c1.41-1.3,2.51-2.52,3.82-3.46,1.5-1.08,3.29-1.94,5.02-.61,1.28,.98,2.01,2.47,1.29,4.16-.4,.94-.78,1.83-2.31,1.24-4.46-1.72-7.99,.93-7.89,5.87,.08,4.09,.23,8.19,.46,12.28,.06,1.1,.06,1.96-1.25,2.09-1.24,.12-2.64,.67-3.32-1.1-.46-1.18-.43-2.4-.43-3.61,.02-6.54,.06-13.08,.1-19.63,0-.77-.19-1.66,.94-1.83,1.07-.16,2.16-.21,2.61,1.08,.34,.98,.56,2.01,.96,3.52Z"/>
  <path class="cls-1" d="M130.05,40.45c-7.94-15.27-26.52-24.78-43.31-21.24-9.97,2.1-18.98,6.4-26.71,13.18-3.57,3.13-4.83,2.93-7.85-.83-3.15-3.92-4.84-8.47-5.91-13.28-.83-3.74-1.24-7.59-2.21-11.3-1.39-5.31-5.36-7.85-10.12-6.72-4.69,1.12-9.14,2.93-13.4,5.18-3.19,1.68-4.75,4.36-4.12,8,1.78,10.25,3.78,20.46,8.65,29.8,4.1,7.86,9.16,14.88,17.47,18.88,4.62,2.23,9.53,2.64,14.56,2.51,2.46-.07,5.03,.07,6.91,1.84,2.74,2.58,5.3,5.44,6.65,9,5.3,14.01,2.43,30.09-8.36,41.07-3.89,3.95-8.71,5.32-14.18,4.32-1.8-.33-3.59-.75-5.4-1.01-5.86-.83-11.81-2.48-17.62-.34-11.43,4.21-18.94,12.39-23.06,23.8-5.25,14.53-.1,31,12.62,39.72,7.87,5.39,16.84,6.91,27.23,6.94,10.14-.13,20.95-2.49,31.66-5.46,1.94-.54,3.56-1.76,4.07-3.74,1.91-7.33,1.62-14.39-3.22-20.68-2.73-3.54-5.41-4.28-9.66-2.84-2.97,1.01-5.94,2.05-8.95,2.95-5.79,1.73-11.62,3.13-17.77,2.48-4-.42-7.39-2.68-8.32-5.79-.76-2.55,.54-5.78,3.23-7.72,2.33-1.68,4.95-2.03,7.74-1.47,5.48,1.1,10.9,2.44,16.23,4.12,18.54,5.84,35.69,2.2,50.85-9.1,20.45-15.25,30.2-36.54,31.77-61.74,.9-14.43-2.82-27.76-9.46-40.54Zm2.46,61.04c-4.87,16.23-13.63,29.81-27.59,39.68-14,9.9-29.33,12.43-45.83,7.66-5.03-1.45-9.9-3.41-15.1-4.27-3.72-.62-7.33-.17-10.83,1.06-3.77,1.33-5.61,4.36-6.19,8.1-.59,3.81,.79,7.08,3.69,9.58,4.09,3.53,8.96,4.05,14.07,3.25,7.29-1.14,13.99-4.34,21.11-6.08,3.95-.96,5.34-.45,7.14,3.11,2.2,4.36,3.71,8.84,2.51,13.85-.61,2.53-1.9,4.27-4.52,4.86-11.67,2.65-23.34,5.16-35.45,4.62-20.12-.9-34.1-16.5-32.34-36.31,1.05-11.85,13.13-26.05,24.55-28.78,1.71-.41,3.44-.33,5.1,.51,4.16,2.09,7.61,4.71,9.48,8.53,.44,.9,.74,2.59,1.49,5.91,.25,1.12,.44,2.04,.56,2.64,1.72-5.81,1.85-11.3-2.78-15.95,10.58-1.19,18.49,4.19,21.88,14.73,.32,1,.27,2.98,1.29,2.74,1.43-.34,1.44-2.26,1.25-3.63-.62-4.35-2.6-8.14-5.38-11.47-1.07-1.29-1.08-1.93,.13-3.1,4.57-4.44,9.52-8.64,11.95-14.76,5.63-14.16,5.43-27.94-3.31-40.95-2.51-3.73-6.23-5.49-10.69-5.66-2.96-.11-5.98,.15-8.89-.29-7.38-1.11-12.59-5.73-16.99-11.35-7.25-9.28-10.63-20.12-12.32-31.59-.17-1.12-.39-2.23-.59-3.35-.83-4.77-.3-5.95,4.02-8.07,3.97-1.95,8.29-2.7,12.62-3.25,2.55-.33,3.45,1.58,4.02,3.64,1.55,5.64,3.08,11.28,4.63,16.92,1.31,4.74,3.65,8.79,7.48,12.03,3.15,2.67,4.63,2.97,7.59,0,4.31-4.32,9.13-7.81,14.76-10.22,8.83-3.78,17.94-5.22,27.38-3.1,11.94,2.68,20.56,9.91,25.95,20.66,9.38,18.71,10.11,38.19,4.14,58.07Z"/>
  <path class="cls-1" d="M172.3,208.2c-8.83-.1-14.93,5.56-14.97,13.88-.04,8.05,5.5,13.79,13.43,13.92,7.96,.13,14.86-6.54,14.89-14.39,.03-7.7-5.57-13.33-13.35-13.41Zm-1.1,24.22c-5.44-.03-9.35-4.27-9.32-10.08,.04-6.26,3.91-10.61,9.46-10.63,5.77-.02,9.78,4.21,9.76,10.27-.02,6.19-4.08,10.47-9.9,10.44Z"/>
  <path class="cls-1" d="M98.35,158.38c-8.45,.21-14.42,6.23-14.29,14.4,.13,7.92,6.1,13.67,13.95,13.45,8.31-.23,14.58-6.86,14.34-15.14-.22-7.54-6.12-12.9-14-12.7Zm-.47,24.27c-5.47-.05-9.38-4.43-9.27-10.38,.12-6.3,3.99-10.28,9.95-10.24,5.58,.04,9.26,4.04,9.19,10-.07,6.63-3.82,10.67-9.86,10.61Z"/>
  <path class="cls-1" d="M96.64,232.89c.01-2.62,0-5.24,0-7.86-.04,0-.08,0-.12,0-.13-2.52-.34-5.05-.38-7.57-.06-3.38-1.07-6.37-4.37-7.65-4.29-1.66-8.68-1.82-12.72,.97-.41,.28-.69,.77-.95,1.22-.61,1.04,.04,1.83,.68,2.51,.76,.8,1.2-.1,1.71-.47,2.69-1.94,5.6-2.16,8.67-1.15,1.75,.58,2.65,1.78,2.85,3.65,.13,1.21,0,1.65-1.4,1.67-3.56,.07-7.14,.26-10.44,1.86-2.94,1.42-4.85,4.87-4.59,8.16,.27,3.54,2.42,6.11,5.79,7.27,3.39,1.17,6.31-.13,9.25-1.46,.88-.4,1.65-1,2.31,.37,.53,1.09,1.49,1.28,2.67,.85,1.26-.46,1.04-1.45,1.04-2.38Zm-4.31-5.79c-1.04,3.57-3.76,5.56-7.31,5.36-3.09-.18-5.06-1.95-5.25-4.7-.23-3.49,1.05-5.15,4.52-5.76,1.28-.22,2.52-.73,3.68-.51,3.57,0,5.31,2.34,4.36,5.61Z"/>
  <path class="cls-1" d="M153.57,173.28c.96,.07,1.91,.12,2.87,.18,2.63,.35,5.23,.08,7.81-.37,3.88-.68,5.77-4.28,4.2-7.9-2.03-4.67-7.64-7.33-12.6-5.96-7.23,1.99-11.4,9.83-9.39,17.65,1.74,6.78,9.05,10.82,16.49,9.1,1.37-.32,2.72-.67,3.7-1.78,.65-.74,.71-1.53,.27-2.41-.5-1.01-1.17-.64-1.97-.42-2.78,.77-5.61,1.31-8.5,.73-2.98-.6-5-2.33-5.76-5.33-.8-3.16-.29-3.74,2.87-3.49Zm-2.74-4.34c1.13-4.88,6.07-7.68,10.64-5.92,1.26,.48,2.27,1.29,2.86,2.53,1.09,2.26,.01,4.31-2.45,4.49-1.64,.12-3.3,.02-4.96,.02,0,.07,0,.13,0,.2-1.66,0-3.32-.03-4.98,0-.97,.02-1.4-.13-1.13-1.32Z"/>
</svg>