<?xml version="1.0" encoding="UTF-8"?>
<svg id="Layer_2" data-name="Layer 2" xmlns="http://www.w3.org/2000/svg" viewBox="0 0 847.32 334.19">
  <defs>
    <style>
      .cls-1 {
        stroke: #fff;
        stroke-miterlimit: 10;
        stroke-width: 2.62px;
      }

      .cls-1, .cls-2 {
        fill: #fff;
      }
    </style>
  </defs>
  <g id="Layer_1-2" data-name="Layer 1">
    <g>
      <g>
        <path class="cls-2" d="M493.65,86.65c-3.11,6.91-5.36,13.42-7.02,19.23-2.92-1.57-6.39-3.18-10.38-4.58-2.59-.91-5.05-1.6-7.33-2.14h-69.01c-3.13,.2-6.9,.99-10.37,3.36-2.37,1.61-3.9,3.49-4.88,4.88-3.91,5.57-28.83,46.02-62.59,101.67-.13,.16-1.85,2.43-.92,5.19,.64,1.9,2.28,3.3,4.27,3.66h80.91c1.87-.15,4.16-.49,6.71-1.22,2.74-.79,4.99-1.81,6.72-2.75-8.75,11.3-17.5,22.59-26.26,33.89h-131.59c-2.17-.19-8.77-1.05-13.74-6.41-6.58-7.11-5.24-16.67-4.88-19.23,.57-4.09,2-7.24,3.05-9.16,22.8-36.84,45.59-73.68,68.39-110.52,5.21-7.36,10.71-12.24,14.65-15.27,4.58-3.51,17.01-12.77,34.29-13.49,2.26-.09,4.13-.02,5.4,.06h131.13c-2.21,3.83-4.44,8.1-6.56,12.82Z"/>
        <path class="cls-2" d="M545.73,73.02c.17,1.07,.29,2.27,.33,3.57,.07,2.37-.17,4.45-.5,6.14,0,0-.55,4.18-2.9,7.94-29.15,46.77-58.3,93.55-87.45,140.32-2.27,2.7-5.04,5.66-8.39,8.66-3.25,2.91-6.4,5.29-9.25,7.23h179.19c8.09-10.49,16.18-20.99,24.28-31.48-3.07,1.13-6.6,2.23-10.56,3.14-3.92,.91-7.55,1.46-10.78,1.8h-82.65c21.49-35.63,42.97-71.27,64.46-106.9,3.44-6.09,7.58-12.69,12.58-19.54,5.94-8.15,11.94-15.09,17.52-20.89-28.62,0-57.25,0-85.87,0Z"/>
        <path class="cls-2" d="M762.19,71.35c.18,1.73,.24,3.8,0,6.12-.47,4.55-1.9,8.15-3.1,10.54-28.44,46.14-56.89,92.28-85.33,138.43-2.03,3.37-4.78,7.32-8.47,11.36-3.01,3.3-6,5.96-8.68,8.06,28.19,0,56.38-.02,84.57-.03-.23-.22-1.67-1.64-1.46-3.59,.07-.64,.29-1.15,.5-1.51,51.11-87.34,89.81-150.28,94.48-155.41,3.31-3.63,7.02-7.64,7.02-7.64,2.36-2.55,4.3-4.63,5.58-5.99-28.37-.11-56.75-.22-85.12-.33Z"/>
        <g>
          <path class="cls-2" d="M237.99,293.08c-.57,1.26-.98,2.45-1.28,3.51-.53-.29-1.16-.58-1.89-.83-.47-.17-.92-.29-1.34-.39-3.92,.05-7.85,.1-11.77,.15-.54-.03-1.16,.04-1.68,.41-.6,.41-.82,1.03-.87,1.16-.46,1.14-4.82,7.53-12.45,18.32-.02,.03-.34,.44-.17,.95,.12,.35,.42,.6,.78,.67h14.75c.34-.03,.76-.09,1.22-.22,.5-.14,.91-.33,1.22-.5-1.6,2.06-3.19,4.12-4.79,6.18h-23.99c-.4-.03-1.6-.19-2.5-1.17-1.2-1.3-.96-3.04-.89-3.51,.12-.86,.45-1.47,.56-1.67,3.17-5.8,13.09-18.74,15.35-22.23,.2-.31,.67-1.06,1.57-1.73,1.73-1.29,3.86-1.41,4.48-1.43,.52-.02,.9,.01,.99,.01h23.91c-.4,.7-.81,1.48-1.2,2.34Z"/>
          <path class="cls-2" d="M256.3,299.39c-3.92,5.07-7.84,10.13-11.76,15.2-.92,.91-1.37,1.74-1.12,2.1,.06,.09,.21,.23,.7,.21,2.43,.04,4.86,.07,7.29,.11,4.72-5.89,9.44-11.78,14.15-17.66h11.49c-4.13,5.63-8.37,11.28-12.74,16.94-.88,1.14-1.76,2.27-2.63,3.4-.11,.95-.21,1.89-.32,2.84-.61-.02-1.22-.04-1.84-.06-12.25,.41-21.28,.23-23.99,0-.4-.03-1.6-.19-2.5-1.17-1.19-1.28-.92-3.28-.89-3.51,.1-.75,.37-1.32,.56-1.67,4.05-5.59,8.11-11.17,12.16-16.76,3.82,0,7.63,.02,11.45,.03Z"/>
          <path class="cls-2" d="M315.22,299.64c-8.7,0-17.4,.02-26.1,.03-.41,.06-.99,.19-1.64,.5-.67,.32-1.14,.71-1.44,1-3.17,3.68-6.34,7.36-9.52,11.05-.55,.48-.73,1.23-.46,1.83,.31,.7,1.08,.85,1.15,.86h16.1c-1,1-2.01,2.01-3.01,3.01-.14,.16-.4,.42-.8,.61-.54,.25-1.04,.22-1.26,.19-6.08,0-12.17,0-18.25,0-.94,1.23-1.88,2.46-2.81,3.69h24.14c1.04-.02,2.92-.2,4.92-1.29,1.16-.64,2.01-1.39,2.58-1.99,3.71-3.91,7.42-7.81,11.13-11.72-6.52,0-13.04,.01-19.56,.02,.24-.43,.6-1.03,1.09-1.73,.87-1.25,1.4-2,2.3-2.5,.73-.41,1.4-.55,1.81-.55,5.55-.01,11.1-.03,16.66-.04,.02,0,.17,0,.26,.11,.05,.06,.06,.13,.06,.16,.89-1.08,1.77-2.16,2.66-3.23Z"/>
          <path class="cls-2" d="M320.45,299.38c-.35,.88-.7,1.76-1.06,2.64h25.44c.56-.95,1.12-1.9,1.69-2.85-8.69,.07-17.38,.14-26.07,.21Z"/>
          <path class="cls-2" d="M330.27,294.1c-6.12,7.64-12.25,15.27-18.37,22.91-.76,1.01-.93,2.31-.42,3.38,.58,1.23,1.83,1.64,2.01,1.69,.42,.13,.79,.15,1.05,.14,5.77-.05,11.55-.09,17.32-.14,.9-1.48,1.8-2.97,2.7-4.45-3.52,.06-7.05,.13-10.57,.19-.36,0-.66-.22-.72-.51-.06-.29,.13-.52,.16-.55,5.72-7.55,11.44-15.1,17.16-22.65h-10.31Z"/>
          <path class="cls-2" d="M382.86,300.63c.29,.54,.31,1.09,.28,1.47-1.72,3.34-4.11,7.3-7.43,11.4-2.56,3.15-5.13,5.73-7.45,7.79-.42,.32-1.12,.76-2.08,.98-.48,.11-.91,.14-1.26,.14-1.38,.02-2.76,.05-4.14,.07,.02-1.4,.03-2.8,.05-4.19,.15,0,.41-.02,.7-.15,.33-.15,.52-.37,.62-.49,3.3-4.65,6.61-9.3,9.91-13.95,0-.05,.07-.51-.27-.87-.39-.41-.95-.29-.98-.28-2.88,.05-5.76,.1-8.64,.15-.39-.02-.85,.03-1.23,.3-.44,.31-.6,.76-.64,.85-.33,.84-3.51,5.54-9.09,13.48-.02,.02-.25,.33-.12,.7,.09,.25,.31,.44,.57,.49,3.06-.07,6.12-.15,9.17-.22-.02,1.4-.03,2.8-.05,4.19-5.87,.02-11.74,.04-17.61,.07-.29-.02-1.17-.14-1.84-.85-.88-.95-.71-2.23-.66-2.57,.09-.63,.33-1.08,.4-1.23,2.31-4.26,9.56-13.79,11.21-16.36,.14-.22,.49-.78,1.14-1.27,1.26-.95,2.83-1.04,3.28-1.07,.31-.01,.55,0,.67,0,.03,0,.05,0,.06,0,.23,.01,6.49,0,22.02-.07,1.5-.15,2.85,.44,3.42,1.51Z"/>
          <path class="cls-2" d="M399.48,322.47c3.92-5.07,7.84-10.13,11.76-15.2,.92-.91,1.37-1.74,1.12-2.1-.06-.09-.21-.23-.7-.21-2.43-.04-4.86-.07-7.29-.11-4.72,5.89-9.44,11.78-14.15,17.66h-11.49c4.13-5.63,8.37-11.28,12.74-16.94,.88-1.14,1.76-2.27,2.63-3.4,.11-.95,.21-1.89,.32-2.84,.61,.02,1.22,.04,1.84,.06,12.25-.41,21.28-.23,23.99,0,.4,.03,1.6,.19,2.5,1.17,1.19,1.28,.92,3.28,.89,3.51-.1,.75-.37,1.32-.56,1.67-4.05,5.59-8.11,11.17-12.16,16.76-3.82,0-7.63-.02-11.45-.03Z"/>
          <path class="cls-2" d="M420.88,322.47c3.92-5.07,7.84-10.13,11.76-15.2,.92-.91,1.37-1.74,1.12-2.1-.06-.09-.21-.23-.7-.21-2.43-.04-4.86-.07-7.29-.11-4.72,5.89-9.44,11.78-14.15,17.66h-11.49c4.13-5.63,8.37-11.28,12.74-16.94,.88-1.14,1.76-2.27,2.63-3.4,.11-.95,.21-1.89,.32-2.84,.61,.02,1.22,.04,1.84,.06,12.25-.41,21.28-.23,23.99,0,.4,.03,1.6,.19,2.5,1.17,1.19,1.28,.92,3.28,.89,3.51-.1,.75-.37,1.32-.56,1.67-4.05,5.59-8.11,11.17-12.16,16.76-3.82,0-7.63-.02-11.45-.03Z"/>
          <path class="cls-2" d="M478.14,291.37c-7.32,9.19-14.64,18.39-21.96,27.58-.43,.62-1.12,1.46-2.13,2.23-.8,.61-1.57,1.01-2.18,1.28,10.27,0,20.55-.02,30.82-.02,1.33-1.72,2.66-3.45,3.99-5.17-.5,.18-1.08,.37-1.73,.52-.64,.15-1.24,.24-1.77,.3-5.1-.07-10.2-.14-15.29-.22,7.29-8.85,14.58-17.69,21.87-26.54-3.87,.02-7.75,.03-11.62,.05Z"/>
          <path class="cls-2" d="M526.22,310.94c-6.28,.02-12.56,.05-18.84,.07-.63,.75-1.55,1.9-2.6,3.36-2.54,3.52-2.39,4.1-2.25,4.33,.33,.56,1.3,.42,4.18,.36,2.01-.04,3.64-.01,4.67,.02,.07,0,.19,0,.32-.06,.12-.05,.19-.12,.24-.17,3.75-5.46,7.5-10.92,11.26-16.38,.01-.06,.03-.19-.03-.32-.09-.19-.31-.31-.55-.31-5.64-.03-11.28-.06-16.92-.09,.8-.87,1.6-1.74,2.4-2.61,5.91,0,11.82,0,17.72,0h6.73c1.1-.06,2.09,.43,2.55,1.27,.3,.55,.28,1.11,.25,1.39-3.51,4.74-7.1,9.51-10.78,14.28-.88,1.14-1.76,2.27-2.63,3.4l-.32,2.84c-.61-.02-1.22-.04-1.84-.06-12.25,.41-21.28,.23-23.99,0-.4-.03-1.6-.19-2.5-1.17-1.19-1.28-.92-3.28-.89-3.51,.1-.75,.37-1.32,.56-1.67,2.09-2.54,4.19-5.08,6.28-7.62,.18-.25,.63-.77,1.4-1.08,.53-.21,1-.23,1.29-.22h19.22c1.7,1.31,3.39,2.63,5.09,3.94Z"/>
          <path class="cls-2" d="M577.25,299.44c-8.7,0-17.4,.02-26.1,.03-.41,.06-.99,.19-1.64,.5-.67,.32-1.14,.71-1.44,1-3.17,3.68-6.34,7.36-9.52,11.05-.55,.48-.73,1.23-.46,1.83,.31,.7,1.08,.85,1.15,.86h16.1c-1,1-2.01,2.01-3.01,3.01-.14,.16-.4,.42-.8,.61-.54,.25-1.04,.22-1.26,.19-6.08,0-12.17,0-18.25,0-.94,1.23-1.88,2.46-2.81,3.69h24.14c1.04-.02,2.92-.2,4.92-1.29,1.16-.64,2.01-1.39,2.58-1.99,3.71-3.91,7.42-7.81,11.13-11.72-6.52,0-13.04,.01-19.56,.02,.24-.43,.6-1.03,1.09-1.73,.87-1.25,1.4-2,2.3-2.5,.73-.41,1.4-.55,1.81-.55,5.55-.01,11.1-.03,16.66-.04,.02,0,.17,0,.26,.11,.05,.06,.06,.13,.06,.16,.89-1.08,1.77-2.16,2.66-3.23Z"/>
          <path class="cls-2" d="M578.87,310.4c6.28-.02,12.56-.05,18.84-.07,.63-.75,1.55-1.9,2.6-3.36,2.54-3.52,2.39-4.1,2.25-4.33-.33-.56-1.3-.42-4.18-.36-2.01,.04-3.64,.01-4.67-.02-.07,0-.19,0-.32,.06-.12,.05-.19,.12-.24,.17-3.8,5.34-7.6,10.67-11.4,16.01-.1,.19-.21,.49-.08,.71,.16,.28,.62,.29,.81,.29,.89,.02,7.66,.06,16.92,.09-.8,.87-1.6,1.74-2.4,2.61-5.91,0-11.82,0-17.72,0h-6.73c-1.1,.06-2.09-.43-2.55-1.27-.3-.55-.28-1.11-.25-1.39,5.12-6.82,9.01-11.93,10.78-14.28,0,0,.46-.61,2.65-3.05,1.23-1.37,1.85-2,2.84-2.44,.97-.43,1.88-.5,2.48-.5,7.03-.04,14.05-.09,21.08-.13,.44,.06,1.42,.3,2.23,1.11,0,0,1.18,1.29,.89,3.48,0,.01,0,.02,0,.03-.1,.75-.37,1.32-.56,1.67-2.09,2.54-4.19,5.08-6.28,7.62-.18,.25-.63,.77-1.4,1.08-.53,.21-1,.23-1.29,.22h-19.22c-1.7-1.31-3.39-2.63-5.09-3.94Z"/>
          <path class="cls-2" d="M626.35,299.03c-6.15,7.55-12.3,15.1-18.45,22.65h12.45c-.08-.08-.68-.66-.62-1.56,.06-.99,.86-1.51,.93-1.56,3.46-4.33,6.91-8.66,10.37-12.98,.2-.19,.52-.46,.97-.66,.55-.25,1.04-.3,1.34-.32,4.01-.08,8.03-.15,12.04-.23,1.33-1.62,2.67-3.23,4-4.85-3.68-.05-6.8-.08-9.42-.14-.88-.02-2.36-.06-4.05,.66-1.14,.49-1.97,1.15-2.5,1.65,.57-.83,1.13-1.66,1.7-2.5-2.93-.06-5.85-.11-8.78-.17Z"/>
          <path class="cls-2" d="M672.6,290.34c4.53,.05,9.06,.09,13.59,.14-.7,.48-1.44,1.04-2.19,1.71-1.51,1.33-2.67,2.69-3.53,3.88-5.97,7.82-11.93,15.64-17.9,23.46-.14,.39-.31,.97-.31,1.71,0,.53,.08,.99,.17,1.32h-15.38c.61-.31,1.29-.7,1.99-1.21,.99-.71,1.77-1.45,2.36-2.1,7.06-8.93,14.12-17.87,21.18-26.8,.06-.05,.51-.43,.5-1.07,0-.62-.43-.98-.49-1.03Z"/>
          <path class="cls-2" d="M692.74,322c3.92-5.07,7.84-10.13,11.76-15.2,.92-.91,1.37-1.74,1.12-2.1-.06-.09-.21-.23-.7-.21-2.43-.04-4.86-.07-7.29-.11-4.72,5.89-9.44,11.78-14.15,17.66h-11.49c4.13-5.63,8.37-11.28,12.74-16.94,.88-1.14,1.76-2.27,2.63-3.4,.11-.95,.21-1.89,.32-2.84,.61,.02,1.22,.04,1.84,.06,12.25-.41,21.28-.23,23.99,0,.4,.03,1.6,.19,2.5,1.17,1.19,1.28,.92,3.28,.89,3.51-.1,.75-.37,1.32-.56,1.67-4.05,5.59-8.11,11.17-12.16,16.76-3.82,0-7.63-.02-11.45-.03Z"/>
          <path class="cls-2" d="M749.67,301.01c-.42,.93-.72,1.81-.95,2.6-.39-.21-.86-.43-1.4-.62-.35-.12-.68-.22-.99-.29-2.91,.04-5.81,.08-8.72,.11-.4-.02-.86,.03-1.25,.3-.44,.31-.61,.76-.64,.86-.34,.85-3.57,5.58-9.22,13.56-.02,.02-.25,.33-.12,.7,.09,.26,.31,.45,.58,.49h10.92c.25-.02,.56-.07,.91-.16,.37-.11,.67-.24,.91-.37-1.18,1.52-2.36,3.05-3.54,4.57h-17.76c-.29-.03-1.18-.14-1.85-.87-.89-.96-.71-2.25-.66-2.6,.09-.64,.33-1.09,.41-1.24,2.35-4.29,9.69-13.88,11.36-16.46,.15-.23,.5-.78,1.16-1.28,1.28-.96,2.86-1.04,3.32-1.06,.38-.02,.67,0,.73,0h17.7c-.3,.52-.6,1.09-.89,1.73Z"/>
        </g>
      </g>
      <path class="cls-2" d="M238.47,177.94c-35.77-4.54-71.53-9.08-107.3-13.62C151.3,109.55,171.42,54.77,191.55,0c-26.05,50.51-52.09,101.02-78.14,151.53-20.18-29.86-40.37-59.72-60.55-89.57,15.68,32.4,31.37,64.81,47.05,97.21-33.3,2.02-66.61,4.04-99.91,6.06,32.83,5.58,65.66,11.17,98.49,16.75-18.66,50.73-37.31,101.47-55.97,152.2,24.04-46.72,48.08-93.45,72.13-140.17,22.28,28.67,44.56,57.34,66.84,86.01-16.15-33.61-32.31-67.23-48.46-100.84,35.15-.42,70.29-.84,105.44-1.25Zm-123.66,10.75c-8.92,0-16.16-7.23-16.16-16.16s7.23-16.16,16.16-16.16,16.16,7.23,16.16,16.16-7.23,16.16-16.16,16.16Z"/>
      <path class="cls-1" d="M107.33,166.71h14.95"/>
      <path class="cls-1" d="M114.81,159.77v28.22"/>
    </g>
  </g>
</svg>