<?xml version="1.0" encoding="UTF-8"?>
<svg id="Layer_1" data-name="Layer 1" xmlns="http://www.w3.org/2000/svg" viewBox="0 0 205.64 44.02">
  <defs>
    <style>
      .cls-1 {
        fill: #fff;
      }
    </style>
  </defs>
  <path class="cls-1" d="M32.64,32.33l-1.22,4.05H0L9.95,5.2h31l-1.54,4.5-17.18-.03-2.79,8.52h16.3l-1.47,4.19-16.09,.07-3.07,9.81m20.77,4.15h13.37L59.03,5.24h-13.16m82.56,8.48c6.95,0,8.97,2.13,6.98,8.41l-4.36,14.28h-12.53l.7-2.55h-.1c-1.36,2.06-2.62,2.55-6.53,2.55h-10.65c-6.49,0-7.23-2.13-5.73-6.91l.52-1.64c1.5-4.78,4.71-6.46,8.9-6.46h14.56c2.02,0,2.65-.84,3-1.92,.31-1.01,.21-2.09-1.82-2.09l-20.04-.03,.91-3.6m11.69,11.62c-2.23,.03-3.18,.28-3.7,1.95l-.84,2.62c-.52,1.68,.28,3,2.44,3.04h4.33c2.76,0,3.04-1.43,3.94-4.36l1.01-3.25h-7.19Zm-19.62-11.66h-6.63l-15.12,8.41s-.52,.28-.63,.28c-.31,0-.56-.24-.56-.56,0-.07,.03-.14,.03-.14l5.31-16.51h-13.2l-9.6,31.21h13.3l2.58-9.11,3.81-2.02,3.46,11.14h15.33l-7.19-17.73m54.35-3.74c.21,0,.35-.03,.42-.28,.03-.21-.21-.24-.38-.24h-.31l-.14,.52m-.07,.38l-.21,.91h-.49l.52-2.13h.8c.56,0,.84,.17,.73,.66-.1,.38-.35,.56-.73,.56l.31,.94h-.49l-.28-.91h-.17v-.03Zm1.78-.17c.21-.87-.28-1.5-1.05-1.5s-1.57,.63-1.78,1.5,.24,1.5,1.05,1.5,1.57-.63,1.78-1.5Zm-3.46,0c.31-1.22,1.47-1.95,2.51-1.95s1.85,.73,1.54,1.95-1.47,1.95-2.51,1.95-1.82-.73-1.54-1.95Z"/>
  <g>
    <path class="cls-1" d="M164.07,24.51c-3.25-1.19-5.97-2.51-8.1-3.87-.77,.56-1.29,1.22-1.47,1.95-.17,.66-.1,1.36,.14,2.06,2.72-.35,5.97-.38,9.43-.14Z"/>
    <path class="cls-1" d="M171.23,26.67c-.98-.24-1.95-.52-2.9-.8-5.1-.56-9.53-.1-12.43,.87,2.48,2.86,7.68,5.52,14.07,7.05,8.73,2.13,18.47,2.55,19.34-.84,.14-.52,.03-1.05-.31-1.61-.56-.94-1.82-1.92-3.46-2.76-4.08,.03-9.11-.59-14.31-1.92Z"/>
    <path class="cls-1" d="M168.33,17.21c-4.01-1.36-7.4-2.9-9.91-4.54-.87,.59-1.43,1.29-1.61,2.06-.21,.8-.1,1.64,.31,2.51,3.21-.42,7.12-.45,11.21-.03Z"/>
    <path class="cls-1" d="M197.83,0l-40.6,.03c-4.22,0-7.51,1.71-9.01,6.56l-9.63,30.41c-1.54,4.85-.77,7.02,5.79,7.02h42.8c4.22,0,7.51-1.71,9.01-6.56l8.73-28.9c1.99-6.39-.03-8.55-7.09-8.55Zm-.49,17.73c-.59,1.85-3.74,2.86-8.17,3.04,2.55,1.05,4.61,2.37,5.34,3.6,.28,.49,.35,.87,.24,1.26-.59,1.78-3.6,2.79-7.89,3,2.55,1.05,4.61,2.37,5.34,3.6,.28,.45,.35,.87,.24,1.26-1.15,3.56-11.94,4.08-23.49,1.12-6.74-1.71-12.18-3.98-15.74-6.39-.59,.52-1.01,1.08-1.15,1.71-.24,.98-.03,1.99,.59,3.04,1.95,3.21,7.68,6.32,14.91,8.06,4.61,1.12,14.31,2.13,20.67,.03h.03l-.07,.07c-5.73,2.09-14.63,2.34-21.64,.63-9.88-2.41-17.38-6.25-19.65-9.98-.63-1.05-.84-2.06-.59-3,.31-1.33,1.75-2.37,3.91-3.11-1.26-1.43-1.82-2.86-1.47-4.19,.35-1.4,1.85-2.48,4.15-3.25-1.57-1.57-2.27-3.14-1.89-4.61,.38-1.43,1.99-2.55,4.4-3.32-1.47-1.54-2.13-3.11-1.78-4.54,1.15-4.54,14.8-5.97,27.54-2.86,.07,.07,.63,.56,.63,.56,.21,.17,.42,.35,.59,.52-9.15-2.34-17.45-1.5-20.98,.59-1.12,.63-1.82,1.43-2.02,2.3-.17,.8-.07,1.64,.31,2.51,5.24-.66,12.18-.28,18.89,1.36,.07,.07,.63,.56,.63,.56,.21,.17,.42,.35,.59,.52-7.54-1.92-14.49-1.68-18.68-.38,2.55,2.69,7.61,5.17,13.72,6.67,3.46,.84,7.12,1.4,10.3,1.57-.59-.21-1.15-.38-1.78-.52-.1-.03-.14-.07-.14-.07,0,0,.07-.03,.21,0,.94,.14,1.89,.35,2.79,.63,4.26,.1,7.47-.59,7.96-2.48,.14-.52,.03-1.05-.31-1.61-1.05-1.71-4.22-3.46-7.92-4.33-.1-.03-.14-.07-.14-.07,.03,0,.07-.03,.21,0,4.75,.77,9.81,3.18,11.07,5.24,.28,.45,.35,.87,.24,1.26Z"/>
    <path class="cls-1" d="M174.48,18.99c-6.46-1.19-12.25-.84-15.88,.35,2.16,2.23,5.93,4.29,10.61,5.76,1.5,.24,3.04,.52,4.57,.91,.03,.07,.24,.24,.42,.38,3,.63,6.04,1.05,8.73,1.15-.59-.17-1.19-.38-1.82-.52-.1-.03-.14-.07-.14-.07,0,0,.07-.03,.21,0,.91,.14,1.85,.38,2.79,.63,4.08,.07,7.16-.66,7.65-2.48,.14-.52,.03-1.05-.31-1.61-.56-.94-1.82-1.92-3.49-2.72-3.84,0-8.48-.59-13.34-1.78Z"/>
  </g>
</svg>