<svg version="1.1" id="Layer_1" xmlns="http://www.w3.org/2000/svg" xmlns:xlink="http://www.w3.org/1999/xlink" x="0px" y="0px"
	 width="100%" viewBox="0 0 1157 375" enable-background="new 0 0 1157 375" xml:space="preserve">
<path fill="#FFFFFFFFFF" opacity="1.000000" stroke="none" 
	d="
M1158.000000,230.000000 
	C1158.000000,257.690002 1158.000000,285.379974 1157.541748,313.576019 
	C1155.585693,314.090179 1154.043823,314.335052 1152.598022,314.064880 
	C1146.751709,312.972290 1144.463501,315.891052 1143.072388,321.185394 
	C1141.108887,328.657410 1138.366821,335.924835 1135.612183,344.334625 
	C1132.414062,334.658081 1129.669922,326.125549 1126.719604,317.664948 
	C1126.250732,316.320709 1124.960693,314.425995 1123.865234,314.291443 
	C1120.340332,313.858551 1116.729004,314.130280 1112.482788,314.130280 
	C1113.169922,316.556274 1113.511353,318.143280 1114.064209,319.652832 
	C1118.063110,330.572479 1122.022949,341.507507 1126.155273,352.376831 
	C1130.398438,363.538452 1128.818359,366.002472 1117.054077,366.067444 
	C1116.768677,366.069000 1116.484863,366.364441 1114.938354,367.225403 
	C1115.558960,369.866821 1116.279541,372.933411 1117.000000,376.000000 
	C1075.976685,376.000000 1034.953369,376.000000 993.510803,375.533203 
	C993.091553,368.528320 993.091553,361.990204 993.091553,354.690521 
	C994.702209,355.698303 995.377380,356.117920 996.049805,356.541931 
	C1005.097839,362.247681 1017.482361,358.985931 1021.087036,349.003967 
	C1023.092163,343.451385 1023.845642,336.914062 1023.180725,331.045105 
	C1021.938293,320.078705 1015.347351,313.855560 1006.267822,314.293030 
	C1001.848450,314.505981 997.519287,316.590729 993.205200,317.812317 
	C990.671082,311.771027 985.387268,316.345612 981.000000,314.813019 
	C981.000000,335.788513 981.000000,355.894257 981.000000,376.000000 
	C654.333313,376.000000 327.666656,376.000000 1.000000,376.000000 
	C1.000000,327.559814 1.000000,279.244934 1.464707,230.398621 
	C20.666988,229.867218 39.404564,229.867218 58.831306,229.867218 
	C58.831306,198.788208 58.831306,168.497482 58.831306,136.661301 
	C60.184639,138.476456 60.549881,139.016754 60.964867,139.515686 
	C84.925049,168.322067 108.928314,197.092880 132.791992,225.978973 
	C135.136276,228.816620 137.483093,229.946457 141.201050,229.931137 
	C177.524155,229.781616 213.848099,229.840851 250.171814,229.840668 
	C251.956955,229.840652 253.742111,229.840652 255.715027,229.840652 
	C255.715027,159.988754 255.715027,90.651138 255.715027,20.785316 
	C238.106903,28.495058 220.986237,36.148102 203.709961,43.432022 
	C199.967560,45.009869 199.062332,47.024010 199.071503,50.855858 
	C199.201431,105.174492 199.160355,159.493530 199.160645,213.812469 
	C199.160645,215.565918 199.160645,217.319351 199.160645,220.489456 
	C169.440018,185.728928 140.643005,152.048615 111.787689,118.300125 
	C140.439697,85.819084 168.753815,53.721107 197.757141,20.841803 
	C175.913208,20.841803 155.427200,20.779209 134.943314,20.959593 
	C133.289078,20.974161 131.255249,22.299398 130.061523,23.616930 
	C107.256683,48.787109 84.541489,74.038605 61.865795,99.325333 
	C61.044720,100.240952 60.815617,101.687416 60.310627,102.886482 
	C59.674904,102.409279 59.039181,101.932076 58.403458,101.454872 
	C58.403458,74.700493 58.403458,47.946117 58.403458,21.000000 
	C38.946964,21.000000 19.973482,21.000000 1.000000,21.000000 
	C1.000000,14.336094 1.000000,7.672188 1.000000,1.004141 
	C340.689972,1.000000 680.379944,1.000000 1020.370422,1.352192 
	C1018.554871,2.146214 1016.431702,2.556761 1014.323853,3.034755 
	C994.945496,7.429216 981.703491,18.677135 977.005981,38.265408 
	C974.972900,46.742962 974.757751,55.667599 973.885071,64.405960 
	C973.597961,67.281334 973.839783,70.209534 973.839783,73.744812 
	C962.786499,73.744812 952.577209,73.744812 942.476562,73.744812 
	C942.476562,86.154976 942.476562,97.908485 942.476562,110.155533 
	C953.023010,110.155533 963.260864,110.155533 973.934937,110.155533 
	C973.934937,150.215820 973.934937,189.778183 973.934937,229.567413 
	C991.111877,229.567413 1007.834717,229.567413 1025.123413,229.567413 
	C1025.123413,189.605530 1025.123413,149.912949 1025.123413,110.334068 
	C1039.766357,110.334068 1053.840698,110.334068 1068.159180,110.334068 
	C1068.159180,120.477661 1068.059082,130.291168 1068.181641,140.101898 
	C1068.385254,156.409851 1068.074829,172.760712 1069.180054,189.011948 
	C1070.645386,210.557144 1082.346924,225.327011 1101.702637,230.246490 
	C1110.118042,232.385361 1119.107544,233.145386 1127.815186,233.023483 
	C1137.888916,232.882477 1147.939453,231.080734 1158.000000,230.000000 
M546.566895,96.966194 
	C537.303589,94.348610 527.936707,92.041710 518.814514,89.000832 
	C513.030884,87.072845 509.307892,82.490211 509.291382,76.204521 
	C509.273865,69.528488 512.750610,64.494904 518.742981,61.443439 
	C533.007629,54.179516 552.437073,60.732403 559.407654,75.185646 
	C560.689941,77.844444 561.529846,80.716576 562.729980,83.904610 
	C579.913330,82.312431 597.201599,80.710518 614.587402,79.099579 
	C612.733948,62.895897 607.212341,49.351383 594.833374,39.299828 
	C581.914001,28.809475 566.917053,23.175217 550.520752,21.583389 
	C528.658508,19.460903 507.206360,20.802597 487.580811,32.153008 
	C467.875305,43.549637 456.801544,60.384422 457.083221,83.511993 
	C457.356476,105.944740 468.842163,121.808693 488.648926,131.043808 
	C500.922119,136.766312 514.131531,140.493546 526.955139,145.018723 
	C536.484436,148.381378 546.377258,150.909714 555.532349,155.075333 
	C562.968811,158.459000 566.718689,165.434967 566.364075,173.877197 
	C566.010559,182.294495 561.436218,188.241623 554.200745,192.068527 
	C539.928955,199.616943 520.327332,195.268280 511.337769,181.964859 
	C507.424164,176.173279 505.149048,169.274536 501.848236,162.282150 
	C485.341034,163.813782 467.842285,165.437408 449.828491,167.108841 
	C452.580261,191.375351 462.206970,211.871536 483.784088,223.030319 
	C517.932068,240.690201 553.631897,240.863785 587.724060,222.838699 
	C611.342529,210.351257 621.973450,188.380066 621.401855,161.875565 
	C620.815796,134.701797 605.563538,117.464851 581.029907,107.995445 
	C570.047852,103.756660 558.610718,100.697182 546.566895,96.966194 
M432.826569,68.802147 
	C429.081421,52.570591 419.766052,40.281460 405.130432,32.758415 
	C373.139771,16.314495 340.446960,15.731370 308.352509,31.975063 
	C287.075256,42.743946 276.222931,61.047394 277.101379,85.194275 
	C277.953857,108.627998 291.398315,123.753082 311.840668,132.813782 
	C323.174622,137.837326 335.306885,141.066406 347.097382,145.051010 
	C356.208771,148.130219 365.644104,150.461929 374.387909,154.355530 
	C382.364105,157.907333 386.870422,164.917908 386.303070,174.042526 
	C385.716492,183.476135 380.332367,189.881729 371.725189,193.132568 
	C358.348907,198.184662 337.575684,196.601334 327.989777,176.784302 
	C325.780029,172.216095 324.390686,167.251053 322.528381,162.210327 
	C305.141296,163.828796 287.655609,165.456436 270.224243,167.079010 
	C270.165771,190.241531 287.023315,216.711395 308.690887,225.881546 
	C338.446625,238.474823 368.733154,238.969894 399.042572,227.297592 
	C412.741180,222.022202 423.208252,212.935730 431.021118,200.575562 
	C448.549194,172.845627 447.714264,126.531433 402.663940,108.654053 
	C393.412994,104.982994 383.886261,101.939270 374.340973,99.095253 
	C363.040527,95.728287 351.450623,93.298950 340.238281,89.681824 
	C332.668274,87.239731 328.787811,81.259018 329.195923,75.317001 
	C329.682709,68.230446 334.847412,61.892471 342.344910,60.103558 
	C359.219086,56.077347 376.346619,61.714493 381.813477,81.598930 
	C382.017639,82.341522 382.299347,83.062798 382.591614,83.933136 
	C400.046753,82.309120 417.195862,80.713585 434.699707,79.085045 
	C434.037506,75.442108 433.507019,72.523842 432.826569,68.802147 
M838.663818,72.064758 
	C806.222473,80.043236 787.351807,100.892776 781.565979,133.429993 
	C777.300293,157.418839 779.835144,180.548233 793.323364,201.611755 
	C819.150818,241.944550 880.913818,244.066345 913.000793,219.554993 
	C930.541321,206.155670 940.033997,188.057190 942.416870,166.496536 
	C945.850525,135.426743 939.720947,107.109612 913.934937,86.588280 
	C891.903748,69.055069 866.240356,67.046188 838.663818,72.064758 
M653.351196,157.186493 
	C660.905884,160.125458 668.286560,163.686646 676.055603,165.859222 
	C688.047241,169.212677 700.372070,171.358353 712.425110,174.514618 
	C720.144165,176.535980 723.864319,181.243576 723.820251,187.220322 
	C723.775696,193.264801 719.513367,198.568863 712.663208,201.104034 
	C698.580933,206.315720 684.849976,200.615631 678.554382,186.950653 
	C677.949280,185.637344 677.306763,184.341248 676.654419,182.980576 
	C660.357239,184.788422 644.344604,186.564713 628.147766,188.361450 
	C628.292480,189.410904 628.311401,190.240433 628.527710,191.014847 
	C633.648132,209.347427 645.845032,221.471786 662.854675,228.807327 
	C678.999939,235.770096 696.108215,236.591339 713.334473,234.431427 
	C726.552856,232.774048 738.930237,228.476242 749.713257,220.398468 
	C766.093872,208.127563 772.298523,191.577927 768.942627,171.660248 
	C765.785645,152.923111 754.177185,141.282227 736.334595,135.636749 
	C731.590515,134.135696 726.733459,132.916870 721.855103,131.930313 
	C710.457275,129.625336 698.925537,127.915749 687.623657,125.227013 
	C680.662109,123.570839 678.134521,119.389275 678.603149,113.355568 
	C679.049133,107.612228 683.201050,103.257469 689.453430,101.975014 
	C702.711975,99.255516 711.131653,103.525482 718.819397,117.031715 
	C734.008972,115.266113 749.300964,113.488617 764.645447,111.705002 
	C760.848267,96.852943 749.775757,82.990158 735.622681,76.971016 
	C710.112183,66.121658 684.110107,66.320305 659.109070,77.828484 
	C627.271667,92.483505 624.081787,136.654953 653.351196,157.186493 
M971.406738,359.000305 
	C972.837036,358.891052 974.267334,358.781799 975.864868,358.659760 
	C975.864868,348.442841 976.271423,338.618958 975.752014,328.844269 
	C975.218506,318.803223 968.965210,312.824799 960.694153,314.328461 
	C956.336853,315.120667 952.297607,317.662537 947.693420,319.590851 
	C940.625671,311.463196 932.171753,312.924469 923.533264,319.427338 
	C923.140442,317.786285 922.818909,316.442963 922.538147,315.269928 
	C918.667236,315.269928 915.224426,315.269928 911.947266,315.269928 
	C911.947266,329.895905 911.947266,344.242584 911.947266,358.585999 
	C916.329163,358.585999 920.035034,358.585999 924.000610,358.585999 
	C924.000610,351.857147 923.891724,345.538666 924.048584,339.226807 
	C924.122070,336.265778 924.299805,333.190948 925.166626,330.396057 
	C926.205261,327.046906 928.579163,324.604767 932.555786,324.949799 
	C936.691040,325.308624 937.301331,328.630341 937.791992,331.789398 
	C938.070129,333.579803 937.880737,335.444580 937.882019,337.275879 
	C937.887024,344.371826 937.884094,351.467773 937.884094,358.603516 
	C942.290344,358.603516 945.998657,358.603516 950.001831,358.603516 
	C950.001831,351.231201 949.880310,344.250183 950.064453,337.277252 
	C950.133423,334.666840 950.623901,331.979797 951.440491,329.498230 
	C952.561157,326.092651 955.463745,323.912537 958.748291,325.248840 
	C960.745300,326.061310 962.598694,329.095428 963.047913,331.415924 
	C963.762939,335.108887 963.255920,339.039246 963.258667,342.869171 
	C963.262451,348.138794 963.259644,353.408417 963.259644,358.428192 
	C964.335632,358.752502 964.651306,358.923615 964.970886,358.931366 
	C966.801575,358.975861 968.633179,358.981476 971.406738,359.000305 
M513.552856,306.963531 
	C503.279999,315.064117 501.238770,326.216339 503.419830,338.027557 
	C508.201996,363.924347 541.395203,366.248596 556.084412,355.183014 
	C557.011108,354.484894 557.888550,353.042511 557.909729,351.929626 
	C558.064026,343.830414 557.992798,335.726929 557.992798,327.511566 
	C548.681885,327.511566 539.984375,327.511566 531.299805,327.511566 
	C531.299805,330.686249 531.299805,333.445862 531.299805,336.486816 
	C535.298767,336.682434 539.019653,336.864471 543.106995,337.064423 
	C543.106995,340.223358 542.860229,342.889557 543.164612,345.491272 
	C543.625305,349.428711 541.814697,350.790588 538.182922,351.148773 
	C527.783142,352.174438 519.070129,346.142487 517.067566,336.321442 
	C514.579346,324.118530 519.472961,314.242462 529.696899,310.868256 
	C537.890930,308.164032 545.070618,310.255096 551.819702,316.137634 
	C553.435669,312.878845 554.864319,309.997803 556.246765,307.210052 
	C543.462585,297.975861 528.011108,297.854126 513.552856,306.963531 
M466.249298,337.227417 
	C461.816223,325.923584 457.492645,314.574097 452.817505,303.371277 
	C452.203033,301.898895 449.916656,300.779907 448.172791,300.222504 
	C446.510162,299.691040 444.517792,300.306976 442.717529,300.066193 
	C438.900970,299.555756 437.202789,301.260895 435.874939,304.788422 
	C430.309601,319.573151 424.401825,334.228882 418.636780,348.938690 
	C417.394592,352.108215 416.224243,355.305908 414.826721,359.004272 
	C418.583588,359.004272 421.632965,359.372040 424.528687,358.863983 
	C426.219727,358.567291 428.438202,357.217010 429.096130,355.748047 
	C433.487091,345.944244 433.371246,345.892365 444.299988,345.892487 
	C444.799744,345.892517 445.299530,345.892456 445.799286,345.892487 
	C455.696960,345.893005 455.605957,345.930206 459.329651,355.042542 
	C459.966400,356.600739 461.615448,358.594086 463.039703,358.814026 
	C466.567047,359.358734 470.234955,358.992859 474.843689,358.992859 
	C471.874054,351.419922 469.227509,344.670868 466.249298,337.227417 
M860.137451,307.869568 
	C861.405884,304.122925 860.515869,301.661957 856.154907,301.506744 
	C849.901794,301.284180 843.542114,300.375275 837.412048,301.173553 
	C826.188843,302.635223 817.640381,311.508362 815.224609,322.747162 
	C812.334595,336.191895 816.514648,348.770081 826.320923,355.122925 
	C836.344299,361.616486 847.289917,361.836151 858.496338,359.047729 
	C859.392761,358.824646 860.722534,357.742950 860.739075,357.034241 
	C860.810120,353.999542 860.464294,350.955109 860.248779,347.575470 
	C849.059021,350.083130 838.514343,352.080627 831.498962,341.424286 
	C826.734192,334.186584 826.840088,326.038361 831.531616,318.794281 
	C838.755615,307.640137 849.372925,310.726227 859.757874,313.570343 
	C859.888611,311.657593 859.990051,310.173035 860.137451,307.869568 
M787.888733,343.498901 
	C787.887817,339.001495 788.033447,334.498322 787.858032,330.007751 
	C787.363647,317.348267 777.878174,310.793579 766.277405,315.059143 
	C764.596008,315.677338 763.069275,316.716278 761.693115,317.443237 
	C757.584290,312.798218 752.676697,315.870850 748.205566,315.096985 
	C748.205566,330.077087 748.205566,344.329956 748.205566,358.724670 
	C752.568604,358.724670 756.602234,358.724670 761.002563,358.724670 
	C761.002563,352.863708 760.909424,347.389191 761.031006,341.919434 
	C761.134094,337.280701 761.260132,332.621246 761.796387,328.019958 
	C762.244385,324.175354 764.839417,322.046204 768.728943,322.428894 
	C772.525269,322.802399 774.049133,325.617889 774.113892,329.120575 
	C774.252502,336.613342 774.222778,344.109253 774.255859,351.603882 
	C774.266418,354.001495 774.257507,356.399200 774.257507,358.747559 
	C779.279114,358.747559 783.353577,358.747559 787.888550,358.747559 
	C787.888550,353.757355 787.888550,349.126801 787.888733,343.498901 
M1070.881714,329.504791 
	C1070.881714,339.259979 1070.881714,349.015167 1070.881714,358.823669 
	C1075.619141,358.823669 1079.541260,358.823669 1084.004761,358.823669 
	C1084.004761,350.585358 1083.933716,342.630798 1084.046875,334.678833 
	C1084.081909,332.212189 1084.465820,329.722015 1084.958618,327.297241 
	C1085.662720,323.833862 1088.358521,321.729645 1091.428345,322.549500 
	C1093.610840,323.132416 1095.859619,325.726715 1096.828247,327.964630 
	C1097.811279,330.235870 1097.346313,333.171021 1097.362549,335.816345 
	C1097.409424,343.425903 1097.379150,351.035919 1097.379150,358.672180 
	C1102.155762,358.672180 1106.354736,358.672180 1110.848755,358.672180 
	C1110.848755,348.418335 1111.320923,338.578400 1110.725586,328.803528 
	C1110.029053,317.368408 1101.793091,311.720459 1090.990723,314.596161 
	C1088.649414,315.219482 1086.488892,316.521942 1084.796387,317.268433 
	C1080.545410,313.013458 1075.727051,315.890564 1070.881470,314.907501 
	C1070.881470,319.919220 1070.881470,324.213654 1070.881714,329.504791 
M705.523926,323.170654 
	C704.145020,326.696289 702.280640,330.115845 701.482422,333.768372 
	C699.461975,343.013184 704.353333,353.399445 712.217712,357.587006 
	C720.408020,361.948151 731.615601,360.773804 737.836853,354.902649 
	C747.240601,346.028168 747.389709,328.928741 738.112488,319.841461 
	C729.946106,311.842255 714.245972,311.572937 705.523926,323.170654 
M906.888916,337.541046 
	C906.648560,335.899933 906.455261,334.250336 906.160339,332.619110 
	C904.066345,321.037048 895.961975,313.949768 884.980835,314.071442 
	C873.812378,314.195190 864.998108,322.111206 863.210266,333.623352 
	C861.403442,345.257904 867.304016,355.796753 877.735657,359.026459 
	C890.085510,362.850067 905.592529,357.723236 906.888916,337.541046 
M647.956543,327.078583 
	C648.781006,330.156006 647.480286,330.772675 644.475708,331.265717 
	C639.001648,332.164062 633.377380,333.338196 628.380554,335.629181 
	C623.053406,338.071625 621.286072,343.339905 622.047913,349.127869 
	C622.787048,354.742676 626.341858,358.497498 631.663208,359.179749 
	C636.598022,359.812469 641.739746,358.864227 646.787048,358.557556 
	C647.793518,358.496399 648.811035,357.938782 649.778870,358.039276 
	C653.367493,358.411987 656.937500,358.964081 660.115967,359.394775 
	C660.115967,348.290253 660.549377,338.175934 659.970825,328.119843 
	C659.552246,320.845428 655.174438,316.429169 648.128052,315.390137 
	C643.937073,314.772156 639.425354,314.783325 635.291199,315.639069 
	C625.928345,317.577118 625.987122,317.861115 627.296692,327.476562 
	C630.503540,326.149414 633.607910,324.516052 636.910461,323.588135 
	C640.846191,322.482269 644.869141,322.304413 647.956543,327.078583 
M1059.779419,318.642151 
	C1052.739990,313.791260 1045.055542,314.009827 1037.302734,316.115906 
	C1030.210083,318.042694 1029.408813,320.009125 1031.852539,327.467316 
	C1046.284424,320.472443 1052.496460,321.471436 1052.100708,331.126892 
	C1050.479248,331.126892 1048.755005,330.796906 1047.213501,331.187714 
	C1042.280884,332.438385 1037.114624,333.336853 1032.602539,335.531006 
	C1027.226074,338.145569 1024.957397,344.515747 1026.220337,349.999084 
	C1027.398804,355.115784 1031.688232,359.359375 1037.566406,359.733704 
	C1042.074219,360.020782 1046.671753,358.920441 1051.227539,358.420135 
	C1052.115845,358.322571 1053.017456,357.948212 1053.875854,358.041718 
	C1057.453979,358.431671 1061.017822,358.951508 1064.732666,359.442993 
	C1064.732666,348.743927 1065.119385,339.109650 1064.531128,329.535309 
	C1064.313721,325.998444 1061.801025,322.602661 1059.779419,318.642151 
M607.102173,351.018707 
	C596.915710,351.254883 594.207214,349.353577 593.636597,341.049622 
	C602.558655,341.049622 611.458008,341.049622 622.051453,341.049622 
	C620.120422,334.714355 619.221741,328.915253 616.645508,323.994385 
	C612.949158,316.933838 605.810059,315.074799 598.299133,315.317596 
	C590.739807,315.561981 584.739502,318.927979 581.674255,326.022797 
	C577.677063,335.274353 577.465759,344.743866 583.864990,352.947815 
	C590.173096,361.034943 599.491272,361.010620 608.573608,359.508453 
	C616.426819,358.209595 617.297668,356.326874 615.371704,348.250946 
	C612.890320,349.152435 610.423889,350.048492 607.102173,351.018707 
M700.006470,347.403137 
	C700.366516,340.982422 697.341187,336.589874 691.726929,333.863281 
	C688.292297,332.195221 684.679993,330.874939 681.329773,329.061615 
	C680.256897,328.480927 679.043396,326.700317 679.212341,325.688904 
	C679.386780,324.644562 681.140808,323.153168 682.246765,323.115387 
	C684.997498,323.021423 687.881226,323.285492 690.506531,324.081787 
	C692.973511,324.830078 695.177856,326.443970 699.011597,328.481628 
	C698.359985,324.459656 698.895874,320.189270 697.284973,319.103302 
	C689.231384,313.674072 680.270081,312.466492 671.324951,317.077911 
	C661.938049,321.917114 661.645569,333.884491 670.738525,339.258881 
	C674.148315,341.274231 678.124634,342.328644 681.544128,344.330902 
	C683.411865,345.424561 684.655579,347.583832 686.180725,349.262543 
	C684.092590,350.251984 681.900085,352.239105 679.936890,352.033783 
	C675.087585,351.526733 670.343384,350.014740 665.427368,348.876678 
	C664.072266,353.460632 665.162354,357.256531 670.643921,358.092224 
	C676.649353,359.007690 682.815063,360.028137 688.805237,359.582642 
	C695.647522,359.073700 699.045227,354.835388 700.006470,347.403137 
M562.237732,328.500000 
	C562.237732,338.580597 562.237732,348.661163 562.237732,358.724640 
	C566.894409,358.724640 570.777954,358.724640 574.552979,358.724640 
	C574.552979,338.993164 574.552979,319.667023 574.552979,300.404785 
	C570.330200,300.404785 566.571167,300.404785 562.238098,300.404785 
	C562.238098,309.634308 562.238098,318.567139 562.237732,328.500000 
z"/>
<path fill="#1176BD" opacity="1.000000" stroke="none" 
	d="
M1.000000,21.468658 
	C19.973482,21.000000 38.946964,21.000000 58.403458,21.000000 
	C58.403458,47.946117 58.403458,74.700493 58.403458,101.454872 
	C59.039181,101.932076 59.674904,102.409279 60.310627,102.886482 
	C60.815617,101.687416 61.044720,100.240952 61.865795,99.325333 
	C84.541489,74.038605 107.256683,48.787109 130.061523,23.616930 
	C131.255249,22.299398 133.289078,20.974161 134.943314,20.959593 
	C155.427200,20.779209 175.913208,20.841803 197.757141,20.841803 
	C168.753815,53.721107 140.439697,85.819084 111.787689,118.300125 
	C140.643005,152.048615 169.440018,185.728928 199.160645,220.489456 
	C199.160645,217.319351 199.160645,215.565918 199.160645,213.812469 
	C199.160355,159.493530 199.201431,105.174492 199.071503,50.855858 
	C199.062332,47.024010 199.967560,45.009869 203.709961,43.432022 
	C220.986237,36.148102 238.106903,28.495058 255.715027,20.785316 
	C255.715027,90.651138 255.715027,159.988754 255.715027,229.840652 
	C253.742111,229.840652 251.956955,229.840652 250.171814,229.840668 
	C213.848099,229.840851 177.524155,229.781616 141.201050,229.931137 
	C137.483093,229.946457 135.136276,228.816620 132.791992,225.978973 
	C108.928314,197.092880 84.925049,168.322067 60.964867,139.515686 
	C60.549881,139.016754 60.184639,138.476456 58.831306,136.661301 
	C58.831306,168.497482 58.831306,198.788208 58.831306,229.867218 
	C39.404564,229.867218 20.666988,229.867218 1.464707,229.933609 
	C1.000000,160.645767 1.000000,91.291542 1.000000,21.468658 
z"/>
<path fill="#1176BD" opacity="1.000000" stroke="none" 
	d="
M1158.000000,229.531342 
	C1147.939453,231.080734 1137.888916,232.882477 1127.815186,233.023483 
	C1119.107544,233.145386 1110.118042,232.385361 1101.702637,230.246490 
	C1082.346924,225.327011 1070.645386,210.557144 1069.180054,189.011948 
	C1068.074829,172.760712 1068.385254,156.409851 1068.181641,140.101898 
	C1068.059082,130.291168 1068.159180,120.477661 1068.159180,110.334068 
	C1053.840698,110.334068 1039.766357,110.334068 1025.123413,110.334068 
	C1025.123413,149.912949 1025.123413,189.605530 1025.123413,229.567413 
	C1007.834717,229.567413 991.111877,229.567413 973.934937,229.567413 
	C973.934937,189.778183 973.934937,150.215820 973.934937,110.155533 
	C963.260864,110.155533 953.023010,110.155533 942.476562,110.155533 
	C942.476562,97.908485 942.476562,86.154976 942.476562,73.744812 
	C952.577209,73.744812 962.786499,73.744812 973.839783,73.744812 
	C973.839783,70.209534 973.597961,67.281334 973.885071,64.405960 
	C974.757751,55.667599 974.972900,46.742962 977.005981,38.265408 
	C981.703491,18.677135 994.945496,7.429216 1014.323853,3.034755 
	C1016.431702,2.556761 1018.554871,2.146214 1020.835449,1.352192 
	C1030.020874,1.000000 1039.041870,1.000000 1048.769531,1.328124 
	C1051.296997,1.842244 1053.197876,1.773491 1054.907471,2.311781 
	C1055.900513,2.624433 1057.290649,3.901119 1057.303833,4.762210 
	C1057.467041,15.525091 1057.410767,26.291304 1057.410767,37.472637 
	C1054.825928,36.710487 1052.948853,36.096653 1051.040405,35.604073 
	C1038.031250,32.246449 1028.700684,37.466698 1026.400635,50.212284 
	C1025.056641,57.659966 1025.101807,65.358330 1024.502808,73.193764 
	C1040.090332,73.193764 1054.812012,73.193764 1069.843506,73.193764 
	C1069.843506,65.007423 1069.975464,57.188404 1069.775024,49.377914 
	C1069.700806,46.489666 1070.630615,44.906029 1073.226440,43.629795 
	C1081.132080,39.742947 1088.906372,35.589752 1096.741943,31.559673 
	C1103.636353,28.013634 1110.544312,24.493753 1118.095093,20.630411 
	C1118.095093,38.642586 1118.095093,55.873390 1118.095093,73.605637 
	C1130.767578,73.605637 1143.025024,73.605637 1155.483643,73.605637 
	C1155.483643,85.990494 1155.483643,97.863640 1155.483643,110.139587 
	C1142.876587,110.139587 1130.617554,110.139587 1118.181030,110.139587 
	C1118.181030,132.495392 1117.666870,154.463272 1118.369507,176.392151 
	C1118.807617,190.065689 1126.148315,195.912445 1139.832031,195.818619 
	C1141.987305,195.803848 1144.152832,195.580490 1146.291870,195.292389 
	C1149.677734,194.836365 1153.045288,194.244156 1156.310303,193.727005 
	C1156.920410,197.075195 1157.460205,200.037598 1158.000000,203.000000 
	C1158.000000,211.687561 1158.000000,220.375137 1158.000000,229.531342 
z"/>
<path fill="#FDFEFE" opacity="1.000000" stroke="none" 
	d="
M1158.000000,202.531342 
	C1157.460205,200.037598 1156.920410,197.075195 1156.310303,193.727005 
	C1153.045288,194.244156 1149.677734,194.836365 1146.291870,195.292389 
	C1144.152832,195.580490 1141.987305,195.803848 1139.832031,195.818619 
	C1126.148315,195.912445 1118.807617,190.065689 1118.369507,176.392151 
	C1117.666870,154.463272 1118.181030,132.495392 1118.181030,110.139587 
	C1130.617554,110.139587 1142.876587,110.139587 1155.483643,110.139587 
	C1155.483643,97.863640 1155.483643,85.990494 1155.483643,73.605637 
	C1143.025024,73.605637 1130.767578,73.605637 1118.095093,73.605637 
	C1118.095093,55.873390 1118.095093,38.642586 1118.095093,20.630411 
	C1110.544312,24.493753 1103.636353,28.013634 1096.741943,31.559673 
	C1088.906372,35.589752 1081.132080,39.742947 1073.226440,43.629795 
	C1070.630615,44.906029 1069.700806,46.489666 1069.775024,49.377914 
	C1069.975464,57.188404 1069.843506,65.007423 1069.843506,73.193764 
	C1054.812012,73.193764 1040.090332,73.193764 1024.502808,73.193764 
	C1025.101807,65.358330 1025.056641,57.659966 1026.400635,50.212284 
	C1028.700684,37.466698 1038.031250,32.246449 1051.040405,35.604073 
	C1052.948853,36.096653 1054.825928,36.710487 1057.410767,37.472637 
	C1057.410767,26.291304 1057.467041,15.525091 1057.303833,4.762210 
	C1057.290649,3.901119 1055.900513,2.624433 1054.907471,2.311781 
	C1053.197876,1.773491 1051.296997,1.842244 1049.238281,1.328124 
	C1085.282104,1.000000 1121.564331,1.000000 1158.000000,1.000000 
	C1158.000000,68.020821 1158.000000,135.041748 1158.000000,202.531342 
z"/>
<path fill="#9E9E9E" opacity="1.000000" stroke="none" 
	d="
M981.460632,376.000000 
	C981.000000,355.894257 981.000000,335.788513 981.000000,314.813019 
	C985.387268,316.345612 990.671082,311.771027 993.205200,317.812317 
	C997.519287,316.590729 1001.848450,314.505981 1006.267822,314.293030 
	C1015.347351,313.855560 1021.938293,320.078705 1023.180725,331.045105 
	C1023.845642,336.914062 1023.092163,343.451385 1021.087036,349.003967 
	C1017.482361,358.985931 1005.097839,362.247681 996.049805,356.541931 
	C995.377380,356.117920 994.702209,355.698303 993.091553,354.690521 
	C993.091553,361.990204 993.091553,368.528320 993.045776,375.533203 
	C989.307068,376.000000 985.614197,376.000000 981.460632,376.000000 
M1002.546326,324.310883 
	C991.870056,325.043732 990.765686,341.300476 996.601685,347.011353 
	C999.261597,349.614227 1002.376770,350.453339 1005.630859,348.484985 
	C1011.171692,345.133484 1011.490173,339.590942 1010.961121,333.976868 
	C1010.512756,329.220367 1008.736206,325.258270 1002.546326,324.310883 
z"/>
<path fill="#9F9F9F" opacity="1.000000" stroke="none" 
	d="
M1117.458008,376.000000 
	C1116.279541,372.933411 1115.558960,369.866821 1114.938354,367.225403 
	C1116.484863,366.364441 1116.768677,366.069000 1117.054077,366.067444 
	C1128.818359,366.002472 1130.398438,363.538452 1126.155273,352.376831 
	C1122.022949,341.507507 1118.063110,330.572479 1114.064209,319.652832 
	C1113.511353,318.143280 1113.169922,316.556274 1112.482788,314.130280 
	C1116.729004,314.130280 1120.340332,313.858551 1123.865234,314.291443 
	C1124.960693,314.425995 1126.250732,316.320709 1126.719604,317.664948 
	C1129.669922,326.125549 1132.414062,334.658081 1135.612183,344.334625 
	C1138.366821,335.924835 1141.108887,328.657410 1143.072388,321.185394 
	C1144.463501,315.891052 1146.751709,312.972290 1152.598022,314.064880 
	C1154.043823,314.335052 1155.585693,314.090179 1157.541748,314.041016 
	C1158.000000,314.444458 1158.000000,314.888885 1157.726074,315.890991 
	C1151.693726,331.594513 1145.833862,346.702972 1140.225342,361.904175 
	C1137.888306,368.238586 1134.316406,373.243103 1128.000000,376.000000 
	C1124.638672,376.000000 1121.277466,376.000000 1117.458008,376.000000 
z"/>
<path fill="#FEFEFE" opacity="1.000000" stroke="none" 
	d="
M1128.468628,376.000000 
	C1134.316406,373.243103 1137.888306,368.238586 1140.225342,361.904175 
	C1145.833862,346.702972 1151.693726,331.594513 1157.726074,316.224304 
	C1158.000000,335.902283 1158.000000,355.804596 1158.000000,376.000000 
	C1148.314331,376.000000 1138.625854,376.000000 1128.468628,376.000000 
z"/>
<path fill="#1176BD" opacity="1.000000" stroke="none" 
	d="
M546.973511,97.034355 
	C558.610718,100.697182 570.047852,103.756660 581.029907,107.995445 
	C605.563538,117.464851 620.815796,134.701797 621.401855,161.875565 
	C621.973450,188.380066 611.342529,210.351257 587.724060,222.838699 
	C553.631897,240.863785 517.932068,240.690201 483.784088,223.030319 
	C462.206970,211.871536 452.580261,191.375351 449.828491,167.108841 
	C467.842285,165.437408 485.341034,163.813782 501.848236,162.282150 
	C505.149048,169.274536 507.424164,176.173279 511.337769,181.964859 
	C520.327332,195.268280 539.928955,199.616943 554.200745,192.068527 
	C561.436218,188.241623 566.010559,182.294495 566.364075,173.877197 
	C566.718689,165.434967 562.968811,158.459000 555.532349,155.075333 
	C546.377258,150.909714 536.484436,148.381378 526.955139,145.018723 
	C514.131531,140.493546 500.922119,136.766312 488.648926,131.043808 
	C468.842163,121.808693 457.356476,105.944740 457.083221,83.511993 
	C456.801544,60.384422 467.875305,43.549637 487.580811,32.153008 
	C507.206360,20.802597 528.658508,19.460903 550.520752,21.583389 
	C566.917053,23.175217 581.914001,28.809475 594.833374,39.299828 
	C607.212341,49.351383 612.733948,62.895897 614.587402,79.099579 
	C597.201599,80.710518 579.913330,82.312431 562.729980,83.904610 
	C561.529846,80.716576 560.689941,77.844444 559.407654,75.185646 
	C552.437073,60.732403 533.007629,54.179516 518.742981,61.443439 
	C512.750610,64.494904 509.273865,69.528488 509.291382,76.204521 
	C509.307892,82.490211 513.030884,87.072845 518.814514,89.000832 
	C527.936707,92.041710 537.303589,94.348610 546.973511,97.034355 
z"/>
<path fill="#1176BD" opacity="1.000000" stroke="none" 
	d="
M432.901550,69.203857 
	C433.507019,72.523842 434.037506,75.442108 434.699707,79.085045 
	C417.195862,80.713585 400.046753,82.309120 382.591614,83.933136 
	C382.299347,83.062798 382.017639,82.341522 381.813477,81.598930 
	C376.346619,61.714493 359.219086,56.077347 342.344910,60.103558 
	C334.847412,61.892471 329.682709,68.230446 329.195923,75.317001 
	C328.787811,81.259018 332.668274,87.239731 340.238281,89.681824 
	C351.450623,93.298950 363.040527,95.728287 374.340973,99.095253 
	C383.886261,101.939270 393.412994,104.982994 402.663940,108.654053 
	C447.714264,126.531433 448.549194,172.845627 431.021118,200.575562 
	C423.208252,212.935730 412.741180,222.022202 399.042572,227.297592 
	C368.733154,238.969894 338.446625,238.474823 308.690887,225.881546 
	C287.023315,216.711395 270.165771,190.241531 270.224243,167.079010 
	C287.655609,165.456436 305.141296,163.828796 322.528381,162.210327 
	C324.390686,167.251053 325.780029,172.216095 327.989777,176.784302 
	C337.575684,196.601334 358.348907,198.184662 371.725189,193.132568 
	C380.332367,189.881729 385.716492,183.476135 386.303070,174.042526 
	C386.870422,164.917908 382.364105,157.907333 374.387909,154.355530 
	C365.644104,150.461929 356.208771,148.130219 347.097382,145.051010 
	C335.306885,141.066406 323.174622,137.837326 311.840668,132.813782 
	C291.398315,123.753082 277.953857,108.627998 277.101379,85.194275 
	C276.222931,61.047394 287.075256,42.743946 308.352509,31.975063 
	C340.446960,15.731370 373.139771,16.314495 405.130432,32.758415 
	C419.766052,40.281460 429.081421,52.570591 432.901550,69.203857 
z"/>
<path fill="#1176BD" opacity="1.000000" stroke="none" 
	d="
M839.081299,72.012161 
	C866.240356,67.046188 891.903748,69.055069 913.934937,86.588280 
	C939.720947,107.109612 945.850525,135.426743 942.416870,166.496536 
	C940.033997,188.057190 930.541321,206.155670 913.000793,219.554993 
	C880.913818,244.066345 819.150818,241.944550 793.323364,201.611755 
	C779.835144,180.548233 777.300293,157.418839 781.565979,133.429993 
	C787.351807,100.892776 806.222473,80.043236 839.081299,72.012161 
M888.136719,124.476105 
	C882.892517,112.577019 874.289856,105.488892 860.781982,105.873085 
	C847.587524,106.248360 839.636597,114.112228 835.135437,125.549171 
	C828.085022,143.463486 828.225037,161.687485 835.306824,179.570389 
	C838.943481,188.753693 845.310730,195.703568 855.468384,198.000336 
	C870.090515,201.306564 883.348450,193.570831 888.867920,177.948044 
	C895.065430,160.406219 894.762695,142.715210 888.136719,124.476105 
z"/>
<path fill="#1276BE" opacity="1.000000" stroke="none" 
	d="
M653.031494,157.017792 
	C624.081787,136.654953 627.271667,92.483505 659.109070,77.828484 
	C684.110107,66.320305 710.112183,66.121658 735.622681,76.971016 
	C749.775757,82.990158 760.848267,96.852943 764.645447,111.705002 
	C749.300964,113.488617 734.008972,115.266113 718.819397,117.031715 
	C711.131653,103.525482 702.711975,99.255516 689.453430,101.975014 
	C683.201050,103.257469 679.049133,107.612228 678.603149,113.355568 
	C678.134521,119.389275 680.662109,123.570839 687.623657,125.227013 
	C698.925537,127.915749 710.457275,129.625336 721.855103,131.930313 
	C726.733459,132.916870 731.590515,134.135696 736.334595,135.636749 
	C754.177185,141.282227 765.785645,152.923111 768.942627,171.660248 
	C772.298523,191.577927 766.093872,208.127563 749.713257,220.398468 
	C738.930237,228.476242 726.552856,232.774048 713.334473,234.431427 
	C696.108215,236.591339 678.999939,235.770096 662.854675,228.807327 
	C645.845032,221.471786 633.648132,209.347427 628.527710,191.014847 
	C628.311401,190.240433 628.292480,189.410904 628.147766,188.361450 
	C644.344604,186.564713 660.357239,184.788422 676.654419,182.980576 
	C677.306763,184.341248 677.949280,185.637344 678.554382,186.950653 
	C684.849976,200.615631 698.580933,206.315720 712.663208,201.104034 
	C719.513367,198.568863 723.775696,193.264801 723.820251,187.220322 
	C723.864319,181.243576 720.144165,176.535980 712.425110,174.514618 
	C700.372070,171.358353 688.047241,169.212677 676.055603,165.859222 
	C668.286560,163.686646 660.905884,160.125458 653.031494,157.017792 
z"/>
<path fill="#9E9E9E" opacity="1.000000" stroke="none" 
	d="
M970.935608,359.000305 
	C968.633179,358.981476 966.801575,358.975861 964.970886,358.931366 
	C964.651306,358.923615 964.335632,358.752502 963.259644,358.428192 
	C963.259644,353.408417 963.262451,348.138794 963.258667,342.869171 
	C963.255920,339.039246 963.762939,335.108887 963.047913,331.415924 
	C962.598694,329.095428 960.745300,326.061310 958.748291,325.248840 
	C955.463745,323.912537 952.561157,326.092651 951.440491,329.498230 
	C950.623901,331.979797 950.133423,334.666840 950.064453,337.277252 
	C949.880310,344.250183 950.001831,351.231201 950.001831,358.603516 
	C945.998657,358.603516 942.290344,358.603516 937.884094,358.603516 
	C937.884094,351.467773 937.887024,344.371826 937.882019,337.275879 
	C937.880737,335.444580 938.070129,333.579803 937.791992,331.789398 
	C937.301331,328.630341 936.691040,325.308624 932.555786,324.949799 
	C928.579163,324.604767 926.205261,327.046906 925.166626,330.396057 
	C924.299805,333.190948 924.122070,336.265778 924.048584,339.226807 
	C923.891724,345.538666 924.000610,351.857147 924.000610,358.585999 
	C920.035034,358.585999 916.329163,358.585999 911.947266,358.585999 
	C911.947266,344.242584 911.947266,329.895905 911.947266,315.269928 
	C915.224426,315.269928 918.667236,315.269928 922.538147,315.269928 
	C922.818909,316.442963 923.140442,317.786285 923.533264,319.427338 
	C932.171753,312.924469 940.625671,311.463196 947.693420,319.590851 
	C952.297607,317.662537 956.336853,315.120667 960.694153,314.328461 
	C968.965210,312.824799 975.218506,318.803223 975.752014,328.844269 
	C976.271423,338.618958 975.864868,348.442841 975.864868,358.659760 
	C974.267334,358.781799 972.837036,358.891052 970.935608,359.000305 
z"/>
<path fill="#9F9F9F" opacity="1.000000" stroke="none" 
	d="
M513.839966,306.742310 
	C528.011108,297.854126 543.462585,297.975861 556.246765,307.210052 
	C554.864319,309.997803 553.435669,312.878845 551.819702,316.137634 
	C545.070618,310.255096 537.890930,308.164032 529.696899,310.868256 
	C519.472961,314.242462 514.579346,324.118530 517.067566,336.321442 
	C519.070129,346.142487 527.783142,352.174438 538.182922,351.148773 
	C541.814697,350.790588 543.625305,349.428711 543.164612,345.491272 
	C542.860229,342.889557 543.106995,340.223358 543.106995,337.064423 
	C539.019653,336.864471 535.298767,336.682434 531.299805,336.486816 
	C531.299805,333.445862 531.299805,330.686249 531.299805,327.511566 
	C539.984375,327.511566 548.681885,327.511566 557.992798,327.511566 
	C557.992798,335.726929 558.064026,343.830414 557.909729,351.929626 
	C557.888550,353.042511 557.011108,354.484894 556.084412,355.183014 
	C541.395203,366.248596 508.201996,363.924347 503.419830,338.027557 
	C501.238770,326.216339 503.279999,315.064117 513.839966,306.742310 
z"/>
<path fill="#9F9F9F" opacity="1.000000" stroke="none" 
	d="
M466.415100,337.574585 
	C469.227509,344.670868 471.874054,351.419922 474.843689,358.992859 
	C470.234955,358.992859 466.567047,359.358734 463.039703,358.814026 
	C461.615448,358.594086 459.966400,356.600739 459.329651,355.042542 
	C455.605957,345.930206 455.696960,345.893005 445.799286,345.892487 
	C445.299530,345.892456 444.799744,345.892517 444.299988,345.892487 
	C433.371246,345.892365 433.487091,345.944244 429.096130,355.748047 
	C428.438202,357.217010 426.219727,358.567291 424.528687,358.863983 
	C421.632965,359.372040 418.583588,359.004272 414.826721,359.004272 
	C416.224243,355.305908 417.394592,352.108215 418.636780,348.938690 
	C424.401825,334.228882 430.309601,319.573151 435.874939,304.788422 
	C437.202789,301.260895 438.900970,299.555756 442.717529,300.066193 
	C444.517792,300.306976 446.510162,299.691040 448.172791,300.222504 
	C449.916656,300.779907 452.203033,301.898895 452.817505,303.371277 
	C457.492645,314.574097 461.816223,325.923584 466.415100,337.574585 
M449.453735,328.000916 
	C447.945129,323.755646 446.436554,319.510376 444.443848,313.902832 
	C441.621704,321.958832 439.310272,328.556976 436.945801,335.306519 
	C442.321075,335.306519 446.973022,335.306519 451.993164,335.306519 
	C451.134247,332.750214 450.456421,330.732788 449.453735,328.000916 
z"/>
<path fill="#9F9F9F" opacity="1.000000" stroke="none" 
	d="
M860.114502,308.279022 
	C859.990051,310.173035 859.888611,311.657593 859.757874,313.570343 
	C849.372925,310.726227 838.755615,307.640137 831.531616,318.794281 
	C826.840088,326.038361 826.734192,334.186584 831.498962,341.424286 
	C838.514343,352.080627 849.059021,350.083130 860.248779,347.575470 
	C860.464294,350.955109 860.810120,353.999542 860.739075,357.034241 
	C860.722534,357.742950 859.392761,358.824646 858.496338,359.047729 
	C847.289917,361.836151 836.344299,361.616486 826.320923,355.122925 
	C816.514648,348.770081 812.334595,336.191895 815.224609,322.747162 
	C817.640381,311.508362 826.188843,302.635223 837.412048,301.173553 
	C843.542114,300.375275 849.901794,301.284180 856.154907,301.506744 
	C860.515869,301.661957 861.405884,304.122925 860.114502,308.279022 
z"/>
<path fill="#9E9E9E" opacity="1.000000" stroke="none" 
	d="
M787.888672,343.997559 
	C787.888550,349.126801 787.888550,353.757355 787.888550,358.747559 
	C783.353577,358.747559 779.279114,358.747559 774.257507,358.747559 
	C774.257507,356.399200 774.266418,354.001495 774.255859,351.603882 
	C774.222778,344.109253 774.252502,336.613342 774.113892,329.120575 
	C774.049133,325.617889 772.525269,322.802399 768.728943,322.428894 
	C764.839417,322.046204 762.244385,324.175354 761.796387,328.019958 
	C761.260132,332.621246 761.134094,337.280701 761.031006,341.919434 
	C760.909424,347.389191 761.002563,352.863708 761.002563,358.724670 
	C756.602234,358.724670 752.568604,358.724670 748.205566,358.724670 
	C748.205566,344.329956 748.205566,330.077087 748.205566,315.096985 
	C752.676697,315.870850 757.584290,312.798218 761.693115,317.443237 
	C763.069275,316.716278 764.596008,315.677338 766.277405,315.059143 
	C777.878174,310.793579 787.363647,317.348267 787.858032,330.007751 
	C788.033447,334.498322 787.887817,339.001495 787.888672,343.997559 
z"/>
<path fill="#9F9F9F" opacity="1.000000" stroke="none" 
	d="
M1070.881592,329.006470 
	C1070.881470,324.213654 1070.881470,319.919220 1070.881470,314.907501 
	C1075.727051,315.890564 1080.545410,313.013458 1084.796387,317.268433 
	C1086.488892,316.521942 1088.649414,315.219482 1090.990723,314.596161 
	C1101.793091,311.720459 1110.029053,317.368408 1110.725586,328.803528 
	C1111.320923,338.578400 1110.848755,348.418335 1110.848755,358.672180 
	C1106.354736,358.672180 1102.155762,358.672180 1097.379150,358.672180 
	C1097.379150,351.035919 1097.409424,343.425903 1097.362549,335.816345 
	C1097.346313,333.171021 1097.811279,330.235870 1096.828247,327.964630 
	C1095.859619,325.726715 1093.610840,323.132416 1091.428345,322.549500 
	C1088.358521,321.729645 1085.662720,323.833862 1084.958618,327.297241 
	C1084.465820,329.722015 1084.081909,332.212189 1084.046875,334.678833 
	C1083.933716,342.630798 1084.004761,350.585358 1084.004761,358.823669 
	C1079.541260,358.823669 1075.619141,358.823669 1070.881714,358.823669 
	C1070.881714,349.015167 1070.881714,339.259979 1070.881592,329.006470 
z"/>
<path fill="#9F9F9F" opacity="1.000000" stroke="none" 
	d="
M705.743347,322.877197 
	C714.245972,311.572937 729.946106,311.842255 738.112488,319.841461 
	C747.389709,328.928741 747.240601,346.028168 737.836853,354.902649 
	C731.615601,360.773804 720.408020,361.948151 712.217712,357.587006 
	C704.353333,353.399445 699.461975,343.013184 701.482422,333.768372 
	C702.280640,330.115845 704.145020,326.696289 705.743347,322.877197 
M729.880737,345.975311 
	C730.267456,341.403961 731.107666,336.813293 730.913818,332.266724 
	C730.718506,327.687225 726.726501,323.944244 723.181335,323.912720 
	C719.497314,323.879944 715.644104,327.385803 715.132324,331.994781 
	C714.715942,335.744385 714.712708,339.634888 715.229309,343.365509 
	C715.712097,346.851654 717.295166,350.092468 721.362427,350.944519 
	C725.213928,351.751312 727.661133,349.754578 729.880737,345.975311 
z"/>
<path fill="#9F9F9F" opacity="1.000000" stroke="none" 
	d="
M906.888306,337.973816 
	C905.592529,357.723236 890.085510,362.850067 877.735657,359.026459 
	C867.304016,355.796753 861.403442,345.257904 863.210266,333.623352 
	C864.998108,322.111206 873.812378,314.195190 884.980835,314.071442 
	C895.961975,313.949768 904.066345,321.037048 906.160339,332.619110 
	C906.455261,334.250336 906.648560,335.899933 906.888306,337.973816 
M877.708313,345.556122 
	C878.844116,349.059662 881.187195,351.945587 884.862061,350.853821 
	C887.586060,350.044525 890.658875,347.602234 891.861084,345.072296 
	C894.237061,340.072235 894.595093,334.293182 891.737488,329.326447 
	C890.385437,326.976440 887.190491,324.289124 884.844177,324.301727 
	C882.496887,324.314362 878.647339,327.155426 878.138550,329.372253 
	C877.003906,334.316132 877.541443,339.643768 877.708313,345.556122 
z"/>
<path fill="#9F9F9F" opacity="1.000000" stroke="none" 
	d="
M647.821777,326.677551 
	C644.869141,322.304413 640.846191,322.482269 636.910461,323.588135 
	C633.607910,324.516052 630.503540,326.149414 627.296692,327.476562 
	C625.987122,317.861115 625.928345,317.577118 635.291199,315.639069 
	C639.425354,314.783325 643.937073,314.772156 648.128052,315.390137 
	C655.174438,316.429169 659.552246,320.845428 659.970825,328.119843 
	C660.549377,338.175934 660.115967,348.290253 660.115967,359.394775 
	C656.937500,358.964081 653.367493,358.411987 649.778870,358.039276 
	C648.811035,357.938782 647.793518,358.496399 646.787048,358.557556 
	C641.739746,358.864227 636.598022,359.812469 631.663208,359.179749 
	C626.341858,358.497498 622.787048,354.742676 622.047913,349.127869 
	C621.286072,343.339905 623.053406,338.071625 628.380554,335.629181 
	C633.377380,333.338196 639.001648,332.164062 644.475708,331.265717 
	C647.480286,330.772675 648.781006,330.156006 647.821777,326.677551 
M636.986389,350.650299 
	C640.344055,352.739990 643.666748,352.653900 646.622803,350.041718 
	C649.985840,347.069824 649.234497,343.299408 648.450745,339.429352 
	C643.811462,339.117340 639.125305,338.708191 636.440674,342.776520 
	C635.317627,344.478455 636.360840,347.609955 636.986389,350.650299 
z"/>
<path fill="#9F9F9F" opacity="1.000000" stroke="none" 
	d="
M1060.057373,318.892334 
	C1061.801025,322.602661 1064.313721,325.998444 1064.531128,329.535309 
	C1065.119385,339.109650 1064.732666,348.743927 1064.732666,359.442993 
	C1061.017822,358.951508 1057.453979,358.431671 1053.875854,358.041718 
	C1053.017456,357.948212 1052.115845,358.322571 1051.227539,358.420135 
	C1046.671753,358.920441 1042.074219,360.020782 1037.566406,359.733704 
	C1031.688232,359.359375 1027.398804,355.115784 1026.220337,349.999084 
	C1024.957397,344.515747 1027.226074,338.145569 1032.602539,335.531006 
	C1037.114624,333.336853 1042.280884,332.438385 1047.213501,331.187714 
	C1048.755005,330.796906 1050.479248,331.126892 1052.100708,331.126892 
	C1052.496460,321.471436 1046.284424,320.472443 1031.852539,327.467316 
	C1029.408813,320.009125 1030.210083,318.042694 1037.302734,316.115906 
	C1045.055542,314.009827 1052.739990,313.791260 1060.057373,318.892334 
M1039.805054,344.265289 
	C1040.524902,346.587463 1040.670410,350.337982 1042.093750,350.910339 
	C1044.463501,351.863251 1048.226929,351.696167 1050.371704,350.353119 
	C1054.301636,347.892120 1053.375610,343.557831 1052.498413,339.205902 
	C1047.792725,339.687256 1042.905640,338.481079 1039.805054,344.265289 
z"/>
<path fill="#9F9F9F" opacity="1.000000" stroke="none" 
	d="
M607.529785,350.981628 
	C610.423889,350.048492 612.890320,349.152435 615.371704,348.250946 
	C617.297668,356.326874 616.426819,358.209595 608.573608,359.508453 
	C599.491272,361.010620 590.173096,361.034943 583.864990,352.947815 
	C577.465759,344.743866 577.677063,335.274353 581.674255,326.022797 
	C584.739502,318.927979 590.739807,315.561981 598.299133,315.317596 
	C605.810059,315.074799 612.949158,316.933838 616.645508,323.994385 
	C619.221741,328.915253 620.120422,334.714355 622.051453,341.049622 
	C611.458008,341.049622 602.558655,341.049622 593.636597,341.049622 
	C594.207214,349.353577 596.915710,351.254883 607.529785,350.981628 
M606.865051,333.627838 
	C609.609558,330.571533 607.630676,328.188263 605.576172,326.058746 
	C602.808228,323.189728 599.242310,322.975098 596.008423,324.788208 
	C592.701111,326.642609 592.403931,329.924042 593.477478,333.748657 
	C597.764099,333.748657 601.877625,333.748657 606.865051,333.627838 
z"/>
<path fill="#9F9F9F" opacity="1.000000" stroke="none" 
	d="
M700.003418,347.827393 
	C699.045227,354.835388 695.647522,359.073700 688.805237,359.582642 
	C682.815063,360.028137 676.649353,359.007690 670.643921,358.092224 
	C665.162354,357.256531 664.072266,353.460632 665.427368,348.876678 
	C670.343384,350.014740 675.087585,351.526733 679.936890,352.033783 
	C681.900085,352.239105 684.092590,350.251984 686.180725,349.262543 
	C684.655579,347.583832 683.411865,345.424561 681.544128,344.330902 
	C678.124634,342.328644 674.148315,341.274231 670.738525,339.258881 
	C661.645569,333.884491 661.938049,321.917114 671.324951,317.077911 
	C680.270081,312.466492 689.231384,313.674072 697.284973,319.103302 
	C698.895874,320.189270 698.359985,324.459656 699.011597,328.481628 
	C695.177856,326.443970 692.973511,324.830078 690.506531,324.081787 
	C687.881226,323.285492 684.997498,323.021423 682.246765,323.115387 
	C681.140808,323.153168 679.386780,324.644562 679.212341,325.688904 
	C679.043396,326.700317 680.256897,328.480927 681.329773,329.061615 
	C684.679993,330.874939 688.292297,332.195221 691.726929,333.863281 
	C697.341187,336.589874 700.366516,340.982422 700.003418,347.827393 
z"/>
<path fill="#A1A1A1" opacity="1.000000" stroke="none" 
	d="
M562.237915,328.000000 
	C562.238098,318.567139 562.238098,309.634308 562.238098,300.404785 
	C566.571167,300.404785 570.330200,300.404785 574.552979,300.404785 
	C574.552979,319.667023 574.552979,338.993164 574.552979,358.724640 
	C570.777954,358.724640 566.894409,358.724640 562.237732,358.724640 
	C562.237732,348.661163 562.237732,338.580597 562.237915,328.000000 
z"/>
<path fill="#FDFDFD" opacity="1.000000" stroke="none" 
	d="
M1002.916321,324.340393 
	C1008.736206,325.258270 1010.512756,329.220367 1010.961121,333.976868 
	C1011.490173,339.590942 1011.171692,345.133484 1005.630859,348.484985 
	C1002.376770,350.453339 999.261597,349.614227 996.601685,347.011353 
	C990.765686,341.300476 991.870056,325.043732 1002.916321,324.340393 
z"/>
<path fill="#FDFEFE" opacity="1.000000" stroke="none" 
	d="
M888.304321,124.821869 
	C894.762695,142.715210 895.065430,160.406219 888.867920,177.948044 
	C883.348450,193.570831 870.090515,201.306564 855.468384,198.000336 
	C845.310730,195.703568 838.943481,188.753693 835.306824,179.570389 
	C828.225037,161.687485 828.085022,143.463486 835.135437,125.549171 
	C839.636597,114.112228 847.587524,106.248360 860.781982,105.873085 
	C874.289856,105.488892 882.892517,112.577019 888.304321,124.821869 
z"/>
<path fill="#F8F8F8" opacity="1.000000" stroke="none" 
	d="
M449.616150,328.358154 
	C450.456421,330.732788 451.134247,332.750214 451.993164,335.306519 
	C446.973022,335.306519 442.321075,335.306519 436.945801,335.306519 
	C439.310272,328.556976 441.621704,321.958832 444.443848,313.902832 
	C446.436554,319.510376 447.945129,323.755646 449.616150,328.358154 
z"/>
<path fill="#FDFDFD" opacity="1.000000" stroke="none" 
	d="
M729.705078,346.335449 
	C727.661133,349.754578 725.213928,351.751312 721.362427,350.944519 
	C717.295166,350.092468 715.712097,346.851654 715.229309,343.365509 
	C714.712708,339.634888 714.715942,335.744385 715.132324,331.994781 
	C715.644104,327.385803 719.497314,323.879944 723.181335,323.912720 
	C726.726501,323.944244 730.718506,327.687225 730.913818,332.266724 
	C731.107666,336.813293 730.267456,341.403961 729.705078,346.335449 
z"/>
<path fill="#FDFDFD" opacity="1.000000" stroke="none" 
	d="
M877.552979,345.185577 
	C877.541443,339.643768 877.003906,334.316132 878.138550,329.372253 
	C878.647339,327.155426 882.496887,324.314362 884.844177,324.301727 
	C887.190491,324.289124 890.385437,326.976440 891.737488,329.326447 
	C894.595093,334.293182 894.237061,340.072235 891.861084,345.072296 
	C890.658875,347.602234 887.586060,350.044525 884.862061,350.853821 
	C881.187195,351.945587 878.844116,349.059662 877.552979,345.185577 
z"/>
<path fill="#FAFAFA" opacity="1.000000" stroke="none" 
	d="
M636.702759,350.370911 
	C636.360840,347.609955 635.317627,344.478455 636.440674,342.776520 
	C639.125305,338.708191 643.811462,339.117340 648.450745,339.429352 
	C649.234497,343.299408 649.985840,347.069824 646.622803,350.041718 
	C643.666748,352.653900 640.344055,352.739990 636.702759,350.370911 
z"/>
<path fill="#F9F9F9" opacity="1.000000" stroke="none" 
	d="
M1039.902832,343.899994 
	C1042.905640,338.481079 1047.792725,339.687256 1052.498413,339.205902 
	C1053.375610,343.557831 1054.301636,347.892120 1050.371704,350.353119 
	C1048.226929,351.696167 1044.463501,351.863251 1042.093750,350.910339 
	C1040.670410,350.337982 1040.524902,346.587463 1039.902832,343.899994 
z"/>
<path fill="#F8F8F8" opacity="1.000000" stroke="none" 
	d="
M606.428101,333.688232 
	C601.877625,333.748657 597.764099,333.748657 593.477478,333.748657 
	C592.403931,329.924042 592.701111,326.642609 596.008423,324.788208 
	C599.242310,322.975098 602.808228,323.189728 605.576172,326.058746 
	C607.630676,328.188263 609.609558,330.571533 606.428101,333.688232 
z"/>
</svg>