<?xml version="1.0" encoding="UTF-8"?>
<svg id="Layer_1" data-name="Layer 1" xmlns="http://www.w3.org/2000/svg" viewBox="0 0 243.71 49.52">
  <defs>
    <style>
      .cls-1 {
        fill: #fff;
      }
    </style>
  </defs>
  <g id="KQKbs7">
    <g>
      <path class="cls-1" d="M197.51,44.89c10.52,.26,15.78,.37,17.63,.42,5.95,.16,11.89,.26,17.84,.42,2.43,.06,4.86,.07,7.31,.31-.54,.07-1.08,.18-1.63,.2-4.06,.1-8.11,.16-12.17,.26-5.41,.13-10.81,.23-16.22,.43-5.07,.19-10.13,.28-15.2,.42-4.83,.13-9.65,.35-14.48,.43,2.63,.29,5.26,.3,7.9,.34,3.82,.05,7.64,.09,11.46,.23,5.91,.21,11.82,.28,17.74,.42,5.47,.12,10.94,.36,16.41,.38,.24,0,.74-.14,.27,.38H1.62q-1.62,0-1.62-1.62c.44-1.12,.64-2.31,1.25-3.38,1.26-2.19,2.88-3.35,3.26-3.61,1.91-1.3,3.79-1.64,4.76-1.74,2.75-.07,5.52-.12,8.31-.16,5.22-.07,10.37-.08,15.43-.04,.45,0,.9,0,1.35,0-.01,.14-.03,.44,.12,.78,.15,.35,.39,.56,.5,.64-.3-.02-.72,0-1.21,0-.76,0-1.41,.3-1.91,.82-.34,.35-.6,.76-.61,1.23,0,.12-.01,.37,.12,.61,.24,.44,.82,.66,1.47,.61,2.88,0,5.75,0,8.63,0,.95,.01,1.63-.21,2.03-.38,1.68-.71,2.6-2.24,3.34-3.46,.24-.4,.42-.74,.52-.95,.44,0,.88,0,1.31-.01-1.02,1.66-2.03,2.86-2.8,3.67-.34,.36-1.28,1.66-2.48,3.33-.37,.52-.78,1.1-.43,1.77,.35,.65,1.01,.7,1.69,.67,.61-.02,1.23-.07,1.83,.01,1.41,.18,2.31-.52,3.05-1.59,.19-.28,.35-.46,.42-.57,.39-.58,1-1.41,1.94-2.48,.66,0,1.68-.02,3.09,0,.06,0,.09,0,.1,0,2.44,.05,4.91,.28,6.89-1.72,.35,1.65,.43,1.72,1.96,1.72,.78,0,1.56-.04,2.33,0,.99,.06,1.67-.4,2.22-1.14,.63-.83,.95-1.26,1.28-1.64,.13-.15,.3-.35,.5-.56,.38-.4,.99-.95,1.9-1.48,1.27,.02,2.55,.03,3.82,.05-.36,.36-.75,.77-1.13,1.23-.3,.36-.57,.72-.8,1.05,0,0-.59,.74-.57,1.36,0,.17,.04,.34,.1,.51,.27,.72,.96,.62,1.57,.62,1.12,0,2.24-.04,3.35,0,1.15,.05,2.15-.17,3-1.3,.16,1.2,.88,1.33,1.77,1.29,.91-.05,1.83-.03,2.74,0,.74,.02,1.3-.3,1.73-.87,1.14-1.51,1.77-2.22,2.43-3.24,.2-.32,.37-.58,.47-.74,.3,0,.59,.01,.89,.02-.34,.41-.59,.79-.76,1.07-.37,.6-.62,1.03-.66,1.63-.01,.2,0,.41,.05,.63,.2,.97,.72,1.46,1.72,1.49,.14,0,.27,0,.41,0,1.67-.08,3.47,.42,4.87-.98,1.27,1.74,3.12,.73,4.7,.96,.65,.1,1.33,.02,2.14,.02-.48,.95-1,1.41-2,1.38-2.27-.06-4.54,0-6.8-.02-1.08,0-1.8,.52-2.24,1.44-.46,.97,.04,1.82,1.11,1.82,3.59,.02,7.18,.13,10.76-.05,1.99-.1,3.59-1.32,4.8-2.92,1-1.32,1.66-2.64,3.89-5.31,.34-.4,.62-.73,.82-.95h2.28c.03,.15,.1,.43,.29,.73,.21,.32,.47,.51,.61,.6-.31-.03-.77,0-1.32,0-.93,0-1.6,.45-2.14,1.15-.36,.47-.44,.97-.21,1.52,.25,.58,.75,.6,1.28,.6,3.01,0,6.02,.01,9.04-.01,2.28-.02,4.71-1.98,5.21-4.19,.07-.33,.2-.47,.53-.46,.2,0,.41,0,.61,0,37.16,0,74.33,0,111.49,0,.37,0,.73,0,1.1,0-3.37,.44-6.75,.31-10.12,.42-5.14,.17-10.27,.28-15.41,.42-4.8,.13-9.6,.25-14.39,.39-5.07,.15-10.14,.26-15.21,.43-2.6,.09-5.2,.05-7.79,.22,3.29,.35,6.59,.28,9.89,.34,6.08,.12,12.17,.23,18.25,.42,5.74,.18,11.49,.27,17.24,.41,5.57,.14,11.14,.37,16.73,.52-.6,.07-1.19,.19-1.79,.21-4.43,.1-8.86,.17-13.29,.28-5.03,.12-10.07,.23-15.1,.41-9.54,.35-9.87,.25-15,.4-4.09,.12-10.02,.3-17.28,.57,4.88,.13,10.86,.28,17.69,.44Z"/>
      <path class="cls-1" d="M243.71,11.16c-.46,1.15-1.36,1.3-2.49,1.27-2.81-.08-5.62-.01-8.43-.03-.54,0-.92,.11-1.28,.58-3.17,4.17-6.37,8.32-9.54,12.49-.43,.57-1.17,1.23-.72,1.96,.44,.73,1.38,.52,2.15,.45,2.68-.26,5.15-1.2,7.37-2.63,1.29-.83,2.41-.98,3.74-.29-.03,.31-.35,.33-.56,.45-5.02,2.78-10.22,5.09-15.99,5.75-3.14,.36-6.28,.15-9.37-.59-.42-.1-.84-.27-1.23-.45-1.7-.79-2.02-1.89-.88-3.38,3.21-4.18,6.46-8.34,9.68-12.51,.32-.41,.91-.83,.66-1.39-.28-.62-1-.41-1.55-.42-1.08-.02-2.17,.01-3.25-.02-.32,0-.9,.29-.83-.47,.04-.49-.05-.98,.74-1.05,2.69-.24,5.35-.72,7.99-1.33,4.59-1.07,9.02-2.54,13.18-4.8,.23-.13,.49-.28,.74-.28,1.57-.03,3.15-.01,4.88-.01-1.87,2.2-3.63,4.26-5.54,6.51h10.52v.2Z"/>
      <path class="cls-1" d="M153.13,0c1.1,.36,2.28,.38,3.37,.82,.63,.26,1.25,.51,1.79,.93,1.17,.91,1.16,2.04-.03,2.93-1.2,.89-2.61,1.24-4.05,1.48-2.84,.47-5.65,.38-8.42-.43-.68-.2-1.34-.48-1.93-.86-1.52-.99-1.54-2.27-.03-3.27,1.23-.83,2.65-1.13,4.09-1.39,.25-.04,.55,.06,.75-.2h4.47Z"/>
      <path class="cls-1" d="M59.84,4.2c-1.12,2.56-2.26,4.92-3.18,7.37-.54,1.43-1.31,1.89-2.81,1.89-1.31,0-2.21-.04-2.85-1.43-.63-1.36-1.89-2.3-3.19-3.05-5.04-2.87-10.4-3.61-16.04-2.28-.96,.23-1.85,.66-2.58,1.34-.98,.91-1.01,1.74-.13,2.72,.69,.76,1.55,1.31,2.43,1.81,3.28,1.89,6.81,3.27,10.21,4.91,2.28,1.1,4.58,2.16,6.58,3.75,.26,.21,.53,.42,.77,.65,1.55,1.48,1.69,2.59,.57,4.4-1.41,2.28-3.6,3.5-6,4.42-3.5,1.35-7.18,1.88-10.89,2.16-7.92,.6-15.81,.09-23.69-.73-1.43-.15-2.85-.19-4.03,.86-.26,.23-.57,.17-.87,.17-.85,0-1.69,0-2.54,0q-1.52,0-.96-1.35c1.06-2.59,2.13-5.17,3.15-7.78,.22-.57,.5-.76,1.1-.73,1.01,.05,2.03,.01,3.04,.02,.28,0,.58-.1,.62,.41,.16,2.1,1.49,3.4,3.14,4.46,2.22,1.42,4.69,2.23,7.25,2.74,3.81,.76,7.63,1.07,11.46,.11,.86-.21,1.67-.54,2.39-1.06,1.64-1.18,1.78-2.68,.36-4.1-1.34-1.34-3.02-2.14-4.7-2.94-3.93-1.86-8.05-3.3-11.91-5.33-1.41-.74-2.77-1.57-3.92-2.68-2.04-1.97-2-4.35,.12-6.25,1.65-1.48,3.68-2.23,5.78-2.8,4.16-1.14,8.43-1.52,12.73-1.66,5.76-.18,11.49,.08,17.18,1.04,.47,.08,.94,.13,1.39,.28,1.78,.58,3.33,.13,4.74-.98,.38-.3,.72-.39,1.19-.37,1.31,.05,2.62,.02,4.09,.02Z"/>
      <path class="cls-1" d="M89.12,17.63c-3.19,2.67-6.29,5.28-9.39,7.88-2.1,1.76-4.2,3.52-6.3,5.28-.41,.34-3.19,.69-3.6,.43-.37-.23-.16-.62-.14-.93,.23-3.2,.43-6.41,.3-9.62-.09-2.09-.29-4.17-.67-6.24-.63-3.4-3.24-4.47-6.13-4.22,0-.99,.34-1.44,1.44-1.53,3.88-.31,7.74-.76,11.61-1.11,2.08-.19,1.66-.47,2.46,1.49,1.25,3.05,1.79,6.29,2.12,9.55,.04,.43,.06,.87,.11,1.51,1.3-1.12,2.49-2.13,3.66-3.15,3.44-3,6.91-5.97,10.31-9.01,1.05-.94,2.25-.46,3.37-.59,.43-.05,.29,.55,.33,.83,.33,2.78,.6,5.58,.94,8.36,.25,2.01,.51,4.02,1,5.99,.18,.7,.44,.98,1.2,.63,3.44-1.63,6.67-3.58,9.41-6.24,1.46-1.41,1.42-2.2-.01-3.66-.62-.62-1.31-1.18-1.9-1.82-1.14-1.24-.91-2.5,.62-3.16,2.56-1.1,5.19-1.21,7.78-.13,1.88,.78,2.43,2.41,1.54,4.25-.73,1.52-1.88,2.72-3.1,3.85-5.43,5.05-11.67,8.95-18.04,12.67-.82,.48-1.67,.88-2.48,1.37-1.19,.72-2.43,1.07-3.84,.94-.66-.06-.91-.17-.99-.88-.47-4.09-1.02-8.18-1.53-12.26-.02-.12-.04-.24-.08-.47Z"/>
      <path class="cls-1" d="M202.28,.18c.13-.01,.49,0,1.5,0,1.89,0,2.05,0,2.36,0,1.24,.02,2.16,.17,3.2,.28,1.45,.16,2.88,.42,4.27,.95,.64,.24,1.25,.53,1.75,.99,1.05,.98,.95,2.08-.27,2.84-.81,.51-1.73,.75-2.66,.92-1.88,.35-3.76,.44-5.63-.09-.42-.12-.83-.3-1.19-.54-.96-.65-.95-1.5-.02-2.16,.27-.19,.68-.33,.63-.71-.06-.44-.53-.51-.87-.58-1.25-.24-2.49-.14-3.7,.26-1.39,.46-2.65,1.16-3.81,2.06-2.26,1.77-4,3.98-5.54,6.51h10.32c-.45,.92-.83,1.55-1.99,1.51-2.77-.09-5.55,0-8.33-.05-.66-.01-1.02,.19-1.34,.77-2.49,4.41-5.02,8.79-8.15,12.8-5.69,7.27-13.22,11.01-22.33,11.82-3.15,.28-6.28,.37-9.4-.25-1.43-.29-2.83-.71-4-1.63-1.47-1.15-1.28-2.59,.49-3.2,2.8-.96,5.66-.91,8.46,.03,1.55,.52,1.68,1.25,.65,2.5-.21,.25-.58,.5-.46,.85,.14,.41,.61,.38,.96,.4,2.69,.15,5.02-.64,6.73-2.8,2.94-3.71,5.46-7.72,8.12-11.63,2.14-3.16,4.27-6.32,6.49-9.6h-8.51c.5-1.04,1.03-1.57,2.19-1.52,2.23,.11,4.47,.02,6.7,.04,.51,0,.86-.11,1.21-.52,4.49-5.37,10.39-8.26,17.13-9.64,1.66-.34,3.34-.49,5.02-.63Z"/>
      <path class="cls-1" d="M129.34,12.7c.27-1.1,.83-1.4,1.85-1.39,6.83,.07,13.66,.03,20.48-.36,.66-.04,1.32-.09,2.15-.15-1.56,2.06-3.03,3.98-4.5,5.91-3.52,4.62-7.06,9.23-10.56,13.86-.39,.51-.78,.72-1.42,.72-2.67,0-5.34-.02-7.97-.62-.13-.03-.27-.05-.39-.09-2.61-.86-2.94-1.77-1.51-3.93,2.22-3.36,4.78-6.46,7.08-9.75,.46-.66,.91-1.34,1.3-2.05,.48-.88,.29-1.31-.73-1.65-1.7-.56-3.46-.53-5.22-.52-.16,0-.33,.02-.56,.03Z"/>
      <path class="cls-1" d="M94.03,46.43c.39-.52,.95-.58,1.54-.57,2.27,0,4.54,0,6.8,0,1.01,0,2.8-1.52,2.99-2.51,.11-.56-.28-.51-.62-.51-1.83,0-3.66,0-5.48-.01-1.18-.01-1.78-.81-1.15-1.78,1.2-1.85,2.27-3.84,4.28-5.05,1.09-.66,2.23-.91,3.48-.85,1.01,.05,2.03,0,3.05,.02,.23,0,.5-.03,.59,.27,.07,.25-.04,.46-.2,.65-.4,.47-.9,.74-1.52,.65-1.51-.23-2.51,.41-3.26,1.68-.43,.72-.99,1.37-1.49,2.05-.43,.58-.26,.84,.45,.83,.85,0,1.69,0,2.54,.01,.76,0,1.26-.39,1.68-.97,1.01-1.4,2.06-2.77,3.05-4.17,.5-.7,1.1-1.03,1.97-1,1.25,.04,2.5,0,3.76,.01,.26,0,.58-.06,.68,.28,.08,.29-.09,.53-.31,.7-.24,.18-.5,.4-.78,.45-1.14,.2-1.8,.95-2.43,1.82-1.56,2.17-3.18,4.29-4.75,6.44-.92,1.25-2.17,1.99-3.63,2.44-2.05,.18-4.1,.04-6.15,.07-1.45,.02-2.9-.03-4.34,.02-.8,.03-.94-.3-.74-.97Z"/>
      <path class="cls-1" d="M57.8,35.17c1.93,0,3.85-.01,5.78,0,1.2,.01,1.75,.88,1.11,1.9-.89,1.43-1.82,2.87-3.05,4.03-1.19,1.12-2.61,1.87-4.38,1.76-1.96-.12-2.81-.08-4.77-.03-.52,.01-.93,.03-1.14,.04-.14,.17-.38,.47-.66,.85-.66,.89-1.19,1.54-1.92,2.61-.52,.76-1.18,1.16-2.13,1.09-.64-.05-1.28,0-1.93-.01-.3,0-.67,.11-.85-.19-.2-.34,.08-.63,.28-.9,1.03-1.38,2.06-2.76,3.08-4.14,.71-.95,1.43-1.88,2.12-2.84,.51-.72,1.12-1.12,2.04-1.05,.74,.06,1.49,.03,2.23,0,.83-.02,.87,.33,.46,.91-.31,.44-.65,.86-.96,1.3-.31,.44-.3,.76,.35,.77,.98,0,1.96,.01,2.94,0,.56,0,.92-.37,1.23-.79,.7-.95,1.4-1.9,2.11-2.85,.16-.21,.4-.42,.23-.71-.17-.29-.48-.18-.74-.18-2.7,0-5.41,0-8.11-.02-.31,0-.76,.18-.9-.23-.15-.45,.24-.73,.57-.98,.52-.39,1.14-.37,1.34-.36,1.11,.03,3.09,.01,5.68,.01Z"/>
      <path class="cls-1" d="M89.27,35.16c.61,0,1.22,0,1.83,0,.2,0,.54-.05,.59,.04,.51,1.07,1.11,.18,1.66,.09,1.51-.24,3.04-.16,4.55-.07,.79,.05,1.08,1.14,.54,1.97-.67,1.01-1.44,1.96-2.14,2.95-.27,.39-.88,.82,.06,1.23,.36,.15,.18,.54-.03,.78-.39,.46-.9,.69-1.52,.69-.81,0-1.62,0-2.44-.01-.46,0-.98,.09-1.23-.47-.24-.56-.25-1.11,.14-1.63,.73-.97,1.45-1.95,2.16-2.94,.19-.26,.54-.53,.29-.88-.23-.31-.64-.19-.95-.1-1.41,.41-2.54,1.23-3.42,2.4-.67,.89-1.34,1.78-1.98,2.69-.47,.67-1.07,.98-1.89,.94-.74-.03-1.49,0-2.23-.01-.88-.02-.99-.22-.47-.94,.99-1.37,2.01-2.71,3.02-4.07,.3-.4,.71-.79-.09-1.18-.43-.21-.13-.59,.1-.84,.58-.65,1.35-.68,2.15-.64,.44,.02,.88,0,1.32,0h0Z"/>
      <path class="cls-1" d="M44.07,35.16c1.45,0,2.91,0,4.36,0,.26,0,.59-.06,.72,.24,.14,.32-.1,.58-.3,.81-.36,.42-.82,.54-1.36,.54-1.76-.01-3.52,0-5.28,0-.3,0-.63-.03-.9,.07-.53,.21-1.21,.49-1.1,1.14,.1,.63,.79,.32,1.21,.33,1.08,.04,2.17,0,3.25,0,.45,0,.97-.14,1.23,.44,.26,.57,.26,1.13-.13,1.63-1.06,1.36-2.43,2.36-4.15,2.43-2.9,.12-5.82,.04-8.73,.03-.26,0-.6,.07-.7-.26-.08-.27,.1-.51,.29-.72,.42-.46,.95-.6,1.56-.6,1.73,0,3.45,0,5.18,0,.37,0,.76,.03,1.09-.15,.44-.25,1.01-.53,.88-1.1-.11-.47-.7-.25-1.07-.25-1.12-.03-2.23,0-3.35-.02-.49,0-1.04,.1-1.31-.51-.25-.58-.2-1.16,.18-1.63,1.11-1.35,2.49-2.3,4.28-2.4,1.38-.08,2.77-.02,4.16-.02h0Z"/>
      <path class="cls-1" d="M126.53,35.17c1.45,0,2.91,0,4.36,0,.25,0,.58-.1,.7,.24,.1,.29-.1,.52-.27,.73-.37,.46-.86,.61-1.43,.6-1.76-.01-3.52,0-5.27,0-.3,0-.63-.02-.9,.08-.54,.21-1.21,.52-1.1,1.15,.09,.57,.8,.3,1.23,.31,1.11,.04,2.23,0,3.35,.02,1.2,.01,1.76,.97,1.07,1.97-1,1.45-2.44,2.44-4.19,2.53-2.9,.14-5.81,.04-8.72,.03-.26,0-.6,.09-.71-.24-.11-.32,.11-.58,.32-.8,.41-.41,.9-.55,1.47-.54,1.76,.01,3.52,0,5.27-.01,.33,0,.7,0,.99-.14,.45-.21,1.03-.52,.92-1.07-.11-.56-.74-.29-1.13-.3-1.11-.03-2.23,0-3.35,0-.46,0-.99,.1-1.24-.45-.25-.55-.27-1.15,.12-1.64,1.11-1.41,2.52-2.35,4.35-2.46,1.38-.08,2.77-.02,4.16-.02Z"/>
      <path class="cls-1" d="M71.52,37.22c.95-.27,1.61-.85,2.32-1.31,.76-.49,1.55-.81,2.47-.74,.26,.02,.58-.04,.68,.3,.08,.28-.08,.52-.29,.71-.39,.35-.8,.62-1.36,.57-.85-.07-1.58,.26-2.28,.71-1.99,1.28-4.05,2.47-5.31,4.59-.35,.6-.94,.83-1.65,.8-.78-.03-1.56,0-2.33,0-.86-.02-.98-.23-.46-.96,.98-1.38,2.01-2.72,3.01-4.08,.29-.4,.75-.8-.1-1.14-.34-.14-.17-.47-.02-.7,.37-.55,.89-.8,1.55-.8,1.29,0,2.57,0,3.86,0,.29,0,.66-.1,.81,.26,.14,.32-.14,.57-.3,.82-.18,.27-.51,.44-.6,.99Z"/>
      <path class="cls-1" d="M78.18,35.47c1.2-.54,2.46-.19,3.69-.24,.62-.03,1.51-.35,1.81,.21,.34,.64-.51,1.14-.88,1.67-.77,1.11-1.61,2.17-2.41,3.26-.25,.35-.61,.73,.16,.96,.44,.13,.28,.47,.08,.73-.39,.52-.92,.78-1.57,.77-1.32,0-2.64,.01-3.96,0-.85-.01-.96-.23-.44-.96,.96-1.35,1.98-2.66,2.96-3.99,.24-.33,.67-.67,.16-1.12-.74-.7,.16-.89,.4-1.29Z"/>
      <path class="cls-1" d="M123.68,19.86c-1.35-.01-2.55-.16-3.67-.69-.36-.17-.75-.39-.77-.86-.03-.53,.38-.79,.78-.95,2.39-.94,4.79-.94,7.18,0,.37,.15,.74,.39,.76,.86,.03,.54-.38,.75-.78,.95-1.15,.56-2.39,.66-3.51,.68Z"/>
      <path class="cls-1" d="M199.85,19.87c-1.29-.03-2.53-.14-3.67-.7-.37-.18-.73-.41-.75-.87-.02-.47,.34-.74,.71-.89,2.45-.99,4.92-1.04,7.34,.04,.97,.43,.92,1.18-.05,1.7-1.13,.6-2.37,.7-3.59,.73Z"/>
      <path class="cls-1" d="M161.24,19.86c-1.22-.02-2.42-.15-3.54-.67-.41-.19-.82-.44-.8-.94,.01-.44,.37-.72,.76-.87,2.42-.96,4.85-.97,7.27,.03,.39,.16,.73,.44,.71,.89-.02,.45-.38,.71-.75,.88-1.15,.53-2.38,.69-3.64,.69Z"/>
      <path class="cls-1" d="M59.49,19.86c-1.26-.02-2.46-.15-3.58-.67-.4-.18-.82-.43-.81-.94,0-.45,.37-.72,.75-.87,2.42-.96,4.85-.99,7.26,.01,.38,.16,.72,.41,.71,.89,0,.48-.38,.69-.74,.87-1.14,.56-2.38,.69-3.6,.7Z"/>
      <path class="cls-1" d="M82.52,34.23c-.99-.01-1.34-.48-1.08-1.44,.41-1.49,3.05-3.28,4.62-3.13,.85,.09,1.17,.65,.84,1.54-.53,1.46-2.82,3.05-4.38,3.03Z"/>
      <path class="cls-1" d="M83.75,38.88c-.75,1.17-1.49,2.33-2.24,3.5,.27-.63,.22-.99,.1-1.21-.1-.19-.29-.34-.27-.58,.01-.19,.14-.32,.2-.38,.25-.26,.57-.67,1.02-1.34,.39,0,.79,0,1.18,.01Z"/>
      <path class="cls-1" d="M94.03,46.43c.03,.71,.39,.86,1.09,.86,3.38-.03,6.76,0,10.14,.02-.26,.05-.52,.14-.78,.14-3.33,.01-6.67,0-10,0-.3,0-.67,.04-.8-.28-.12-.3,.06-.58,.36-.75Z"/>
      <path class="cls-1" d="M78.18,35.47c-.08,.44-.86,.68-.4,1.29-.66-.47-.6-.67,.4-1.29Z"/>
    </g>
  </g>
</svg>